<svg width="112" height="112" viewBox="0 0 112 112" fill="none" xmlns="http://www.w3.org/2000/svg">
<g clip-path="url(#clip0_187_2108)">
<path d="M92.075 101.523H21.925V26.9829H92.075V101.523ZM22.925 100.523H91.075V27.9829H22.925V100.523Z" fill="#002E6D"/>
<path d="M96.4661 112.5H17.5341V100.523H22.4251V101.523H18.5341V111.5H95.4661V101.523H91.5751V100.523H96.4661V112.5Z" fill="#002E6D"/>
<path d="M65.7321 101.023H64.7321V80.6689H49.2681V101.023H48.2681V79.6689H65.7321V101.023Z" fill="#002E6D"/>
<path d="M48.7191 49.97H34.5481V37.959H48.7191V49.97ZM35.5481 48.97H47.7191V38.959H35.5481V48.97Z" fill="#002E6D"/>
<path d="M48.7191 69.7268H34.5481V57.7168H48.7191V69.7268ZM35.5481 68.7268H47.7191V58.7168H35.5481V68.7268Z" fill="#002E6D"/>
<path d="M79.4521 49.97H65.2811V37.959H79.4521V49.97ZM66.2811 48.97H78.4521V38.959H66.2811V48.97Z" fill="#002E6D"/>
<path d="M79.4521 69.7268H65.2811V57.7168H79.4521V69.7268ZM66.2811 68.7268H78.4521V58.7168H66.2811V68.7268Z" fill="#002E6D"/>
<path d="M68.5421 0H55.9781C55.4701 0 54.9861 0.202 54.6281 0.559L54.4391 0.749C53.6951 1.493 52.4901 1.493 51.7431 0.749L51.5541 0.559C51.1961 0.202 50.7121 0 50.2061 0H37.6141C33.0201 0 29.2971 3.723 29.2971 8.317V11.128C29.2971 15.722 33.0201 19.445 37.6141 19.445H50.3971C50.9031 19.445 51.3871 19.243 51.7431 18.885C52.4891 18.142 53.6941 18.142 54.4391 18.885C54.7941 19.242 55.2811 19.445 55.7871 19.445H68.5431C73.1371 19.445 76.8601 15.722 76.8601 11.128V8.317C76.8601 3.723 73.1371 0 68.5421 0Z" fill="#9FE7FF"/>
<path d="M71.7761 23.1799H59.0211C58.3851 23.1799 57.7651 22.9219 57.3181 22.4729C56.7731 21.9279 55.8801 21.9279 55.3301 22.4739C54.8851 22.9219 54.2661 23.1799 53.6321 23.1799H40.8491C35.9871 23.1799 32.0321 19.2239 32.0321 14.3629V11.5519C32.0321 6.68986 35.9871 2.73486 40.8491 2.73486H53.4401C54.0821 2.73486 54.6851 2.98486 55.1411 3.43986L55.3311 3.63186C55.8791 4.17786 56.7701 4.17786 57.3181 3.63086L57.5061 3.44186C57.9631 2.98586 58.5681 2.73586 59.2111 2.73586H71.7741C76.6361 2.73586 80.5911 6.69186 80.5911 11.5529V14.3639C80.5941 19.2249 76.6391 23.1799 71.7761 23.1799ZM56.3261 21.0649C56.9421 21.0649 57.5571 21.2989 58.0261 21.7659C58.2881 22.0289 58.6501 22.1799 59.0211 22.1799H71.7761C76.0871 22.1799 79.5931 18.6729 79.5931 14.3629V11.5519C79.5931 7.24086 76.0861 3.73486 71.7761 3.73486H59.2131C58.8371 3.73486 58.4831 3.88086 58.2161 4.14786L58.0281 4.33686C57.0911 5.27386 55.5651 5.27586 54.6251 4.33786L54.4351 4.14586C54.1731 3.88486 53.8111 3.73486 53.4421 3.73486H40.8491C36.5381 3.73486 33.0321 7.24186 33.0321 11.5519V14.3629C33.0321 18.6739 36.5391 22.1799 40.8491 22.1799H53.6321C54.0011 22.1799 54.3621 22.0299 54.6231 21.7679C55.0941 21.2989 55.7101 21.0649 56.3261 21.0649Z" fill="#002E6D"/>
<path d="M70.8961 7.60889H67.5481C66.6961 7.60889 66.0021 8.30289 66.0021 9.15589V16.4979C66.0021 17.3509 66.6961 18.0449 67.5481 18.0449H70.8961C73.4221 18.0449 75.4781 15.9899 75.4781 13.4629V12.1909C75.4771 9.66389 73.4221 7.60889 70.8961 7.60889ZM74.2721 13.4629C74.2721 15.3249 72.7571 16.8389 70.8961 16.8389H68.0051C67.6021 16.8389 67.2741 16.5109 67.2741 16.1069V9.54589C67.2741 9.14289 67.6021 8.81489 68.0051 8.81489H70.8961C72.7581 8.81489 74.2721 10.3289 74.2721 12.1909V13.4629Z" fill="#002E6D"/>
<path d="M52.5751 9.33496L54.4831 16.624C54.7091 17.488 55.4611 18.068 56.3521 18.068C57.2451 18.068 57.9971 17.488 58.2231 16.624L60.1311 9.33496C60.2121 9.01696 60.5021 8.79196 60.8341 8.79196C61.2351 8.79196 61.5601 9.11796 61.5601 9.51796V17.982H62.7671V9.51896C62.7671 8.45196 61.9001 7.58496 60.8341 7.58496C59.9551 7.58496 59.1871 8.17896 58.9661 9.02996L57.0551 16.319C56.9681 16.654 56.6981 16.863 56.3521 16.863C56.0071 16.863 55.7381 16.655 55.6511 16.319L53.7411 9.03096C53.5181 8.17996 52.7491 7.58496 51.8721 7.58496C50.8061 7.58496 49.9391 8.45296 49.9391 9.51896V17.983H51.1441V9.51896C51.1441 9.11796 51.4701 8.79296 51.8721 8.79296C52.2021 8.79196 52.4911 9.01496 52.5751 9.33496Z" fill="#002E6D"/>
<path d="M45.7961 10.2199L46.9471 9.76991C46.2601 8.44691 44.7561 7.60791 43.0211 7.60791H42.0381C39.5361 7.60791 37.5001 9.64391 37.5001 12.1449V13.5199C37.5001 16.0219 39.5361 18.0569 42.0381 18.0569H43.0211C44.7341 18.0569 46.3621 17.1479 46.9601 15.8999L45.7841 15.4409C45.2381 16.2929 44.1661 16.8479 43.0201 16.8479H42.0771C40.2411 16.8479 38.7471 15.3549 38.7471 13.5199V12.1449C38.7471 10.3099 40.2411 8.81691 42.0771 8.81691H43.0201C44.2391 8.81791 45.2921 9.35891 45.7961 10.2199Z" fill="#002E6D"/>
</g>
<defs>
<clipPath id="clip0_187_2108">
<rect width="112" height="112" fill="white"/>
</clipPath>
</defs>
</svg>
