<svg xmlns="http://www.w3.org/2000/svg" width="32px" height="32px" viewBox="0 0 32 32">
<path fill="#FFFFFF" d="M31.65,29.954l-9.219-9.218c1.813-2.192,2.902-5.004,2.902-8.069C25.334,5.669,19.662,0,12.667,0
C5.669,0,0,5.671,0,12.667s5.671,12.666,12.668,12.666c3.066,0,5.878-1.092,8.068-2.904l9.217,9.223c0.47,0.465,1.229,0.465,1.697,0
C32.116,31.179,32.116,30.423,31.65,29.954z M12.669,22.935c-5.662,0-10.268-4.605-10.268-10.267S7.008,2.4,12.669,2.4
s10.269,4.605,10.269,10.267S18.33,22.935,12.669,22.935z"/>
</svg>
