<svg width="112" height="112" viewBox="0 0 112 112" fill="none" xmlns="http://www.w3.org/2000/svg">
<g clip-path="url(#clip0_75_148)">
<path d="M19.8739 63.0673L6.30543 76.6358C0.181067 82.7623 0.181067 92.7233 6.30543 98.8477C9.37797 101.922 13.3941 103.448 17.4103 103.448C21.4265 103.448 25.4427 101.922 28.5152 98.8477L82.2256 45.1415L82.193 45.1087C84.3991 45.9973 86.7014 46.7267 89.1099 47.2271C89.4919 47.317 89.8965 47.362 90.3213 47.362C91.8679 47.362 93.2834 46.7328 94.2907 45.7237L103.267 36.7454C104.278 35.7341 104.905 34.3265 104.905 32.7802C104.905 32.3635 104.852 31.961 104.764 31.5688C101.569 15.8572 89.2938 3.57984 73.5843 0.3889C73.1921 0.303134 72.7917 0.25 72.375 0.25C70.8266 0.25 69.4232 0.877142 68.4078 1.89253L59.4316 10.8606C58.4183 11.8697 57.7932 13.2834 57.7932 14.8318C57.7932 15.2566 57.8361 15.6612 57.9279 16.0411C58.4264 18.4354 59.1577 20.7459 60.0587 22.9746L60.0137 22.9296L28.6275 54.3137L19.8739 63.0673Z" fill="#9FE7FF"/>
<path d="M34.5101 8.05646H6.59229V35.9724H34.5101V8.05646ZM33.5146 34.9768H7.58784V9.05201H33.5146V34.9768Z" fill="#002E6D"/>
<path d="M32.1715 13.3332L31.4161 12.6857L18.3057 27.9807L11.9546 21.6316L11.2507 22.3355L18.3621 29.4449L32.1715 13.3332Z" fill="#002E6D"/>
<path d="M31.4161 48.6132L18.3057 63.9082L11.9546 57.5596L11.2507 58.2635L18.3621 65.3724L32.1715 49.2607L31.4161 48.6132Z" fill="#002E6D"/>
<path d="M79.7418 15.5416L78.7773 15.7885C81.8155 27.671 91.1187 36.9708 103.057 40.0586L103.306 39.0951C91.7196 36.0978 82.6905 27.0731 79.7418 15.5416Z" fill="#002E6D"/>
<path d="M110.637 39.7738C107.396 23.8337 95.0037 11.4422 79.0749 8.20667C78.613 8.10555 78.1824 8.05646 77.7594 8.05646C76.1271 8.05646 74.5939 8.6918 73.4408 9.84486L64.4653 18.8122C63.3142 19.9584 62.6803 21.494 62.6803 23.1361C62.6803 23.6091 62.7308 24.0553 62.8261 24.4467C63.3037 26.7449 63.9926 28.9591 64.8342 31.0943L34.5101 61.4172V43.9509H6.59229V71.8688H24.0583L11.3382 84.5883C5.02117 90.9068 5.02117 101.187 11.3382 107.504C14.3973 110.564 18.4665 112.25 22.7953 112.25C27.1246 112.25 31.1934 110.564 34.252 107.504L87.7477 54.0118C89.8787 54.8516 92.0884 55.5393 94.3815 56.0162C94.7996 56.1144 95.2449 56.164 95.7067 56.164C97.3205 56.164 98.8955 55.5135 100.027 54.3799L109.004 45.4015C110.154 44.2508 110.788 42.7176 110.788 41.0843C110.788 40.6575 110.738 40.2258 110.637 39.7738ZM7.58784 70.8732V44.9465H33.5146V62.4127L25.0538 70.8732H7.58784ZM33.5481 106.8C30.6771 109.673 26.8583 111.254 22.7953 111.254C18.7324 111.254 14.9135 109.673 12.0421 106.8C6.11347 100.871 6.11347 91.2228 12.0421 85.2922L65.2433 32.093C69.3593 41.7746 77.0729 49.4882 86.7493 53.6025L33.5481 106.8ZM108.3 44.6976L99.3233 53.676C98.1071 54.8942 96.2005 55.4197 94.5964 55.044C79.1079 51.823 67.0193 39.7334 63.7974 24.2279C63.7167 23.8974 63.6758 23.5299 63.6758 23.1361C63.6758 21.7609 64.2057 20.4756 65.1682 19.5165L74.1447 10.5487C75.1092 9.58333 76.3935 9.05201 77.7594 9.05201C78.1104 9.05201 78.4711 9.09382 78.8697 9.18083C94.4136 12.3381 106.5 24.4243 109.663 39.9813C109.75 40.3707 109.792 40.7314 109.792 41.0843C109.792 42.4517 109.262 43.7351 108.3 44.6976Z" fill="#002E6D"/>
</g>
<defs>
<clipPath id="clip0_75_148">
<rect width="112" height="112" fill="white"/>
</clipPath>
</defs>
</svg>
