<svg width="161" height="160" viewBox="0 0 161 160" fill="none" xmlns="http://www.w3.org/2000/svg">
<g clip-path="url(#clip0_305_1578)">
<path d="M96.7267 0H81.2477C80.6217 0 80.0257 0.249 79.5847 0.688L79.3517 0.923C78.4347 1.84 76.9497 1.84 76.0307 0.923L75.7967 0.688C75.3567 0.249 74.7597 0 74.1367 0H58.6247C52.9647 0 48.3777 4.587 48.3777 10.247V13.71C48.3777 19.37 52.9647 23.957 58.6247 23.957H74.3727C74.9957 23.957 75.5927 23.708 76.0307 23.267C76.9497 22.351 78.4347 22.351 79.3517 23.267C79.7897 23.707 80.3887 23.957 81.0117 23.957H96.7267C102.387 23.957 106.974 19.37 106.974 13.71V10.247C106.974 4.587 102.387 0 96.7267 0Z" fill="#9FE7FF"/>
<path d="M100.712 28.4501H84.9968C84.2428 28.4501 83.5058 28.1441 82.9758 27.6111C82.2598 26.8971 81.0928 26.8981 80.3728 27.6131C79.8458 28.1451 79.1088 28.4501 78.3558 28.4501H62.6088C56.6778 28.4501 51.8528 23.625 51.8528 17.6951V14.2321C51.8528 8.30105 56.6778 3.47705 62.6088 3.47705H78.1218C78.8828 3.47705 79.6008 3.77405 80.1418 4.31405L80.3758 4.54905C81.0938 5.26405 82.2618 5.26405 82.9778 4.54905L83.2098 4.31505C83.7518 3.77405 84.4708 3.47705 85.2328 3.47705H100.712C106.643 3.47705 111.468 8.30205 111.468 14.2321V17.6951C111.468 23.625 106.643 28.4501 100.712 28.4501ZM81.6778 26.0601C82.4088 26.0601 83.1408 26.3371 83.6968 26.8931C84.0388 27.2371 84.5118 27.4341 84.9978 27.4341H100.713C106.083 27.4341 110.451 23.0651 110.451 17.696V14.2331C110.451 8.86305 106.083 4.49405 100.713 4.49405H85.2328C84.7408 4.49405 84.2778 4.68605 83.9288 5.03405L83.6968 5.26705C82.5838 6.37905 80.7708 6.38105 79.6558 5.26805L79.4218 5.03205C79.0738 4.68505 78.6118 4.49305 78.1218 4.49305H62.6088C57.2388 4.49305 52.8708 8.86205 52.8708 14.2321V17.6951C52.8708 23.0651 57.2388 27.4331 62.6088 27.4331H78.3568C78.8408 27.4331 79.3138 27.2361 79.6548 26.8931C80.2138 26.3371 80.9458 26.0601 81.6778 26.0601Z" fill="#002E6D"/>
<path d="M99.6257 9.37402H95.5007C94.4507 9.37402 93.5957 10.229 93.5957 11.279V20.324C93.5957 21.375 94.4507 22.23 95.5007 22.23H99.6257C102.738 22.23 105.271 19.698 105.271 16.586V15.018C105.271 11.906 102.739 9.37402 99.6257 9.37402ZM103.786 16.586C103.786 18.879 101.92 20.745 99.6267 20.745H96.0647C95.5677 20.745 95.1637 20.341 95.1637 19.843V11.76C95.1637 11.263 95.5677 10.86 96.0647 10.86H99.6267C101.92 10.86 103.786 12.725 103.786 15.019V16.586Z" fill="#002E6D"/>
<path d="M77.0559 11.5L79.4069 20.479C79.6859 21.543 80.6109 22.258 81.7099 22.258C82.8099 22.258 83.7359 21.543 84.0149 20.479L86.3659 11.5C86.4659 11.108 86.8229 10.831 87.2329 10.831C87.7269 10.831 88.1269 11.232 88.1269 11.726V22.153H89.6139V11.726C89.6139 10.412 88.5459 9.34304 87.2319 9.34304C86.1489 9.34304 85.2029 10.075 84.9299 11.123L82.5759 20.102C82.4679 20.515 82.1359 20.772 81.7099 20.772C81.2849 20.772 80.9539 20.515 80.8459 20.101L78.4919 11.123C78.2169 10.074 77.2699 9.34204 76.1889 9.34204C74.8759 9.34204 73.8079 10.411 73.8079 11.725V22.152H75.2929V11.726C75.2929 11.232 75.6949 10.831 76.1889 10.831C76.5959 10.831 76.9519 11.107 77.0559 11.5Z" fill="#002E6D"/>
<path d="M68.7037 12.591L70.1217 12.037C69.2757 10.407 67.4227 9.37402 65.2847 9.37402H64.0737C60.9907 9.37402 58.4827 11.882 58.4827 14.964V16.657C58.4827 19.739 60.9917 22.247 64.0737 22.247H65.2847C67.3947 22.247 69.4007 21.127 70.1377 19.59L68.6897 19.024C68.0167 20.073 66.6967 20.757 65.2847 20.757H64.1227C61.8607 20.757 60.0207 18.918 60.0207 16.657V14.964C60.0207 12.703 61.8607 10.864 64.1227 10.864H65.2847C66.7857 10.864 68.0837 11.53 68.7037 12.591Z" fill="#002E6D"/>
<path d="M160.667 160.509H0.666715C0.385715 160.509 0.157715 160.281 0.157715 160V154.016C0.157715 153.735 0.385715 153.507 0.666715 153.507H160.659C160.939 153.507 161.167 153.735 161.168 154.015L161.176 159.999C161.176 160.135 161.122 160.264 161.027 160.359C160.932 160.455 160.802 160.509 160.667 160.509ZM1.17571 159.491H160.158L160.151 154.524H1.17571V159.491Z" fill="#002E6D"/>
<path d="M42.0378 154.478C41.7568 154.478 41.5288 154.25 41.5288 153.969V47.232C41.5288 46.951 41.7568 46.724 42.0378 46.724C42.3188 46.724 42.5468 46.952 42.5468 47.232V153.969C42.5468 154.25 42.3188 154.478 42.0378 154.478Z" fill="#002E6D"/>
<path d="M119.296 154.478C119.015 154.478 118.787 154.25 118.787 153.969V47.232C118.787 46.951 119.015 46.724 119.296 46.724C119.577 46.724 119.805 46.952 119.805 47.232V153.969C119.805 154.25 119.577 154.478 119.296 154.478Z" fill="#002E6D"/>
<path d="M8.55978 154.273C8.27878 154.273 8.05078 154.045 8.05078 153.764V79.286C8.05078 79.005 8.27878 78.777 8.55978 78.777H41.4738C41.7548 78.777 41.9828 79.005 41.9828 79.286C41.9828 79.567 41.7548 79.795 41.4738 79.795H9.06778V153.765C9.06778 154.046 8.84078 154.273 8.55978 154.273Z" fill="#002E6D"/>
<path d="M101.27 64.343H62.6399C62.3589 64.343 62.1309 64.115 62.1309 63.834C62.1309 63.553 62.3589 63.325 62.6399 63.325H101.27C101.551 63.325 101.779 63.553 101.779 63.834C101.779 64.115 101.551 64.343 101.27 64.343Z" fill="#002E6D"/>
<path d="M103.845 64.343H57.4887C57.2077 64.343 56.9797 64.115 56.9797 63.834C56.9797 63.553 57.2077 63.325 57.4887 63.325H103.844C104.125 63.325 104.353 63.553 104.353 63.834C104.353 64.115 104.126 64.343 103.845 64.343Z" fill="#002E6D"/>
<path d="M103.845 79.795H57.4887C57.2077 79.795 56.9797 79.567 56.9797 79.286C56.9797 79.005 57.2077 78.777 57.4887 78.777H103.844C104.125 78.777 104.353 79.005 104.353 79.286C104.353 79.567 104.126 79.795 103.845 79.795Z" fill="#002E6D"/>
<path d="M103.845 95.246H57.4887C57.2077 95.246 56.9797 95.018 56.9797 94.737C56.9797 94.456 57.2077 94.228 57.4887 94.228H103.844C104.125 94.228 104.353 94.456 104.353 94.737C104.353 95.018 104.126 95.246 103.845 95.246Z" fill="#002E6D"/>
<path d="M103.845 110.698H57.4887C57.2077 110.698 56.9797 110.47 56.9797 110.189C56.9797 109.908 57.2077 109.68 57.4887 109.68H103.844C104.125 109.68 104.353 109.908 104.353 110.189C104.353 110.47 104.126 110.698 103.845 110.698Z" fill="#002E6D"/>
<path d="M96.1178 154.478C95.8368 154.478 95.6088 154.25 95.6088 153.969V128.725H65.7248V153.969C65.7248 154.25 65.4968 154.478 65.2158 154.478C64.9348 154.478 64.7068 154.25 64.7068 153.969V128.216C64.7068 127.935 64.9348 127.707 65.2158 127.707H96.1178C96.3988 127.707 96.6268 127.935 96.6268 128.216V153.969C96.6268 154.25 96.3988 154.478 96.1178 154.478Z" fill="#002E6D"/>
<path d="M80.6667 154.273C80.3857 154.273 80.1577 154.045 80.1577 153.764V128.417C80.1577 128.136 80.3857 127.908 80.6667 127.908C80.9477 127.908 81.1757 128.136 81.1757 128.417V153.764C81.1757 154.046 80.9477 154.273 80.6667 154.273Z" fill="#002E6D"/>
<path d="M29.1608 95.246H21.4348C21.1538 95.246 20.9258 95.018 20.9258 94.737C20.9258 94.456 21.1538 94.228 21.4348 94.228H29.1608C29.4418 94.228 29.6698 94.456 29.6698 94.737C29.6698 95.018 29.4418 95.246 29.1608 95.246Z" fill="#002E6D"/>
<path d="M29.1608 110.698H21.4348C21.1538 110.698 20.9258 110.47 20.9258 110.189C20.9258 109.908 21.1538 109.68 21.4348 109.68H29.1608C29.4418 109.68 29.6698 109.908 29.6698 110.189C29.6698 110.47 29.4418 110.698 29.1608 110.698Z" fill="#002E6D"/>
<path d="M29.1608 126.149H21.4348C21.1538 126.149 20.9258 125.921 20.9258 125.64C20.9258 125.359 21.1538 125.131 21.4348 125.131H29.1608C29.4418 125.131 29.6698 125.359 29.6698 125.64C29.6698 125.921 29.4418 126.149 29.1608 126.149Z" fill="#002E6D"/>
<path d="M152.774 154.072C152.493 154.072 152.265 153.844 152.265 153.563V79.795H119.524C119.243 79.795 119.015 79.567 119.015 79.286C119.015 79.005 119.243 78.777 119.524 78.777H152.774C153.055 78.777 153.283 79.005 153.283 79.286V153.563C153.283 153.845 153.056 154.072 152.774 154.072Z" fill="#002E6D"/>
<path d="M139.898 95.246H132.172C131.891 95.246 131.663 95.018 131.663 94.737C131.663 94.456 131.891 94.228 132.172 94.228H139.898C140.179 94.228 140.407 94.456 140.407 94.737C140.407 95.018 140.18 95.246 139.898 95.246Z" fill="#002E6D"/>
<path d="M139.898 110.698H132.172C131.891 110.698 131.663 110.47 131.663 110.189C131.663 109.908 131.891 109.68 132.172 109.68H139.898C140.179 109.68 140.407 109.908 140.407 110.189C140.407 110.47 140.18 110.698 139.898 110.698Z" fill="#002E6D"/>
<path d="M139.898 126.149H132.172C131.891 126.149 131.663 125.921 131.663 125.64C131.663 125.359 131.891 125.131 132.172 125.131H139.898C140.179 125.131 140.407 125.359 140.407 125.64C140.407 125.921 140.18 126.149 139.898 126.149Z" fill="#002E6D"/>
<path d="M126.134 47.622H35.1997V37.918H126.134V47.622ZM36.1997 46.622H125.134V38.918H36.1997V46.622Z" fill="#002E6D"/>
</g>
<defs>
<clipPath id="clip0_305_1578">
<rect width="160" height="160" fill="white" transform="translate(0.666748)"/>
</clipPath>
</defs>
</svg>
