<svg width="112" height="112" viewBox="0 0 112 112" fill="none" xmlns="http://www.w3.org/2000/svg">
<path d="M92.513 32.777C85.342 32.777 79.526 35.27 79.526 38.343V53.185C79.526 50.112 73.716 47.619 66.539 47.619C59.368 47.619 53.552 50.112 53.552 53.185V90.29C53.552 93.363 59.368 95.856 66.539 95.856C73.716 95.856 79.526 93.363 79.526 90.29C79.526 93.363 85.342 95.856 92.513 95.856C99.689 95.856 105.5 93.363 105.5 90.29V38.342C105.5 35.27 99.69 32.777 92.513 32.777Z" fill="#9FE7FF"/>
<path d="M98.514 36.276C90.952 36.276 85.027 38.941 85.027 42.342V54.856C83.072 52.684 78.432 51.18 72.855 51.125V11.645H0V100.355H72.54C78.824 100.355 83.964 98.512 85.526 95.939C87.089 98.513 92.229 100.355 98.513 100.355C106.075 100.355 111.999 97.69 111.999 94.289V42.342C112 38.941 106.076 36.276 98.514 36.276ZM98.514 37.276C105.283 37.276 111 39.596 111 42.342C111 45.088 105.282 47.408 98.514 47.408C91.746 47.408 86.027 45.088 86.027 42.342C86.027 39.596 91.745 37.276 98.514 37.276ZM85.026 57.185C85.026 59.931 79.308 62.25 72.54 62.25C65.772 62.25 60.053 59.931 60.053 57.185C60.053 54.439 65.772 52.119 72.54 52.119C79.308 52.119 85.026 54.438 85.026 57.185ZM60.053 81.775C62.045 83.989 66.822 85.514 72.54 85.514C78.258 85.514 83.034 83.989 85.026 81.776V86.869C85.026 89.615 79.308 91.935 72.54 91.935C65.772 91.935 60.053 89.615 60.053 86.869V81.775ZM72.54 84.514C65.771 84.514 60.053 82.194 60.053 79.448V74.355C62.045 76.568 66.822 78.093 72.54 78.093C78.258 78.093 83.034 76.569 85.026 74.355V79.448C85.026 82.193 79.309 84.514 72.54 84.514ZM72.54 77.092C65.771 77.092 60.053 74.773 60.053 72.027V66.934C62.045 69.147 66.822 70.672 72.54 70.672C78.258 70.672 83.034 69.148 85.026 66.934V72.027C85.026 74.772 79.309 77.092 72.54 77.092ZM72.54 69.671C65.771 69.671 60.053 67.352 60.053 64.606V59.513C62.045 61.726 66.822 63.251 72.54 63.251C78.258 63.251 83.034 61.727 85.026 59.513V64.606C85.026 67.352 79.309 69.671 72.54 69.671ZM26.657 99.355V70.742H46.197V99.355H26.657ZM65.032 99.355H47.197V69.742H25.657V99.355H1V12.645H71.854V51.134C64.625 51.291 59.052 53.888 59.052 57.185V94.289C59.052 96.431 61.404 98.279 65.032 99.355ZM72.54 99.355C65.771 99.355 60.053 97.035 60.053 94.289V89.196C62.045 91.41 66.822 92.935 72.54 92.935C78.258 92.935 83.034 91.41 85.026 89.197V94.29C85.026 97.035 79.309 99.355 72.54 99.355ZM111 94.289C111 97.035 105.282 99.355 98.514 99.355C91.746 99.355 86.027 97.035 86.027 94.289V89.196C88.019 91.41 92.796 92.935 98.514 92.935C104.232 92.935 109.008 91.41 111 89.197V94.289ZM111 86.868C111 89.614 105.282 91.934 98.514 91.934C91.746 91.934 86.027 89.614 86.027 86.868V81.775C88.019 83.989 92.796 85.514 98.514 85.514C104.232 85.514 109.008 83.989 111 81.776V86.868ZM111 79.447C111 82.193 105.282 84.513 98.514 84.513C91.746 84.513 86.027 82.193 86.027 79.447V74.354C88.019 76.567 92.796 78.092 98.514 78.092C104.232 78.092 109.008 76.568 111 74.354V79.447ZM111 72.026C111 74.772 105.282 77.091 98.514 77.091C91.746 77.091 86.027 74.772 86.027 72.026V66.933C88.019 69.146 92.796 70.671 98.514 70.671C104.232 70.671 109.008 69.147 111 66.933V72.026ZM111 64.605C111 67.351 105.282 69.67 98.514 69.67C91.746 69.67 86.027 67.351 86.027 64.605V59.512C88.019 61.725 92.796 63.25 98.514 63.25C104.232 63.25 109.008 61.726 111 59.512V64.605ZM111 57.185C111 59.931 105.282 62.25 98.514 62.25C91.746 62.25 86.027 59.931 86.027 57.185V52.091C88.019 54.305 92.796 55.829 98.514 55.829C104.232 55.829 109.008 54.304 111 52.091V57.185ZM111 49.763C111 52.509 105.282 54.829 98.514 54.829C91.746 54.829 86.027 52.509 86.027 49.763V44.67C88.019 46.884 92.796 48.408 98.514 48.408C104.232 48.408 109.008 46.883 111 44.67V49.763Z" fill="#002E6D"/>
<path d="M84.502 31.218L108.905 14.316L105.54 25.797L106.499 26.078L110.456 12.583L96.269 12.931L96.294 13.931L108.124 13.64L83.939 30.391L77.759 34.514L78.313 35.346L84.502 31.218Z" fill="#002E6D"/>
<path d="M50.7679 19.739H39.1139C38.5089 19.739 37.9389 19.975 37.5079 20.405L37.3329 20.581C36.8389 21.075 36.0359 21.075 35.5409 20.582L35.3639 20.404C34.9339 19.976 34.3649 19.74 33.7609 19.74H22.0819C17.5529 19.74 13.8679 23.425 13.8679 27.955V30.562C13.8679 35.091 17.5529 38.776 22.0819 38.776H33.9379C34.5359 38.776 35.1199 38.533 35.5399 38.111C36.0349 37.617 36.8399 37.618 37.3319 38.11C37.7539 38.534 38.3389 38.777 38.9369 38.777H50.7679C55.2979 38.777 58.9829 35.092 58.9829 30.563V27.956C58.9819 23.424 55.2969 19.739 50.7679 19.739ZM57.9819 30.561C57.9819 34.539 54.7459 37.775 50.7669 37.775H38.9369C38.6029 37.775 38.2759 37.639 38.0399 37.402C37.5989 36.961 37.0189 36.74 36.4379 36.74C35.8569 36.74 35.2749 36.961 34.8319 37.403C34.5969 37.639 34.2709 37.775 33.9379 37.775H22.0819C18.1039 37.775 14.8679 34.539 14.8679 30.561V27.954C14.8679 23.975 18.1039 20.739 22.0819 20.739H33.7609C34.0989 20.739 34.4169 20.871 34.6569 21.11L34.8339 21.288C35.7199 22.172 37.1589 22.171 38.0419 21.287L38.2159 21.112C38.4569 20.872 38.7759 20.74 39.1149 20.74H50.7679C54.7469 20.74 57.9829 23.976 57.9829 27.955V30.561H57.9819Z" fill="#002E6D"/>
<path d="M49.9511 24.296H46.8461C46.0551 24.296 45.4121 24.94 45.4121 25.731V32.541C45.4121 33.332 46.0561 33.976 46.8461 33.976H49.9511C52.2941 33.976 54.2011 32.07 54.2011 29.726V28.546C54.2001 26.203 52.2941 24.296 49.9511 24.296ZM53.0821 29.726C53.0821 31.453 51.6771 32.857 49.9511 32.857H47.2691C46.8951 32.857 46.5911 32.553 46.5911 32.178V26.093C46.5911 25.719 46.8951 25.415 47.2691 25.415H49.9511C51.6781 25.415 53.0821 26.819 53.0821 28.546V29.726Z" fill="#002E6D"/>
<path d="M40.6199 24.273C39.8049 24.273 39.0919 24.824 38.8869 25.613L37.1149 32.373C37.0339 32.684 36.7839 32.877 36.4629 32.877C36.1429 32.877 35.8939 32.684 35.8129 32.372L34.0409 25.613C33.8339 24.823 33.1209 24.272 32.3069 24.272C31.3189 24.272 30.5149 25.077 30.5149 26.066V33.916H31.6329V26.066C31.6329 25.694 31.9359 25.392 32.3079 25.392C32.6139 25.392 32.8819 25.599 32.9599 25.895L34.7299 32.655C34.9399 33.456 35.6369 33.994 36.4639 33.994C37.2919 33.994 37.9889 33.456 38.1989 32.655L39.9689 25.895C40.0439 25.6 40.3129 25.392 40.6209 25.392C40.9929 25.392 41.2939 25.694 41.2939 26.066V33.916H42.4139V26.066C42.4129 25.078 41.6079 24.273 40.6199 24.273Z" fill="#002E6D"/>
<path d="M24.0971 32.867H23.2221C21.5191 32.867 20.1341 31.482 20.1341 29.78V28.505C20.1341 26.803 21.5191 25.418 23.2221 25.418H24.0971C25.2271 25.418 26.2031 25.919 26.6711 26.718L27.7391 26.301C27.1021 25.074 25.7071 24.296 24.0971 24.296H23.1851C20.8641 24.296 18.9761 26.184 18.9761 28.504V29.779C18.9761 32.099 20.8651 33.987 23.1851 33.987H24.0971C25.6861 33.987 27.1961 33.144 27.7511 31.987L26.6611 31.561C26.1531 32.352 25.1601 32.867 24.0971 32.867Z" fill="#002E6D"/>
</svg>
