<svg width="112" height="112" viewBox="0 0 112 112" fill="none" xmlns="http://www.w3.org/2000/svg">
<path d="M60.63 23.93L69.218 37.189L84.484 41.257L74.525 53.524L75.373 69.298L60.63 63.618L45.889 69.298L46.738 53.524L36.78 41.257L52.044 37.189L60.63 23.93Z" fill="#9FE7FF"/>
<path d="M75.229 41.387L66.3271 27.641L57.426 41.387L41.6021 45.604L51.926 58.321L51.0461 74.674L66.3281 68.786L81.611 74.674L80.7331 58.321L91.056 45.604L75.229 41.387ZM80.528 73.186L66.3271 67.714L52.127 73.186L52.945 57.99L43.3521 46.174L58.055 42.256L66.3271 29.483L74.4951 42.094L74.6 42.256L89.305 46.174L79.712 57.99L80.528 73.186Z" fill="#002E6D"/>
<path d="M33.646 15.025H6.35303V16.025H33.646V15.025Z" fill="#002E6D"/>
<path d="M27.332 20.053H6.35303V21.053H27.332V20.053Z" fill="#002E6D"/>
<path d="M109.29 80.735H102.159V9.62899H39.997V7.13799C39.997 5.07399 38.318 3.39499 36.253 3.39499H3.743C1.679 3.39499 0 5.07399 0 7.13799V31.04C0 33.105 1.679 34.785 3.743 34.785H24.757L26.8 37.048V48.352C22.281 47.75 18.515 48.637 15.613 51.03C9.902 55.741 9.553 64.45 9.542 64.797C8.425 79.585 15.039 86.704 16.223 87.853V103.518H37.362V98.797H84.42V99.736C84.42 101.23 85.637 102.445 87.132 102.445H88.755V109.405L95.039 102.445H109.29C110.784 102.445 112 101.23 112 99.736V83.445C112 81.951 110.784 80.735 109.29 80.735ZM3.743 33.784C2.23 33.784 1 32.553 1 31.04V7.13799C1 5.62499 2.23 4.39499 3.743 4.39499H36.253C37.766 4.39499 38.997 5.62499 38.997 7.13799V31.04C38.997 32.553 37.766 33.785 36.253 33.785H32.638V42.02L25.201 33.785L3.743 33.784ZM36.362 102.518H17.224V87.411L17.056 87.262C16.979 87.194 9.378 80.267 10.542 64.852C10.545 64.766 10.893 56.218 16.255 51.798C18.96 49.568 22.512 48.755 26.801 49.357V56.684C23.516 57.585 21.076 58.177 21.021 58.19L21.255 59.163C21.38 59.133 33.772 56.13 40.567 53.252C41.083 53.033 41.67 53.233 41.925 53.721C42.493 54.803 43.444 56.615 42.828 58.325C42.39 59.541 41.2 60.562 39.268 61.37L28.358 66.551L28.536 66.989C28.56 67.05 30.979 73.109 28.675 77.516C27.55 79.669 25.461 81.102 22.468 81.774L22.687 82.751C24.296 82.39 25.666 81.818 26.8 81.049V98.799H36.362V102.518ZM84.42 83.445V97.797H27.8V80.257C28.518 79.601 29.11 78.842 29.564 77.974C31.729 73.827 30.175 68.603 29.628 67.054L39.675 62.283C41.854 61.373 43.231 60.155 43.768 58.664C44.533 56.539 43.412 54.404 42.81 53.256C42.311 52.305 41.178 51.908 40.177 52.331C36.723 53.793 31.795 55.291 27.8 56.407V38.155L33.637 44.62V34.785H36.252C38.316 34.785 39.996 33.105 39.996 31.04V10.63H101.159V80.736H87.132C85.637 80.735 84.42 81.951 84.42 83.445ZM111 99.736C111 100.678 110.233 101.445 109.29 101.445H94.594L89.755 106.805V101.445H87.132C86.188 101.445 85.42 100.678 85.42 99.736V83.445C85.42 82.502 86.188 81.735 87.132 81.735H109.29C110.233 81.735 111 82.502 111 83.445V99.736Z" fill="#002E6D"/>
<path d="M107.512 89.532H88.908V90.532H107.512V89.532Z" fill="#002E6D"/>
<path d="M107.512 92.958H93.213V93.958H107.512V92.958Z" fill="#002E6D"/>
</svg>
