<svg width="112" height="112" viewBox="0 0 112 112" fill="none" xmlns="http://www.w3.org/2000/svg">
<g clip-path="url(#clip0_187_2237)">
<path d="M63.213 104.23H48.791C48.515 104.23 48.291 104.006 48.291 103.73V88.1851C48.291 87.9091 48.515 87.6851 48.791 87.6851H63.213C63.489 87.6851 63.713 87.9091 63.713 88.1851V103.731C63.713 104.007 63.489 104.23 63.213 104.23ZM49.291 103.23H62.713V88.6851H49.291V103.23Z" fill="#002E6D"/>
<path d="M74.928 104.23H37.072C36.796 104.23 36.572 104.006 36.572 103.73C36.572 103.454 36.796 103.23 37.072 103.23H74.927C75.203 103.23 75.427 103.454 75.427 103.73C75.427 104.006 75.204 104.23 74.928 104.23Z" fill="#002E6D"/>
<path d="M104.264 88.685H7.736C3.194 88.685 -0.5 84.991 -0.5 80.449V16.005C-0.5 11.463 3.194 7.76904 7.736 7.76904H104.263C108.805 7.76904 112.499 11.464 112.499 16.005V80.448C112.5 84.99 108.806 88.685 104.264 88.685ZM7.736 8.76904C3.746 8.76904 0.5 12.015 0.5 16.005V80.448C0.5 84.438 3.746 87.684 7.736 87.684H104.263C108.253 87.684 111.499 84.438 111.499 80.448V16.005C111.499 12.015 108.253 8.76904 104.263 8.76904H7.736Z" fill="#002E6D"/>
<path d="M112 74.8452H0C-0.276 74.8452 -0.5 74.6212 -0.5 74.3452C-0.5 74.0692 -0.276 73.8452 0 73.8452H112C112.276 73.8452 112.5 74.0692 112.5 74.3452C112.5 74.6212 112.276 74.8452 112 74.8452Z" fill="#002E6D"/>
<path d="M74.271 56.8822L58.324 44.2142L70.29 27.7422L70.694 28.0352C75.833 31.7652 78.9 37.7782 78.9 44.1202C78.9 48.6702 77.407 52.9492 74.581 56.4922L74.271 56.8822ZM59.695 44.0262L74.105 55.4742C76.589 52.1892 77.9 48.2742 77.9 44.1202C77.9 38.2642 75.146 32.7032 70.506 29.1432L59.695 44.0262Z" fill="#002E6D"/>
<path d="M62.1899 55.1802C58.6399 59.6502 53.1599 62.5102 47.0099 62.5102C36.3099 62.5102 27.6299 53.8302 27.6299 43.1202C27.6299 32.4202 36.3099 23.7402 47.0099 23.7402C51.2599 23.7402 55.1999 25.1102 58.3999 27.4402L47.0099 43.1202L62.1899 55.1802Z" fill="#9FE7FF"/>
<path d="M53.0099 64.0102C42.0479 64.0102 33.1299 55.0882 33.1299 44.1202C33.1299 33.1582 42.0479 24.2402 53.0099 24.2402C57.2439 24.2402 61.2839 25.5522 64.6949 28.0352L65.0989 28.3292L53.6949 44.0262L68.8929 56.1002L68.5819 56.4922C64.7859 61.2702 59.1099 64.0102 53.0099 64.0102ZM53.0099 25.2402C42.5999 25.2402 34.1299 33.7092 34.1299 44.1202C34.1299 54.5362 42.5999 63.0102 53.0099 63.0102C58.6369 63.0102 63.8839 60.5552 67.4829 56.2572L52.3239 44.2142L63.6979 28.5562C60.5479 26.3852 56.8629 25.2402 53.0099 25.2402Z" fill="#002E6D"/>
</g>
<defs>
<clipPath id="clip0_187_2237">
<rect width="112" height="112" fill="white"/>
</clipPath>
</defs>
</svg>
