<svg width="109" height="112" viewBox="0 0 109 112" fill="none" xmlns="http://www.w3.org/2000/svg">
<path d="M69.4108 60.5488L91.1768 64.3478C96.7378 65.2388 100.587 70.6388 100.587 76.1838L102.569 104.311H0.362793L2.34479 76.1838C2.34479 70.0638 6.19379 65.2388 11.7548 64.3478L33.5208 60.5488L52.1228 76.8408L69.4108 60.5488Z" fill="#9FE7FF"/>
<path d="M92.7437 96.7103H80.2807C80.0067 96.7103 79.7847 96.4883 79.7847 96.2143C79.7847 95.9403 80.0067 95.7183 80.2807 95.7183H92.7437C93.0177 95.7183 93.2397 95.9403 93.2397 96.2143C93.2397 96.4883 93.0177 96.7103 92.7437 96.7103Z" fill="#002E6D"/>
<path d="M107.595 112H5.3867C5.2497 112 5.1177 111.943 5.0237 111.842C4.9307 111.741 4.8827 111.607 4.8917 111.469L6.8747 83.3421C6.8737 77.0481 10.9147 71.9801 16.6997 71.0511L38.4597 67.2541C38.6057 67.2271 38.7587 67.2691 38.8707 67.3691L57.1347 83.3651L74.0947 67.3811C74.2077 67.2751 74.3667 67.2281 74.5197 67.2541L96.2867 71.0531C101.791 71.9351 106.108 77.3481 106.108 83.3771L108.089 111.469C108.099 111.606 108.05 111.741 107.957 111.842C107.864 111.943 107.732 112 107.595 112ZM5.9187 111.009H107.064L105.118 83.4131C105.117 77.8241 101.167 72.8401 96.1237 72.0321L74.5957 68.2741L57.4877 84.3971C57.3027 84.5711 57.0127 84.5781 56.8217 84.4091L38.3977 68.2711L16.8647 72.0301C11.5637 72.8801 7.8657 77.5461 7.8657 83.3781L5.9187 111.009Z" fill="#002E6D"/>
<path d="M28.3807 69.816C28.1067 69.816 27.8847 69.594 27.8847 69.32L27.8657 29.514C27.8657 13.24 40.7077 0 56.4907 0C72.2737 0 85.1147 13.24 85.1147 29.514V69.314C85.1147 69.588 84.8927 69.81 84.6187 69.81C84.3447 69.81 84.1227 69.588 84.1227 69.314V29.514C84.1227 13.786 71.7267 0.991 56.4897 0.991C41.2517 0.991 28.8557 13.786 28.8557 29.514L28.8747 69.32C28.8767 69.594 28.6547 69.816 28.3807 69.816Z" fill="#002E6D"/>
<path d="M56.491 64.6769C45.389 64.6769 36.356 50.2699 36.356 32.5609C36.356 32.2869 36.578 32.0649 36.852 32.0649C37.126 32.0649 37.348 32.2869 37.348 32.5609C37.348 49.7229 45.935 63.6849 56.492 63.6849C67.047 63.6849 75.635 49.7229 75.635 32.5609C75.635 32.2869 75.857 32.0649 76.131 32.0649C76.405 32.0649 76.627 32.2869 76.627 32.5609C76.625 50.2699 67.594 64.6769 56.491 64.6769Z" fill="#002E6D"/>
<path d="M68.1999 34.0842C57.2289 34.0842 47.236 28.3002 43.334 19.6912C43.221 19.4422 43.331 19.1482 43.581 19.0352C43.828 18.9232 44.124 19.0322 44.236 19.2822C47.98 27.5432 57.6109 33.0942 68.1999 33.0942C70.8639 33.0942 73.4889 32.7542 76.0009 32.0842C76.269 32.0102 76.537 32.1712 76.608 32.4352C76.679 32.7002 76.521 32.9712 76.257 33.0412C73.661 33.7332 70.9499 34.0842 68.1999 34.0842Z" fill="#002E6D"/>
<path d="M38.5458 68.2378C38.3998 68.2378 38.2538 68.1728 38.1558 68.0478C37.9878 67.8328 38.0238 67.5208 38.2398 67.3518C38.3058 67.3008 44.8538 62.1498 46.3308 60.6728C46.5248 60.4788 46.8378 60.4788 47.0318 60.6728C47.2258 60.8668 47.2258 61.1798 47.0318 61.3738C45.5128 62.8928 39.1238 67.9178 38.8518 68.1318C38.7618 68.2038 38.6538 68.2378 38.5458 68.2378Z" fill="#002E6D"/>
<path d="M74.4356 68.238C74.3116 68.238 74.1866 68.192 74.0906 68.099L66.7046 60.934C66.5086 60.743 66.5036 60.43 66.6926 60.233C66.8846 60.037 67.1976 60.032 67.3936 60.221L74.7796 67.386C74.9756 67.577 74.9806 67.891 74.7916 68.087C74.6936 68.188 74.5646 68.238 74.4356 68.238Z" fill="#002E6D"/>
</svg>
