<svg width="14" height="14" viewBox="0 0 14 14" fill="none" xmlns="http://www.w3.org/2000/svg">
<g opacity="0.7" clip-path="url(#clip0_332_6985)">
<path d="M7.7 10.5L6.3 10.5L6.3 9.1L7.7 9.1L7.7 10.5ZM7.7 7.7L6.3 7.7L6.3 3.5L7.7 3.5L7.7 7.7ZM7 14C10.864 14 14 10.864 14 7C14 3.136 10.864 2.74158e-07 7 6.11959e-07C3.136 9.49761e-07 -9.49761e-07 3.136 -6.11959e-07 7C-2.74158e-07 10.864 3.136 14 7 14ZM7 1.4C10.087 1.4 12.6 3.913 12.6 7C12.6 10.087 10.087 12.6 7 12.6C3.913 12.6 1.4 10.087 1.4 7C1.4 3.913 3.913 1.4 7 1.4Z" fill="#0080C9"/>
</g>
<defs>
<clipPath id="clip0_332_6985">
<rect width="14" height="14" fill="white" transform="translate(14 14) rotate(180)"/>
</clipPath>
</defs>
</svg>
