<svg width="161" height="160" viewBox="0 0 161 160" fill="none" xmlns="http://www.w3.org/2000/svg">
<g clip-path="url(#clip0_305_1535)">
<path d="M58.2574 153.838C57.9854 153.838 57.7544 153.629 57.7324 153.353L54.3064 110.29C54.2844 109.999 54.5004 109.745 54.7904 109.722C55.0714 109.701 55.3354 109.914 55.3584 110.206L58.7844 153.269C58.8064 153.56 58.5904 153.814 58.3004 153.837C58.2854 153.838 58.2714 153.838 58.2574 153.838Z" fill="#002E6D"/>
<path d="M60.6953 110.774H20.5213C20.2303 110.774 19.9943 110.538 19.9943 110.247C19.9943 109.956 20.2303 109.72 20.5213 109.72H60.6963C60.9873 109.72 61.2233 109.956 61.2233 110.247C61.2233 110.538 60.9863 110.774 60.6953 110.774Z" fill="#002E6D"/>
<path d="M17.0963 153.838C17.0813 153.838 17.0683 153.838 17.0533 153.837C16.7633 153.814 16.5463 153.56 16.5693 153.269L19.9913 110.256L12.4463 44.552C12.4133 44.262 12.6213 44.001 12.9103 43.968C13.1973 43.934 13.4623 44.143 13.4953 44.432L21.0463 110.187C21.0503 110.221 21.0513 110.255 21.0483 110.29L17.6223 153.353C17.5993 153.629 17.3683 153.838 17.0963 153.838Z" fill="#002E6D"/>
<path d="M59.3163 110.774C59.0453 110.774 58.8163 110.568 58.7923 110.294L58.1573 103.125C57.9383 100.659 55.9073 98.8 53.4323 98.8H30.5523C30.2813 98.8 30.0543 98.596 30.0273 98.326L25.3223 52.209C24.7073 49.457 22.0703 47.5 19.1973 47.733L13.6423 48.171C13.3653 48.182 13.0983 47.977 13.0753 47.686C13.0533 47.395 13.2693 47.141 13.5603 47.118L19.1153 46.68C22.4953 46.418 25.6253 48.717 26.3633 52.041L31.0293 97.745H53.4333C56.4583 97.745 58.9423 100.017 59.2083 103.031L59.8433 110.2C59.8693 110.491 59.6553 110.747 59.3643 110.772C59.3483 110.774 59.3323 110.774 59.3163 110.774Z" fill="#002E6D"/>
<path d="M85.6814 153.838C85.3904 153.838 85.1544 153.602 85.1544 153.311V76.3051C85.1544 76.0141 85.3904 75.7781 85.6814 75.7781C85.9724 75.7781 86.2084 76.0141 86.2084 76.3051V153.311C86.2084 153.602 85.9724 153.838 85.6814 153.838Z" fill="#002E6D"/>
<path d="M139.077 153.838C138.786 153.838 138.55 153.602 138.55 153.311V76.3051C138.55 76.0141 138.786 75.7781 139.077 75.7781C139.368 75.7781 139.604 76.0141 139.604 76.3051V153.311C139.604 153.602 139.368 153.838 139.077 153.838Z" fill="#002E6D"/>
<path d="M150.278 76.615H73.9754C73.6844 76.615 73.4484 76.379 73.4484 76.088V67.943C73.4484 67.652 73.6844 67.416 73.9754 67.416H150.279C150.57 67.416 150.806 67.652 150.806 67.943V76.088C150.806 76.379 150.569 76.615 150.278 76.615ZM74.5024 75.561H149.751V68.471H74.5024V75.561Z" fill="#002E6D"/>
<path d="M138.908 85.188H85.8103C85.5193 85.188 85.2833 84.952 85.2833 84.661C85.2833 84.37 85.5193 84.134 85.8103 84.134H138.909C139.2 84.134 139.436 84.37 139.436 84.661C139.436 84.952 139.199 85.188 138.908 85.188Z" fill="#002E6D"/>
<path d="M138.908 93.1191H85.8103C85.5193 93.1191 85.2833 92.8831 85.2833 92.5921C85.2833 92.3011 85.5193 92.0651 85.8103 92.0651H138.909C139.2 92.0651 139.436 92.3011 139.436 92.5921C139.436 92.8831 139.199 93.1191 138.908 93.1191Z" fill="#002E6D"/>
<path d="M160.333 160.5H0.333374C0.057374 160.5 -0.166626 160.276 -0.166626 160V153.471C-0.166626 153.195 0.057374 152.971 0.333374 152.971H160.333C160.609 152.971 160.833 153.195 160.833 153.471V160C160.833 160.276 160.609 160.5 160.333 160.5ZM0.833374 159.5H159.833V153.971H0.833374V159.5Z" fill="#002E6D"/>
<path d="M96.4874 0H81.2674C80.6524 0 80.0654 0.245 79.6324 0.677L79.4034 0.908C78.5014 1.81 77.0424 1.81 76.1374 0.908L75.9074 0.677C75.4744 0.245 74.8884 0 74.2754 0H59.0224C53.4564 0 48.9464 4.51 48.9464 10.076V13.481C48.9464 19.046 53.4564 23.557 59.0224 23.557H74.5074C75.1204 23.557 75.7074 23.312 76.1374 22.879C77.0414 21.979 78.5014 21.979 79.4034 22.879C79.8344 23.312 80.4234 23.557 81.0364 23.557H96.4884C102.054 23.557 106.564 19.047 106.564 13.481V10.076C106.563 4.51 102.053 0 96.4874 0Z" fill="#9FE7FF"/>
<path d="M100.405 27.975H84.9534C84.2124 27.975 83.4874 27.674 82.9664 27.149C82.2624 26.446 81.1134 26.447 80.4074 27.151C79.8884 27.673 79.1654 27.975 78.4254 27.975H62.9394C57.1084 27.975 52.3644 23.23 52.3644 17.399V13.994C52.3644 8.16197 57.1084 3.41797 62.9394 3.41797H78.1934C78.9314 3.41797 79.6554 3.71797 80.1784 4.24097L80.4084 4.47197C81.1124 5.17597 82.2604 5.17797 82.9664 4.47197L83.1954 4.24197C83.7294 3.70997 84.4354 3.41797 85.1854 3.41797H100.405C106.237 3.41797 110.981 8.16197 110.981 13.994V17.399C110.981 23.23 106.237 27.975 100.405 27.975ZM81.6894 25.624C82.4084 25.624 83.1274 25.897 83.6734 26.443C84.0104 26.781 84.4764 26.975 84.9524 26.975H100.404C105.684 26.975 109.98 22.679 109.98 17.399V13.994C109.98 8.71397 105.684 4.41797 100.404 4.41797H85.1844C84.7014 4.41797 84.2454 4.60597 83.9014 4.94897L83.6734 5.17797C82.5774 6.27297 80.7974 6.27297 79.6994 5.17897L79.4694 4.94797C79.1334 4.61197 78.6664 4.41797 78.1924 4.41797H62.9394C57.6604 4.41797 53.3644 8.71297 53.3644 13.994V17.399C53.3644 22.679 57.6604 26.975 62.9394 26.975H78.4244C78.9004 26.975 79.3644 26.782 79.6994 26.445C80.2494 25.897 80.9704 25.624 81.6894 25.624Z" fill="#002E6D"/>
<path d="M99.3384 9.21802H95.2824C94.2504 9.21802 93.4094 10.059 93.4094 11.092V19.986C93.4094 21.019 94.2494 21.86 95.2824 21.86H99.3384C102.398 21.86 104.888 19.37 104.888 16.31V14.769C104.889 11.707 102.399 9.21802 99.3384 9.21802ZM103.428 16.309C103.428 18.564 101.593 20.398 99.3384 20.398H95.8364C95.3474 20.398 94.9504 20.001 94.9504 19.512V11.564C94.9504 11.076 95.3474 10.679 95.8364 10.679H99.3384C101.593 10.679 103.428 12.513 103.428 14.768V16.309Z" fill="#002E6D"/>
<path d="M77.1454 11.308L79.4574 20.137C79.7314 21.184 80.6414 21.886 81.7224 21.886C82.8044 21.886 83.7144 21.183 83.9894 20.137L86.3014 11.308C86.3994 10.922 86.7504 10.65 87.1534 10.65C87.6384 10.65 88.0324 11.045 88.0324 11.53V21.783H89.4944V11.531C89.4944 10.239 88.4444 9.18799 87.1524 9.18799C86.0874 9.18799 85.1564 9.90799 84.8894 10.939L82.5744 19.768C82.4684 20.174 82.1424 20.427 81.7224 20.427C81.3044 20.427 80.9784 20.174 80.8734 19.768L78.5594 10.94C78.2894 9.90899 77.3584 9.18899 76.2944 9.18899C75.0034 9.18899 73.9534 10.24 73.9534 11.532V21.785H75.4134V11.531C75.4134 11.046 75.8084 10.651 76.2944 10.651C76.6934 10.651 77.0434 10.921 77.1454 11.308Z" fill="#002E6D"/>
<path d="M68.9334 12.3809L70.3284 11.8359C69.4964 10.2329 67.6744 9.21692 65.5724 9.21692H64.3814C61.3504 9.21692 58.8834 11.6829 58.8834 14.7139V16.3789C58.8834 19.4099 61.3504 21.8759 64.3814 21.8759H65.5724C67.6474 21.8759 69.6204 20.7749 70.3444 19.2629L68.9204 18.7069C68.2584 19.7389 66.9604 20.4109 65.5724 20.4109H64.4294C62.2054 20.4109 60.3954 18.6019 60.3954 16.3789V14.7139C60.3954 12.4909 62.2044 10.6819 64.4294 10.6819H65.5724C67.0474 10.6829 68.3224 11.3369 68.9334 12.3809Z" fill="#002E6D"/>
</g>
<defs>
<clipPath id="clip0_305_1535">
<rect width="160" height="160" fill="white" transform="translate(0.333374)"/>
</clipPath>
</defs>
</svg>
