<svg xmlns="http://www.w3.org/2000/svg" width="24px" height="24px" viewBox="4.5 4.5 24 24">
<path fill="#BBBBBB" d="M17.451,16.5l7.75-7.751c0.304-0.303,0.391-0.708,0.192-0.906l-0.237-0.237
c-0.196-0.196-0.603-0.111-0.904,0.191L16.5,15.549L8.749,7.797C8.445,7.494,8.04,7.409,7.843,7.606L7.607,7.842
C7.41,8.039,7.495,8.444,7.797,8.748l7.752,7.752l-7.752,7.753c-0.303,0.302-0.388,0.707-0.191,0.904l0.237,0.236
c0.196,0.197,0.602,0.112,0.905-0.191L16.5,17.45l7.752,7.752c0.302,0.304,0.708,0.39,0.905,0.192l0.236-0.236
c0.197-0.197,0.111-0.604-0.192-0.905L17.451,16.5z"/>
</svg>
