<svg width="112" height="112" viewBox="0 0 112 112" fill="none" xmlns="http://www.w3.org/2000/svg">
<g clip-path="url(#clip0_187_2168)">
<path d="M75.6031 37.5893C75.6031 52.7873 63.2821 65.1083 48.0851 65.1083C32.8881 65.1083 20.5691 52.7873 20.5691 37.5893C20.5691 22.3913 32.8881 10.0703 48.0851 10.0703C63.2821 10.0713 75.6031 22.3913 75.6031 37.5893Z" fill="#9FE7FF"/>
<path d="M58.334 37.5893C58.334 52.7873 53.746 65.1083 48.084 65.1083C42.424 65.1083 37.833 52.7873 37.833 37.5893C37.833 22.3913 42.424 10.0703 48.084 10.0703C53.746 10.0713 58.334 22.3913 58.334 37.5893Z" fill="#9FE7FF"/>
<path d="M57.1699 70.1462C41.7249 70.1462 29.1589 57.5792 29.1589 42.1322C29.1589 26.6852 41.7249 14.1182 57.1699 14.1182C72.6169 14.1182 85.1839 26.6852 85.1839 42.1322C85.1829 57.5782 72.6169 70.1462 57.1699 70.1462ZM57.1699 15.1092C42.2719 15.1092 30.1509 27.2312 30.1509 42.1322C30.1509 57.0332 42.2719 69.1552 57.1699 69.1552C72.0699 69.1552 84.1919 57.0332 84.1919 42.1322C84.1919 27.2312 72.0699 15.1092 57.1699 15.1092Z" fill="#002E6D"/>
<path d="M57.1698 70.1462C51.1438 70.1462 46.4229 57.8412 46.4229 42.1322C46.4229 26.4232 51.1438 14.1182 57.1698 14.1182C63.1948 14.1182 67.9159 26.4232 67.9159 42.1322C67.9159 57.8412 63.1948 70.1462 57.1698 70.1462ZM57.1698 15.1092C51.8818 15.1092 47.4139 27.4842 47.4139 42.1322C47.4139 56.7802 51.8818 69.1552 57.1698 69.1552C62.4578 69.1552 66.9249 56.7802 66.9249 42.1322C66.9249 27.4842 62.4578 15.1092 57.1698 15.1092Z" fill="#002E6D"/>
<path d="M83.036 50.8096H31.303V51.8006H83.036V50.8096Z" fill="#002E6D"/>
<path d="M83.036 32.4634H31.303V33.4544H83.036V32.4634Z" fill="#002E6D"/>
<path d="M57.153 112.077C57.038 112.077 56.923 112.037 56.831 111.958L56.011 111.254C54.344 109.825 15.303 75.9781 15.303 41.9422C15.303 18.8582 34.085 0.0771484 57.171 0.0771484C80.257 0.0771484 99.038 18.8582 99.038 41.9422C99.038 77.4902 59.968 109.918 58.305 111.28L57.466 111.965C57.375 112.04 57.265 112.077 57.153 112.077ZM57.172 1.06815C34.632 1.06815 16.295 19.4042 16.295 41.9422C16.295 75.5302 55.009 109.089 56.656 110.501L57.161 110.935L57.678 110.513C59.325 109.163 98.048 77.0271 98.048 41.9422C98.048 19.4042 79.711 1.06815 57.172 1.06815Z" fill="#002E6D"/>
</g>
<defs>
<clipPath id="clip0_187_2168">
<rect width="112" height="112" fill="white"/>
</clipPath>
</defs>
</svg>
