<svg width="112" height="112" viewBox="0 0 112 112" fill="none" xmlns="http://www.w3.org/2000/svg">
<g clip-path="url(#clip0_75_144)">
<path d="M104.187 25.7846V14.0277C104.187 6.45194 89.2748 0.311325 70.8761 0.311325C52.4771 0.311325 37.5649 6.45194 37.5649 14.0277V23.9429C28.1406 26.372 21.889 30.6641 21.889 35.582V47.3389C21.889 50.2389 24.0646 52.9034 27.7675 55.1184C29.9029 56.3918 32.5494 57.5285 35.6054 58.4299C36.233 58.6251 36.8988 58.802 37.5649 58.978C37.5649 59.0174 37.5649 59.0566 37.5649 59.0957V69.0109C28.1406 71.4401 21.889 75.7321 21.889 80.65V92.4069C21.889 95.3079 24.0646 97.9707 27.7675 100.186C29.9029 101.461 32.5494 102.598 35.6054 103.497C37.9954 104.22 40.6207 104.81 43.4433 105.242C45.9309 105.632 48.5581 105.908 51.2812 106.027C52.5557 106.084 53.8683 106.122 55.2002 106.122C56.5321 106.122 57.8447 106.084 59.1192 106.027C61.8421 105.908 64.4693 105.632 66.9571 105.242C69.7795 104.81 72.405 104.22 74.795 103.497C77.8508 102.598 80.4973 101.461 82.6329 100.186C86.3356 97.9707 88.5114 95.3079 88.5114 92.4069V82.4917L88.5065 82.4916C97.9227 80.0683 104.187 75.7622 104.187 70.8526V59.0957C104.187 54.1778 97.9355 49.8858 88.5114 47.4566C88.5114 47.4172 88.5114 47.378 88.5114 47.3389V37.4237L88.5065 37.4236C97.9227 35.0002 104.187 30.6942 104.187 25.7846Z" fill="#9FE7FF"/>
<path d="M110.297 31.3522V19.595C110.297 11.6248 95.4462 5.38171 76.4883 5.38171C57.5305 5.38171 42.6801 11.6248 42.6801 19.595V29.1319C32.8604 31.7375 27.0043 36.2132 27.0043 41.1492V52.9065C27.0043 55.8796 29.1204 58.7174 33.1254 61.1132C35.3639 62.4475 38.039 63.5789 41.0699 64.4724C41.5868 64.6329 42.1312 64.7805 42.6801 64.9266V74.1997C32.8604 76.8063 27.0043 81.2824 27.0043 86.2175V97.9742C27.0043 100.947 29.1204 103.786 33.1254 106.182C35.3649 107.517 38.0404 108.647 41.0738 109.542C43.5192 110.281 46.1792 110.872 48.978 111.3C51.5827 111.711 54.2383 111.976 56.8701 112.09C58.2831 112.156 59.5728 112.188 60.813 112.188C62.0522 112.188 63.3409 112.156 64.7529 112.091C67.3867 111.977 70.0418 111.711 72.6445 111.3C75.4463 110.872 78.1063 110.281 80.5477 109.543C83.5845 108.647 86.2601 107.517 88.5005 106.181C92.5046 103.786 94.6207 100.947 94.6207 97.9742V88.4771C104.105 85.9862 110.297 81.5647 110.297 76.4205V64.6627C110.297 59.7277 104.441 55.2516 94.6207 52.6455V43.4091C104.105 40.9181 110.297 36.4965 110.297 31.3522ZM76.4883 6.37617C94.5819 6.37617 109.303 12.306 109.303 19.595C109.303 26.884 94.5819 32.8143 76.4883 32.8143C58.3948 32.8143 43.6746 26.884 43.6746 19.595C43.6746 12.306 58.3948 6.37617 76.4883 6.37617ZM76.4883 33.8088C92.5673 33.8088 105.687 29.3166 109.303 23.0899V31.3522C109.303 38.6412 94.5819 44.5711 76.4883 44.5711C58.3948 44.5711 43.6746 38.6412 43.6746 31.3522V23.0899C47.2897 29.3166 60.4093 33.8088 76.4883 33.8088ZM42.6801 30.1639V31.3522C42.6801 39.3225 57.5305 45.5655 76.4883 45.5655C82.4939 45.5655 88.0849 44.9374 92.9246 43.8279C92.0634 45.4748 90.3848 47.0754 87.9907 48.5023C86.5864 49.3404 84.9713 50.1052 83.1912 50.7748C82.2298 51.1361 81.2722 51.4594 80.2632 51.7649C77.8693 52.4898 75.255 53.0711 72.492 53.4921C69.9243 53.897 67.3061 54.1593 64.7092 54.2714C61.8521 54.4025 59.7758 54.4025 56.9128 54.2714C55.9213 54.2321 54.9482 54.1544 53.9761 54.0762C52.279 53.9364 50.6508 53.7402 49.1305 53.4921C46.37 53.0711 43.7562 52.4903 41.3584 51.7639C38.3988 50.8904 35.8 49.793 33.6353 48.5023C29.9478 46.2968 27.9987 43.7538 27.9987 41.1492C27.9987 36.7999 33.6115 32.6221 42.6801 30.1639ZM33.6353 60.2595C29.9478 58.0531 27.9987 55.5106 27.9987 52.9065V44.5967C28.9895 46.2989 30.7064 47.9092 33.1254 49.3564C35.362 50.6898 38.0375 51.8207 41.0733 52.7166C43.5134 53.4557 46.1738 54.0471 48.9756 54.4744C50.5163 54.7259 52.1712 54.9255 53.8955 55.0678C54.8822 55.1469 55.8688 55.2256 56.8706 55.2649C58.3142 55.3309 59.6039 55.363 60.813 55.363C62.0211 55.363 63.3108 55.3309 64.7529 55.2649C67.3867 55.1513 70.0418 54.8852 72.6445 54.4749C75.4521 54.0471 78.1121 53.4557 80.5507 52.7166C81.5811 52.4054 82.559 52.0747 83.5408 51.7056C85.3773 51.0151 87.0457 50.2246 88.4995 49.3564C90.9343 47.9055 92.6439 46.3144 93.6262 44.6147V53.0138C93.5728 55.597 91.6247 58.1016 87.9907 60.2586C85.823 61.5512 83.2242 62.6486 80.2622 63.5216C77.8703 64.2471 75.2569 64.8278 72.492 65.2493C69.9321 65.6533 67.3139 65.9155 64.7092 66.0292C61.8657 66.1573 59.7593 66.1583 56.9153 66.0282C54.3106 65.9155 51.6924 65.6533 49.1305 65.2493C47.1795 64.9521 45.2182 64.554 43.3041 64.0645C42.6456 63.8907 41.9862 63.7159 41.3584 63.5207C38.4003 62.6486 35.8015 61.5512 33.6353 60.2595ZM42.6801 75.2317V76.4205C42.6801 84.3907 57.5305 90.6333 76.4883 90.6333C82.4939 90.6333 88.0849 90.0052 92.9246 88.8958C92.0633 90.5422 90.3848 92.1431 87.9907 93.57C85.826 94.8607 83.2271 95.9581 80.2632 96.8331C77.8635 97.5586 75.2501 98.1393 72.492 98.5608C69.9136 98.9667 67.2944 99.2289 64.7083 99.3397C61.9298 99.4698 59.6952 99.4708 56.9148 99.3387C54.3296 99.2289 51.7113 98.9667 49.131 98.5608C46.3758 98.1403 43.762 97.5586 41.3584 96.8321C38.3973 95.9581 35.7985 94.8607 33.6353 93.571C29.9478 91.3646 27.9987 88.8221 27.9987 86.2175C27.9987 81.8686 33.6115 77.6908 42.6801 75.2317ZM87.9907 105.328C85.8221 106.619 83.2233 107.717 80.2632 108.59C77.8635 109.315 75.2501 109.896 72.492 110.318C69.9243 110.723 67.3061 110.985 64.7083 111.097C61.9133 111.227 59.7136 111.228 56.9148 111.096C54.3184 110.985 51.7007 110.723 49.131 110.318C46.3758 109.897 43.762 109.315 41.3584 108.589C38.4012 107.717 35.8024 106.619 33.6353 105.329C29.9478 103.121 27.9987 100.578 27.9987 97.9742V89.6652C28.9895 91.3673 30.7062 92.9775 33.1254 94.4247C35.3605 95.7571 38.0361 96.8885 41.0738 97.7848C43.5192 98.5239 46.1792 99.1153 48.9785 99.5436C51.5938 99.9544 54.2499 100.22 56.8701 100.332C58.2744 100.399 59.5641 100.431 60.813 100.431C62.0609 100.431 63.3506 100.399 64.7529 100.333C67.375 100.22 70.0311 99.9554 72.6445 99.5436C75.4463 99.1153 78.1063 98.5239 80.5477 97.7858C83.5884 96.8885 86.2639 95.7571 88.4995 94.4247C90.9343 92.9733 92.6439 91.3821 93.6262 89.6827V97.9742C93.6262 100.579 91.6771 103.121 87.9907 105.328ZM109.303 76.4205C109.303 83.709 94.5819 89.6388 76.4883 89.6388C58.3948 89.6388 43.6746 83.709 43.6746 76.4205V68.1113C44.6647 69.8129 46.3797 71.4216 48.794 72.8651C49.1475 73.0836 49.6205 73.3691 50.1458 73.6323L50.2454 73.6741C52.1037 74.6423 54.2927 75.5027 56.7492 76.2301C59.1863 76.9692 61.8473 77.5606 64.6539 77.9889C67.2595 78.3997 69.9146 78.6658 72.5474 78.7784C73.9837 78.8445 75.2725 78.8765 76.4883 78.8765C77.7042 78.8765 78.9929 78.8445 80.4283 78.7794C82.6775 78.6803 84.8762 78.4803 86.9777 78.187C87.4342 78.1278 87.8712 78.0676 88.3199 77.9889C91.1284 77.5606 93.7894 76.9692 96.2241 76.2311C99.2618 75.3357 101.937 74.2043 104.177 72.869C106.595 71.4224 108.312 69.8125 109.303 68.1105V76.4205ZM109.303 64.6627C109.303 67.2674 107.353 69.8108 103.667 72.0153C101.499 73.3079 98.9006 74.4053 95.9386 75.2784C93.5456 76.0039 90.9323 76.5846 88.1596 77.008C87.7158 77.0847 87.2924 77.143 86.8224 77.2013C84.7684 77.4917 82.6027 77.6878 80.3846 77.7859C77.5411 77.9141 75.4366 77.9151 72.5911 77.7849C69.9952 77.6733 67.377 77.411 64.8064 77.0061C62.0434 76.5846 59.4301 76.0039 57.0342 75.2774C54.5976 74.5559 52.4392 73.7042 50.6193 72.7476L50.4916 72.6903H50.4877C50.038 72.4591 49.6287 72.2125 49.3111 72.0163C45.8687 69.9574 43.9638 67.6038 43.7229 65.1803C45.4598 65.6034 47.2223 65.9652 48.978 66.2321C51.5744 66.641 54.23 66.9071 56.8706 67.0217C58.3074 67.0877 59.5971 67.1198 60.813 67.1198C62.0289 67.1198 63.3176 67.0877 64.7529 67.0226C67.3945 66.9071 70.0506 66.641 72.6445 66.2321C75.4531 65.8038 78.1131 65.2124 80.5477 64.4743C83.5855 63.5789 86.261 62.4475 88.4986 61.1132C92.158 58.9414 94.2213 56.3772 94.5521 53.6584C103.662 56.1141 109.303 60.3029 109.303 64.6627Z" fill="#002E6D"/>
<path d="M24.0341 64.0169C23.7957 63.8761 23.4922 63.9557 23.3533 64.1927L13.0046 81.7651L12.8702 0.684247C12.8698 0.409896 12.6474 0.187988 12.373 0.187988C12.3725 0.187988 12.3735 0.187988 12.373 0.187988C12.0987 0.188474 11.8753 0.411353 11.8758 0.686189L12.0099 81.6219L2.6377 64.3821C2.50611 64.1422 2.20457 64.0529 1.96323 64.183C1.7219 64.3141 1.63256 64.6161 1.76366 64.8579L12.0734 83.8216C12.0806 83.8347 12.0951 83.8406 12.1033 83.8529C12.1363 83.9026 12.176 83.9444 12.2243 83.9794C12.2431 83.9931 12.2597 84.0061 12.2803 84.0171C12.3415 84.0498 12.4082 84.0705 12.4813 84.075C12.4886 84.0755 12.4943 84.0808 12.5017 84.0809C12.5046 84.0809 12.5075 84.0809 12.5104 84.0809C12.5099 84.0809 12.5109 84.0809 12.5104 84.0809C12.5922 84.0809 12.6671 84.0563 12.7351 84.0212C12.7539 84.0115 12.7686 83.9986 12.7861 83.9867C12.8348 83.9531 12.8755 83.9132 12.9096 83.8649C12.9176 83.8535 12.9315 83.8483 12.9387 83.8362L24.2099 64.6977C24.3492 64.4607 24.2706 64.1558 24.0341 64.0169Z" fill="#002E6D"/>
</g>
<defs>
<clipPath id="clip0_75_144">
<rect width="112" height="112" fill="white"/>
</clipPath>
</defs>
</svg>
