<svg width="112" height="112" viewBox="0 0 112 112" fill="none" xmlns="http://www.w3.org/2000/svg">
<g clip-path="url(#clip0_187_2197)">
<path d="M39.5649 24.1742V13.1452C39.5649 9.6542 42.3949 6.8252 45.8849 6.8252H93.1939C96.6849 6.8252 99.5139 9.6552 99.5139 13.1452V52.9602C99.5139 56.4512 96.6839 59.2802 93.1939 59.2802H45.8859C42.3949 59.2802 39.5659 56.4502 39.5659 52.9602V46.5192" fill="#9FE7FF"/>
<path d="M19.079 105.313C18.382 105.313 17.683 105.304 16.989 105.276C13.575 105.133 11.083 102.744 10.788 99.3301C10.339 94.0621 10.125 88.6831 9.91899 83.4801C9.81699 80.9221 9.71599 78.3681 9.58799 75.8201C9.58499 75.7571 9.582 75.6951 9.57899 75.6341C3.83599 75.2351 -0.462006 70.3921 -0.491006 64.1811C-0.504006 61.1521 -0.500006 58.1191 -0.495006 55.0831L-0.491006 50.5311C-0.491006 46.6531 -0.491006 42.2571 3.58799 39.5031C5.17299 38.4361 6.90899 38.1711 8.58899 37.9151C9.00299 37.8521 9.41999 37.7881 9.83899 37.7121L16.021 36.5791C21.656 35.5641 27.513 35.8841 33.174 36.1921C34.757 36.2781 36.334 36.3641 37.899 36.4211L51.012 36.8991C51.38 36.9121 51.787 36.9111 52.216 36.9081C54.414 36.8991 57.413 36.8801 58.533 39.1751C59.904 41.9971 57.264 45.0571 56.065 46.2411C54.033 48.2471 51.291 49.8131 47.914 50.8951C44.509 51.9761 40.965 51.9371 37.548 51.8991H37.54L36.355 76.2501C36.237 78.7431 36.143 81.2431 36.05 83.7451C35.86 88.8541 35.663 94.1371 35.238 99.3091C34.727 105.461 28.883 105.367 24.611 105.291C23.402 105.271 22.293 105.279 21.152 105.294C20.471 105.304 19.776 105.313 19.079 105.313ZM24.813 36.8901C21.91 36.8901 19.018 37.0561 16.199 37.5641L10.017 38.6971C9.58799 38.7751 9.16299 38.8401 8.73899 38.9051C7.09599 39.1561 5.54499 39.3931 4.14599 40.3341C0.507994 42.7901 0.507994 46.7261 0.507994 50.5331L0.503994 55.0871C0.499994 58.1181 0.495994 61.1501 0.508994 64.1781C0.535994 70.0001 4.64499 74.5051 10.063 74.6571L10.509 74.6701L10.547 75.1141C10.567 75.3381 10.576 75.5511 10.586 75.7741C10.714 78.3211 10.815 80.8791 10.917 83.4401C11.123 88.6311 11.336 94.0001 11.783 99.2451C12.033 102.134 14.141 104.156 17.029 104.276C18.391 104.333 19.788 104.314 21.138 104.295C22.288 104.28 23.408 104.271 24.627 104.293C28.937 104.358 33.808 104.446 34.241 99.2281C34.663 94.0791 34.859 88.8061 35.05 83.7081C35.143 81.2021 35.237 78.6981 35.356 76.2021L36.587 50.8891L37.557 50.8991C40.9 50.9341 44.358 50.9731 47.609 49.9421C50.834 48.9091 53.442 47.4241 55.361 45.5291C56.407 44.4961 58.721 41.8521 57.632 39.6121C56.786 37.8821 54.262 37.8941 52.219 37.9071C51.779 37.9101 51.354 37.9121 50.973 37.8971L37.86 37.4191C36.29 37.3621 34.708 37.2761 33.119 37.1891C30.378 37.0421 27.591 36.8901 24.813 36.8901Z" fill="#002E6D"/>
<path d="M23.1731 105.211C22.8971 105.211 22.6731 104.987 22.6731 104.711V75.6733C22.6731 75.3973 22.8971 75.1733 23.1731 75.1733C23.4491 75.1733 23.6731 75.3973 23.6731 75.6733V104.711C23.6731 104.987 23.4491 105.211 23.1731 105.211Z" fill="#002E6D"/>
<path d="M10.064 75.989C9.78796 75.989 9.56396 75.765 9.56396 75.489V60.79C9.56396 60.514 9.78796 60.29 10.064 60.29C10.34 60.29 10.564 60.514 10.564 60.79V75.489C10.564 75.766 10.341 75.989 10.064 75.989Z" fill="#002E6D"/>
<path d="M22.7049 33.5533C16.7479 33.5533 11.9009 28.7063 11.9009 22.7493C11.9009 16.7923 16.7479 11.9453 22.7049 11.9453C28.6619 11.9453 33.5089 16.7923 33.5089 22.7493C33.5089 28.7063 28.6619 33.5533 22.7049 33.5533ZM22.7049 12.9453C17.2989 12.9453 12.9009 17.3433 12.9009 22.7493C12.9009 28.1553 17.2979 32.5533 22.7049 32.5533C28.1119 32.5533 32.5089 28.1553 32.5089 22.7493C32.5089 17.3433 28.1109 12.9453 22.7049 12.9453Z" fill="#002E6D"/>
<path d="M102.562 69.1474H55.2531C51.4921 69.1474 48.4331 66.0874 48.4331 62.3274V55.8864C48.4331 55.6104 48.6571 55.3864 48.9331 55.3864C49.2091 55.3864 49.4331 55.6104 49.4331 55.8864V62.3274C49.4331 65.5364 52.0441 68.1474 55.2531 68.1474H102.562C105.771 68.1474 108.382 65.5364 108.382 62.3274V22.5124C108.382 19.3034 105.771 16.6924 102.562 16.6924H55.2531C52.0441 16.6924 49.4331 19.3034 49.4331 22.5124V33.5414C49.4331 33.8174 49.2091 34.0414 48.9331 34.0414C48.6571 34.0414 48.4331 33.8174 48.4331 33.5414V22.5124C48.4331 18.7514 51.4931 15.6924 55.2531 15.6924H102.562C106.323 15.6924 109.382 18.7524 109.382 22.5124V62.3274C109.382 66.0884 106.322 69.1474 102.562 69.1474Z" fill="#002E6D"/>
<path d="M93.426 32.5532H65.325V33.5532H93.426V32.5532Z" fill="#002E6D"/>
<path d="M93.426 52.2241H65.325V53.2241H93.426V52.2241Z" fill="#002E6D"/>
<path d="M96.7051 41.9204H64.0161V42.9204H96.7051V41.9204Z" fill="#002E6D"/>
<path d="M78.294 90.9274C75.964 90.9274 73.757 90.0234 72.077 88.3424C70.038 86.3034 69.142 83.4884 69.618 80.6194C70.221 76.9844 73.18 74.0264 76.816 73.4274C79.678 72.9534 82.494 73.8504 84.53 75.8864C86.567 77.9234 87.465 80.7364 86.991 83.6044C86.391 87.2404 83.433 90.2004 79.799 90.8024C79.294 90.8864 78.791 90.9274 78.294 90.9274ZM78.311 74.3034C77.871 74.3034 77.426 74.3404 76.979 74.4134C73.76 74.9444 71.139 77.5634 70.605 80.7834C70.183 83.3294 70.977 85.8274 72.785 87.6354C74.593 89.4434 77.089 90.2384 79.636 89.8164C82.856 89.2824 85.475 86.6614 86.006 83.4424C86.426 80.8964 85.631 78.3994 83.824 76.5934C82.334 75.1044 80.377 74.3034 78.311 74.3034Z" fill="#002E6D"/>
<path d="M92.489 105.675C92.213 105.675 91.989 105.451 91.989 105.175V99.2245C91.425 95.8635 88.25 93.3625 85.758 93.2715H70.146C67.677 93.3635 64.514 95.8635 63.952 99.3055L63.959 105.175C63.959 105.451 63.735 105.675 63.459 105.675C63.183 105.675 62.959 105.451 62.959 105.175V99.2245C63.615 95.1665 67.193 92.3795 70.128 92.2715H85.776C88.733 92.3795 92.323 95.1665 92.982 99.1425L92.989 105.175C92.989 105.451 92.766 105.675 92.489 105.675Z" fill="#002E6D"/>
<path d="M69.5449 105.675C69.3059 105.675 69.0939 105.502 69.0529 105.257L68.1159 99.6395C68.0699 99.3675 68.2549 99.1095 68.5269 99.0645C68.7949 99.0135 69.0559 99.2025 69.1019 99.4755L70.0389 105.093C70.0849 105.365 69.8999 105.623 69.6279 105.668C69.6009 105.673 69.5719 105.675 69.5449 105.675Z" fill="#002E6D"/>
<path d="M86.3881 105.673C86.3601 105.673 86.3301 105.671 86.3021 105.666C86.0301 105.619 85.8471 105.36 85.8941 105.088L86.8621 99.4745C86.9091 99.2025 87.1721 99.0175 87.4401 99.0665C87.7121 99.1135 87.8951 99.3725 87.8481 99.6445L86.8801 105.258C86.8381 105.501 86.6261 105.673 86.3881 105.673Z" fill="#002E6D"/>
<path d="M57.1151 90.7434C55.0501 90.7434 53.0941 89.9414 51.6041 88.4524C49.7961 86.6444 49.0011 84.1484 49.4231 81.6034C49.9571 78.3804 52.5821 75.7574 55.8061 75.2254C58.3371 74.8064 60.8391 75.5994 62.6461 77.4074C64.4521 79.2134 65.2481 81.7074 64.8281 84.2494C64.2971 87.4744 61.6741 90.0994 58.4501 90.6324C58.0031 90.7064 57.5571 90.7434 57.1151 90.7434ZM57.1301 76.1164C56.7461 76.1164 56.3591 76.1474 55.9691 76.2124C53.1621 76.6764 50.8761 78.9604 50.4101 81.7684C50.0421 83.9904 50.7341 86.1684 52.3111 87.7464C53.8871 89.3204 56.0651 90.0134 58.2861 89.6464C61.0951 89.1814 63.3791 86.8954 63.8421 84.0874C64.2081 81.8664 63.5151 79.6904 61.9401 78.1144C60.6411 76.8154 58.9341 76.1164 57.1301 76.1164Z" fill="#002E6D"/>
<path d="M44.063 103.721C43.787 103.721 43.563 103.497 43.563 103.221V97.9846C44.146 94.3766 47.323 91.9026 49.928 91.8066H63.7C63.976 91.8066 64.2 92.0306 64.2 92.3066C64.2 92.5826 63.976 92.8066 63.7 92.8066H49.947C47.801 92.8856 45.047 95.0656 44.556 98.0656L44.563 103.221C44.563 103.497 44.34 103.721 44.063 103.721Z" fill="#002E6D"/>
<path d="M49.419 103.72C49.18 103.72 48.968 103.547 48.927 103.302L48.103 98.3585C48.057 98.0865 48.242 97.8285 48.514 97.7835C48.781 97.7335 49.043 97.9215 49.089 98.1945L49.913 103.138C49.959 103.41 49.774 103.668 49.502 103.713C49.475 103.718 49.446 103.72 49.419 103.72Z" fill="#002E6D"/>
<path d="M98.9479 90.7432C98.5069 90.7432 98.0609 90.7063 97.6129 90.6323C94.3889 90.0993 91.7659 87.4743 91.2349 84.2493C90.8149 81.7073 91.6109 79.2132 93.4169 77.4072C95.2229 75.6012 97.7119 74.8062 100.257 75.2252C103.482 75.7572 106.107 78.3802 106.641 81.6032C107.063 84.1472 106.268 86.6432 104.46 88.4512C102.971 89.9402 101.014 90.7422 98.9479 90.7432ZM98.9339 76.1162C97.1299 76.1162 95.4229 76.8152 94.1239 78.1142C92.5489 79.6892 91.8549 81.8662 92.2219 84.0872C92.6849 86.8952 94.9689 89.1813 97.7779 89.6463C99.9949 90.0103 102.176 89.3223 103.754 87.7453C105.331 86.1693 106.024 83.9902 105.655 81.7682C105.189 78.9602 102.903 76.6762 100.095 76.2122C99.7049 76.1472 99.3169 76.1162 98.9339 76.1162Z" fill="#002E6D"/>
<path d="M112 103.72C111.724 103.72 111.5 103.496 111.5 103.22V97.9842C111.017 95.0652 108.263 92.8852 106.098 92.8062H92.3638C92.0878 92.8062 91.8638 92.5822 91.8638 92.3062C91.8638 92.0302 92.0878 91.8062 92.3638 91.8062H106.116C108.74 91.9022 111.917 94.3752 112.493 97.9032L112.5 103.22C112.5 103.496 112.276 103.72 112 103.72Z" fill="#002E6D"/>
<path d="M106.646 103.72C106.619 103.72 106.59 103.718 106.563 103.713C106.291 103.668 106.107 103.41 106.152 103.138L106.975 98.1945C107.021 97.9215 107.281 97.7335 107.55 97.7835C107.822 97.8285 108.006 98.0865 107.961 98.3585L107.138 103.302C107.097 103.547 106.885 103.72 106.646 103.72Z" fill="#002E6D"/>
</g>
<defs>
<clipPath id="clip0_187_2197">
<rect width="112" height="112" fill="white"/>
</clipPath>
</defs>
</svg>
