<svg width="160" height="160" viewBox="0 0 160 160" fill="none" xmlns="http://www.w3.org/2000/svg">
<g clip-path="url(#clip0_305_1558)">
<path d="M160 160.5H0C-0.276 160.5 -0.5 160.276 -0.5 160V153.798C-0.5 153.522 -0.276 153.298 0 153.298H159.992C160.268 153.298 160.492 153.522 160.492 153.797L160.5 159.999C160.5 160.132 160.447 160.26 160.354 160.353C160.261 160.446 160.133 160.5 160 160.5ZM0.5 159.5H159.499L159.493 154.298H0.5V159.5Z" fill="#002E6D"/>
<path d="M5.33301 84.969C5.05701 84.969 4.83301 84.745 4.83301 84.469V65.803C4.83301 65.692 4.87001 65.584 4.93801 65.496L23.604 41.496C23.699 41.374 23.844 41.303 23.999 41.303H90.662C90.938 41.303 91.162 41.527 91.162 41.803C91.162 42.079 90.938 42.303 90.662 42.303H24.243L5.83301 65.975V84.469C5.83301 84.745 5.60901 84.969 5.33301 84.969Z" fill="#002E6D"/>
<path d="M154.659 84.969C154.383 84.969 154.159 84.745 154.159 84.469V65.975L135.749 42.304H90.6621C90.3861 42.304 90.1621 42.08 90.1621 41.804C90.1621 41.528 90.3861 41.304 90.6621 41.304H135.993C136.147 41.304 136.293 41.375 136.388 41.497L155.054 65.497C155.122 65.585 155.159 65.692 155.159 65.804V84.47C155.159 84.745 154.936 84.969 154.659 84.969Z" fill="#002E6D"/>
<path d="M154.303 66.964H5.33301C5.05701 66.964 4.83301 66.74 4.83301 66.464C4.83301 66.188 5.05701 65.964 5.33301 65.964H154.303C154.579 65.964 154.803 66.188 154.803 66.464C154.803 66.74 154.579 66.964 154.303 66.964Z" fill="#002E6D"/>
<path d="M124.833 154.298H13.2339C12.9579 154.298 12.7339 154.074 12.7339 153.798V84.707C12.7339 84.431 12.9579 84.207 13.2339 84.207C13.5099 84.207 13.7339 84.431 13.7339 84.707V153.298H124.833C125.109 153.298 125.333 153.522 125.333 153.798C125.333 154.074 125.109 154.298 124.833 154.298Z" fill="#002E6D"/>
<path d="M146.659 153.765C146.383 153.765 146.159 153.541 146.159 153.265V84.7209C146.159 84.4449 146.383 84.2209 146.659 84.2209C146.935 84.2209 147.159 84.4449 147.159 84.7209V153.265C147.159 153.541 146.936 153.765 146.659 153.765Z" fill="#002E6D"/>
<path d="M130.66 138.299H74.6631C74.3871 138.299 74.1631 138.075 74.1631 137.799V105.801C74.1631 105.525 74.3871 105.301 74.6631 105.301H130.66C130.936 105.301 131.16 105.525 131.16 105.801V137.799C131.16 138.075 130.937 138.299 130.66 138.299ZM75.1631 137.299H130.16V106.301H75.1631V137.299Z" fill="#002E6D"/>
<path d="M58.664 154.298H29.332C29.056 154.298 28.832 154.074 28.832 153.798V105.801C28.832 105.525 29.056 105.301 29.332 105.301H58.664C58.94 105.301 59.164 105.525 59.164 105.801V153.798C59.164 154.074 58.94 154.298 58.664 154.298ZM29.832 153.298H58.164V106.301H29.832V153.298Z" fill="#002E6D"/>
<path d="M103.995 137.82C103.719 137.82 103.495 137.596 103.495 137.32V105.778C103.495 105.502 103.719 105.278 103.995 105.278C104.271 105.278 104.495 105.502 104.495 105.778V137.32C104.495 137.597 104.271 137.82 103.995 137.82Z" fill="#002E6D"/>
<path d="M154.621 85.0859H5.46191C5.18591 85.0859 4.96191 84.8619 4.96191 84.5859C4.96191 84.3099 5.18591 84.0859 5.46191 84.0859H154.621C154.897 84.0859 155.121 84.3099 155.121 84.5859C155.121 84.8619 154.897 85.0859 154.621 85.0859Z" fill="#002E6D"/>
<path d="M95.792 0H80.572C79.957 0 79.37 0.245 78.937 0.677L78.708 0.908C77.806 1.81 76.347 1.81 75.442 0.908L75.212 0.677C74.779 0.245 74.192 0 73.579 0H58.326C52.76 0 48.25 4.51 48.25 10.076V13.481C48.25 19.046 52.76 23.557 58.326 23.557H73.811C74.424 23.557 75.011 23.312 75.441 22.879C76.345 21.979 77.805 21.979 78.707 22.879C79.138 23.312 79.727 23.557 80.34 23.557H95.792C101.358 23.557 105.868 19.047 105.868 13.481V10.076C105.867 4.51 101.357 0 95.792 0Z" fill="#9FE7FF"/>
<path d="M99.71 27.975H84.258C83.517 27.975 82.792 27.674 82.271 27.149C81.568 26.446 80.419 26.447 79.712 27.151C79.192 27.674 78.469 27.975 77.73 27.975H62.244C56.412 27.975 51.668 23.23 51.668 17.399V13.994C51.668 8.16197 56.412 3.41797 62.244 3.41797H77.497C78.246 3.41797 78.952 3.70997 79.483 4.24097L79.713 4.47197C80.418 5.17597 81.566 5.17797 82.271 4.47197L82.5 4.24197C83.034 3.70997 83.739 3.41797 84.489 3.41797H99.71C105.541 3.41797 110.285 8.16197 110.285 13.994V17.399C110.285 23.23 105.541 27.975 99.71 27.975ZM80.994 25.624C81.713 25.624 82.432 25.897 82.978 26.443C83.315 26.781 83.781 26.975 84.257 26.975H99.71C104.989 26.975 109.285 22.679 109.285 17.399V13.994C109.285 8.71397 104.989 4.41797 99.71 4.41797H84.489C84.006 4.41797 83.551 4.60597 83.207 4.94897L82.979 5.17797C81.883 6.27297 80.103 6.27297 79.005 5.17897L78.775 4.94797C78.433 4.60697 77.979 4.41797 77.497 4.41797H62.244C56.964 4.41797 52.668 8.71297 52.668 13.994V17.399C52.668 22.679 56.964 26.975 62.244 26.975H77.729C78.204 26.975 78.668 26.782 79.004 26.444C79.554 25.897 80.274 25.624 80.994 25.624Z" fill="#002E6D"/>
<path d="M98.6429 9.21802H94.5869C93.5549 9.21802 92.7139 10.059 92.7139 11.092V19.986C92.7139 21.019 93.5539 21.86 94.5869 21.86H98.6429C101.703 21.86 104.193 19.37 104.193 16.31V14.769C104.193 11.707 101.703 9.21802 98.6429 9.21802ZM102.733 16.309C102.733 18.564 100.898 20.398 98.6429 20.398H95.1399C94.6509 20.398 94.2539 20.001 94.2539 19.512V11.564C94.2539 11.076 94.6509 10.679 95.1399 10.679H98.6419C100.897 10.679 102.732 12.513 102.732 14.768L102.733 16.309Z" fill="#002E6D"/>
<path d="M76.4491 11.308L78.7611 20.137C79.0351 21.184 79.9451 21.886 81.0261 21.886C82.1081 21.886 83.0181 21.183 83.2931 20.137L85.6051 11.308C85.7031 10.922 86.0541 10.65 86.4571 10.65C86.9421 10.65 87.3361 11.045 87.3361 11.53V21.783H88.7981V11.531C88.7981 10.239 87.7481 9.18799 86.4561 9.18799C85.3911 9.18799 84.4601 9.90799 84.1931 10.939L81.8781 19.768C81.7721 20.174 81.4461 20.427 81.0261 20.427C80.6081 20.427 80.2821 20.174 80.1771 19.768L77.8631 10.94C77.5931 9.90899 76.6621 9.18899 75.5981 9.18899C74.3071 9.18899 73.2571 10.24 73.2571 11.532V21.785H74.7171V11.531C74.7171 11.046 75.1121 10.651 75.5981 10.651C75.9971 10.651 76.3471 10.921 76.4491 11.308Z" fill="#002E6D"/>
<path d="M68.237 12.3809L69.632 11.8359C68.8 10.2329 66.978 9.21692 64.876 9.21692H63.685C60.654 9.21692 58.187 11.6829 58.187 14.7139V16.3789C58.187 19.4099 60.654 21.8759 63.685 21.8759H64.876C66.951 21.8759 68.924 20.7749 69.648 19.2629L68.224 18.7069C67.562 19.7389 66.264 20.4109 64.876 20.4109H63.733C61.509 20.4109 59.699 18.6019 59.699 16.3789V14.7139C59.699 12.4909 61.508 10.6819 63.733 10.6819H64.876C66.351 10.6829 67.627 11.3369 68.237 12.3809Z" fill="#002E6D"/>
</g>
<defs>
<clipPath id="clip0_305_1558">
<rect width="160" height="160" fill="white"/>
</clipPath>
</defs>
</svg>
