<svg width="112" height="112" viewBox="0 0 112 112" fill="none" xmlns="http://www.w3.org/2000/svg">
<g clip-path="url(#clip0_75_140)">
<path d="M105.908 33.0299L103.447 16.4772C103.243 15.1042 101.963 14.1551 100.589 14.3603L84.0333 16.8207C82.6596 17.0259 81.7121 18.307 81.9157 19.6783L82.2861 22.1654C82.4904 23.5433 83.7698 24.4891 85.1435 24.284L91.5016 23.3414L78.4077 41.1753C78.3351 41.2721 78.2041 41.3037 78.0941 41.2537L58.1283 31.542C58.0224 31.4902 57.8948 31.522 57.8205 31.612L37.7255 57.0492C37.6504 57.146 37.5161 57.1727 37.4085 57.1126L17.9264 46.5633C17.8398 46.515 17.7314 46.5251 17.653 46.585L0.408776 59.9734C0.151015 60.1753 -0.00169392 60.4855 1.41791e-05 60.8109L0.0208537 67.6786C0.02427 68.5509 1.03174 69.043 1.7232 68.5058L18.3902 55.5679C18.4695 55.5062 18.5771 55.4978 18.6647 55.5446L39.3953 66.771C39.5029 66.8311 39.638 66.8028 39.7138 66.7059L59.9791 41.0552C60.0517 40.9602 60.1801 40.9302 60.286 40.9819L80.4536 50.7903C80.5629 50.8438 80.6937 50.8105 80.7663 50.7136L97.516 27.8988L98.4442 34.1426C98.6502 35.517 99.929 36.4645 101.303 36.2611L103.791 35.8908C105.164 35.6856 106.113 34.4045 105.908 33.0299Z" fill="#9FE7FF"/>
<path d="M6.53077 75.374C6.29884 75.374 6.06544 75.3213 5.84718 75.2149C5.31056 74.9531 4.9756 74.4209 4.97316 73.8252L4.95216 66.957C4.95021 66.4815 5.17433 66.0215 5.55275 65.7256L22.7979 52.3364C23.041 52.1519 23.3628 52.127 23.6221 52.2715L42.9151 62.7197L62.8789 37.4468C63.1113 37.168 63.4873 37.0869 63.7988 37.2388L83.5791 46.8584L95.8408 30.1582L90.668 30.9248C89.8701 31.042 89.0772 30.8457 88.4297 30.3662C87.7822 29.8867 87.3613 29.1831 87.2432 28.3853L86.874 25.898C86.7549 25.1021 86.9541 24.3071 87.4336 23.6597C87.9131 23.0122 88.6152 22.5903 89.4121 22.4727L105.967 20.0103C106.759 19.8916 107.559 20.0899 108.207 20.5703C108.854 21.0503 109.275 21.7534 109.394 22.5503L111.854 39.1026C112.099 40.7471 110.961 42.2847 109.317 42.5303L106.827 42.9004C106.031 43.0195 105.236 42.8203 104.59 42.3403C103.942 41.8609 103.521 41.1577 103.402 40.3609L102.652 35.3189L86.6221 57.1563C86.4033 57.4483 86.0127 57.543 85.6846 57.3838L65.7002 47.666L45.5586 73.1621C45.3296 73.4522 44.9292 73.5293 44.606 73.3545L24.0225 62.207L7.48146 75.0449C7.20216 75.2627 6.86818 75.374 6.53077 75.374ZM23.2837 53.2256L6.167 66.5147C6.03224 66.6201 5.95118 66.7842 5.95216 66.9531L5.97316 73.8213C5.97413 74.0361 6.09034 74.2207 6.28517 74.3154C6.47999 74.4111 6.69679 74.3887 6.86818 74.2559L23.5352 61.3203C23.7661 61.1358 24.0889 61.1074 24.3535 61.249L44.9033 72.3779L65.0391 46.8901C65.2481 46.6152 65.6367 46.5234 65.957 46.6787L85.9395 56.396L103.283 32.7681L104.391 40.2134C104.471 40.7461 104.753 41.2163 105.185 41.5371C105.617 41.8579 106.147 41.9922 106.68 41.9111L109.17 41.541C110.269 41.377 111.029 40.3491 110.865 39.25L108.404 22.6973C108.325 22.1641 108.044 21.6943 107.611 21.3735C107.18 21.0537 106.647 20.9194 106.114 20.9995L89.5586 23.4619C89.0264 23.5405 88.5576 23.8223 88.2363 24.2549C87.916 24.6875 87.7832 25.2188 87.8623 25.751L88.2315 28.2388C88.3106 28.7725 88.5928 29.2427 89.0254 29.563C89.457 29.8833 89.9912 30.0142 90.5205 29.9356L98.0654 28.8174L84.2627 47.6177C84.044 47.9067 83.6543 48.002 83.332 47.8506L63.5391 38.2246L43.5698 63.5039C43.3447 63.793 42.9458 63.876 42.6206 63.6973L23.2837 53.2256ZM45.082 72.4746L45.085 72.4766L45.082 72.4746ZM42.7852 62.8848L42.7827 62.8877L42.7852 62.8848ZM43.0967 62.8184L43.0991 62.8193L43.0967 62.8184ZM24.1548 62.1045L24.1485 62.1094C24.1504 62.1084 24.1528 62.1065 24.1548 62.1045ZM86.1221 56.4844L86.124 56.4854L86.1221 56.4844ZM23.1397 53.1475C23.1416 53.1489 23.1436 53.1499 23.1455 53.1509L23.1397 53.1475ZM65.8301 47.5025L65.8242 47.5103C65.8262 47.5078 65.8281 47.5049 65.8301 47.5025Z" fill="#002E6D"/>
<path d="M111.886 97.168V50.5981H110.886V97.168H91.7686V65.9316H90.7686V97.168H70.584V58.8105H69.584V97.168H48.1519V82.666H47.1519V97.168H26.2544V71.8076H25.2544V97.168H6.15479V86.0469H5.15479V97.168H5.125V98.168H112V97.168H111.886Z" fill="#002E6D"/>
</g>
<defs>
<clipPath id="clip0_75_140">
<rect width="112" height="112" fill="white"/>
</clipPath>
</defs>
</svg>
