<svg width="112" height="112" viewBox="0 0 112 112" fill="none" xmlns="http://www.w3.org/2000/svg">
<g clip-path="url(#clip0_187_2160)">
<path d="M93.746 33.837H78.484C78.208 33.837 77.984 33.613 77.984 33.337V18.075C77.984 17.942 78.037 17.815 78.13 17.721L96.207 -0.354043C96.35 -0.497043 96.566 -0.540043 96.752 -0.462043C96.939 -0.385043 97.061 -0.202043 97.061 -4.30942e-05V14.762H111.823C112.025 14.762 112.208 14.884 112.285 15.071C112.362 15.258 112.319 15.473 112.177 15.616L94.1 33.691C94.006 33.785 93.879 33.837 93.746 33.837ZM78.984 32.837H93.539L110.615 15.761H96.561C96.285 15.761 96.061 15.537 96.061 15.261V1.20696L78.984 18.282V32.837Z" fill="#002E6D"/>
<path d="M45.098 74.946C53.575 74.946 60.447 68.0741 60.447 59.597C60.447 51.12 53.575 44.248 45.098 44.248C36.621 44.248 29.749 51.12 29.749 59.597C29.749 68.0741 36.621 74.946 45.098 74.946Z" fill="#9FE7FF"/>
<path d="M48.89 79.245C44.559 79.245 40.47 77.528 37.416 74.366C33.828 70.651 32.286 65.565 33.185 60.412C33.952 56.01 36.594 52.123 40.435 49.748C44.775 47.063 49.95 46.564 54.635 48.378C54.893 48.478 55.021 48.768 54.92 49.025C54.82 49.283 54.528 49.409 54.274 49.311C49.886 47.612 45.034 48.08 40.961 50.599C37.364 52.824 34.889 56.463 34.17 60.584C33.327 65.419 34.774 70.188 38.137 73.672C41.5 77.153 46.199 78.768 51.043 78.096C57.924 77.142 63.427 71.169 63.843 64.203C63.981 61.891 63.608 59.65 62.733 57.544C62.628 57.289 62.748 56.996 63.004 56.89C63.2561 56.785 63.551 56.905 63.657 57.16C64.59 59.407 64.9891 61.796 64.8421 64.262C64.3911 71.817 58.646 78.05 51.181 79.085C50.411 79.192 49.646 79.245 48.89 79.245Z" fill="#002E6D"/>
<path d="M48.9009 96.2589C30.7139 96.2589 15.9189 81.4629 15.9189 63.2769C15.9189 45.0909 30.7149 30.2949 48.9009 30.2949C53.8279 30.2949 58.5509 31.3469 62.9429 33.4209C63.1919 33.5389 63.2989 33.8369 63.1809 34.0869C63.0639 34.3369 62.7649 34.4429 62.5149 34.3259C58.2589 32.3149 53.6779 31.2959 48.9009 31.2959C31.2659 31.2959 16.9189 45.6429 16.9189 63.2779C16.9189 80.9129 31.2669 95.2599 48.9009 95.2599C66.535 95.2599 80.8829 80.9119 80.8829 63.2779C80.8829 58.2179 79.7399 53.3919 77.4869 48.9329C77.3619 48.6859 77.4619 48.3859 77.7079 48.2609C77.9519 48.1359 78.2549 48.2339 78.3799 48.4819C80.7039 53.0819 81.8829 58.0599 81.8829 63.2779C81.8839 81.4629 67.0879 96.2589 48.9009 96.2589Z" fill="#002E6D"/>
<path d="M48.901 112.5C21.759 112.5 -0.322998 90.4177 -0.322998 63.2757C-0.322998 36.1337 21.76 14.0527 48.901 14.0527C56.604 14.0527 63.975 15.7777 70.809 19.1787C71.056 19.3017 71.157 19.6017 71.034 19.8487C70.912 20.0967 70.61 20.1957 70.364 20.0737C63.669 16.7417 56.448 15.0527 48.901 15.0527C22.31 15.0527 0.677002 36.6857 0.677002 63.2757C0.677002 89.8667 22.31 111.5 48.901 111.5C75.492 111.5 97.125 89.8667 97.125 63.2757C97.125 55.3047 95.245 47.7127 91.538 40.7107C91.408 40.4667 91.502 40.1647 91.745 40.0347C91.991 39.9057 92.292 39.9977 92.421 40.2427C96.206 47.3897 98.125 55.1397 98.125 63.2757C98.125 90.4177 76.043 112.5 48.901 112.5Z" fill="#002E6D"/>
<path d="M49.396 62.9259C49.268 62.9259 49.14 62.8769 49.042 62.7799C48.847 62.5849 48.847 62.2679 49.042 62.0729L78.523 32.5759C78.718 32.3809 79.035 32.3809 79.23 32.5759C79.425 32.7709 79.425 33.0879 79.23 33.2829L49.75 62.7789C49.652 62.8769 49.524 62.9259 49.396 62.9259Z" fill="#002E6D"/>
</g>
<defs>
<clipPath id="clip0_187_2160">
<rect width="112" height="112" fill="white"/>
</clipPath>
</defs>
</svg>
