<svg width="112" height="112" viewBox="0 0 112 112" fill="none" xmlns="http://www.w3.org/2000/svg">
<g clip-path="url(#clip0_76_182)">
<path d="M97.282 7.275C97.282 7.275 97.284 7.278 97.286 7.279C98.741 9.036 99.902 11.045 100.692 13.231C101.462 15.359 101.882 17.655 101.882 20.048C101.882 31.11 92.914 40.078 81.852 40.078C78.153 40.078 74.69 39.07 71.716 37.322C66.958 39.916 62.411 40.082 62.411 40.082C62.411 40.082 65.319 36.767 66.317 32.688C63.509 29.24 61.823 24.842 61.823 20.049C61.823 8.987 70.791 0.0199966 81.852 0.0199966C84.359 0.0199966 86.756 0.479997 88.968 1.321L88.974 1.323C92.235 2.564 95.088 4.632 97.277 7.271L97.282 7.275Z" fill="#9FE7FF"/>
<path d="M105.595 17.974C104.792 15.754 103.617 13.702 102.103 11.873L102.095 11.863C102.078 11.842 102.061 11.822 102.043 11.801L102.035 11.791C99.7781 9.094 96.8571 7.012 93.5781 5.764C91.2511 4.879 88.7971 4.431 86.2851 4.431C74.9651 4.431 65.7551 13.64 65.7551 24.96C65.7551 29.583 67.3331 34.103 70.2031 37.718C69.1951 41.518 66.4951 44.633 66.4681 44.664L65.7051 45.536L66.8621 45.494C67.0491 45.487 71.4261 45.3 76.1391 42.807C79.2241 44.563 82.7251 45.491 86.2851 45.491C97.6051 45.491 106.814 36.282 106.814 24.961C106.814 22.563 106.404 20.213 105.595 17.974ZM86.2851 44.491C82.8091 44.491 79.3911 43.562 76.4011 41.804L76.1581 41.66L75.9091 41.796C72.7141 43.538 69.5881 44.162 67.9671 44.38C68.9211 43.089 70.5291 40.606 71.2351 37.718L71.2951 37.476L71.1381 37.283C68.3131 33.814 66.7561 29.437 66.7561 24.96C66.7561 14.191 75.5181 5.431 86.2861 5.431C88.6771 5.431 91.0111 5.857 93.2301 6.701C96.3711 7.896 99.1691 9.902 101.294 12.459L101.375 12.579L101.399 12.591C102.807 14.31 103.902 16.235 104.654 18.313C105.424 20.443 105.814 22.679 105.814 24.96C105.814 35.729 97.0541 44.491 86.2851 44.491Z" fill="#002E6D"/>
<path d="M77.245 25.25C77.62 24.597 77.81 23.922 77.81 23.243C77.81 22.34 77.502 21.606 76.897 21.06C76.306 20.527 75.499 20.257 74.498 20.257C73.368 20.257 72.315 20.657 71.366 21.447L72.007 22.216C72.781 21.571 73.596 21.258 74.498 21.258C75.244 21.258 75.826 21.442 76.227 21.804C76.62 22.157 76.81 22.628 76.81 23.244C76.81 23.745 76.664 24.253 76.377 24.753C76.078 25.274 75.495 25.958 74.594 26.844C73.812 27.613 71.481 29.938 71.481 29.938L71.334 30.136V30.844H77.707V29.844H72.993C73.742 29.097 74.814 28.032 75.296 27.558C76.263 26.606 76.9 25.852 77.245 25.25Z" fill="#002E6D"/>
<path d="M85.0591 19.167L78.5581 28.487H84.0591V30.343H85.0591V28.487H85.8171V27.487H85.0591V19.167ZM84.0591 27.487H80.4741L84.0591 22.349V27.487Z" fill="#002E6D"/>
<path d="M96.0991 21.258H101.339L97.5291 30.146L98.4491 30.54L102.854 20.258H96.0991V21.258Z" fill="#002E6D"/>
<path d="M94.9139 14.5885L86.207 34.9422L87.1274 35.3359L95.8342 14.9822L94.9139 14.5885Z" fill="#002E6D"/>
<path d="M46.267 80.094C44.63 78.588 44.237 72.836 44.219 70.502C48.875 67.354 52.452 61.598 54.131 55.823C54.23 55.816 54.323 55.794 54.414 55.769L54.409 55.789C53.925 57.979 55.31 60.156 57.499 60.641C57.795 60.706 58.093 60.739 58.388 60.739C59.154 60.739 59.904 60.522 60.565 60.101C61.258 59.659 61.788 59.032 62.108 58.294L65.123 57.799C66.061 57.664 66.752 57.099 66.926 56.321L68.353 49.888C68.523 49.124 68.128 48.299 67.349 47.787L65.066 46.262C65.151 45.366 65.2 44.458 65.2 43.555C65.2 27.889 52.455 15.143 36.789 15.143C21.123 15.143 8.37699 27.891 8.37699 43.557C8.37699 44.461 8.42599 45.369 8.51099 46.264L6.23199 47.786C5.44999 48.298 5.05399 49.123 5.22399 49.888L6.65099 56.322C6.82099 57.087 7.52899 57.667 8.44399 57.798L11.475 58.296C12.12 59.774 13.59 60.739 15.198 60.739C15.377 60.739 15.559 60.704 15.74 60.68L17.231 62.658C19.029 65.045 21.788 66.395 24.699 66.395C25.258 66.395 25.824 66.345 26.388 66.244L31.949 65.239L31.957 65.292C32.044 65.864 32.349 66.368 32.815 66.71C33.19 66.986 33.634 67.131 34.091 67.131C34.202 67.131 34.315 67.122 34.426 67.105L37.79 66.588C38.971 66.405 39.784 65.297 39.602 64.117L39.376 62.654C39.289 62.083 38.982 61.579 38.515 61.236C38.047 60.894 37.473 60.754 36.906 60.843L33.54 61.36C32.361 61.543 31.548 62.651 31.729 63.832L31.794 64.25L26.208 65.26C23.076 65.823 19.942 64.598 18.028 62.057L16.786 60.409C18.553 59.657 19.597 57.732 19.167 55.791L19.14 55.669C19.228 55.694 19.319 55.711 19.413 55.719C19.928 57.516 20.614 59.289 21.468 60.993L22.362 60.546C21.54 58.905 20.88 57.2 20.383 55.471C20.663 55.278 20.877 54.993 20.972 54.627L23.861 41.232C24.475 40.626 25.5 40.479 26.298 40.893L38.444 47.317L35.538 39.535C35.485 39.292 35.612 39.119 35.692 39.038C35.852 38.876 36.085 38.799 36.323 38.828C37.126 39.277 43.276 42.607 48.99 42.669C49.582 42.676 50.198 43.035 50.237 43.777C50.251 43.851 51.626 51.173 52.61 54.771C52.702 55.107 52.902 55.379 53.164 55.567C50.821 63.584 44.373 71.952 36.788 71.952C34.365 71.952 31.961 71.118 29.644 69.473L29.065 70.289C29.162 70.358 29.261 70.417 29.358 70.483C29.343 72.804 28.952 78.586 27.309 80.097C11.808 83.4 5.18599 91.058 5.18599 105.677V106.389C5.18599 109.483 7.70299 112 10.797 112H62.782C65.876 112 68.392 109.482 68.392 106.389V105.677C68.393 91.057 61.769 83.4 46.267 80.094ZM33.695 62.348L37.062 61.831C37.122 61.821 37.183 61.817 37.243 61.817C37.488 61.817 37.726 61.894 37.928 62.042C38.179 62.227 38.344 62.498 38.391 62.806L38.617 64.269C38.715 64.904 38.276 65.5 37.64 65.599L34.276 66.116C33.966 66.164 33.659 66.088 33.408 65.904C33.158 65.72 32.993 65.449 32.947 65.14L32.721 63.68C32.623 63.043 33.061 62.446 33.695 62.348ZM60.027 59.258C59.337 59.697 58.515 59.843 57.715 59.665C56.065 59.299 55.019 57.657 55.385 56.006L57.764 45.292C57.941 44.493 58.419 43.811 59.11 43.371C59.609 43.054 60.174 42.89 60.752 42.89C60.975 42.89 61.2 42.914 61.423 42.964C62.223 43.141 62.904 43.619 63.345 44.31C63.784 45 63.929 45.821 63.751 46.621L61.374 57.335C61.196 58.135 60.719 58.818 60.027 59.258ZM67.376 49.674L65.949 56.105C65.87 56.46 65.49 56.737 64.97 56.812L62.421 57.231L64.649 47.188L66.796 48.623C67.228 48.905 67.455 49.317 67.376 49.674ZM36.789 16.145C51.904 16.145 64.2 28.442 64.2 43.557C64.2 43.633 64.195 43.709 64.194 43.785C64.192 43.781 64.191 43.777 64.188 43.774C63.604 42.858 62.7 42.224 61.639 41.988C60.578 41.755 59.49 41.945 58.573 42.528C57.911 42.95 57.403 43.543 57.08 44.238C57.617 37.227 56.556 32.246 53.862 28.899C50.774 25.063 45.621 23.274 37.224 23.149V23.142C37.061 23.142 36.9 23.142 36.74 23.144C36.58 23.143 36.418 23.142 36.256 23.142V23.149C27.897 23.274 22.768 25.051 19.699 28.862C17.007 32.205 15.955 37.204 16.509 44.253C16.186 43.551 15.673 42.952 15.006 42.527C14.089 41.944 13.001 41.754 11.94 41.987C10.84 42.231 9.94399 42.904 9.38499 43.789C9.38399 43.711 9.37899 43.634 9.37899 43.556C9.37699 28.442 21.674 16.145 36.789 16.145ZM7.62899 56.105L6.20199 49.672C6.12299 49.317 6.35099 48.905 6.78499 48.62L8.92799 47.189L11.157 57.231L8.59699 56.81C8.08799 56.737 7.70799 56.46 7.62899 56.105ZM15.864 59.665C14.216 60.035 12.571 58.986 12.205 57.335L9.82699 46.621C9.46099 44.971 10.505 43.33 12.156 42.964C12.379 42.914 12.604 42.89 12.827 42.89C13.404 42.89 13.97 43.054 14.468 43.371C15.159 43.811 15.637 44.494 15.815 45.293L18.193 56.006C18.559 57.657 17.514 59.299 15.864 59.665ZM51.229 43.658C51.176 42.535 50.219 41.679 49.002 41.665C43.269 41.603 36.806 37.948 36.741 37.912L36.593 37.856C36.47 37.831 36.346 37.818 36.225 37.818C35.757 37.818 35.31 37.999 34.981 38.332C34.603 38.716 34.45 39.231 34.582 39.813L36.591 45.201L26.764 40.004C25.511 39.352 23.939 39.625 23.028 40.655L22.941 40.753L20 54.392C19.915 54.719 19.622 54.735 19.542 54.736C19.457 54.734 19.172 54.703 19.101 54.378C16.386 41.933 16.823 34.024 20.476 29.488C23.398 25.859 28.426 24.203 36.739 24.142C45.089 24.204 50.141 25.871 53.082 29.525C56.754 34.087 57.195 42.015 54.471 54.475C54.399 54.802 54.115 54.834 54.029 54.837C53.955 54.832 53.662 54.821 53.574 54.503C52.602 50.945 51.235 43.663 51.229 43.658ZM36.789 72.948C39.073 72.948 41.235 72.261 43.229 71.11C43.282 73.157 43.583 78.339 45.253 80.467L36.789 86.348L28.326 80.467C29.997 78.336 30.297 73.145 30.349 71.103C32.444 72.322 34.604 72.948 36.789 72.948ZM67.393 106.389C67.393 108.932 65.325 111 62.783 111H53.914V99.229H52.914V111H20.665V99.229H19.665V111H10.797C8.25499 111 6.18599 108.932 6.18599 106.389V105.677C6.18599 91.455 12.353 84.317 27.457 81.082L36.79 87.565L46.123 81.082C61.029 84.277 67.394 91.644 67.394 105.677L67.393 106.389Z" fill="#002E6D"/>
</g>
<defs>
<clipPath id="clip0_76_182">
<rect width="112" height="112" fill="white"/>
</clipPath>
</defs>
</svg>
