<svg width="98" height="40" viewBox="0 0 98 40" fill="none" xmlns="http://www.w3.org/2000/svg">
<g clip-path="url(#clip0_335_7258)">
<path d="M80.733 0H54.883C53.843 0 52.846 0.413 52.111 1.148L51.719 1.54C50.188 3.071 47.706 3.071 46.175 1.54L45.783 1.148C45.049 0.413 44.052 0 43.012 0H17.109C7.66 0 0 7.66 0 17.108V22.891C0 32.34 7.66 40 17.109 40H43.404C44.444 40 45.441 39.586 46.176 38.851C47.707 37.32 50.189 37.32 51.72 38.851C52.454 39.586 53.451 40 54.491 40H80.733C90.182 40 97.841 32.34 97.841 22.891V17.108C97.841 7.66 90.181 0 80.733 0Z" fill="white"/>
<path d="M78.9186 31.131H72.0316C69.9066 31.131 68.1846 29.408 68.1846 27.284V12.179C68.1846 10.055 69.9066 8.33203 72.0316 8.33203H78.9186C84.4916 8.33203 89.0096 12.85 89.0096 18.423V21.039C89.0096 26.613 84.4916 31.131 78.9186 31.131ZM72.9706 27.319H78.9176C82.3856 27.319 85.1966 24.508 85.1966 21.04V18.424C85.1966 14.956 82.3856 12.145 78.9176 12.145H72.9706C72.5076 12.145 72.1316 12.521 72.1316 12.984V26.48C72.1316 26.943 72.5076 27.319 72.9706 27.319Z" fill="#0080C9"/>
<path d="M58.2236 8.28516C56.1146 8.28516 54.2676 9.71016 53.7336 11.7502L49.8066 26.7462C49.6656 27.2852 49.2426 27.3652 49.0046 27.3652C48.7656 27.3652 48.3426 27.2842 48.2016 26.7462L44.2746 11.7502C43.7396 9.71016 41.8936 8.28516 39.7846 8.28516C37.2256 8.28516 35.1436 10.3672 35.1436 12.9262V18.3292V31.0012H38.9556V18.3302V12.9272C38.9556 12.4702 39.3276 12.0982 39.7846 12.0982C40.1616 12.0982 40.4916 12.3522 40.5866 12.7172L44.5136 27.7122C45.0556 29.7852 46.8606 31.1782 49.0036 31.1782C51.1456 31.1782 52.9506 29.7852 53.4926 27.7122L57.4206 12.7172C57.5156 12.3522 57.8456 12.0982 58.2226 12.0982C58.6796 12.0982 59.0516 12.4702 59.0516 12.9272V31.0022H62.8636V12.9272C62.8656 10.3672 60.7836 8.28516 58.2236 8.28516Z" fill="#0080C9"/>
<path d="M26.9686 24.283C26.0596 26.171 23.8636 27.342 21.5766 27.342H19.6376C16.2276 27.342 13.4546 24.569 13.4546 21.159V18.332C13.4546 14.923 16.2276 12.149 19.6376 12.149H21.5766C23.8636 12.149 26.1416 13.228 26.9646 15.21L30.5536 13.808C29.1306 10.301 25.4796 8.33301 21.5766 8.33301H19.5556C14.0426 8.33301 9.55664 12.818 9.55664 18.332V21.159C9.55664 26.672 14.0416 31.158 19.5556 31.158H21.5766C25.4806 31.158 29.4486 28.938 30.5516 25.683L26.9686 24.283Z" fill="#4DD6B5"/>
</g>
<defs>
<clipPath id="clip0_335_7258">
<rect width="98" height="40" fill="white"/>
</clipPath>
</defs>
</svg>
