<svg width="73" height="72" viewBox="0 0 73 72" fill="none" xmlns="http://www.w3.org/2000/svg">
<path d="M51.327 50.7985V58.213H16.5464V52.3488L35.2847 34.5541C37.3967 32.532 38.8122 30.7794 39.5312 29.2966C40.2951 27.7687 40.6771 26.2634 40.6771 24.7805C40.6771 22.5786 39.9356 20.8935 38.4527 19.7251C36.9698 18.5568 34.7904 17.9726 31.9145 17.9726C27.1064 17.9726 23.4216 19.6128 20.8602 22.8931L14.7264 18.1749C16.5688 15.7034 19.0403 13.7936 22.1409 12.4455C25.2864 11.0525 28.7915 10.356 32.656 10.356C37.7787 10.356 41.8679 11.5692 44.9235 13.9958C47.9792 16.4223 49.507 19.7251 49.507 23.9042C49.507 26.4656 48.9678 28.8697 47.8893 31.1165C46.8109 33.3633 44.7438 35.9246 41.6881 38.8006L29.0835 50.7985H51.327Z" fill="#9FE7FF"/>
<path fill-rule="evenodd" clip-rule="evenodd" d="M56.6887 54.6281V63.5745H20.3762V56.6154L39.3508 38.5964C39.3512 38.596 39.3516 38.5956 39.352 38.5953C41.4403 36.5956 42.7782 34.9184 43.4378 33.5579L43.4419 33.5495C44.1607 32.1119 44.5069 30.7231 44.5069 29.376C44.5069 27.3649 43.8411 25.9203 42.5745 24.9223C41.2813 23.9034 39.2998 23.3341 36.5103 23.3341C31.8966 23.3341 28.4523 24.896 26.0597 27.9601L25.5917 28.5595L18.2572 22.9175L18.7081 22.3126C20.6374 19.7245 23.2191 17.7356 26.4289 16.3396C29.6829 14.899 33.2946 14.1855 37.2518 14.1855C42.493 14.1855 46.7673 15.4278 49.9957 17.9915C53.2488 20.5748 54.8688 24.1061 54.8688 28.4998C54.8688 31.1726 54.3052 33.6903 53.1756 36.0435C52.038 38.4135 49.8936 41.0504 46.8106 43.9522C46.81 43.9528 46.8095 43.9533 46.8089 43.9539L35.595 54.6281H56.6887ZM33.6793 55.3941H55.9227V62.8085H21.1421V56.9444L39.8805 39.1496C41.9925 37.1275 43.408 35.375 44.127 33.8921C44.8909 32.3643 45.2729 30.8589 45.2729 29.376C45.2729 27.1741 44.5314 25.489 43.0485 24.3207C41.5656 23.1524 39.3862 22.5682 36.5103 22.5682C31.7021 22.5682 28.0174 24.2084 25.456 27.4887L19.3222 22.7704C19.4242 22.6335 19.5282 22.4984 19.6341 22.365C19.6868 22.2985 19.7401 22.2324 19.7938 22.1668C21.5791 19.9859 23.8934 18.2773 26.7367 17.041C29.8822 15.648 33.3872 14.9515 37.2518 14.9515C42.3745 14.9515 46.4637 16.1648 49.5193 18.5913C52.575 21.0179 54.1028 24.3207 54.1028 28.4998C54.1028 31.0611 53.5636 33.4652 52.4851 35.712C51.4067 37.9588 49.3396 40.5202 46.2839 43.3961L33.6793 55.3941Z" fill="#002E6D"/>
</svg>
