<svg width="73" height="72" viewBox="0 0 73 72" fill="none" xmlns="http://www.w3.org/2000/svg">
<path d="M37.6396 30.5096C41.9984 31.0489 45.3237 32.5317 47.6155 34.9583C49.9072 37.3849 51.0531 40.418 51.0531 44.0579C51.0531 46.799 50.3566 49.2929 48.9636 51.5397C47.5705 53.7866 45.4585 55.584 42.6276 56.9321C39.8415 58.2352 36.4264 58.8868 32.3821 58.8868C29.0119 58.8868 25.754 58.415 22.6085 57.4713C19.5079 56.4827 16.8567 55.1346 14.6548 53.4271L18.4294 46.6192C20.137 48.0572 22.2041 49.2031 24.6306 50.0569C27.1021 50.8657 29.641 51.2701 32.2473 51.2701C35.3479 51.2701 37.7744 50.641 39.527 49.3828C41.3244 48.0797 42.2231 46.3272 42.2231 44.1253C42.2231 41.9234 41.3693 40.2158 39.6618 39.0026C37.9991 37.7443 35.4378 37.1152 31.9777 37.1152H27.6638V31.1163L38.3811 18.3769H16.9465V11.0298H49.0984V16.894L37.6396 30.5096Z" fill="#9FE7FF"/>
<path fill-rule="evenodd" clip-rule="evenodd" d="M23.6312 51.7013C25.215 52.9135 27.08 53.8972 29.2263 54.6524C31.6978 55.4613 34.2367 55.8657 36.843 55.8657C39.9436 55.8657 42.3702 55.2366 44.1227 53.9784C45.9201 52.6752 46.8188 50.9227 46.8188 48.7208C46.8188 46.519 45.9651 44.8114 44.2575 43.5981C42.5948 42.3399 40.0335 41.7108 36.5734 41.7108H32.2595V35.7118L42.9768 22.9724H21.5422V15.6253H53.6941V21.4895L42.2354 35.1052C42.5386 35.1427 42.8369 35.1848 43.1302 35.2314C47.0519 35.8553 50.0789 37.2961 52.2112 39.5538C54.5029 41.9804 55.6488 45.0136 55.6488 48.6534C55.6488 51.3945 54.9523 53.8885 53.5593 56.1353C52.1662 58.3821 50.0542 60.1796 47.2233 61.5276C44.4372 62.8308 41.0221 63.4824 36.9778 63.4824C33.6076 63.4824 30.3497 63.0105 27.2042 62.0669C24.1036 61.0783 21.4524 59.7302 19.2505 58.0226L23.0251 51.2148C23.2224 51.3809 23.4244 51.543 23.6312 51.7013ZM43.7027 34.5512C47.5313 35.232 50.5759 36.7068 52.768 39.0279C55.2068 41.6101 56.4148 44.8373 56.4148 48.6534C56.4148 51.5316 55.6813 54.1663 54.2103 56.5389C52.7264 58.9322 50.4911 60.8199 47.5526 62.2192L47.5478 62.2215C44.6335 63.5846 41.1005 64.2483 36.9778 64.2483C33.535 64.2483 30.2029 63.7662 26.9841 62.8005L26.9778 62.7986L26.9715 62.7966C23.7994 61.7852 21.0648 60.3989 18.7811 58.6279L18.2622 58.2255L22.8066 50.0294L23.5185 50.6289C25.1436 51.9973 27.1238 53.0997 29.4726 53.9271C31.8645 54.7089 34.3203 55.0997 36.843 55.0997C39.8497 55.0997 42.0979 54.4885 43.6744 53.3573C45.2742 52.1969 46.0529 50.6743 46.0529 48.7208C46.0529 46.752 45.3073 45.2836 43.8138 44.2225L43.8045 44.2158L43.7953 44.2089C42.3281 43.0986 39.9671 42.4767 36.5734 42.4767H31.4936V35.4325L41.3315 23.7384H20.7763V14.8594H54.46V21.7689L43.7027 34.5512Z" fill="#002E6D"/>
</svg>
