<svg width="73" height="72" viewBox="0 0 73 72" fill="none" xmlns="http://www.w3.org/2000/svg">
<path d="M32.1147 29.2963C38.7653 29.2963 43.6858 30.5995 46.8763 33.2058C50.0667 35.7671 51.662 39.2722 51.662 43.7209C51.662 46.5518 50.9655 49.1132 49.5724 51.4049C48.1794 53.6967 46.0899 55.5166 43.3038 56.8647C40.5178 58.2128 37.0802 58.8868 32.991 58.8868C29.6208 58.8868 26.3629 58.415 23.2174 57.4713C20.0718 56.4827 17.4206 55.1346 15.2637 53.4271L18.9709 46.6192C20.7234 48.0572 22.8129 49.2031 25.2395 50.0569C27.711 50.8657 30.2499 51.2701 32.8562 51.2701C35.9568 51.2701 38.3833 50.641 40.1358 49.3828C41.9333 48.0797 42.832 46.3047 42.832 44.0579C42.832 41.6313 41.8659 39.8114 39.9336 38.5981C38.0463 37.3399 34.7884 36.7108 30.16 36.7108H18.7687L21.1952 11.0298H48.8984V18.3769H28.6097L27.5986 29.2963H32.1147Z" fill="#9FE7FF"/>
<path fill-rule="evenodd" clip-rule="evenodd" d="M25.7909 15.6253H53.4941V22.9724H33.2054L32.1943 33.8919H36.7104C43.361 33.8919 48.2815 35.195 51.4719 37.8013C54.6624 40.3627 56.2576 43.8677 56.2576 48.3164C56.2576 51.1474 55.5611 53.7087 54.1681 56.0005C52.7751 58.2922 50.6856 60.1121 47.8995 61.4602C45.1135 62.8083 41.6759 63.4824 37.5867 63.4824C34.2164 63.4824 30.9586 63.0105 27.813 62.0669C24.6675 61.0783 22.0163 59.7302 19.8593 58.0226L23.5666 51.2148C23.7659 51.3784 23.9696 51.5381 24.1777 51.6941C25.7988 52.9096 27.6846 53.8957 29.8352 54.6524C32.3067 55.4613 34.8456 55.8657 37.4519 55.8657C40.5524 55.8657 42.979 55.2366 44.7315 53.9784C46.529 52.6752 47.4277 50.9002 47.4277 48.6534C47.4277 46.2269 46.4616 44.407 44.5293 43.1937C42.642 41.9355 39.3841 41.3064 34.7557 41.3064H23.3644L25.7909 15.6253ZM44.2832 53.3573C45.8782 52.2004 46.6617 50.6577 46.6617 48.6534C46.6617 46.4702 45.8145 44.9051 44.122 43.8424L44.1131 43.8368L44.1044 43.831C42.4188 42.7073 39.3616 42.0723 34.7557 42.0723H22.5226L25.0939 14.8594H54.26V23.7384H33.9037L33.0345 33.1259H36.7104C43.4348 33.1259 48.5648 34.4389 51.954 37.2061C55.3412 39.9266 57.0236 43.6598 57.0236 48.3164C57.0236 51.2796 56.2927 53.9799 54.8226 56.3983C53.3417 58.8347 51.1311 60.7475 48.2331 62.1497C45.3152 63.5616 41.7559 64.2483 37.5867 64.2483C34.1439 64.2483 30.8117 63.7662 27.5929 62.8005L27.5834 62.7976C24.3659 61.7864 21.6271 60.399 19.3839 58.6232L18.8782 58.2228L23.3367 50.0354L24.0524 50.6226C25.7254 51.9953 27.7313 53.0993 30.0815 53.9271C32.4733 54.7089 34.9291 55.0997 37.4519 55.0997C40.4585 55.0997 42.7067 54.4885 44.2832 53.3573Z" fill="#002E6D"/>
</svg>
