<svg width="72" height="72" viewBox="0 0 72 72" fill="none" xmlns="http://www.w3.org/2000/svg">
<path d="M36.6557 29.0943C39.7563 29.0943 42.5424 29.701 45.0139 30.9143C47.4854 32.0826 49.4176 33.7677 50.8106 35.9696C52.2037 38.1714 52.9002 40.7103 52.9002 43.5863C52.9002 46.6419 52.1363 49.3381 50.6084 51.6748C49.0806 53.9665 47.0135 55.7415 44.4072 56.9997C41.8009 58.2579 38.8801 58.887 35.6447 58.887C29.1739 58.887 24.141 56.8649 20.5461 52.8206C16.9962 48.7764 15.2212 42.9796 15.2212 35.4303C15.2212 30.1279 16.1873 25.6118 18.1196 21.8821C20.0518 18.1074 22.748 15.254 26.2081 13.3217C29.7131 11.3446 33.7574 10.356 38.3409 10.356C40.7674 10.356 43.0367 10.6256 45.1487 11.1648C47.3056 11.6591 49.1705 12.4006 50.7432 13.3891L47.5078 19.9948C45.1711 18.4669 42.1829 17.703 38.5431 17.703C34.0045 17.703 30.4546 19.096 27.8932 21.8821C25.3318 24.6681 24.0511 28.6899 24.0511 33.9474V34.0149C25.4442 32.3971 27.2191 31.1839 29.3761 30.375C31.533 29.5212 33.9596 29.0943 36.6557 29.0943ZM35.1728 52.0118C37.914 52.0118 40.1383 51.2928 41.8459 49.8549C43.5534 48.372 44.4072 46.4172 44.4072 43.9907C44.4072 41.5192 43.5534 39.5645 41.8459 38.1265C40.1383 36.6886 37.8466 35.9696 34.9706 35.9696C32.1397 35.9696 29.8254 36.7335 28.028 38.2613C26.2755 39.7891 25.3992 41.7214 25.3992 44.0581C25.3992 46.3498 26.253 48.2596 27.9606 49.7874C29.7131 51.2703 32.1172 52.0118 35.1728 52.0118Z" fill="#9FE7FF"/>
<path fill-rule="evenodd" clip-rule="evenodd" d="M51.4463 24.1905C49.215 22.9292 46.4457 22.2986 43.1386 22.2986C38.6001 22.2986 35.0501 23.6916 32.4887 26.4776C30.1061 29.0693 28.8316 32.7303 28.6654 37.4607C28.6529 37.8155 28.6467 38.1762 28.6467 38.543V38.6104C28.6661 38.5879 28.6856 38.5654 28.7052 38.543C28.9339 38.2812 29.1728 38.0302 29.4218 37.7899C30.6797 36.5761 32.1963 35.6363 33.9716 34.9706C36.1286 34.1168 38.5551 33.6899 41.2513 33.6899C44.3519 33.6899 47.1379 34.2965 49.6094 35.5098C52.0809 36.6781 54.0132 38.3633 55.4062 40.5651C56.7992 42.767 57.4957 45.3059 57.4957 48.1818C57.4957 51.2375 56.7318 53.9336 55.204 56.2703C53.6761 58.5621 51.6091 60.337 49.0028 61.5953C46.3965 62.8535 43.4756 63.4826 40.2402 63.4826C33.7694 63.4826 28.7366 61.4604 25.1417 57.4162C21.5917 53.3719 19.8167 47.5752 19.8167 40.0259C19.8167 34.7234 20.7829 30.2073 22.7151 26.4776C24.6474 22.703 27.3435 19.8495 30.8036 17.9173C34.3087 15.9401 38.3529 14.9515 42.9364 14.9515C45.363 14.9515 47.6322 15.2211 49.7442 15.7604C51.9012 16.2547 53.766 16.9961 55.3388 17.9847L52.1034 24.5903C51.8898 24.4507 51.6708 24.3174 51.4463 24.1905ZM49.9245 15.0159C47.7467 14.4607 45.4163 14.1855 42.9364 14.1855C38.2403 14.1855 34.0634 15.1994 30.4287 17.2494C26.8283 19.2603 24.03 22.2289 22.0341 26.127C20.0332 29.9901 19.0508 34.633 19.0508 40.0259C19.0508 47.6866 20.8518 53.6901 24.566 57.9215L24.5692 57.9251C28.3379 62.1648 33.5974 64.2485 40.2402 64.2485C43.5772 64.2485 46.614 63.599 49.3358 62.285C52.0589 60.9705 54.2336 59.1067 55.8413 56.6952L55.8451 56.6895C57.462 54.2165 58.2617 51.3717 58.2617 48.1818C58.2617 45.1765 57.5319 42.4925 56.0535 40.1556C54.5799 37.8263 52.5355 36.0469 49.9419 34.8197C47.3541 33.5504 44.4519 32.9239 41.2513 32.9239C38.4767 32.9239 35.9546 33.363 33.6962 34.2558C32.0938 34.8575 30.6823 35.676 29.4688 36.7129C29.7365 32.4871 30.9571 29.2754 33.0526 26.996C35.4403 24.3989 38.768 23.0645 43.1386 23.0645C46.6741 23.0645 49.5048 23.8064 51.6842 25.2314L52.4099 25.7059L56.3297 17.7029L55.7464 17.3362C54.0907 16.2955 52.1458 15.5258 49.9245 15.0159ZM45.9436 53.8682C44.4041 55.1627 42.3691 55.8414 39.7684 55.8414C36.8384 55.8414 34.6326 55.1327 33.059 53.8051C31.5192 52.4239 30.7607 50.724 30.7607 48.6536C30.7607 46.5386 31.541 44.8184 33.1233 43.4374C34.7553 42.0518 36.881 41.3311 39.5662 41.3311C42.3146 41.3311 44.4144 42.0164 45.948 43.308C47.4629 44.5837 48.2368 46.3134 48.2368 48.5862C48.2368 50.8071 47.4674 52.5429 45.9436 53.8682ZM32.6235 42.8569C34.421 41.329 36.7352 40.5651 39.5662 40.5651C42.4421 40.5651 44.7338 41.2841 46.4414 42.7221C48.149 44.16 49.0028 46.1147 49.0028 48.5862C49.0028 51.0128 48.149 52.9675 46.4414 54.4504C44.7338 55.8884 42.5095 56.6073 39.7684 56.6073C36.7127 56.6073 34.3087 55.8659 32.5561 54.383C30.8486 52.8552 29.9948 50.9454 29.9948 48.6536C29.9948 46.317 30.871 44.3847 32.6235 42.8569Z" fill="#002E6D"/>
</svg>
