<svg xmlns="http://www.w3.org/2000/svg" width="40px" height="40px" viewBox="0 0 40 40">
<path fill="#8097B6" d="M24,0h-8C7.2,0,0,7.2,0,16v8c0,8.8,7.2,16,16,16h8c8.8,0,16-7.2,16-16v-8C40,7.2,32.8,0,24,0z M20.5,29.8
c-1.8,0-3.5-0.4-5-1.3L10,30l1.5-5.4c-0.9-1.6-1.4-3.4-1.4-5.2C10.1,13.7,14.8,9,20.5,9c2.8,0,5.4,1.1,7.4,3c2,2,3,4.6,3,7.4
C31,25.2,26.3,29.8,20.5,29.8z"/>
<path fill="#8097B6" d="M20.5,10.8c-4.8,0-8.6,3.9-8.6,8.6c0,1.6,0.5,3.2,1.3,4.6l0.2,0.3l-0.9,3.2l3.3-0.9l0.3,0.2
c1.3,0.8,2.9,1.2,4.4,1.2l0,0c4.8,0,8.6-3.9,8.6-8.6c0-2.3-0.9-4.5-2.5-6.1S22.9,10.8,20.5,10.8z M25.6,23.1
c-0.2,0.6-1.3,1.2-1.8,1.2c-0.5,0.1-1,0.1-1.6-0.1c-0.4-0.1-0.9-0.3-1.5-0.5c-2.6-1.1-4.3-3.8-4.4-3.9c-0.1-0.2-1.1-1.4-1.1-2.7
s0.7-1.9,0.9-2.2s0.5-0.3,0.7-0.3s0.4,0,0.5,0c0.2,0,0.4-0.1,0.6,0.4c0.2,0.5,0.7,1.8,0.8,1.9c0.1,0.1,0.1,0.3,0,0.5
c-0.1,0.2-0.1,0.3-0.3,0.4c-0.1,0.1-0.3,0.3-0.4,0.5c-0.1,0.1-0.3,0.3-0.1,0.5s0.7,1.1,1.5,1.8c1,0.9,1.8,1.2,2.1,1.3
s0.4,0.1,0.6-0.1c0.1-0.2,0.6-0.8,0.8-1s0.4-0.2,0.6-0.1s1.5,0.7,1.8,0.9c0.3,0.1,0.4,0.2,0.5,0.3C25.9,22,25.9,22.5,25.6,23.1z"/>
</svg>
