<svg xmlns="http://www.w3.org/2000/svg" width="40px" height="40px" viewBox="0 0 40 40">
<path fill="#8097B6" d="M24,0h-8C7.2,0,0,7.2,0,16v8c0,8.8,7.2,16,16,16h8c8.8,0,16-7.2,16-16v-8C40,7.2,32.8,0,24,0z M29.7,24.7
c-0.1,0.1-0.1,0.2-0.1,0.3v0.1c-0.3,0.8-0.9,1.3-1.8,1.3h0.2c0,0-3.4,0.5-7.9,0.5c-4.6,0-7.9-0.5-7.9-0.5h0.2
c-0.9,0-1.6-0.5-1.8-1.3V25c-0.1-0.1-0.1-0.2-0.1-0.3C10.3,23.9,10,22.1,10,20c0-2.1,0.3-3.9,0.3-4.7c0.1-0.1,0.1-0.2,0.1-0.3v-0.1
c0.3-0.8,0.9-1.3,1.8-1.3h-0.2c0,0,3.4-0.5,7.9-0.5c4.6,0,7.9,0.5,7.9,0.5h-0.2c0.9,0,1.6,0.5,1.8,1.3V15c0.1,0.1,0.1,0.2,0.1,0.3
c0.2,0.9,0.3,2.7,0.3,4.7C30,22.1,29.7,23.9,29.7,24.7z"/>
<path fill="#8097B6" d="M22.9,19.6l-4.1-2.9c-0.2-0.1-0.3-0.1-0.5,0c-0.2,0.1-0.3,0.3-0.3,0.4v5.9c0,0.2,0.1,0.3,0.3,0.4
c0.1,0.1,0.2,0.1,0.3,0.1c0.1,0,0.2,0,0.3-0.1l4.1-2.9c0.2-0.1,0.3-0.3,0.2-0.4C23.1,19.8,23,19.7,22.9,19.6z"/>
</svg>
