<svg xmlns="http://www.w3.org/2000/svg" width="40px" height="40px" viewBox="0 0 40 40">
<path fill="#8097B6" d="M24,0h-8C7.2,0,0,7.2,0,16v8c0,8.8,7.2,16,16,16h8c8.8,0,16-7.2,16-16v-8C40,7.2,32.8,0,24,0z M27,28
c-0.3,1.5-0.8,2-1.4,2.1c-1.2,0.1-2-0.8-3.2-1.5c-1.8-1.2-2.8-1.9-4.5-3c-2-1.3-0.7-2,0.4-3.2c0.3-0.3,5.4-5,5.5-5.4
c0-0.1,0-0.2-0.1-0.4c-0.1-0.2-0.3-0.1-0.4,0c-0.2,0-3,1.9-8.4,5.6c-0.8,0.5-1.5,0.8-2.2,0.8s-2.1-0.4-3.1-0.7
c-1.3-0.4-2.2-0.6-2.2-1.3c0-0.4,0.5-0.7,1.5-1.1c5.8-2.5,9.7-4.2,11.7-5c5.6-2.3,6.7-2.7,7.5-2.7c0.2,0,0.5,0,0.8,0.2
c0.2,0.2,0.3,0.4,0.3,0.5c0.1,0.1,0.1,0.4,0.1,0.7C29,16.8,27.7,24.4,27,28z"/>
</svg>
