<svg xmlns="http://www.w3.org/2000/svg" width="40px" height="40px" viewBox="0 0 40 40">
<path fill="#8097B6" d="M24,0h-8C7.2,0,0,7.2,0,16v8c0,8.8,7.2,16,16,16h8c8.8,0,16-7.2,16-16v-8C40,7.2,32.8,0,24,0z M20,10
c2.6,0,4.7,2.1,4.7,4.7c0,2.6-2.1,4.7-4.7,4.7s-4.7-2.1-4.7-4.7C15.3,12.1,17.4,10,20,10z M25.3,22.5C24.5,22.9,22,24,22,24l2.8,3.6
c0,0,0.5,0.7,0.5,1.1c0,0.7-0.6,1.3-1.3,1.3c-0.7,0-1-0.5-1-0.5L20,26l-3.1,3.5c0,0-0.3,0.5-1,0.5c-0.7,0-1.3-0.6-1.3-1.3
c0-0.5,0.5-1.1,0.5-1.1L18,24c0,0-2.5-1.1-3.3-1.5C14.4,22.3,14,22,14,21.3c0-0.7,0.6-1.3,1.3-1.3c0.7,0,2,1.3,4.7,1.3
s4-1.3,4.7-1.3c0.7,0,1.3,0.6,1.3,1.3C26,22,25.6,22.3,25.3,22.5z"/>
<path fill="#8097B6" d="M20,12.3c-1.3,0-2.3,1.1-2.3,2.3S18.7,17,20,17s2.3-1.1,2.3-2.3S21.3,12.3,20,12.3z"/>
</svg>
