<svg width="58" height="58" viewBox="0 0 58 58" fill="none" xmlns="http://www.w3.org/2000/svg">
<circle cx="29" cy="29" r="28.5" fill="white" stroke="#F05555"/>
<path d="M22.4817 25.59V21.66C23.1817 21.22 24.1017 20.86 25.2417 20.58C26.3817 20.3 27.6217 20.16 28.9617 20.16C31.1017 20.16 32.8117 20.58 34.0917 21.42C35.3917 22.26 36.0417 23.68 36.0417 25.68C36.0417 27.26 35.6717 28.53 34.9317 29.49C34.2117 30.43 32.9317 31.25 31.0917 31.95C29.3117 32.63 28.0817 33.21 27.4017 33.69C26.7417 34.15 26.4117 34.61 26.4117 35.07H36.1917V38.88H21.9717V35.52C21.9717 34.5 22.1417 33.63 22.4817 32.91C22.8417 32.19 23.4517 31.53 24.3117 30.93C25.1717 30.33 26.3617 29.71 27.8817 29.07C29.0217 28.59 29.9117 28.13 30.5517 27.69C31.2117 27.23 31.5317 26.68 31.5117 26.04C31.4917 25.28 31.2017 24.75 30.6417 24.45C30.1017 24.13 29.3317 23.97 28.3317 23.97C27.3717 23.97 26.3917 24.14 25.3917 24.48C24.3917 24.8 23.5117 25.17 22.7517 25.59H22.4817Z" fill="#F05555"/>
</svg>
