<svg width="58" height="58" viewBox="0 0 58 58" fill="none" xmlns="http://www.w3.org/2000/svg">
<circle cx="29" cy="29" r="28.5" fill="white" stroke="#F05555"/>
<path d="M23.1313 20.85C24.0113 20.57 24.9213 20.38 25.8613 20.28C26.8213 20.16 27.8513 20.1 28.9512 20.1C30.6713 20.1 32.0313 20.27 33.0313 20.61C34.0313 20.93 34.7413 21.43 35.1613 22.11C35.6013 22.79 35.8213 23.65 35.8213 24.69C35.8213 25.91 35.5313 26.94 34.9513 27.78C34.3713 28.6 33.3713 29.1 31.9513 29.28V29.43C33.4313 29.51 34.4813 29.92 35.1013 30.66C35.7413 31.4 36.0613 32.31 36.0613 33.39C36.0613 35.19 35.4613 36.55 34.2613 37.47C33.0813 38.37 31.1813 38.85 28.5613 38.91C27.2213 38.93 26.0413 38.86 25.0213 38.7C24.0013 38.54 23.0713 38.32 22.2313 38.04V34.29H22.4113C23.2113 34.55 24.0213 34.74 24.8413 34.86C25.6613 34.98 26.5913 35.04 27.6313 35.04C29.0313 35.04 30.0413 34.89 30.6613 34.59C31.2813 34.29 31.5913 33.77 31.5913 33.03C31.5913 32.35 31.3513 31.89 30.8713 31.65C30.4113 31.39 29.5513 31.26 28.2913 31.26H25.8913V27.39H27.9013C29.3413 27.39 30.3113 27.27 30.8113 27.03C31.3313 26.77 31.5913 26.31 31.5913 25.65C31.5913 24.97 31.3013 24.52 30.7213 24.3C30.1613 24.08 29.1713 23.97 27.7513 23.97C26.9713 23.97 26.1813 24.03 25.3813 24.15C24.6013 24.27 23.8913 24.43 23.2513 24.63L23.1313 24.6V20.85Z" fill="#F05555"/>
</svg>
