<svg width="42" height="42" viewBox="0 0 42 42" fill="none" xmlns="http://www.w3.org/2000/svg">
<g clip-path="url(#clip0_380_270)">
<path fill-rule="evenodd" clip-rule="evenodd" d="M10.8387 13.1994V0H42V42H10.8387V39.7091L10.1613 40.0478L4.29602 37.1152L4.20017 36.9871C1.49176 33.3758 0 28.9008 0 24.3871V16.2581H0.677419C3.63715 16.2581 6.47545 15.3485 8.88452 13.6284L10.1613 12.7152L10.8387 13.1994ZM24.3871 6.09677C24.3871 7.21706 25.2991 8.12903 26.4194 8.12903C27.5396 8.12903 28.4516 7.21706 28.4516 6.09677C28.4516 4.97649 27.5396 4.06452 26.4194 4.06452C25.2991 4.06452 24.3871 4.97649 24.3871 6.09677ZM28.4516 12.8878V8.78892C27.884 9.21891 27.1848 9.48387 26.4194 9.48387C25.6539 9.48387 24.9547 9.21892 24.3871 8.7896V12.8885C24.9547 12.4585 25.6539 12.1935 26.4194 12.1935C27.1848 12.1935 27.884 12.4585 28.4516 12.8878ZM28.4516 15.5806C28.4516 14.4604 27.5396 13.5484 26.4194 13.5484C25.2991 13.5484 24.3871 14.4604 24.3871 15.5806C24.3871 16.7009 25.2991 17.6129 26.4194 17.6129C27.5396 17.6129 28.4516 16.7009 28.4516 15.5806ZM26.4194 2.70968C28.0547 2.70968 29.4231 3.87569 29.7379 5.41935H35.9032C38.2871 5.41935 40.2605 3.64875 40.591 1.35484H12.2477C12.5782 3.64875 14.5516 5.41935 16.9355 5.41935H23.1008C23.4156 3.87569 24.784 2.70968 26.4194 2.70968ZM1.35484 24.3871C1.35484 28.5564 2.71501 32.6908 5.18912 36.0468L10.1613 38.5329L15.1335 36.0468C17.6077 32.6908 18.9677 28.5564 18.9677 24.3871V17.598C15.9697 17.4694 13.1068 16.4842 10.6511 14.7306L10.1613 14.3809L9.67211 14.7312C7.21579 16.4843 4.35293 17.47 1.35484 17.5987V24.3871ZM12.1935 40.6452H40.6452V4.50077C39.5268 5.88542 37.8178 6.77419 35.9032 6.77419H29.8065V15.5806C29.8065 17.4482 28.2869 18.9677 26.4194 18.9677C24.5518 18.9677 23.0323 17.4482 23.0323 15.5806V6.77419H16.9355C15.0209 6.77419 13.3119 5.88542 12.1935 4.50077V14.125C14.4325 15.5191 16.9884 16.2581 19.6452 16.2581H20.3226V24.3871C20.3226 28.9008 18.8308 33.3758 16.1224 36.9872L16.0266 37.1152L12.1935 39.0316V40.6452ZM15.5807 26.4197C15.5807 25.5379 15.0125 24.7927 14.2258 24.5122V21.6778C14.2258 19.4361 12.403 17.6133 10.1613 17.6133C7.91963 17.6133 6.09678 19.4361 6.09678 21.6778V24.5122C5.31013 24.7927 4.74194 25.5379 4.74194 26.4197V33.1939C4.74194 34.3142 5.65392 35.2262 6.7742 35.2262H13.5484C14.6687 35.2262 15.5807 34.3142 15.5807 33.1939V26.4197ZM10.1613 18.9681C11.6557 18.9681 12.871 20.1834 12.871 21.6778V24.3875H7.45162V21.6778C7.45162 20.1834 8.66691 18.9681 10.1613 18.9681ZM14.2258 33.1939C14.2258 33.5677 13.9215 33.8713 13.5484 33.8713H6.7742C6.40111 33.8713 6.09678 33.5677 6.09678 33.1939V26.4197C6.09678 26.046 6.40111 25.7423 6.7742 25.7423H13.5484C13.9215 25.7423 14.2258 26.046 14.2258 26.4197V33.1939ZM10.1613 27.0967C9.041 27.0967 8.12903 28.0087 8.12903 29.1289C8.12903 30.0108 8.69721 30.756 9.48387 31.0365V32.516H10.8387V31.0365C11.6254 30.756 12.1935 30.0108 12.1935 29.1289C12.1935 28.0087 11.2816 27.0967 10.1613 27.0967ZM10.1613 29.8064C9.7882 29.8064 9.48387 29.5027 9.48387 29.1289C9.48387 28.7552 9.7882 28.4515 10.1613 28.4515C10.5344 28.4515 10.8387 28.7552 10.8387 29.1289C10.8387 29.5027 10.5344 29.8064 10.1613 29.8064ZM27.0968 6.09636C27.0968 6.27603 27.0254 6.44833 26.8984 6.57537C26.7713 6.70241 26.599 6.77378 26.4193 6.77378C26.2397 6.77378 26.0674 6.70241 25.9403 6.57537C25.8133 6.44833 25.7419 6.27603 25.7419 6.09636C25.7419 5.9167 25.8133 5.7444 25.9403 5.61736C26.0674 5.49032 26.2397 5.41895 26.4193 5.41895C26.599 5.41895 26.7713 5.49032 26.8984 5.61736C27.0254 5.7444 27.0968 5.9167 27.0968 6.09636ZM27.0968 15.5802C27.0968 15.7599 27.0254 15.9322 26.8984 16.0592C26.7713 16.1863 26.599 16.2577 26.4193 16.2577C26.2397 16.2577 26.0674 16.1863 25.9403 16.0592C25.8133 15.9322 25.7419 15.7599 25.7419 15.5802C25.7419 15.4006 25.8133 15.2283 25.9403 15.1012C26.0674 14.9742 26.2397 14.9028 26.4193 14.9028C26.599 14.9028 26.7713 14.9742 26.8984 15.1012C27.0254 15.2283 27.0968 15.4006 27.0968 15.5802ZM24.3871 39.2899H39.2903V29.806H24.3871V39.2899ZM25.7419 31.1609H37.9355V37.9351H25.7419V31.1609ZM36.5807 32.5166H27.0968V33.8714H36.5807V32.5166ZM33.871 35.2263H27.0968V36.5811H33.871V35.2263ZM36.5807 35.2263H35.2258V36.5811H36.5807V35.2263Z" fill="black"/>
<path fill-rule="evenodd" clip-rule="evenodd" d="M10.8387 13.1994V0H42V42H10.8387V39.7091L10.1613 40.0478L4.29602 37.1152L4.20017 36.9871C1.49176 33.3758 0 28.9008 0 24.3871V16.2581H0.677419C3.63715 16.2581 6.47545 15.3485 8.88452 13.6284L10.1613 12.7152L10.8387 13.1994ZM24.3871 6.09677C24.3871 7.21706 25.2991 8.12903 26.4194 8.12903C27.5396 8.12903 28.4516 7.21706 28.4516 6.09677C28.4516 4.97649 27.5396 4.06452 26.4194 4.06452C25.2991 4.06452 24.3871 4.97649 24.3871 6.09677ZM28.4516 12.8878V8.78892C27.884 9.21891 27.1848 9.48387 26.4194 9.48387C25.6539 9.48387 24.9547 9.21892 24.3871 8.7896V12.8885C24.9547 12.4585 25.6539 12.1935 26.4194 12.1935C27.1848 12.1935 27.884 12.4585 28.4516 12.8878ZM28.4516 15.5806C28.4516 14.4604 27.5396 13.5484 26.4194 13.5484C25.2991 13.5484 24.3871 14.4604 24.3871 15.5806C24.3871 16.7009 25.2991 17.6129 26.4194 17.6129C27.5396 17.6129 28.4516 16.7009 28.4516 15.5806ZM26.4194 2.70968C28.0547 2.70968 29.4231 3.87569 29.7379 5.41935H35.9032C38.2871 5.41935 40.2605 3.64875 40.591 1.35484H12.2477C12.5782 3.64875 14.5516 5.41935 16.9355 5.41935H23.1008C23.4156 3.87569 24.784 2.70968 26.4194 2.70968ZM1.35484 24.3871C1.35484 28.5564 2.71501 32.6908 5.18912 36.0468L10.1613 38.5329L15.1335 36.0468C17.6077 32.6908 18.9677 28.5564 18.9677 24.3871V17.598C15.9697 17.4694 13.1068 16.4842 10.6511 14.7306L10.1613 14.3809L9.67211 14.7312C7.21579 16.4843 4.35293 17.47 1.35484 17.5987V24.3871ZM12.1935 40.6452H40.6452V4.50077C39.5268 5.88542 37.8178 6.77419 35.9032 6.77419H29.8065V15.5806C29.8065 17.4482 28.2869 18.9677 26.4194 18.9677C24.5518 18.9677 23.0323 17.4482 23.0323 15.5806V6.77419H16.9355C15.0209 6.77419 13.3119 5.88542 12.1935 4.50077V14.125C14.4325 15.5191 16.9884 16.2581 19.6452 16.2581H20.3226V24.3871C20.3226 28.9008 18.8308 33.3758 16.1224 36.9872L16.0266 37.1152L12.1935 39.0316V40.6452ZM15.5807 26.4197C15.5807 25.5379 15.0125 24.7927 14.2258 24.5122V21.6778C14.2258 19.4361 12.403 17.6133 10.1613 17.6133C7.91963 17.6133 6.09678 19.4361 6.09678 21.6778V24.5122C5.31013 24.7927 4.74194 25.5379 4.74194 26.4197V33.1939C4.74194 34.3142 5.65392 35.2262 6.7742 35.2262H13.5484C14.6687 35.2262 15.5807 34.3142 15.5807 33.1939V26.4197ZM10.1613 18.9681C11.6557 18.9681 12.871 20.1834 12.871 21.6778V24.3875H7.45162V21.6778C7.45162 20.1834 8.66691 18.9681 10.1613 18.9681ZM14.2258 33.1939C14.2258 33.5677 13.9215 33.8713 13.5484 33.8713H6.7742C6.40111 33.8713 6.09678 33.5677 6.09678 33.1939V26.4197C6.09678 26.046 6.40111 25.7423 6.7742 25.7423H13.5484C13.9215 25.7423 14.2258 26.046 14.2258 26.4197V33.1939ZM10.1613 27.0967C9.041 27.0967 8.12903 28.0087 8.12903 29.1289C8.12903 30.0108 8.69721 30.756 9.48387 31.0365V32.516H10.8387V31.0365C11.6254 30.756 12.1935 30.0108 12.1935 29.1289C12.1935 28.0087 11.2816 27.0967 10.1613 27.0967ZM10.1613 29.8064C9.7882 29.8064 9.48387 29.5027 9.48387 29.1289C9.48387 28.7552 9.7882 28.4515 10.1613 28.4515C10.5344 28.4515 10.8387 28.7552 10.8387 29.1289C10.8387 29.5027 10.5344 29.8064 10.1613 29.8064ZM27.0968 6.09636C27.0968 6.27603 27.0254 6.44833 26.8984 6.57537C26.7713 6.70241 26.599 6.77378 26.4193 6.77378C26.2397 6.77378 26.0674 6.70241 25.9403 6.57537C25.8133 6.44833 25.7419 6.27603 25.7419 6.09636C25.7419 5.9167 25.8133 5.7444 25.9403 5.61736C26.0674 5.49032 26.2397 5.41895 26.4193 5.41895C26.599 5.41895 26.7713 5.49032 26.8984 5.61736C27.0254 5.7444 27.0968 5.9167 27.0968 6.09636ZM27.0968 15.5802C27.0968 15.7599 27.0254 15.9322 26.8984 16.0592C26.7713 16.1863 26.599 16.2577 26.4193 16.2577C26.2397 16.2577 26.0674 16.1863 25.9403 16.0592C25.8133 15.9322 25.7419 15.7599 25.7419 15.5802C25.7419 15.4006 25.8133 15.2283 25.9403 15.1012C26.0674 14.9742 26.2397 14.9028 26.4193 14.9028C26.599 14.9028 26.7713 14.9742 26.8984 15.1012C27.0254 15.2283 27.0968 15.4006 27.0968 15.5802ZM24.3871 39.2899H39.2903V29.806H24.3871V39.2899ZM25.7419 31.1609H37.9355V37.9351H25.7419V31.1609ZM36.5807 32.5166H27.0968V33.8714H36.5807V32.5166ZM33.871 35.2263H27.0968V36.5811H33.871V35.2263ZM36.5807 35.2263H35.2258V36.5811H36.5807V35.2263Z" fill="url(#paint0_linear_380_270)"/>
</g>
<defs>
<linearGradient id="paint0_linear_380_270" x1="-2.80907e-08" y1="-33.4091" x2="52.6633" y2="-32.1075" gradientUnits="userSpaceOnUse">
<stop stop-color="#FFDAA6"/>
<stop offset="0.484757" stop-color="#FA858D"/>
<stop offset="1" stop-color="#A153C9"/>
</linearGradient>
<clipPath id="clip0_380_270">
<rect width="42" height="42" fill="white"/>
</clipPath>
</defs>
</svg>
