<svg width="42" height="42" viewBox="0 0 42 42" fill="none" xmlns="http://www.w3.org/2000/svg">
<g clip-path="url(#clip0_380_263)">
<path fill-rule="evenodd" clip-rule="evenodd" d="M19.6235 27.9063C19.6235 28.1239 19.5372 28.3327 19.3834 28.4867C19.063 28.8064 18.5438 28.8064 18.2231 28.4867C17.9033 28.1658 17.9033 27.6467 18.2231 27.326C18.5439 27.0062 19.063 27.0062 19.3834 27.326C19.5372 27.48 19.6235 27.6887 19.6235 27.9063ZM24.5206 18.042C19.5465 18.042 15.4998 13.9949 15.4998 9.0209C15.4998 4.04677 19.5465 0 24.5206 0C29.4947 0 33.5415 4.04685 33.5415 9.0209C33.5415 13.9949 29.4947 18.042 24.5206 18.042ZM24.5206 16.4017C28.5904 16.4017 31.9015 13.0907 31.9015 9.0209C31.9015 4.95132 28.5904 1.6403 24.5206 1.6403C20.4508 1.6403 17.1397 4.95132 17.1397 9.0209C17.1397 13.0907 20.4508 16.4017 24.5206 16.4017ZM10.6856 41.7642C10.3635 42.0815 9.84596 42.0779 9.52809 41.7575L0.320086 32.4793C0.00229666 32.1588 0.00287089 31.6419 0.321398 31.3225L4.22272 27.4097C4.81417 26.8182 5.63645 26.5823 6.41607 26.7301C8.26653 23.3103 11.7148 21.4865 15.6638 21.4865C17.0884 21.4865 18.4692 21.762 19.7705 22.3064H28.9154C29.9222 22.3064 30.854 22.7753 31.4651 23.5273L36.3042 18.5534C37.4748 17.1961 39.5327 17.0299 40.9064 18.1876C42.2887 19.3562 42.4633 21.43 41.296 22.8111C33.902 31.6483 33.8867 31.674 33.8647 31.6907C33.8633 31.6918 33.8619 31.6928 33.8584 31.6962C32.4725 33.0448 30.6444 33.7876 28.7103 33.7876H17.8082C17.1708 33.7863 16.5581 34.0338 16.1005 34.4775L15.2453 35.3023C15.5424 36.1716 15.337 37.1717 14.6614 37.8472L10.6856 41.7642ZM19.2738 23.8778C18.1341 23.3793 16.9196 23.1264 15.6635 23.1264C12.1589 23.1264 9.34131 24.7286 7.83981 27.5455L14.2645 33.97L14.9614 33.2973C15.7285 32.5562 16.7398 32.1477 17.8082 32.1477H28.7104C30.201 32.1477 31.6112 31.5801 32.6854 30.5489L40.0408 21.7556C40.627 21.0619 40.5394 20.0249 39.8486 19.4408C39.1584 18.8588 38.1208 18.9464 37.5364 19.6362C37.5175 19.6588 37.2151 19.9695 35.611 21.618C34.8201 22.4308 33.7127 23.5688 32.1668 25.1579C32.1854 25.2996 32.1956 25.4425 32.1956 25.5867C32.1956 27.3956 30.7242 28.867 28.9154 28.867H22.2244C21.7716 28.867 21.4044 28.5001 21.4044 28.047C21.4044 27.5943 21.7716 27.227 22.2244 27.227H28.9154C29.82 27.227 30.5557 26.4913 30.5557 25.5867C30.5557 24.6719 29.8046 23.9467 28.9154 23.9467H19.6026C19.4894 23.9468 19.3775 23.9233 19.2738 23.8778ZM6.39877 28.4533C6.06908 28.2495 5.65376 28.2983 5.3833 28.5687L2.05882 31.9029L10.1167 40.0223L13.5063 36.6831C13.812 36.3773 13.8296 35.8551 13.5019 35.5273C6.59241 28.6274 6.52009 28.5236 6.42091 28.4661C6.41432 28.4623 6.40761 28.4587 6.39877 28.4533ZM23.5161 5.06159V4.12594C23.5161 3.71513 23.8077 3.34755 24.2143 3.28931C24.331 3.27184 24.4501 3.27976 24.5635 3.31252C24.6768 3.34528 24.7818 3.40211 24.8712 3.47912C24.9606 3.55614 25.0323 3.65154 25.0814 3.75881C25.1306 3.86607 25.156 3.98268 25.156 4.10068V5.05552C25.5309 5.17988 25.9475 5.40768 26.3638 5.81046C26.7223 6.15753 26.6961 6.75226 26.2769 7.06266C25.9517 7.304 25.4979 7.24855 25.2034 6.97079C24.9195 6.70222 24.6199 6.56063 24.336 6.56063C23.8526 6.56063 23.4654 6.98104 23.5211 7.47544C23.568 7.89003 23.9336 8.1983 24.3508 8.20093C25.7008 8.20897 26.7963 9.30925 26.7963 10.6609C26.7963 11.7302 26.1106 12.6418 25.156 12.9802V13.9416C25.156 14.4343 24.7213 14.8255 24.2143 14.7528C23.8077 14.6942 23.5161 14.3266 23.5161 13.9159V12.9844C22.9697 12.8011 22.4542 12.4377 22.0158 11.9164C21.6954 11.535 21.7812 10.9477 22.2283 10.6807C22.574 10.4744 23.0222 10.5689 23.2834 10.8756C23.6166 11.2662 23.99 11.4812 24.336 11.4812C24.8195 11.4812 25.2067 11.0608 25.1509 10.5664C25.1041 10.1517 24.7385 9.84344 24.3213 9.8409C22.9713 9.83319 21.8758 8.73249 21.8758 7.38094C21.8758 6.31158 22.5615 5.39997 23.5161 5.06159Z" fill="black"/>
<path fill-rule="evenodd" clip-rule="evenodd" d="M19.6235 27.9063C19.6235 28.1239 19.5372 28.3327 19.3834 28.4867C19.063 28.8064 18.5438 28.8064 18.2231 28.4867C17.9033 28.1658 17.9033 27.6467 18.2231 27.326C18.5439 27.0062 19.063 27.0062 19.3834 27.326C19.5372 27.48 19.6235 27.6887 19.6235 27.9063ZM24.5206 18.042C19.5465 18.042 15.4998 13.9949 15.4998 9.0209C15.4998 4.04677 19.5465 0 24.5206 0C29.4947 0 33.5415 4.04685 33.5415 9.0209C33.5415 13.9949 29.4947 18.042 24.5206 18.042ZM24.5206 16.4017C28.5904 16.4017 31.9015 13.0907 31.9015 9.0209C31.9015 4.95132 28.5904 1.6403 24.5206 1.6403C20.4508 1.6403 17.1397 4.95132 17.1397 9.0209C17.1397 13.0907 20.4508 16.4017 24.5206 16.4017ZM10.6856 41.7642C10.3635 42.0815 9.84596 42.0779 9.52809 41.7575L0.320086 32.4793C0.00229666 32.1588 0.00287089 31.6419 0.321398 31.3225L4.22272 27.4097C4.81417 26.8182 5.63645 26.5823 6.41607 26.7301C8.26653 23.3103 11.7148 21.4865 15.6638 21.4865C17.0884 21.4865 18.4692 21.762 19.7705 22.3064H28.9154C29.9222 22.3064 30.854 22.7753 31.4651 23.5273L36.3042 18.5534C37.4748 17.1961 39.5327 17.0299 40.9064 18.1876C42.2887 19.3562 42.4633 21.43 41.296 22.8111C33.902 31.6483 33.8867 31.674 33.8647 31.6907C33.8633 31.6918 33.8619 31.6928 33.8584 31.6962C32.4725 33.0448 30.6444 33.7876 28.7103 33.7876H17.8082C17.1708 33.7863 16.5581 34.0338 16.1005 34.4775L15.2453 35.3023C15.5424 36.1716 15.337 37.1717 14.6614 37.8472L10.6856 41.7642ZM19.2738 23.8778C18.1341 23.3793 16.9196 23.1264 15.6635 23.1264C12.1589 23.1264 9.34131 24.7286 7.83981 27.5455L14.2645 33.97L14.9614 33.2973C15.7285 32.5562 16.7398 32.1477 17.8082 32.1477H28.7104C30.201 32.1477 31.6112 31.5801 32.6854 30.5489L40.0408 21.7556C40.627 21.0619 40.5394 20.0249 39.8486 19.4408C39.1584 18.8588 38.1208 18.9464 37.5364 19.6362C37.5175 19.6588 37.2151 19.9695 35.611 21.618C34.8201 22.4308 33.7127 23.5688 32.1668 25.1579C32.1854 25.2996 32.1956 25.4425 32.1956 25.5867C32.1956 27.3956 30.7242 28.867 28.9154 28.867H22.2244C21.7716 28.867 21.4044 28.5001 21.4044 28.047C21.4044 27.5943 21.7716 27.227 22.2244 27.227H28.9154C29.82 27.227 30.5557 26.4913 30.5557 25.5867C30.5557 24.6719 29.8046 23.9467 28.9154 23.9467H19.6026C19.4894 23.9468 19.3775 23.9233 19.2738 23.8778ZM6.39877 28.4533C6.06908 28.2495 5.65376 28.2983 5.3833 28.5687L2.05882 31.9029L10.1167 40.0223L13.5063 36.6831C13.812 36.3773 13.8296 35.8551 13.5019 35.5273C6.59241 28.6274 6.52009 28.5236 6.42091 28.4661C6.41432 28.4623 6.40761 28.4587 6.39877 28.4533ZM23.5161 5.06159V4.12594C23.5161 3.71513 23.8077 3.34755 24.2143 3.28931C24.331 3.27184 24.4501 3.27976 24.5635 3.31252C24.6768 3.34528 24.7818 3.40211 24.8712 3.47912C24.9606 3.55614 25.0323 3.65154 25.0814 3.75881C25.1306 3.86607 25.156 3.98268 25.156 4.10068V5.05552C25.5309 5.17988 25.9475 5.40768 26.3638 5.81046C26.7223 6.15753 26.6961 6.75226 26.2769 7.06266C25.9517 7.304 25.4979 7.24855 25.2034 6.97079C24.9195 6.70222 24.6199 6.56063 24.336 6.56063C23.8526 6.56063 23.4654 6.98104 23.5211 7.47544C23.568 7.89003 23.9336 8.1983 24.3508 8.20093C25.7008 8.20897 26.7963 9.30925 26.7963 10.6609C26.7963 11.7302 26.1106 12.6418 25.156 12.9802V13.9416C25.156 14.4343 24.7213 14.8255 24.2143 14.7528C23.8077 14.6942 23.5161 14.3266 23.5161 13.9159V12.9844C22.9697 12.8011 22.4542 12.4377 22.0158 11.9164C21.6954 11.535 21.7812 10.9477 22.2283 10.6807C22.574 10.4744 23.0222 10.5689 23.2834 10.8756C23.6166 11.2662 23.99 11.4812 24.336 11.4812C24.8195 11.4812 25.2067 11.0608 25.1509 10.5664C25.1041 10.1517 24.7385 9.84344 24.3213 9.8409C22.9713 9.83319 21.8758 8.73249 21.8758 7.38094C21.8758 6.31158 22.5615 5.39997 23.5161 5.06159Z" fill="url(#paint0_linear_380_263)"/>
</g>
<defs>
<linearGradient id="paint0_linear_380_263" x1="0.0821228" y1="-27.5195" x2="52.7233" y2="-26.1087" gradientUnits="userSpaceOnUse">
<stop stop-color="#FFDAA6"/>
<stop offset="0.484757" stop-color="#FA858D"/>
<stop offset="1" stop-color="#A153C9"/>
</linearGradient>
<clipPath id="clip0_380_263">
<rect width="42" height="42" fill="white"/>
</clipPath>
</defs>
</svg>
