<svg width="42" height="42" viewBox="0 0 42 42" fill="none" xmlns="http://www.w3.org/2000/svg">
<g clip-path="url(#clip0_380_303)">
<path d="M38.1356 17.3587C38.9896 15.669 38.6361 13.6633 37.2555 12.3677L35.2952 10.5277C34.8508 10.1107 34.5906 9.66006 34.4516 9.06648L33.8384 6.44903C33.4066 4.60562 31.8464 3.2964 29.9561 3.19132L27.2717 3.04202C26.6632 3.00823 26.1742 2.83022 25.6863 2.46502L23.534 0.853922C22.0182 -0.280734 19.9816 -0.280734 18.466 0.853922L16.3138 2.46502C15.8259 2.83022 15.3368 3.00823 14.7282 3.04202L12.044 3.19132C10.1537 3.2964 8.5935 4.60554 8.16161 6.44903L7.54843 9.06656C7.40946 9.65998 7.14926 10.1107 6.70482 10.5278L4.7446 12.3677C3.36409 13.6633 3.01046 15.669 3.86448 17.3587L5.07732 19.7579C5.35237 20.3021 5.4426 20.8145 5.37025 21.4196L5.05123 24.0891C4.82655 25.9689 5.84488 27.7328 7.58526 28.4781L10.0565 29.5366C10.3514 29.6628 10.6007 29.8164 10.8202 30.0068L7.04393 38.1177C6.99335 38.2264 6.97353 38.3469 6.98661 38.4661C6.9997 38.5854 7.04519 38.6987 7.11815 38.7939C7.19111 38.8891 7.28875 38.9624 7.40047 39.006C7.51219 39.0496 7.63372 39.0618 7.75186 39.0412L11.4959 38.387L13.4053 41.6731C13.4655 41.7768 13.553 41.862 13.6583 41.9195C13.7636 41.977 13.8826 42.0045 14.0025 41.9991C14.1223 41.9936 14.2383 41.9555 14.338 41.8887C14.4376 41.8219 14.5171 41.7291 14.5677 41.6203L17.8752 34.516L20.1564 33.8266C20.7397 33.6503 21.2603 33.6503 21.8436 33.8266L24.2357 34.5496L27.5276 41.6203C27.5804 41.7336 27.6645 41.8295 27.7699 41.8967C27.8753 41.9639 27.9977 41.9996 28.1227 41.9996C28.3557 41.9996 28.5721 41.8757 28.69 41.6731L30.5995 38.387L34.3434 39.0412C34.4616 39.0619 34.5832 39.0497 34.6949 39.0062C34.8067 38.9626 34.9043 38.8892 34.9773 38.794C35.0503 38.6988 35.0958 38.5854 35.1088 38.4662C35.1219 38.347 35.102 38.2264 35.0514 38.1177L31.2484 29.9493C31.4511 29.7853 31.6787 29.6498 31.9434 29.5364L34.4147 28.478C36.1551 27.7327 37.1734 25.9689 36.9488 24.089L36.6297 21.4195C36.5573 20.8143 36.6477 20.3019 36.9227 19.7579L38.1356 17.3587ZM13.9085 39.9266L12.4008 37.3322C12.3333 37.2163 12.232 37.1238 12.1103 37.0671C11.9887 37.0105 11.8526 36.9925 11.7205 37.0155L8.76454 37.532L11.7189 31.1865L12.8207 32.8712C13.6132 34.0831 14.9194 34.7746 16.3008 34.788L13.9085 39.9266ZM30.3748 37.0154C30.2427 36.9924 30.1066 37.0104 29.985 37.067C29.8633 37.1236 29.7619 37.2162 29.6945 37.3322L28.1868 39.9266L25.794 34.7867C27.1402 34.7432 28.4048 34.0554 29.1794 32.8711L30.3369 31.1014L33.3308 37.532L30.3748 37.0154ZM35.7513 19.1659C35.3634 19.9334 35.2244 20.7216 35.3265 21.5754L35.6456 24.2449C35.8029 25.5616 35.117 26.7496 33.898 27.2717L31.4267 28.33C30.6361 28.6685 30.0231 29.1829 29.5524 29.9027L28.0809 32.1527C27.3551 33.2623 26.066 33.7316 24.7968 33.348L22.2233 32.5703C21.4002 32.3217 20.5999 32.3217 19.7767 32.5703L17.2032 33.348C15.9339 33.7316 14.6448 33.2624 13.9191 32.1527L12.4476 29.9027C11.9769 29.183 11.3638 28.6685 10.5732 28.33L8.10197 27.2717C6.88307 26.7496 6.19704 25.5615 6.35446 24.2449L6.67348 21.5755C6.77561 20.7217 6.63665 19.9336 6.24864 19.1659L5.03581 16.7666C4.43764 15.5832 4.67586 14.2322 5.64268 13.3247L7.60289 11.4849C8.23002 10.8964 8.63009 10.2033 8.82623 9.36598L9.43941 6.74852C9.74194 5.45743 10.7928 4.5756 12.1168 4.50185L14.801 4.35255C15.6597 4.30489 16.4117 4.03116 17.1002 3.51584L19.2525 1.90474C19.7833 1.50738 20.3916 1.30879 21 1.30879C21.6083 1.30879 22.2167 1.50738 22.7475 1.90474L24.8998 3.51584C25.5883 4.03116 26.3404 4.30489 27.1988 4.35255L29.8832 4.50185C31.2071 4.57552 32.258 5.45735 32.5605 6.74852L33.1738 9.36598C33.3699 10.2034 33.77 10.8964 34.3971 11.4848L36.3573 13.3247C37.3241 14.2322 37.5623 15.5832 36.9642 16.7666L35.7513 19.1659ZM21 6.28595C14.8743 6.28595 9.89066 11.2696 9.89066 17.3953C9.89066 23.521 14.8743 28.5047 21 28.5047C27.1257 28.5047 32.1093 23.521 32.1093 17.3953C32.1093 11.2696 27.1257 6.28595 21 6.28595ZM21 27.1921C15.598 27.1921 11.2032 22.7973 11.2032 17.3952C11.2032 11.9932 15.598 7.59837 21 7.59837C26.402 7.59837 30.7968 11.9932 30.7968 17.3952C30.7968 22.7973 26.402 27.1921 21 27.1921ZM25.7986 12.0703C25.2097 12.0725 24.6574 12.304 24.2435 12.722L19.6247 17.3868L17.7555 15.5175C16.895 14.6572 15.495 14.6571 14.6346 15.5176C13.7744 16.3779 13.7744 17.7779 14.6346 18.6383L18.07 22.0736C18.5003 22.5038 19.0654 22.7189 19.6303 22.7189C20.1954 22.7189 20.7605 22.5038 21.1907 22.0736C22.4925 20.7717 26.6053 16.6001 27.3718 15.8267C28.2263 14.9643 28.2217 13.567 27.3618 12.7117C26.9436 12.2959 26.3869 12.0669 25.7986 12.0703ZM26.4396 14.9029C25.6723 15.6772 21.5613 19.847 20.2627 21.1456C19.9141 21.4945 19.3468 21.4942 18.9982 21.1456L15.5628 17.7104C15.2142 17.3616 15.2142 16.7944 15.5628 16.4458C15.7371 16.2714 15.9661 16.1843 16.1951 16.1843C16.4241 16.1843 16.6531 16.2715 16.8274 16.4458L19.1631 18.7814C19.2862 18.9045 19.4531 18.9736 19.6271 18.9736H19.6288C19.7152 18.9735 19.8008 18.9562 19.8805 18.9228C19.9603 18.8894 20.0326 18.8406 20.0935 18.7791L25.1762 13.6456C25.2582 13.5625 25.3558 13.4965 25.4635 13.4514C25.5712 13.4062 25.6868 13.383 25.8036 13.3829H25.8071C26.0447 13.3829 26.268 13.475 26.4364 13.6425C26.7841 13.9882 26.7855 14.5537 26.4396 14.9029Z" fill="url(#paint0_linear_380_303)"/>
</g>
<defs>
<linearGradient id="paint0_linear_380_303" x1="3.4032" y1="-33.4036" x2="47.5402" y2="-32.4895" gradientUnits="userSpaceOnUse">
<stop stop-color="#FFDAA6"/>
<stop offset="0.484757" stop-color="#FA858D"/>
<stop offset="1" stop-color="#A153C9"/>
</linearGradient>
<clipPath id="clip0_380_303">
<rect width="42" height="42" fill="white"/>
</clipPath>
</defs>
</svg>
