<svg width="42" height="42" viewBox="0 0 42 42" fill="none" xmlns="http://www.w3.org/2000/svg">
<g clip-path="url(#clip0_380_294)">
<path fill-rule="evenodd" clip-rule="evenodd" d="M27.5887 3.73281C26.9203 3.34686 26.135 3.3469 25.4667 3.73278L23.3225 4.9707H15.4453C15.2712 4.9707 15.1043 5.03984 14.9812 5.16291C14.8581 5.28599 14.789 5.4529 14.789 5.62695C14.789 5.801 14.8581 5.96792 14.9812 6.09099C15.1043 6.21406 15.2712 6.2832 15.4453 6.2832H21.0492L12.1046 11.4473C12.0039 11.5054 11.9088 11.5706 11.82 11.6424C11.7234 11.7537 11.6395 11.8576 11.5651 11.9598H0.693451C0.519403 11.9598 0.352483 12.0289 0.229412 12.152C0.106341 12.2751 0.0372009 12.442 0.0372009 12.616C0.0372009 12.7901 0.106341 12.957 0.229412 13.0801C0.352483 13.2031 0.519403 13.2723 0.693451 13.2723H11.0436C11.0436 13.2754 11.0436 13.2784 11.0435 13.2815V28.0298H0.999969C0.825921 28.0298 0.659001 28.0989 0.535931 28.222C0.41286 28.3451 0.34372 28.512 0.34372 28.686C0.34372 28.8601 0.41286 29.027 0.535931 29.1501C0.659001 29.2731 0.825921 29.3423 0.999969 29.3423H11.135C11.2876 29.8471 11.6251 30.2753 12.1046 30.5522L25.4665 38.2666C25.6361 38.3646 25.8152 38.4391 26 38.4879C26.5301 38.6276 27.0918 38.554 27.5887 38.2671L40.9506 30.5526C41.619 30.1667 42.0116 29.4866 42.0116 28.7148V13.2857C42.0116 12.8998 41.9136 12.5362 41.7318 12.2214C41.5462 11.8998 41.2777 11.6361 40.9507 11.4473L27.5887 3.73281ZM40.2006 29.2535L27.2776 36.7146V21.4327L31.0083 19.2207V24.8714C31.0083 25.2649 31.2133 25.6207 31.5545 25.8178C31.8957 26.015 32.3067 26.015 32.6479 25.8178L36.0631 23.8461C36.5133 23.5861 36.7809 23.122 36.7811 22.6025V15.7979L40.5116 13.586V28.7148C40.5116 28.9507 40.4049 29.1356 40.2006 29.2535ZM21.2974 7.87191L18.5245 9.47283L31.7582 17.1133L34.531 15.5124L21.2974 7.87191ZM13.2936 12.4929L17.0245 10.3389L30.2586 17.9795L26.5277 20.1336L13.2936 12.4929ZM22.7974 7.00589L36.0314 14.6466L39.7617 12.4929L26.8386 5.03182C26.6345 4.91393 26.4209 4.91386 26.2167 5.03181L22.7974 7.00589ZM25.7776 21.4329V36.7142L12.8546 29.2531C12.6507 29.1354 12.5441 28.9512 12.5435 28.7163V13.7922L25.7776 21.4329ZM32.5083 24.1664V19.199L35.2811 17.5981V22.5655L32.5083 24.1664Z" fill="black"/>
<path fill-rule="evenodd" clip-rule="evenodd" d="M27.5887 3.73281C26.9203 3.34686 26.135 3.3469 25.4667 3.73278L23.3225 4.9707H15.4453C15.2712 4.9707 15.1043 5.03984 14.9812 5.16291C14.8581 5.28599 14.789 5.4529 14.789 5.62695C14.789 5.801 14.8581 5.96792 14.9812 6.09099C15.1043 6.21406 15.2712 6.2832 15.4453 6.2832H21.0492L12.1046 11.4473C12.0039 11.5054 11.9088 11.5706 11.82 11.6424C11.7234 11.7537 11.6395 11.8576 11.5651 11.9598H0.693451C0.519403 11.9598 0.352483 12.0289 0.229412 12.152C0.106341 12.2751 0.0372009 12.442 0.0372009 12.616C0.0372009 12.7901 0.106341 12.957 0.229412 13.0801C0.352483 13.2031 0.519403 13.2723 0.693451 13.2723H11.0436C11.0436 13.2754 11.0436 13.2784 11.0435 13.2815V28.0298H0.999969C0.825921 28.0298 0.659001 28.0989 0.535931 28.222C0.41286 28.3451 0.34372 28.512 0.34372 28.686C0.34372 28.8601 0.41286 29.027 0.535931 29.1501C0.659001 29.2731 0.825921 29.3423 0.999969 29.3423H11.135C11.2876 29.8471 11.6251 30.2753 12.1046 30.5522L25.4665 38.2666C25.6361 38.3646 25.8152 38.4391 26 38.4879C26.5301 38.6276 27.0918 38.554 27.5887 38.2671L40.9506 30.5526C41.619 30.1667 42.0116 29.4866 42.0116 28.7148V13.2857C42.0116 12.8998 41.9136 12.5362 41.7318 12.2214C41.5462 11.8998 41.2777 11.6361 40.9507 11.4473L27.5887 3.73281ZM40.2006 29.2535L27.2776 36.7146V21.4327L31.0083 19.2207V24.8714C31.0083 25.2649 31.2133 25.6207 31.5545 25.8178C31.8957 26.015 32.3067 26.015 32.6479 25.8178L36.0631 23.8461C36.5133 23.5861 36.7809 23.122 36.7811 22.6025V15.7979L40.5116 13.586V28.7148C40.5116 28.9507 40.4049 29.1356 40.2006 29.2535ZM21.2974 7.87191L18.5245 9.47283L31.7582 17.1133L34.531 15.5124L21.2974 7.87191ZM13.2936 12.4929L17.0245 10.3389L30.2586 17.9795L26.5277 20.1336L13.2936 12.4929ZM22.7974 7.00589L36.0314 14.6466L39.7617 12.4929L26.8386 5.03182C26.6345 4.91393 26.4209 4.91386 26.2167 5.03181L22.7974 7.00589ZM25.7776 21.4329V36.7142L12.8546 29.2531C12.6507 29.1354 12.5441 28.9512 12.5435 28.7163V13.7922L25.7776 21.4329ZM32.5083 24.1664V19.199L35.2811 17.5981V22.5655L32.5083 24.1664Z" fill="url(#paint0_linear_380_294)"/>
<path d="M10.0795 20.5356C9.95642 20.4125 9.7895 20.3434 9.61545 20.3434H2.5624C2.38836 20.3434 2.22144 20.4125 2.09837 20.5356C1.97529 20.6586 1.90615 20.8256 1.90615 20.9996C1.90615 21.1737 1.97529 21.3406 2.09837 21.4636C2.22144 21.5867 2.38836 21.6559 2.5624 21.6559H9.61545C9.7895 21.6559 9.95642 21.5867 10.0795 21.4636C10.2026 21.3406 10.2717 21.1737 10.2717 20.9996C10.2717 20.8256 10.2026 20.6586 10.0795 20.5356Z" fill="black"/>
<path d="M10.0795 20.5356C9.95642 20.4125 9.7895 20.3434 9.61545 20.3434H2.5624C2.38836 20.3434 2.22144 20.4125 2.09837 20.5356C1.97529 20.6586 1.90615 20.8256 1.90615 20.9996C1.90615 21.1737 1.97529 21.3406 2.09837 21.4636C2.22144 21.5867 2.38836 21.6559 2.5624 21.6559H9.61545C9.7895 21.6559 9.95642 21.5867 10.0795 21.4636C10.2026 21.3406 10.2717 21.1737 10.2717 20.9996C10.2717 20.8256 10.2026 20.6586 10.0795 20.5356Z" fill="url(#paint1_linear_380_294)"/>
<path d="M10.9787 5.16291C10.8556 5.03984 10.6887 4.9707 10.5147 4.9707H1.74217C1.56813 4.9707 1.40121 5.03984 1.27813 5.16291C1.15506 5.28599 1.08592 5.4529 1.08592 5.62695C1.08592 5.801 1.15506 5.96792 1.27813 6.09099C1.40121 6.21406 1.56813 6.2832 1.74217 6.2832H10.5147C10.6887 6.2832 10.8556 6.21406 10.9787 6.09099C11.1018 5.96792 11.1709 5.801 11.1709 5.62695C11.1709 5.4529 11.1018 5.28599 10.9787 5.16291Z" fill="black"/>
<path d="M10.9787 5.16291C10.8556 5.03984 10.6887 4.9707 10.5147 4.9707H1.74217C1.56813 4.9707 1.40121 5.03984 1.27813 5.16291C1.15506 5.28599 1.08592 5.4529 1.08592 5.62695C1.08592 5.801 1.15506 5.96792 1.27813 6.09099C1.40121 6.21406 1.56813 6.2832 1.74217 6.2832H10.5147C10.6887 6.2832 10.8556 6.21406 10.9787 6.09099C11.1018 5.96792 11.1709 5.801 11.1709 5.62695C11.1709 5.4529 11.1018 5.28599 10.9787 5.16291Z" fill="url(#paint2_linear_380_294)"/>
</g>
<defs>
<linearGradient id="paint0_linear_380_294" x1="0.0372009" y1="-24.4876" x2="52.6547" y2="-22.933" gradientUnits="userSpaceOnUse">
<stop stop-color="#FFDAA6"/>
<stop offset="0.484757" stop-color="#FA858D"/>
<stop offset="1" stop-color="#A153C9"/>
</linearGradient>
<linearGradient id="paint1_linear_380_294" x1="0.0372009" y1="-24.4876" x2="52.6547" y2="-22.933" gradientUnits="userSpaceOnUse">
<stop stop-color="#FFDAA6"/>
<stop offset="0.484757" stop-color="#FA858D"/>
<stop offset="1" stop-color="#A153C9"/>
</linearGradient>
<linearGradient id="paint2_linear_380_294" x1="0.0372009" y1="-24.4876" x2="52.6547" y2="-22.933" gradientUnits="userSpaceOnUse">
<stop stop-color="#FFDAA6"/>
<stop offset="0.484757" stop-color="#FA858D"/>
<stop offset="1" stop-color="#A153C9"/>
</linearGradient>
<clipPath id="clip0_380_294">
<rect width="42" height="42" fill="white"/>
</clipPath>
</defs>
</svg>
