<?xml version="1.0" standalone="no"?>
<!DOCTYPE svg PUBLIC "-//W3C//DTD SVG 1.1//EN" "http://www.w3.org/Graphics/SVG/1.1/DTD/svg11.dtd" >
<svg xmlns="http://www.w3.org/2000/svg" xmlns:xlink="http://www.w3.org/1999/xlink" version="1.1">
<metadata>
Created by FontForge 20170731 at Thu Nov 17 19:20:23 2022
 By Aleksey,,,
Copyright (c) 2012 by Glenjan. All rights reserved.
</metadata>
<defs>
<font id="Room-Black" horiz-adv-x="1210" >
  <font-face 
    font-family="Room"
    font-weight="900"
    font-stretch="normal"
    units-per-em="2048"
    panose-1="2 0 5 6 0 0 0 2 0 4"
    ascent="1679"
    descent="-369"
    x-height="1024"
    cap-height="1229"
    bbox="-160 -541 2085 1792"
    underline-thickness="102"
    underline-position="-409"
    unicode-range="U+0020-2265"
  />
<missing-glyph horiz-adv-x="614" 
 />
    <glyph glyph-name=".notdef" horiz-adv-x="614" 
 />
    <glyph glyph-name=".null" horiz-adv-x="0" 
 />
    <glyph glyph-name="nonmarkingreturn" horiz-adv-x="682" 
 />
    <glyph glyph-name="space" unicode=" " horiz-adv-x="614" 
 />
    <glyph glyph-name="space" unicode="&#xa0;" horiz-adv-x="614" 
 />
    <glyph glyph-name="exclam" unicode="!" horiz-adv-x="425" 
d="M102 1298h217v-311l-6 -641h-200l-11 641v311zM70 133q0 63 39 103t102 40q65 0 105 -40t40 -103q0 -66 -39.5 -105.5t-105.5 -39.5q-63 0 -102 39.5t-39 105.5z" />
    <glyph glyph-name="quotedbl" unicode="&#x22;" horiz-adv-x="573" 
d="M84 874l-29 355h211l-30 -355h-152zM338 874l-27 355h209l-28 -355h-154z" />
    <glyph glyph-name="numbersign" unicode="#" horiz-adv-x="999" 
d="M242 125l12 182h-172v156h182l12 127h-194v158h201l16 188l154 -6l-15 -182h140l14 188l158 -6l-17 -182h185v-158h-193l-12 -127h205v-156h-213l-15 -188l-153 6l12 182h-137l-17 -188zM430 590l-12 -127h139l12 127h-139z" />
    <glyph glyph-name="dollar" unicode="$" horiz-adv-x="1064" 
d="M88 743q0 108 90 195q77 74 228 98v123h237v-125q148 -14 322 -96l-97 -193q-173 78 -329 78q-118 0 -172 -32q-29 -19 -29 -43q0 -32 20 -46q19 -19 91 -32l194 -33q186 -29 283 -121q78 -75 78 -199q0 -126 -89 -215q-91 -87 -272 -112v-125h-237v121q-92 7 -168 30.5
t-168 73.5l96 199q98 -48 174 -66t164 -18q128 0 205 35q49 29 49 69t-33 58q-39 23 -119 36l-221 39q-144 24 -223 109q-74 77 -74 192z" />
    <glyph glyph-name="uni0025" unicode="%" horiz-adv-x="1415" 
d="M291 57l682 1000l151 -99l-692 -995zM1073 -18q-127 0 -213 86t-86 213q0 129 88 217q88 82 211 82q151 0 236 -105q65 -81 65 -194q0 -116 -71 -199q-87 -100 -230 -100zM1198 285q0 53 -35 88q-37 37 -90 37t-88 -35q-39 -31 -39 -90q0 -61 37 -95q36 -36 90 -36
q56 0 94 41q31 36 31 90zM340 444q-127 0 -213 86t-86 213q0 130 88 218q87 81 211 81q150 0 235 -104q66 -82 66 -195q0 -114 -72 -198q-88 -101 -229 -101zM465 748q0 55 -35 90q-30 34 -90 34q-54 0 -88 -34q-39 -31 -39 -90q0 -61 37 -95q37 -37 90 -37q56 0 94 41
q31 36 31 91z" />
    <glyph glyph-name="ampersand" unicode="&#x26;" horiz-adv-x="1208" 
d="M948 1008l-203 -88q-47 124 -157 124q-70 0 -107 -49q-28 -42 -28 -92q0 -60 43 -108l385 -396q25 48 34 109l199 -55q-24 -144 -80 -222l113 -118l-160 -144l-100 107q-66 -50 -145 -74.5t-191 -24.5q-198 0 -330 103q-74 57 -117 143t-43 189q0 134 62 237
q30 48 121 123q-31 74 -31 137q0 131 90 228q50 58 115.5 86t169.5 28q263 0 360 -243zM555 186q103 0 178 45l-366 385q-43 -40 -60 -92q-12 -37 -12 -110q0 -95 72 -160q74 -68 188 -68z" />
    <glyph glyph-name="quotesingle" unicode="'" horiz-adv-x="333" 
d="M84 874l-29 355h224l-29 -355h-166z" />
    <glyph glyph-name="parenleft" unicode="(" horiz-adv-x="468" 
d="M453 1157q-74 -116 -114 -285.5t-40 -318.5t38.5 -309.5t115.5 -274.5l-179 -104q-208 308 -208 688q0 192 54 377.5t154 333.5z" />
    <glyph glyph-name="parenright" unicode=")" horiz-adv-x="468" 
d="M16 -29q74 118 115 286.5t41 317.5q0 151 -39 311t-117 275l179 103q208 -308 208 -689q0 -192 -54 -377t-154 -333z" />
    <glyph glyph-name="asterisk" unicode="*" horiz-adv-x="559" 
d="M358 1194l-12 -117l103 47l51 -2l35 -118l-41 -25l-99 -23l62 -84l12 -47l-82 -63l-45 12l-59 100l-62 -98l-47 -14l-82 61l2 49l76 84l-111 27l-32 33l34 110l50 2l104 -49l-6 113l18 49h113z" />
    <glyph glyph-name="plus" unicode="+" horiz-adv-x="708" 
d="M41 653h213v215h197v-215h217v-196h-217v-215h-197v215h-213v196z" />
    <glyph glyph-name="comma" unicode="," horiz-adv-x="448" 
d="M72 137q0 64 41.5 106t109.5 42q71 0 112.5 -41.5t41.5 -106.5q0 -47 -12 -74l-111 -266l-137 39l35 164q-80 44 -80 137z" />
    <glyph glyph-name="hyphen" unicode="-" horiz-adv-x="768" 
d="M68 635h632v-197h-632v197z" />
    <glyph glyph-name="period" unicode="." horiz-adv-x="448" 
d="M72 137q0 66 41 107t110 41q71 0 112.5 -40.5t41.5 -107.5q0 -64 -41.5 -105.5t-112.5 -41.5q-68 0 -109.5 41.5t-41.5 105.5z" />
    <glyph glyph-name="slash" unicode="/" horiz-adv-x="647" 
d="M-27 -18l492 1306l188 -69l-491 -1305z" />
    <glyph glyph-name="zero" unicode="0" horiz-adv-x="1380" 
d="M1317 614q0 -296 -189 -473q-172 -164 -438 -164t-438 164q-189 177 -189 473t189 473q172 164 438 164t438 -164q189 -177 189 -473zM301 614q0 -192 98 -305q106 -125 291 -125t291 125q98 113 98 305q0 193 -98 306q-105 124 -291 124t-291 -124q-98 -113 -98 -306z
" />
    <glyph glyph-name="one" unicode="1" horiz-adv-x="604" 
d="M106 895l-81 174l342 160h135v-1229h-228v961z" />
    <glyph glyph-name="two" unicode="2" horiz-adv-x="1110" 
d="M113 0v193l516 403q86 67 135 141q43 62 43 127q0 62 -39 115q-71 68 -213 68q-197 0 -330 -175l-153 140q183 239 483 239q109 0 206 -30.5t163 -90.5q114 -100 114 -274q0 -132 -86 -244q-87 -110 -196 -194l-269 -213h543v-205h-917z" />
    <glyph glyph-name="three" unicode="3" horiz-adv-x="1132" 
d="M553 182q87 0 141 20t99 60q51 54 51 137q0 84 -49 121q-52 41 -150 41h-354v203h325q85 0 125 49q29 37 29 92q0 69 -51 107q-56 39 -187 39q-88 0 -159 -28.5t-144 -98.5l-135 139q185 188 459 188q217 0 336 -108q97 -91 100 -238q0 -65 -28 -119q-15 -34 -66 -75v-17
q87 -46 131 -123q45 -74 45 -172q0 -83 -31.5 -161.5t-95.5 -135.5q-149 -125 -391 -125q-160 0 -280 51.5t-222 166.5l135 143q93 -87 180 -121.5t187 -34.5z" />
    <glyph glyph-name="four" unicode="4" horiz-adv-x="1177" 
d="M51 176v162l762 891h186v-846h125v-195l-125 -10v-178h-231v176h-717zM768 383v465l-399 -465h399z" />
    <glyph glyph-name="five" unicode="5" horiz-adv-x="1120" 
d="M539 182q143 0 227 78q68 65 68 162q0 91 -60 151q-78 78 -207 78q-97 0 -157.5 -14t-130.5 -51h-150v643h840v-207h-623v-215q95 45 223 45q229 0 359 -121q131 -118 131 -309q0 -200 -125 -313q-144 -132 -395 -132q-164 0 -282 52t-206 161l139 156q84 -87 163 -125.5
t186 -38.5z" />
    <glyph glyph-name="six" unicode="6" horiz-adv-x="1150" 
d="M588 846q115 0 218.5 -36t172.5 -108q111 -111 111 -280q0 -184 -125 -309q-136 -136 -379 -136q-266 0 -408 195q-117 168 -117 426q0 151 43 279.5t127 218.5q142 155 371 155q125 0 226 -33.5t202 -117.5l-125 -156q-80 59 -141.5 78.5t-159.5 19.5q-136 0 -213 -90
q-53 -55 -78 -155q121 49 275 49zM586 182q126 0 198 60q78 63 78 180q0 102 -63 153q-72 66 -211 66q-96 0 -163.5 -14t-131.5 -45v-11q0 -171 72 -278q79 -111 221 -111z" />
    <glyph glyph-name="seven" unicode="7" horiz-adv-x="1060" 
d="M82 1024v205h948v-154l-551 -1075h-258l531 1024h-670z" />
    <glyph glyph-name="eight" unicode="8" horiz-adv-x="1189" 
d="M592 -23q-272 0 -414 121q-119 104 -119 283q0 99 56 186q45 68 135 119q-45 36 -66 82q-30 62 -30 141q0 165 131 258q118 84 313 84q207 0 324 -106q106 -93 106 -230q0 -65 -22 -114q-21 -47 -70 -90q87 -46 139 -127q55 -86 55 -193q0 -183 -135 -299
q-145 -115 -403 -115zM592 1049q-127 0 -170 -43q-41 -38 -41 -99q0 -33 13 -58.5t36 -35.5q46 -29 162 -29q91 0 143 -8q29 23 47 55q15 27 15 78q0 62 -41 97q-49 43 -164 43zM592 575q-103 0 -180 15q-54 -22 -84 -68q-37 -45 -37 -131q0 -104 90 -158q86 -51 211 -51
q158 0 244 78q61 54 61 131q0 83 -55 127q-76 57 -250 57z" />
    <glyph glyph-name="nine" unicode="9" horiz-adv-x="1150" 
d="M561 383q-115 0 -218.5 35.5t-172.5 105.5q-109 119 -109 283q0 186 123 309q135 135 379 135q269 0 410 -194q117 -168 117 -426q0 -305 -138 -477q-147 -177 -399 -177q-131 0 -231 29t-201 105l110 165q68 -52 142.5 -71t177.5 -19q132 0 209 80q66 66 78 166
q-121 -49 -277 -49zM563 1047q-124 0 -196 -60q-78 -60 -78 -180q0 -103 63 -154q71 -65 209 -65q98 0 165.5 14t131.5 45v10q0 172 -72 279q-79 111 -223 111z" />
    <glyph glyph-name="colon" unicode=":" horiz-adv-x="348" 
d="M72 137q0 66 41 107t110 41q71 0 112.5 -40.5t41.5 -107.5q0 -64 -41.5 -105.5t-112.5 -41.5q-68 0 -109.5 41.5t-41.5 105.5zM72 723q0 66 41 106.5t110 40.5q71 0 112.5 -40t41.5 -107q0 -65 -41.5 -106.5t-112.5 -41.5q-68 0 -109.5 42t-41.5 106z" />
    <glyph glyph-name="semicolon" unicode=";" horiz-adv-x="348" 
d="M72 137q0 64 41.5 106t109.5 42q71 0 112.5 -41.5t41.5 -106.5q0 -47 -12 -74l-111 -266l-137 39l35 164q-80 44 -80 137zM72 723q0 66 41 106.5t110 40.5q71 0 112.5 -40t41.5 -107q0 -65 -41.5 -106.5t-112.5 -41.5q-68 0 -109.5 42t-41.5 106z" />
    <glyph glyph-name="less" unicode="&#x3c;" horiz-adv-x="616" 
d="M465 856l90 -131l-264 -215l264 -219l-90 -131l-424 295v106z" />
    <glyph glyph-name="equal" unicode="=" horiz-adv-x="727" 
d="M68 766h589v-186h-589v186zM68 467h589v-186h-589v186z" />
    <glyph glyph-name="greater" unicode="&#x3e;" horiz-adv-x="616" 
d="M125 160l-90 131l262 215l-262 219l90 131l422 -295v-106z" />
    <glyph glyph-name="question" unicode="?" horiz-adv-x="1017" 
d="M559 369l2 -62h-201v101q0 90 48 157q47 63 145 111l82 37q75 30 104 82q21 35 21 77q0 78 -51 119q-67 56 -191 56q-121 0 -190.5 -38.5t-139.5 -138.5l-168 113q46 81 101.5 135t120 82.5t129 39.5t145.5 11q220 0 356 -112q113 -93 113 -262q0 -73 -22 -138
q-38 -93 -121 -137l-213 -108q-32 -18 -51 -48q-19 -36 -19 -77zM317 133q0 61 41 102t103 41q63 0 103 -40.5t40 -102.5q0 -61 -40.5 -103t-102.5 -42q-61 0 -102.5 42.5t-41.5 102.5z" />
    <glyph glyph-name="at" unicode="@" horiz-adv-x="1384" 
d="M1057 180q-88 0 -154 60q-57 -39 -103.5 -55.5t-107.5 -16.5q-69 0 -133 24.5t-108 67.5q-107 102 -107 254q0 135 96 231q103 103 250 103q109 0 184 -51l31 45l111 -19v-411q0 -31 10 -54q16 -22 35 -22q37 0 55 18q35 35 35 160q0 185 -98 301q-58 67 -150 105
t-205 38q-99 0 -186.5 -33.5t-149.5 -95.5q-120 -120 -120 -315q0 -184 110 -307q62 -65 151.5 -103t194.5 -38q189 0 349 61l53 -135q-194 -88 -402 -88q-294 0 -469 178q-163 163 -163 432q0 251 163 414q187 190 469 190q149 0 271 -50t207 -144q144 -167 147 -410
q0 -79 -25.5 -154.5t-76.5 -126.5q-59 -53 -164 -53zM698 330q82 0 146 51q-2 14 -2 57v217q-65 39 -146 39q-72 0 -125 -47q-57 -50 -57 -131q0 -75 47 -129q54 -57 137 -57z" />
    <glyph glyph-name="A" unicode="A" horiz-adv-x="1441" 
d="M596 1229h250l545 -1229h-265l-100 219h-616l-99 -219h-260zM705 977l-201 -535h430l-211 535h-18z" />
    <glyph glyph-name="B" unicode="B" horiz-adv-x="1257" 
d="M711 0h-609v1229h594q213 0 320 -96q90 -83 90 -226q0 -61 -27 -119q-25 -57 -82 -98v-12q86 -41 129 -113q50 -80 50 -182q0 -161 -115 -270q-62 -58 -141 -85.5t-209 -27.5zM936 385q0 68 -35 109q-27 29 -60.5 43t-95.5 14h-401v-336h379q109 0 162 45q51 39 51 125z
M866 889q0 60 -37 90q-35 35 -124 35h-361v-250h389q57 0 98 35q35 30 35 90z" />
    <glyph glyph-name="C" unicode="C" horiz-adv-x="1273" 
d="M303 616q0 -181 111 -292q123 -123 293 -123q101 0 186.5 37.5t173.5 117.5l145 -161q-116 -118 -231.5 -168t-273.5 -50q-283 0 -463 177q-185 182 -185 462q0 267 181 451q88 88 207.5 136t259.5 48q156 0 272 -48.5t233 -160.5l-145 -165q-87 80 -172.5 116.5
t-187.5 36.5q-165 0 -283 -115q-55 -55 -88 -134t-33 -165z" />
    <glyph glyph-name="D" unicode="D" horiz-adv-x="1312" 
d="M102 1229h494q299 0 481 -191q164 -167 164 -424q0 -132 -48 -247t-136 -201q-174 -166 -461 -166h-494v1229zM588 1006h-246v-785h246q196 0 303 107q106 106 106 286q0 179 -102 281q-111 111 -307 111z" />
    <glyph glyph-name="E" unicode="E" horiz-adv-x="1175" 
d="M102 0v1229h963v-225h-715v-250h639v-224h-639v-307h744v-223h-992z" />
    <glyph glyph-name="F" unicode="F" horiz-adv-x="1103" 
d="M100 1229h942v-228h-694v-272h617v-227h-617v-502h-248v1229z" />
    <glyph glyph-name="G" unicode="G" horiz-adv-x="1331" 
d="M1225 723v-709l-166 -24l-27 69q-134 -82 -315 -82q-327 0 -502 199q-152 168 -152 440q0 281 189 461q180 174 469 174q305 0 498 -215l-160 -159q-79 81 -157 117t-181 36q-190 0 -301 -123q-103 -112 -103 -291q0 -191 117 -305q114 -108 283 -108q157 0 264 73v220
l-309 18v209h553z" />
    <glyph glyph-name="H" unicode="H" horiz-adv-x="1292" 
d="M948 1229h242v-1229h-242v543h-600v-543h-246v1229h246v-467h600v467z" />
    <glyph glyph-name="I" unicode="I" horiz-adv-x="444" 
d="M342 1229v-1229h-240v1229h240z" />
    <glyph glyph-name="J" unicode="J" horiz-adv-x="1107" 
d="M770 1229h246v-697q0 -139 -35.5 -237.5t-110.5 -171.5q-149 -146 -397 -146q-137 0 -241.5 44.5t-200.5 146.5l145 168q127 -127 287 -127q151 0 227 76q41 41 60.5 91.5t19.5 133.5v719z" />
    <glyph glyph-name="K" unicode="K" horiz-adv-x="1245" 
d="M102 1229h246v-463h225l318 463h287l-394 -563l420 -666h-282l-344 547h-230v-547h-246v1229z" />
    <glyph glyph-name="L" unicode="L" horiz-adv-x="1110" 
d="M1059 219v-219h-957v1229h246v-1010h711z" />
    <glyph glyph-name="M" unicode="M" horiz-adv-x="1536" 
d="M102 1229h256l416 -584l404 584h256v-1229h-252v836h-8l-363 -523h-94l-365 525h-8v-838h-242v1229z" />
    <glyph glyph-name="N" unicode="N" horiz-adv-x="1345" 
d="M1006 1229h237v-1229h-221l-678 831v-831h-242v1229h222l682 -836v836z" />
    <glyph glyph-name="O" unicode="O" horiz-adv-x="1419" 
d="M709 1251q277 0 460 -180q189 -186 189 -457q0 -267 -176 -446q-185 -191 -473 -191q-145 0 -269.5 52.5t-210.5 146.5q-79 83 -124.5 199t-45.5 239q0 258 172 439q88 94 210.5 146t267.5 52zM303 614q0 -165 111 -286q56 -59 132.5 -93t162.5 -34q179 0 292 125
q109 119 109 288q0 184 -106 299q-114 117 -295 117t-295 -123q-111 -118 -111 -293z" />
    <glyph glyph-name="P" unicode="P" horiz-adv-x="1226" 
d="M1165 774q0 -183 -137 -317q-137 -131 -332 -131h-346v-326h-250v1229h596q109 0 203.5 -43.5t161.5 -122.5q104 -132 104 -289zM694 549q101 0 164 72q60 66 60 153q0 98 -54 162q-56 68 -186 68h-328v-455h344z" />
    <glyph glyph-name="Q" unicode="Q" horiz-adv-x="1421" 
d="M709 1251q277 0 460 -180q189 -186 189 -457q0 -140 -55 -266q-56 -127 -193 -244q10 -6 40 -26.5t53 -34t48 -23.5q95 -52 246 -65l10 -182q-62 -21 -131 -21q-157 0 -323 109q-141 101 -195 133q-80 -17 -149 -17q-145 0 -269.5 52.5t-210.5 146.5q-79 83 -124.5 199
t-45.5 239q0 258 172 439q88 94 210.5 146t267.5 52zM303 614q0 -165 111 -286q56 -59 132.5 -93t162.5 -34q179 0 292 125q109 119 109 288q0 184 -106 299q-114 117 -295 117t-295 -123q-111 -118 -111 -293z" />
    <glyph glyph-name="R" unicode="R" horiz-adv-x="1239" 
d="M1178 774q0 -134 -70 -244q-66 -102 -174 -153l231 -377h-282l-195 326h-340v-326h-248v1229h586q223 0 356 -133q136 -136 136 -322zM348 1004v-455h334q129 0 186 67q62 65 62 158q0 100 -58 158q-57 72 -192 72h-332z" />
    <glyph glyph-name="S" unicode="S" 
d="M430 553q-180 33 -266 119q-39 39 -62.5 97t-23.5 122q0 165 129 260q133 100 389 100q142 0 255.5 -28t250.5 -103l-98 -192q-203 102 -392 102q-184 0 -247 -51q-39 -29 -39 -82q0 -49 36 -72q41 -27 121 -39l244 -43q236 -42 338 -147q86 -93 86 -227
q0 -192 -145 -287q-80 -52 -199.5 -78.5t-239.5 -26.5q-160 0 -265.5 25t-242.5 90l76 203q118 -49 217.5 -70.5t210.5 -21.5q113 0 180 15.5t119 51.5q41 30 41 92q0 46 -41 87q-43 32 -168 59z" />
    <glyph glyph-name="T" unicode="T" horiz-adv-x="1224" 
d="M49 1008v221h1125v-221h-443v-1008h-239v1008h-443z" />
    <glyph glyph-name="U" unicode="U" horiz-adv-x="1286" 
d="M1184 539q0 -254 -166 -414q-151 -145 -375 -145q-236 0 -387 151q-156 159 -156 408v690h248v-703q0 -150 86 -233q82 -88 209 -88q121 0 211 90q82 79 82 231v703h248v-690z" />
    <glyph glyph-name="V" unicode="V" horiz-adv-x="1396" 
d="M854 0h-317l-488 1229h264l383 -985h11l378 985h256z" />
    <glyph glyph-name="W" unicode="W" horiz-adv-x="1949" 
d="M743 0h-331l-361 1229h264l260 -983h9l221 983h332l237 -983h8l252 983h262l-362 -1229h-334l-233 930h-9z" />
    <glyph glyph-name="X" unicode="X" horiz-adv-x="1366" 
d="M379 1229l301 -432l285 432h288l-413 -592l465 -637h-310l-327 473l-326 -473h-287l453 635l-438 594h309z" />
    <glyph glyph-name="Y" unicode="Y" horiz-adv-x="1390" 
d="M817 0h-242v297l-530 932h283l358 -674h21l364 674h268l-522 -934v-295z" />
    <glyph glyph-name="Z" unicode="Z" horiz-adv-x="1214" 
d="M1133 227v-227h-1053v193l698 819l-221 -4h-457v221h1024v-172l-708 -836l205 6h512z" />
    <glyph glyph-name="bracketleft" unicode="[" horiz-adv-x="489" 
d="M324 1085v-1036h141v-207h-363v1448h363v-205h-141z" />
    <glyph glyph-name="backslash" unicode="\" horiz-adv-x="647" 
d="M162 1348l512 -1366l-189 -68l-512 1364z" />
    <glyph glyph-name="bracketright" unicode="]" horiz-adv-x="489" 
d="M166 49v1036h-141v205h362v-1448h-362v207h141z" />
    <glyph glyph-name="asciicircum" unicode="^" horiz-adv-x="806" 
d="M766 864l-135 -116l-230 219l-217 -219l-143 122l321 355h91z" />
    <glyph glyph-name="underscore" unicode="_" horiz-adv-x="669" 
d="M0 -53h670v-185h-670v185z" />
    <glyph glyph-name="grave" unicode="`" horiz-adv-x="557" 
d="M309 1561l146 -363l-166 -78l-187 336z" />
    <glyph glyph-name="a" unicode="a" horiz-adv-x="1251" 
d="M506 1024h239l455 -1024h-268l-76 176h-467l-76 -176h-262zM614 741l-131 -344h275l-129 344h-15z" />
    <glyph glyph-name="b" unicode="b" horiz-adv-x="1091" 
d="M631 0h-529v1024h510q180 0 273 -96q73 -73 73 -178q0 -58 -24 -105q-21 -46 -72 -74v-8q68 -29 109 -94q39 -62 39 -141q0 -140 -88 -228q-100 -100 -291 -100zM766 322q0 42 -25 67q-26 33 -92 33h-301v-207h295q61 0 94 33q29 29 29 74zM713 723q0 34 -25 59t-78 25
h-262v-168h262q52 0 78 23q25 22 25 61z" />
    <glyph glyph-name="c" unicode="c" horiz-adv-x="1130" 
d="M319 514q0 -135 84 -219q41 -44 99.5 -68t122.5 -24q80 0 145.5 29t140.5 98l152 -160q-105 -100 -205 -144t-233 -44q-139 0 -250.5 48.5t-186.5 137.5q-118 144 -118 346q0 238 176 393q158 135 379 135q131 0 234 -43.5t204 -144.5l-156 -158q-69 71 -134 98t-148 27
q-67 0 -126.5 -22t-97.5 -62q-82 -88 -82 -223z" />
    <glyph glyph-name="d" unicode="d" horiz-adv-x="1134" 
d="M102 1024h418q251 0 398 -147q145 -145 145 -365q0 -109 -38 -203.5t-107 -163.5q-148 -145 -398 -145h-418v1024zM512 803h-164v-584h164q153 0 231 88q74 74 74 205q0 130 -76 209q-79 82 -229 82z" />
    <glyph glyph-name="e" unicode="e" horiz-adv-x="1028" 
d="M102 0v1024h826v-221h-580v-176h518v-219h-518v-189h598v-219h-844z" />
    <glyph glyph-name="f" unicode="f" horiz-adv-x="966" 
d="M102 1024h803v-221h-557v-201h496v-221h-496v-381h-246v1024z" />
    <glyph glyph-name="g" unicode="g" horiz-adv-x="1161" 
d="M1047 614v-594l-144 -32l-47 61q-94 -67 -250 -67q-230 0 -379 143q-75 72 -115 172.5t-40 216.5q0 110 40 208t117 171q73 70 174.5 109.5t217.5 39.5q132 0 236.5 -44.5t199.5 -145.5l-160 -158q-71 73 -132.5 100t-143.5 27q-133 0 -213 -86q-89 -83 -89 -221t87 -225
q83 -86 210 -86q101 0 185 51v145l-244 11v204h490z" />
    <glyph glyph-name="h" unicode="h" horiz-adv-x="1130" 
d="M782 1024h246v-1024h-246v432h-434v-432h-246v1024h246v-371h434v371z" />
    <glyph glyph-name="i" unicode="i" horiz-adv-x="454" 
d="M102 1024h250v-1024h-250v1024z" />
    <glyph glyph-name="j" unicode="j" horiz-adv-x="968" 
d="M629 1024h248v-575q0 -230 -129 -353q-123 -114 -332 -114q-243 0 -385 178l151 153q100 -106 236 -106q99 0 157 67q54 64 54 162v588z" />
    <glyph glyph-name="k" unicode="k" horiz-adv-x="1120" 
d="M102 1024h246v-379h150l266 379h293l-348 -481l366 -543h-299l-270 422h-158v-422h-246v1024z" />
    <glyph glyph-name="l" unicode="l" horiz-adv-x="960" 
d="M352 219h557v-219h-807v1024h250v-805z" />
    <glyph glyph-name="m" unicode="m" horiz-adv-x="1320" 
d="M102 1024h242l318 -471l315 471h242v-1024h-246v616h-8l-254 -387h-103l-258 387h-8v-616h-240v1024z" />
    <glyph glyph-name="n" unicode="n" horiz-adv-x="1177" 
d="M836 1024h239v-1024h-219l-512 618v-618h-242v1024h220l514 -616v616z" />
    <glyph glyph-name="o" unicode="o" 
d="M606 1042q116 0 218 -42t175 -117q150 -150 150 -371q0 -111 -41 -210.5t-119 -172.5q-153 -147 -383 -147q-240 0 -391 151q-73 73 -114.5 172t-41.5 207q0 111 44.5 210.5t123.5 174.5q155 145 379 145zM307 512q0 -141 86 -221q84 -90 213 -90q123 0 207 84
q88 79 88 227q0 144 -88 229q-88 82 -207 82q-131 0 -215 -90q-84 -81 -84 -221z" />
    <glyph glyph-name="p" unicode="p" horiz-adv-x="1062" 
d="M1001 641q0 -170 -114 -274q-113 -107 -293 -107h-246v-260h-246v1024h492q188 0 309 -127q98 -110 98 -256zM594 479q79 0 123 51q39 45 39 111q0 60 -31 102q-43 62 -141 62h-236v-326h246z" />
    <glyph glyph-name="q" unicode="q" horiz-adv-x="1212" 
d="M606 1042q116 0 218 -42t175 -117q150 -150 150 -371q0 -124 -53 -236q-55 -110 -138 -176q14 -12 40 -35.5t43.5 -37t35.5 -21.5q63 -23 180 -31l15 -180q-65 -24 -133 -24q-141 0 -260 88q-24 17 -70.5 63t-85.5 72q-55 -12 -117 -12q-240 0 -391 151
q-73 73 -114.5 172t-41.5 207q0 111 44.5 210.5t123.5 174.5q155 145 379 145zM307 512q0 -141 86 -221q84 -90 213 -90q123 0 207 84q88 79 88 227q0 144 -88 229q-88 82 -207 82q-131 0 -215 -90q-84 -81 -84 -221z" />
    <glyph glyph-name="r" unicode="r" horiz-adv-x="1073" 
d="M1012 643q0 -108 -49 -190q-47 -81 -140 -134l178 -319h-282l-133 260h-238v-260h-246v1024h502q215 0 330 -147q78 -100 78 -234zM348 805v-326h236q97 0 143 58q37 46 37 106q0 66 -39 111q-51 51 -139 51h-238z" />
    <glyph glyph-name="s" unicode="s" horiz-adv-x="1064" 
d="M88 743q0 141 115 220q121 79 329 79q224 0 433 -102l-88 -197q-97 44 -174.5 62t-163.5 18q-116 0 -164 -22q-37 -21 -37 -56q0 -29 20 -43q26 -23 91 -32l194 -33q207 -41 287 -119q74 -85 74 -196q0 -134 -91 -222q-127 -118 -407 -118q-132 0 -227.5 23.5
t-208.5 84.5l94 199q100 -48 175 -66t165 -18q128 0 205 35q51 29 51 77q0 32 -35 50q-39 23 -119 36l-221 39q-151 25 -223 103q-74 77 -74 198z" />
    <glyph glyph-name="t" unicode="t" horiz-adv-x="1050" 
d="M51 805v219h948v-219h-352v-805h-246v805h-350z" />
    <glyph glyph-name="u" unicode="u" horiz-adv-x="1120" 
d="M1018 442q0 -208 -139 -338q-126 -120 -316 -120q-202 0 -330 131q-131 134 -131 327v582h246v-592q0 -104 60 -164q57 -63 155 -63q94 0 152 61q57 64 57 166v592h246v-582z" />
    <glyph glyph-name="v" unicode="v" horiz-adv-x="1212" 
d="M739 0h-270l-418 1024h271l276 -772h20l275 772h268z" />
    <glyph glyph-name="w" unicode="w" horiz-adv-x="1740" 
d="M668 0h-287l-320 1024h265l200 -739h9l202 739h267l206 -741h11l196 741h262l-317 -1024h-291l-201 668h-8z" />
    <glyph glyph-name="x" unicode="x" horiz-adv-x="1177" 
d="M365 1024l223 -346l217 346h289l-338 -492l370 -532h-301l-241 375l-250 -375h-283l363 524l-344 500h295z" />
    <glyph glyph-name="y" unicode="y" horiz-adv-x="1212" 
d="M729 0h-246v248l-432 776h279l276 -532h12l269 532h274l-432 -778v-246z" />
    <glyph glyph-name="z" unicode="z" horiz-adv-x="1052" 
d="M971 219v-219h-889v182l526 635l-131 -8h-387v215h858v-172l-532 -639l114 6h441z" />
    <glyph glyph-name="braceleft" unicode="{" horiz-adv-x="497" 
d="M397 1087q-35 0 -35 -34v-342q0 -54 -14 -87t-53 -55v-10q67 -35 67 -139v-342q0 -35 35 -35h92v-201h-94q-119 0 -190.5 59.5t-71.5 192.5v301q0 66 -55 66h-45v213h45q25 0 40 18.5t15 44.5v301q0 133 71.5 192.5t190.5 59.5h94v-203h-92z" />
    <glyph glyph-name="bar" unicode="|" horiz-adv-x="391" 
d="M102 1331h187v-1638h-187v1638z" />
    <glyph glyph-name="braceright" unicode="}" horiz-adv-x="497" 
d="M100 45q33 0 33 37v348q0 53 15 86t55 55v13q-70 37 -70 137v334q0 35 -33 35h-92v200h92q120 0 192.5 -59.5t72.5 -192.5v-293q0 -65 53 -65h47v-213h-47q-24 0 -38.5 -19t-14.5 -45v-309q0 -132 -72.5 -192t-192.5 -60h-92v203h92z" />
    <glyph glyph-name="asciitilde" unicode="~" horiz-adv-x="872" 
d="M438 434q-82 29 -143 29q-78 0 -133 -47l-96 116q99 113 229 113q79 0 143 -29q62 -28 142 -28q74 0 135 49l92 -121q-95 -108 -227 -108q-71 0 -142 26z" />
    <glyph glyph-name="exclamdown" unicode="&#xa1;" horiz-adv-x="360" 
d="M258 -59h-217v311l6 641h201l10 -641v-311zM291 1106q0 -63 -39 -103t-102 -40q-66 0 -106 40t-40 103q0 66 40 105.5t106 39.5q63 0 102 -39.5t39 -105.5z" />
    <glyph glyph-name="cent" unicode="&#xa2;" horiz-adv-x="1130" 
d="M741 1159v-127q172 -27 318 -178l-154 -160q-68 68 -135.5 97.5t-148.5 29.5q-125 0 -213 -82q-89 -89 -89 -225q0 -137 84 -221q84 -90 218 -90q79 0 147 30.5t137 96.5l154 -160q-75 -78 -147 -117.5t-171 -58.5v-129h-237v129q-176 38 -273 135q-75 75 -117 175.5
t-42 209.5q0 108 41 205t114 170q99 105 277 141v129h237z" />
    <glyph glyph-name="currency" unicode="&#xa4;" horiz-adv-x="925" 
d="M459 176q-101 0 -160 33l-88 -86l-150 160l78 79q-35 72 -35 150q0 79 31 150l-74 86l150 147l86 -76q79 31 162 31t162 -31l84 76l159 -147l-86 -86q37 -76 37 -150q0 -83 -37 -152l80 -84l-153 -153l-87 86q-67 -33 -159 -33zM639 512q0 72 -49 121q-48 51 -131 51
q-85 0 -129 -55q-47 -44 -47 -117q0 -71 49 -127q47 -47 127 -47q71 0 131 49q49 49 49 125z" />
    <glyph glyph-name="yen" unicode="&#xa5;" 
d="M958 330h-702v153h104l-313 541h279l274 -516h8l285 516h270l-315 -541h110v-153zM256 291h702v-152h-229v-139h-248v139h-225v152z" />
    <glyph glyph-name="brokenbar" unicode="&#xa6;" horiz-adv-x="391" 
d="M102 1331h187v-751h-187v751zM102 444h187v-751h-187v751z" />
    <glyph glyph-name="section" unicode="&#xa7;" horiz-adv-x="995" 
d="M858 1143l-108 -180q-112 67 -252 67q-94 0 -121 -24q-23 -16 -23 -43q0 -28 25 -50q39 -24 100 -34l160 -31q152 -28 231 -127q64 -82 64 -184q0 -94 -45 -168q-22 -42 -62 -76q41 -64 41 -139q0 -139 -82 -215q-93 -93 -297 -93q-140 0 -226 25t-185 84l92 188
q91 -47 155 -62t164 -15q71 0 111 18q33 14 33 51q0 30 -21 45q-21 19 -75 29l-209 45q-129 26 -201 117q-63 79 -66 190q0 73 27 129q26 53 80 98q-51 61 -51 177q0 111 78 186q103 100 303 100q100 0 182 -24.5t178 -83.5zM408 653q-83 20 -86 21q-35 -35 -35 -88
q0 -46 26 -72q24 -24 78 -37l148 -35q75 -15 110 -28q19 16 33 45q12 27 12 63q0 44 -28 66q-34 29 -129 45z" />
    <glyph glyph-name="dieresis" unicode="&#xa8;" horiz-adv-x="880" 
d="M504 1251q0 58 39 98t98 40q57 0 97 -40.5t40 -97.5t-40 -97t-97 -40q-59 0 -98 39.5t-39 97.5zM102 1251q0 57 40.5 97.5t97.5 40.5t97 -40.5t40 -97.5t-40 -97t-97 -40t-97.5 40t-40.5 97z" />
    <glyph glyph-name="copyright" unicode="&#xa9;" horiz-adv-x="1206" 
d="M313 512q0 123 93 209q91 82 204 82q112 0 221 -90l-86 -121q-40 30 -69 40.5t-66 10.5q-47 0 -94 -35q-35 -30 -35 -96q0 -46 25 -84q40 -49 104 -49q40 0 71.5 10.5t70.5 44.5l77 -123q-54 -48 -105.5 -69t-113.5 -21q-127 0 -211 84q-86 80 -86 207zM961 512
q0 142 -91 246q-90 110 -268 110q-150 0 -248 -98q-104 -104 -104 -258q0 -147 86 -246q90 -114 266 -114q86 0 157.5 31.5t119.5 88.5q82 105 82 240zM602 -23q-115 0 -218.5 45.5t-176.5 124.5q-63 69 -98 165t-35 200q0 226 147 373q74 74 173 115.5t208 41.5
q113 0 213.5 -41.5t175.5 -119.5q142 -148 142 -369q0 -104 -35 -200t-97 -162q-71 -78 -175 -125.5t-224 -47.5z" />
    <glyph glyph-name="ordfeminine" unicode="&#xaa;" horiz-adv-x="759" 
d="M514 1208l37 35l74 -22v-363q0 -53 39 -127l-99 -61q-38 26 -51 57q-81 -51 -160 -51q-148 0 -235 100q-64 73 -64 187q0 125 88 213q84 75 209 75q98 0 162 -43zM479 1087q-46 27 -127 27q-85 0 -123 -53q-28 -42 -28 -98q0 -68 45 -107q46 -43 116 -43q58 0 117 39v235
z" />
    <glyph glyph-name="guillemotleft" unicode="&#xab;" horiz-adv-x="843" 
d="M41 492v83l295 302l117 -95l-201 -245l201 -252l-117 -95zM662 190l-293 299v91l293 297l120 -95l-202 -245l202 -252z" />
    <glyph glyph-name="logicalnot" unicode="&#xac;" horiz-adv-x="702" 
d="M492 381l-21 180h-430v178h621v-358h-170z" />
    <glyph glyph-name="uni00AD" unicode="&#xad;" horiz-adv-x="669" 
d="M68 635h632v-197h-632v197z" />
    <glyph glyph-name="registered" unicode="&#xae;" horiz-adv-x="819" 
d="M408 535q-78 0 -147 26.5t-116 73.5q-104 107 -104 266q0 163 111 268q106 99 256 99q176 0 284 -127q86 -99 86 -240q0 -154 -98 -252q-108 -114 -272 -114zM647 901q0 99 -63 168q-62 74 -176 74q-98 0 -164 -60q-74 -65 -74 -182q0 -113 63 -176t175 -63q120 0 174 65
q30 30 47.5 76.5t17.5 97.5zM508 848l63 -123h-122l-39 104h-37v-104h-115v360h166q78 0 121 -49q26 -33 26 -84q0 -37 -18 -67q-13 -23 -45 -37zM373 977v-49h57q11 0 19 8q6 6 6 16q0 11 -6 17q-8 8 -19 8h-57z" />
    <glyph glyph-name="overscore" unicode="&#xaf;" horiz-adv-x="792" 
d="M102 1309h588v-172h-588v172z" />
    <glyph glyph-name="degree" unicode="&#xb0;" horiz-adv-x="679" 
d="M340 666q-129 0 -213 84q-82 82 -82 211q0 124 86 210q83 80 207 80q125 0 213 -82q84 -84 84 -208q0 -127 -84 -211t-211 -84zM483 961q0 65 -34 102q-44 47 -111 47q-59 0 -105 -43q-40 -40 -40 -106q0 -65 40 -105q44 -47 107 -47q62 0 106 47q37 40 37 105z" />
    <glyph glyph-name="plusminus" unicode="&#xb1;" horiz-adv-x="708" 
d="M41 838h213v215h197v-215h217v-201h-217v-213h-197v213h-213v201zM41 362h627v-192h-627v192z" />
    <glyph glyph-name="twosuperior" unicode="&#xb2;" horiz-adv-x="598" 
d="M82 662v120l244 162q33 20 53 53q16 26 16 58q0 31 -24 49q-36 22 -78 22q-46 0 -81.5 -15.5t-74.5 -57.5l-90 75q96 127 246 127q111 0 182 -65q60 -57 60 -139q0 -61 -33 -111q-32 -49 -94 -92l-97 -62h219v-124h-448z" />
    <glyph glyph-name="threesuperior" unicode="&#xb3;" horiz-adv-x="636" 
d="M307 782q28 0 40 0.5t34.5 7.5t34.5 21q20 20 20 49q0 23 -14 37q-21 21 -68 21h-164v116h162q18 0 35 10q14 14 14 35q0 28 -18 43q-21 21 -78 21q-51 0 -83.5 -13t-74.5 -45l-69 91q94 94 231 94q116 0 172 -53t56 -127q0 -58 -43 -91q38 -23 59.5 -60t21.5 -79
q0 -81 -53 -137q-71 -74 -215 -74q-77 0 -136 25t-120 82l88 96q45 -41 81.5 -55.5t86.5 -14.5z" />
    <glyph glyph-name="acute" unicode="&#xb4;" horiz-adv-x="567" 
d="M102 1198l146 363l207 -105l-187 -336z" />
    <glyph glyph-name="mu" unicode="&#xb5;" horiz-adv-x="1220" 
d="M1116 12l-176 -24l-35 88q-131 -94 -321 -94q-65 0 -125 14q-62 13 -113 49h-8l18 -317h-250v1296h246v-467q0 -151 54 -242q66 -114 190 -114q85 0 146.5 24t125.5 82v717h248v-1012z" />
    <glyph glyph-name="paragraph" unicode="&#xb6;" horiz-adv-x="1073" 
d="M430 1024h545l6 -127l-131 -25v-753l-31 -318l-61 -71l-80 39v1089h-129v-825l-29 -303l-69 -66l-76 37v694q-121 11 -201 94q-82 91 -82 226q0 157 105 237q87 72 233 72z" />
    <glyph glyph-name="middot" unicode="&#xb7;" horiz-adv-x="360" 
d="M72 662q0 66 41 106.5t110 40.5q71 0 112.5 -40t41.5 -107q0 -64 -41.5 -106t-112.5 -42q-68 0 -109.5 42t-41.5 106z" />
    <glyph glyph-name="cedilla" unicode="&#xb8;" horiz-adv-x="516" 
d="M117 23h166l-4 -99q70 0 106 -45q29 -37 29 -82q0 -90 -62 -155q-81 -81 -207 -117l-43 108q76 32 101 64q20 33 20 61q0 21 -18 33q-15 12 -39 12h-49v220z" />
    <glyph glyph-name="onesuperior" unicode="&#xb9;" horiz-adv-x="364" 
d="M74 1044l-43 97l170 88h82v-570h-136v410z" />
    <glyph glyph-name="ordmasculine" unicode="&#xba;" horiz-adv-x="610" 
d="M305 705q-116 0 -192 73q-78 75 -78 193q0 110 84 194q72 72 186 72q140 0 215 -100q53 -71 53 -166q0 -113 -73 -189q-77 -77 -195 -77zM420 971q0 46 -27 80q-31 39 -88 39q-56 0 -86 -35q-31 -36 -31 -84q0 -58 33 -84q30 -35 84 -35q47 0 84 37q31 31 31 82z" />
    <glyph glyph-name="guillemotright" unicode="&#xbb;" horiz-adv-x="843" 
d="M803 575v-83l-295 -302l-117 95l201 245l-201 252l117 95zM182 877l293 -297v-91l-293 -299l-121 95l201 245l-201 252z" />
    <glyph glyph-name="questiondown" unicode="&#xbf;" horiz-adv-x="1028" 
d="M428 870l-2 62h201v-101q0 -92 -47 -157q-46 -62 -146 -111l-82 -37q-75 -30 -104 -82q-21 -34 -21 -77q0 -77 52 -119q66 -55 190 -55q121 0 190.5 38t139.5 138l168 -113q-46 -81 -101.5 -135t-120 -82.5t-129 -39.5t-145.5 -11q-220 0 -356 112q-113 93 -113 262
q0 70 23 138q38 94 120 137l213 108q34 19 52 48q18 35 18 77zM670 1106q0 -61 -41 -102t-103 -41q-63 0 -103 40.5t-40 102.5q0 61 40.5 103t102.5 42q61 0 102.5 -42.5t41.5 -102.5z" />
    <glyph glyph-name="Agrave" unicode="&#xc0;" horiz-adv-x="1441" 
d="M596 1229h250l545 -1229h-265l-100 219h-616l-99 -219h-260zM705 977l-201 -535h430l-211 535h-18zM614 1792l179 -406l-162 -77l-209 387z" />
    <glyph glyph-name="Aacute" unicode="&#xc1;" horiz-adv-x="1441" 
d="M596 1229h250l545 -1229h-265l-100 219h-616l-99 -219h-260zM705 977l-201 -535h430l-211 535h-18zM651 1386l178 406l193 -96l-209 -387z" />
    <glyph glyph-name="Acircumflex" unicode="&#xc2;" horiz-adv-x="1441" 
d="M596 1229h250l545 -1229h-265l-100 219h-616l-99 -219h-260zM705 977l-201 -535h430l-211 535h-18zM496 1292l-111 119l285 283h96l285 -283l-111 -119l-221 183z" />
    <glyph glyph-name="Atilde" unicode="&#xc3;" horiz-adv-x="1441" 
d="M596 1229h250l545 -1229h-265l-100 219h-616l-99 -219h-260zM705 977l-201 -535h430l-211 535h-18zM866 1319q-45 0 -73 5t-68 22q-72 30 -150 30t-139 -49l-100 125q109 119 237 119q73 0 142 -29q82 -33 149 -33q69 0 140 50l98 -127q-104 -113 -236 -113z" />
    <glyph glyph-name="Adieresis" unicode="&#xc4;" horiz-adv-x="1441" 
d="M596 1229h250l545 -1229h-265l-100 219h-616l-99 -219h-260zM705 977l-201 -535h430l-211 535h-18zM786 1462q0 61 40.5 102.5t101.5 41.5t104 -42t43 -102t-43 -102.5t-104 -42.5t-101.5 42t-40.5 103zM362 1462q0 60 43 102t103 42t102.5 -42t42.5 -102t-42.5 -102.5
t-102.5 -42.5t-103 42.5t-43 102.5z" />
    <glyph glyph-name="Aring" unicode="&#xc5;" horiz-adv-x="1441" 
d="M596 1229h250l545 -1229h-265l-100 219h-616l-99 -219h-260zM705 977l-201 -535h430l-211 535h-18zM719 1266q-92 0 -158 63q-69 69 -69 164q0 89 61 156q65 71 166 71q105 0 174 -78q55 -65 55 -149q0 -93 -71 -164q-66 -63 -158 -63zM719 1391q42 0 74 28q30 30 30 74
q0 40 -30 70q-25 32 -74 32q-51 0 -76 -32q-29 -26 -29 -70q0 -39 31 -74q31 -28 74 -28z" />
    <glyph glyph-name="AE" unicode="&#xc6;" horiz-adv-x="2031" 
d="M979 0v276h-475l-172 -276h-281l789 1229h1081v-223h-702v-250h624v-219h-624v-316h731v-221h-971zM958 1004l-313 -504h334v504h-21z" />
    <glyph glyph-name="Ccedilla" unicode="&#xc7;" horiz-adv-x="1273" 
d="M303 616q0 -179 111 -290q125 -125 293 -125q105 0 190 35.5t172 115.5l145 -162q-101 -103 -207 -151t-239 -59l-2 -52q60 -3 100 -43q43 -43 43 -112q0 -86 -61 -150q-75 -81 -250 -135l-45 119q78 31 127 80q33 33 33 77q0 21 -17 35q-16 13 -39 13h-65v174
q-100 19 -191.5 65t-154.5 109q-187 178 -187 456q0 269 181 453q182 182 467 182q158 0 275.5 -48.5t231.5 -158.5l-145 -165q-86 80 -169.5 115.5t-192.5 35.5q-167 0 -285 -115q-55 -55 -87 -134t-32 -165z" />
    <glyph glyph-name="Egrave" unicode="&#xc8;" horiz-adv-x="1175" 
d="M102 0v1229h963v-225h-715v-250h639v-224h-639v-307h744v-223h-992zM506 1792l178 -406l-162 -77l-209 387z" />
    <glyph glyph-name="Eacute" unicode="&#xc9;" horiz-adv-x="1175" 
d="M102 0v1229h963v-225h-715v-250h639v-224h-639v-307h744v-223h-992zM514 1386l178 406l193 -96l-209 -387z" />
    <glyph glyph-name="Ecircumflex" unicode="&#xca;" horiz-adv-x="1175" 
d="M102 0v1229h963v-225h-715v-250h639v-224h-639v-307h744v-223h-992zM356 1292l-110 119l284 283h97l284 -283l-110 -119l-221 183z" />
    <glyph glyph-name="Edieresis" unicode="&#xcb;" horiz-adv-x="1175" 
d="M102 0v1229h963v-225h-715v-250h639v-224h-639v-307h744v-223h-992zM653 1462q0 61 40.5 102.5t101.5 41.5t104 -42t43 -102t-43 -102.5t-104 -42.5t-101.5 42t-40.5 103zM229 1462q0 60 43 102t103 42t102.5 -42t42.5 -102t-42.5 -102.5t-102.5 -42.5t-103 42.5
t-43 102.5z" />
    <glyph glyph-name="Igrave" unicode="&#xcc;" horiz-adv-x="444" 
d="M342 1229v-1229h-240v1229h240zM160 1792l178 -406l-162 -77l-209 387z" />
    <glyph glyph-name="Iacute" unicode="&#xcd;" horiz-adv-x="444" 
d="M342 1229v-1229h-240v1229h240zM117 1386l178 406l192 -96l-208 -387z" />
    <glyph glyph-name="Icircumflex" unicode="&#xce;" horiz-adv-x="444" 
d="M342 1229v-1229h-240v1229h240zM2 1292l-111 119l285 283h96l285 -283l-111 -119l-221 183z" />
    <glyph glyph-name="Idieresis" unicode="&#xcf;" horiz-adv-x="444" 
d="M342 1229v-1229h-240v1229h240zM291 1462q0 61 40 102.5t101 41.5q62 0 105 -42t43 -102t-43.5 -102.5t-104.5 -42.5t-101 42t-40 103zM-133 1462q0 60 42.5 102t102.5 42t103 -42t43 -102t-43 -102.5t-103 -42.5t-102.5 42.5t-42.5 102.5z" />
    <glyph glyph-name="Eth" unicode="&#xd0;" horiz-adv-x="1312" 
d="M4 711h98v518h514q279 0 461 -191q164 -167 164 -424q0 -132 -48 -247t-136 -201q-83 -79 -196 -122.5t-245 -43.5h-514v520h-98v191zM608 1006h-266v-295h389v-191h-389v-299h266q176 0 283 107q106 106 106 286q0 179 -102 281q-111 111 -287 111z" />
    <glyph glyph-name="Ntilde" unicode="&#xd1;" horiz-adv-x="1345" 
d="M1006 1229h237v-1229h-221l-678 831v-831h-242v1229h222l682 -836v836zM817 1319q-45 0 -73 5t-68 22q-72 30 -150 30t-139 -49l-100 125q109 119 237 119q73 0 142 -29q82 -33 149 -33q68 0 139 50l99 -127q-104 -113 -236 -113z" />
    <glyph glyph-name="Ograve" unicode="&#xd2;" horiz-adv-x="1419" 
d="M709 1251q277 0 460 -180q189 -186 189 -457q0 -267 -176 -446q-185 -191 -473 -191q-145 0 -269.5 52.5t-210.5 146.5q-79 83 -124.5 199t-45.5 239q0 258 172 439q88 94 210.5 146t267.5 52zM303 614q0 -165 111 -286q56 -59 132.5 -93t162.5 -34q179 0 292 125
q109 119 109 288q0 184 -106 299q-114 117 -295 117t-295 -123q-111 -118 -111 -293zM594 1792l178 -406l-162 -77l-209 387z" />
    <glyph glyph-name="Oacute" unicode="&#xd3;" horiz-adv-x="1419" 
d="M709 1251q277 0 460 -180q189 -186 189 -457q0 -267 -176 -446q-185 -191 -473 -191q-145 0 -269.5 52.5t-210.5 146.5q-79 83 -124.5 199t-45.5 239q0 258 172 439q88 94 210.5 146t267.5 52zM303 614q0 -165 111 -286q56 -59 132.5 -93t162.5 -34q179 0 292 125
q109 119 109 288q0 184 -106 299q-114 117 -295 117t-295 -123q-111 -118 -111 -293zM649 1386l178 406l193 -96l-209 -387z" />
    <glyph glyph-name="Ocircumflex" unicode="&#xd4;" horiz-adv-x="1419" 
d="M709 1251q277 0 460 -180q189 -186 189 -457q0 -267 -176 -446q-185 -191 -473 -191q-145 0 -269.5 52.5t-210.5 146.5q-79 83 -124.5 199t-45.5 239q0 258 172 439q88 94 210.5 146t267.5 52zM303 614q0 -165 111 -286q56 -59 132.5 -93t162.5 -34q179 0 292 125
q109 119 109 288q0 184 -106 299q-114 117 -295 117t-295 -123q-111 -118 -111 -293zM485 1292l-110 119l284 283h97l284 -283l-110 -119l-221 183z" />
    <glyph glyph-name="Otilde" unicode="&#xd5;" horiz-adv-x="1419" 
d="M709 1251q277 0 460 -180q189 -186 189 -457q0 -267 -176 -446q-185 -191 -473 -191q-145 0 -269.5 52.5t-210.5 146.5q-79 83 -124.5 199t-45.5 239q0 258 172 439q88 94 210.5 146t267.5 52zM303 614q0 -165 111 -286q56 -59 132.5 -93t162.5 -34q179 0 292 125
q109 119 109 288q0 184 -106 299q-114 117 -295 117t-295 -123q-111 -118 -111 -293zM856 1319q-45 0 -73 5t-68 22q-72 30 -150 30t-139 -49l-100 125q109 119 237 119q73 0 142 -29q82 -33 149 -33q68 0 139 50l99 -127q-104 -113 -236 -113z" />
    <glyph glyph-name="Odieresis" unicode="&#xd6;" horiz-adv-x="1419" 
d="M709 1251q277 0 460 -180q189 -186 189 -457q0 -267 -176 -446q-185 -191 -473 -191q-145 0 -269.5 52.5t-210.5 146.5q-79 83 -124.5 199t-45.5 239q0 258 172 439q88 94 210.5 146t267.5 52zM303 614q0 -165 111 -286q56 -59 132.5 -93t162.5 -34q179 0 292 125
q109 119 109 288q0 184 -106 299q-114 117 -295 117t-295 -123q-111 -118 -111 -293zM774 1462q0 61 40 102.5t101 41.5q62 0 105 -42t43 -102t-43.5 -102.5t-104.5 -42.5t-101 42t-40 103zM350 1462q0 60 43 102t103 42t102.5 -42t42.5 -102t-42.5 -102.5t-102.5 -42.5
t-103 42.5t-43 102.5z" />
    <glyph glyph-name="multiply" unicode="&#xd7;" horiz-adv-x="638" 
d="M49 379l158 158l-160 161l113 111l159 -162l160 164l113 -113l-162 -161l160 -160l-113 -113l-158 162l-159 -160z" />
    <glyph glyph-name="Oslash" unicode="&#xd8;" horiz-adv-x="1419" 
d="M709 1251q149 0 266 -51l61 86l178 -123l-57 -82q103 -103 152 -219q49 -126 49 -248q0 -267 -176 -446q-185 -191 -473 -191q-146 0 -277 56l-63 -90l-181 127l60 86q-70 67 -125 180q-64 144 -64 278q0 258 172 439q88 94 210.5 146t267.5 52zM1110 614q0 72 -23 152
q-20 64 -63 123l-459 -662q76 -26 144 -26q179 0 292 125q109 119 109 288zM303 614q0 -145 86 -258l455 654q-59 20 -135 20q-181 0 -295 -123q-111 -118 -111 -293z" />
    <glyph glyph-name="Ugrave" unicode="&#xd9;" horiz-adv-x="1286" 
d="M1184 539q0 -254 -166 -414q-151 -145 -375 -145q-236 0 -387 151q-156 159 -156 408v690h248v-703q0 -150 86 -233q82 -88 209 -88q121 0 211 90q82 79 82 231v703h248v-690zM590 1792l178 -406l-162 -77l-209 387z" />
    <glyph glyph-name="Uacute" unicode="&#xda;" horiz-adv-x="1286" 
d="M1184 539q0 -254 -166 -414q-151 -145 -375 -145q-236 0 -387 151q-156 159 -156 408v690h248v-703q0 -150 86 -233q82 -88 209 -88q121 0 211 90q82 79 82 231v703h248v-690zM541 1386l178 406l192 -96l-209 -387z" />
    <glyph glyph-name="Ucircumflex" unicode="&#xdb;" horiz-adv-x="1286" 
d="M1184 539q0 -254 -166 -414q-151 -145 -375 -145q-236 0 -387 151q-156 159 -156 408v690h248v-703q0 -150 86 -233q82 -88 209 -88q121 0 211 90q82 79 82 231v703h248v-690zM418 1292l-111 119l285 283h96l285 -283l-111 -119l-221 183z" />
    <glyph glyph-name="Udieresis" unicode="&#xdc;" horiz-adv-x="1286" 
d="M1184 539q0 -254 -166 -414q-151 -145 -375 -145q-236 0 -387 151q-156 159 -156 408v690h248v-703q0 -150 86 -233q82 -88 209 -88q121 0 211 90q82 79 82 231v703h248v-690zM709 1462q0 61 40 102.5t101 41.5t104 -42t43 -102t-43 -102.5t-104 -42.5t-101 42t-40 103z
M285 1462q0 60 42.5 102t102.5 42t102.5 -42t42.5 -102t-42.5 -102.5t-102.5 -42.5t-102.5 42.5t-42.5 102.5z" />
    <glyph glyph-name="Yacute" unicode="&#xdd;" horiz-adv-x="1390" 
d="M817 0h-242v297l-530 932h283l358 -674h21l364 674h268l-522 -934v-295zM616 1386l179 406l192 -96l-209 -387z" />
    <glyph glyph-name="Thorn" unicode="&#xde;" horiz-adv-x="1206" 
d="M1145 623q0 -89 -36.5 -171.5t-98.5 -144.5q-137 -131 -330 -131h-334v-176h-244v1229h244v-152h334q105 0 199.5 -44t160.5 -122q105 -133 105 -288zM686 395q46 0 89.5 20t70.5 52q55 76 55 156q0 95 -55 159q-62 74 -176 74h-324v-461h340z" />
    <glyph glyph-name="germandbls" unicode="&#xdf;" horiz-adv-x="1247" 
d="M102 0v926q0 165 99 264q104 104 297 104q191 0 288 -106q76 -82 76 -213q0 -80 -24 -148q-136 -18 -174 -36q-43 -21 -43 -56q0 -27 32 -45q35 -15 72 -24l109 -25q193 -42 274 -133q70 -76 70 -205q0 -113 -84 -201q-112 -120 -342 -120q-204 0 -375 65l65 209
q129 -51 308 -51q96 0 143 41q33 26 33 63q0 38 -23 58q-4 4 -8 7t-9.5 6t-10 5t-12 4.5t-11.5 3.5t-13.5 3.5t-13.5 3.5t-15 3t-15 3l-129 26q-141 31 -207 94q-88 88 -88 191q0 111 82 190q53 53 174 97q-8 32 -35 53q-26 18 -90 22q-86 0 -125 -39q-35 -41 -35 -110v-930
h-240z" />
    <glyph glyph-name="agrave" unicode="&#xe0;" horiz-adv-x="1251" 
d="M506 1024h239l455 -1024h-268l-76 176h-467l-76 -176h-262zM614 741l-131 -344h275l-129 344h-15zM557 1561l145 -363l-165 -78l-187 336z" />
    <glyph glyph-name="aacute" unicode="&#xe1;" horiz-adv-x="1251" 
d="M506 1024h239l455 -1024h-268l-76 176h-467l-76 -176h-262zM614 741l-131 -344h275l-129 344h-15zM575 1198l146 363l207 -105l-187 -336z" />
    <glyph glyph-name="acircumflex" unicode="&#xe2;" horiz-adv-x="1251" 
d="M506 1024h239l455 -1024h-268l-76 176h-467l-76 -176h-262zM614 741l-131 -344h275l-129 344h-15zM938 1223l-113 -125l-198 166l-197 -166l-117 125l267 264h94z" />
    <glyph glyph-name="atilde" unicode="&#xe3;" horiz-adv-x="1251" 
d="M506 1024h239l455 -1024h-268l-76 176h-467l-76 -176h-262zM614 741l-131 -344h275l-129 344h-15zM768 1141q-66 0 -139 24q-74 31 -146 31q-82 0 -135 -43l-98 119q96 110 229 110q72 0 139 -28q69 -31 146 -31q79 0 137 47l94 -123q-93 -106 -227 -106z" />
    <glyph glyph-name="adieresis" unicode="&#xe4;" horiz-adv-x="1251" 
d="M506 1024h239l455 -1024h-268l-76 176h-467l-76 -176h-262zM614 741l-131 -344h275l-129 344h-15zM688 1251q0 58 39 98t98 40q57 0 97.5 -40.5t40.5 -97.5t-40.5 -97t-97.5 -40q-59 0 -98 39.5t-39 97.5zM287 1251q0 57 40 97.5t97 40.5t97 -40.5t40 -97.5t-40 -97
t-97 -40t-97 40t-40 97z" />
    <glyph glyph-name="aring" unicode="&#xe5;" horiz-adv-x="1251" 
d="M506 1024h239l455 -1024h-268l-76 176h-467l-76 -176h-262zM614 741l-131 -344h275l-129 344h-15zM627 1090q-91 0 -150 59q-63 57 -63 151q0 87 63 150t150 63q89 0 153 -71q56 -59 56 -142q0 -93 -66 -153q-57 -57 -143 -57zM627 1233q24 0 47 20q20 20 20 47
q0 30 -20 50q-19 16 -47 16q-29 0 -47 -18q-21 -18 -21 -48q0 -24 23 -47q20 -20 45 -20z" />
    <glyph glyph-name="ae" unicode="&#xe6;" horiz-adv-x="1761" 
d="M856 0v182h-407l-107 -182h-291l619 1024h989v-221h-557v-156h493v-221h-493v-207h577v-219h-823zM797 805l-222 -404h281v404h-59z" />
    <glyph glyph-name="ccedilla" unicode="&#xe7;" horiz-adv-x="1130" 
d="M319 514q0 -135 84 -219q41 -44 99.5 -68t122.5 -24q80 0 145.5 29t140.5 98l152 -160q-98 -98 -195.5 -142.5t-220.5 -45.5l-2 -45q70 0 107 -46q28 -36 28 -81q0 -92 -61 -156q-81 -81 -207 -117l-43 109q75 32 100 63q21 34 21 62q0 19 -19 32q-16 13 -39 13h-49v180
q-185 38 -295 172q-118 144 -118 346q0 238 176 393q158 135 379 135q131 0 234 -43.5t204 -144.5l-156 -158q-69 71 -134 98t-148 27q-67 0 -126.5 -22t-97.5 -62q-82 -88 -82 -223z" />
    <glyph glyph-name="egrave" unicode="&#xe8;" horiz-adv-x="1028" 
d="M102 0v1024h826v-221h-580v-176h518v-219h-518v-189h598v-219h-844zM516 1561l146 -363l-166 -78l-187 336z" />
    <glyph glyph-name="eacute" unicode="&#xe9;" horiz-adv-x="1028" 
d="M102 0v1024h826v-221h-580v-176h518v-219h-518v-189h598v-219h-844zM399 1198l146 363l207 -105l-187 -336z" />
    <glyph glyph-name="ecircumflex" unicode="&#xea;" horiz-adv-x="1028" 
d="M102 0v1024h826v-221h-580v-176h518v-219h-518v-189h598v-219h-844zM821 1223l-112 -125l-199 166l-197 -166l-116 125l266 264h94z" />
    <glyph glyph-name="edieresis" unicode="&#xeb;" horiz-adv-x="1028" 
d="M102 0v1024h826v-221h-580v-176h518v-219h-518v-189h598v-219h-844zM580 1251q0 58 39 98t98 40q57 0 97 -40.5t40 -97.5t-40 -97t-97 -40q-59 0 -98 39.5t-39 97.5zM178 1251q0 57 40 97.5t97 40.5t97.5 -40.5t40.5 -97.5t-40.5 -97t-97.5 -40t-97 40t-40 97z" />
    <glyph glyph-name="igrave" unicode="&#xec;" horiz-adv-x="454" 
d="M102 1024h250v-1024h-250v1024zM211 1561l145 -363l-166 -78l-186 336z" />
    <glyph glyph-name="iacute" unicode="&#xed;" horiz-adv-x="454" 
d="M102 1024h250v-1024h-250v1024zM113 1198l145 363l207 -105l-186 -336z" />
    <glyph glyph-name="icircumflex" unicode="&#xee;" horiz-adv-x="454" 
d="M102 1024h250v-1024h-250v1024zM543 1223l-113 -125l-199 166l-196 -166l-117 125l266 264h95z" />
    <glyph glyph-name="idieresis" unicode="&#xef;" horiz-adv-x="454" 
d="M102 1024h250v-1024h-250v1024zM295 1251q0 58 39 98t98 40q57 0 97 -40.5t40 -97.5t-40 -97t-97 -40q-59 0 -98 39.5t-39 97.5zM-106 1251q0 57 40 97.5t97 40.5t97 -40.5t40 -97.5t-40 -97t-97 -40t-97 40t-40 97z" />
    <glyph glyph-name="eth" unicode="&#xf0;" horiz-adv-x="1134" 
d="M14 430v180h88v414h439q230 0 377 -147q145 -145 145 -365q0 -109 -38 -203.5t-107 -163.5q-148 -145 -377 -145h-439v430h-88zM532 803h-184v-193h254v-180h-254v-211h184q133 0 211 88q74 74 74 205q0 130 -76 209q-79 82 -209 82z" />
    <glyph glyph-name="ntilde" unicode="&#xf1;" horiz-adv-x="1177" 
d="M836 1024h239v-1024h-219l-512 618v-618h-242v1024h220l514 -616v616zM727 1141q-65 0 -139 24q-74 31 -146 31q-82 0 -135 -43l-98 119q96 110 229 110q73 0 140 -28q69 -31 145 -31q79 0 137 47l94 -123q-93 -106 -227 -106z" />
    <glyph glyph-name="ograve" unicode="&#xf2;" 
d="M606 1042q116 0 218 -42t175 -117q150 -150 150 -371q0 -111 -41 -210.5t-119 -172.5q-153 -147 -383 -147q-240 0 -391 151q-73 73 -114.5 172t-41.5 207q0 111 44.5 210.5t123.5 174.5q155 145 379 145zM307 512q0 -141 86 -221q84 -90 213 -90q123 0 207 84
q88 79 88 227q0 144 -88 229q-88 82 -207 82q-131 0 -215 -90q-84 -81 -84 -221zM520 1561l146 -363l-166 -78l-187 336z" />
    <glyph glyph-name="oacute" unicode="&#xf3;" 
d="M606 1042q116 0 218 -42t175 -117q150 -150 150 -371q0 -111 -41 -210.5t-119 -172.5q-153 -147 -383 -147q-240 0 -391 151q-73 73 -114.5 172t-41.5 207q0 111 44.5 210.5t123.5 174.5q155 145 379 145zM307 512q0 -141 86 -221q84 -90 213 -90q123 0 207 84
q88 79 88 227q0 144 -88 229q-88 82 -207 82q-131 0 -215 -90q-84 -81 -84 -221zM537 1198l145 363l207 -105l-187 -336z" />
    <glyph glyph-name="ocircumflex" unicode="&#xf4;" 
d="M606 1042q116 0 218 -42t175 -117q150 -150 150 -371q0 -111 -41 -210.5t-119 -172.5q-153 -147 -383 -147q-240 0 -391 151q-73 73 -114.5 172t-41.5 207q0 111 44.5 210.5t123.5 174.5q155 145 379 145zM307 512q0 -141 86 -221q84 -90 213 -90q123 0 207 84
q88 79 88 227q0 144 -88 229q-88 82 -207 82q-131 0 -215 -90q-84 -81 -84 -221zM918 1223l-113 -125l-199 166l-196 -166l-117 125l266 264h94z" />
    <glyph glyph-name="otilde" unicode="&#xf5;" 
d="M606 1042q116 0 218 -42t175 -117q150 -150 150 -371q0 -111 -41 -210.5t-119 -172.5q-153 -147 -383 -147q-240 0 -391 151q-73 73 -114.5 172t-41.5 207q0 111 44.5 210.5t123.5 174.5q155 145 379 145zM307 512q0 -141 86 -221q84 -90 213 -90q123 0 207 84
q88 79 88 227q0 144 -88 229q-88 82 -207 82q-131 0 -215 -90q-84 -81 -84 -221zM750 1141q-66 0 -140 24q-74 31 -145 31q-82 0 -135 -43l-99 119q96 110 230 110q72 0 139 -28q69 -31 145 -31q80 0 138 47l94 -123q-93 -106 -227 -106z" />
    <glyph glyph-name="odieresis" unicode="&#xf6;" 
d="M606 1042q116 0 218 -42t175 -117q150 -150 150 -371q0 -111 -41 -210.5t-119 -172.5q-153 -147 -383 -147q-240 0 -391 151q-73 73 -114.5 172t-41.5 207q0 111 44.5 210.5t123.5 174.5q155 145 379 145zM307 512q0 -141 86 -221q84 -90 213 -90q123 0 207 84
q88 79 88 227q0 144 -88 229q-88 82 -207 82q-131 0 -215 -90q-84 -81 -84 -221zM668 1251q0 58 39 98t98 40q57 0 97 -40.5t40 -97.5t-40 -97t-97 -40q-59 0 -98 39.5t-39 97.5zM266 1251q0 57 40 97.5t97 40.5t97.5 -40.5t40.5 -97.5t-40.5 -97t-97.5 -40t-97 40t-40 97z
" />
    <glyph glyph-name="divide" unicode="&#xf7;" horiz-adv-x="696" 
d="M35 625h633v-197h-633v197zM193 825q0 66 41 107t110 41q71 0 112.5 -40.5t41.5 -107.5q0 -64 -41.5 -105.5t-112.5 -41.5q-68 0 -109.5 41.5t-41.5 105.5zM193 209q0 66 41 106.5t110 40.5q71 0 112.5 -40t41.5 -107q0 -65 -42 -106.5t-112 -41.5q-68 0 -109.5 42
t-41.5 106z" />
    <glyph glyph-name="oslash" unicode="&#xf8;" 
d="M606 1042q158 0 275 -69l61 71l141 -114l-61 -72q73 -82 106 -186q21 -74 21 -160q0 -111 -41 -210.5t-119 -172.5q-153 -147 -383 -147q-149 0 -270 65l-60 -72l-143 119l53 66q-60 72 -90 155q-35 96 -35 197q0 111 43.5 212t122.5 175q153 143 379 143zM307 512
q0 -49 10 -88q12 -52 25 -78l389 451q-63 26 -125 26q-131 0 -215 -90q-84 -81 -84 -221zM895 590q-7 38 -25 82l-387 -447q67 -24 123 -24q123 0 207 84q88 79 88 227q0 51 -6 78z" />
    <glyph glyph-name="ugrave" unicode="&#xf9;" horiz-adv-x="1120" 
d="M1018 442q0 -208 -139 -338q-126 -120 -316 -120q-202 0 -330 131q-131 134 -131 327v582h246v-592q0 -104 60 -164q57 -63 155 -63q94 0 152 61q57 64 57 166v592h246v-582zM518 1561l146 -363l-166 -78l-187 336z" />
    <glyph glyph-name="uacute" unicode="&#xfa;" horiz-adv-x="1120" 
d="M1018 442q0 -208 -139 -338q-126 -120 -316 -120q-202 0 -330 131q-131 134 -131 327v582h246v-592q0 -104 60 -164q57 -63 155 -63q94 0 152 61q57 64 57 166v592h246v-582zM461 1198l145 363l207 -105l-186 -336z" />
    <glyph glyph-name="ucircumflex" unicode="&#xfb;" horiz-adv-x="1120" 
d="M1018 442q0 -208 -139 -338q-126 -120 -316 -120q-202 0 -330 131q-131 134 -131 327v582h246v-592q0 -104 60 -164q57 -63 155 -63q94 0 152 61q57 64 57 166v592h246v-582zM872 1223l-112 -125l-199 166l-196 -166l-117 125l266 264h94z" />
    <glyph glyph-name="udieresis" unicode="&#xfc;" horiz-adv-x="1120" 
d="M1018 442q0 -208 -139 -338q-126 -120 -316 -120q-202 0 -330 131q-131 134 -131 327v582h246v-592q0 -104 60 -164q57 -63 155 -63q94 0 152 61q57 64 57 166v592h246v-582zM625 1251q0 58 39 98t98 40q57 0 97 -40.5t40 -97.5t-40 -97t-97 -40q-59 0 -98 39.5t-39 97.5
zM223 1251q0 57 40 97.5t97 40.5t97.5 -40.5t40.5 -97.5t-40.5 -97t-97.5 -40t-97 40t-40 97z" />
    <glyph glyph-name="yacute" unicode="&#xfd;" horiz-adv-x="1212" 
d="M729 0h-246v248l-432 776h279l276 -532h12l269 532h274l-432 -778v-246zM528 1198l146 363l207 -105l-187 -336z" />
    <glyph glyph-name="thorn" unicode="&#xfe;" horiz-adv-x="1052" 
d="M991 524q0 -151 -104 -258q-118 -125 -314 -125h-225v-141h-246v1024h246v-115h225q189 0 312 -123q106 -106 106 -262zM580 360q88 0 125 50q40 46 40 114q0 66 -36 111q-48 51 -142 51h-219v-326h232z" />
    <glyph glyph-name="ydieresis" unicode="&#xff;" horiz-adv-x="1212" 
d="M729 0h-246v248l-432 776h279l276 -532h12l269 532h274l-432 -778v-246zM670 1251q0 58 39 98t98 40q57 0 97 -40.5t40 -97.5t-40 -97t-97 -40q-59 0 -98 39.5t-39 97.5zM268 1251q0 57 40.5 97.5t97.5 40.5t97 -40.5t40 -97.5t-40 -97t-97 -40t-97.5 40t-40.5 97z" />
    <glyph glyph-name="Amacron" unicode="&#x100;" horiz-adv-x="1441" 
d="M596 1229h250l545 -1229h-265l-100 219h-616l-99 -219h-260zM705 977l-201 -535h430l-211 535h-18zM379 1516h680v-185h-680v185z" />
    <glyph glyph-name="amacron" unicode="&#x101;" horiz-adv-x="1251" 
d="M506 1024h239l455 -1024h-268l-76 176h-467l-76 -176h-262zM614 741l-131 -344h275l-129 344h-15zM330 1309h588v-172h-588v172z" />
    <glyph glyph-name="Abreve" unicode="&#x102;" horiz-adv-x="1441" 
d="M596 1229h250l545 -1229h-265l-100 219h-616l-99 -219h-260zM705 977l-201 -535h430l-211 535h-18zM870 1608l166 -86q-32 -80 -118 -144q-85 -63 -201 -63q-112 0 -193 63q-89 62 -121 144l166 86q22 -39 52 -66q39 -39 98 -39q54 0 96 33q33 23 55 72z" />
    <glyph glyph-name="abreve" unicode="&#x103;" horiz-adv-x="1251" 
d="M506 1024h239l455 -1024h-268l-76 176h-467l-76 -176h-262zM614 741l-131 -344h275l-129 344h-15zM621 1110q-114 0 -193 57q-84 59 -121 146l174 86q18 -32 41 -58q38 -38 103 -38q62 0 100 38q24 24 43 58l172 -86q-34 -85 -115 -142q-86 -61 -204 -61z" />
    <glyph glyph-name="Aogonek" unicode="&#x104;" horiz-adv-x="1441" 
d="M596 1229h250l545 -1229q-40 0 -54 -33q-14 -25 -14 -76q0 -54 39 -110q51 -66 100 -96l-61 -99q-118 34 -178 84q-93 73 -93 180q0 72 29 111l-127 258h-629l-98 -219h-254zM705 977l-207 -535h442l-217 535h-18z" />
    <glyph glyph-name="aogonek" unicode="&#x105;" horiz-adv-x="1251" 
d="M506 1024h239l455 -1024q-38 -8 -61 -41q-19 -25 -19 -51q0 -57 35 -92q36 -39 96 -64l-49 -102q-134 30 -190 88q-28 30 -41 57.5t-13 71.5q0 79 68 133h-94l-76 176h-467l-76 -176h-262zM616 741l-133 -344h275l-131 344h-11z" />
    <glyph glyph-name="Cacute" unicode="&#x106;" horiz-adv-x="1273" 
d="M303 616q0 -181 111 -292q123 -123 293 -123q101 0 186.5 37.5t173.5 117.5l145 -161q-116 -118 -231.5 -168t-273.5 -50q-283 0 -463 177q-185 182 -185 462q0 267 181 451q88 88 207.5 136t259.5 48q156 0 272 -48.5t233 -160.5l-145 -165q-87 80 -172.5 116.5
t-187.5 36.5q-165 0 -283 -115q-55 -55 -88 -134t-33 -165zM641 1386l178 406l193 -96l-209 -387z" />
    <glyph glyph-name="cacute" unicode="&#x107;" horiz-adv-x="1130" 
d="M319 514q0 -135 84 -219q41 -44 99.5 -68t122.5 -24q80 0 145.5 29t140.5 98l152 -160q-105 -100 -205 -144t-233 -44q-139 0 -250.5 48.5t-186.5 137.5q-118 144 -118 346q0 238 176 393q158 135 379 135q131 0 234 -43.5t204 -144.5l-156 -158q-69 71 -134 98t-148 27
q-67 0 -126.5 -22t-97.5 -62q-82 -88 -82 -223zM532 1198l146 363l207 -105l-187 -336z" />
    <glyph glyph-name="Ccircumflex" unicode="&#x108;" horiz-adv-x="1273" 
d="M303 616q0 -181 111 -292q123 -123 293 -123q101 0 186.5 37.5t173.5 117.5l145 -161q-116 -118 -231.5 -168t-273.5 -50q-283 0 -463 177q-185 182 -185 462q0 267 181 451q88 88 207.5 136t259.5 48q156 0 272 -48.5t233 -160.5l-145 -165q-87 80 -172.5 116.5
t-187.5 36.5q-165 0 -283 -115q-55 -55 -88 -134t-33 -165zM483 1292l-110 119l284 283h97l284 -283l-110 -119l-221 183z" />
    <glyph glyph-name="ccircumflex" unicode="&#x109;" horiz-adv-x="1130" 
d="M319 514q0 -135 84 -219q41 -44 99.5 -68t122.5 -24q80 0 145.5 29t140.5 98l152 -160q-105 -100 -205 -144t-233 -44q-139 0 -250.5 48.5t-186.5 137.5q-118 144 -118 346q0 238 176 393q158 135 379 135q131 0 234 -43.5t204 -144.5l-156 -158q-69 71 -134 98t-148 27
q-67 0 -126.5 -22t-97.5 -62q-82 -88 -82 -223zM936 1223l-113 -125l-198 166l-197 -166l-117 125l267 264h94z" />
    <glyph glyph-name="Cdotaccent" unicode="&#x10a;" horiz-adv-x="1273" 
d="M303 616q0 -181 111 -292q123 -123 293 -123q101 0 186.5 37.5t173.5 117.5l145 -161q-116 -118 -231.5 -168t-273.5 -50q-283 0 -463 177q-185 182 -185 462q0 267 181 451q88 88 207.5 136t259.5 48q156 0 272 -48.5t233 -160.5l-145 -165q-87 80 -172.5 116.5
t-187.5 36.5q-165 0 -283 -115q-55 -55 -88 -134t-33 -165zM557 1464q0 66 45 109t109 43q62 0 104.5 -42.5t42.5 -109.5q0 -65 -42 -105t-105 -40q-65 0 -109.5 40.5t-44.5 104.5z" />
    <glyph glyph-name="cdotaccent" unicode="&#x10b;" horiz-adv-x="1130" 
d="M319 514q0 -135 84 -219q41 -44 99.5 -68t122.5 -24q80 0 145.5 29t140.5 98l152 -160q-105 -100 -205 -144t-233 -44q-139 0 -250.5 48.5t-186.5 137.5q-118 144 -118 346q0 238 176 393q158 135 379 135q131 0 234 -43.5t204 -144.5l-156 -158q-69 71 -134 98t-148 27
q-67 0 -126.5 -22t-97.5 -62q-82 -88 -82 -223zM487 1284q0 59 41 100t99 41q60 0 100.5 -40.5t40.5 -100.5q0 -58 -41 -98.5t-100 -40.5q-57 0 -98.5 41t-41.5 98z" />
    <glyph glyph-name="Ccaron" unicode="&#x10c;" horiz-adv-x="1273" 
d="M303 616q0 -181 111 -292q123 -123 293 -123q101 0 186.5 37.5t173.5 117.5l145 -161q-116 -118 -231.5 -168t-273.5 -50q-283 0 -463 177q-185 182 -185 462q0 267 181 451q88 88 207.5 136t259.5 48q156 0 272 -48.5t233 -160.5l-145 -165q-87 80 -172.5 116.5
t-187.5 36.5q-165 0 -283 -115q-55 -55 -88 -134t-33 -165zM379 1591l113 119l221 -182l221 182l110 -119l-284 -284h-96z" />
    <glyph glyph-name="ccaron" unicode="&#x10d;" horiz-adv-x="1130" 
d="M319 514q0 -135 84 -219q41 -44 99.5 -68t122.5 -24q80 0 145.5 29t140.5 98l152 -160q-105 -100 -205 -144t-233 -44q-139 0 -250.5 48.5t-186.5 137.5q-118 144 -118 346q0 238 176 393q158 135 379 135q131 0 234 -43.5t204 -144.5l-156 -158q-69 71 -134 98t-148 27
q-67 0 -126.5 -22t-97.5 -62q-82 -88 -82 -223zM299 1364l113 123l198 -164l195 164l119 -123l-267 -266h-96z" />
    <glyph glyph-name="Dcaron" unicode="&#x10e;" horiz-adv-x="1312" 
d="M102 1229h494q299 0 481 -191q164 -167 164 -424q0 -132 -48 -247t-136 -201q-174 -166 -461 -166h-494v1229zM588 1006h-246v-785h246q196 0 303 107q106 106 106 286q0 179 -102 281q-111 111 -307 111zM258 1591l113 119l221 -182l221 182l111 -119l-285 -284h-96z
" />
    <glyph glyph-name="dcaron" unicode="&#x10f;" horiz-adv-x="1134" 
d="M102 1024h418q251 0 398 -147q145 -145 145 -365q0 -109 -38 -203.5t-107 -163.5q-148 -145 -398 -145h-418v1024zM512 803h-164v-584h164q153 0 231 88q74 74 74 205q0 130 -76 209q-79 82 -229 82zM217 1364l113 123l198 -164l195 164l119 -123l-267 -266h-96z" />
    <glyph glyph-name="Dcroat" unicode="&#x110;" horiz-adv-x="1312" 
d="M4 711h98v518h514q279 0 461 -191q164 -167 164 -424q0 -132 -48 -247t-136 -201q-83 -79 -196 -122.5t-245 -43.5h-514v520h-98v191zM608 1006h-266v-295h389v-191h-389v-299h266q176 0 283 107q106 106 106 286q0 179 -102 281q-111 111 -287 111z" />
    <glyph glyph-name="dslash" unicode="&#x111;" horiz-adv-x="1134" 
d="M14 430v180h88v414h439q230 0 377 -147q145 -145 145 -365q0 -109 -38 -203.5t-107 -163.5q-148 -145 -377 -145h-439v430h-88zM532 803h-184v-193h254v-180h-254v-211h184q133 0 211 88q74 74 74 205q0 130 -76 209q-79 82 -209 82z" />
    <glyph glyph-name="Emacron" unicode="&#x112;" horiz-adv-x="1175" 
d="M102 0v1229h963v-225h-715v-250h639v-224h-639v-307h744v-223h-992zM248 1516h680v-185h-680v185z" />
    <glyph glyph-name="emacron" unicode="&#x113;" horiz-adv-x="1028" 
d="M102 0v1024h826v-221h-580v-176h518v-219h-518v-189h598v-219h-844zM221 1309h588v-172h-588v172z" />
    <glyph glyph-name="Ebreve" unicode="&#x114;" horiz-adv-x="1175" 
d="M102 0v1229h963v-225h-715v-250h639v-224h-639v-307h744v-223h-992zM735 1608l166 -86q-31 -79 -119 -144q-85 -63 -200 -63q-112 0 -193 63q-89 62 -121 144l166 86q23 -41 51 -66q39 -39 99 -39q54 0 96 33q33 23 55 72z" />
    <glyph glyph-name="ebreve" unicode="&#x115;" horiz-adv-x="1028" 
d="M102 0v1024h826v-221h-580v-176h518v-219h-518v-189h598v-219h-844zM549 1110q-114 0 -193 57q-82 58 -120 146l174 86q18 -32 41 -58q38 -38 102 -38q62 0 100 38q24 24 43 58l172 -86q-34 -86 -114 -142q-86 -61 -205 -61z" />
    <glyph glyph-name="Edotaccent" unicode="&#x116;" horiz-adv-x="1175" 
d="M102 0v1229h963v-225h-715v-250h639v-224h-639v-307h744v-223h-992zM449 1458q0 60 40.5 100.5t98.5 40.5q60 0 100.5 -40.5t40.5 -100.5q0 -58 -40.5 -98.5t-100.5 -40.5q-57 0 -98 41t-41 98z" />
    <glyph glyph-name="edotaccent" unicode="&#x117;" horiz-adv-x="1028" 
d="M102 0v1024h826v-221h-580v-176h518v-219h-518v-189h598v-219h-844zM369 1274q0 60 40.5 100.5t98.5 40.5q60 0 100.5 -40.5t40.5 -100.5q0 -58 -40.5 -98.5t-100.5 -40.5q-57 0 -98 41t-41 98z" />
    <glyph glyph-name="Eogonek" unicode="&#x118;" horiz-adv-x="1175" 
d="M102 0v1229h963v-225h-715v-250h639v-224h-639v-307h744v-223q-35 0 -64 -37q-26 -39 -26 -88q0 -53 36 -102q35 -52 93 -88l-62 -109q-120 42 -176 98q-74 74 -74 179q0 89 82 147h-801z" />
    <glyph glyph-name="eogonek" unicode="&#x119;" horiz-adv-x="1028" 
d="M102 0v1024h826v-221h-580v-176h518v-219h-518v-189h598v-219q-42 -3 -65 -23q-28 -22 -31 -69q0 -43 29 -80q37 -49 96 -76l-53 -102q-117 26 -174 86q-60 54 -60 141q0 79 68 123h-654z" />
    <glyph glyph-name="Ecaron" unicode="&#x11a;" horiz-adv-x="1175" 
d="M102 0v1229h963v-225h-715v-250h639v-224h-639v-307h744v-223h-992zM250 1591l112 119l222 -182l221 182l110 -119l-284 -284h-96z" />
    <glyph glyph-name="ecaron" unicode="&#x11b;" horiz-adv-x="1028" 
d="M102 0v1024h826v-221h-580v-176h518v-219h-518v-189h598v-219h-844zM240 1364l112 123l199 -164l194 164l119 -123l-266 -266h-96z" />
    <glyph glyph-name="Gcircumflex" unicode="&#x11c;" horiz-adv-x="1331" 
d="M1225 723v-709l-166 -24l-27 69q-134 -82 -315 -82q-327 0 -502 199q-152 168 -152 440q0 281 189 461q180 174 469 174q305 0 498 -215l-160 -159q-79 81 -157 117t-181 36q-190 0 -301 -123q-103 -112 -103 -291q0 -191 117 -305q114 -108 283 -108q157 0 264 73v220
l-309 18v209h553zM510 1292l-111 119l285 283h96l285 -283l-111 -119l-221 183z" />
    <glyph glyph-name="gcircumflex" unicode="&#x11d;" horiz-adv-x="1161" 
d="M1047 614v-594l-144 -32l-47 61q-94 -67 -250 -67q-230 0 -379 143q-75 72 -115 172.5t-40 216.5q0 110 40 208t117 171q73 70 174.5 109.5t217.5 39.5q132 0 236.5 -44.5t199.5 -145.5l-160 -158q-71 73 -132.5 100t-143.5 27q-133 0 -213 -86q-89 -83 -89 -221t87 -225
q83 -86 210 -86q101 0 185 51v145l-244 11v204h490zM932 1223l-113 -125l-198 166l-197 -166l-117 125l266 264h95z" />
    <glyph glyph-name="Gbreve" unicode="&#x11e;" horiz-adv-x="1331" 
d="M1225 723v-709l-166 -24l-27 69q-134 -82 -315 -82q-327 0 -502 199q-152 168 -152 440q0 281 189 461q180 174 469 174q305 0 498 -215l-160 -159q-79 81 -157 117t-181 36q-190 0 -301 -123q-103 -112 -103 -291q0 -191 117 -305q114 -108 283 -108q157 0 264 73v220
l-309 18v209h553zM872 1608l166 -86q-32 -80 -118 -144q-85 -63 -201 -63q-112 0 -193 63q-87 61 -120 144l165 86q22 -39 52 -66q39 -39 98 -39q54 0 96 33q33 23 55 72z" />
    <glyph glyph-name="gbreve" unicode="&#x11f;" horiz-adv-x="1161" 
d="M1047 614v-594l-144 -32l-47 61q-94 -67 -250 -67q-230 0 -379 143q-75 72 -115 172.5t-40 216.5q0 110 40 208t117 171q73 70 174.5 109.5t217.5 39.5q132 0 236.5 -44.5t199.5 -145.5l-160 -158q-71 73 -132.5 100t-143.5 27q-133 0 -213 -86q-89 -83 -89 -221t87 -225
q83 -86 210 -86q101 0 185 51v145l-244 11v204h490zM621 1110q-114 0 -193 57q-84 59 -121 146l174 86q18 -32 41 -58q38 -38 103 -38q62 0 100 38q24 24 43 58l172 -86q-34 -85 -115 -142q-86 -61 -204 -61z" />
    <glyph glyph-name="Gdotaccent" unicode="&#x120;" horiz-adv-x="1331" 
d="M1225 723v-709l-166 -24l-27 69q-134 -82 -315 -82q-327 0 -502 199q-152 168 -152 440q0 281 189 461q180 174 469 174q305 0 498 -215l-160 -159q-79 81 -157 117t-181 36q-190 0 -301 -123q-103 -112 -103 -291q0 -191 117 -305q114 -108 283 -108q157 0 264 73v220
l-309 18v209h553zM580 1479q0 66 44.5 108.5t108.5 42.5q63 0 105.5 -42.5t42.5 -108.5q0 -65 -42.5 -105.5t-105.5 -40.5q-64 0 -108.5 40.5t-44.5 105.5z" />
    <glyph glyph-name="gdotaccent" unicode="&#x121;" horiz-adv-x="1161" 
d="M1047 614v-594l-144 -32l-47 61q-94 -67 -250 -67q-230 0 -379 143q-75 72 -115 172.5t-40 216.5q0 110 40 208t117 171q73 70 174.5 109.5t217.5 39.5q132 0 236.5 -44.5t199.5 -145.5l-160 -158q-71 73 -132.5 100t-143.5 27q-133 0 -213 -86q-89 -83 -89 -221t87 -225
q83 -86 210 -86q101 0 185 51v145l-244 11v204h490zM475 1276q0 60 40.5 100.5t98.5 40.5q60 0 101 -40.5t41 -100.5q0 -57 -41 -98t-101 -41q-57 0 -98 41t-41 98z" />
    <glyph glyph-name="Gcommaaccent" unicode="&#x122;" horiz-adv-x="1331" 
d="M1225 723v-709l-166 -24l-27 69q-134 -82 -315 -82q-327 0 -502 199q-152 168 -152 440q0 281 189 461q180 174 469 174q305 0 498 -215l-160 -159q-79 81 -157 117t-181 36q-190 0 -301 -123q-103 -112 -103 -291q0 -191 117 -305q114 -108 283 -108q157 0 264 73v220
l-309 18v209h553zM719 -78q64 0 100.5 -36.5t36.5 -92.5q0 -26 -16 -76l-72 -221l-100 12l8 160q-88 27 -88 125q0 56 35 92.5t96 36.5z" />
    <glyph glyph-name="gcommaaccent" unicode="&#x123;" horiz-adv-x="1161" 
d="M1047 614v-594l-144 -32l-47 61q-94 -67 -250 -67q-230 0 -379 143q-75 72 -115 172.5t-40 216.5q0 110 40 208t117 171q73 70 174.5 109.5t217.5 39.5q132 0 236.5 -44.5t199.5 -145.5l-160 -158q-71 73 -132.5 100t-143.5 27q-133 0 -213 -86q-89 -83 -89 -221t87 -225
q83 -86 210 -86q101 0 185 51v145l-244 11v204h490zM627 -59q58 0 91.5 -33t33.5 -84q0 -22 -13 -57l-82 -211l-118 32l22 127q-57 30 -57 109q0 51 32.5 84t90.5 33z" />
    <glyph glyph-name="Hcircumflex" unicode="&#x124;" horiz-adv-x="1292" 
d="M948 1229h242v-1229h-242v543h-600v-543h-246v1229h246v-467h600v467zM422 1292l-111 119l285 283h96l285 -283l-111 -119l-221 183z" />
    <glyph glyph-name="hcircumflex" unicode="&#x125;" horiz-adv-x="1130" 
d="M782 1024h246v-1024h-246v432h-434v-432h-246v1024h246v-371h434v371zM877 1223l-113 -125l-199 166l-196 -166l-117 125l266 264h94z" />
    <glyph glyph-name="Hbar" unicode="&#x126;" horiz-adv-x="1292" 
d="M952 1229h238v-154h65v-186h-65v-889h-238v543h-610v-543h-240v889h-63v186h63v154h240v-154h610v154zM342 760h610v129h-610v-129z" />
    <glyph glyph-name="hbar" unicode="&#x127;" horiz-adv-x="1130" 
d="M782 1024h246v-106h80v-170h-80v-748h-246v432h-434v-432h-246v748h-79v170h79v106h246v-106h434v106zM348 653h434v95h-434v-95z" />
    <glyph glyph-name="Itilde" unicode="&#x128;" horiz-adv-x="444" 
d="M342 1229v-1229h-240v1229h240zM371 1319q-77 0 -142 27q-72 30 -149 30q-78 0 -139 -49l-101 125q109 119 238 119q72 0 141 -29q82 -33 150 -33t139 50l98 -127q-104 -113 -235 -113z" />
    <glyph glyph-name="itilde" unicode="&#x129;" horiz-adv-x="454" 
d="M102 1024h250v-1024h-250v1024zM375 1141q-65 0 -139 24q-74 31 -146 31q-82 0 -135 -43l-98 119q96 110 229 110q72 0 139 -28q69 -31 146 -31q79 0 137 47l94 -123q-93 -106 -227 -106z" />
    <glyph glyph-name="imacron" unicode="&#x12b;" horiz-adv-x="454" 
d="M102 1024h250v-1024h-250v1024zM-63 1309h587v-172h-587v172z" />
    <glyph glyph-name="Ibreve" unicode="&#x12c;" horiz-adv-x="444" 
d="M342 1229v-1229h-240v1229h240zM375 1608l166 -86q-31 -79 -119 -144q-85 -63 -201 -63q-111 0 -192 63q-89 62 -121 144l166 86q23 -41 51 -66q39 -39 98 -39q54 0 96 33q34 24 56 72z" />
    <glyph glyph-name="Iogonek" unicode="&#x12e;" horiz-adv-x="444" 
d="M342 1229v-1229q-39 -6 -55 -35q-15 -27 -15 -67q0 -67 43 -125q34 -51 91 -88l-60 -99q-117 40 -180 105q-62 65 -62 159t68 150h-70v1229h240z" />
    <glyph glyph-name="iogonek" unicode="&#x12f;" horiz-adv-x="454" 
d="M102 1024h250v-1024q-40 -3 -65 -25q-27 -21 -27 -67q0 -56 39 -98q27 -29 86 -58l-53 -102q-117 26 -174 86q-60 54 -60 141q0 78 60 123h-56v1024z" />
    <glyph glyph-name="Idot" unicode="&#x130;" horiz-adv-x="444" 
d="M342 1229v-1229h-240v1229h240zM74 1479q0 66 44.5 108.5t108.5 42.5q63 0 105.5 -42.5t42.5 -108.5q0 -65 -42.5 -105.5t-105.5 -40.5q-64 0 -108.5 40.5t-44.5 105.5z" />
    <glyph glyph-name="Jcircumflex" unicode="&#x134;" horiz-adv-x="1107" 
d="M770 1229h246v-697q0 -139 -35.5 -237.5t-110.5 -171.5q-149 -146 -397 -146q-137 0 -241.5 44.5t-200.5 146.5l145 168q127 -127 287 -127q151 0 227 76q41 41 60.5 91.5t19.5 133.5v719zM713 1292l-111 119l285 283h96l285 -283l-111 -119l-221 183z" />
    <glyph glyph-name="jcircumflex" unicode="&#x135;" horiz-adv-x="968" 
d="M629 1024h248v-575q0 -230 -129 -353q-123 -114 -332 -114q-243 0 -385 178l151 153q100 -106 236 -106q99 0 157 67q54 64 54 162v588zM1057 1223l-113 -125l-199 166l-196 -166l-117 125l266 264h95z" />
    <glyph glyph-name="Kcommaaccent" unicode="&#x136;" horiz-adv-x="1245" 
d="M102 1229h246v-463h225l318 463h287l-394 -563l420 -666h-282l-344 547h-230v-547h-246v1229zM567 31q64 0 101 -36.5t37 -92.5q0 -23 -17 -76l-72 -221l-100 12l8 160q-88 27 -88 125q0 56 35 92.5t96 36.5z" />
    <glyph glyph-name="kcommaaccent" unicode="&#x137;" horiz-adv-x="1120" 
d="M102 1024h246v-379h150l266 379h293l-348 -481l366 -543h-299l-270 422h-158v-422h-246v1024zM561 41q64 0 98.5 -35t34.5 -92q0 -28 -10 -61l-94 -226l-105 27l33 139q-43 7 -65.5 40.5t-22.5 80.5q0 55 37 91t94 36z" />
    <glyph glyph-name="kgreenlandic" unicode="&#x138;" horiz-adv-x="1120" 
d="M102 1024h246v-379h150l266 379h293l-348 -481l366 -543h-299l-270 422h-158v-422h-246v1024z" />
    <glyph glyph-name="Lacute" unicode="&#x139;" horiz-adv-x="1110" 
d="M1059 219v-219h-957v1229h246v-1010h711zM147 1386l179 406l192 -96l-209 -387z" />
    <glyph glyph-name="lacute" unicode="&#x13a;" horiz-adv-x="960" 
d="M352 219h557v-219h-807v1024h250v-805zM147 1198l146 363l207 -105l-187 -336z" />
    <glyph glyph-name="Lcommaaccent" unicode="&#x13b;" horiz-adv-x="1110" 
d="M1059 219v-219h-957v1229h246v-1010h711zM588 -88q64 0 100.5 -36.5t36.5 -92.5q0 -26 -16 -76l-72 -221l-100 12l8 160q-88 27 -88 125q0 56 35 92.5t96 36.5z" />
    <glyph glyph-name="lcommaaccent" unicode="&#x13c;" horiz-adv-x="960" 
d="M352 219h557v-219h-807v1024h250v-805zM508 -45q64 0 98.5 -35t34.5 -92q0 -28 -10 -61l-94 -226l-105 27l33 139q-43 7 -65.5 40.5t-22.5 80.5q0 55 37 91t94 36z" />
    <glyph glyph-name="Lcaron" unicode="&#x13d;" horiz-adv-x="1110" 
d="M1059 219v-219h-957v1229h246v-1010h711zM-115 1591l113 119l221 -182l221 182l111 -119l-285 -284h-96z" />
    <glyph glyph-name="lcaron" unicode="&#x13e;" horiz-adv-x="843" 
d="M352 219h557v-219h-807v1024h250v-805zM-84 1364l113 123l198 -164l195 164l119 -123l-267 -266h-96z" />
    <glyph glyph-name="Ldot" unicode="&#x13f;" horiz-adv-x="1110" 
d="M1059 219v-219h-957v1229h246v-1010h711zM502 657q0 66 44.5 109t108.5 43q63 0 105.5 -42.5t42.5 -109.5q0 -65 -42.5 -105t-105.5 -40q-65 0 -109 40t-44 105z" />
    <glyph glyph-name="ldot" unicode="&#x140;" horiz-adv-x="960" 
d="M352 219h557v-219h-807v1024h250v-805zM504 623q0 59 41 100t98 41q60 0 100.5 -40.5t40.5 -100.5q0 -58 -41 -99t-100 -41q-57 0 -98 41.5t-41 98.5z" />
    <glyph glyph-name="Lslash" unicode="&#x141;" horiz-adv-x="1110" 
d="M33 514l-60 199l129 35v481h240v-416l197 57l59 -198l-256 -72v-383h717v-217h-957v532z" />
    <glyph glyph-name="lslash" unicode="&#x142;" horiz-adv-x="960" 
d="M41 375l-64 153l125 52v444h250v-342l123 49l62 -156l-185 -71v-285h557v-219h-807v399z" />
    <glyph glyph-name="Nacute" unicode="&#x143;" horiz-adv-x="1345" 
d="M1006 1229h237v-1229h-221l-678 831v-831h-242v1229h222l682 -836v836zM586 1386l178 406l192 -96l-208 -387z" />
    <glyph glyph-name="nacute" unicode="&#x144;" horiz-adv-x="1177" 
d="M836 1024h239v-1024h-219l-512 618v-618h-242v1024h220l514 -616v616zM502 1198l145 363l207 -105l-186 -336z" />
    <glyph glyph-name="Ncommaaccent" unicode="&#x145;" horiz-adv-x="1345" 
d="M1006 1229h237v-1229h-221l-678 831v-831h-242v1229h222l682 -836v836zM616 74q64 0 101 -36.5t37 -92.5q0 -23 -17 -76l-71 -221l-101 12l8 160q-88 27 -88 125q0 56 35 92.5t96 36.5z" />
    <glyph glyph-name="ncommaaccent" unicode="&#x146;" horiz-adv-x="1177" 
d="M836 1024h239v-1024h-219l-512 618v-618h-242v1024h220l514 -616v616zM582 70q64 0 98.5 -35t34.5 -92q0 -29 -10 -62l-95 -225l-104 27l33 139q-43 7 -65.5 40.5t-22.5 80.5q0 55 37 91t94 36z" />
    <glyph glyph-name="Ncaron" unicode="&#x147;" horiz-adv-x="1345" 
d="M1006 1229h237v-1229h-221l-678 831v-831h-242v1229h222l682 -836v836zM395 1591l113 119l221 -182l221 182l111 -119l-285 -284h-96z" />
    <glyph glyph-name="ncaron" unicode="&#x148;" horiz-adv-x="1177" 
d="M836 1024h239v-1024h-219l-512 618v-618h-242v1024h220l514 -616v616zM283 1364l112 123l199 -164l194 164l119 -123l-266 -266h-96z" />
    <glyph glyph-name="napostrophe" unicode="&#x149;" horiz-adv-x="1347" 
d="M1004 1024h239v-1024h-219l-512 618v-618h-242v1024h219l515 -616v616zM127 1284q64 0 98.5 -35t34.5 -92q0 -28 -10 -61l-94 -226l-105 27l33 139q-43 7 -65.5 40.5t-22.5 80.5q0 55 37 91t94 36z" />
    <glyph glyph-name="Omacron" unicode="&#x14c;" horiz-adv-x="1419" 
d="M709 1251q277 0 460 -180q189 -186 189 -457q0 -267 -176 -446q-185 -191 -473 -191q-145 0 -269.5 52.5t-210.5 146.5q-79 83 -124.5 199t-45.5 239q0 258 172 439q88 94 210.5 146t267.5 52zM303 614q0 -165 111 -286q56 -59 132.5 -93t162.5 -34q179 0 292 125
q109 119 109 288q0 184 -106 299q-114 117 -295 117t-295 -123q-111 -118 -111 -293zM369 1516h680v-185h-680v185z" />
    <glyph glyph-name="omacron" unicode="&#x14d;" 
d="M606 1042q116 0 218 -42t175 -117q150 -150 150 -371q0 -111 -41 -210.5t-119 -172.5q-153 -147 -383 -147q-240 0 -391 151q-73 73 -114.5 172t-41.5 207q0 111 44.5 210.5t123.5 174.5q155 145 379 145zM307 512q0 -141 86 -221q84 -90 213 -90q123 0 207 84
q88 79 88 227q0 144 -88 229q-88 82 -207 82q-131 0 -215 -90q-84 -81 -84 -221zM311 1309h588v-172h-588v172z" />
    <glyph glyph-name="Obreve" unicode="&#x14e;" horiz-adv-x="1419" 
d="M709 1251q277 0 460 -180q189 -186 189 -457q0 -267 -176 -446q-185 -191 -473 -191q-145 0 -269.5 52.5t-210.5 146.5q-79 83 -124.5 199t-45.5 239q0 258 172 439q88 94 210.5 146t267.5 52zM303 614q0 -165 111 -286q56 -59 132.5 -93t162.5 -34q179 0 292 125
q109 119 109 288q0 184 -106 299q-114 117 -295 117t-295 -123q-111 -118 -111 -293zM858 1608l166 -86q-31 -79 -119 -144q-85 -63 -200 -63q-112 0 -193 63q-89 62 -121 144l166 86q23 -41 51 -66q39 -39 99 -39q54 0 96 33q33 23 55 72z" />
    <glyph glyph-name="obreve" unicode="&#x14f;" 
d="M606 1042q116 0 218 -42t175 -117q150 -150 150 -371q0 -111 -41 -210.5t-119 -172.5q-153 -147 -383 -147q-240 0 -391 151q-73 73 -114.5 172t-41.5 207q0 111 44.5 210.5t123.5 174.5q155 145 379 145zM307 512q0 -141 86 -221q84 -90 213 -90q123 0 207 84
q88 79 88 227q0 144 -88 229q-88 82 -207 82q-131 0 -215 -90q-84 -81 -84 -221zM600 1110q-113 0 -192 57q-84 59 -121 146l174 86q18 -32 41 -58q38 -38 102 -38q63 0 101 38q24 24 43 58l172 -86q-34 -85 -115 -142q-86 -61 -205 -61z" />
    <glyph glyph-name="Ohungarumlaut" unicode="&#x150;" horiz-adv-x="1419" 
d="M709 1251q277 0 460 -180q189 -186 189 -457q0 -267 -176 -446q-185 -191 -473 -191q-145 0 -269.5 52.5t-210.5 146.5q-79 83 -124.5 199t-45.5 239q0 258 172 439q88 94 210.5 146t267.5 52zM303 614q0 -165 111 -286q56 -59 132.5 -93t162.5 -34q179 0 292 125
q109 119 109 288q0 184 -106 299q-114 117 -295 117t-295 -123q-111 -118 -111 -293zM516 1348l119 387l192 -80l-163 -365zM774 1356l166 381l188 -95l-198 -362z" />
    <glyph glyph-name="ohungarumlaut" unicode="&#x151;" 
d="M606 1042q116 0 218 -42t175 -117q150 -150 150 -371q0 -111 -41 -210.5t-119 -172.5q-153 -147 -383 -147q-240 0 -391 151q-73 73 -114.5 172t-41.5 207q0 111 44.5 210.5t123.5 174.5q155 145 379 145zM307 512q0 -141 86 -221q84 -90 213 -90q123 0 207 84
q88 79 88 227q0 144 -88 229q-88 82 -207 82q-131 0 -215 -90q-84 -81 -84 -221zM399 1182l107 366l194 -82l-151 -344zM647 1194l154 356l196 -94l-192 -342z" />
    <glyph glyph-name="OE" unicode="&#x152;" horiz-adv-x="2166" 
d="M711 1251q236 0 403 -135v113h942v-223h-698v-254h622v-222h-622v-309h727v-221h-971v115q-90 -71 -182 -104.5t-223 -33.5q-299 0 -482 195q-168 176 -168 442q0 127 45.5 241t128.5 202q87 93 209.5 143.5t268.5 50.5zM301 614q0 -164 111 -288q121 -131 299 -131
q185 0 297 124q108 121 108 295q0 178 -112 297q-114 123 -293 123q-186 0 -299 -125q-111 -118 -111 -295z" />
    <glyph glyph-name="oe" unicode="&#x153;" horiz-adv-x="1806" 
d="M606 1042q175 0 295 -86v68h805v-221h-559v-176h498v-219h-498v-189h577v-219h-823v66q-59 -48 -129.5 -66t-165.5 -18q-244 0 -391 147q-73 73 -113.5 173.5t-40.5 209.5q0 221 166 387q143 143 379 143zM307 512q0 -143 86 -223q82 -88 213 -88q123 0 207 84
q88 85 88 227q0 144 -88 229q-88 82 -207 82q-131 0 -215 -90q-84 -81 -84 -221z" />
    <glyph glyph-name="Racute" unicode="&#x154;" horiz-adv-x="1239" 
d="M1178 774q0 -134 -70 -244q-66 -102 -174 -153l231 -377h-282l-195 326h-340v-326h-248v1229h586q223 0 356 -133q136 -136 136 -322zM348 1004v-455h334q129 0 186 67q62 65 62 158q0 100 -58 158q-57 72 -192 72h-332zM489 1386l179 406l192 -96l-209 -387z" />
    <glyph glyph-name="racute" unicode="&#x155;" horiz-adv-x="1073" 
d="M1012 643q0 -108 -49 -190q-47 -81 -140 -134l178 -319h-282l-133 260h-238v-260h-246v1024h502q215 0 330 -147q78 -100 78 -234zM348 805v-326h236q97 0 143 58q37 46 37 106q0 66 -39 111q-51 51 -139 51h-238zM416 1198l145 363l207 -105l-186 -336z" />
    <glyph glyph-name="Rcommaaccent" unicode="&#x156;" horiz-adv-x="1239" 
d="M1178 774q0 -134 -70 -244q-66 -102 -174 -153l231 -377h-282l-195 326h-340v-326h-248v1229h586q223 0 356 -133q136 -136 136 -322zM348 1004v-455h334q129 0 186 67q62 65 62 158q0 100 -58 158q-57 72 -192 72h-332zM571 70q64 0 99 -35t35 -92q0 -25 -11 -62
l-94 -225l-104 27l32 139q-43 7 -65.5 40.5t-22.5 80.5q0 55 37 91t94 36z" />
    <glyph glyph-name="rcommaaccent" unicode="&#x157;" horiz-adv-x="1073" 
d="M1012 643q0 -108 -49 -190q-47 -81 -140 -134l178 -319h-282l-133 260h-238v-260h-246v1024h502q215 0 330 -147q78 -100 78 -234zM348 805v-326h236q97 0 143 58q37 46 37 106q0 66 -39 111q-51 51 -139 51h-238zM526 -23q64 0 98.5 -35t34.5 -92q0 -28 -10 -61
l-94 -225l-104 26l32 140q-43 7 -65.5 40.5t-22.5 79.5q0 55 37 91t94 36z" />
    <glyph glyph-name="Rcaron" unicode="&#x158;" horiz-adv-x="1239" 
d="M1178 774q0 -134 -70 -244q-66 -102 -174 -153l231 -377h-282l-195 326h-340v-326h-248v1229h586q223 0 356 -133q136 -136 136 -322zM348 1004v-455h334q129 0 186 67q62 65 62 158q0 100 -58 158q-57 72 -192 72h-332zM250 1591l112 119l222 -182l221 182l110 -119
l-284 -284h-96z" />
    <glyph glyph-name="rcaron" unicode="&#x159;" horiz-adv-x="1073" 
d="M1012 643q0 -108 -49 -190q-47 -81 -140 -134l178 -319h-282l-133 260h-238v-260h-246v1024h502q215 0 330 -147q78 -100 78 -234zM348 805v-326h236q97 0 143 58q37 46 37 106q0 66 -39 111q-51 51 -139 51h-238zM227 1364l113 123l199 -164l194 164l119 -123l-266 -266
h-97z" />
    <glyph glyph-name="Sacute" unicode="&#x15a;" 
d="M430 553q-180 33 -266 119q-39 39 -62.5 97t-23.5 122q0 165 129 260q133 100 389 100q142 0 255.5 -28t250.5 -103l-98 -192q-203 102 -392 102q-184 0 -247 -51q-39 -29 -39 -82q0 -49 36 -72q41 -27 121 -39l244 -43q236 -42 338 -147q86 -93 86 -227
q0 -192 -145 -287q-80 -52 -199.5 -78.5t-239.5 -26.5q-160 0 -265.5 25t-242.5 90l76 203q118 -49 217.5 -70.5t210.5 -21.5q113 0 180 15.5t119 51.5q41 30 41 92q0 46 -41 87q-43 32 -168 59zM545 1386l178 406l192 -96l-208 -387z" />
    <glyph glyph-name="sacute" unicode="&#x15b;" horiz-adv-x="1064" 
d="M88 743q0 141 115 220q121 79 329 79q224 0 433 -102l-88 -197q-97 44 -174.5 62t-163.5 18q-116 0 -164 -22q-37 -21 -37 -56q0 -29 20 -43q26 -23 91 -32l194 -33q207 -41 287 -119q74 -85 74 -196q0 -134 -91 -222q-127 -118 -407 -118q-132 0 -227.5 23.5
t-208.5 84.5l94 199q100 -48 175 -66t165 -18q128 0 205 35q51 29 51 77q0 32 -35 50q-39 23 -119 36l-221 39q-151 25 -223 103q-74 77 -74 198zM471 1198l145 363l207 -105l-186 -336z" />
    <glyph glyph-name="Scircumflex" unicode="&#x15c;" 
d="M430 553q-180 33 -266 119q-39 39 -62.5 97t-23.5 122q0 165 129 260q133 100 389 100q142 0 255.5 -28t250.5 -103l-98 -192q-203 102 -392 102q-184 0 -247 -51q-39 -29 -39 -82q0 -49 36 -72q41 -27 121 -39l244 -43q236 -42 338 -147q86 -93 86 -227
q0 -192 -145 -287q-80 -52 -199.5 -78.5t-239.5 -26.5q-160 0 -265.5 25t-242.5 90l76 203q118 -49 217.5 -70.5t210.5 -21.5q113 0 180 15.5t119 51.5q41 30 41 92q0 46 -41 87q-43 32 -168 59zM379 1292l-111 119l285 283h96l285 -283l-111 -119l-221 183z" />
    <glyph glyph-name="scircumflex" unicode="&#x15d;" horiz-adv-x="1064" 
d="M88 743q0 141 115 220q121 79 329 79q224 0 433 -102l-88 -197q-97 44 -174.5 62t-163.5 18q-116 0 -164 -22q-37 -21 -37 -56q0 -29 20 -43q26 -23 91 -32l194 -33q207 -41 287 -119q74 -85 74 -196q0 -134 -91 -222q-127 -118 -407 -118q-132 0 -227.5 23.5
t-208.5 84.5l94 199q100 -48 175 -66t165 -18q128 0 205 35q51 29 51 77q0 32 -35 50q-39 23 -119 36l-221 39q-151 25 -223 103q-74 77 -74 198zM856 1223l-113 -125l-198 166l-197 -166l-117 125l267 264h94z" />
    <glyph glyph-name="Scedilla" unicode="&#x15e;" 
d="M430 553q-180 33 -266 119q-39 39 -62.5 97t-23.5 122q0 165 129 260q133 100 389 100q142 0 255.5 -28t250.5 -103l-98 -192q-203 102 -392 102q-184 0 -247 -51q-39 -29 -39 -82q0 -49 36 -72q41 -27 121 -39l244 -43q236 -42 338 -147q86 -93 86 -227
q0 -192 -145 -287q-131 -91 -381 -102l-2 -52q63 0 100 -37q45 -49 45 -114q0 -78 -55 -146q-78 -95 -254 -139l-45 111q3 2 22 11.5l29 14.5t26.5 15t29.5 20t24 21q33 42 33 84q0 19 -17 36q-16 13 -43 13h-65v164q-108 7 -193.5 32t-200.5 78l76 203q118 -49 217.5 -70.5
t210.5 -21.5q113 0 180 15.5t119 51.5q41 30 41 92q0 46 -41 87q-43 32 -168 59z" />
    <glyph glyph-name="scedilla" unicode="&#x15f;" horiz-adv-x="1064" 
d="M88 748q0 67 24 113t72 89q52 46 144.5 69t203.5 23q211 0 433 -100l-88 -194q-172 75 -338 75q-126 0 -170 -26q-31 -19 -31 -52q0 -29 20 -43q26 -23 91 -32l194 -33q207 -41 287 -119q74 -85 74 -196q0 -145 -84 -226q-109 -101 -340 -112l-2 -45q69 0 108 -45
q27 -35 27 -82q0 -93 -62 -158q-72 -78 -205 -115l-45 107q79 33 101 65q20 29 20 62q0 19 -16 32t-39 13h-51v166q-95 7 -173 31.5t-173 74.5l86 205q98 -52 176.5 -71t171.5 -19q128 0 205 35q51 29 51 77q0 32 -35 50q-39 23 -119 36l-221 39q-155 26 -233 119
q-64 73 -64 187z" />
    <glyph glyph-name="Scaron" unicode="&#x160;" 
d="M430 553q-180 33 -266 119q-39 39 -62.5 97t-23.5 122q0 165 129 260q133 100 389 100q142 0 255.5 -28t250.5 -103l-98 -192q-203 102 -392 102q-184 0 -247 -51q-39 -29 -39 -82q0 -49 36 -72q41 -27 121 -39l244 -43q236 -42 338 -147q86 -93 86 -227
q0 -192 -145 -287q-80 -52 -199.5 -78.5t-239.5 -26.5q-160 0 -265.5 25t-242.5 90l76 203q118 -49 217.5 -70.5t210.5 -21.5q113 0 180 15.5t119 51.5q41 30 41 92q0 46 -41 87q-43 32 -168 59zM274 1591l113 119l221 -182l221 182l111 -119l-285 -284h-96z" />
    <glyph glyph-name="scaron" unicode="&#x161;" horiz-adv-x="1064" 
d="M88 743q0 141 115 220q121 79 329 79q224 0 433 -102l-88 -197q-97 44 -174.5 62t-163.5 18q-116 0 -164 -22q-37 -21 -37 -56q0 -29 20 -43q26 -23 91 -32l194 -33q207 -41 287 -119q74 -85 74 -196q0 -134 -91 -222q-127 -118 -407 -118q-132 0 -227.5 23.5
t-208.5 84.5l94 199q100 -48 175 -66t165 -18q128 0 205 35q51 29 51 77q0 32 -35 50q-39 23 -119 36l-221 39q-151 25 -223 103q-74 77 -74 198zM219 1364l113 123l198 -164l195 164l119 -123l-266 -266h-97z" />
    <glyph glyph-name="Tcommaaccent" unicode="&#x162;" horiz-adv-x="1224" 
d="M49 1008v221h1125v-221h-443v-1008h-239v1008h-443zM612 -111q64 0 98.5 -35t34.5 -92q0 -28 -10 -61l-94 -225l-104 26l32 140q-43 7 -65.5 40.5t-22.5 79.5q0 55 37 91t94 36z" />
    <glyph glyph-name="tcommaaccent" unicode="&#x163;" horiz-adv-x="1050" 
d="M51 805v219h948v-219h-352v-805h-246v805h-350zM524 -43q64 0 98.5 -35t34.5 -92q0 -28 -10 -61l-94 -226l-104 27l32 139q-43 7 -65.5 40.5t-22.5 80.5q0 55 37 91t94 36z" />
    <glyph glyph-name="Tcaron" unicode="&#x164;" horiz-adv-x="1224" 
d="M49 1008v221h1125v-221h-443v-1008h-239v1008h-443zM279 1591l112 119l221 -182l222 182l110 -119l-285 -284h-96z" />
    <glyph glyph-name="tcaron" unicode="&#x165;" horiz-adv-x="1050" 
d="M51 805v219h948v-219h-352v-805h-246v805h-350zM213 1364l113 123l198 -164l195 164l119 -123l-267 -266h-96z" />
    <glyph glyph-name="Tbar" unicode="&#x166;" horiz-adv-x="1224" 
d="M209 571v191h285v250h-443v217h1123v-217h-443v-250h285v-191h-285v-571h-237v571h-285z" />
    <glyph glyph-name="tbar" unicode="&#x167;" horiz-adv-x="1050" 
d="M195 438v187h206v180h-350v219h948v-219h-352v-180h209v-187h-209v-438h-246v438h-206z" />
    <glyph glyph-name="Utilde" unicode="&#x168;" horiz-adv-x="1286" 
d="M1184 539q0 -254 -166 -414q-151 -145 -375 -145q-236 0 -387 151q-156 159 -156 408v690h248v-703q0 -150 86 -233q82 -88 209 -88q121 0 211 90q82 79 82 231v703h248v-690zM788 1319q-45 0 -73 5t-68 22q-72 30 -149 30q-79 0 -140 -49l-100 125q109 119 238 119
q72 0 141 -29q82 -33 149 -33q69 0 140 50l98 -127q-104 -113 -236 -113z" />
    <glyph glyph-name="utilde" unicode="&#x169;" horiz-adv-x="1120" 
d="M1018 442q0 -208 -139 -338q-126 -120 -316 -120q-202 0 -330 131q-131 134 -131 327v582h246v-592q0 -104 60 -164q57 -63 155 -63q94 0 152 61q57 64 57 166v592h246v-582zM705 1141q-67 0 -140 24q-74 31 -145 31q-82 0 -135 -43l-99 119q96 110 230 110q72 0 139 -28
q69 -31 145 -31q80 0 138 47l94 -123q-93 -106 -227 -106z" />
    <glyph glyph-name="Umacron" unicode="&#x16a;" horiz-adv-x="1286" 
d="M1184 539q0 -254 -166 -414q-151 -145 -375 -145q-236 0 -387 151q-156 159 -156 408v690h248v-703q0 -150 86 -233q82 -88 209 -88q121 0 211 90q82 79 82 231v703h248v-690zM301 1516h680v-185h-680v185z" />
    <glyph glyph-name="umacron" unicode="&#x16b;" horiz-adv-x="1120" 
d="M1018 442q0 -208 -139 -338q-126 -120 -316 -120q-202 0 -330 131q-131 134 -131 327v582h246v-592q0 -104 60 -164q57 -63 155 -63q94 0 152 61q57 64 57 166v592h246v-582zM266 1309h588v-172h-588v172z" />
    <glyph glyph-name="Ubreve" unicode="&#x16c;" horiz-adv-x="1286" 
d="M1184 539q0 -254 -166 -414q-151 -145 -375 -145q-236 0 -387 151q-156 159 -156 408v690h248v-703q0 -150 86 -233q82 -88 209 -88q121 0 211 90q82 79 82 231v703h248v-690zM793 1608l165 -86q-32 -80 -118 -144q-85 -63 -201 -63q-112 0 -193 63q-87 61 -120 144
l166 86q23 -41 51 -66q39 -39 98 -39q54 0 96 33q34 24 56 72z" />
    <glyph glyph-name="ubreve" unicode="&#x16d;" horiz-adv-x="1120" 
d="M1018 442q0 -208 -139 -338q-126 -120 -316 -120q-202 0 -330 131q-131 134 -131 327v582h246v-592q0 -104 60 -164q57 -63 155 -63q94 0 152 61q57 64 57 166v592h246v-582zM555 1110q-114 0 -193 57q-82 58 -120 146l174 86q18 -32 41 -58q38 -38 102 -38q62 0 100 38
q24 24 43 58l172 -86q-34 -86 -114 -142q-86 -61 -205 -61z" />
    <glyph glyph-name="Uring" unicode="&#x16e;" horiz-adv-x="1286" 
d="M1184 539q0 -254 -166 -414q-151 -145 -375 -145q-236 0 -387 151q-156 159 -156 408v690h248v-703q0 -150 86 -233q82 -88 209 -88q121 0 211 90q82 79 82 231v703h248v-690zM641 1266q-92 0 -158 63q-69 69 -69 164q0 89 61 156q65 71 166 71q105 0 174 -78
q55 -65 55 -149q0 -93 -71 -164q-66 -63 -158 -63zM641 1391q43 0 74 28q30 30 30 74q0 40 -30 70q-25 32 -74 32q-51 0 -76 -32q-28 -25 -28 -70q0 -40 30 -74q31 -28 74 -28z" />
    <glyph glyph-name="uring" unicode="&#x16f;" horiz-adv-x="1120" 
d="M1018 442q0 -208 -139 -338q-126 -120 -316 -120q-202 0 -330 131q-131 134 -131 327v582h246v-592q0 -104 60 -164q57 -63 155 -63q94 0 152 61q57 64 57 166v592h246v-582zM563 1090q-90 0 -149 59q-64 58 -64 151q0 86 64 150q63 63 149 63q90 0 154 -71
q55 -58 55 -142q0 -94 -65 -153q-57 -57 -144 -57zM563 1233q24 0 47 20q21 21 21 47q0 29 -21 50q-19 16 -47 16q-29 0 -47 -18q-20 -17 -20 -48q0 -25 22 -47q20 -20 45 -20z" />
    <glyph glyph-name="Uhungarumlaut" unicode="&#x170;" horiz-adv-x="1286" 
d="M1184 539q0 -254 -166 -414q-151 -145 -375 -145q-236 0 -387 151q-156 159 -156 408v690h248v-703q0 -150 86 -233q82 -88 209 -88q121 0 211 90q82 79 82 231v703h248v-690zM424 1348l119 387l192 -80l-164 -365zM682 1356l166 381l188 -95l-198 -362z" />
    <glyph glyph-name="uhungarumlaut" unicode="&#x171;" horiz-adv-x="1120" 
d="M1018 442q0 -208 -139 -338q-126 -120 -316 -120q-202 0 -330 131q-131 134 -131 327v582h246v-592q0 -104 60 -164q57 -63 155 -63q94 0 152 61q57 64 57 166v592h246v-582zM350 1182l107 366l194 -82l-151 -344zM598 1194l154 356l196 -94l-192 -342z" />
    <glyph glyph-name="Uogonek" unicode="&#x172;" horiz-adv-x="1286" 
d="M1184 539q0 -254 -166 -414q-83 -83 -201 -123q-43 -9 -72 -49q-22 -35 -22 -68q0 -63 37 -112q39 -45 102 -80l-67 -99q-130 42 -187 101q-69 72 -69 166q0 76 49 121q-201 20 -330 149q-158 158 -158 408v690h248v-703q0 -150 86 -233q82 -88 209 -88q121 0 211 90
q82 79 82 231v703h248v-690z" />
    <glyph glyph-name="uogonek" unicode="&#x173;" horiz-adv-x="1120" 
d="M1018 442q0 -208 -139 -338q-91 -88 -213 -108q-52 -30 -52 -86q0 -52 27 -86q36 -39 98 -68l-55 -102q-113 22 -174 80q-59 59 -59 139q0 73 55 117q-171 21 -275 125q-129 135 -129 327v582h246v-592q0 -104 60 -164q57 -63 155 -63q94 0 152 61q57 64 57 166v592h246
v-582z" />
    <glyph glyph-name="Wcircumflex" unicode="&#x174;" horiz-adv-x="1949" 
d="M743 0h-331l-361 1229h264l260 -983h9l221 983h332l237 -983h8l252 983h262l-362 -1229h-334l-233 930h-9zM750 1292l-111 119l285 283h96l285 -283l-111 -119l-221 183z" />
    <glyph glyph-name="wcircumflex" unicode="&#x175;" horiz-adv-x="1740" 
d="M668 0h-287l-320 1024h265l200 -739h9l202 739h267l206 -741h11l196 741h262l-317 -1024h-291l-201 668h-8zM1184 1223l-113 -125l-199 166l-196 -166l-117 125l266 264h95z" />
    <glyph glyph-name="Ycircumflex" unicode="&#x176;" horiz-adv-x="1390" 
d="M817 0h-242v297l-530 932h283l358 -674h21l364 674h268l-522 -934v-295zM471 1292l-111 119l285 283h96l285 -283l-111 -119l-221 183z" />
    <glyph glyph-name="ycircumflex" unicode="&#x177;" horiz-adv-x="1212" 
d="M729 0h-246v248l-432 776h279l276 -532h12l269 532h274l-432 -778v-246zM918 1223l-113 -125l-199 166l-196 -166l-117 125l266 264h94z" />
    <glyph glyph-name="Ydieresis" unicode="&#x178;" horiz-adv-x="1390" 
d="M817 0h-242v297l-530 932h283l358 -674h21l364 674h268l-522 -934v-295zM760 1462q0 61 40 102.5t101 41.5q62 0 105 -42t43 -102t-43.5 -102.5t-104.5 -42.5t-101 42t-40 103zM336 1462q0 60 42.5 102t102.5 42t103 -42t43 -102t-43 -102.5t-103 -42.5t-102.5 42.5
t-42.5 102.5z" />
    <glyph glyph-name="Zacute" unicode="&#x179;" horiz-adv-x="1214" 
d="M1133 227v-227h-1053v193l698 819l-221 -4h-457v221h1024v-172l-708 -836l205 6h512zM483 1386l179 406l192 -96l-209 -387z" />
    <glyph glyph-name="zacute" unicode="&#x17a;" horiz-adv-x="1052" 
d="M971 219v-219h-889v182l526 635l-131 -8h-387v215h858v-172l-532 -639l114 6h441zM422 1198l145 363l207 -105l-186 -336z" />
    <glyph glyph-name="Zdotaccent" unicode="&#x17b;" horiz-adv-x="1214" 
d="M1133 227v-227h-1053v193l698 819l-221 -4h-457v221h1024v-172l-708 -836l205 6h512zM461 1464q0 66 44.5 109t108.5 43q62 0 105 -43t43 -109q0 -65 -42.5 -105t-105.5 -40q-65 0 -109 40t-44 105z" />
    <glyph glyph-name="zdotaccent" unicode="&#x17c;" horiz-adv-x="1052" 
d="M971 219v-219h-889v182l526 635l-131 -8h-387v215h858v-172l-532 -639l114 6h441zM387 1249q0 60 41 101t98 41q60 0 101 -41t41 -101q0 -57 -41 -98t-101 -41q-57 0 -98 41t-41 98z" />
    <glyph glyph-name="Zcaron" unicode="&#x17d;" horiz-adv-x="1214" 
d="M1133 227v-227h-1053v193l698 819l-221 -4h-457v221h1024v-172l-708 -836l205 6h512zM293 1591l113 119l221 -182l221 182l110 -119l-284 -284h-96z" />
    <glyph glyph-name="zcaron" unicode="&#x17e;" horiz-adv-x="1052" 
d="M971 219v-219h-889v182l526 635l-131 -8h-387v215h858v-172l-532 -639l114 6h441zM205 1364l112 123l199 -164l195 164l118 -123l-266 -266h-96z" />
    <glyph glyph-name="florin" unicode="&#x192;" horiz-adv-x="798" 
d="M74 -334l-92 187q79 25 120 63q52 52 52 129v764h-136v215h136v8q0 156 116 248q110 90 269 90q94 0 177 -36t177 -124l-135 -149q-68 55 -114 76.5t-105 21.5q-75 0 -113 -47q-33 -42 -33 -78v-10h365v-215h-365v-770q0 -130 -61 -215q-80 -107 -258 -158z" />
    <glyph glyph-name="AEacute" unicode="&#x1fc;" horiz-adv-x="2031" 
d="M979 0v276h-475l-172 -276h-281l789 1229h1081v-223h-702v-250h624v-219h-624v-316h731v-221h-971zM958 1004l-313 -504h334v504h-21zM1038 1386l179 406l192 -96l-209 -387z" />
    <glyph glyph-name="aeacute" unicode="&#x1fd;" horiz-adv-x="1761" 
d="M856 0v182h-407l-107 -182h-291l619 1024h989v-221h-557v-156h493v-221h-493v-207h577v-219h-823zM797 805l-222 -404h281v404h-59zM834 1198l145 363l207 -105l-187 -336z" />
    <glyph glyph-name="Oslashacute" unicode="&#x1fe;" horiz-adv-x="1419" 
d="M709 1251q149 0 266 -51l61 86l178 -123l-57 -82q103 -103 152 -219q49 -126 49 -248q0 -267 -176 -446q-185 -191 -473 -191q-146 0 -277 56l-63 -90l-181 127l60 86q-70 67 -125 180q-64 144 -64 278q0 258 172 439q88 94 210.5 146t267.5 52zM1110 614q0 72 -23 152
q-20 64 -63 123l-459 -662q76 -26 144 -26q179 0 292 125q109 119 109 288zM303 614q0 -145 86 -258l455 654q-59 20 -135 20q-181 0 -295 -123q-111 -118 -111 -293zM647 1386l178 406l193 -96l-209 -387z" />
    <glyph glyph-name="oslashacute" unicode="&#x1ff;" 
d="M606 1042q158 0 275 -69l61 71l141 -114l-61 -72q73 -82 106 -186q21 -74 21 -160q0 -111 -41 -210.5t-119 -172.5q-153 -147 -383 -147q-149 0 -270 65l-60 -72l-143 119l53 66q-60 72 -90 155q-35 96 -35 197q0 111 43.5 212t122.5 175q153 143 379 143zM307 512
q0 -49 10 -88q12 -52 25 -78l389 451q-63 26 -125 26q-131 0 -215 -90q-84 -81 -84 -221zM895 590q-7 38 -25 82l-387 -447q67 -24 123 -24q123 0 207 84q88 79 88 227q0 51 -6 78zM545 1198l145 363l207 -105l-186 -336z" />
    <glyph glyph-name="Scommaaccent" unicode="&#x218;" 
d="M430 553q-180 33 -266 119q-39 39 -62.5 97t-23.5 122q0 165 129 260q133 100 389 100q142 0 255.5 -28t250.5 -103l-98 -192q-203 102 -392 102q-184 0 -247 -51q-39 -29 -39 -82q0 -49 36 -72q41 -27 121 -39l244 -43q236 -42 338 -147q86 -93 86 -227
q0 -192 -145 -287q-80 -52 -199.5 -78.5t-239.5 -26.5q-160 0 -265.5 25t-242.5 90l76 203q118 -49 217.5 -70.5t210.5 -21.5q113 0 180 15.5t119 51.5q41 30 41 92q0 46 -41 87q-43 32 -168 59zM584 -106q64 0 100.5 -37t36.5 -93q0 -25 -16 -75l-72 -221l-101 12l9 160
q-88 27 -88 124q0 56 35 93t96 37z" />
    <glyph glyph-name="scommaaccent" unicode="&#x219;" horiz-adv-x="1064" 
d="M88 743q0 141 115 220q121 79 329 79q224 0 433 -102l-88 -197q-97 44 -174.5 62t-163.5 18q-116 0 -164 -22q-37 -21 -37 -56q0 -29 20 -43q26 -23 91 -32l194 -33q207 -41 287 -119q74 -85 74 -196q0 -134 -91 -222q-127 -118 -407 -118q-132 0 -227.5 23.5
t-208.5 84.5l94 199q100 -48 175 -66t165 -18q128 0 205 35q51 29 51 77q0 32 -35 50q-39 23 -119 36l-221 39q-151 25 -223 103q-74 77 -74 198zM512 -63q64 0 98.5 -35t34.5 -92q0 -29 -10 -62l-94 -225l-105 26l33 140q-43 7 -65.5 40.5t-22.5 80.5q0 55 37 91t94 36z
" />
    <glyph glyph-name="uni021A" unicode="&#x21a;" horiz-adv-x="1224" 
d="M51 1012v217h1123v-217h-443v-1012h-55q74 -65 74 -150q0 -88 -66 -161q-71 -74 -176 -103l-62 99q55 36 93 88q36 49 36 102q0 51 -20 78.5t-61 46.5v1012h-443z" />
    <glyph glyph-name="uni021B" unicode="&#x21b;" horiz-adv-x="1050" 
d="M51 805v219h948v-219h-352v-805h-74q72 -44 72 -123q0 -82 -59 -141q-57 -59 -176 -86l-54 102q65 30 97 76q28 36 28 80q0 35 -18.5 57t-61.5 35v805h-350z" />
    <glyph glyph-name="circumflex" unicode="&#x2c6;" horiz-adv-x="829" 
d="M727 1223l-113 -125l-198 166l-197 -166l-117 125l267 264h94z" />
    <glyph glyph-name="caron" unicode="&#x2c7;" horiz-adv-x="831" 
d="M102 1364l113 123l199 -164l194 164l119 -123l-266 -266h-96z" />
    <glyph glyph-name="uni02C9" unicode="&#x2c9;" horiz-adv-x="669" 
d="M0 1294h670v-184h-670v184z" />
    <glyph glyph-name="breve" unicode="&#x2d8;" horiz-adv-x="837" 
d="M416 1110q-114 0 -193 57q-84 59 -121 146l174 86q18 -32 41 -58q38 -38 103 -38q62 0 100 38q24 24 43 58l172 -86q-34 -86 -114 -142q-86 -61 -205 -61z" />
    <glyph glyph-name="dotaccent" unicode="&#x2d9;" horiz-adv-x="485" 
d="M102 127q0 59 41 100t99 41q60 0 100.5 -40.5t40.5 -100.5q0 -57 -40.5 -98t-100.5 -41q-57 0 -98.5 41t-41.5 98z" />
    <glyph glyph-name="ring" unicode="&#x2da;" horiz-adv-x="626" 
d="M315 1090q-90 0 -149 59q-64 58 -64 151q0 86 64 150q63 63 149 63q90 0 154 -71q55 -58 55 -142q0 -94 -65 -153q-57 -57 -144 -57zM315 1233q24 0 47 20q21 21 21 47q0 29 -21 50q-19 16 -47 16q-29 0 -47 -18q-20 -17 -20 -48q0 -25 22 -47q20 -20 45 -20z" />
    <glyph glyph-name="ogonek" unicode="&#x2db;" horiz-adv-x="493" 
d="M227 41l111 -37q-35 -12 -55 -35q-17 -24 -17 -59q0 -44 27 -78q36 -47 98 -76l-55 -102q-115 22 -174 84q-60 60 -60 143q0 66 39 105q32 32 86 55z" />
    <glyph glyph-name="tilde" unicode="&#x2dc;" horiz-adv-x="950" 
d="M621 1141q-67 0 -140 24q-74 31 -145 31q-82 0 -135 -43l-99 119q96 110 230 110q72 0 139 -28q69 -31 145 -31q80 0 138 47l94 -123q-93 -106 -227 -106z" />
    <glyph glyph-name="hungarumlaut" unicode="&#x2dd;" horiz-adv-x="802" 
d="M102 1182l107 366l194 -82l-151 -344zM350 1194l154 356l196 -94l-192 -342z" />
    <glyph glyph-name="afii10023" unicode="&#x401;" horiz-adv-x="1144" 
d="M102 0v1229h963v-225h-715v-250h639v-224h-639v-307h744v-223h-992zM637 1462q0 61 40 102.5t101 41.5q62 0 105 -42t43 -102t-43.5 -102.5t-104.5 -42.5t-101 42t-40 103zM213 1462q0 60 42.5 102t102.5 42t103 -42t43 -102t-43 -102.5t-103 -42.5t-102.5 42.5
t-42.5 102.5z" />
    <glyph glyph-name="afii10051" unicode="&#x402;" horiz-adv-x="1529" 
d="M41 1010v219h1034v-219h-405v-207q132 69 282 69q238 0 361 -147q110 -128 110 -342v-209q0 -146 -50 -256t-175 -223l-147 133q76 84 106.5 163.5t30.5 180.5v211q0 132 -62 209q-62 65 -174 65q-160 0 -282 -79v-578h-246v1010h-383z" />
    <glyph glyph-name="afii10052" unicode="&#x403;" horiz-adv-x="1087" 
d="M346 1008v-1008h-246v1229h936v-221h-690zM481 1386l178 406l193 -96l-209 -387z" />
    <glyph glyph-name="afii10053" unicode="&#x404;" horiz-adv-x="1275" 
d="M956 752v-226h-634q17 -109 90 -194q118 -131 301 -131q104 0 185.5 35.5t168.5 117.5l152 -157q-208 -220 -506 -220q-309 0 -492 199q-160 177 -160 442q3 277 181 455t469 178q154 0 275.5 -55t230.5 -164l-158 -158q-87 86 -163.5 120t-184.5 34q-164 0 -267 -86
q-86 -74 -116 -190h628z" />
    <glyph glyph-name="afii10054" unicode="&#x405;" 
d="M430 553q-180 33 -266 119q-39 39 -62.5 97t-23.5 122q0 165 129 260q133 100 389 100q142 0 255.5 -28t250.5 -103l-98 -192q-203 102 -392 102q-184 0 -247 -51q-39 -29 -39 -82q0 -49 36 -72q41 -27 121 -39l244 -43q236 -42 338 -147q86 -93 86 -227
q0 -192 -145 -287q-80 -52 -199.5 -78.5t-239.5 -26.5q-160 0 -265.5 25t-242.5 90l76 203q118 -49 217.5 -70.5t210.5 -21.5q113 0 180 15.5t119 51.5q41 30 41 92q0 46 -41 87q-43 32 -168 59z" />
    <glyph glyph-name="afii10055" unicode="&#x406;" horiz-adv-x="444" 
d="M342 1229v-1229h-240v1229h240z" />
    <glyph glyph-name="afii10056" unicode="&#x407;" horiz-adv-x="444" 
d="M342 1229v-1229h-240v1229h240zM291 1462q0 61 40 102.5t101 41.5q62 0 105 -42t43 -102t-43.5 -102.5t-104.5 -42.5t-101 42t-40 103zM-133 1462q0 60 42.5 102t102.5 42t103 -42t43 -102t-43 -102.5t-103 -42.5t-102.5 42.5t-42.5 102.5z" />
    <glyph glyph-name="afii10057" unicode="&#x408;" horiz-adv-x="1107" 
d="M770 1229h246v-697q0 -139 -35.5 -237.5t-110.5 -171.5q-149 -146 -397 -146q-137 0 -241.5 44.5t-200.5 146.5l145 168q127 -127 287 -127q151 0 227 76q41 41 60.5 91.5t19.5 133.5v719z" />
    <glyph glyph-name="afii10058" unicode="&#x409;" horiz-adv-x="2115" 
d="M438 1229h842v-322h285q222 0 364 -145q119 -125 119 -305q0 -195 -127 -322q-135 -135 -356 -135h-531v1008h-375l-100 -732q-23 -142 -100 -213t-226 -71q-104 0 -202 37l47 204q63 -16 123 -16q48 0 75 27q32 35 43 92zM1804 457q0 93 -61 151q-65 78 -189 78h-274
v-465h287q107 0 174 64q63 57 63 172z" />
    <glyph glyph-name="afii10059" unicode="&#x40a;" horiz-adv-x="1988" 
d="M907 1229h246v-322h285q222 0 364 -145q121 -127 121 -305q0 -193 -131 -324q-133 -133 -354 -133h-531v541h-565v-541h-240v1229h240v-467h565v467zM1677 457q0 76 -51 147q-68 82 -199 82h-274v-465h287q107 0 174 64q63 57 63 172z" />
    <glyph glyph-name="afii10060" unicode="&#x40b;" horiz-adv-x="1529" 
d="M41 1010v219h1034v-219h-405v-207q132 69 282 69q238 0 361 -147q110 -128 110 -342v-383h-235v383q0 132 -62 209q-62 65 -174 65q-160 0 -282 -79v-578h-246v1010h-383z" />
    <glyph glyph-name="afii10061" unicode="&#x40c;" horiz-adv-x="1259" 
d="M100 1229h242v-465h158q48 0 78 18q25 18 38 41l140 244q52 91 129 135q75 43 172 43q66 0 137 -18l-25 -207h-65q-53 0 -90 -19q-28 -16 -51 -51l-136 -227q-19 -34 -53 -68l428 -655h-291l-336 549q-31 -8 -69 -8h-164v-541h-242v1229zM496 1386l178 406l192 -96
l-209 -387z" />
    <glyph glyph-name="afii10062" unicode="&#x40e;" horiz-adv-x="1394" 
d="M1069 1229h277l-537 -1008q-56 -109 -129 -170q-69 -63 -186 -63q-80 0 -152 16l18 203h91q54 0 84 18q30 17 43 47l10 23q-106 178 -184 312.5t-176.5 305.5t-182.5 316h287l377 -697h12zM872 1608l166 -86q-32 -80 -118 -144q-85 -63 -201 -63q-112 0 -193 63
q-87 61 -120 144l165 86q22 -39 52 -66q39 -39 98 -39q54 0 96 33q33 23 55 72z" />
    <glyph glyph-name="afii10145" unicode="&#x40f;" horiz-adv-x="1286" 
d="M346 221h592v1008h246v-1229h-424l-10 -236h-218l-10 236h-422v1229h246v-1008z" />
    <glyph glyph-name="afii10017" unicode="&#x410;" horiz-adv-x="1441" 
d="M596 1229h250l545 -1229h-265l-100 219h-616l-99 -219h-260zM705 977l-201 -535h430l-211 535h-18z" />
    <glyph glyph-name="afii10018" unicode="&#x411;" horiz-adv-x="1236" 
d="M346 831h381q203 0 322 -116q116 -113 116 -299q0 -175 -114 -289q-121 -127 -324 -127h-627v1229h947v-221h-701v-177zM922 416q0 91 -58 143q-51 51 -147 51h-371v-389h381q90 0 147 64q48 51 48 131z" />
    <glyph glyph-name="afii10019" unicode="&#x412;" horiz-adv-x="1257" 
d="M711 0h-609v1229h594q213 0 320 -96q90 -83 90 -226q0 -61 -27 -119q-25 -57 -82 -98v-12q86 -41 129 -113q50 -80 50 -182q0 -161 -115 -270q-62 -58 -141 -85.5t-209 -27.5zM936 385q0 68 -35 109q-27 29 -60.5 43t-95.5 14h-401v-336h379q109 0 162 45q51 39 51 125z
M866 889q0 60 -37 90q-35 35 -124 35h-361v-250h389q57 0 98 35q35 30 35 90z" />
    <glyph glyph-name="afii10020" unicode="&#x413;" horiz-adv-x="1087" 
d="M346 1008v-1008h-246v1229h936v-221h-690z" />
    <glyph glyph-name="afii10021" unicode="&#x414;" horiz-adv-x="1445" 
d="M393 1229h881v-1008h119v-454h-211l-25 233h-876l-23 -233h-207v454q116 0 172 64q46 58 62 168zM1032 1008h-426l-88 -605q-9 -63 -19.5 -101t-37.5 -81h571v787z" />
    <glyph glyph-name="afii10022" unicode="&#x415;" horiz-adv-x="1175" 
d="M102 0v1229h963v-225h-715v-250h639v-224h-639v-307h744v-223h-992z" />
    <glyph glyph-name="afii10024" unicode="&#x416;" horiz-adv-x="1947" 
d="M748 764h104v465h242v-465h104q53 0 82 16q19 13 31 39l119 246q46 94 120 135q71 41 174 41q73 0 150 -14l-23 -207h-75q-57 0 -86 -16q-27 -13 -45 -46l-117 -233q-26 -46 -45 -68l411 -657h-290l-326 549q-27 -8 -68 -8h-116v-541h-242v541h-117q-40 0 -67 8
l-326 -549h-291l412 657q-19 22 -45 68l-117 233q-18 33 -45 46q-29 16 -86 16h-76l-22 207q77 14 149 14q103 0 174 -41q75 -41 121 -135l119 -246q12 -26 31 -39q29 -16 82 -16z" />
    <glyph glyph-name="afii10025" unicode="&#x417;" horiz-adv-x="1247" 
d="M602 205q177 0 260 65q66 49 66 140q0 65 -47 106q-46 37 -131 37h-445v219h410q72 0 106 37q31 31 31 88q0 52 -45 90q-36 27 -88.5 37t-134.5 10q-183 0 -355 -104l-106 180q112 74 222 107.5t251 33.5q213 0 332 -63q82 -45 126 -112t44 -171q0 -61 -25 -119
q-28 -54 -74 -88v-8q85 -39 131 -117q46 -76 46 -163q0 -196 -150 -314q-149 -119 -424 -119q-160 0 -286 35.5t-244 120.5l116 197q119 -72 205.5 -98.5t208.5 -26.5z" />
    <glyph glyph-name="afii10026" unicode="&#x418;" horiz-adv-x="1323" 
d="M338 1229v-846l661 846h222v-1229h-236v848l-666 -848h-219v1229h238z" />
    <glyph glyph-name="afii10027" unicode="&#x419;" horiz-adv-x="1308" 
d="M338 1229v-846l661 846h222v-1229h-236v848l-666 -848h-219v1229h238zM836 1608l165 -86q-32 -80 -118 -144q-85 -63 -201 -63q-112 0 -193 63q-87 61 -120 144l166 86q23 -41 51 -66q39 -39 98 -39q54 0 96 33q34 24 56 72z" />
    <glyph glyph-name="afii10028" unicode="&#x41a;" horiz-adv-x="1259" 
d="M100 1229h242v-465h158q48 0 78 18q25 18 38 41l140 244q52 91 129 135q75 43 172 43q66 0 137 -18l-25 -207h-65q-53 0 -90 -19q-28 -16 -51 -51l-136 -227q-19 -34 -53 -68l428 -655h-291l-336 549q-31 -8 -69 -8h-164v-541h-242v1229z" />
    <glyph glyph-name="afii10029" unicode="&#x41b;" horiz-adv-x="1431" 
d="M446 1229h879v-1229h-240v1008h-430l-100 -732q-18 -138 -96 -210q-83 -74 -221 -74q-112 0 -207 37l53 207q69 -19 117 -19q59 0 88 29q26 26 35 90z" />
    <glyph glyph-name="afii10030" unicode="&#x41c;" horiz-adv-x="1536" 
d="M102 1229h256l416 -584l404 584h256v-1229h-252v836h-8l-363 -523h-94l-365 525h-8v-838h-242v1229z" />
    <glyph glyph-name="afii10031" unicode="&#x41d;" horiz-adv-x="1292" 
d="M948 1229h242v-1229h-242v543h-600v-543h-246v1229h246v-467h600v467z" />
    <glyph glyph-name="afii10032" unicode="&#x41e;" horiz-adv-x="1419" 
d="M709 1251q277 0 460 -180q189 -186 189 -457q0 -267 -176 -446q-185 -191 -473 -191q-145 0 -269.5 52.5t-210.5 146.5q-79 83 -124.5 199t-45.5 239q0 258 172 439q88 94 210.5 146t267.5 52zM303 614q0 -165 111 -286q56 -59 132.5 -93t162.5 -34q179 0 292 125
q109 119 109 288q0 184 -106 299q-114 117 -295 117t-295 -123q-111 -118 -111 -293z" />
    <glyph glyph-name="afii10033" unicode="&#x41f;" horiz-adv-x="1273" 
d="M100 1229h1071v-1229h-245v1008h-580v-1008h-246v1229z" />
    <glyph glyph-name="afii10034" unicode="&#x420;" horiz-adv-x="1226" 
d="M1165 774q0 -183 -137 -317q-137 -131 -332 -131h-346v-326h-250v1229h596q109 0 203.5 -43.5t161.5 -122.5q104 -132 104 -289zM694 549q101 0 164 72q60 66 60 153q0 98 -54 162q-56 68 -186 68h-328v-455h344z" />
    <glyph glyph-name="afii10035" unicode="&#x421;" horiz-adv-x="1273" 
d="M303 616q0 -181 111 -292q123 -123 293 -123q101 0 186.5 37.5t173.5 117.5l145 -161q-116 -118 -231.5 -168t-273.5 -50q-283 0 -463 177q-185 182 -185 462q0 267 181 451q88 88 207.5 136t259.5 48q156 0 272 -48.5t233 -160.5l-145 -165q-87 80 -172.5 116.5
t-187.5 36.5q-165 0 -283 -115q-55 -55 -88 -134t-33 -165z" />
    <glyph glyph-name="afii10036" unicode="&#x422;" horiz-adv-x="1224" 
d="M49 1008v221h1125v-221h-443v-1008h-239v1008h-443z" />
    <glyph glyph-name="afii10037" unicode="&#x423;" horiz-adv-x="1396" 
d="M1069 1229h277l-537 -1008q-56 -109 -129 -170q-69 -63 -186 -63q-80 0 -152 16l18 203h91q54 0 84 18q30 17 43 47l10 23q-106 178 -184 312.5t-176.5 305.5t-182.5 316h287l377 -697h12z" />
    <glyph glyph-name="afii10038" unicode="&#x424;" horiz-adv-x="1656" 
d="M573 1130h134v121h239v-121h133q237 0 379 -155q133 -139 133 -340q0 -212 -151 -356q-144 -138 -361 -138h-133v-141h-239v141h-134q-216 0 -360 138q-152 145 -152 356q0 200 134 340q142 155 378 155zM1065 903h-119v-536h119q142 0 211 69q76 76 76 199
q0 118 -76 194q-68 74 -211 74zM707 903h-119q-143 0 -211 -74q-76 -76 -76 -194q0 -123 76 -199q69 -69 211 -69h119v536z" />
    <glyph glyph-name="afii10039" unicode="&#x425;" horiz-adv-x="1366" 
d="M379 1229l301 -432l285 432h288l-413 -592l465 -637h-310l-327 473l-326 -473h-287l453 635l-438 594h309z" />
    <glyph glyph-name="afii10040" unicode="&#x426;" horiz-adv-x="1345" 
d="M346 221h592v1008h246v-1008h108v-457h-209l-22 236h-961v1229h246v-1008z" />
    <glyph glyph-name="afii10041" unicode="&#x427;" horiz-adv-x="1302" 
d="M1200 0h-246v344q-152 -65 -315 -65q-281 0 -420 151q-129 141 -129 404v395h242v-385q0 -166 82 -254q88 -88 239 -88q173 0 301 67v660h246v-1229z" />
    <glyph glyph-name="afii10042" unicode="&#x428;" horiz-adv-x="1806" 
d="M1024 1229v-1008h432v1008h246v-1229h-1600v1229h244v-1008h432v1008h246z" />
    <glyph glyph-name="afii10043" unicode="&#x429;" horiz-adv-x="1867" 
d="M1024 1229v-1008h432v1008h246v-1008h110v-457h-210l-23 236h-1477v1229h244v-1008h432v1008h246z" />
    <glyph glyph-name="afii10044" unicode="&#x42a;" horiz-adv-x="1413" 
d="M1348 457q0 -194 -127 -324q-130 -133 -357 -133h-565v1008l-258 14v207h504v-322h319q225 0 367 -145q117 -130 117 -305zM1106 457q0 94 -59 159q-63 70 -193 70h-309v-465h321q112 0 174 62q66 66 66 174z" />
    <glyph glyph-name="afii10045" unicode="&#x42b;" horiz-adv-x="1619" 
d="M1153 457q0 -192 -131 -326q-131 -131 -352 -131h-570v1229h246v-322h324q220 0 362 -145q121 -127 121 -305zM907 457q0 98 -55 159q-63 70 -193 70h-313v-465h326q113 0 178 68q57 63 57 168zM1516 1229v-1229h-244v1229h244z" />
    <glyph glyph-name="afii10046" unicode="&#x42c;" horiz-adv-x="1214" 
d="M1153 457q0 -192 -131 -326q-131 -131 -356 -131h-566v1229h246v-322h320q241 0 372 -141q115 -128 115 -309zM907 457q0 103 -51 157q-69 72 -201 72h-309v-465h322q108 0 174 66q65 59 65 170z" />
    <glyph glyph-name="afii10047" unicode="&#x42d;" horiz-adv-x="1275" 
d="M319 526v226h629q-24 111 -117 190q-103 86 -266 86q-112 0 -195 -32.5t-167 -114.5l-148 166q113 113 231 158.5t279 45.5q291 0 469 -178q177 -177 180 -455q0 -266 -159 -442q-183 -199 -492 -199q-162 0 -281.5 48t-226.5 165l154 164q85 -84 166.5 -118.5
t187.5 -34.5q174 0 283 106q94 90 108 219h-635z" />
    <glyph glyph-name="afii10048" unicode="&#x42e;" horiz-adv-x="1804" 
d="M1116 1251q271 0 453 -188q83 -88 129.5 -204t46.5 -245q0 -138 -52.5 -260t-146.5 -211q-174 -166 -430 -166q-268 0 -452 191q-127 130 -166 352h-156v-520h-240v1229h240v-488h158q38 181 166 322q81 89 197 138.5t253 49.5zM1499 614q0 174 -108 297
q-106 119 -275 119q-175 0 -282 -129q-97 -118 -97 -287q0 -158 101 -280q111 -135 278 -135q152 0 266 114q53 53 85 132.5t32 168.5z" />
    <glyph glyph-name="afii10049" unicode="&#x42f;" horiz-adv-x="1241" 
d="M68 774q0 187 122 309q143 146 355 146h594v-1229h-242v324h-352l-215 -324h-285l258 379q-93 55 -156 139q-79 110 -79 256zM315 774q0 -77 43 -137q28 -41 76 -66.5t111 -25.5h352v463h-352q-54 0 -103 -26t-80 -67q-47 -59 -47 -141z" />
    <glyph glyph-name="afii10065" unicode="&#x430;" horiz-adv-x="1251" 
d="M506 1024h239l455 -1024h-268l-76 176h-467l-76 -176h-262zM614 741l-131 -344h275l-129 344h-15z" />
    <glyph glyph-name="afii10066" unicode="&#x431;" horiz-adv-x="1073" 
d="M350 692h271q170 0 282 -106q98 -92 98 -236q0 -148 -98 -246q-104 -104 -282 -104h-519v1024h801v-215h-553v-117zM350 469v-250h262q89 0 127 55q21 35 21 76q0 46 -33 82q-40 37 -111 37h-266z" />
    <glyph glyph-name="afii10067" unicode="&#x432;" horiz-adv-x="1091" 
d="M631 0h-529v1024h510q180 0 273 -96q73 -73 73 -178q0 -58 -24 -105q-21 -46 -72 -74v-8q68 -29 109 -94q39 -62 39 -141q0 -140 -88 -228q-100 -100 -291 -100zM766 322q0 42 -25 67q-26 33 -92 33h-301v-207h295q61 0 94 33q29 29 29 74zM713 723q0 34 -25 59t-78 25
h-262v-168h262q52 0 78 23q25 22 25 61z" />
    <glyph glyph-name="afii10068" unicode="&#x433;" horiz-adv-x="966" 
d="M348 805v-805h-246v1024h793v-219h-547z" />
    <glyph glyph-name="afii10069" unicode="&#x434;" horiz-adv-x="1259" 
d="M344 1024h752v-805h102v-405h-219l-18 186h-674l-19 -186h-217v405h39q61 0 98 37q41 41 54 131zM850 807h-299l-72 -465q-8 -50 -17 -73.5t-32 -49.5h420v588z" />
    <glyph glyph-name="afii10070" unicode="&#x435;" horiz-adv-x="1028" 
d="M102 0v1024h826v-221h-580v-176h518v-219h-518v-189h598v-219h-844z" />
    <glyph glyph-name="afii10072" unicode="&#x436;" horiz-adv-x="1679" 
d="M719 0v432h-78q-21 0 -49 4l-244 -436h-291l330 543q-26 26 -35 47l-92 184q-9 20 -27 31q-20 10 -59 10h-80l-20 205q55 14 139 14q92 0 154 -35q65 -38 104 -112l98 -203q10 -17 21 -25q8 -8 31 -8h98v373h242v-373h98q23 0 31 8q9 7 20 25l98 203q39 74 105 112
q62 35 153 35q85 0 140 -14l-21 -205h-80q-39 0 -59 -10q-18 -11 -27 -31l-92 -184q-9 -21 -35 -47l330 -543h-291l-244 436q-28 -4 -49 -4h-77v-432h-242z" />
    <glyph glyph-name="afii10073" unicode="&#x437;" horiz-adv-x="1073" 
d="M512 201q138 0 197 45q43 34 43 92q0 52 -27 70q-39 24 -86 24h-381v213h346q38 0 60 19q28 22 28 63q0 53 -41 74q-43 28 -155 28q-82 0 -149.5 -15.5t-166.5 -57.5l-82 176q184 110 408 110q230 0 344 -108q88 -85 88 -203q0 -40 -23 -94q-23 -41 -55 -66v-8
q77 -41 111 -104q30 -73 30 -123q0 -140 -94 -234q-125 -120 -395 -120q-230 0 -451 116l86 191q122 -54 187.5 -71t177.5 -17z" />
    <glyph glyph-name="afii10074" unicode="&#x438;" horiz-adv-x="1148" 
d="M342 1024v-627l487 627h218v-1024h-238v629l-490 -629h-217v1024h240z" />
    <glyph glyph-name="afii10075" unicode="&#x439;" horiz-adv-x="1130" 
d="M342 1024v-627l487 627h218v-1024h-238v629l-490 -629h-217v1024h240zM561 1110q-113 0 -192 57q-84 59 -121 146l174 86q18 -32 41 -58q38 -38 102 -38q63 0 101 38q24 24 43 58l172 -86q-34 -85 -115 -142q-86 -61 -205 -61z" />
    <glyph glyph-name="afii10076" unicode="&#x43a;" horiz-adv-x="1110" 
d="M102 1024h244v-373h113q32 0 53 15q20 13 31 36l92 185q34 69 94 106q67 43 166 43q91 0 145 -16l-32 -207h-78q-38 0 -58 -14q-16 -10 -32 -41l-86 -168q-11 -24 -35 -45l330 -545h-285l-246 438q-21 -6 -47 -6h-125v-432h-244v1024z" />
    <glyph glyph-name="afii10077" unicode="&#x43b;" horiz-adv-x="1259" 
d="M389 1024h768v-1024h-246v803h-309l-82 -565q-15 -109 -92 -177q-79 -69 -197 -69q-109 0 -200 39l67 200q53 -18 103 -18q39 0 59 20q22 22 25 58z" />
    <glyph glyph-name="afii10078" unicode="&#x43c;" horiz-adv-x="1320" 
d="M102 1024h242l318 -471l315 471h242v-1024h-246v616h-8l-254 -387h-103l-258 387h-8v-616h-240v1024z" />
    <glyph glyph-name="afii10079" unicode="&#x43d;" horiz-adv-x="1134" 
d="M782 1024h246v-1024h-246v432h-434v-432h-246v1024h246v-371h434v371z" />
    <glyph glyph-name="afii10080" unicode="&#x43e;" 
d="M606 1042q116 0 218 -42t175 -117q150 -150 150 -371q0 -111 -41 -210.5t-119 -172.5q-153 -147 -383 -147q-240 0 -391 151q-73 73 -114.5 172t-41.5 207q0 111 44.5 210.5t123.5 174.5q155 145 379 145zM307 512q0 -141 86 -221q84 -90 213 -90q123 0 207 84
q88 79 88 227q0 144 -88 229q-88 82 -207 82q-131 0 -215 -90q-84 -81 -84 -221z" />
    <glyph glyph-name="afii10081" unicode="&#x43f;" horiz-adv-x="1142" 
d="M348 803v-803h-246v1024h938v-1024h-249v803h-443z" />
    <glyph glyph-name="afii10082" unicode="&#x440;" horiz-adv-x="1062" 
d="M1001 641q0 -170 -114 -274q-113 -107 -293 -107h-246v-260h-246v1024h492q188 0 309 -127q98 -110 98 -256zM594 479q79 0 123 51q39 45 39 111q0 60 -31 102q-43 62 -141 62h-236v-326h246z" />
    <glyph glyph-name="afii10083" unicode="&#x441;" horiz-adv-x="1130" 
d="M319 514q0 -135 84 -219q41 -44 99.5 -68t122.5 -24q80 0 145.5 29t140.5 98l152 -160q-105 -100 -205 -144t-233 -44q-139 0 -250.5 48.5t-186.5 137.5q-118 144 -118 346q0 238 176 393q158 135 379 135q131 0 234 -43.5t204 -144.5l-156 -158q-69 71 -134 98t-148 27
q-67 0 -126.5 -22t-97.5 -62q-82 -88 -82 -223z" />
    <glyph glyph-name="afii10084" unicode="&#x442;" horiz-adv-x="1050" 
d="M51 805v219h948v-219h-352v-805h-246v805h-350z" />
    <glyph glyph-name="afii10085" unicode="&#x443;" horiz-adv-x="1208" 
d="M885 1024h272l-434 -838q-55 -104 -131 -153q-54 -41 -152 -41q-80 0 -145 16l14 195h92q30 0 50 10q19 8 30 33l4 8l-434 770h285l282 -539h9z" />
    <glyph glyph-name="afii10086" unicode="&#x444;" horiz-adv-x="1402" 
d="M823 1042v-102h99q96 0 181.5 -40t143.5 -109q101 -115 101 -265q0 -167 -121 -288q-129 -123 -305 -123h-99v-115h-243v115h-99q-90 0 -169.5 34t-135.5 93q-121 127 -121 284q0 159 115 287q117 127 311 127h99v102h243zM348 393q51 -57 146 -57h86v385h-86
q-93 0 -144 -57q-55 -52 -55 -138q0 -83 53 -133zM911 721h-88v-385h88q89 0 144 55q53 56 53 135q0 65 -49 129q-25 30 -65 48t-83 18z" />
    <glyph glyph-name="afii10087" unicode="&#x445;" horiz-adv-x="1177" 
d="M365 1024l223 -346l217 346h289l-338 -492l370 -532h-301l-241 375l-250 -375h-283l363 524l-344 500h295z" />
    <glyph glyph-name="afii10088" unicode="&#x446;" horiz-adv-x="1165" 
d="M348 221h422v803h248v-803h96v-409h-215l-18 188h-779v1024h246v-803z" />
    <glyph glyph-name="afii10089" unicode="&#x447;" horiz-adv-x="1128" 
d="M1026 0h-248v262q-96 -39 -223 -39q-109 0 -200.5 34.5t-151.5 98.5q-121 131 -121 338v330h248v-322q0 -133 57 -198q52 -62 172 -62q125 0 219 58v524h248v-1024z" />
    <glyph glyph-name="afii10090" unicode="&#x448;" horiz-adv-x="1554" 
d="M899 1024v-805h307v805h246v-1024h-1350v1024h246v-805h305v805h246z" />
    <glyph glyph-name="afii10091" unicode="&#x449;" horiz-adv-x="1593" 
d="M1454 1024v-805h88v-405h-215l-20 186h-1205v1024h246v-805h307v805h246v-805h307v805h246z" />
    <glyph glyph-name="afii10092" unicode="&#x44a;" horiz-adv-x="1202" 
d="M1141 385q0 -162 -117 -276q-109 -109 -289 -109h-487v805l-207 12v207h453v-258h241q180 0 291 -111q115 -115 115 -270zM895 385q0 75 -39 111q-49 49 -129 49h-233v-324h243q72 0 117 45q41 41 41 119z" />
    <glyph glyph-name="afii10093" unicode="&#x44b;" horiz-adv-x="1435" 
d="M995 385q0 -148 -92 -254q-118 -131 -311 -131h-490v1024h246v-258h244q93 0 175.5 -39t139.5 -102q88 -101 88 -240zM750 385q0 44 -29 100q-49 60 -135 60h-238v-324h252q73 0 111 47q39 36 39 117zM1083 1024h250v-1024h-250v1024z" />
    <glyph glyph-name="afii10094" unicode="&#x44c;" horiz-adv-x="1056" 
d="M995 385q0 -171 -114 -279q-112 -106 -291 -106h-488v1024h246v-258h244q186 0 301 -121q102 -107 102 -260zM750 385q0 68 -37 111q-43 49 -133 49h-232v-324h246q76 0 119 49q37 43 37 115z" />
    <glyph glyph-name="afii10095" unicode="&#x44d;" horiz-adv-x="1132" 
d="M313 416v221h496q-12 78 -82 131q-80 57 -195 57q-166 0 -296 -127l-148 152q96 105 203.5 148.5t243.5 43.5q250 0 399 -155q136 -143 139 -375q0 -116 -41 -218t-119 -177q-141 -135 -381 -135q-133 0 -240.5 44t-209.5 146l145 162q145 -133 305 -133q118 0 197 65
q71 60 84 150h-500z" />
    <glyph glyph-name="afii10096" unicode="&#x44e;" horiz-adv-x="1562" 
d="M973 1042q239 0 387 -161q67 -73 104 -168.5t37 -200.5q0 -222 -145 -373q-71 -74 -169 -115.5t-214 -41.5q-220 0 -367 141q-64 62 -101 131t-54 160h-101v-414h-248v1024h248v-389h105q40 172 161 278q68 61 161 95t196 34zM1253 512q0 127 -67 215q-37 45 -93.5 70.5
t-119.5 25.5q-116 0 -187 -71q-96 -93 -96 -240q0 -140 76 -219q78 -90 207 -90q125 0 205 92q75 81 75 217z" />
    <glyph glyph-name="afii10097" unicode="&#x44f;" horiz-adv-x="1081" 
d="M74 641q0 136 78 240q117 143 342 143h485v-1024h-246v258h-252l-143 -258h-283l197 319q-73 53 -127 138q-51 83 -51 184zM324 641q0 -66 36 -111q50 -53 136 -53h237v326h-241q-91 0 -134 -49q-34 -46 -34 -113z" />
    <glyph glyph-name="afii10071" unicode="&#x451;" horiz-adv-x="993" 
d="M102 0v1024h826v-221h-580v-176h518v-219h-518v-189h598v-219h-844zM559 1251q0 58 39 98t98 40q57 0 97.5 -40.5t40.5 -97.5t-40.5 -97t-97.5 -40q-59 0 -98 39.5t-39 97.5zM158 1251q0 57 40 97.5t97 40.5t97 -40.5t40 -97.5t-40 -97t-97 -40t-97 40t-40 97z" />
    <glyph glyph-name="afii10099" unicode="&#x452;" horiz-adv-x="1431" 
d="M37 805v219h979v-219h-367v-115q87 43 203 43q182 0 303 -100q75 -59 117.5 -146t42.5 -194v-133q0 -140 -51 -226q-50 -92 -193 -186l-135 139q73 70 102 129q29 63 29 152v119q0 123 -55 172q-58 55 -168 55q-47 0 -102.5 -13.5t-92.5 -33.5v-467h-246v805h-366z" />
    <glyph glyph-name="afii10100" unicode="&#x453;" horiz-adv-x="966" 
d="M348 805v-805h-246v1024h793v-219h-547zM414 1198l145 363l207 -105l-186 -336z" />
    <glyph glyph-name="afii10101" unicode="&#x454;" horiz-adv-x="1132" 
d="M842 637v-221h-500q13 -90 84 -150q79 -65 197 -65q160 0 305 133l145 -162q-102 -102 -209.5 -146t-240.5 -44q-240 0 -381 135q-78 75 -119 177t-41 218q3 232 139 375q149 155 400 155q135 0 242.5 -43.5t203.5 -148.5l-147 -152q-130 127 -297 127q-115 0 -195 -57
q-70 -53 -82 -131h496z" />
    <glyph glyph-name="afii10102" unicode="&#x455;" horiz-adv-x="1064" 
d="M88 743q0 141 115 220q121 79 329 79q224 0 433 -102l-88 -197q-97 44 -174.5 62t-163.5 18q-116 0 -164 -22q-37 -21 -37 -56q0 -29 20 -43q26 -23 91 -32l194 -33q207 -41 287 -119q74 -85 74 -196q0 -134 -91 -222q-127 -118 -407 -118q-132 0 -227.5 23.5
t-208.5 84.5l94 199q100 -48 175 -66t165 -18q128 0 205 35q51 29 51 77q0 32 -35 50q-39 23 -119 36l-221 39q-151 25 -223 103q-74 77 -74 198z" />
    <glyph glyph-name="afii10103" unicode="&#x456;" horiz-adv-x="454" 
d="M102 1024h250v-1024h-250v1024z" />
    <glyph glyph-name="afii10104" unicode="&#x457;" horiz-adv-x="454" 
d="M102 1024h250v-1024h-250v1024zM295 1251q0 58 39 98t98 40q57 0 97 -40.5t40 -97.5t-40 -97t-97 -40q-59 0 -98 39.5t-39 97.5zM-106 1251q0 57 40 97.5t97 40.5t97 -40.5t40 -97.5t-40 -97t-97 -40t-97 40t-40 97z" />
    <glyph glyph-name="afii10105" unicode="&#x458;" horiz-adv-x="968" 
d="M629 1024h248v-575q0 -230 -129 -353q-123 -114 -332 -114q-243 0 -385 178l151 153q100 -106 236 -106q99 0 157 67q54 64 54 162v588z" />
    <glyph glyph-name="afii10106" unicode="&#x459;" horiz-adv-x="1867" 
d="M393 1024h758v-258h250q186 0 303 -123q102 -108 102 -258q0 -157 -106 -266q-113 -119 -299 -119h-498v803h-291l-82 -565q-23 -136 -104 -195q-76 -51 -201 -51q-61 0 -102.5 8t-91.5 31l51 200q66 -18 113 -18q45 0 73 25q22 22 25 53zM1561 385q0 67 -37 107
q-50 53 -129 53h-244v-324h258q71 0 115 51q37 52 37 113z" />
    <glyph glyph-name="afii10107" unicode="&#x45a;" horiz-adv-x="1755" 
d="M791 1024h247v-258h248q91 0 174 -37t139 -96q95 -105 95 -248q0 -144 -103 -262q-117 -123 -305 -123h-495v432h-443v-432h-246v1024h246v-371h443v371zM1448 385q0 57 -35 104q-42 56 -131 56h-244v-324h258q75 0 113 47q39 42 39 117z" />
    <glyph glyph-name="afii10108" unicode="&#x45b;" horiz-adv-x="1417" 
d="M37 805v219h979v-219h-367v-115q87 43 203 43q182 0 303 -100q75 -59 117.5 -146t42.5 -194v-293h-248v287q0 123 -55 172q-58 55 -168 55q-47 0 -102.5 -13.5t-92.5 -33.5v-467h-246v805h-366z" />
    <glyph glyph-name="afii10109" unicode="&#x45c;" horiz-adv-x="1110" 
d="M102 1024h244v-373h113q32 0 53 15q20 13 31 36l92 185q34 69 94 106q67 43 166 43q91 0 145 -16l-32 -207h-78q-38 0 -58 -14q-16 -10 -32 -41l-86 -168q-11 -24 -35 -45l330 -545h-285l-246 438q-21 -6 -47 -6h-125v-432h-244v1024zM455 1198l145 363l207 -105
l-186 -336z" />
    <glyph glyph-name="afii10110" unicode="&#x45e;" horiz-adv-x="1208" 
d="M885 1024h272l-434 -838q-55 -104 -131 -153q-54 -41 -152 -41q-80 0 -145 16l14 195h92q30 0 50 10q19 8 30 33l4 8l-434 770h285l282 -539h9zM618 1110q-113 0 -192 57q-84 59 -121 146l174 86q18 -32 41 -58q38 -38 103 -38q62 0 100 38q24 24 43 58l172 -86
q-34 -85 -115 -142q-86 -61 -205 -61z" />
    <glyph glyph-name="afii10193" unicode="&#x45f;" horiz-adv-x="1136" 
d="M348 221h438v803h248v-1024h-348l-12 -188h-213l-12 188h-347v1024h246v-803z" />
    <glyph glyph-name="afii10146" unicode="&#x462;" horiz-adv-x="1206" 
d="M-2 936v203h94v90h246v-90h303v-203h-303v-55h319q256 0 390 -160q98 -112 98 -279q0 -203 -144 -331q-123 -111 -344 -111h-565v936h-94zM899 442q0 79 -39 138q-64 77 -209 77h-313v-436h321q134 0 199 78q41 59 41 143z" />
    <glyph glyph-name="afii10194" unicode="&#x463;" horiz-adv-x="1056" 
d="M10 823v201h92v182h246v-182h250v-201h-250v-57h242q90 0 173 -37t138 -98q94 -100 94 -246q0 -154 -102 -262q-117 -123 -303 -123h-488v823h-92zM750 385q0 51 -31 104q-49 56 -135 56h-236v-324h250q75 0 113 47q39 39 39 117z" />
    <glyph glyph-name="afii10147" unicode="&#x472;" horiz-adv-x="1419" 
d="M709 1251q284 0 462 -178q183 -189 183 -459q0 -263 -170 -442q-185 -195 -475 -195q-272 0 -459 177q-92 88 -141.5 206.5t-49.5 253.5q0 252 164 433q88 96 214 150t272 54zM936 446q-84 0 -143 19.5t-119 58.5q-93 56 -203 56q-86 0 -164 -35q18 -123 103 -215
q55 -62 132 -96.5t167 -34.5q87 0 165 34.5t132 96.5q67 73 94 168q-35 -23 -81.5 -37.5t-82.5 -14.5zM709 1030q-148 0 -263 -88q-87 -69 -127 -178q78 35 173 35q122 0 231 -62q105 -65 223 -65q106 0 156 28q-19 110 -96 201q-58 61 -135.5 95t-161.5 34z" />
    <glyph glyph-name="afii10195" unicode="&#x473;" 
d="M606 1042q116 0 218 -42t175 -117q150 -150 150 -371q0 -111 -41 -210.5t-119 -172.5q-153 -147 -383 -147q-238 0 -391 153q-73 73 -113.5 170.5t-40.5 206.5q0 111 43.5 212t122.5 175q153 143 379 143zM745 365q-96 0 -180 57q-64 43 -149 43q-41 0 -101 -31
q14 -81 78 -145q82 -88 213 -88q114 0 197 65q68 58 88 131q-94 -32 -146 -32zM606 823q-107 0 -180 -49q-73 -55 -102 -127q64 27 127 27q111 0 208 -58q61 -38 148 -38q47 0 86 20q-29 100 -80 143q-88 82 -207 82z" />
    <glyph glyph-name="afii10148" unicode="&#x474;" horiz-adv-x="1415" 
d="M836 0h-265l-514 1229h260l371 -955h17l75 256q61 205 166 373q124 202 318 383l151 -145q-156 -166 -268 -355q-79 -142 -150 -335z" />
    <glyph glyph-name="afii10196" unicode="&#x475;" horiz-adv-x="1214" 
d="M760 0h-277l-432 1024h266l306 -768h12l45 195q39 167 135 319q103 165 250 309l170 -145q-143 -140 -227 -301q-58 -101 -115 -260z" />
    <glyph glyph-name="afii10050" unicode="&#x490;" horiz-adv-x="1114" 
d="M346 1008v-1008h-246v1229h734l20 190l209 -8v-403h-717z" />
    <glyph glyph-name="afii10098" unicode="&#x491;" horiz-adv-x="966" 
d="M348 805v-805h-246v1024h560l16 162h217v-381h-547z" />
    <glyph glyph-name="uni04D8" unicode="&#x4d8;" horiz-adv-x="1396" 
d="M334 891l-152 164q113 105 231.5 150.5t280.5 45.5q286 0 473 -190q168 -168 168 -447q0 -266 -170 -450q-181 -187 -467 -187q-152 0 -279 57.5t-214 162.5q-144 181 -144 417q0 81 13 148h995q-34 118 -117 186q-101 84 -258 84q-219 0 -360 -141zM698 197
q173 0 277 104q92 95 115 244h-777q24 -157 97 -230q118 -118 288 -118z" />
    <glyph glyph-name="afii10846" unicode="&#x4d9;" horiz-adv-x="1193" 
d="M276 711l-141 159q95 87 203.5 129.5t247.5 42.5q227 0 377 -131q170 -157 170 -401q0 -110 -40.5 -208.5t-115.5 -172.5q-153 -147 -381 -147q-232 0 -385 153q-150 147 -150 375q0 62 13 139h784q-24 78 -90 123q-74 51 -182 51q-103 0 -169 -24.5t-141 -87.5zM801 285
q61 61 80 145h-568q15 -87 72 -141q82 -88 211 -88q121 0 205 84z" />
    <glyph glyph-name="Wgrave" unicode="&#x1e80;" horiz-adv-x="1949" 
d="M743 0h-331l-361 1229h264l260 -983h9l221 983h332l237 -983h8l252 983h262l-362 -1229h-334l-233 930h-9zM922 1792l178 -406l-162 -77l-209 387z" />
    <glyph glyph-name="wgrave" unicode="&#x1e81;" horiz-adv-x="1740" 
d="M668 0h-287l-320 1024h265l200 -739h9l202 739h267l206 -741h11l196 741h262l-317 -1024h-291l-201 668h-8zM831 1561l146 -363l-166 -78l-186 336z" />
    <glyph glyph-name="Wacute" unicode="&#x1e82;" horiz-adv-x="1949" 
d="M743 0h-331l-361 1229h264l260 -983h9l221 983h332l237 -983h8l252 983h262l-362 -1229h-334l-233 930h-9zM885 1386l178 406l192 -96l-208 -387z" />
    <glyph glyph-name="wacute" unicode="&#x1e83;" horiz-adv-x="1740" 
d="M668 0h-287l-320 1024h265l200 -739h9l202 739h267l206 -741h11l196 741h262l-317 -1024h-291l-201 668h-8zM801 1198l145 363l207 -105l-186 -336z" />
    <glyph glyph-name="Wdieresis" unicode="&#x1e84;" horiz-adv-x="1949" 
d="M743 0h-331l-361 1229h264l260 -983h9l221 983h332l237 -983h8l252 983h262l-362 -1229h-334l-233 930h-9zM1040 1462q0 61 40.5 102.5t101.5 41.5t104 -42t43 -102t-43 -102.5t-104 -42.5t-101.5 42t-40.5 103zM616 1462q0 60 43 102t103 42t102.5 -42t42.5 -102
t-42.5 -102.5t-102.5 -42.5t-103 42.5t-43 102.5z" />
    <glyph glyph-name="wdieresis" unicode="&#x1e85;" horiz-adv-x="1740" 
d="M668 0h-287l-320 1024h265l200 -739h9l202 739h267l206 -741h11l196 741h262l-317 -1024h-291l-201 668h-8zM936 1251q0 58 39 98t98 40q57 0 97 -40.5t40 -97.5t-40 -97t-97 -40q-59 0 -98 39.5t-39 97.5zM535 1251q0 57 40 97.5t97 40.5t97 -40.5t40 -97.5t-40 -97
t-97 -40t-97 40t-40 97z" />
    <glyph glyph-name="Ygrave" unicode="&#x1ef2;" horiz-adv-x="1390" 
d="M817 0h-242v297l-530 932h283l358 -674h21l364 674h268l-522 -934v-295zM678 1792l178 -406l-162 -77l-209 387z" />
    <glyph glyph-name="ygrave" unicode="&#x1ef3;" horiz-adv-x="1212" 
d="M729 0h-246v248l-432 776h279l276 -532h12l269 532h274l-432 -778v-246zM549 1561l145 -363l-166 -78l-186 336z" />
    <glyph glyph-name="endash" unicode="&#x2013;" horiz-adv-x="919" 
d="M68 635h782v-197h-782v197z" />
    <glyph glyph-name="emdash" unicode="&#x2014;" horiz-adv-x="1079" 
d="M68 635h942v-197h-942v197z" />
    <glyph glyph-name="quoteleft" unicode="&#x2018;" horiz-adv-x="364" 
d="M182 995q-58 0 -91.5 33t-33.5 84q0 22 13 57l82 211l118 -32l-22 -127q57 -30 57 -109q0 -51 -32.5 -84t-90.5 -33z" />
    <glyph glyph-name="quoteright" unicode="&#x2019;" horiz-adv-x="364" 
d="M180 1272q58 0 91.5 -33t33.5 -84q0 -25 -12 -57l-82 -211l-119 33l23 127q-58 31 -58 108q0 51 32.5 84t90.5 33z" />
    <glyph glyph-name="quotesinglbase" unicode="&#x201a;" horiz-adv-x="364" 
d="M180 223q58 0 91.5 -33t33.5 -84q0 -25 -12 -57l-82 -211l-119 33l23 127q-58 31 -58 108q0 51 32.5 84t90.5 33z" />
    <glyph glyph-name="quotedblleft" unicode="&#x201c;" horiz-adv-x="657" 
d="M475 995q-58 0 -91.5 33t-33.5 84q0 25 12 57l82 211l119 -32l-22 -127q57 -30 57 -109q0 -51 -32.5 -84t-90.5 -33zM182 995q-58 0 -91.5 33t-33.5 84q0 22 13 57l82 211l118 -32l-22 -127q57 -30 57 -109q0 -51 -32.5 -84t-90.5 -33z" />
    <glyph glyph-name="quotedblright" unicode="&#x201d;" horiz-adv-x="657" 
d="M471 1272q58 0 91.5 -33t33.5 -84q0 -25 -12 -57l-82 -211l-119 33l23 127q-58 31 -58 108q0 51 32.5 84t90.5 33zM180 1272q58 0 91.5 -33t33.5 -84q0 -25 -12 -57l-82 -211l-119 33l23 127q-58 31 -58 108q0 51 32.5 84t90.5 33z" />
    <glyph glyph-name="quotedblbase" unicode="&#x201e;" horiz-adv-x="657" 
d="M180 223q58 0 91.5 -33t33.5 -84q0 -25 -12 -57l-82 -211l-119 33l23 127q-58 31 -58 108q0 51 32.5 84t90.5 33zM471 223q58 0 91.5 -33t33.5 -84q0 -25 -12 -57l-82 -211l-119 33l23 127q-58 31 -58 108q0 51 32.5 84t90.5 33z" />
    <glyph glyph-name="dagger" unicode="&#x2020;" horiz-adv-x="657" 
d="M260 238l-12 194v123l8 117l-80 -10h-72l-59 57v37l59 57h72l78 -6l-6 70v90l57 57h45l60 -57v-90l-11 -74l76 10h78l61 -57v-37l-61 -57h-78l-76 10l11 -117v-123l-15 -194l-43 -310h-49z" />
    <glyph glyph-name="daggerdbl" unicode="&#x2021;" horiz-adv-x="657" 
d="M401 418l9 -66l-60 -424h-45l-57 424l6 66l-78 -8h-72l-59 59v35l59 59h72l78 -8l-6 57l6 56l-78 -6h-72l-59 57v37l59 57h72l78 -6l-6 70v90l57 57h45l60 -57v-90l-11 -74l76 10h78l61 -57v-37l-61 -57h-78l-74 6l9 -56l-9 -57l74 8h78l61 -59v-35l-61 -59h-78z" />
    <glyph glyph-name="bullet" unicode="&#x2022;" horiz-adv-x="450" 
d="M68 662q0 69 45.5 115t111.5 46q68 0 113 -46t45 -115q0 -66 -45.5 -112t-112.5 -46q-66 0 -111.5 46t-45.5 112z" />
    <glyph glyph-name="onedotenleader" unicode="&#x2024;" horiz-adv-x="448" 
d="M72 137q0 66 41 107t110 41q71 0 112.5 -40.5t41.5 -107.5q0 -64 -41.5 -105.5t-112.5 -41.5q-68 0 -109.5 41.5t-41.5 105.5z" />
    <glyph glyph-name="twodotenleader" unicode="&#x2025;" horiz-adv-x="849" 
d="M72 137q0 66 41 107t110 41q71 0 112.5 -40.5t41.5 -107.5q0 -64 -41.5 -105.5t-112.5 -41.5q-68 0 -109.5 41.5t-41.5 105.5zM471 137q0 66 41.5 107t110.5 41q71 0 112 -40.5t41 -107.5q0 -65 -41 -106t-112 -41q-68 0 -110 41.5t-42 105.5z" />
    <glyph glyph-name="ellipsis" unicode="&#x2026;" horiz-adv-x="1251" 
d="M72 137q0 66 41 107t110 41q71 0 112.5 -40.5t41.5 -107.5q0 -64 -41.5 -105.5t-112.5 -41.5q-68 0 -109.5 41.5t-41.5 105.5zM471 137q0 66 41.5 107t110.5 41q71 0 112 -40.5t41 -107.5q0 -65 -41 -106t-112 -41q-68 0 -110 41.5t-42 105.5zM872 137q0 66 41.5 107
t110.5 41q71 0 112.5 -40.5t41.5 -107.5q0 -64 -41.5 -105.5t-112.5 -41.5q-68 0 -110 41.5t-42 105.5z" />
    <glyph glyph-name="perthousand" unicode="&#x2030;" horiz-adv-x="2076" 
d="M291 57l682 1000l151 -99l-692 -995zM1073 -18q-127 0 -213 86t-86 213q0 129 88 217q88 82 211 82q151 0 236 -105q65 -81 65 -194q0 -116 -71 -199q-87 -100 -230 -100zM1198 285q0 53 -35 88q-37 37 -90 37t-88 -35q-39 -31 -39 -90q0 -61 37 -95q36 -36 90 -36
q56 0 94 41q31 36 31 90zM340 444q-127 0 -213 86t-86 213q0 130 88 218q87 81 211 81q150 0 235 -104q66 -82 66 -195q0 -114 -72 -198q-88 -101 -229 -101zM465 748q0 55 -35 90q-30 34 -90 34q-54 0 -88 -34q-39 -31 -39 -90q0 -61 37 -95q37 -37 90 -37q56 0 94 41
q31 36 31 91zM1735 -18q-127 0 -213 86t-86 213q0 129 88 217q88 82 211 82q149 0 235 -105q66 -82 66 -194q0 -115 -72 -199q-87 -100 -229 -100zM1860 285q0 53 -35 88q-37 37 -90 37t-88 -35q-39 -31 -39 -90q0 -61 37 -95q36 -36 90 -36q56 0 94 41q31 36 31 90z" />
    <glyph glyph-name="guilsinglleft" unicode="&#x2039;" horiz-adv-x="616" 
d="M465 862l90 -131l-264 -215l264 -219l-90 -131l-424 295v106z" />
    <glyph glyph-name="guilsinglright" unicode="&#x203a;" horiz-adv-x="616" 
d="M125 166l-90 131l262 215l-262 219l90 131l422 -295v-106z" />
    <glyph glyph-name="exclamdbl" unicode="&#x203c;" horiz-adv-x="806" 
d="M102 1298h217v-311l-6 -641h-200l-11 641v311zM70 133q0 63 39 103t102 40q65 0 105 -40t40 -103q0 -66 -39.5 -105.5t-105.5 -39.5q-63 0 -102 39.5t-39 105.5zM483 1298h217v-311l-6 -641h-200l-11 641v311zM451 133q0 63 39 103t102 40q66 0 105.5 -40t39.5 -103
q0 -66 -39.5 -105.5t-105.5 -39.5q-63 0 -102 39.5t-39 105.5z" />
    <glyph glyph-name="fraction" unicode="&#x2044;" horiz-adv-x="405" 
d="M-127 -14l565 1095l94 -45l-567 -1097z" />
    <glyph glyph-name="zerosuperior" unicode="&#x2070;" horiz-adv-x="702" 
d="M655 952q0 -129 -86 -215q-88 -88 -221 -88t-221 88q-86 86 -86 215t86 215q88 88 221 88t221 -88q86 -86 86 -215zM188 952q0 -76 48 -127q42 -45 112 -45q71 0 113 45q47 50 47 127t-47 127q-42 45 -113 45q-70 0 -112 -45q-48 -51 -48 -127z" />
    <glyph glyph-name="foursuperior" unicode="&#x2074;" horiz-adv-x="655" 
d="M68 737v123l346 369h106v-363h64v-116l-64 -13v-84h-139v84h-313zM381 866v162l-150 -162h150z" />
    <glyph glyph-name="fivesuperior" unicode="&#x2075;" horiz-adv-x="608" 
d="M285 764q69 0 104 35q19 22 19 53q0 32 -21 47q-30 23 -88 23q-53 0 -77.5 -5t-61.5 -22l-82 14v320h430v-131h-297v-70q33 14 102 14q122 0 181 -65q53 -56 53 -125q0 -85 -58 -143q-72 -72 -204 -72q-144 0 -234 90l86 92q37 -32 67.5 -43.5t80.5 -11.5z" />
    <glyph glyph-name="sixsuperior" unicode="&#x2076;" horiz-adv-x="630" 
d="M479 1108q-67 33 -149 33q-65 0 -92 -27q-26 -20 -35 -65q66 30 127 30q117 0 182 -65q57 -60 57 -144q0 -88 -59 -147q-72 -72 -186 -72q-59 0 -115 23t-90 71q-58 78 -58 209q0 138 68 222q32 41 84.5 64.5t112.5 23.5t105.5 -12t98.5 -46zM229 817q40 -43 99 -43
q49 0 78 29q24 27 24 67q0 41 -27 62q-33 26 -84 26q-41 0 -64.5 -6t-53.5 -24q0 -74 28 -111z" />
    <glyph glyph-name="sevensuperior" unicode="&#x2077;" horiz-adv-x="565" 
d="M51 1102v127h463v-90l-221 -480h-156l211 443h-297z" />
    <glyph glyph-name="eightsuperior" unicode="&#x2078;" horiz-adv-x="655" 
d="M328 653q-136 0 -205 64q-62 56 -62 143q0 36 23 74q25 32 61 51q-39 39 -39 102q0 84 60 130q57 49 166 49q107 0 166 -56q49 -43 49 -118q0 -62 -35 -88q36 -19 59 -56q23 -38 23 -84q0 -91 -68 -149q-77 -62 -198 -62zM328 1145q-49 0 -68 -12q-20 -14 -20 -39
q0 -26 16 -33q33 -14 72 -14q36 0 63 -3q19 19 19 50q0 23 -21 36q-26 15 -61 15zM328 926q-63 0 -101 10q-26 -33 -26 -72q0 -34 24 -55q29 -29 103 -29q69 0 98 21q29 19 29 61q0 29 -23 47q-31 17 -104 17z" />
    <glyph glyph-name="ninesuperior" unicode="&#x2079;" horiz-adv-x="630" 
d="M135 811q79 -33 166 -33q45 0 84 27q27 24 35 57q-44 -26 -109 -26q-114 0 -184 61q-64 57 -64 152q0 88 70 155q71 62 174 62q119 0 195 -82q69 -78 69 -211q0 -136 -53 -213q-68 -109 -217 -109q-113 0 -213 58zM399 1100q-34 43 -96 43q-44 0 -74 -23q-28 -25 -28 -69
t28 -66q24 -19 80 -22q44 0 68 5t53 21q0 75 -31 111z" />
    <glyph glyph-name="parenleftsuperior" unicode="&#x207d;" horiz-adv-x="315" 
d="M195 944q0 -186 79 -315l-106 -54q-107 169 -107 369q0 201 107 373l106 -57q-79 -126 -79 -316z" />
    <glyph glyph-name="parenrightsuperior" unicode="&#x207e;" horiz-adv-x="315" 
d="M121 946q0 184 -80 318l106 53q107 -167 107 -371q0 -207 -107 -371l-106 56q80 128 80 315z" />
    <glyph glyph-name="zeroinferior" unicode="&#x2080;" horiz-adv-x="702" 
d="M655 180q0 -129 -86 -215q-88 -88 -221 -88t-221 88q-86 86 -86 215t86 215q88 88 221 88t221 -88q86 -86 86 -215zM188 180q0 -76 48 -127q42 -45 112 -45q71 0 113 45q47 50 47 127t-47 127q-42 45 -113 45q-70 0 -112 -45q-48 -51 -48 -127z" />
    <glyph glyph-name="oneinferior" unicode="&#x2081;" horiz-adv-x="364" 
d="M74 268l-43 97l170 88h82v-570h-136v410z" />
    <glyph glyph-name="twoinferior" unicode="&#x2082;" horiz-adv-x="598" 
d="M82 -111v121l244 162q33 20 53 53q16 26 16 58q0 31 -24 49q-36 22 -78 22q-46 0 -81.5 -15.5t-74.5 -57.5l-90 75q96 127 246 127q111 0 182 -65q60 -57 60 -139q0 -61 -33 -111q-32 -49 -94 -92l-97 -62h219v-125h-448z" />
    <glyph glyph-name="threeinferior" unicode="&#x2083;" horiz-adv-x="636" 
d="M307 10q28 0 40 0.5t34.5 7.5t34.5 21q20 20 20 49q0 23 -14 37q-20 20 -68 20h-164v117h162q18 0 35 10q14 14 14 35q0 28 -18 43q-21 21 -78 21q-51 0 -83.5 -13t-74.5 -45l-69 90q95 95 231 95q115 0 172 -54q56 -53 56 -127q0 -57 -43 -90q38 -23 59.5 -60t21.5 -79
q0 -81 -53 -137q-71 -74 -215 -74q-77 0 -136 25t-120 82l88 96q45 -41 81.5 -55.5t86.5 -14.5z" />
    <glyph glyph-name="fourinferior" unicode="&#x2084;" horiz-adv-x="614" 
d="M68 -39v123l346 369h106v-363h64v-117l-64 -12v-84h-139v84h-313zM381 90v162l-150 -162h150z" />
    <glyph glyph-name="fiveinferior" unicode="&#x2085;" horiz-adv-x="608" 
d="M285 -12q69 0 104 35q19 22 19 53q0 32 -21 47q-28 22 -88 22q-54 0 -78.5 -4.5t-60.5 -21.5l-82 14v320h430v-131h-297v-70q33 14 102 14q122 0 181 -65q53 -56 53 -125q0 -86 -58 -144q-71 -71 -204 -71q-144 0 -234 90l86 92q37 -32 67.5 -43.5t80.5 -11.5z" />
    <glyph glyph-name="sixinferior" unicode="&#x2086;" horiz-adv-x="630" 
d="M479 336q-67 33 -149 33q-65 0 -92 -27q-26 -20 -35 -66q68 31 127 31q117 0 182 -65q57 -60 57 -144q0 -88 -59 -147q-72 -72 -186 -72q-59 0 -115 23t-90 71q-58 78 -58 209q0 137 68 221q32 41 84.5 65t112.5 24t105.5 -12t98.5 -46zM229 45q40 -43 99 -43q49 0 78 29
q24 27 24 67q0 41 -27 62q-33 26 -84 26q-41 0 -64.5 -6t-53.5 -24q0 -74 28 -111z" />
    <glyph glyph-name="seveninferior" unicode="&#x2087;" horiz-adv-x="565" 
d="M51 326v127h463v-91l-221 -479h-156l211 443h-297z" />
    <glyph glyph-name="eightinferior" unicode="&#x2088;" horiz-adv-x="655" 
d="M328 -119q-136 0 -205 64q-62 56 -62 143q0 36 23 74q25 32 61 51q-39 39 -39 102q0 83 60 129q59 50 166 50t166 -56q49 -43 49 -119q0 -62 -35 -88q37 -19 59 -55q23 -38 23 -84q0 -91 -68 -149q-77 -62 -198 -62zM328 373q-47 0 -68 -13q-20 -14 -20 -38q0 -26 16 -33
q35 -15 72 -15q45 0 63 -2q19 19 19 50q0 23 -21 36q-26 15 -61 15zM328 154q-63 0 -101 10q-26 -33 -26 -72q0 -34 24 -55q29 -29 103 -29q69 0 98 21q29 19 29 61q0 29 -23 47q-31 17 -104 17z" />
    <glyph glyph-name="nineinferior" unicode="&#x2089;" horiz-adv-x="630" 
d="M135 39q79 -33 166 -33q45 0 84 27q27 24 35 57q-46 -27 -109 -27q-113 0 -184 62q-64 57 -64 151q0 89 70 156q71 62 174 62q119 0 195 -82q69 -78 69 -211q0 -136 -53 -213q-68 -109 -217 -109q-113 0 -213 58zM399 328q-34 43 -96 43q-44 0 -74 -23q-28 -25 -28 -69
t28 -66q25 -20 80 -23q43 0 67 5t54 22q0 75 -31 111z" />
    <glyph glyph-name="parenleftinferior" unicode="&#x208d;" horiz-adv-x="315" 
d="M195 168q0 -186 79 -315l-106 -54q-107 169 -107 369q0 201 107 373l106 -58q-79 -126 -79 -315z" />
    <glyph glyph-name="parenrightinferior" unicode="&#x208e;" horiz-adv-x="315" 
d="M121 170q0 183 -80 317l106 54q107 -167 107 -371q0 -207 -107 -371l-106 56q80 128 80 315z" />
    <glyph glyph-name="Euro" unicode="&#x20ac;" horiz-adv-x="1118" 
d="M23 487h741l-37 -159h-362q26 -50 90 -88q76 -37 157 -37q148 0 285 125l147 -158q-99 -99 -200.5 -143.5t-231.5 -44.5q-97 0 -194.5 31t-173.5 91q-109 88 -146 224h-75v159zM774 543h-751v159h77q60 160 166 238q138 102 346 102q132 0 231 -38.5t199 -135.5
l-147 -153q-69 61 -129 83.5t-154 22.5t-151 -28q-55 -26 -92 -91h440z" />
    <glyph glyph-name="afii61352" unicode="&#x2116;" horiz-adv-x="1699" 
d="M1202 324h402v-142h-402v142zM836 1024h239v-1024h-219l-512 618v-618h-242v1024h220l514 -616v616zM1636 600q0 -97 -65 -162q-67 -67 -168 -67t-168 67q-66 66 -66 162t66 162q67 67 168 67t168 -67q65 -65 65 -162zM1491 600q0 36 -23 59q-27 27 -65 27q-43 0 -64 -24
q-24 -24 -24 -62q0 -37 24 -61q22 -25 64 -25q38 0 65 27q23 23 23 59z" />
    <glyph glyph-name="trademark" unicode="&#x2122;" horiz-adv-x="1351" 
d="M391 1073v-393h-160v393h-180v156h522v-156h-182zM797 975v-295h-158v549h152l165 -203l164 203h150v-549h-160v295l-129 -152h-61z" />
    <glyph glyph-name="minus" unicode="&#x2212;" horiz-adv-x="724" 
d="M68 653h587v-196h-587v196z" />
    <glyph glyph-name="approxequal" unicode="&#x2248;" horiz-adv-x="802" 
d="M395 340q-82 29 -143 29q-79 0 -129 -43l-82 104q103 111 229 111q80 0 144 -29q60 -27 141 -27q70 0 131 50l76 -113q-94 -107 -225 -107q-65 0 -142 25zM395 606q-82 29 -143 29q-76 0 -129 -45l-82 104q105 113 229 113q80 0 144 -29q62 -28 141 -28q67 0 131 49
l76 -113q-93 -106 -225 -106q-71 0 -142 26z" />
    <glyph glyph-name="notequal" unicode="&#x2260;" horiz-adv-x="753" 
d="M68 467h198l31 115h-229v186h278l35 127l164 -43l-23 -84h164v-186h-215l-31 -115h246v-186h-297l-33 -125l-161 45l22 80h-149v186z" />
    <glyph glyph-name="lessequal" unicode="&#x2264;" horiz-adv-x="643" 
d="M582 381l-90 -131l-451 301v100l451 295l90 -131l-293 -217zM41 451l39 22l393 -260l-90 -129l-342 211v156z" />
    <glyph glyph-name="greaterequal" unicode="&#x2265;" horiz-adv-x="643" 
d="M152 250l-91 131l293 217l-293 217l91 131l450 -295v-100zM563 473l39 -22v-156l-342 -211l-90 129z" />
    <glyph glyph-name="NULL" horiz-adv-x="0" 
 />
    <glyph glyph-name="CR" horiz-adv-x="614" 
 />
    <glyph glyph-name="percent" horiz-adv-x="1415" 
d="M291 57l682 1000l151 -99l-692 -995zM1073 -18q-127 0 -213 86t-86 213q0 129 88 217q88 82 211 82q151 0 236 -105q65 -81 65 -194q0 -116 -71 -199q-87 -100 -230 -100zM1198 285q0 53 -35 88q-37 37 -90 37t-88 -35q-39 -31 -39 -90q0 -61 37 -95q36 -36 90 -36
q56 0 94 41q31 36 31 90zM340 444q-127 0 -213 86t-86 213q0 130 88 218q87 81 211 81q150 0 235 -104q66 -82 66 -195q0 -114 -72 -198q-88 -101 -229 -101zM465 748q0 55 -35 90q-30 34 -90 34q-54 0 -88 -34q-39 -31 -39 -90q0 -61 37 -95q37 -37 90 -37q56 0 94 41
q31 36 31 91z" />
    <glyph glyph-name="Breve" horiz-adv-x="837" 
d="M569 1608l166 -86q-31 -79 -119 -144q-85 -63 -200 -63q-112 0 -193 63q-89 62 -121 144l166 86q23 -41 51 -66q39 -39 99 -39q54 0 96 33q33 23 55 72z" />
    <glyph glyph-name="Dieresis" horiz-adv-x="917" 
d="M526 1462q0 61 40.5 102.5t101.5 41.5t104 -42t43 -102t-43 -102.5t-104 -42.5t-101.5 42t-40.5 103zM102 1462q0 60 43 102t103 42t102.5 -42t42.5 -102t-42.5 -102.5t-102.5 -42.5t-103 42.5t-43 102.5z" />
    <glyph glyph-name="commaaccent" horiz-adv-x="468" 
d="M233 240q64 0 99 -35t35 -92q0 -25 -11 -62l-94 -225l-104 27l32 139q-43 7 -65.5 40.5t-22.5 80.5q0 55 37 91t94 36z" />
    <glyph glyph-name="dblgrave" horiz-adv-x="802" 
d="M596 1548l104 -366l-147 -60l-152 344zM299 1550l156 -356l-158 -80l-195 342z" />
    <glyph glyph-name="Acute" horiz-adv-x="575" 
d="M102 1386l179 406l192 -96l-209 -387z" />
    <glyph glyph-name="Grave" horiz-adv-x="575" 
d="M295 1792l178 -406l-162 -77l-209 387z" />
    <glyph glyph-name="Caron" horiz-adv-x="870" 
d="M102 1591l113 119l221 -182l221 182l111 -119l-285 -284h-96z" />
    <glyph glyph-name="Circumflex" horiz-adv-x="870" 
d="M213 1292l-111 119l285 283h96l285 -283l-111 -119l-221 183z" />
    <glyph glyph-name="commaaccent.cap" horiz-adv-x="473" 
d="M233 244q64 0 101 -36.5t37 -92.5q0 -23 -17 -76l-71 -221l-101 12l8 160q-88 27 -88 125q0 56 35 92.5t96 36.5z" />
    <glyph glyph-name="Dotaccent" horiz-adv-x="505" 
d="M102 133q0 66 45 109t109 43q62 0 104.5 -42.5t42.5 -109.5q0 -65 -42 -105t-105 -40q-65 0 -109.5 40.5t-44.5 104.5z" />
    <glyph glyph-name="Hungarumlaut" horiz-adv-x="817" 
d="M102 1348l119 387l193 -80l-164 -365zM360 1356l166 381l189 -95l-199 -362z" />
    <glyph glyph-name="dblGrave" horiz-adv-x="817" 
d="M596 1735l119 -387l-146 -58l-166 365zM293 1737l164 -381l-156 -76l-199 362z" />
    <glyph glyph-name="Macron" horiz-adv-x="884" 
d="M102 1516h680v-185h-680v185z" />
    <glyph glyph-name="Ring" horiz-adv-x="659" 
d="M330 1266q-92 0 -158 63q-70 70 -70 164q0 88 62 156q65 71 166 71q105 0 174 -78q55 -65 55 -149q0 -92 -72 -164q-66 -63 -157 -63zM330 1391q42 0 73 28q31 31 31 74q0 39 -31 70q-25 32 -73 32q-51 0 -76 -32q-29 -26 -29 -70q0 -39 31 -74q32 -28 74 -28z" />
    <glyph glyph-name="Tilde" horiz-adv-x="970" 
d="M633 1319q-45 0 -73 5t-68 22q-72 30 -150 30t-139 -49l-101 125q109 119 238 119q72 0 141 -29q82 -33 150 -33t139 50l98 -127q-104 -113 -235 -113z" />
    <glyph glyph-name="zero.fitted" horiz-adv-x="1269" 
d="M1264 614q0 -296 -189 -473q-172 -164 -438 -164t-438 164q-189 177 -189 473t189 473q172 164 438 164t438 -164q189 -177 189 -473zM248 614q0 -192 98 -305q106 -125 291 -125t291 125q98 113 98 305q0 193 -98 306q-105 124 -291 124t-291 -124q-98 -113 -98 -306z
" />
    <glyph glyph-name="one.fitted" horiz-adv-x="1269" 
d="M389 895l-82 174l342 160h135v-1229h-227v961z" />
    <glyph glyph-name="two.fitted" horiz-adv-x="1269" 
d="M168 0v193l516 403q86 67 135 141q43 62 43 127q0 62 -39 115q-71 68 -213 68q-196 0 -329 -175l-154 140q183 239 483 239q109 0 206 -30.5t163 -90.5q115 -101 115 -274q0 -132 -86 -244q-86 -108 -197 -194l-268 -213h542v-205h-917z" />
    <glyph glyph-name="three.fitted" horiz-adv-x="1269" 
d="M627 182q87 0 140.5 20t98.5 60q52 55 52 137q0 83 -50 121q-52 41 -149 41h-354v203h325q85 0 125 49q29 37 29 92q0 69 -51 107q-56 39 -187 39q-88 0 -159 -28.5t-144 -98.5l-135 139q185 188 459 188q217 0 336 -108q97 -91 100 -238q0 -63 -29 -119q-16 -36 -65 -75
v-17q87 -46 131 -123q45 -74 45 -172q0 -83 -31.5 -161.5t-95.5 -135.5q-149 -125 -391 -125q-160 0 -280 51.5t-222 166.5l135 143q93 -87 180 -121.5t187 -34.5z" />
    <glyph glyph-name="four.fitted" horiz-adv-x="1269" 
d="M98 176v162l762 891h187v-846h124v-195l-124 -10v-178h-232v176h-717zM815 383v465l-399 -465h399z" />
    <glyph glyph-name="five.fitted" horiz-adv-x="1269" 
d="M618 182q144 0 228 78q67 64 67 162q0 92 -59 151q-78 78 -207 78q-97 0 -158 -14t-131 -51h-149v643h840v-207h-623v-215q95 45 223 45q229 0 359 -121q131 -118 131 -309q0 -200 -125 -313q-144 -132 -396 -132q-163 0 -281 52t-206 161l139 156q85 -88 163 -126
t185 -38z" />
    <glyph glyph-name="six.fitted" horiz-adv-x="1269" 
d="M647 846q115 0 218.5 -36t172.5 -108q111 -111 111 -280q0 -184 -125 -309q-136 -136 -379 -136q-265 0 -407 195q-117 168 -117 426q0 151 43 279.5t127 218.5q142 155 371 155q125 0 226 -33.5t202 -117.5l-125 -156q-80 59 -141.5 78.5t-159.5 19.5q-136 0 -213 -90
q-53 -55 -78 -155q121 49 274 49zM645 182q127 0 199 60q78 63 78 180q0 101 -64 153q-72 66 -211 66q-96 0 -163.5 -14t-131.5 -45v-11q0 -171 72 -278q79 -111 221 -111z" />
    <glyph glyph-name="seven.fitted" horiz-adv-x="1269" 
d="M164 1024v205h948v-154l-551 -1075h-258l531 1024h-670z" />
    <glyph glyph-name="eight.fitted" horiz-adv-x="1269" 
d="M633 -23q-272 0 -414 121q-119 104 -119 283q0 99 56 186q45 68 135 119q-45 36 -66 82q-30 62 -30 141q0 165 131 258q118 84 313 84q207 0 324 -106q106 -93 106 -230q0 -65 -22 -114q-21 -47 -70 -90q87 -46 139 -127q55 -86 55 -193q0 -183 -135 -299
q-145 -115 -403 -115zM633 1049q-127 0 -170 -43q-41 -38 -41 -99q0 -33 13 -58.5t36 -35.5q46 -29 162 -29q91 0 143 -8q29 23 47 55q15 27 15 78q0 62 -41 97q-49 43 -164 43zM633 575q-103 0 -180 15q-54 -22 -84 -68q-37 -45 -37 -131q0 -104 90 -158q86 -51 211 -51
q158 0 244 78q61 54 61 131q0 83 -55 127q-76 57 -250 57z" />
    <glyph glyph-name="nine.fitted" horiz-adv-x="1269" 
d="M621 383q-115 0 -219 35.5t-173 105.5q-108 118 -108 283q0 186 123 309q135 135 379 135q268 0 409 -194q117 -168 117 -426q0 -306 -137 -477q-147 -177 -400 -177q-131 0 -231 29t-201 105l111 165q68 -52 142 -71t177 -19q132 0 209 80q66 66 78 166
q-121 -49 -276 -49zM623 1047q-125 0 -197 -60q-78 -60 -78 -180q0 -102 64 -154q71 -65 209 -65q98 0 165.5 14t131.5 45v10q0 172 -72 279q-79 111 -223 111z" />
    <glyph glyph-name="zerooldstyle" horiz-adv-x="1179" 
d="M1116 512q0 -227 -143 -379q-145 -151 -383 -151t-383 151q-144 153 -144 379t144 379q145 151 383 151t383 -151q143 -152 143 -379zM305 512q0 -147 84 -238q82 -79 201 -79t201 79q83 90 83 238t-83 238q-82 79 -201 79t-201 -79q-84 -91 -84 -238z" />
    <glyph glyph-name="oneoldstyle" horiz-adv-x="555" 
d="M82 700l-78 174l303 150h146v-1024h-244v741z" />
    <glyph glyph-name="twooldstyle" horiz-adv-x="987" 
d="M74 0v184l497 355q64 48 82 82q21 35 21 84q0 16 -4.5 30.5t-9 21.5t-15.5 23q-44 49 -172 49q-144 0 -266 -131l-152 142q165 202 418 202q232 0 342 -110q94 -94 94 -236q0 -102 -45 -176q-52 -87 -178 -170l-209 -137h428v-213h-831z" />
    <glyph glyph-name="threeoldstyle" horiz-adv-x="1030" 
d="M504 195q140 0 194 57q31 39 31 82q0 48 -41 78q-42 22 -102 22h-332v221h330q42 0 65 23q21 15 21 55q0 20 -8.5 38t-20.5 24q-44 34 -147 34q-85 0 -147.5 -21t-143.5 -81l-119 168q100 80 196.5 113.5t221.5 33.5q186 0 303 -94q102 -79 102 -215q0 -56 -24 -102
q-20 -42 -60 -58v-12q72 -35 113 -100q33 -56 33 -127q0 -157 -133 -262q-116 -90 -334 -90q-147 0 -247 42.5t-204 143.5l142 160q81 -78 153.5 -105.5t157.5 -27.5z" />
    <glyph glyph-name="fouroldstyle" horiz-adv-x="1017" 
d="M51 156v180l621 688h198v-653h107v-203l-107 -8v-160h-241v156h-578zM629 371v286l-258 -286h258z" />
    <glyph glyph-name="fiveoldstyle" horiz-adv-x="985" 
d="M442 193q109 0 174 59q43 43 43 102q0 67 -36 103q-51 51 -166 51q-63 0 -126 -17.5t-104 -46.5l-137 37v543h733v-215h-506v-119q73 23 164 23q190 0 301 -92q118 -101 121 -269q0 -158 -125 -266q-118 -104 -336 -104q-142 0 -234 40t-177 130l141 163
q64 -67 124.5 -94.5t145.5 -27.5z" />
    <glyph glyph-name="sixoldstyle" horiz-adv-x="1030" 
d="M530 707q225 0 338 -113q49 -48 75 -112.5t26 -129.5q0 -145 -97 -248q-113 -122 -352 -122q-218 0 -346 153q-113 136 -113 375q0 231 119 377q129 155 361 155q103 0 189 -28t192 -103l-117 -161q-78 52 -135 68t-129 16q-96 0 -166 -60q-44 -37 -58 -98q89 31 213 31z
M520 193q97 0 162 47q53 47 53 114q0 58 -43 95q-50 47 -162 47q-147 0 -231 -35v-19q0 -99 51 -170q55 -79 170 -79z" />
    <glyph glyph-name="sevenoldstyle" horiz-adv-x="927" 
d="M41 811v213h846v-152l-465 -872h-262l436 811h-555z" />
    <glyph glyph-name="eightoldstyle" horiz-adv-x="1081" 
d="M541 1042q190 0 295 -81q99 -77 102 -216q0 -46 -22.5 -86t-55.5 -59v-16q56 -20 96 -74q64 -76 64 -176q0 -164 -117 -254q-125 -98 -362 -98q-236 0 -359 96q-121 92 -121 256q0 67 39 137q32 52 111 98v13q-68 60 -68 163q0 136 103 213q107 84 295 84zM541 455
q-91 0 -164 12q-43 -24 -60 -55q-16 -37 -16 -80q0 -67 68 -107q66 -35 174 -35q136 0 198 54q39 33 39 92t-45 90q-52 29 -194 29zM379 739q0 -77 162 -77q83 0 133 -9q33 33 33 90q0 56 -39 76q-40 23 -125 23q-103 0 -142 -39q-22 -19 -22 -64z" />
    <glyph glyph-name="nineoldstyle" horiz-adv-x="1030" 
d="M498 324q-227 0 -336 106q-101 101 -101 232q0 142 95 243q59 66 151.5 101.5t198.5 35.5q216 0 344 -141q119 -140 119 -387q0 -269 -162 -416q-122 -116 -315 -116q-130 0 -216 24.5t-182 102.5l109 174q74 -56 139 -74.5t147 -18.5q93 0 160 48q63 47 74 133
q-109 -47 -225 -47zM506 831q-53 0 -102 -18t-78 -53q-33 -46 -33 -92q0 -54 39 -93q56 -47 166 -47q135 0 235 41v11q0 46 -12.5 84t-42.5 86q-57 81 -172 81z" />
    <glyph glyph-name="one.taboldstyle" horiz-adv-x="1146" 
d="M340 700l-78 174l303 150h146v-1024h-244v741z" />
    <glyph glyph-name="two.taboldstyle" horiz-adv-x="1146" 
d="M139 0v184l498 355q64 48 82 82q20 33 20 84q0 35 -28 75q-44 49 -172 49q-145 0 -267 -131l-151 142q165 202 418 202q232 0 342 -110q94 -94 94 -236q0 -102 -45 -176q-52 -87 -178 -170l-209 -137h428v-213h-832z" />
    <glyph glyph-name="zero.taboldstyle" horiz-adv-x="1146" 
d="M1110 512q0 -227 -143 -379q-145 -151 -383 -151t-383 151q-144 153 -144 379t144 379q145 151 383 151t383 -151q143 -152 143 -379zM299 512q0 -147 84 -238q82 -79 201 -79q118 0 200 79q84 91 84 238t-84 238q-82 79 -200 79q-119 0 -201 -79q-84 -91 -84 -238z" />
    <glyph glyph-name="three.taboldstyle" horiz-adv-x="1146" 
d="M588 195q140 0 194 57q31 39 31 82q0 48 -41 78q-42 22 -102 22h-332v221h330q42 0 65 23q21 15 21 55q0 20 -8.5 38t-20.5 24q-44 34 -147 34q-85 0 -147.5 -21t-143.5 -81l-119 168q100 80 196.5 113.5t221.5 33.5q186 0 303 -94q102 -79 102 -215q0 -56 -24 -102
q-20 -42 -60 -58v-12q72 -35 113 -100q33 -56 33 -127q0 -157 -133 -262q-116 -90 -334 -90q-147 0 -247 42.5t-204 143.5l141 160q81 -78 154 -105.5t158 -27.5z" />
    <glyph glyph-name="four.taboldstyle" horiz-adv-x="1146" 
d="M117 156v180l620 688h199v-653h106v-203l-106 -8v-160h-242v156h-577zM694 371v286l-258 -286h258z" />
    <glyph glyph-name="five.taboldstyle" horiz-adv-x="1146" 
d="M563 193q109 0 174 59q43 43 43 102q0 66 -37 103q-51 51 -165 51q-63 0 -126 -17.5t-104 -46.5l-137 37v543h733v-215h-506v-119q73 23 164 23q190 0 301 -92q118 -101 121 -269q0 -158 -125 -266q-118 -104 -336 -104q-142 0 -234 40t-177 130l141 163
q64 -67 124.5 -94.5t145.5 -27.5z" />
    <glyph glyph-name="six.taboldstyle" horiz-adv-x="1146" 
d="M600 707q225 0 338 -113q49 -48 74.5 -112t25.5 -130q0 -146 -96 -248q-113 -122 -352 -122q-218 0 -346 153q-113 136 -113 375q0 231 119 377q129 155 360 155q103 0 189 -28t192 -103l-117 -161q-78 52 -135 68t-129 16q-96 0 -166 -60q-43 -36 -57 -98q89 31 213 31z
M590 193q97 0 162 47q53 47 53 114q0 58 -43 95q-50 47 -162 47q-147 0 -231 -35v-19q0 -99 51 -170q55 -79 170 -79z" />
    <glyph glyph-name="seven.taboldstyle" horiz-adv-x="1146" 
d="M168 811v213h846v-152l-465 -872h-262l436 811h-555z" />
    <glyph glyph-name="eight.taboldstyle" horiz-adv-x="1146" 
d="M588 1042q190 0 295 -81q99 -77 102 -216q0 -46 -22.5 -86t-55.5 -59v-16q57 -21 97 -74q63 -75 63 -176q0 -164 -117 -254q-125 -98 -362 -98q-236 0 -359 96q-120 92 -120 256q0 69 38 137q32 52 111 98v13q-68 60 -68 163q0 136 103 213q107 84 295 84zM588 455
q-90 0 -164 12q-41 -23 -59 -55q-17 -39 -17 -80q0 -67 68 -107q66 -35 174 -35q136 0 198 54q39 33 39 92t-45 90q-52 29 -194 29zM426 739q0 -77 162 -77q84 0 133 -9q33 33 33 90q0 56 -39 76q-40 23 -125 23q-102 0 -141 -39q-23 -20 -23 -64z" />
    <glyph glyph-name="nine.taboldstyle" horiz-adv-x="1146" 
d="M567 324q-227 0 -336 106q-100 100 -100 232q0 143 94 243q59 66 151.5 101.5t198.5 35.5q217 0 345 -141q118 -139 118 -387q0 -270 -161 -416q-122 -116 -316 -116q-130 0 -215.5 24.5t-181.5 102.5l108 174q74 -55 139.5 -74t147.5 -19q93 0 160 48q63 47 74 133
q-109 -47 -226 -47zM575 831q-53 0 -102 -18t-78 -53q-33 -46 -33 -92q0 -54 39 -93q56 -47 166 -47q136 0 236 41v11q0 46 -12.5 84t-42.5 86q-57 81 -173 81z" />
    <glyph glyph-name="currency.taboldstyle" horiz-adv-x="1146" 
d="M569 176q-100 0 -159 33l-88 -86l-150 160l78 79q-35 72 -35 150q0 79 31 150l-74 86l150 147l86 -76q79 31 161 31q83 0 162 -31l84 76l160 -147l-86 -86q37 -76 37 -150q0 -83 -37 -152l80 -84l-154 -153l-86 86q-67 -33 -160 -33zM750 512q0 71 -50 121
q-48 51 -131 51q-85 0 -129 -55q-47 -44 -47 -117q0 -71 49 -127q47 -47 127 -47q71 0 131 49q50 50 50 125z" />
    <glyph glyph-name="centoldstyle" horiz-adv-x="1130" 
d="M741 1159v-127q172 -27 318 -178l-154 -160q-68 68 -135.5 97.5t-148.5 29.5q-125 0 -213 -82q-89 -89 -89 -225q0 -137 84 -221q84 -90 218 -90q79 0 147 30.5t137 96.5l154 -160q-75 -78 -147 -117.5t-171 -58.5v-129h-237v129q-176 38 -273 135q-75 75 -117 175.5
t-42 209.5q0 108 41 205t114 170q99 105 277 141v129h237z" />
    <glyph glyph-name="dollaroldstyle" horiz-adv-x="1064" 
d="M88 743q0 108 90 195q77 74 228 98v123h237v-125q148 -14 322 -96l-97 -193q-173 78 -329 78q-118 0 -172 -32q-29 -19 -29 -43q0 -32 20 -46q19 -19 91 -32l194 -33q186 -29 283 -121q78 -75 78 -199q0 -126 -89 -215q-91 -87 -272 -112v-125h-237v121q-92 7 -168 30.5
t-168 73.5l96 199q98 -48 174 -66t164 -18q128 0 205 35q49 29 49 69t-33 58q-39 23 -119 36l-221 39q-144 24 -223 109q-74 77 -74 192z" />
    <glyph glyph-name="cent.taboldstyle" horiz-adv-x="1146" 
d="M774 1159v-127q172 -27 318 -178l-154 -160q-68 68 -136 97.5t-149 29.5q-125 0 -213 -82q-88 -88 -88 -225t84 -221q84 -90 217 -90q152 0 285 127l154 -160q-75 -78 -147 -117.5t-171 -58.5v-129h-237v129q-176 38 -273 135q-75 75 -117.5 175.5t-42.5 209.5
q0 108 41 204.5t115 170.5q99 105 277 141v129h237z" />
    <glyph glyph-name="dollar.taboldstyle" horiz-adv-x="1146" 
d="M125 743q0 108 90 195q77 74 227 98v123h238v-125q147 -14 321 -96l-96 -193q-173 78 -330 78q-118 0 -172 -32q-28 -19 -28 -43q0 -32 20 -46q19 -19 90 -32l195 -33q186 -29 283 -121q77 -74 77 -199q0 -127 -88 -215q-91 -87 -272 -112v-125h-238v121q-92 7 -168 30.5
t-168 73.5l97 199q98 -48 174 -66t164 -18q127 0 204 35q50 30 50 69q0 40 -33 58q-39 23 -119 36l-221 39q-144 24 -223 109q-74 77 -74 192z" />
    <glyph glyph-name="Euro.taboldstyle" horiz-adv-x="1146" 
d="M43 487h741l-36 -159h-363q26 -50 90 -88q76 -37 158 -37q148 0 285 125l147 -158q-99 -99 -200.5 -143.5t-231.5 -44.5q-97 0 -195 31t-174 91q-108 87 -145 224h-76v159zM795 543h-752v159h78q60 160 166 238q138 102 346 102q132 0 231 -38.5t199 -135.5l-148 -153
q-69 61 -128.5 83.5t-153.5 22.5q-95 0 -152 -28q-55 -26 -92 -91h440z" />
    <glyph glyph-name="yen.taboldstyle" horiz-adv-x="1146" 
d="M899 330h-702v153h104l-313 541h278l275 -516h8l285 516h270l-316 -541h111v-153zM197 291h702v-152h-229v-139h-248v139h-225v152z" />
    <glyph glyph-name="numbersign.taboldstyle" horiz-adv-x="1167" 
d="M344 154l12 182h-172v156h183l12 126h-195v158h201l16 189l154 -7l-14 -182h139l14 189l158 -7l-16 -182h184v-158h-193l-12 -126h205v-156h-213l-14 -189l-154 7l12 182h-137l-16 -189zM532 618l-12 -126h139l13 126h-140z" />
    <glyph glyph-name="zero.denominator" horiz-adv-x="702" 
d="M655 283q0 -129 -86 -215q-88 -88 -221 -88t-221 88q-86 86 -86 215t86 215q88 88 221 88t221 -88q86 -86 86 -215zM188 283q0 -76 48 -127q42 -45 112 -45q71 0 113 45q47 50 47 127t-47 127q-42 45 -113 45q-70 0 -112 -45q-48 -51 -48 -127z" />
    <glyph glyph-name="one.denominator" horiz-adv-x="364" 
d="M74 371l-43 96l170 88h82v-569h-136v409z" />
    <glyph glyph-name="three.denominator" horiz-adv-x="636" 
d="M307 113h11.5h13.5t12.5 0.5t13.5 1t12.5 2t13.5 3.5t11.5 5t11.5 7t9 9q20 20 20 49q0 23 -14 37q-21 21 -68 21h-164v117h162q18 0 35 10q14 14 14 35q0 28 -18 43q-20 20 -78 20q-51 0 -84 -13t-74 -44l-69 90q94 94 231 94q116 0 172 -53t56 -127q0 -57 -43 -90
q38 -23 59.5 -60.5t21.5 -79.5q0 -81 -53 -137q-70 -73 -215 -73q-77 0 -136 25t-120 81l88 96q45 -41 81.5 -55t86.5 -14z" />
    <glyph glyph-name="four.denominator" horiz-adv-x="614" 
d="M68 63v123l346 369h106v-362h64v-117l-64 -13v-83h-139v83h-313zM381 193v161l-150 -161h150z" />
    <glyph glyph-name="five.denominator" horiz-adv-x="608" 
d="M285 90q69 0 104 35q19 22 19 53q0 32 -21 47q-30 23 -88 23q-53 0 -77.5 -5t-61.5 -22l-82 15v319h430v-131h-297v-70q35 15 102 15q121 0 181 -66q53 -56 53 -125q0 -85 -58 -143q-72 -72 -204 -72q-144 0 -234 90l86 92q37 -32 67.5 -43.5t80.5 -11.5z" />
    <glyph glyph-name="six.denominator" horiz-adv-x="630" 
d="M479 438q-67 33 -149 33q-65 0 -92 -27q-26 -20 -35 -65q68 31 127 31q116 0 182 -66q57 -60 57 -143q0 -89 -59 -148q-71 -71 -186 -71q-59 0 -115 23t-90 71q-58 78 -58 209q0 137 68 221q32 41 84.5 64.5t112.5 23.5q61 0 106 -11.5t98 -45.5zM229 147q40 -43 99 -43
q49 0 78 29q24 27 24 68q0 40 -27 61q-35 27 -84 27q-40 0 -64 -6.5t-54 -24.5q0 -74 28 -111z" />
    <glyph glyph-name="seven.denominator" horiz-adv-x="565" 
d="M51 428v127h463v-90l-221 -479h-156l211 442h-297z" />
    <glyph glyph-name="eight.denominator" horiz-adv-x="655" 
d="M328 -16q-137 0 -205 63q-62 56 -62 143q0 36 23 74q25 32 61 51q-39 39 -39 103q0 83 60 129q57 49 166 49q108 0 166 -55q49 -43 49 -119q0 -62 -35 -88q37 -19 59 -55q23 -38 23 -84q0 -92 -68 -150q-76 -61 -198 -61zM328 475q-49 0 -68 -12q-20 -14 -20 -39
q0 -26 16 -33q33 -14 72 -14q45 0 63 -2q19 19 19 49q0 24 -21 37q-25 14 -61 14zM328 256q-63 0 -101 10q-26 -33 -26 -71q0 -35 24 -56q28 -28 103 -28q70 0 98 20q29 19 29 62q0 29 -23 47q-29 16 -104 16z" />
    <glyph glyph-name="nine.denominator" horiz-adv-x="630" 
d="M135 141q77 -32 166 -32q47 0 84 26q27 23 35 58q-46 -27 -109 -27q-114 0 -184 61q-64 57 -64 152q0 89 70 156q70 61 174 61q119 0 195 -82q69 -78 69 -211q0 -136 -53 -213q-67 -108 -217 -108q-115 0 -213 57zM399 430q-34 43 -96 43q-46 0 -74 -22q-28 -25 -28 -70
q0 -44 28 -66q24 -19 80 -22q44 0 68 5t53 21q0 75 -31 111z" />
    <glyph glyph-name="period.denominator" horiz-adv-x="253" 
d="M31 72q0 42 26.5 70t67.5 28t69.5 -28.5t28.5 -69.5t-28 -68t-70 -27q-41 0 -67.5 27t-26.5 68z" />
    <glyph glyph-name="comma.denominator" horiz-adv-x="253" 
d="M31 72q0 41 27.5 69.5t68.5 28.5t68.5 -28.5t27.5 -69.5q0 -25 -6 -43l-59 -162l-78 14l12 105q-61 21 -61 86z" />
    <glyph glyph-name="dollar.denominator" horiz-adv-x="618" 
d="M233 618h140v-55q87 -6 178 -57l-53 -111q-93 45 -183 45q-67 0 -90 -10q-22 -9 -22 -33q0 -5 1 -9.5t4 -8t4.5 -6t6.5 -5t7.5 -4t9 -3.5t8 -2.5t8.5 -2.5l8 -2l107 -18q106 -19 153 -66q47 -41 47 -112q0 -77 -47 -121q-49 -49 -147 -62v-61h-140v57q-99 13 -182 64
l55 110q111 -51 197 -51q73 0 103 19q22 13 22 43q0 23 -17.5 32.5t-62.5 16.5l-119 18q-80 10 -123 53q-43 53 -43 113q0 69 52 121q45 39 118 51v57z" />
    <glyph glyph-name="cent.denominator" horiz-adv-x="647" 
d="M285 -82v62q-107 21 -172 98q-66 78 -66 188q0 111 66 189q64 76 172 100v61h133v-57q107 -23 182 -106l-90 -86q-60 65 -158 65q-74 0 -125 -51q-37 -46 -37 -115q0 -61 41 -108q54 -54 121 -54q49 0 85.5 13.5t70.5 52.5l88 -86q-79 -85 -178 -107v-59h-133z" />
    <glyph glyph-name="parenleft.denominator" horiz-adv-x="315" 
d="M195 270q0 -186 79 -315l-106 -53q-107 169 -107 368q0 201 107 373l106 -57q-79 -126 -79 -316z" />
    <glyph glyph-name="parenright.denominator" horiz-adv-x="315" 
d="M121 272q0 184 -80 318l106 53q107 -167 107 -371q0 -206 -107 -370l-106 55q80 128 80 315z" />
    <glyph glyph-name="hyphen.denominator" horiz-adv-x="376" 
d="M31 381h315v-125h-315v125z" />
    <glyph glyph-name="Cedilla" horiz-adv-x="552" 
d="M137 6h174l-4 -110q64 0 101 -37q45 -49 45 -115q0 -75 -56 -145q-79 -96 -254 -140l-45 111q3 2 22 11.5l29 14.5t26.5 15t29.5 20t24 21q33 42 33 84q0 21 -16 37q-15 12 -43 12h-66v221z" />
    <glyph glyph-name="Ogonek" horiz-adv-x="505" 
d="M229 35l115 -35q-31 -27 -47 -49q-21 -35 -21 -76q0 -52 37 -102q35 -52 90 -88l-59 -99q-105 29 -176 103q-66 73 -66 161q0 74 39 119q42 50 88 66z" />
    <glyph glyph-name="rupiah" horiz-adv-x="1062" 
d="M14 217h88v807h490q209 0 323 -133q86 -103 86 -252t-104 -262q-118 -121 -305 -121h-244v-39h234v-160h-234v-57h-246v57h-88v160zM596 475q83 0 119 49q41 47 41 115q0 76 -41 117q-46 49 -133 49h-234v-330h248z" />
    <glyph glyph-name="zero.slash" horiz-adv-x="1359" 
d="M680 -23q-252 0 -424 164q-92 86 -143.5 211.5t-51.5 261.5q3 304 187 476q174 161 432 161q145 0 265.5 -55.5t207.5 -155.5q145 -178 145 -426q0 -136 -51 -261.5t-143 -211.5q-172 -164 -424 -164zM680 188q175 0 285 146q96 122 96 280q0 133 -43 207l-529 -563
q82 -70 191 -70zM299 614q0 -105 39 -190l524 559q-83 59 -184 59q-176 0 -272 -110q-107 -116 -107 -318z" />
    <glyph glyph-name="zero.slash.fitted" horiz-adv-x="1269" 
d="M637 -23q-252 0 -424 164q-92 86 -143.5 211.5t-51.5 261.5q3 304 187 476q174 161 432 161q145 0 265.5 -55.5t207.5 -155.5q145 -178 145 -426q0 -136 -51 -261.5t-143 -211.5q-172 -164 -424 -164zM637 188q175 0 285 146q96 122 96 280q0 133 -43 207l-529 -563
q82 -70 191 -70zM256 614q0 -105 39 -190l524 559q-83 59 -184 59q-177 0 -273 -110q-106 -115 -106 -318z" />
    <glyph glyph-name="zerooldstyle.slash" horiz-adv-x="1179" 
d="M1116 512q0 -236 -147 -383t-379 -147q-234 0 -387 153q-140 146 -140 377q0 226 144 379q145 151 383 151q245 0 389 -157q137 -149 137 -373zM305 512q0 -73 19 -141l381 442q-56 16 -115 16q-119 0 -201 -79q-84 -84 -84 -238zM874 512q0 86 -18 139l-377 -440
q59 -16 111 -16q68 0 125.5 24.5t89.5 67.5q69 82 69 225z" />
    <glyph glyph-name="zerooldstyle.slash.fitted" horiz-adv-x="1146" 
d="M1139 512q0 -235 -148 -383q-147 -147 -379 -147q-234 0 -387 153q-139 145 -139 377q0 227 143 379q145 151 383 151q245 0 389 -157q138 -151 138 -373zM328 512q0 -76 18 -141l381 442q-56 16 -115 16q-118 0 -200 -79q-84 -84 -84 -238zM897 512q0 86 -18 139
l-377 -440q59 -16 110 -16q68 0 125.5 24.5t89.5 67.5q70 83 70 225z" />
    <glyph glyph-name="two.denominator" horiz-adv-x="598" 
d="M82 -8v121l244 161q32 19 53 54q16 26 16 57t-24 49q-38 23 -78 23q-45 0 -81 -16t-75 -58l-90 76q96 127 246 127q110 0 182 -66q60 -57 60 -139q0 -61 -33 -111q-32 -49 -94 -92l-97 -61h219v-125h-448z" />
    <glyph glyph-name="zero.numerator" horiz-adv-x="702" 
d="M655 750q0 -129 -86 -215q-89 -89 -221 -89t-221 89q-86 86 -86 215t86 215q88 88 221 88t221 -88q86 -86 86 -215zM188 750q0 -76 48 -127q42 -45 112 -45q71 0 113 45q47 50 47 127t-47 127q-42 45 -113 45q-70 0 -112 -45q-48 -51 -48 -127z" />
    <glyph glyph-name="one.numerator" horiz-adv-x="364" 
d="M74 842l-43 96l170 88h82v-569h-136v409z" />
    <glyph glyph-name="two.numerator" horiz-adv-x="598" 
d="M82 459v121l244 161q32 19 53 54q16 26 16 57t-24 49q-38 23 -78 23q-45 0 -81 -16t-75 -58l-90 76q96 127 246 127q110 0 182 -66q60 -57 60 -139q0 -61 -33 -111q-32 -49 -94 -92l-97 -61h219v-125h-448z" />
    <glyph glyph-name="three.numerator" horiz-adv-x="636" 
d="M307 580h11.5h13.5t12.5 0.5t13.5 1t12.5 2t13.5 3.5t11.5 5t11.5 7t9 9q20 20 20 49q0 23 -14 37q-21 21 -68 21h-164v116h162q17 0 35 11q14 14 14 35q0 28 -18 43q-20 20 -78 20q-51 0 -84 -13t-74 -44l-69 90q94 94 231 94q116 0 172 -53t56 -127q0 -57 -43 -90
q38 -23 59.5 -60.5t21.5 -79.5q0 -81 -53 -137q-71 -74 -215 -74q-77 0 -136 25t-120 82l88 96q45 -41 81.5 -55t86.5 -14z" />
    <glyph glyph-name="four.numerator" horiz-adv-x="614" 
d="M68 535v122l346 369h106v-362h64v-117l-64 -12v-84h-139v84h-313zM381 664v161l-150 -161h150z" />
    <glyph glyph-name="five.numerator" horiz-adv-x="608" 
d="M285 561q69 0 104 35q19 22 19 53q0 32 -21 47q-30 23 -88 23q-53 0 -77.5 -5t-61.5 -22l-82 15v319h430v-131h-297v-70q35 15 102 15q121 0 181 -66q53 -56 53 -125q0 -85 -58 -143q-72 -72 -204 -72q-144 0 -234 90l86 92q37 -32 67.5 -43.5t80.5 -11.5z" />
    <glyph glyph-name="six.numerator" horiz-adv-x="630" 
d="M479 905q-67 33 -149 33q-65 0 -92 -27q-26 -20 -35 -65q68 31 127 31q116 0 182 -66q57 -60 57 -143q0 -89 -59 -148q-71 -71 -186 -71q-59 0 -115 23t-90 71q-58 78 -58 209q0 137 68 221q32 41 84.5 64.5t112.5 23.5q61 0 106 -11.5t98 -45.5zM229 614q40 -43 99 -43
q49 0 78 29q24 27 24 68q0 40 -27 61q-35 27 -84 27q-40 0 -64 -6.5t-54 -24.5q0 -74 28 -111z" />
    <glyph glyph-name="seven.numerator" horiz-adv-x="565" 
d="M51 899v127h463v-90l-221 -479h-156l211 442h-297z" />
    <glyph glyph-name="eight.numerator" horiz-adv-x="655" 
d="M328 451q-137 0 -205 63q-62 56 -62 143q0 36 23 74q25 32 61 51q-39 39 -39 103q0 83 60 129q57 49 166 49q108 0 166 -55q49 -43 49 -119q0 -62 -35 -88q36 -19 59 -56q23 -38 23 -83q0 -92 -68 -150q-76 -61 -198 -61zM328 942q-49 0 -68 -12q-20 -14 -20 -39
q0 -26 16 -33q33 -14 72 -14q45 0 63 -2q19 19 19 49q0 24 -21 37q-25 14 -61 14zM328 723q-63 0 -101 10q-26 -33 -26 -71q0 -35 24 -56q28 -28 103 -28q70 0 98 20q29 19 29 61q0 30 -23 48q-29 16 -104 16z" />
    <glyph glyph-name="nine.numerator" horiz-adv-x="630" 
d="M135 608q79 -33 166 -33q45 0 84 27q27 24 35 57q-44 -26 -109 -26q-114 0 -184 61q-64 57 -64 152q0 88 70 155q71 62 174 62q119 0 195 -82q69 -78 69 -211q0 -136 -53 -213q-67 -108 -217 -108q-115 0 -213 57zM399 897q-34 43 -96 43q-46 0 -74 -22q-28 -25 -28 -70
q0 -44 28 -66q24 -19 80 -22q44 0 68 5t53 21q0 75 -31 111z" />
    <glyph glyph-name="parenleft.numerator" horiz-adv-x="315" 
d="M195 741q0 -186 79 -315l-106 -53q-107 169 -107 368q0 201 107 373l106 -57q-79 -126 -79 -316z" />
    <glyph glyph-name="parenright.numerator" horiz-adv-x="315" 
d="M121 743q0 184 -80 318l106 53q107 -167 107 -371q0 -206 -107 -370l-106 55q80 128 80 315z" />
    <glyph glyph-name="cent.numerator" horiz-adv-x="647" 
d="M285 391v62q-107 21 -172 98q-66 78 -66 188q0 111 66 189q64 76 172 100v62h133v-58q107 -23 182 -106l-90 -86q-60 65 -158 65q-74 0 -125 -51q-37 -46 -37 -115q0 -61 41 -108q53 -53 121 -53q49 0 85.5 13.5t70.5 51.5l88 -86q-78 -84 -178 -106v-60h-133z" />
    <glyph glyph-name="dollar.numerator" horiz-adv-x="618" 
d="M233 1092h140v-56q87 -6 178 -57l-53 -111q-93 45 -183 45q-67 0 -90 -10q-22 -9 -22 -33q0 -5 1 -9.5t4 -8t4.5 -6t6.5 -5t7.5 -4t9 -3.5t8 -2.5t8.5 -2.5l8 -2l107 -18q106 -19 153 -66q47 -41 47 -112q0 -77 -47 -121q-48 -48 -147 -61v-62h-140v57q-99 13 -182 64
l55 110q111 -51 197 -51q73 0 103 19q22 13 22 43q0 23 -17.5 32.5t-62.5 16.5l-119 18q-79 10 -123 54q-43 53 -43 112q0 69 52 121q45 39 118 51v58z" />
    <glyph glyph-name="hyphen.numerator" horiz-adv-x="376" 
d="M31 840h315v-125h-315v125z" />
    <glyph glyph-name="comma.numerator" horiz-adv-x="253" 
d="M31 524q0 42 27.5 70.5t68.5 28.5t68.5 -28.5t27.5 -70.5q0 -25 -6 -43l-59 -162l-78 15l12 104q-61 21 -61 86z" />
    <glyph glyph-name="period.numerator" horiz-adv-x="253" 
d="M31 524q0 42 26.5 70.5t67.5 28.5t69.5 -29t28.5 -70t-28 -67.5t-70 -26.5q-41 0 -67.5 26.5t-26.5 67.5z" />
    <glyph glyph-name="centsuperior" horiz-adv-x="647" 
d="M285 594v61q-106 21 -172 99t-66 188t66 188q65 77 172 101v61h133v-57q105 -22 182 -107l-90 -86q-61 66 -158 66q-74 0 -125 -51q-37 -46 -37 -115q0 -61 41 -108q54 -54 121 -54q49 0 85.5 13.5t70.5 52.5l88 -86q-79 -85 -178 -107v-59h-133z" />
    <glyph glyph-name="hyphensuperior" horiz-adv-x="376" 
d="M31 1042h315v-124h-315v124z" />
    <glyph glyph-name="commasuperior" horiz-adv-x="253" 
d="M31 727q0 41 27.5 69.5t68.5 28.5t68.5 -28.5t27.5 -69.5q0 -25 -6 -43l-59 -162l-78 15l12 104q-61 21 -61 86z" />
    <glyph glyph-name="periodsuperior" horiz-adv-x="253" 
d="M31 727q0 42 26.5 70t67.5 28t69.5 -28.5t28.5 -69.5t-28 -67.5t-70 -26.5q-41 0 -67.5 26.5t-26.5 67.5z" />
    <glyph glyph-name="dollarsuperior" horiz-adv-x="618" 
d="M233 1294h140v-55q87 -6 178 -57l-53 -111q-93 45 -183 45q-67 0 -90 -10q-22 -9 -22 -33q0 -5 1 -9.5t4 -8t4.5 -6t6.5 -5t7.5 -4t9 -3.5t8 -2.5t8.5 -2.5l8 -2l107 -18q106 -19 153 -66q47 -41 47 -112q0 -77 -47 -121q-49 -49 -147 -62v-61h-140v57q-99 13 -182 64
l55 110q111 -51 197 -51q75 0 103 18q22 13 22 43q0 23 -18 33.5t-62 16.5l-119 18q-80 10 -123 53q-43 53 -43 113q0 69 52 121q45 39 118 51v57z" />
    <glyph glyph-name="hypheninferior" horiz-adv-x="376" 
d="M31 279h315v-125h-315v125z" />
    <glyph glyph-name="commainferior" horiz-adv-x="253" 
d="M31 -31q0 42 27.5 70.5t68.5 28.5t68.5 -28.5t27.5 -70.5q0 -25 -6 -43l-59 -162l-78 15l12 104q-61 21 -61 86z" />
    <glyph glyph-name="periodinferior" horiz-adv-x="253" 
d="M31 -31q0 42 26.5 70.5t67.5 28.5t69.5 -29t28.5 -70t-28 -67.5t-70 -26.5q-41 0 -67.5 26.5t-26.5 67.5z" />
    <glyph glyph-name="centinferior" horiz-adv-x="647" 
d="M285 -184v61q-107 21 -172 98q-66 78 -66 189q0 110 66 188q65 77 172 101v61h133v-57q105 -22 182 -107l-90 -86q-61 66 -158 66q-74 0 -125 -51q-37 -46 -37 -115q0 -62 41 -109q53 -53 121 -53q49 0 85.5 13.5t70.5 52.5l88 -86q-79 -85 -178 -107v-59h-133z" />
    <glyph glyph-name="dollarinferior" horiz-adv-x="618" 
d="M233 516h140v-55q85 -6 178 -58l-53 -110q-93 45 -183 45q-67 0 -90 -10q-22 -9 -22 -33q0 -5 1 -9.5t4 -8t4.5 -6t6.5 -5t7.5 -4t9 -3.5t8 -2.5t8.5 -2.5l8 -2l107 -19q108 -20 153 -65q47 -41 47 -113q0 -77 -47 -121q-48 -48 -147 -61v-61h-140v57q-101 13 -182 63
l55 111q111 -51 197 -51q75 0 103 18q22 13 22 43q0 23 -17.5 32.5t-62.5 16.5l-119 19q-80 10 -123 53q-43 53 -43 113q0 69 52 121q45 39 118 51v57z" />
    <glyph glyph-name="ampersandsmall" horiz-adv-x="1054" 
d="M903 813l-194 -94q-23 47 -52 74q-45 36 -116 36q-37 0 -68 -24q-24 -18 -24 -53q0 -34 28 -62l291 -289q9 26 12 64l213 -39q-8 -75 -18.5 -114.5t-38.5 -84.5l88 -90l-170 -153l-76 69q-60 -37 -119.5 -54t-142.5 -17q-110 0 -185.5 23.5t-142.5 78.5q-116 92 -116 270
q0 95 43 168q32 60 108 123q-20 44 -20 105q0 147 125 231q92 61 213 61q131 0 217 -51q92 -54 145 -178zM522 201q29 0 99 18l-273 266q-13 -22 -22 -49q-9 -24 -9 -55q0 -76 39 -121q53 -59 166 -59z" />
    <glyph glyph-name="Imacron" horiz-adv-x="444" 
d="M342 1229v-1229h-240v1229h240zM-115 1516h680v-185h-680v185z" />
    <glyph glyph-name="ibreve" horiz-adv-x="454" 
d="M102 1024h250v-1024h-250v1024zM227 1110q-113 0 -192 57q-84 59 -121 146l174 86q18 -32 41 -58q38 -38 102 -38q63 0 101 38q24 24 43 58l172 -86q-34 -85 -115 -142q-86 -61 -205 -61z" />
    <glyph glyph-name="afii10024.alt" horiz-adv-x="1892" 
d="M817 766v463h246v-463h180l287 463h295l-365 -563l391 -666h-292l-312 543h-184v-543h-246v543h-176l-313 -543h-289l387 666l-363 563h293l289 -463h172z" />
    <glyph glyph-name="afii10028.alt" horiz-adv-x="1245" 
d="M102 1229h246v-463h225l318 463h287l-394 -563l420 -666h-282l-344 547h-230v-547h-246v1229z" />
    <glyph glyph-name="afii10037.alt" horiz-adv-x="1396" 
d="M1063 1229h283l-648 -1229h-260l144 295l-537 934h293l371 -697h12z" />
    <glyph glyph-name="afii10061.alt" horiz-adv-x="1245" 
d="M102 1229h246v-463h225l318 463h287l-394 -563l420 -666h-282l-344 547h-230v-547h-246v1229zM498 1386l178 406l192 -96l-209 -387z" />
    <glyph glyph-name="afii10062.alt" horiz-adv-x="1396" 
d="M1063 1229h283l-648 -1229h-260l144 295l-537 934h293l371 -697h12zM870 1608l166 -86q-32 -80 -118 -144q-85 -63 -201 -63q-112 0 -193 63q-89 62 -121 144l166 86q22 -39 52 -66q39 -39 98 -39q54 0 96 33q33 23 55 72z" />
    <glyph glyph-name="afii10072.alt" horiz-adv-x="1689" 
d="M721 649v375h248v-375h127l243 375h289l-328 -481l349 -543h-295l-252 426h-133v-426h-248v426h-133l-252 -426h-295l348 543l-328 481h289l244 -375h127z" />
    <glyph glyph-name="afii10076.alt" horiz-adv-x="1120" 
d="M102 1024h246v-379h150l266 379h293l-348 -481l366 -543h-299l-270 422h-158v-422h-246v1024z" />
    <glyph glyph-name="afii10085.alt" horiz-adv-x="1208" 
d="M885 1024h272l-536 -1024h-259l123 240l-434 784h285l276 -547h9z" />
    <glyph glyph-name="afii10109.alt" horiz-adv-x="1120" 
d="M102 1024h246v-379h150l266 379h293l-348 -481l366 -543h-299l-270 422h-158v-422h-246v1024zM432 1198l146 363l206 -105l-186 -336z" />
    <glyph glyph-name="afii10110.alt" horiz-adv-x="1208" 
d="M885 1024h272l-536 -1024h-259l123 240l-434 784h285l276 -547h9zM612 1110q-113 0 -192 57q-84 59 -121 146l174 86q18 -32 41 -58q38 -38 102 -38q63 0 101 38q24 24 43 58l172 -86q-34 -85 -115 -142q-86 -61 -205 -61z" />
    </font>
</defs>
</svg>
