<?xml version="1.0" standalone="no"?>
<!DOCTYPE svg PUBLIC "-//W3C//DTD SVG 1.1//EN" "http://www.w3.org/Graphics/SVG/1.1/DTD/svg11.dtd" >
<svg xmlns="http://www.w3.org/2000/svg" xmlns:xlink="http://www.w3.org/1999/xlink" version="1.1">
<metadata>
Created by FontForge 20170731 at Thu Sep 30 20:23:17 2021
 By Aleksey,,,
Copyright (c) 2021 ParaType Ltd. All rights reserved.
</metadata>
<defs>
<font id="TildaSans-Light" horiz-adv-x="0" >
  <font-face 
    font-family="Tilda Sans Light"
    font-weight="300"
    font-stretch="normal"
    units-per-em="1000"
    panose-1="2 11 3 2 2 2 4 2 3 3"
    ascent="800"
    descent="-200"
    x-height="433"
    cap-height="700"
    bbox="-449 -250 1108 896"
    underline-thickness="50"
    underline-position="-200"
    unicode-range="U+000D-FEFF"
  />
<missing-glyph horiz-adv-x="618" 
d="M75 199l2 297q1 94 20 141t68 65.5t145 18.5q97 0 145.5 -19t68 -67t19.5 -144v-292q0 -90 -19.5 -135t-68 -62.5t-145.5 -17.5q-98 0 -147.5 17.5t-69 62.5t-18.5 135zM448 504q0 38 -19 70t-51 51t-69 19q-38 0 -70 -19t-50.5 -51t-18.5 -70t18.5 -70.5t50.5 -51
t70 -18.5t70 18.5t50.5 50.5t18.5 71zM195 504q0 48 33 80.5t81 32.5t81 -33t33 -80q0 -49 -32.5 -81t-81.5 -32t-81.5 32.5t-32.5 80.5zM265 535q0 21 15 21q6 0 14 -3.5t12 -5.5q20 -12 32 -12q35 0 32 46h-21q0 -22 -14 -22q-6 0 -14 4t-11 5q-20 11 -32 11
q-16 0 -25.5 -11t-8.5 -33h21zM295 428h27v99q-18 6 -27 11v-110zM196 97h42v59h20q30 0 50 15.5t20 48.5q0 36 -21.5 48.5t-56.5 12.5q-30 0 -54 -4v-180zM410 114v15q-12 -6 -24 -6q-4 0 -7.5 3.5t-3.5 8.5q0 6 2 16l16 59h30q3 4 5.5 14t1.5 14h-31l8 27l-5 4
q-8 0 -17.5 -3t-15.5 -9l-5 -19q-15 -8 -26 -17v-11h19l-19 -68q-4 -16 -4 -24q0 -11 7.5 -17.5t17.5 -6.5q28 0 51 20zM238 193v51q10 2 14 2q33 0 33 -25q0 -17 -9.5 -23.5t-24.5 -5.5z" />
    <glyph glyph-name="f_f" unicode="ff" horiz-adv-x="539" 
d="M531 704l-1 -52h-12q-50 0 -76 -24t-26 -86v-109h95v-47h-95v-386h-52v386h-220v-386h-51v386h-77v47h77v87q0 93 36.5 141.5t116.5 48.5q114 0 148 -79q17 36 46 55t68 19zM144 433h220v75q0 83 -25.5 119.5t-90.5 36.5q-59 0 -81.5 -36.5t-22.5 -122.5v-72z" />
    <glyph glyph-name="fi" unicode="fi" horiz-adv-x="497" 
d="M364 525q2 70 -24 104.5t-87 34.5q-44 0 -67.5 -19t-32.5 -58t-9 -107v-47h108v-47h-108v-386h-51v386h-77v47h77v63q0 106 35.5 160t124.5 54q92 0 127.5 -51.5t35.5 -133.5h-52zM416 0h-52v433h52v-433z" />
    <glyph glyph-name="fl" unicode="fl" horiz-adv-x="497" 
d="M416 497v-497h-52v482q0 67 -10 106.5t-34 57.5t-66 18q-45 0 -68.5 -19t-32.5 -58t-9 -107v-47h108v-47h-108v-386h-51v386h-77v47h77v63q0 107 36 160.5t126 53.5q89 0 125 -53.5t36 -159.5z" />
    <glyph glyph-name="f_f_i" unicode="ffi" horiz-adv-x="768" 
d="M636 525q-1 73 -27 107.5t-85 34.5q-44 0 -67 -19.5t-32 -60.5t-9 -113v-41h107v-47h-107v-386h-52v386h-220v-386h-51v386h-77v47h77v65q0 87 36 136t121 49q55 0 87 -22.5t48 -66.5q11 59 46 89t99 30q88 0 122.5 -51t34.5 -137h-51zM144 433h220v38q-2 87 -29 126.5
t-88 39.5q-58 0 -80.5 -36.5t-22.5 -122.5v-45zM687 0h-51v433h51v-433z" />
    <glyph glyph-name="f_f_l" unicode="ffl" horiz-adv-x="768" 
d="M687 528v-528h-51v518q0 77 -25.5 113t-86.5 36q-44 0 -67 -19.5t-32 -60.5t-9 -113v-41h107v-47h-107v-386h-52v386h-220v-386h-51v386h-77v47h77v65q0 87 36 136t121 49q53 0 85.5 -21.5t47.5 -63.5q12 57 47.5 86t99.5 29q88 0 122.5 -50.5t34.5 -134.5zM144 433h220
v44q0 82 -28 121t-89 39q-58 0 -80.5 -36.5t-22.5 -122.5v-45z" />
    <glyph glyph-name="uni04570457" unicode="&#x457;&#x457;" horiz-adv-x="478" 
d="M78 599q0 15 10.5 25t26.5 10t26 -10t10 -25t-10 -25.5t-26 -10.5t-26.5 10.5t-10.5 25.5zM202 599q0 15 11 25t27 10q15 0 25.5 -10t10.5 -25t-10.5 -25.5t-25.5 -10.5q-16 0 -27 10.5t-11 25.5zM327 599q0 15 11 25t27 10q15 0 25.5 -10t10.5 -25t-10.5 -25.5
t-25.5 -10.5q-16 0 -27 10.5t-11 25.5zM151 0h-51v433h51v-433zM385 0h-51v433h51v-433z" />
    <glyph glyph-name=".notdef" horiz-adv-x="618" 
d="M75 199l2 297q1 94 20 141t68 65.5t145 18.5q97 0 145.5 -19t68 -67t19.5 -144v-292q0 -90 -19.5 -135t-68 -62.5t-145.5 -17.5q-98 0 -147.5 17.5t-69 62.5t-18.5 135zM448 504q0 38 -19 70t-51 51t-69 19q-38 0 -70 -19t-50.5 -51t-18.5 -70t18.5 -70.5t50.5 -51
t70 -18.5t70 18.5t50.5 50.5t18.5 71zM195 504q0 48 33 80.5t81 32.5t81 -33t33 -80q0 -49 -32.5 -81t-81.5 -32t-81.5 32.5t-32.5 80.5zM265 535q0 21 15 21q6 0 14 -3.5t12 -5.5q20 -12 32 -12q35 0 32 46h-21q0 -22 -14 -22q-6 0 -14 4t-11 5q-20 11 -32 11
q-16 0 -25.5 -11t-8.5 -33h21zM295 428h27v99q-18 6 -27 11v-110zM196 97h42v59h20q30 0 50 15.5t20 48.5q0 36 -21.5 48.5t-56.5 12.5q-30 0 -54 -4v-180zM410 114v15q-12 -6 -24 -6q-4 0 -7.5 3.5t-3.5 8.5q0 6 2 16l16 59h30q3 4 5.5 14t1.5 14h-31l8 27l-5 4
q-8 0 -17.5 -3t-15.5 -9l-5 -19q-15 -8 -26 -17v-11h19l-19 -68q-4 -16 -4 -24q0 -11 7.5 -17.5t17.5 -6.5q28 0 51 20zM238 193v51q10 2 14 2q33 0 33 -25q0 -17 -9.5 -23.5t-24.5 -5.5z" />
    <glyph glyph-name=".null" 
 />
    <glyph glyph-name=".null" 
 />
    <glyph glyph-name="uni000D" unicode="&#xd;" horiz-adv-x="260" 
 />
    <glyph glyph-name="space" unicode=" " horiz-adv-x="260" 
 />
    <glyph glyph-name="exclam" unicode="!" horiz-adv-x="218" 
d="M133 177h-49l-3 523h56zM70 27q0 17 10 27.5t28 10.5q19 0 29.5 -10.5t10.5 -27.5q0 -16 -11 -26.5t-29 -10.5q-17 0 -27.5 10.5t-10.5 26.5z" />
    <glyph glyph-name="quotedbl" unicode="&#x22;" horiz-adv-x="453" 
d="M283 700h60l-8 -260h-45zM110 700h60l-8 -260h-45z" />
    <glyph glyph-name="numbersign" unicode="#" horiz-adv-x="741" 
d="M704 514l-20 -54h-136l-72 -203h143l-20 -54h-142l-72 -203h-50l72 203h-199l-72 -203h-50l72 203h-128l20 54h127l72 203h-134l20 54h133l66 185h50l-66 -185h199l66 185h50l-66 -185h137zM227 257h199l72 203h-199z" />
    <glyph glyph-name="dollar" unicode="$" horiz-adv-x="551" 
d="M303 -9v-91h-51v89q-111 4 -196 80l36 48q71 -74 179 -74q82 0 125 40.5t43 100.5q0 43 -23 73t-56.5 48.5t-90.5 42.5q-62 27 -98.5 47.5t-62 55.5t-25.5 87q0 70 47 116.5t129 53.5v92h51v-92q48 -3 89 -19.5t71 -44.5l-34 -41q-26 25 -64 39t-86 14
q-70 0 -108.5 -30.5t-38.5 -80.5q0 -38 21 -64t52 -42.5t85 -38.5q64 -26 103.5 -48.5t67 -61.5t27.5 -98q0 -87 -52.5 -139.5t-139.5 -61.5z" />
    <glyph glyph-name="percent" unicode="%" horiz-adv-x="803" 
d="M64 548q0 70 44.5 113t116.5 43q69 0 114.5 -43t45.5 -113t-45 -113.5t-115 -43.5q-71 0 -116 43.5t-45 113.5zM627 700h53l-504 -700h-56zM341 548q0 52 -32 84t-84 32t-84 -31.5t-32 -84.5q0 -52 32 -84t84 -32t84 32t32 84zM418 150q0 71 44.5 114t116.5 43
q69 0 114.5 -43.5t45.5 -113.5t-45 -113t-115 -43t-115.5 43t-45.5 113zM695 150q0 52 -32 84t-84 32t-84 -31.5t-32 -84.5q0 -52 32 -84t84 -32t84 32t32 84z" />
    <glyph glyph-name="ampersand" unicode="&#x26;" horiz-adv-x="652" 
d="M630 257v-49h-109v-9q-10 -110 -74.5 -159t-151.5 -49q-67 0 -118 27.5t-79.5 74t-28.5 104.5q0 68 38 118t108 66q-44 16 -73 57.5t-29 99.5q0 77 52 124.5t133 47.5t133 -46.5t54 -133.5v-23h-49q1 75 -35.5 114t-101.5 39q-64 0 -98 -34t-34 -92t34 -94.5t91 -36.5h16
v-48h-12q-75 0 -123.5 -41.5t-48.5 -114.5q0 -72 48.5 -115t123.5 -44q75 0 124 43t53 125h-139v49h296z" />
    <glyph glyph-name="quotesingle" unicode="'" horiz-adv-x="280" 
d="M110 700h60l-8 -260h-45z" />
    <glyph glyph-name="parenleft" unicode="(" horiz-adv-x="292" 
d="M255 -239q-81 66 -136.5 181t-55.5 289t55.5 289t136.5 181h44v-16q-84 -67 -135 -182t-51 -272t51 -272t135 -182v-16h-44z" />
    <glyph glyph-name="parenright" unicode=")" horiz-adv-x="292" 
d="M-7 -239v16q84 68 135.5 182.5t51.5 271.5t-51.5 271.5t-135.5 182.5v16h44q81 -66 136.5 -181t55.5 -289t-55.5 -289t-136.5 -181h-44z" />
    <glyph glyph-name="asterisk" unicode="*" horiz-adv-x="523" 
d="M439 592l19 -56l-158 -46l102 -131l-48 -35l-93 138l-91 -135l-48 35l101 129l-157 45l18 57l154 -56l-6 160h59l-6 -161z" />
    <glyph glyph-name="plus" unicode="+" horiz-adv-x="628" 
d="M337 370h187v-47h-187v-188h-47v188h-186v47h186v185h47v-185z" />
    <glyph glyph-name="comma" unicode="," horiz-adv-x="210" 
d="M146 24q0 -15 -9.5 -35.5t-30.5 -57.5l-32 -56h-43l69 122q-17 1 -25.5 10.5t-8.5 23.5q0 17 11.5 27t27.5 10q19 0 30 -12t11 -32z" />
    <glyph glyph-name="hyphen" unicode="-" horiz-adv-x="384" 
d="M58 256h268v-47h-268v47z" />
    <glyph glyph-name="period" unicode="." horiz-adv-x="197" 
d="M60 27q0 17 10 27.5t28 10.5t28.5 -10.5t10.5 -27.5q0 -16 -10.5 -26.5t-28.5 -10.5q-17 0 -27.5 10.5t-10.5 26.5z" />
    <glyph glyph-name="slash" unicode="/" horiz-adv-x="275" 
d="M228 699h50l-248 -939h-50z" />
    <glyph glyph-name="zero" unicode="0" horiz-adv-x="584" 
d="M73 349q0 171 58 264t160 93q106 0 163 -92.5t57 -262.5q0 -171 -57.5 -264t-158.5 -93q-107 0 -164.5 93t-57.5 262zM456 351q0 153 -42.5 229.5t-122.5 76.5q-78 0 -120.5 -77t-42.5 -231q0 -153 43 -229.5t124 -76.5q77 0 119 77t42 231z" />
    <glyph glyph-name="one" unicode="1" horiz-adv-x="408" 
d="M87 587v51l180 70v-708h-54v635z" />
    <glyph glyph-name="two" unicode="2" horiz-adv-x="596" 
d="M182 50h318v-50h-410v8l208 278l40 52q55 72 75 108t20 80q0 63 -37.5 97t-100.5 34q-95 0 -170 -82l-28 34q30 39 83 67.5t122 28.5q59 0 100.5 -23.5t63 -62.5t21.5 -87q0 -36 -12 -68t-33.5 -63.5t-65.5 -89.5l-28 -38z" />
    <glyph glyph-name="three" unicode="3" horiz-adv-x="584" 
d="M515 203q0 -60 -30 -108.5t-83 -76.5t-119 -28q-57 0 -110.5 22.5t-91.5 70.5l39 39q28 -39 71 -62t96 -23q50 0 90 21.5t63.5 60t23.5 87.5q0 70 -47.5 112t-125.5 42h-14v45h14q61 0 96 38t35 95q0 55 -33 90t-94 35q-98 0 -151 -80l-36 32q27 44 76 69.5t108 25.5
q56 0 97.5 -23t63 -62t21.5 -86q0 -56 -31.5 -96.5t-77.5 -54.5q71 -14 110.5 -65t39.5 -120z" />
    <glyph glyph-name="four" unicode="4" horiz-adv-x="584" 
d="M409 261h93v-47h-93v-214h-53v214h-330v10l373 486h10v-449zM356 580l-243 -319h243v319z" />
    <glyph glyph-name="five" unicode="5" horiz-adv-x="584" 
d="M502 211q0 -63 -29.5 -113.5t-81.5 -79t-118 -28.5q-57 0 -110 22.5t-91 70.5l39 39q28 -39 71 -62t94 -23q50 0 90 22.5t63 62t23 89.5q0 82 -57.5 127.5t-145.5 45.5q-37 0 -91 -14h-10l47 330h260v-50h-222l-31 -225q25 5 54 5q73 0 128.5 -27.5t86.5 -77t31 -114.5z
" />
    <glyph glyph-name="six" unicode="6" horiz-adv-x="584" 
d="M530 224q0 -73 -32.5 -126t-85.5 -80t-112 -27q-60 0 -113 27.5t-85 81t-32 128.5q0 70 29 135.5t87 146.5l136 190h58v-7l-223 -306q64 56 154 56q60 0 110 -26t79.5 -75.5t29.5 -117.5zM480 218q0 56 -24 97.5t-65.5 63t-92.5 21.5q-49 0 -89.5 -20.5t-64 -60.5
t-23.5 -96t24 -98t65 -64t91 -22q48 0 89 21t65.5 61.5t24.5 96.5z" />
    <glyph glyph-name="seven" unicode="7" horiz-adv-x="511" 
d="M62 650v50h401v-20l-243 -680h-54l235 650h-339z" />
    <glyph glyph-name="eight" unicode="8" horiz-adv-x="584" 
d="M515 198q0 -58 -26.5 -105.5t-77.5 -75.5t-119 -28t-119 28t-77.5 75.5t-26.5 105.5q0 67 34 117.5t104 72.5q-42 18 -70 57.5t-28 94.5q0 75 49.5 122.5t133.5 47.5q83 0 133 -47.5t50 -122.5q0 -55 -28 -94.5t-70 -57.5q70 -22 104 -72.5t34 -117.5zM292 405
q60 0 95 37.5t35 94.5q0 58 -34 92t-96 34t-96 -34t-34 -92q0 -57 35 -94.5t95 -37.5zM465 200q0 74 -47 117t-126 43t-126 -43t-47 -117q0 -48 23 -85.5t62.5 -58t87.5 -20.5t87.5 20.5t62.5 58t23 85.5z" />
    <glyph glyph-name="nine" unicode="9" horiz-adv-x="584" 
d="M514 472q0 -70 -29 -135.5t-87 -146.5l-136 -190h-58v7l223 306q-64 -56 -154 -56q-60 0 -110 26t-79.5 75.5t-29.5 117.5q0 73 32.5 126t85.5 80t112 27q60 0 113 -27.5t85 -81t32 -128.5zM463 477q0 56 -24 98t-65 64t-91 22q-48 0 -89 -21t-65.5 -61.5t-24.5 -96.5
t24 -97.5t65.5 -63t92.5 -21.5q49 0 89.5 20.5t64 60.5t23.5 96z" />
    <glyph glyph-name="colon" unicode=":" horiz-adv-x="221" 
d="M60 27q0 17 10 27.5t28 10.5t28.5 -10.5t10.5 -27.5q0 -16 -10.5 -26.5t-28.5 -10.5q-17 0 -27.5 10.5t-10.5 26.5zM60 376q0 17 10 27.5t28 10.5t28.5 -10.5t10.5 -27.5q0 -16 -10.5 -26.5t-28.5 -10.5q-17 0 -27.5 10.5t-10.5 26.5z" />
    <glyph glyph-name="semicolon" unicode=";" horiz-adv-x="230" 
d="M146 24q0 -15 -9.5 -35.5t-30.5 -57.5l-32 -56h-43l69 122q-17 1 -25.5 10.5t-8.5 23.5q0 17 11.5 27t27.5 10q19 0 30 -12t11 -32zM69 376q0 17 10 27.5t28 10.5t28.5 -10.5t10.5 -27.5q0 -16 -10.5 -26.5t-28.5 -10.5q-17 0 -27.5 10.5t-10.5 26.5z" />
    <glyph glyph-name="less" unicode="&#x3c;" horiz-adv-x="628" 
d="M111 353l387 248v-59l-305 -189l305 -190v-58z" />
    <glyph glyph-name="equal" unicode="=" horiz-adv-x="628" 
d="M104 262h420v-47h-420v47zM104 471h420v-47h-420v47z" />
    <glyph glyph-name="greater" unicode="&#x3e;" horiz-adv-x="628" 
d="M130 537v58l387 -248l-387 -248v59l305 189z" />
    <glyph glyph-name="question" unicode="?" horiz-adv-x="515" 
d="M227 210q0 41 12 72t29 51.5t45 47.5q26 26 41.5 44t26 44t10.5 61q0 59 -33.5 95.5t-96.5 36.5q-64 0 -99.5 -40t-34.5 -113h-48v21q6 91 56.5 134t126.5 43q81 0 133.5 -45.5t52.5 -126.5q0 -41 -13 -73.5t-31.5 -55t-49.5 -52.5q-41 -40 -60.5 -70t-19.5 -74h-47z
M212 27q0 17 10 27.5t29 10.5q18 0 28.5 -10.5t10.5 -27.5q0 -16 -10.5 -26.5t-28.5 -10.5t-28.5 10.5t-10.5 26.5z" />
    <glyph glyph-name="at" unicode="@" horiz-adv-x="909" 
d="M859 289q0 -99 -40.5 -160.5t-112.5 -61.5q-44 0 -77 23.5t-36 69.5l-2 1q-15 -44 -53.5 -70.5t-89.5 -26.5q-48 0 -87.5 24t-63 68.5t-23.5 103.5q0 89 48.5 141.5t124.5 52.5q60 0 97.5 -31t45.5 -73v89h45v-242q0 -47 20 -67t50 -20q51 0 78 47.5t27 130.5
q0 105 -45 179.5t-125.5 112.5t-185.5 38q-109 0 -189.5 -44t-123.5 -124.5t-43 -186.5t44 -186t124.5 -123.5t187.5 -43.5v-45q-126 0 -217.5 50t-139.5 139.5t-48 206.5q0 116 47.5 207t139 143t218.5 52q119 0 211 -46t143 -131t51 -197zM587 257v7q0 64 -34.5 104.5
t-100.5 40.5q-63 0 -97 -38.5t-34 -107.5q0 -70 33.5 -112t96.5 -42q66 0 101 42t35 106z" />
    <glyph glyph-name="A" unicode="A" horiz-adv-x="617" 
d="M606 0h-60l-87 214h-304l-86 -214h-58l289 712h15zM306 593l-131 -327h263z" />
    <glyph glyph-name="B" unicode="B" horiz-adv-x="573" 
d="M520 208q0 -61 -31.5 -108t-88 -73.5t-127.5 -26.5h-163v700h166q88 0 139.5 -42t51.5 -116q0 -59 -32.5 -97.5t-81.5 -57.5q75 -13 121 -59.5t46 -119.5zM254 647h-86v-243h73q78 0 123 33.5t45 95.5q0 114 -155 114zM259 53q98 0 150.5 42t52.5 112q0 74 -54 110.5
t-140 36.5h-100v-301h91z" />
    <glyph glyph-name="C" unicode="C" horiz-adv-x="675" 
d="M49 350q0 103 48 185t133.5 128.5t194.5 46.5q127 0 222 -64l-29 -48q-79 57 -184 57q-97 0 -170.5 -40.5t-114 -110t-40.5 -154.5q0 -87 43 -156.5t117.5 -109t165.5 -39.5q112 0 193 64l29 -43q-89 -76 -227 -76q-112 0 -198.5 46t-134.5 128t-48 186z" />
    <glyph glyph-name="D" unicode="D" horiz-adv-x="704" 
d="M655 358q0 -117 -50.5 -197.5t-134.5 -120.5t-186 -40h-174v700h170q114 0 198.5 -42t130.5 -119t46 -181zM278 53q101 0 172 36.5t108 103t37 155.5q0 92 -38.5 159.5t-110 103.5t-169.5 36h-109v-594h110z" />
    <glyph glyph-name="E" unicode="E" horiz-adv-x="550" 
d="M475 0h-365v700h355v-53h-297v-243h247v-53h-247v-298h307v-53z" />
    <glyph glyph-name="F" unicode="F" horiz-adv-x="522" 
d="M168 0h-58v700h347v-57h-289v-270h269v-52h-269v-321z" />
    <glyph glyph-name="G" unicode="G" horiz-adv-x="802" 
d="M412 342h344q0 -102 -38 -181.5t-113.5 -124.5t-182.5 -45q-113 0 -197.5 47t-130 128t-45.5 181q0 96 43 178.5t127.5 133t203.5 50.5q74 0 137.5 -23t111.5 -66l-34 -47q-45 42 -102 62.5t-121 20.5q-96 0 -166 -44.5t-106 -116t-36 -149.5q0 -83 40.5 -152t113 -109
t164.5 -40q113 0 187.5 64t86.5 180h-287v53z" />
    <glyph glyph-name="H" unicode="H" horiz-adv-x="736" 
d="M568 404v296h58v-700h-58v351h-400v-351h-58v700h58v-296h400z" />
    <glyph glyph-name="I" unicode="I" horiz-adv-x="278" 
d="M110 700h58v-700h-58v700z" />
    <glyph glyph-name="J" unicode="J" horiz-adv-x="335" 
d="M21 1v51q18 -6 42 -6q60 0 87.5 32t27.5 100v522h58v-529q0 -89 -44 -132.5t-125 -43.5q-26 0 -46 6z" />
    <glyph glyph-name="K" unicode="K" horiz-adv-x="616" 
d="M512 680l-252 -307l336 -353v-20h-61l-325 343h-42v-343h-58v700h58v-307h44l247 307h53v-20z" />
    <glyph glyph-name="L" unicode="L" horiz-adv-x="491" 
d="M168 700v-646h289v-54h-347v700h58z" />
    <glyph glyph-name="M" unicode="M" horiz-adv-x="894" 
d="M717 700l101 -700h-56l-80 539l-235 -539h-10l-237 532l-71 -532h-54l92 700h18l261 -581l254 581h17z" />
    <glyph glyph-name="N" unicode="N" horiz-adv-x="748" 
d="M580 136v564h58v-700h-26l-444 568v-568h-58v700h30z" />
    <glyph glyph-name="O" unicode="O" horiz-adv-x="806" 
d="M49 351q0 101 46 183t127 129t181 47q101 0 181.5 -47.5t126.5 -130t46 -184.5q0 -100 -46 -182.5t-126.5 -129.5t-181.5 -47q-100 0 -181 47.5t-127 130.5t-46 184zM697 350q0 86 -38.5 155.5t-106 109.5t-149.5 40t-149.5 -40t-106 -109.5t-38.5 -155.5t38.5 -156
t106 -110t149.5 -40t149.5 40t106 110t38.5 156z" />
    <glyph glyph-name="P" unicode="P" horiz-adv-x="556" 
d="M297 700q63 0 112 -27.5t76 -73t27 -98.5t-27 -99.5t-75.5 -74.5t-110.5 -28h-131v-299h-58v700h187zM290 351q74 0 118 42.5t44 106.5t-43.5 105.5t-118.5 41.5h-122v-296h122z" />
    <glyph glyph-name="Q" unicode="Q" horiz-adv-x="806" 
d="M537 13l198 -130v-64h-13l-257 175q-33 -5 -62 -5q-100 0 -181 47.5t-127 130.5t-46 184t46 183t127 129t181 47q101 0 181.5 -47.5t126.5 -130t46 -184.5q0 -115 -60 -205.5t-160 -129.5zM403 44q82 0 149.5 40t106 110t38.5 156t-38.5 155.5t-106 109.5t-149.5 40
t-149.5 -40t-106 -109.5t-38.5 -155.5t38.5 -156t106 -110t149.5 -40z" />
    <glyph glyph-name="R" unicode="R" horiz-adv-x="583" 
d="M572 21v-21h-61l-258 292h-85v-292h-58v700h188q63 0 112 -28t75.5 -74.5t26.5 -99.5q0 -50 -23 -94.5t-66 -74t-100 -35.5zM168 647v-302h117q79 0 124 43t45 109q0 65 -45.5 107.5t-124.5 42.5h-116z" />
    <glyph glyph-name="S" unicode="S" horiz-adv-x="551" 
d="M56 69l36 48q71 -74 179 -74q82 0 125 40.5t43 100.5q0 43 -23 73t-56.5 48.5t-90.5 42.5q-62 27 -98.5 47.5t-62 55.5t-25.5 87q0 76 55 123.5t149 47.5q55 0 102 -17t81 -48l-34 -41q-26 25 -64 39t-86 14q-70 0 -108.5 -30.5t-38.5 -80.5q0 -38 21 -64t52 -42.5
t85 -38.5q64 -26 103.5 -48.5t67 -61.5t27.5 -98q0 -97 -64 -150t-166 -53q-120 0 -209 80z" />
    <glyph glyph-name="T" unicode="T" horiz-adv-x="468" 
d="M263 0h-58v647h-191v53h440v-53h-191v-647z" />
    <glyph glyph-name="U" unicode="U" horiz-adv-x="701" 
d="M99 267v433h58v-430q0 -107 51.5 -167t142.5 -61q90 1 141.5 61t51.5 167v430h58v-433q0 -128 -66.5 -202.5t-184.5 -74.5q-78 0 -135 34t-87 97t-30 146z" />
    <glyph glyph-name="V" unicode="V" horiz-adv-x="599" 
d="M306 118l228 582h50v-20l-274 -691h-10l-285 691v20h54z" />
    <glyph glyph-name="W" unicode="W" horiz-adv-x="872" 
d="M634 142l154 558h51v-20l-196 -692h-12l-198 577l-198 -577h-13l-189 692v20h54l150 -558l193 561h11z" />
    <glyph glyph-name="X" unicode="X" horiz-adv-x="594" 
d="M518 680l-195 -299l231 -361v-20h-58l-206 330l-198 -330h-52v20l218 356l-197 304v20h57l176 -276l171 276h53v-20z" />
    <glyph glyph-name="Y" unicode="Y" horiz-adv-x="541" 
d="M468 700h53v-20l-216 -358v-322h-58v321l-227 359v20h56l202 -322z" />
    <glyph glyph-name="Z" unicode="Z" horiz-adv-x="539" 
d="M42 700h466v-26l-407 -621h398v-53h-473v34l403 613h-387v53z" />
    <glyph glyph-name="bracketleft" unicode="[" horiz-adv-x="369" 
d="M351 -240h-224v940h224v-44h-178v-852h178v-44z" />
    <glyph glyph-name="backslash" unicode="\" horiz-adv-x="275" 
d="M245 -240l-248 939h50l248 -939h-50z" />
    <glyph glyph-name="bracketright" unicode="]" horiz-adv-x="369" 
d="M243 700v-940h-225v44h178v852h-178v44h225z" />
    <glyph glyph-name="asciicircum" unicode="^" horiz-adv-x="628" 
d="M332 700l212 -344h-57l-173 287l-173 -287h-57l212 344h36z" />
    <glyph glyph-name="underscore" unicode="_" horiz-adv-x="238" 
d="M-11 -107h260v-47h-260v47z" />
    <glyph glyph-name="grave" unicode="`" horiz-adv-x="175" 
d="M10 676l55 38l100 -144l-31 -23z" />
    <glyph glyph-name="a" unicode="a" horiz-adv-x="550" 
d="M420 433h49v-433h-49v94q-23 -47 -66 -74.5t-100 -27.5q-55 0 -103 27t-77 78t-29 120q0 68 28.5 118.5t77 78t107.5 27.5q58 0 99.5 -25t62.5 -65v82zM418 213v11q0 43 -18.5 81.5t-55 62t-87.5 23.5q-71 0 -115 -46.5t-44 -126.5q0 -78 43 -126.5t114 -48.5q51 0 88 25
t56 64.5t19 80.5z" />
    <glyph glyph-name="b" unicode="b" horiz-adv-x="550" 
d="M506 217q0 -69 -29 -120t-77 -78t-103 -27q-57 0 -100.5 28t-66.5 75v-95h-49v700h52v-343q21 38 62.5 61t97.5 23q59 0 107.5 -27.5t77 -78t28.5 -118.5zM453 218q0 80 -44.5 126.5t-115.5 46.5q-51 0 -87.5 -23.5t-54.5 -61.5t-18 -82v-15q1 -41 20 -79t56 -62.5
t87 -24.5q70 0 113.5 48.5t43.5 126.5z" />
    <glyph glyph-name="c" unicode="c" horiz-adv-x="453" 
d="M45 220q0 67 30 117t81 77t113 27q48 0 91 -16.5t73 -48.5l-31 -39q-22 27 -58 42t-76 15q-47 0 -86.5 -20.5t-63 -60t-23.5 -93.5q0 -53 23.5 -94t64 -64t90.5 -23q43 0 78 16t56 43l32 -33q-29 -33 -72 -53t-98 -20q-67 0 -118 30.5t-78.5 82.5t-27.5 115z" />
    <glyph glyph-name="d" unicode="d" horiz-adv-x="549" 
d="M417 700h51v-700h-48v94q-23 -47 -66 -74.5t-100 -27.5q-55 0 -103 27t-77 78t-29 120q0 68 28.5 118.5t77 78t107.5 27.5q55 0 96.5 -23t62.5 -61v343zM417 195v49q-6 62 -48 104.5t-112 42.5q-71 0 -115 -46.5t-44 -126.5q0 -78 43 -126.5t114 -48.5q47 0 82.5 21.5
t55.5 56.5t24 74z" />
    <glyph glyph-name="e" unicode="e" horiz-adv-x="500" 
d="M468 209h-373q2 -50 27 -88.5t64 -60t84 -21.5q42 0 80 18t58 48l35 -32q-29 -41 -76 -61t-99 -20q-61 0 -112 28t-81 79t-30 115q0 70 30 121.5t79 78.5t105 27q60 0 108 -30t74.5 -77.5t26.5 -97.5v-27zM98 254h319q-5 38 -27.5 70t-57.5 51t-75 19q-58 0 -103 -39
t-56 -101z" />
    <glyph glyph-name="f" unicode="f" horiz-adv-x="266" 
d="M143 542v-109h107v-47h-107v-386h-52v386h-75v47h75v109q0 82 39.5 122.5t104.5 40.5q11 0 16 -1t6 -1v-52l-12 1q-50 0 -76 -24t-26 -86z" />
    <glyph glyph-name="g" unicode="g" horiz-adv-x="550" 
d="M420 433h49v-455q0 -71 -30.5 -121t-81 -75t-110.5 -25q-105 0 -175 82l39 41q24 -32 60 -51.5t83 -19.5q76 0 120 49t44 141v91q-23 -45 -66 -71.5t-98 -26.5t-103 27t-77 78t-29 120q0 68 28.5 118.5t77 78t107.5 27.5q58 0 99.5 -25t62.5 -65v82zM418 213v11
q0 43 -18.5 81.5t-55 62t-87.5 23.5q-71 0 -115 -46.5t-44 -126.5q0 -78 43 -126.5t114 -48.5q51 0 88 25t56 64.5t19 80.5z" />
    <glyph glyph-name="h" unicode="h" horiz-adv-x="509" 
d="M437 257v-257h-52v247q0 72 -33 108t-85 36q-61 0 -98 -45t-37 -116v-230h-51v700h51v-341q21 35 59.5 57.5t85.5 22.5q44 0 80.5 -21.5t58 -62.5t21.5 -98z" />
    <glyph glyph-name="i" unicode="i" horiz-adv-x="234" 
d="M143 0h-51v433h51v-433zM78 587q0 16 11.5 26.5t28.5 10.5t28 -10.5t11 -26.5t-11.5 -27t-27.5 -11q-17 0 -28.5 11t-11.5 27z" />
    <glyph glyph-name="j" unicode="j" horiz-adv-x="229" 
d="M1 -242v47q4 -1 13 -1q45 0 64 28.5t19 88.5v512h51v-518q0 -79 -31 -118t-101 -39h-15zM84 587q0 16 11.5 26.5t28.5 10.5t28 -10.5t11 -26.5t-11.5 -27t-27.5 -11q-17 0 -28.5 11t-11.5 27z" />
    <glyph glyph-name="k" unicode="k" horiz-adv-x="425" 
d="M378 426l-172 -190l212 -229v-7h-61l-197 209h-28v-209h-51v700h51v-439h38l153 172h55v-7z" />
    <glyph glyph-name="l" unicode="l" horiz-adv-x="213" 
d="M132 0h-51v700h51v-700z" />
    <glyph glyph-name="m" unicode="m" horiz-adv-x="753" 
d="M681 259v-259h-51v246q0 76 -28 110.5t-72 34.5q-54 0 -88.5 -45t-34.5 -114v-232h-52v263q0 62 -26.5 95t-69.5 33q-35 0 -64 -21.5t-46 -58t-17 -81.5v-230h-51v433h49v-80q22 38 57.5 62t77.5 24q43 0 77 -26t49 -71q21 42 59.5 69.5t84.5 27.5q40 0 73.5 -21t53 -62
t19.5 -97z" />
    <glyph glyph-name="n" unicode="n" horiz-adv-x="509" 
d="M437 257v-257h-52v247q0 72 -33 108t-85 36q-61 0 -98 -45t-37 -116v-230h-51v433h49v-78q21 36 60 60t87 24q44 0 80.5 -21.5t58 -62.5t21.5 -98z" />
    <glyph glyph-name="o" unicode="o" horiz-adv-x="522" 
d="M45 219q0 62 28.5 112.5t78 80t110.5 29.5q60 0 109 -29t77.5 -80t28.5 -113q0 -63 -28.5 -115t-77.5 -82t-109 -30t-109.5 30t-78.5 82t-29 115zM426 219q0 50 -21 90t-58.5 62.5t-84.5 22.5t-85.5 -22.5t-60 -62.5t-21.5 -90q0 -51 21.5 -92t60 -64.5t85.5 -23.5
q46 0 83.5 23.5t59 64.5t21.5 92z" />
    <glyph glyph-name="p" unicode="p" horiz-adv-x="552" 
d="M507 217q0 -69 -29 -120t-77 -78t-103 -27t-98 26.5t-66 70.5v-329h-51v673h48v-84q21 41 62.5 66.5t100.5 25.5t107.5 -27.5t77 -78t28.5 -118.5zM454 218q0 80 -44 126.5t-116 46.5q-51 0 -87 -23.5t-54.5 -62t-18.5 -81.5v-15q1 -41 20 -79t56 -62.5t87 -24.5
q71 0 114 48.5t43 126.5z" />
    <glyph glyph-name="q" unicode="q" horiz-adv-x="550" 
d="M420 433h49v-673h-51v330q-23 -45 -66 -71.5t-98 -26.5t-103 27t-77 78t-29 120q0 68 28.5 118.5t77 78t107.5 27.5q58 0 99.5 -25t62.5 -65v82zM418 213v11q0 43 -18.5 81.5t-55 62t-87.5 23.5q-71 0 -115 -46.5t-44 -126.5q0 -78 43 -126.5t114 -48.5q51 0 88 25
t56 64.5t19 80.5z" />
    <glyph glyph-name="r" unicode="r" horiz-adv-x="295" 
d="M277 434v-50q-25 7 -48 7q-43 0 -64 -20.5t-27 -52.5t-6 -83v-235h-51v433h48v-54q34 60 107 60q25 0 41 -5z" />
    <glyph glyph-name="s" unicode="s" horiz-adv-x="440" 
d="M43 54l30 41q28 -27 64.5 -42.5t77.5 -15.5q51 0 86 23.5t35 61.5q0 25 -15.5 40.5t-39 24t-64.5 18.5q-47 11 -76.5 22.5t-50 34.5t-20.5 61q0 59 45.5 89t111.5 30q85 0 147 -56l-32 -40q-20 22 -51 35.5t-70 13.5q-47 0 -73.5 -19t-26.5 -49q0 -32 27.5 -46.5
t84.5 -28.5q49 -11 80 -23t52.5 -37t21.5 -66q0 -64 -49.5 -100t-125.5 -36q-99 0 -169 64z" />
    <glyph glyph-name="t" unicode="t" horiz-adv-x="286" 
d="M264 45v-45q-25 -5 -51 -5q-60 0 -91 32t-31 106v253h-75v47h75v145h52v-145h117v-47h-117v-247q0 -46 16 -72t63 -26q14 0 42 4z" />
    <glyph glyph-name="u" unicode="u" horiz-adv-x="506" 
d="M374 433h51v-433h-48v92q-18 -42 -57.5 -69.5t-96.5 -27.5q-71 0 -111 47.5t-40 148.5v242h52v-230q0 -85 25 -122.5t81 -37.5q69 0 106.5 48t37.5 119v223z" />
    <glyph glyph-name="v" unicode="v" horiz-adv-x="423" 
d="M220 99l137 334h49v-5l-183 -435h-10l-196 436v4h55z" />
    <glyph glyph-name="w" unicode="w" horiz-adv-x="598" 
d="M426 115l95 318h47v-4l-132 -434h-16l-120 327l-118 -327h-19l-133 434v4h52l98 -318l114 318h17z" />
    <glyph glyph-name="x" unicode="x" horiz-adv-x="407" 
d="M381 429l-146 -205l158 -219v-5h-61l-131 182l-130 -182h-57v5l156 216l-149 208v4h61l124 -175l120 175h55v-4z" />
    <glyph glyph-name="y" unicode="y" horiz-adv-x="430" 
d="M223 80l136 353h51v-4l-258 -669h-49v8l94 243l-180 418v4h55z" />
    <glyph glyph-name="z" unicode="z" horiz-adv-x="416" 
d="M379 0h-338v26l268 360h-266v47h339v-25l-268 -361h265v-47z" />
    <glyph glyph-name="braceleft" unicode="{" horiz-adv-x="414" 
d="M297 -240q-49 0 -76 13.5t-38 44.5t-11 86v169q0 54 -27.5 89t-89.5 59v18q62 24 89.5 59t27.5 89v169q0 55 11 86t38 44.5t76 13.5h99v-44h-86q-43 0 -61 -7t-24.5 -30t-6.5 -78v-149q0 -62 -25 -99t-81 -63q56 -26 81 -63t25 -99v-149q0 -55 6.5 -78t24.5 -30t61 -7h86
v-44h-99z" />
    <glyph glyph-name="bar" unicode="|" horiz-adv-x="271" 
d="M110 700h51v-940h-51v940z" />
    <glyph glyph-name="braceright" unicode="}" horiz-adv-x="414" 
d="M18 -240v44h87q43 0 61 7t24 30t6 78v149q0 62 25 99t81 63q-56 26 -81 63t-25 99v149q0 55 -6 78t-24 30t-61 7h-87v44h99q49 0 76 -13.5t38.5 -44.5t11.5 -86v-169q0 -54 27 -89t90 -59v-18q-63 -24 -90 -59t-27 -89v-169q0 -55 -11.5 -86t-38.5 -44.5t-76 -13.5h-99z
" />
    <glyph glyph-name="asciitilde" unicode="~" horiz-adv-x="628" 
d="M100 258q0 58 29 86.5t74 28.5q27 0 47 -8.5t47 -24.5t45 -24t43 -8q32 0 46.5 16.5t15.5 53.5h48q0 -56 -30.5 -88t-81.5 -32q-31 0 -56 10t-58 28q-26 14 -40.5 20.5t-29.5 6.5q-48 0 -51 -65h-48z" />
    <glyph glyph-name="uni00A0" unicode="&#xa0;" horiz-adv-x="260" 
 />
    <glyph glyph-name="exclamdown" unicode="&#xa1;" horiz-adv-x="218" 
d="M70 406q0 16 10.5 26.5t28.5 10.5t28.5 -10.5t10.5 -26.5q0 -17 -10 -27.5t-29 -10.5q-18 0 -28.5 11t-10.5 27zM137 -240h-56l3 497h50z" />
    <glyph glyph-name="cent" unicode="&#xa2;" horiz-adv-x="453" 
d="M439 65q-27 -31 -66.5 -50.5t-90.5 -22.5v-80h-48v82q-86 12 -137.5 75t-51.5 151q0 91 53 149t136 70v96h48v-94q44 -2 83.5 -19t67.5 -46l-31 -39q-22 27 -58 42t-76 15q-47 0 -86.5 -20.5t-63 -60t-23.5 -93.5q0 -53 23.5 -94t64 -64t90.5 -23q43 0 78 16t56 43z" />
    <glyph glyph-name="sterling" unicode="&#xa3;" horiz-adv-x="526" 
d="M201 51h250v-51h-386v51h81v268h-80v49h80v144q0 95 40 146.5t112 51.5q57 0 98.5 -35t48.5 -114v-23h-49q0 55 -26.5 86t-71.5 31q-44 0 -70.5 -31.5t-26.5 -90.5v-165h220v-49h-220v-268z" />
    <glyph glyph-name="currency" unicode="&#xa4;" horiz-adv-x="584" 
d="M419 260l70 -70l-34 -33l-73 73q-37 -24 -90 -24q-51 0 -91 23l-72 -72l-34 33l70 70q-37 42 -37 106q0 58 30 99l-70 69l34 33l70 -70q41 29 100 29q57 0 100 -29l70 70l34 -33l-71 -70q31 -40 31 -98q0 -63 -37 -106zM292 247q53 0 86 33t33 86t-33 86t-86 33t-86 -33
t-33 -86t33 -86t86 -33z" />
    <glyph glyph-name="yen" unicode="&#xa5;" horiz-adv-x="546" 
d="M468 700h58v-20l-213 -344h170v-49h-181v-86h181v-50h-181v-151h-58v151h-181v50h181v86h-181v49h172l-215 344v20h60l198 -319z" />
    <glyph glyph-name="brokenbar" unicode="&#xa6;" horiz-adv-x="271" 
d="M161 700v-337h-51v337h51zM110 -240v382h51v-382h-51z" />
    <glyph glyph-name="section" unicode="&#xa7;" horiz-adv-x="466" 
d="M386 101q0 -58 -41 -96.5t-114 -38.5q-67 0 -110.5 36t-49.5 107v23h55q1 -56 29 -86t83 -30q47 0 70.5 22.5t23.5 54.5q0 28 -16.5 47.5t-41.5 32.5t-67 30q-48 19 -78.5 35.5t-51.5 43.5t-21 67q0 82 95 122q-33 20 -51.5 46t-18.5 63q0 53 37.5 91.5t105.5 38.5
q64 0 105 -36t46 -115v-23h-49q-1 59 -28.5 91t-75.5 32q-37 0 -62 -20t-25 -55q0 -40 31.5 -63t93.5 -47q50 -20 79.5 -36.5t50 -43.5t20.5 -67q0 -43 -23 -73.5t-64 -47.5q63 -40 63 -105zM236 245q24 -8 40 -16q39 12 59.5 38t20.5 57q0 27 -16.5 46t-40.5 32t-67 31
q-11 4 -33 14q-38 -10 -63.5 -34t-25.5 -59q0 -28 17 -47.5t42 -32.5t67 -29z" />
    <glyph glyph-name="dieresis" unicode="&#xa8;" horiz-adv-x="315" 
d="M120 585q0 16 12 27t29 11t28.5 -11t11.5 -27q0 -17 -11.5 -28.5t-28.5 -11.5t-29 11.5t-12 28.5zM328 585q0 16 12 27t29 11t28.5 -11t11.5 -27q0 -17 -11.5 -28.5t-28.5 -11.5t-29 11.5t-12 28.5z" />
    <glyph glyph-name="copyright" unicode="&#xa9;" horiz-adv-x="922" 
d="M56 263q0 115 51 207.5t143 145t211 52.5t211 -52t142.5 -144t50.5 -207q0 -118 -51 -209.5t-142.5 -142.5t-210.5 -51q-120 0 -212 51t-142.5 142t-50.5 208zM819 265q0 107 -45.5 189t-127 127.5t-185.5 45.5q-105 0 -186 -45.5t-126.5 -128.5t-45.5 -190
q0 -105 46 -187t127.5 -127.5t184.5 -45.5t184.5 45.5t127.5 128t46 188.5zM272 261q0 58 27 101.5t73.5 66.5t102.5 23q43 0 82.5 -15t66.5 -42l-27 -33q-21 24 -53 36.5t-69 12.5q-66 0 -111.5 -40t-45.5 -110q0 -45 21 -80.5t58 -55t82 -19.5q39 0 71 13.5t51 36.5
l29 -28q-26 -28 -65 -45.5t-89 -17.5q-61 0 -107.5 26t-71.5 71t-25 99z" />
    <glyph glyph-name="ordfeminine" unicode="&#xaa;" horiz-adv-x="395" 
d="M286 700h48v-309h-46v73q-13 -35 -45 -56.5t-75 -21.5q-62 0 -101 43t-39 117q0 75 38 117.5t101 42.5q45 0 76.5 -22t42.5 -53v69zM286 545v5q0 50 -28.5 81t-80.5 31q-48 0 -73.5 -30t-25.5 -83q0 -55 23.5 -87t73.5 -32q52 0 81.5 33.5t29.5 81.5z" />
    <glyph glyph-name="guillemotleft" unicode="&#xab;" horiz-adv-x="501" 
d="M221 220l192 208v-67l-133 -140l133 -141v-68zM34 220l192 208v-67l-133 -140l133 -141v-68z" />
    <glyph glyph-name="logicalnot" unicode="&#xac;" horiz-adv-x="628" 
d="M77 327v51h420v-265h-55v214h-365z" />
    <glyph glyph-name="uni00AD" unicode="&#xad;" horiz-adv-x="384" 
d="M58 256h268v-47h-268v47z" />
    <glyph glyph-name="registered" unicode="&#xae;" horiz-adv-x="614" 
d="M307 230q-73 0 -127.5 30.5t-84 85t-29.5 124.5q0 69 30 123.5t84.5 85.5t126.5 31q74 0 128.5 -31t83.5 -86t29 -125q0 -69 -30 -123t-84.5 -84.5t-126.5 -30.5zM514 470q0 95 -56.5 152t-150.5 57t-150.5 -56.5t-56.5 -152.5t56 -152.5t151 -56.5q94 0 150.5 56.5
t56.5 152.5zM343 452l88 -97v-5h-38l-86 100h-71v-100h-32v250h108q51 0 74.5 -19t23.5 -56q0 -32 -16.5 -50t-50.5 -23zM236 572v-95h82q31 0 45.5 11.5t14.5 34.5q0 28 -17 38.5t-52 10.5h-73z" />
    <glyph glyph-name="macron" unicode="&#xaf;" horiz-adv-x="320" 
d="M10 662h300v-47h-300v47z" />
    <glyph glyph-name="macron" unicode="&#x2c9;" horiz-adv-x="320" 
d="M10 662h300v-47h-300v47z" />
    <glyph glyph-name="degree" unicode="&#xb0;" horiz-adv-x="481" 
d="M76 546q0 72 45.5 116t118.5 44q71 0 117.5 -44t46.5 -116q0 -71 -46.5 -115.5t-117.5 -44.5q-72 0 -118 44t-46 116zM359 546q0 53 -33 86t-86 33t-86 -33t-33 -86t33 -86t86 -33t86 33t33 86z" />
    <glyph glyph-name="plusminus" unicode="&#xb1;" horiz-adv-x="628" 
d="M338 568v-169h186v-47h-186v-120h-47v120h-187v47h187v169h47zM524 140h-420v47h420v-47z" />
    <glyph glyph-name="uni00B2" unicode="&#xb2;" horiz-adv-x="323" 
d="M143 397h134v-43h-223v4l106 134q36 45 48.5 69.5t12.5 44.5q0 26 -15 40t-38 14q-20 0 -35 -11.5t-29 -33.5l-38 25q18 32 45.5 47.5t59.5 15.5q43 0 71 -26.5t28 -68.5q0 -30 -16.5 -61.5t-51.5 -75.5z" />
    <glyph glyph-name="uni00B3" unicode="&#xb3;" horiz-adv-x="301" 
d="M267 457q0 -46 -32.5 -76.5t-86.5 -30.5q-39 0 -69 17t-44 52l37 27q9 -23 29 -38t48 -15q30 0 49.5 17.5t19.5 45.5q0 29 -21 50t-51 21h-17v41h16q23 0 38 15.5t15 34.5q0 18 -14.5 30.5t-35.5 12.5q-20 0 -36 -11.5t-22 -30.5l-39 19q10 33 36.5 49.5t62.5 16.5
q43 0 70 -22t27 -57q0 -29 -16 -47.5t-43 -26.5q41 -11 60 -35.5t19 -58.5z" />
    <glyph glyph-name="acute" unicode="&#xb4;" horiz-adv-x="175" 
d="M10 570l100 144l55 -38l-124 -129z" />
    <glyph glyph-name="uni00B5" unicode="&#xb5;" horiz-adv-x="506" 
d="M134 181q0 -144 118 -144q70 0 95.5 45.5t25.5 131.5v219h52v-433h-48v102q-12 -53 -40.5 -83.5t-91.5 -30.5q-74 0 -111 52v-216h-51v609h51v-252z" />
    <glyph glyph-name="paragraph" unicode="&#xb6;" horiz-adv-x="669" 
d="M559 -240h-51v890h-167v-890h-51v512h-16q-109 0 -169.5 57.5t-60.5 156.5q0 47 15.5 86.5t44.5 68t71.5 44t95.5 15.5h288v-940zM290 325v325h-11q-179 0 -179 -161q0 -164 181 -164h9z" />
    <glyph glyph-name="cedilla" unicode="&#xb8;" horiz-adv-x="214" 
d="M114 -61q45 -3 64.5 -25t19.5 -51q0 -38 -28 -58.5t-72 -20.5q-33 0 -55.5 11t-28.5 27l27 20q7 -11 23.5 -18t38.5 -7q51 0 51 43q0 41 -65 41h-6v109h31v-71z" />
    <glyph glyph-name="uni00B9" unicode="&#xb9;" horiz-adv-x="268" 
d="M29 594v48l149 57v-349h-47v287z" />
    <glyph glyph-name="ordmasculine" unicode="&#xba;" horiz-adv-x="381" 
d="M28 545q0 71 45.5 116t116.5 45q46 0 83.5 -20t58.5 -56.5t21 -83.5q0 -70 -46 -115t-117 -45q-46 0 -83 20t-58 56t-21 83zM303 546q0 53 -31.5 84.5t-81.5 31.5t-81 -32t-31 -85q0 -52 31 -84t81 -32t81.5 32t31.5 85z" />
    <glyph glyph-name="guillemotright" unicode="&#xbb;" horiz-adv-x="501" 
d="M89 360v68l192 -208l-192 -208v67l132 140zM275 360v68l193 -208l-193 -208v67l133 140z" />
    <glyph glyph-name="onequarter" unicode="&#xbc;" horiz-adv-x="706" 
d="M24 594v48l149 57v-349h-47v287zM569 700h53l-504 -700h-56zM626 137h50v-43h-50v-94h-47v94h-173v6l167 243h53v-206zM579 283l-101 -146h101v146z" />
    <glyph glyph-name="onehalf" unicode="&#xbd;" horiz-adv-x="682" 
d="M24 594v48l149 57v-349h-47v287zM569 700h53l-504 -700h-56zM517 43h134v-43h-223v4l106 134q36 45 48.5 69.5t12.5 44.5q0 26 -15 40t-38 14q-20 0 -35 -11.5t-29 -33.5l-38 25q18 32 45.5 47.5t59.5 15.5q43 0 71 -26.5t28 -68.5q0 -30 -16.5 -61.5t-51.5 -75.5z" />
    <glyph glyph-name="threequarters" unicode="&#xbe;" horiz-adv-x="743" 
d="M621 700h53l-504 -700h-56zM269 452q0 -46 -32.5 -76.5t-86.5 -30.5q-39 0 -69 17t-44 52l37 27q9 -23 29 -38t48 -15q30 0 49.5 17.5t19.5 45.5q0 29 -21 50t-51 21h-17v41h16q23 0 38 15.5t15 34.5q0 18 -14.5 30.5t-35.5 12.5q-20 0 -36 -11.5t-22 -30.5l-39 19
q10 33 36.5 49.5t62.5 16.5q43 0 70 -22t27 -57q0 -29 -16 -47.5t-43 -26.5q41 -11 60 -35.5t19 -58.5zM663 137h50v-43h-50v-94h-47v94h-173v6l167 243h53v-206zM616 283l-101 -146h101v146z" />
    <glyph glyph-name="questiondown" unicode="&#xbf;" horiz-adv-x="515" 
d="M225 406q0 16 10.5 26.5t28.5 10.5t28.5 -10.5t10.5 -26.5q0 -17 -10 -28t-29 -11q-18 0 -28.5 11t-10.5 28zM67 -78q0 41 13 73.5t31.5 55t49.5 52.5q41 40 60.5 70t19.5 74h47q0 -42 -11.5 -72.5t-28.5 -51.5t-45 -47q-39 -37 -58.5 -68t-19.5 -81q0 -59 33.5 -95.5
t95.5 -36.5q64 0 99.5 40t34.5 113h48v-21q-6 -91 -56.5 -134t-126.5 -43q-81 0 -133.5 45.5t-52.5 126.5z" />
    <glyph glyph-name="Agrave" unicode="&#xc0;" horiz-adv-x="617" 
d="M606 0h-60l-87 214h-304l-86 -214h-58l289 712h15zM306 593l-131 -327h263zM183 825l47 49l107 -107l-27 -29z" />
    <glyph glyph-name="Aacute" unicode="&#xc1;" horiz-adv-x="617" 
d="M606 0h-60l-87 214h-304l-86 -214h-58l289 712h15zM306 593l-131 -327h263zM239 768l107 107l47 -50l-127 -86z" />
    <glyph glyph-name="Acircumflex" unicode="&#xc2;" horiz-adv-x="617" 
d="M606 0h-60l-87 214h-304l-86 -214h-58l289 712h15zM306 593l-131 -327h263zM334 868l101 -103l-22 -26l-105 73l-102 -73l-23 26l102 103h49z" />
    <glyph glyph-name="Atilde" unicode="&#xc3;" horiz-adv-x="617" 
d="M606 0h-60l-87 214h-304l-86 -214h-58l289 712h15zM306 593l-131 -327h263zM287 781q-19 9 -28.5 12.5t-22.5 3.5q-36 0 -38 -40h-46q0 45 23 66.5t60 21.5q20 0 33.5 -5t29.5 -14q18 -10 31 -14.5t33 -4.5q26 0 37.5 10t11.5 33h46q0 -44 -23 -68t-68 -24q-23 0 -41 6
t-38 17z" />
    <glyph glyph-name="Adieresis" unicode="&#xc4;" horiz-adv-x="617" 
d="M606 0h-60l-87 214h-304l-86 -214h-58l289 712h15zM306 593l-131 -327h263zM165 805q0 18 12 29t31 11q17 0 28.5 -11t11.5 -29t-11.5 -29.5t-28.5 -11.5q-19 0 -31 11.5t-12 29.5zM369 805q0 18 12 29t30 11q17 0 28.5 -11t11.5 -29t-11.5 -29.5t-28.5 -11.5
q-18 0 -30 11.5t-12 29.5z" />
    <glyph glyph-name="Aring" unicode="&#xc5;" horiz-adv-x="617" 
d="M606 0h-60l-87 214h-304l-86 -214h-58l289 712h15zM306 593l-131 -327h263zM196 819q0 38 30 57.5t83 19.5q52 0 81.5 -19.5t29.5 -57.5t-29.5 -57.5t-81.5 -19.5q-53 0 -83 19.5t-30 57.5zM373 819q0 38 -64 38q-66 0 -66 -38t66 -38q64 0 64 38z" />
    <glyph glyph-name="AE" unicode="&#xc6;" horiz-adv-x="934" 
d="M809 352h-242v-301h301v-51h-359v218h-273l-152 -218h-66l491 700h349v-51h-291v-246h242v-51zM509 269v338l-237 -338h237z" />
    <glyph glyph-name="Ccedilla" unicode="&#xc7;" horiz-adv-x="675" 
d="M413 -61q45 -3 65 -25t20 -54q0 -40 -28.5 -61t-70.5 -21q-56 0 -80 36l23 25q22 -26 58 -26q24 0 38.5 13t14.5 35q0 44 -63 44h-20v89q-96 12 -168.5 60t-112.5 124.5t-40 171.5q0 103 48 185t133.5 128.5t194.5 46.5q127 0 222 -64l-29 -48q-79 57 -184 57
q-97 0 -170.5 -40.5t-114 -110t-40.5 -154.5q0 -87 43 -156.5t117.5 -109t165.5 -39.5q112 0 193 64l29 -43q-89 -76 -227 -76h-17v-51z" />
    <glyph glyph-name="Egrave" unicode="&#xc8;" horiz-adv-x="550" 
d="M475 0h-365v700h355v-53h-297v-243h247v-53h-247v-298h307v-53zM167 825l47 49l107 -107l-27 -29z" />
    <glyph glyph-name="Eacute" unicode="&#xc9;" horiz-adv-x="550" 
d="M475 0h-365v700h355v-53h-297v-243h247v-53h-247v-298h307v-53zM222 768l107 107l47 -50l-127 -86z" />
    <glyph glyph-name="Ecircumflex" unicode="&#xca;" horiz-adv-x="550" 
d="M475 0h-365v700h355v-53h-297v-243h247v-53h-247v-298h307v-53zM317 868l101 -103l-22 -26l-105 73l-102 -73l-23 26l102 103h49z" />
    <glyph glyph-name="Edieresis" unicode="&#xcb;" horiz-adv-x="550" 
d="M475 0h-365v700h355v-53h-297v-243h247v-53h-247v-298h307v-53zM149 805q0 18 12 29t31 11q17 0 28.5 -11t11.5 -29t-11.5 -29.5t-28.5 -11.5q-19 0 -31 11.5t-12 29.5zM353 805q0 18 12 29t30 11q17 0 28.5 -11t11.5 -29t-11.5 -29.5t-28.5 -11.5q-18 0 -30 11.5
t-12 29.5z" />
    <glyph glyph-name="Igrave" unicode="&#xcc;" horiz-adv-x="278" 
d="M110 700h58v-700h-58v700zM14 825l47 49l107 -107l-27 -29z" />
    <glyph glyph-name="Iacute" unicode="&#xcd;" horiz-adv-x="278" 
d="M110 700h58v-700h-58v700zM69 768l107 107l47 -50l-127 -86z" />
    <glyph glyph-name="Icircumflex" unicode="&#xce;" horiz-adv-x="278" 
d="M110 700h58v-700h-58v700zM164 868l101 -103l-22 -26l-105 73l-102 -73l-23 26l102 103h49z" />
    <glyph glyph-name="Idieresis" unicode="&#xcf;" horiz-adv-x="278" 
d="M38 803q0 16 11.5 26.5t28.5 10.5q16 0 26.5 -10.5t10.5 -26.5q0 -17 -10.5 -28t-26.5 -11q-17 0 -28.5 11t-11.5 28zM162 803q0 16 11.5 26.5t28.5 10.5q16 0 26.5 -10.5t10.5 -26.5q0 -17 -10.5 -28t-26.5 -11q-17 0 -28.5 11t-11.5 28zM110 700h58v-700h-58v700z" />
    <glyph glyph-name="Eth" unicode="&#xd0;" horiz-adv-x="731" 
d="M686 358q0 -117 -50.5 -197.5t-134.5 -120.5t-186 -40h-174v350h-132v51h132v299h170q114 0 198.5 -42t130.5 -119t46 -181zM309 53q101 0 172 36.5t108 103t37 155.5q0 92 -38.5 159.5t-110 103.5t-169.5 36h-109v-246h168v-51h-168v-297h110z" />
    <glyph glyph-name="Ntilde" unicode="&#xd1;" horiz-adv-x="748" 
d="M580 136v564h58v-700h-26l-444 568v-568h-58v700h30zM354 781q-19 9 -28.5 12.5t-22.5 3.5q-36 0 -38 -40h-46q0 45 23 66.5t60 21.5q20 0 33.5 -5t29.5 -14q18 -10 31 -14.5t33 -4.5q26 0 37.5 10t11.5 33h46q0 -44 -23 -68t-68 -24q-23 0 -41 6t-38 17z" />
    <glyph glyph-name="Ograve" unicode="&#xd2;" horiz-adv-x="806" 
d="M49 351q0 101 46 183t127 129t181 47q101 0 181.5 -47.5t126.5 -130t46 -184.5q0 -100 -46 -182.5t-126.5 -129.5t-181.5 -47q-100 0 -181 47.5t-127 130.5t-46 184zM697 350q0 86 -38.5 155.5t-106 109.5t-149.5 40t-149.5 -40t-106 -109.5t-38.5 -155.5t38.5 -156
t106 -110t149.5 -40t149.5 40t106 110t38.5 156zM278 825l47 49l107 -107l-27 -29z" />
    <glyph glyph-name="Oacute" unicode="&#xd3;" horiz-adv-x="806" 
d="M49 351q0 101 46 183t127 129t181 47q101 0 181.5 -47.5t126.5 -130t46 -184.5q0 -100 -46 -182.5t-126.5 -129.5t-181.5 -47q-100 0 -181 47.5t-127 130.5t-46 184zM697 350q0 86 -38.5 155.5t-106 109.5t-149.5 40t-149.5 -40t-106 -109.5t-38.5 -155.5t38.5 -156
t106 -110t149.5 -40t149.5 40t106 110t38.5 156zM333 768l107 107l47 -50l-127 -86z" />
    <glyph glyph-name="Ocircumflex" unicode="&#xd4;" horiz-adv-x="806" 
d="M49 351q0 101 46 183t127 129t181 47q101 0 181.5 -47.5t126.5 -130t46 -184.5q0 -100 -46 -182.5t-126.5 -129.5t-181.5 -47q-100 0 -181 47.5t-127 130.5t-46 184zM697 350q0 86 -38.5 155.5t-106 109.5t-149.5 40t-149.5 -40t-106 -109.5t-38.5 -155.5t38.5 -156
t106 -110t149.5 -40t149.5 40t106 110t38.5 156zM428 868l101 -103l-22 -26l-105 73l-102 -73l-23 26l102 103h49z" />
    <glyph glyph-name="Otilde" unicode="&#xd5;" horiz-adv-x="806" 
d="M49 351q0 101 46 183t127 129t181 47q101 0 181.5 -47.5t126.5 -130t46 -184.5q0 -100 -46 -182.5t-126.5 -129.5t-181.5 -47q-100 0 -181 47.5t-127 130.5t-46 184zM697 350q0 86 -38.5 155.5t-106 109.5t-149.5 40t-149.5 -40t-106 -109.5t-38.5 -155.5t38.5 -156
t106 -110t149.5 -40t149.5 40t106 110t38.5 156zM382 781q-19 9 -28.5 12.5t-22.5 3.5q-36 0 -38 -40h-46q0 45 23 66.5t60 21.5q20 0 33.5 -5t29.5 -14q18 -10 31 -14.5t33 -4.5q26 0 37.5 10t11.5 33h46q0 -44 -23 -68t-68 -24q-23 0 -41 6t-38 17z" />
    <glyph glyph-name="Odieresis" unicode="&#xd6;" horiz-adv-x="806" 
d="M49 351q0 101 46 183t127 129t181 47q101 0 181.5 -47.5t126.5 -130t46 -184.5q0 -100 -46 -182.5t-126.5 -129.5t-181.5 -47q-100 0 -181 47.5t-127 130.5t-46 184zM697 350q0 86 -38.5 155.5t-106 109.5t-149.5 40t-149.5 -40t-106 -109.5t-38.5 -155.5t38.5 -156
t106 -110t149.5 -40t149.5 40t106 110t38.5 156zM260 805q0 18 12 29t31 11q17 0 28.5 -11t11.5 -29t-11.5 -29.5t-28.5 -11.5q-19 0 -31 11.5t-12 29.5zM464 805q0 18 12 29t30 11q17 0 28.5 -11t11.5 -29t-11.5 -29.5t-28.5 -11.5q-18 0 -30 11.5t-12 29.5z" />
    <glyph glyph-name="multiply" unicode="&#xd7;" horiz-adv-x="628" 
d="M446 516l33 -33l-132 -132l132 -132l-33 -33l-132 132l-132 -132l-33 33l132 132l-132 132l33 33l132 -132z" />
    <glyph glyph-name="Oslash" unicode="&#xd8;" horiz-adv-x="806" 
d="M757 661l-80 -78q38 -48 58.5 -108t20.5 -127q0 -100 -46 -182.5t-126.5 -129.5t-181.5 -47q-70 0 -131.5 24t-109.5 68l-78 -75l-37 38l79 76q-37 47 -57 106t-20 125q0 101 46 183t127 129t181 47q70 0 131 -23t107 -66l80 78zM167 162l431 419q-39 35 -89 54.5
t-107 19.5q-82 0 -149.5 -40t-106 -109.5t-38.5 -155.5q0 -53 15.5 -101t43.5 -87zM634 542l-432 -420q40 -37 91 -57.5t109 -20.5q82 0 149.5 40t106 110t38.5 156q0 109 -62 192z" />
    <glyph glyph-name="Ugrave" unicode="&#xd9;" horiz-adv-x="701" 
d="M99 267v433h58v-430q0 -107 51.5 -167t142.5 -61q90 1 141.5 61t51.5 167v430h58v-433q0 -128 -66.5 -202.5t-184.5 -74.5q-78 0 -135 34t-87 97t-30 146zM223 825l47 49l107 -107l-27 -29z" />
    <glyph glyph-name="Uacute" unicode="&#xda;" horiz-adv-x="701" 
d="M99 267v433h58v-430q0 -107 51.5 -167t142.5 -61q90 1 141.5 61t51.5 167v430h58v-433q0 -128 -66.5 -202.5t-184.5 -74.5q-78 0 -135 34t-87 97t-30 146zM279 768l107 107l47 -50l-127 -86z" />
    <glyph glyph-name="Ucircumflex" unicode="&#xdb;" horiz-adv-x="701" 
d="M99 267v433h58v-430q0 -107 51.5 -167t142.5 -61q90 1 141.5 61t51.5 167v430h58v-433q0 -128 -66.5 -202.5t-184.5 -74.5q-78 0 -135 34t-87 97t-30 146zM374 868l101 -103l-22 -26l-105 73l-102 -73l-23 26l102 103h49z" />
    <glyph glyph-name="Udieresis" unicode="&#xdc;" horiz-adv-x="701" 
d="M99 267v433h58v-430q0 -107 51.5 -167t142.5 -61q90 1 141.5 61t51.5 167v430h58v-433q0 -128 -66.5 -202.5t-184.5 -74.5q-78 0 -135 34t-87 97t-30 146zM205 805q0 18 12 29t31 11q17 0 28.5 -11t11.5 -29t-11.5 -29.5t-28.5 -11.5q-19 0 -31 11.5t-12 29.5zM409 805
q0 18 12 29t30 11q17 0 28.5 -11t11.5 -29t-11.5 -29.5t-28.5 -11.5q-18 0 -30 11.5t-12 29.5z" />
    <glyph glyph-name="Yacute" unicode="&#xdd;" horiz-adv-x="541" 
d="M468 700h53v-20l-216 -358v-322h-58v321l-227 359v20h56l202 -322zM204 768l107 107l47 -50l-127 -86z" />
    <glyph glyph-name="Thorn" unicode="&#xde;" horiz-adv-x="536" 
d="M274 553q63 0 111.5 -26t75.5 -71.5t27 -99.5q0 -55 -27 -101t-75.5 -73.5t-111.5 -27.5h-106v-154h-58v700h58v-147h106zM264 207q77 0 121.5 41.5t44.5 105.5t-45 105.5t-123 41.5h-94v-294h96z" />
    <glyph glyph-name="germandbls" unicode="&#xdf;" horiz-adv-x="567" 
d="M226 48l27 35q25 -23 49.5 -34.5t56.5 -11.5q47 0 75.5 22t28.5 58q0 33 -24 55t-72 50q-54 30 -83 58t-29 73q0 33 15 54.5t44 46.5q31 26 47.5 50.5t16.5 62.5q0 45 -27 70.5t-83 25.5q-52 0 -81.5 -24.5t-42 -77.5t-12.5 -146v-415h-51v430q0 140 41.5 210t143.5 70
q79 0 121 -40t42 -105q0 -45 -19 -73.5t-54 -60.5q-26 -23 -38 -39t-12 -37q0 -27 21.5 -45t65.5 -41q38 -20 62.5 -37t41.5 -43.5t17 -62.5q0 -61 -45.5 -98.5t-110.5 -37.5q-43 0 -77 17t-55 41z" />
    <glyph glyph-name="agrave" unicode="&#xe0;" horiz-adv-x="550" 
d="M420 433h49v-433h-49v94q-23 -47 -66 -74.5t-100 -27.5q-55 0 -103 27t-77 78t-29 120q0 68 28.5 118.5t77 78t107.5 27.5q58 0 99.5 -25t62.5 -65v82zM418 213v11q0 43 -18.5 81.5t-55 62t-87.5 23.5q-71 0 -115 -46.5t-44 -126.5q0 -78 43 -126.5t114 -48.5q51 0 88 25
t56 64.5t19 80.5zM158 670l49 38l97 -140l-26 -21z" />
    <glyph glyph-name="aacute" unicode="&#xe1;" horiz-adv-x="550" 
d="M420 433h49v-433h-49v94q-23 -47 -66 -74.5t-100 -27.5q-55 0 -103 27t-77 78t-29 120q0 68 28.5 118.5t77 78t107.5 27.5q58 0 99.5 -25t62.5 -65v82zM418 213v11q0 43 -18.5 81.5t-55 62t-87.5 23.5q-71 0 -115 -46.5t-44 -126.5q0 -78 43 -126.5t114 -48.5q51 0 88 25
t56 64.5t19 80.5zM206 568l98 140l48 -38l-120 -123z" />
    <glyph glyph-name="acircumflex" unicode="&#xe2;" horiz-adv-x="550" 
d="M420 433h49v-433h-49v94q-23 -47 -66 -74.5t-100 -27.5q-55 0 -103 27t-77 78t-29 120q0 68 28.5 118.5t77 78t107.5 27.5q58 0 99.5 -25t62.5 -65v82zM418 213v11q0 43 -18.5 81.5t-55 62t-87.5 23.5q-71 0 -115 -46.5t-44 -126.5q0 -78 43 -126.5t114 -48.5q51 0 88 25
t56 64.5t19 80.5zM290 678l101 -98l-20 -25l-112 75l-112 -75l-20 25l102 98h61z" />
    <glyph glyph-name="atilde" unicode="&#xe3;" horiz-adv-x="550" 
d="M420 433h49v-433h-49v94q-23 -47 -66 -74.5t-100 -27.5q-55 0 -103 27t-77 78t-29 120q0 68 28.5 118.5t77 78t107.5 27.5q58 0 99.5 -25t62.5 -65v82zM418 213v11q0 43 -18.5 81.5t-55 62t-87.5 23.5q-71 0 -115 -46.5t-44 -126.5q0 -78 43 -126.5t114 -48.5q51 0 88 25
t56 64.5t19 80.5zM241 618q-16 9 -26.5 13.5t-22.5 4.5q-20 0 -29.5 -13t-10.5 -34h-44q0 45 23 68.5t61 23.5q20 0 34 -5.5t31 -16.5q19 -11 31.5 -16.5t31.5 -5.5q26 0 36 13t10 39h44q0 -46 -21 -71.5t-66 -25.5q-24 0 -42 6.5t-40 19.5z" />
    <glyph glyph-name="adieresis" unicode="&#xe4;" horiz-adv-x="550" 
d="M420 433h49v-433h-49v94q-23 -47 -66 -74.5t-100 -27.5q-55 0 -103 27t-77 78t-29 120q0 68 28.5 118.5t77 78t107.5 27.5q58 0 99.5 -25t62.5 -65v82zM418 213v11q0 43 -18.5 81.5t-55 62t-87.5 23.5q-71 0 -115 -46.5t-44 -126.5q0 -78 43 -126.5t114 -48.5q51 0 88 25
t56 64.5t19 80.5zM117 600q0 16 11 26t28 10q16 0 26.5 -10t10.5 -26t-10.5 -26.5t-26.5 -10.5q-17 0 -28 10.5t-11 26.5zM325 600q0 16 11 26t28 10q16 0 26.5 -10t10.5 -26t-10.5 -26.5t-26.5 -10.5q-17 0 -28 10.5t-11 26.5z" />
    <glyph glyph-name="aring" unicode="&#xe5;" horiz-adv-x="550" 
d="M420 433h49v-433h-49v94q-23 -47 -66 -74.5t-100 -27.5q-55 0 -103 27t-77 78t-29 120q0 68 28.5 118.5t77 78t107.5 27.5q58 0 99.5 -25t62.5 -65v82zM418 213v11q0 43 -18.5 81.5t-55 62t-87.5 23.5q-71 0 -115 -46.5t-44 -126.5q0 -78 43 -126.5t114 -48.5q51 0 88 25
t56 64.5t19 80.5zM163 644q0 39 28 66t70 27q41 0 69 -27t28 -66q0 -40 -28 -67.5t-69 -27.5q-43 0 -70.5 27t-27.5 68zM313 644q0 26 -13.5 40.5t-38.5 14.5t-39.5 -15t-14.5 -40q0 -26 14.5 -41t39.5 -15q24 0 38 15t14 41z" />
    <glyph glyph-name="ae" unicode="&#xe6;" horiz-adv-x="714" 
d="M682 209h-309q2 -76 40.5 -123t98.5 -47q37 0 72.5 18t55.5 48l35 -32q-27 -40 -71.5 -60.5t-91.5 -20.5q-56 0 -99 31t-65 88q-21 -62 -65 -90.5t-102 -28.5q-64 0 -105 36t-41 93q0 56 41.5 94.5t117.5 38.5h129v2q0 62 -36 99t-89 37q-67 0 -113 -61l-29 40
q63 70 147 70q49 0 90.5 -24.5t59.5 -83.5q23 52 66 80t94 28q52 0 90.5 -28.5t58.5 -72t20 -87.5v-44zM376 254h257q-2 59 -35.5 99.5t-84.5 40.5q-49 0 -88 -39t-49 -101zM323 209h-119q-64 0 -90 -24t-26 -60q0 -39 27.5 -62.5t69.5 -23.5q66 0 101.5 46.5t36.5 123.5z
" />
    <glyph glyph-name="ccedilla" unicode="&#xe7;" horiz-adv-x="453" 
d="M439 65q-27 -30 -65.5 -49.5t-88.5 -23.5v-57q42 -3 64 -22.5t22 -50.5q0 -35 -26.5 -55t-68.5 -20q-25 0 -45 8t-32 21l21 28q20 -20 56 -20q50 0 50 37q0 40 -65 40h-10v92q-62 4 -109 35t-72 81.5t-25 110.5q0 67 30 117t81 77t113 27q48 0 91 -16.5t73 -48.5l-31 -39
q-22 27 -58 42t-76 15q-47 0 -86.5 -20.5t-63 -60t-23.5 -93.5q0 -53 23.5 -94t64 -64t90.5 -23q43 0 78 16t56 43z" />
    <glyph glyph-name="egrave" unicode="&#xe8;" horiz-adv-x="500" 
d="M468 209h-373q2 -50 27 -88.5t64 -60t84 -21.5q42 0 80 18t58 48l35 -32q-29 -41 -76 -61t-99 -20q-61 0 -112 28t-81 79t-30 115q0 70 30 121.5t79 78.5t105 27q60 0 108 -30t74.5 -77.5t26.5 -97.5v-27zM98 254h319q-5 38 -27.5 70t-57.5 51t-75 19q-58 0 -103 -39
t-56 -101zM154 670l49 38l97 -140l-26 -21z" />
    <glyph glyph-name="eacute" unicode="&#xe9;" horiz-adv-x="500" 
d="M468 209h-373q2 -50 27 -88.5t64 -60t84 -21.5q42 0 80 18t58 48l35 -32q-29 -41 -76 -61t-99 -20q-61 0 -112 28t-81 79t-30 115q0 70 30 121.5t79 78.5t105 27q60 0 108 -30t74.5 -77.5t26.5 -97.5v-27zM98 254h319q-5 38 -27.5 70t-57.5 51t-75 19q-58 0 -103 -39
t-56 -101zM203 568l98 140l48 -38l-120 -123z" />
    <glyph glyph-name="ecircumflex" unicode="&#xea;" horiz-adv-x="500" 
d="M468 209h-373q2 -50 27 -88.5t64 -60t84 -21.5q42 0 80 18t58 48l35 -32q-29 -41 -76 -61t-99 -20q-61 0 -112 28t-81 79t-30 115q0 70 30 121.5t79 78.5t105 27q60 0 108 -30t74.5 -77.5t26.5 -97.5v-27zM98 254h319q-5 38 -27.5 70t-57.5 51t-75 19q-58 0 -103 -39
t-56 -101zM287 678l101 -98l-20 -25l-112 75l-112 -75l-20 25l102 98h61z" />
    <glyph glyph-name="edieresis" unicode="&#xeb;" horiz-adv-x="500" 
d="M468 209h-373q2 -50 27 -88.5t64 -60t84 -21.5q42 0 80 18t58 48l35 -32q-29 -41 -76 -61t-99 -20q-61 0 -112 28t-81 79t-30 115q0 70 30 121.5t79 78.5t105 27q60 0 108 -30t74.5 -77.5t26.5 -97.5v-27zM98 254h319q-5 38 -27.5 70t-57.5 51t-75 19q-58 0 -103 -39
t-56 -101zM114 600q0 16 11 26t28 10q16 0 26.5 -10t10.5 -26t-10.5 -26.5t-26.5 -10.5q-17 0 -28 10.5t-11 26.5zM322 600q0 16 11 26t28 10q16 0 26.5 -10t10.5 -26t-10.5 -26.5t-26.5 -10.5q-17 0 -28 10.5t-11 26.5z" />
    <glyph glyph-name="igrave" unicode="&#xec;" horiz-adv-x="234" 
d="M143 0h-51v433h51v-433zM15 670l49 38l97 -140l-26 -21z" />
    <glyph glyph-name="iacute" unicode="&#xed;" horiz-adv-x="234" 
d="M143 0h-51v433h51v-433zM63 568l98 140l48 -38l-120 -123z" />
    <glyph glyph-name="icircumflex" unicode="&#xee;" horiz-adv-x="234" 
d="M143 0h-51v433h51v-433zM147 678l101 -98l-20 -25l-112 75l-112 -75l-20 25l102 98h61z" />
    <glyph glyph-name="idieresis" unicode="&#xef;" horiz-adv-x="234" 
d="M27 590q0 13 11 22.5t26 9.5q14 0 25 -9.5t11 -22.5t-11 -23t-25 -10t-25.5 10t-11.5 23zM142 590q0 13 11.5 22.5t26.5 9.5q14 0 25 -9.5t11 -22.5t-11 -23t-25 -10q-15 0 -26.5 10t-11.5 23zM143 0h-51v433h51v-433z" />
    <glyph glyph-name="eth" unicode="&#xf0;" horiz-adv-x="507" 
d="M354 580q51 -66 79.5 -149.5t28.5 -178.5q0 -140 -61 -200t-147 -60q-61 0 -108.5 28t-74 79t-26.5 118q0 69 29 120t76.5 77.5t103.5 26.5q86 0 147 -69q-23 105 -88 186l-165 -84l-19 38l154 79q-51 51 -118 83l23 35q79 -33 138 -97l94 48l19 -37zM414 217
q0 53 -22.5 93.5t-60 62t-81.5 21.5q-46 0 -81.5 -23.5t-55 -63t-19.5 -86.5q0 -50 21 -91.5t58 -66t83 -24.5q44 0 80 22.5t57 63.5t21 92z" />
    <glyph glyph-name="ntilde" unicode="&#xf1;" horiz-adv-x="509" 
d="M437 257v-257h-52v247q0 72 -33 108t-85 36q-61 0 -98 -45t-37 -116v-230h-51v433h49v-78q21 36 60 60t87 24q44 0 80.5 -21.5t58 -62.5t21.5 -98zM248 618q-16 9 -26.5 13.5t-22.5 4.5q-20 0 -29.5 -13t-10.5 -34h-44q0 45 23 68.5t61 23.5q20 0 34 -5.5t31 -16.5
q19 -11 31.5 -16.5t31.5 -5.5q26 0 36 13t10 39h44q0 -46 -21 -71.5t-66 -25.5q-24 0 -42 6.5t-40 19.5z" />
    <glyph glyph-name="ograve" unicode="&#xf2;" horiz-adv-x="522" 
d="M45 219q0 62 28.5 112.5t78 80t110.5 29.5q60 0 109 -29t77.5 -80t28.5 -113q0 -63 -28.5 -115t-77.5 -82t-109 -30t-109.5 30t-78.5 82t-29 115zM426 219q0 50 -21 90t-58.5 62.5t-84.5 22.5t-85.5 -22.5t-60 -62.5t-21.5 -90q0 -51 21.5 -92t60 -64.5t85.5 -23.5
q46 0 83.5 23.5t59 64.5t21.5 92zM157 670l49 38l97 -140l-26 -21z" />
    <glyph glyph-name="oacute" unicode="&#xf3;" horiz-adv-x="522" 
d="M45 219q0 62 28.5 112.5t78 80t110.5 29.5q60 0 109 -29t77.5 -80t28.5 -113q0 -63 -28.5 -115t-77.5 -82t-109 -30t-109.5 30t-78.5 82t-29 115zM426 219q0 50 -21 90t-58.5 62.5t-84.5 22.5t-85.5 -22.5t-60 -62.5t-21.5 -90q0 -51 21.5 -92t60 -64.5t85.5 -23.5
q46 0 83.5 23.5t59 64.5t21.5 92zM205 568l98 140l48 -38l-120 -123z" />
    <glyph glyph-name="ocircumflex" unicode="&#xf4;" horiz-adv-x="522" 
d="M45 219q0 62 28.5 112.5t78 80t110.5 29.5q60 0 109 -29t77.5 -80t28.5 -113q0 -63 -28.5 -115t-77.5 -82t-109 -30t-109.5 30t-78.5 82t-29 115zM426 219q0 50 -21 90t-58.5 62.5t-84.5 22.5t-85.5 -22.5t-60 -62.5t-21.5 -90q0 -51 21.5 -92t60 -64.5t85.5 -23.5
q46 0 83.5 23.5t59 64.5t21.5 92zM289 678l101 -98l-20 -25l-112 75l-112 -75l-20 25l102 98h61z" />
    <glyph glyph-name="otilde" unicode="&#xf5;" horiz-adv-x="522" 
d="M45 219q0 62 28.5 112.5t78 80t110.5 29.5q60 0 109 -29t77.5 -80t28.5 -113q0 -63 -28.5 -115t-77.5 -82t-109 -30t-109.5 30t-78.5 82t-29 115zM426 219q0 50 -21 90t-58.5 62.5t-84.5 22.5t-85.5 -22.5t-60 -62.5t-21.5 -90q0 -51 21.5 -92t60 -64.5t85.5 -23.5
q46 0 83.5 23.5t59 64.5t21.5 92zM241 618q-16 9 -26.5 13.5t-22.5 4.5q-20 0 -29.5 -13t-10.5 -34h-44q0 45 23 68.5t61 23.5q20 0 34 -5.5t31 -16.5q19 -11 31.5 -16.5t31.5 -5.5q26 0 36 13t10 39h44q0 -46 -21 -71.5t-66 -25.5q-24 0 -42 6.5t-40 19.5z" />
    <glyph glyph-name="odieresis" unicode="&#xf6;" horiz-adv-x="522" 
d="M45 219q0 62 28.5 112.5t78 80t110.5 29.5q60 0 109 -29t77.5 -80t28.5 -113q0 -63 -28.5 -115t-77.5 -82t-109 -30t-109.5 30t-78.5 82t-29 115zM426 219q0 50 -21 90t-58.5 62.5t-84.5 22.5t-85.5 -22.5t-60 -62.5t-21.5 -90q0 -51 21.5 -92t60 -64.5t85.5 -23.5
q46 0 83.5 23.5t59 64.5t21.5 92zM116 600q0 16 11 26t28 10q16 0 26.5 -10t10.5 -26t-10.5 -26.5t-26.5 -10.5q-17 0 -28 10.5t-11 26.5zM324 600q0 16 11 26t28 10q16 0 26.5 -10t10.5 -26t-10.5 -26.5t-26.5 -10.5q-17 0 -28 10.5t-11 26.5z" />
    <glyph glyph-name="divide" unicode="&#xf7;" horiz-adv-x="628" 
d="M279 507q0 15 10.5 24t25.5 9t25 -9t10 -24q0 -14 -10 -24t-25 -10t-25.5 10t-10.5 24zM279 162q0 15 10.5 24t25.5 9t25 -9t10 -24q0 -14 -10 -24t-25 -10t-25.5 10t-10.5 24zM104 361h420v-47h-420v47z" />
    <glyph glyph-name="oslash" unicode="&#xf8;" horiz-adv-x="517" 
d="M431 361q48 -61 48 -142q0 -63 -28.5 -115t-78 -82t-109.5 -30q-41 0 -78 14.5t-66 41.5l-48 -49l-27 27l50 50q-23 29 -35.5 65.5t-12.5 77.5q0 62 28.5 112.5t78.5 80t110 29.5q82 0 142 -52l42 41l26 -27zM97 219q0 -61 31 -108l243 244q-47 39 -108 39
q-47 0 -85 -22.5t-59.5 -62.5t-21.5 -90zM428 219q0 61 -31 106l-244 -243q46 -43 110 -43q47 0 84.5 23.5t59 64.5t21.5 92z" />
    <glyph glyph-name="ugrave" unicode="&#xf9;" horiz-adv-x="506" 
d="M374 433h51v-433h-48v92q-18 -42 -57.5 -69.5t-96.5 -27.5q-71 0 -111 47.5t-40 148.5v242h52v-230q0 -85 25 -122.5t81 -37.5q69 0 106.5 48t37.5 119v223zM146 670l49 38l97 -140l-26 -21z" />
    <glyph glyph-name="uacute" unicode="&#xfa;" horiz-adv-x="506" 
d="M374 433h51v-433h-48v92q-18 -42 -57.5 -69.5t-96.5 -27.5q-71 0 -111 47.5t-40 148.5v242h52v-230q0 -85 25 -122.5t81 -37.5q69 0 106.5 48t37.5 119v223zM194 568l98 140l48 -38l-120 -123z" />
    <glyph glyph-name="ucircumflex" unicode="&#xfb;" horiz-adv-x="506" 
d="M374 433h51v-433h-48v92q-18 -42 -57.5 -69.5t-96.5 -27.5q-71 0 -111 47.5t-40 148.5v242h52v-230q0 -85 25 -122.5t81 -37.5q69 0 106.5 48t37.5 119v223zM278 678l101 -98l-20 -25l-112 75l-112 -75l-20 25l102 98h61z" />
    <glyph glyph-name="udieresis" unicode="&#xfc;" horiz-adv-x="506" 
d="M374 433h51v-433h-48v92q-18 -42 -57.5 -69.5t-96.5 -27.5q-71 0 -111 47.5t-40 148.5v242h52v-230q0 -85 25 -122.5t81 -37.5q69 0 106.5 48t37.5 119v223zM105 600q0 16 11 26t28 10q16 0 26.5 -10t10.5 -26t-10.5 -26.5t-26.5 -10.5q-17 0 -28 10.5t-11 26.5zM313 600
q0 16 11 26t28 10q16 0 26.5 -10t10.5 -26t-10.5 -26.5t-26.5 -10.5q-17 0 -28 10.5t-11 26.5z" />
    <glyph glyph-name="yacute" unicode="&#xfd;" horiz-adv-x="430" 
d="M223 80l136 353h51v-4l-258 -669h-49v8l94 243l-180 418v4h55zM161 568l98 140l48 -38l-120 -123z" />
    <glyph glyph-name="thorn" unicode="&#xfe;" horiz-adv-x="552" 
d="M507 217q0 -69 -29 -120t-77 -78t-103 -27t-98 26.5t-66 70.5v-329h-51v940h51v-345q21 39 62 62.5t98 23.5q59 0 107.5 -27.5t77 -78t28.5 -118.5zM454 218q0 80 -44 126.5t-116 46.5q-51 0 -87 -23.5t-54.5 -62t-18.5 -81.5v-15q1 -41 20 -79t56 -62.5t87 -24.5
q71 0 114 48.5t43 126.5z" />
    <glyph glyph-name="ydieresis" unicode="&#xff;" horiz-adv-x="430" 
d="M223 80l136 353h51v-4l-258 -669h-49v8l94 243l-180 418v4h55zM72 600q0 16 11 26t28 10q16 0 26.5 -10t10.5 -26t-10.5 -26.5t-26.5 -10.5q-17 0 -28 10.5t-11 26.5zM280 600q0 16 11 26t28 10q16 0 26.5 -10t10.5 -26t-10.5 -26.5t-26.5 -10.5q-17 0 -28 10.5t-11 26.5
z" />
    <glyph glyph-name="Amacron" unicode="&#x100;" horiz-adv-x="617" 
d="M606 0h-60l-87 214h-304l-86 -214h-58l289 712h15zM306 593l-131 -327h263zM159 815h300v-45h-300v45z" />
    <glyph glyph-name="amacron" unicode="&#x101;" horiz-adv-x="550" 
d="M420 433h49v-433h-49v94q-23 -47 -66 -74.5t-100 -27.5q-55 0 -103 27t-77 78t-29 120q0 68 28.5 118.5t77 78t107.5 27.5q58 0 99.5 -25t62.5 -65v82zM418 213v11q0 43 -18.5 81.5t-55 62t-87.5 23.5q-71 0 -115 -46.5t-44 -126.5q0 -78 43 -126.5t114 -48.5q51 0 88 25
t56 64.5t19 80.5zM126 627h268v-46h-268v46z" />
    <glyph glyph-name="Abreve" unicode="&#x102;" horiz-adv-x="617" 
d="M606 0h-60l-87 214h-304l-86 -214h-58l289 712h15zM306 593l-131 -327h263zM182 849l34 16q15 -30 39.5 -47.5t53.5 -17.5q30 0 55 18t37 47l35 -16q-11 -47 -45 -74t-82 -27t-82 27t-45 74z" />
    <glyph glyph-name="abreve" unicode="&#x103;" horiz-adv-x="550" 
d="M420 433h49v-433h-49v94q-23 -47 -66 -74.5t-100 -27.5q-55 0 -103 27t-77 78t-29 120q0 68 28.5 118.5t77 78t107.5 27.5q58 0 99.5 -25t62.5 -65v82zM418 213v11q0 43 -18.5 81.5t-55 62t-87.5 23.5q-71 0 -115 -46.5t-44 -126.5q0 -78 43 -126.5t114 -48.5q51 0 88 25
t56 64.5t19 80.5zM122 660l34 20q36 -69 103 -69q66 0 104 69l34 -20q-20 -45 -55 -70.5t-83 -25.5q-47 0 -82 25.5t-55 70.5z" />
    <glyph glyph-name="Aogonek" unicode="&#x104;" horiz-adv-x="617" 
d="M612 -193v-36q-26 -13 -56 -13q-47 0 -75.5 28t-28.5 74q0 42 24.5 79.5t67.5 64.5l-85 210h-304l-86 -214h-58l289 712h15l291 -712q-39 -15 -71 -51t-32 -75q0 -34 18.5 -53t53.5 -19q15 0 37 5zM306 593l-131 -327h263z" />
    <glyph glyph-name="aogonek" unicode="&#x105;" horiz-adv-x="550" 
d="M470 -194v-35q-25 -13 -56 -13q-48 0 -75 28t-27 68t28 79.5t80 72.5v88q-23 -47 -66 -74.5t-100 -27.5q-55 0 -103 27t-77 78t-29 120q0 68 28.5 118.5t77 78t107.5 27.5q58 0 99.5 -25t62.5 -65v82h49v-433q-114 -69 -114 -137q0 -28 18.5 -47.5t50.5 -19.5q19 0 46 10
zM418 213v11q0 43 -18.5 81.5t-55 62t-87.5 23.5q-71 0 -115 -46.5t-44 -126.5q0 -78 43 -126.5t114 -48.5q51 0 88 25t56 64.5t19 80.5z" />
    <glyph glyph-name="Cacute" unicode="&#x106;" horiz-adv-x="675" 
d="M49 350q0 103 48 185t133.5 128.5t194.5 46.5q127 0 222 -64l-29 -48q-79 57 -184 57q-97 0 -170.5 -40.5t-114 -110t-40.5 -154.5q0 -87 43 -156.5t117.5 -109t165.5 -39.5q112 0 193 64l29 -43q-89 -76 -227 -76q-112 0 -198.5 46t-134.5 128t-48 186zM323 768l107 107
l47 -50l-127 -86z" />
    <glyph glyph-name="cacute" unicode="&#x107;" horiz-adv-x="453" 
d="M45 220q0 67 30 117t81 77t113 27q48 0 91 -16.5t73 -48.5l-31 -39q-22 27 -58 42t-76 15q-47 0 -86.5 -20.5t-63 -60t-23.5 -93.5q0 -53 23.5 -94t64 -64t90.5 -23q43 0 78 16t56 43l32 -33q-29 -33 -72 -53t-98 -20q-67 0 -118 30.5t-78.5 82.5t-27.5 115zM218 568
l98 140l48 -38l-120 -123z" />
    <glyph glyph-name="Ccircumflex" unicode="&#x108;" horiz-adv-x="675" 
d="M49 350q0 103 48 185t133.5 128.5t194.5 46.5q127 0 222 -64l-29 -48q-79 57 -184 57q-97 0 -170.5 -40.5t-114 -110t-40.5 -154.5q0 -87 43 -156.5t117.5 -109t165.5 -39.5q112 0 193 64l29 -43q-89 -76 -227 -76q-112 0 -198.5 46t-134.5 128t-48 186zM418 868
l101 -103l-22 -26l-105 73l-102 -73l-23 26l102 103h49z" />
    <glyph glyph-name="ccircumflex" unicode="&#x109;" horiz-adv-x="453" 
d="M45 220q0 67 30 117t81 77t113 27q48 0 91 -16.5t73 -48.5l-31 -39q-22 27 -58 42t-76 15q-47 0 -86.5 -20.5t-63 -60t-23.5 -93.5q0 -53 23.5 -94t64 -64t90.5 -23q43 0 78 16t56 43l32 -33q-29 -33 -72 -53t-98 -20q-67 0 -118 30.5t-78.5 82.5t-27.5 115zM302 678
l101 -98l-20 -25l-112 75l-112 -75l-20 25l102 98h61z" />
    <glyph glyph-name="Cdotaccent" unicode="&#x10a;" horiz-adv-x="675" 
d="M49 350q0 103 48 185t133.5 128.5t194.5 46.5q127 0 222 -64l-29 -48q-79 57 -184 57q-97 0 -170.5 -40.5t-114 -110t-40.5 -154.5q0 -87 43 -156.5t117.5 -109t165.5 -39.5q112 0 193 64l29 -43q-89 -76 -227 -76q-112 0 -198.5 46t-134.5 128t-48 186zM351 805
q0 18 12 29t31 11q17 0 28.5 -11t11.5 -29t-11.5 -29.5t-28.5 -11.5q-19 0 -31 11.5t-12 29.5z" />
    <glyph glyph-name="cdotaccent" unicode="&#x10b;" horiz-adv-x="453" 
d="M45 220q0 67 30 117t81 77t113 27q48 0 91 -16.5t73 -48.5l-31 -39q-22 27 -58 42t-76 15q-47 0 -86.5 -20.5t-63 -60t-23.5 -93.5q0 -53 23.5 -94t64 -64t90.5 -23q43 0 78 16t56 43l32 -33q-29 -33 -72 -53t-98 -20q-67 0 -118 30.5t-78.5 82.5t-27.5 115zM232 587
q0 16 11.5 26.5t28.5 10.5t28 -10.5t11 -26.5t-11.5 -27t-27.5 -11q-17 0 -28.5 11t-11.5 27z" />
    <glyph glyph-name="Ccaron" unicode="&#x10c;" horiz-adv-x="675" 
d="M49 350q0 103 48 185t133.5 128.5t194.5 46.5q127 0 222 -64l-29 -48q-79 57 -184 57q-97 0 -170.5 -40.5t-114 -110t-40.5 -154.5q0 -87 43 -156.5t117.5 -109t165.5 -39.5q112 0 193 64l29 -43q-89 -76 -227 -76q-112 0 -198.5 46t-134.5 128t-48 186zM393 805l104 70
l22 -26l-102 -97h-49l-101 97l23 26z" />
    <glyph glyph-name="ccaron" unicode="&#x10d;" horiz-adv-x="453" 
d="M45 220q0 67 30 117t81 77t113 27q48 0 91 -16.5t73 -48.5l-31 -39q-22 27 -58 42t-76 15q-47 0 -86.5 -20.5t-63 -60t-23.5 -93.5q0 -53 23.5 -94t64 -64t90.5 -23q43 0 78 16t56 43l32 -33q-29 -33 -72 -53t-98 -20q-67 0 -118 30.5t-78.5 82.5t-27.5 115zM271 613
l112 74l20 -24l-102 -99h-61l-101 99l20 24z" />
    <glyph glyph-name="Dcaron" unicode="&#x10e;" horiz-adv-x="704" 
d="M655 358q0 -117 -50.5 -197.5t-134.5 -120.5t-186 -40h-174v700h170q114 0 198.5 -42t130.5 -119t46 -181zM278 53q101 0 172 36.5t108 103t37 155.5q0 92 -38.5 159.5t-110 103.5t-169.5 36h-109v-594h110zM350 805l104 70l22 -26l-102 -97h-49l-101 97l23 26z" />
    <glyph glyph-name="dcaron" unicode="&#x10f;" horiz-adv-x="549" 
d="M417 700h51v-700h-48v94q-23 -47 -66 -74.5t-100 -27.5q-55 0 -103 27t-77 78t-29 120q0 68 28.5 118.5t77 78t107.5 27.5q55 0 96.5 -23t62.5 -61v343zM417 195v49q-6 62 -48 104.5t-112 42.5q-71 0 -115 -46.5t-44 -126.5q0 -78 43 -126.5t114 -48.5q47 0 82.5 21.5
t55.5 56.5t24 74zM574 516l-35 -1v188l52 -3z" />
    <glyph glyph-name="Dcroat" unicode="&#x110;" horiz-adv-x="731" 
d="M686 358q0 -117 -50.5 -197.5t-134.5 -120.5t-186 -40h-174v350h-132v51h132v299h170q114 0 198.5 -42t130.5 -119t46 -181zM309 53q101 0 172 36.5t108 103t37 155.5q0 92 -38.5 159.5t-110 103.5t-169.5 36h-109v-246h168v-51h-168v-297h110z" />
    <glyph glyph-name="dcroat" unicode="&#x111;" horiz-adv-x="560" 
d="M543 578v-48h-75v-530h-48v94q-23 -47 -66 -74.5t-100 -27.5q-55 0 -103 27t-77 78t-29 120q0 68 28.5 118.5t77 78t107.5 27.5q55 0 96.5 -23t62.5 -61v173h-203v48h203v122h51v-122h75zM417 195v49q-6 62 -48 104.5t-112 42.5q-71 0 -115 -46.5t-44 -126.5
q0 -78 43 -126.5t114 -48.5q47 0 82.5 21.5t55.5 56.5t24 74z" />
    <glyph glyph-name="Emacron" unicode="&#x112;" horiz-adv-x="550" 
d="M475 0h-365v700h355v-53h-297v-243h247v-53h-247v-298h307v-53zM142 815h300v-45h-300v45z" />
    <glyph glyph-name="emacron" unicode="&#x113;" horiz-adv-x="500" 
d="M468 209h-373q2 -50 27 -88.5t64 -60t84 -21.5q42 0 80 18t58 48l35 -32q-29 -41 -76 -61t-99 -20q-61 0 -112 28t-81 79t-30 115q0 70 30 121.5t79 78.5t105 27q60 0 108 -30t74.5 -77.5t26.5 -97.5v-27zM98 254h319q-5 38 -27.5 70t-57.5 51t-75 19q-58 0 -103 -39
t-56 -101zM123 627h268v-46h-268v46z" />
    <glyph glyph-name="Ebreve" unicode="&#x114;" horiz-adv-x="550" 
d="M475 0h-365v700h355v-53h-297v-243h247v-53h-247v-298h307v-53zM165 849l34 16q15 -30 39.5 -47.5t53.5 -17.5q30 0 55 18t37 47l35 -16q-11 -47 -45 -74t-82 -27t-82 27t-45 74z" />
    <glyph glyph-name="ebreve" unicode="&#x115;" horiz-adv-x="500" 
d="M468 209h-373q2 -50 27 -88.5t64 -60t84 -21.5q42 0 80 18t58 48l35 -32q-29 -41 -76 -61t-99 -20q-61 0 -112 28t-81 79t-30 115q0 70 30 121.5t79 78.5t105 27q60 0 108 -30t74.5 -77.5t26.5 -97.5v-27zM98 254h319q-5 38 -27.5 70t-57.5 51t-75 19q-58 0 -103 -39
t-56 -101zM119 660l34 20q36 -69 103 -69q66 0 104 69l34 -20q-20 -45 -55 -70.5t-83 -25.5q-47 0 -82 25.5t-55 70.5z" />
    <glyph glyph-name="Edotaccent" unicode="&#x116;" horiz-adv-x="550" 
d="M475 0h-365v700h355v-53h-297v-243h247v-53h-247v-298h307v-53zM249 805q0 18 12 29t31 11q17 0 28.5 -11t11.5 -29t-11.5 -29.5t-28.5 -11.5q-19 0 -31 11.5t-12 29.5z" />
    <glyph glyph-name="edotaccent" unicode="&#x117;" horiz-adv-x="500" 
d="M468 209h-373q2 -50 27 -88.5t64 -60t84 -21.5q42 0 80 18t58 48l35 -32q-29 -41 -76 -61t-99 -20q-61 0 -112 28t-81 79t-30 115q0 70 30 121.5t79 78.5t105 27q60 0 108 -30t74.5 -77.5t26.5 -97.5v-27zM98 254h319q-5 38 -27.5 70t-57.5 51t-75 19q-58 0 -103 -39
t-56 -101zM217 587q0 16 11.5 26.5t28.5 10.5t28 -10.5t11 -26.5t-11.5 -27t-27.5 -11q-17 0 -28.5 11t-11.5 27z" />
    <glyph glyph-name="Eogonek" unicode="&#x118;" horiz-adv-x="550" 
d="M464 0q-39 -15 -71 -51t-32 -75q0 -34 18.5 -53t53.5 -19q15 0 37 5v-36q-26 -13 -56 -13q-47 0 -75.5 28t-28.5 74q0 40 23 76.5t62 63.5h-285v700h355v-53h-297v-243h247v-53h-247v-298h307v-53h-11z" />
    <glyph glyph-name="eogonek" unicode="&#x119;" horiz-adv-x="500" 
d="M468 209h-373q2 -50 27 -88.5t64 -60t84 -21.5q42 0 80 18t58 48l35 -32q-1 -1 -11 -14q-47 -59 -69 -105t-22 -87q0 -71 57 -71q18 0 45 10v-35q-25 -13 -55 -13q-46 0 -68.5 26.5t-22.5 69.5q0 70 61 155q-41 -17 -90 -17q-61 0 -112 28t-81 79t-30 115q0 70 30 121.5
t79 78.5t105 27q60 0 108 -30t74.5 -77.5t26.5 -97.5v-27zM98 254h319q-5 38 -27.5 70t-57.5 51t-75 19q-58 0 -103 -39t-56 -101z" />
    <glyph glyph-name="Ecaron" unicode="&#x11a;" horiz-adv-x="550" 
d="M475 0h-365v700h355v-53h-297v-243h247v-53h-247v-298h307v-53zM292 805l104 70l22 -26l-102 -97h-49l-101 97l23 26z" />
    <glyph glyph-name="ecaron" unicode="&#x11b;" horiz-adv-x="500" 
d="M468 209h-373q2 -50 27 -88.5t64 -60t84 -21.5q42 0 80 18t58 48l35 -32q-29 -41 -76 -61t-99 -20q-61 0 -112 28t-81 79t-30 115q0 70 30 121.5t79 78.5t105 27q60 0 108 -30t74.5 -77.5t26.5 -97.5v-27zM98 254h319q-5 38 -27.5 70t-57.5 51t-75 19q-58 0 -103 -39
t-56 -101zM256 613l112 74l20 -24l-102 -99h-61l-101 99l20 24z" />
    <glyph glyph-name="Gcircumflex" unicode="&#x11c;" horiz-adv-x="802" 
d="M412 342h344q0 -102 -38 -181.5t-113.5 -124.5t-182.5 -45q-113 0 -197.5 47t-130 128t-45.5 181q0 96 43 178.5t127.5 133t203.5 50.5q74 0 137.5 -23t111.5 -66l-34 -47q-45 42 -102 62.5t-121 20.5q-96 0 -166 -44.5t-106 -116t-36 -149.5q0 -83 40.5 -152t113 -109
t164.5 -40q113 0 187.5 64t86.5 180h-287v53zM441 868l101 -103l-22 -26l-105 73l-102 -73l-23 26l102 103h49z" />
    <glyph glyph-name="gcircumflex" unicode="&#x11d;" horiz-adv-x="550" 
d="M420 433h49v-455q0 -71 -30.5 -121t-81 -75t-110.5 -25q-105 0 -175 82l39 41q24 -32 60 -51.5t83 -19.5q76 0 120 49t44 141v91q-23 -45 -66 -71.5t-98 -26.5t-103 27t-77 78t-29 120q0 68 28.5 118.5t77 78t107.5 27.5q58 0 99.5 -25t62.5 -65v82zM418 213v11
q0 43 -18.5 81.5t-55 62t-87.5 23.5q-71 0 -115 -46.5t-44 -126.5q0 -78 43 -126.5t114 -48.5q51 0 88 25t56 64.5t19 80.5zM305 678l101 -98l-20 -25l-112 75l-112 -75l-20 25l102 98h61z" />
    <glyph glyph-name="Gbreve" unicode="&#x11e;" horiz-adv-x="802" 
d="M412 342h344q0 -102 -38 -181.5t-113.5 -124.5t-182.5 -45q-113 0 -197.5 47t-130 128t-45.5 181q0 96 43 178.5t127.5 133t203.5 50.5q74 0 137.5 -23t111.5 -66l-34 -47q-45 42 -102 62.5t-121 20.5q-96 0 -166 -44.5t-106 -116t-36 -149.5q0 -83 40.5 -152t113 -109
t164.5 -40q113 0 187.5 64t86.5 180h-287v53zM289 849l34 16q15 -30 39.5 -47.5t53.5 -17.5q30 0 55 18t37 47l35 -16q-11 -47 -45 -74t-82 -27t-82 27t-45 74z" />
    <glyph glyph-name="gbreve" unicode="&#x11f;" horiz-adv-x="550" 
d="M420 433h49v-455q0 -71 -30.5 -121t-81 -75t-110.5 -25q-105 0 -175 82l39 41q24 -32 60 -51.5t83 -19.5q76 0 120 49t44 141v91q-23 -45 -66 -71.5t-98 -26.5t-103 27t-77 78t-29 120q0 68 28.5 118.5t77 78t107.5 27.5q58 0 99.5 -25t62.5 -65v82zM418 213v11
q0 43 -18.5 81.5t-55 62t-87.5 23.5q-71 0 -115 -46.5t-44 -126.5q0 -78 43 -126.5t114 -48.5q51 0 88 25t56 64.5t19 80.5zM138 660l34 20q36 -69 103 -69q66 0 104 69l34 -20q-20 -45 -55 -70.5t-83 -25.5q-47 0 -82 25.5t-55 70.5z" />
    <glyph glyph-name="Gdotaccent" unicode="&#x120;" horiz-adv-x="802" 
d="M412 342h344q0 -102 -38 -181.5t-113.5 -124.5t-182.5 -45q-113 0 -197.5 47t-130 128t-45.5 181q0 96 43 178.5t127.5 133t203.5 50.5q74 0 137.5 -23t111.5 -66l-34 -47q-45 42 -102 62.5t-121 20.5q-96 0 -166 -44.5t-106 -116t-36 -149.5q0 -83 40.5 -152t113 -109
t164.5 -40q113 0 187.5 64t86.5 180h-287v53zM373 805q0 18 12 29t31 11q17 0 28.5 -11t11.5 -29t-11.5 -29.5t-28.5 -11.5q-19 0 -31 11.5t-12 29.5z" />
    <glyph glyph-name="gdotaccent" unicode="&#x121;" horiz-adv-x="550" 
d="M420 433h49v-455q0 -71 -30.5 -121t-81 -75t-110.5 -25q-105 0 -175 82l39 41q24 -32 60 -51.5t83 -19.5q76 0 120 49t44 141v91q-23 -45 -66 -71.5t-98 -26.5t-103 27t-77 78t-29 120q0 68 28.5 118.5t77 78t107.5 27.5q58 0 99.5 -25t62.5 -65v82zM418 213v11
q0 43 -18.5 81.5t-55 62t-87.5 23.5q-71 0 -115 -46.5t-44 -126.5q0 -78 43 -126.5t114 -48.5q51 0 88 25t56 64.5t19 80.5zM236 587q0 16 11.5 26.5t28.5 10.5t28 -10.5t11 -26.5t-11.5 -27t-27.5 -11q-17 0 -28.5 11t-11.5 27z" />
    <glyph glyph-name="uni0122" unicode="&#x122;" horiz-adv-x="802" 
d="M412 342h344q0 -102 -38 -181.5t-113.5 -124.5t-182.5 -45q-113 0 -197.5 47t-130 128t-45.5 181q0 96 43 178.5t127.5 133t203.5 50.5q74 0 137.5 -23t111.5 -66l-34 -47q-45 42 -102 62.5t-121 20.5q-96 0 -166 -44.5t-106 -116t-36 -149.5q0 -83 40.5 -152t113 -109
t164.5 -40q113 0 187.5 64t86.5 180h-287v53zM418 -112q-17 3 -27 12.5t-10 22.5q0 15 13 24.5t29 9.5q21 0 33 -12t12 -33q0 -13 -9 -30t-37 -61l-35 -55h-46z" />
    <glyph glyph-name="uni0123" unicode="&#x123;" horiz-adv-x="550" 
d="M420 433h49v-455q0 -71 -30.5 -121t-81 -75t-110.5 -25q-105 0 -175 82l39 41q24 -32 60 -51.5t83 -19.5q76 0 120 49t44 141v91q-23 -45 -66 -71.5t-98 -26.5t-103 27t-77 78t-29 120q0 68 28.5 118.5t77 78t107.5 27.5q58 0 99.5 -25t62.5 -65v82zM418 213v11
q0 43 -18.5 81.5t-55 62t-87.5 23.5q-71 0 -115 -46.5t-44 -126.5q0 -78 43 -126.5t114 -48.5q51 0 88 25t56 64.5t19 80.5zM269 614q18 -1 28 -11.5t10 -25.5q0 -17 -13 -27.5t-30 -10.5q-21 0 -33 13t-12 36q0 14 10 35t33 61l36 59h48z" />
    <glyph glyph-name="Hcircumflex" unicode="&#x124;" horiz-adv-x="736" 
d="M568 404v296h58v-700h-58v351h-400v-351h-58v700h58v-296h400zM393 868l101 -103l-22 -26l-105 73l-102 -73l-23 26l102 103h49z" />
    <glyph glyph-name="hcircumflex" unicode="&#x125;" horiz-adv-x="509" 
d="M437 257v-257h-52v247q0 72 -33 108t-85 36q-61 0 -98 -45t-37 -116v-230h-51v700h51v-341q21 35 59.5 57.5t85.5 22.5q44 0 80.5 -21.5t58 -62.5t21.5 -98zM131 868l101 -103l-22 -26l-105 73l-102 -73l-23 26l102 103h49z" />
    <glyph glyph-name="Hbar" unicode="&#x126;" horiz-adv-x="736" 
d="M626 569h85v-50h-85v-519h-58v351h-400v-351h-58v519h-85v50h85v131h58v-131h400v131h58v-131zM168 404h400v115h-400v-115z" />
    <glyph glyph-name="hbar" unicode="&#x127;" horiz-adv-x="519" 
d="M447 257v-257h-51v247q0 72 -33.5 108t-85.5 36q-61 0 -97.5 -45t-36.5 -116v-230h-52v530h-75v48h75v122h52v-122h174v-48h-174v-171q21 35 59.5 57.5t84.5 22.5q45 0 81 -21.5t57.5 -62.5t21.5 -98z" />
    <glyph glyph-name="Itilde" unicode="&#x128;" horiz-adv-x="278" 
d="M4 757q0 88 70 88q17 0 27.5 -4.5t27.5 -14.5q14 -10 25.5 -14.5t28.5 -4.5q21 0 30.5 10t9.5 33h46q0 -92 -80 -92q-22 0 -37 6t-33 18q-13 8 -21 11.5t-17 3.5q-29 0 -31 -40h-46zM110 700h58v-700h-58v700z" />
    <glyph glyph-name="itilde" unicode="&#x129;" horiz-adv-x="234" 
d="M102 618q-12 9 -21 13.5t-19 4.5q-17 0 -24.5 -13t-7.5 -34h-44q0 46 20 69t54 23q19 0 32.5 -6.5t26.5 -17.5q15 -10 24.5 -15t23.5 -5q21 0 29 13t8 39h44q0 -46 -18.5 -71.5t-58.5 -25.5q-21 0 -36 7t-33 19zM143 0h-51v433h51v-433z" />
    <glyph glyph-name="Imacron" unicode="&#x12a;" horiz-adv-x="278" 
d="M40 790h198v-48h-198v48zM110 700h58v-700h-58v700z" />
    <glyph glyph-name="imacron" unicode="&#x12b;" horiz-adv-x="234" 
d="M143 0h-51v433h51v-433zM-17 627h268v-46h-268v46z" />
    <glyph glyph-name="Ibreve" unicode="&#x12c;" horiz-adv-x="278" 
d="M110 700h58v-700h-58v700zM12 849l34 16q15 -30 39.5 -47.5t53.5 -17.5q30 0 55 18t37 47l35 -16q-11 -47 -45 -74t-82 -27t-82 27t-45 74z" />
    <glyph glyph-name="ibreve" unicode="&#x12d;" horiz-adv-x="234" 
d="M143 0h-51v433h51v-433zM-20 660l34 20q36 -69 103 -69q66 0 104 69l34 -20q-20 -45 -55 -70.5t-83 -25.5q-47 0 -82 25.5t-55 70.5z" />
    <glyph glyph-name="Iogonek" unicode="&#x12e;" horiz-adv-x="278" 
d="M175 -193v-36q-26 -13 -56 -13q-47 0 -75.5 28t-28.5 74q0 43 25.5 81t69.5 65v694h58v-698l1 -2q-39 -15 -71 -51t-32 -75q0 -34 18.5 -53t53.5 -19q15 0 37 5z" />
    <glyph glyph-name="iogonek" unicode="&#x12f;" horiz-adv-x="234" 
d="M157 587q0 -16 -11.5 -27t-27.5 -11q-17 0 -28.5 11t-11.5 27t11.5 26.5t28.5 10.5t28 -10.5t11 -26.5zM98 -204q19 0 46 10v-35q-25 -13 -56 -13q-48 0 -75 28t-27 68t27.5 79t78.5 72v428h51v-433q-114 -69 -114 -137q0 -28 18.5 -47.5t50.5 -19.5z" />
    <glyph glyph-name="Idotaccent" unicode="&#x130;" horiz-adv-x="278" 
d="M110 700h58v-700h-58v700zM97 805q0 18 12 29t31 11q17 0 28.5 -11t11.5 -29t-11.5 -29.5t-28.5 -11.5q-19 0 -31 11.5t-12 29.5z" />
    <glyph glyph-name="dotlessi" unicode="&#x131;" horiz-adv-x="234" 
d="M143 0h-51v433h51v-433z" />
    <glyph glyph-name="Jcircumflex" unicode="&#x134;" horiz-adv-x="335" 
d="M21 1v51q18 -6 42 -6q60 0 87.5 32t27.5 100v522h58v-529q0 -89 -44 -132.5t-125 -43.5q-26 0 -46 6zM232 868l101 -103l-22 -26l-105 73l-102 -73l-23 26l102 103h49z" />
    <glyph glyph-name="jcircumflex" unicode="&#x135;" horiz-adv-x="229" 
d="M1 -242v47q4 -1 13 -1q45 0 64 28.5t19 88.5v512h51v-518q0 -79 -31 -118t-101 -39h-15zM153 678l101 -98l-20 -25l-112 75l-112 -75l-20 25l102 98h61z" />
    <glyph glyph-name="uni0136" unicode="&#x136;" horiz-adv-x="616" 
d="M512 680l-252 -307l336 -353v-20h-61l-325 343h-42v-343h-58v700h58v-307h44l247 307h53v-20zM335 -112q-17 3 -27 12.5t-10 22.5q0 15 13 24.5t29 9.5q21 0 33 -12t12 -33q0 -13 -9 -30t-37 -61l-35 -55h-46z" />
    <glyph glyph-name="uni0137" unicode="&#x137;" horiz-adv-x="425" 
d="M378 426l-172 -190l212 -229v-7h-61l-197 209h-28v-209h-51v700h51v-439h38l153 172h55v-7zM283 -86q0 -11 -7.5 -25.5t-19 -33.5t-15.5 -26l-34 -52h-44l72 115q-17 1 -26 10t-9 23t12.5 23t27.5 9q19 0 31 -12t12 -31z" />
    <glyph glyph-name="Lacute" unicode="&#x139;" horiz-adv-x="491" 
d="M168 700v-646h289v-54h-347v700h58zM70 768l107 107l47 -50l-127 -86z" />
    <glyph glyph-name="lacute" unicode="&#x13a;" horiz-adv-x="213" 
d="M132 0h-51v700h51v-700zM38 768l107 107l47 -50l-127 -86z" />
    <glyph glyph-name="uni013B" unicode="&#x13b;" horiz-adv-x="491" 
d="M168 700v-646h289v-54h-347v700h58zM278 -111q-17 3 -27 12.5t-10 22.5q0 15 13 24.5t29 9.5q21 0 33 -12t12 -33q0 -13 -9 -30t-37 -61l-35 -55h-46z" />
    <glyph glyph-name="uni013C" unicode="&#x13c;" horiz-adv-x="213" 
d="M132 0h-51v700h51v-700zM152 -86q0 -11 -7.5 -25.5t-19 -33.5t-15.5 -26l-34 -52h-44l72 115q-17 1 -26 10t-9 23t12.5 23t27.5 9q19 0 31 -12t12 -31z" />
    <glyph glyph-name="Lcaron" unicode="&#x13d;" horiz-adv-x="491" 
d="M168 700v-646h289v-54h-347v700h58zM277 516l-35 -1v188l52 -3z" />
    <glyph glyph-name="lcaron" unicode="&#x13e;" horiz-adv-x="213" 
d="M132 0h-51v700h51v-700zM237 516l-35 -1v188l52 -3z" />
    <glyph glyph-name="Ldot" unicode="&#x13f;" horiz-adv-x="491" 
d="M168 700v-646h289v-54h-347v700h58zM333 382q0 17 9 26.5t26 9.5q18 0 27 -9.5t9 -26.5q0 -15 -9.5 -24.5t-26.5 -9.5q-16 0 -25.5 9.5t-9.5 24.5z" />
    <glyph glyph-name="ldot" unicode="&#x140;" horiz-adv-x="234" 
d="M132 0h-51v700h51v-700zM187 316q0 17 9 26.5t26 9.5q18 0 27 -9.5t9 -26.5q0 -15 -9.5 -24.5t-26.5 -9.5q-16 0 -25.5 9.5t-9.5 24.5z" />
    <glyph glyph-name="Lslash" unicode="&#x141;" horiz-adv-x="505" 
d="M183 292v-238h289v-54h-347v240l-81 -73v56l81 72v405h58v-353l203 180v-53z" />
    <glyph glyph-name="lslash" unicode="&#x142;" horiz-adv-x="259" 
d="M150 404l86 74v-58l-86 -75v-345h-51v301l-80 -69v59l80 69v340h51v-296z" />
    <glyph glyph-name="Nacute" unicode="&#x143;" horiz-adv-x="748" 
d="M580 136v564h58v-700h-26l-444 568v-568h-58v700h30zM306 768l107 107l47 -50l-127 -86z" />
    <glyph glyph-name="nacute" unicode="&#x144;" horiz-adv-x="509" 
d="M437 257v-257h-52v247q0 72 -33 108t-85 36q-61 0 -98 -45t-37 -116v-230h-51v433h49v-78q21 36 60 60t87 24q44 0 80.5 -21.5t58 -62.5t21.5 -98zM213 568l98 140l48 -38l-120 -123z" />
    <glyph glyph-name="uni0145" unicode="&#x145;" horiz-adv-x="748" 
d="M580 136v564h58v-700h-26l-444 568v-568h-58v700h30zM374 -111q-17 3 -27 12.5t-10 22.5q0 15 13 24.5t29 9.5q21 0 33 -12t12 -33q0 -13 -9 -30t-37 -61l-35 -55h-46z" />
    <glyph glyph-name="uni0146" unicode="&#x146;" horiz-adv-x="509" 
d="M437 257v-257h-52v247q0 72 -33 108t-85 36q-61 0 -98 -45t-37 -116v-230h-51v433h49v-78q21 36 60 60t87 24q44 0 80.5 -21.5t58 -62.5t21.5 -98zM305 -86q0 -11 -7.5 -25.5t-19 -33.5t-15.5 -26l-34 -52h-44l72 115q-17 1 -26 10t-9 23t12.5 23t27.5 9q19 0 31 -12
t12 -31z" />
    <glyph glyph-name="Ncaron" unicode="&#x147;" horiz-adv-x="748" 
d="M580 136v564h58v-700h-26l-444 568v-568h-58v700h30zM376 805l104 70l22 -26l-102 -97h-49l-101 97l23 26z" />
    <glyph glyph-name="ncaron" unicode="&#x148;" horiz-adv-x="509" 
d="M437 257v-257h-52v247q0 72 -33 108t-85 36q-61 0 -98 -45t-37 -116v-230h-51v433h49v-78q21 36 60 60t87 24q44 0 80.5 -21.5t58 -62.5t21.5 -98zM266 613l112 74l20 -24l-102 -99h-61l-101 99l20 24z" />
    <glyph glyph-name="Eng" unicode="&#x14a;" horiz-adv-x="743" 
d="M575 700h58v-719q0 -89 -44 -132.5t-124 -43.5q-26 0 -46 6v50q18 -6 42 -6q59 0 86.5 32.5t27.5 100.5v69l-407 515v-572h-58v700h30l435 -554v554z" />
    <glyph glyph-name="eng" unicode="&#x14b;" horiz-adv-x="509" 
d="M288 -240v47q6 -1 16 -1q81 0 81 96v345q0 72 -33 108t-85 36q-61 0 -98 -45t-37 -116v-230h-51v433h49v-78q21 36 60 60t87 24q44 0 80.5 -21.5t58 -62.5t21.5 -98v-333q0 -83 -32 -124t-105 -41q-7 0 -12 1z" />
    <glyph glyph-name="Omacron" unicode="&#x14c;" horiz-adv-x="806" 
d="M49 351q0 101 46 183t127 129t181 47q101 0 181.5 -47.5t126.5 -130t46 -184.5q0 -100 -46 -182.5t-126.5 -129.5t-181.5 -47q-100 0 -181 47.5t-127 130.5t-46 184zM697 350q0 86 -38.5 155.5t-106 109.5t-149.5 40t-149.5 -40t-106 -109.5t-38.5 -155.5t38.5 -156
t106 -110t149.5 -40t149.5 40t106 110t38.5 156zM253 815h300v-45h-300v45z" />
    <glyph glyph-name="omacron" unicode="&#x14d;" horiz-adv-x="522" 
d="M45 219q0 62 28.5 112.5t78 80t110.5 29.5q60 0 109 -29t77.5 -80t28.5 -113q0 -63 -28.5 -115t-77.5 -82t-109 -30t-109.5 30t-78.5 82t-29 115zM426 219q0 50 -21 90t-58.5 62.5t-84.5 22.5t-85.5 -22.5t-60 -62.5t-21.5 -90q0 -51 21.5 -92t60 -64.5t85.5 -23.5
q46 0 83.5 23.5t59 64.5t21.5 92zM125 627h268v-46h-268v46z" />
    <glyph glyph-name="Obreve" unicode="&#x14e;" horiz-adv-x="806" 
d="M49 351q0 101 46 183t127 129t181 47q101 0 181.5 -47.5t126.5 -130t46 -184.5q0 -100 -46 -182.5t-126.5 -129.5t-181.5 -47q-100 0 -181 47.5t-127 130.5t-46 184zM697 350q0 86 -38.5 155.5t-106 109.5t-149.5 40t-149.5 -40t-106 -109.5t-38.5 -155.5t38.5 -156
t106 -110t149.5 -40t149.5 40t106 110t38.5 156zM276 849l34 16q15 -30 39.5 -47.5t53.5 -17.5q30 0 55 18t37 47l35 -16q-11 -47 -45 -74t-82 -27t-82 27t-45 74z" />
    <glyph glyph-name="obreve" unicode="&#x14f;" horiz-adv-x="522" 
d="M45 219q0 62 28.5 112.5t78 80t110.5 29.5q60 0 109 -29t77.5 -80t28.5 -113q0 -63 -28.5 -115t-77.5 -82t-109 -30t-109.5 30t-78.5 82t-29 115zM426 219q0 50 -21 90t-58.5 62.5t-84.5 22.5t-85.5 -22.5t-60 -62.5t-21.5 -90q0 -51 21.5 -92t60 -64.5t85.5 -23.5
q46 0 83.5 23.5t59 64.5t21.5 92zM122 660l34 20q36 -69 103 -69q66 0 104 69l34 -20q-20 -45 -55 -70.5t-83 -25.5q-47 0 -82 25.5t-55 70.5z" />
    <glyph glyph-name="Ohungarumlaut" unicode="&#x150;" horiz-adv-x="806" 
d="M49 351q0 101 46 183t127 129t181 47q101 0 181.5 -47.5t126.5 -130t46 -184.5q0 -100 -46 -182.5t-126.5 -129.5t-181.5 -47q-100 0 -181 47.5t-127 130.5t-46 184zM697 350q0 86 -38.5 155.5t-106 109.5t-149.5 40t-149.5 -40t-106 -109.5t-38.5 -155.5t38.5 -156
t106 -110t149.5 -40t149.5 40t106 110t38.5 156zM288 761l72 104l50 -50l-92 -75zM446 763l81 98l44 -53l-98 -68z" />
    <glyph glyph-name="ohungarumlaut" unicode="&#x151;" horiz-adv-x="522" 
d="M45 219q0 62 28.5 112.5t78 80t110.5 29.5q60 0 109 -29t77.5 -80t28.5 -113q0 -63 -28.5 -115t-77.5 -82t-109 -30t-109.5 30t-78.5 82t-29 115zM426 219q0 50 -21 90t-58.5 62.5t-84.5 22.5t-85.5 -22.5t-60 -62.5t-21.5 -90q0 -51 21.5 -92t60 -64.5t85.5 -23.5
q46 0 83.5 23.5t59 64.5t21.5 92zM158 565l82 149l52 -32l-105 -135zM297 568l98 140l49 -38l-120 -123z" />
    <glyph glyph-name="OE" unicode="&#x152;" horiz-adv-x="908" 
d="M423 0q-115 0 -199.5 43.5t-129.5 122t-45 180.5q0 107 47.5 187t132.5 123.5t194 43.5h400v-53h-310v-245h266v-53h-266v-296h320v-53h-410zM455 53v594h-23q-102 0 -175 -37.5t-110.5 -105t-37.5 -156.5q0 -88 40 -154.5t113 -103.5t170 -37h23z" />
    <glyph glyph-name="oe" unicode="&#x153;" horiz-adv-x="783" 
d="M751 209h-323q2 -76 41.5 -123t99.5 -47q39 0 73 19t54 50l37 -31q-28 -42 -71.5 -63.5t-91.5 -21.5q-57 0 -102 29.5t-67 82.5q-17 -50 -61.5 -81t-105.5 -31q-85 0 -137 60.5t-52 164.5q0 105 51.5 164.5t141.5 59.5q61 0 103 -28t62 -77q26 52 67.5 78.5t96.5 26.5
q61 0 102.5 -32t61.5 -81.5t20 -101.5v-17zM430 254h269q-6 61 -41.5 100.5t-90.5 39.5q-57 0 -93 -37.5t-44 -102.5zM377 218q0 81 -32 127.5t-100 46.5q-71 0 -110 -47.5t-39 -127.5t37 -128.5t107 -48.5q69 0 103 49.5t34 128.5z" />
    <glyph glyph-name="Racute" unicode="&#x154;" horiz-adv-x="583" 
d="M572 21v-21h-61l-258 292h-85v-292h-58v700h188q63 0 112 -28t75.5 -74.5t26.5 -99.5q0 -50 -23 -94.5t-66 -74t-100 -35.5zM168 647v-302h117q79 0 124 43t45 109q0 65 -45.5 107.5t-124.5 42.5h-116zM236 768l107 107l47 -50l-127 -86z" />
    <glyph glyph-name="racute" unicode="&#x155;" horiz-adv-x="295" 
d="M277 434v-50q-25 7 -48 7q-43 0 -64 -20.5t-27 -52.5t-6 -83v-235h-51v433h48v-54q34 60 107 60q25 0 41 -5zM117 568l98 140l48 -38l-120 -123z" />
    <glyph glyph-name="uni0156" unicode="&#x156;" horiz-adv-x="583" 
d="M572 21v-21h-61l-258 292h-85v-292h-58v700h188q63 0 112 -28t75.5 -74.5t26.5 -99.5q0 -50 -23 -94.5t-66 -74t-100 -35.5zM168 647v-302h117q79 0 124 43t45 109q0 65 -45.5 107.5t-124.5 42.5h-116zM313 -112q-17 3 -27 12.5t-10 22.5q0 15 13 24.5t29 9.5
q21 0 33 -12t12 -33q0 -13 -9 -30t-37 -61l-35 -55h-46z" />
    <glyph glyph-name="uni0157" unicode="&#x157;" horiz-adv-x="295" 
d="M277 434v-50q-25 7 -48 7q-43 0 -64 -20.5t-27 -52.5t-6 -83v-235h-51v433h48v-54q34 60 107 60q25 0 41 -5zM152 -86q0 -11 -7.5 -25.5t-19 -33.5t-15.5 -26l-34 -52h-44l72 115q-17 1 -26 10t-9 23t12.5 23t27.5 9q19 0 31 -12t12 -31z" />
    <glyph glyph-name="Rcaron" unicode="&#x158;" horiz-adv-x="583" 
d="M572 21v-21h-61l-258 292h-85v-292h-58v700h188q63 0 112 -28t75.5 -74.5t26.5 -99.5q0 -50 -23 -94.5t-66 -74t-100 -35.5zM168 647v-302h117q79 0 124 43t45 109q0 65 -45.5 107.5t-124.5 42.5h-116zM306 805l104 70l22 -26l-102 -97h-49l-101 97l23 26z" />
    <glyph glyph-name="rcaron" unicode="&#x159;" horiz-adv-x="295" 
d="M277 434v-50q-25 7 -48 7q-43 0 -64 -20.5t-27 -52.5t-6 -83v-235h-51v433h48v-54q34 60 107 60q25 0 41 -5zM170 613l112 74l20 -24l-102 -99h-61l-101 99l20 24z" />
    <glyph glyph-name="Sacute" unicode="&#x15a;" horiz-adv-x="551" 
d="M56 69l36 48q71 -74 179 -74q82 0 125 40.5t43 100.5q0 43 -23 73t-56.5 48.5t-90.5 42.5q-62 27 -98.5 47.5t-62 55.5t-25.5 87q0 76 55 123.5t149 47.5q55 0 102 -17t81 -48l-34 -41q-26 25 -64 39t-86 14q-70 0 -108.5 -30.5t-38.5 -80.5q0 -38 21 -64t52 -42.5
t85 -38.5q64 -26 103.5 -48.5t67 -61.5t27.5 -98q0 -97 -64 -150t-166 -53q-120 0 -209 80zM208 768l107 107l47 -50l-127 -86z" />
    <glyph glyph-name="sacute" unicode="&#x15b;" horiz-adv-x="440" 
d="M43 54l30 41q28 -27 64.5 -42.5t77.5 -15.5q51 0 86 23.5t35 61.5q0 25 -15.5 40.5t-39 24t-64.5 18.5q-47 11 -76.5 22.5t-50 34.5t-20.5 61q0 59 45.5 89t111.5 30q85 0 147 -56l-32 -40q-20 22 -51 35.5t-70 13.5q-47 0 -73.5 -19t-26.5 -49q0 -32 27.5 -46.5
t84.5 -28.5q49 -11 80 -23t52.5 -37t21.5 -66q0 -64 -49.5 -100t-125.5 -36q-99 0 -169 64zM172 568l98 140l48 -38l-120 -123z" />
    <glyph glyph-name="Scircumflex" unicode="&#x15c;" horiz-adv-x="551" 
d="M56 69l36 48q71 -74 179 -74q82 0 125 40.5t43 100.5q0 43 -23 73t-56.5 48.5t-90.5 42.5q-62 27 -98.5 47.5t-62 55.5t-25.5 87q0 76 55 123.5t149 47.5q55 0 102 -17t81 -48l-34 -41q-26 25 -64 39t-86 14q-70 0 -108.5 -30.5t-38.5 -80.5q0 -38 21 -64t52 -42.5
t85 -38.5q64 -26 103.5 -48.5t67 -61.5t27.5 -98q0 -97 -64 -150t-166 -53q-120 0 -209 80zM303 868l101 -103l-22 -26l-105 73l-102 -73l-23 26l102 103h49z" />
    <glyph glyph-name="scircumflex" unicode="&#x15d;" horiz-adv-x="440" 
d="M43 54l30 41q28 -27 64.5 -42.5t77.5 -15.5q51 0 86 23.5t35 61.5q0 25 -15.5 40.5t-39 24t-64.5 18.5q-47 11 -76.5 22.5t-50 34.5t-20.5 61q0 59 45.5 89t111.5 30q85 0 147 -56l-32 -40q-20 22 -51 35.5t-70 13.5q-47 0 -73.5 -19t-26.5 -49q0 -32 27.5 -46.5
t84.5 -28.5q49 -11 80 -23t52.5 -37t21.5 -66q0 -64 -49.5 -100t-125.5 -36q-99 0 -169 64zM256 678l101 -98l-20 -25l-112 75l-112 -75l-20 25l102 98h61z" />
    <glyph glyph-name="Scedilla" unicode="&#x15e;" horiz-adv-x="551" 
d="M285 -10v-51q45 -3 65 -25t20 -54q0 -40 -28.5 -61t-70.5 -21q-56 0 -80 36l23 25q22 -26 58 -26q24 0 38.5 13t14.5 35q0 44 -63 44h-20v85q-105 7 -186 79l36 48q71 -74 179 -74q82 0 125 40.5t43 100.5q0 43 -23 73t-56.5 48.5t-90.5 42.5q-62 27 -98.5 47.5t-62 55.5
t-25.5 87q0 76 55 123.5t149 47.5q55 0 102 -17t81 -48l-34 -41q-26 25 -64 39t-86 14q-70 0 -108.5 -30.5t-38.5 -80.5q0 -38 21 -64t52 -42.5t85 -38.5q64 -26 103.5 -48.5t67 -61.5t27.5 -98q0 -92 -58 -144.5t-152 -57.5z" />
    <glyph glyph-name="scedilla" unicode="&#x15f;" horiz-adv-x="440" 
d="M233 -9v-56q42 -3 64 -22.5t22 -50.5q0 -35 -26.5 -55t-68.5 -20q-25 0 -45 8t-32 21l21 28q20 -20 56 -20q50 0 50 37q0 40 -65 40h-10v89q-90 4 -156 64l30 41q28 -27 64.5 -42.5t77.5 -15.5q51 0 86 23.5t35 61.5q0 25 -15.5 40.5t-39 24t-64.5 18.5
q-47 11 -76.5 22.5t-50 34.5t-20.5 61q0 59 45.5 89t111.5 30q85 0 147 -56l-32 -40q-20 22 -51 35.5t-70 13.5q-47 0 -73.5 -19t-26.5 -49q0 -32 27.5 -46.5t84.5 -28.5q49 -11 80 -23t52.5 -37t21.5 -66q0 -59 -43 -94.5t-111 -40.5z" />
    <glyph glyph-name="Scaron" unicode="&#x160;" horiz-adv-x="551" 
d="M56 69l36 48q71 -74 179 -74q82 0 125 40.5t43 100.5q0 43 -23 73t-56.5 48.5t-90.5 42.5q-62 27 -98.5 47.5t-62 55.5t-25.5 87q0 76 55 123.5t149 47.5q55 0 102 -17t81 -48l-34 -41q-26 25 -64 39t-86 14q-70 0 -108.5 -30.5t-38.5 -80.5q0 -38 21 -64t52 -42.5
t85 -38.5q64 -26 103.5 -48.5t67 -61.5t27.5 -98q0 -97 -64 -150t-166 -53q-120 0 -209 80zM278 805l104 70l22 -26l-102 -97h-49l-101 97l23 26z" />
    <glyph glyph-name="scaron" unicode="&#x161;" horiz-adv-x="440" 
d="M43 54l30 41q28 -27 64.5 -42.5t77.5 -15.5q51 0 86 23.5t35 61.5q0 25 -15.5 40.5t-39 24t-64.5 18.5q-47 11 -76.5 22.5t-50 34.5t-20.5 61q0 59 45.5 89t111.5 30q85 0 147 -56l-32 -40q-20 22 -51 35.5t-70 13.5q-47 0 -73.5 -19t-26.5 -49q0 -32 27.5 -46.5
t84.5 -28.5q49 -11 80 -23t52.5 -37t21.5 -66q0 -64 -49.5 -100t-125.5 -36q-99 0 -169 64zM225 613l112 74l20 -24l-102 -99h-61l-101 99l20 24z" />
    <glyph glyph-name="uni0162" unicode="&#x162;" horiz-adv-x="468" 
d="M263 0h-10v-61q45 -3 65 -25t20 -54q0 -40 -28.5 -61t-70.5 -21q-56 0 -80 36l23 25q22 -26 58 -26q24 0 38.5 13t14.5 35q0 44 -63 44h-20v95h-5v647h-191v53h440v-53h-191v-647z" />
    <glyph glyph-name="uni0163" unicode="&#x163;" horiz-adv-x="286" 
d="M183 -65q42 -3 64 -22.5t22 -50.5q0 -35 -26.5 -55t-68.5 -20q-25 0 -45 8t-32 21l21 28q20 -20 56 -20q50 0 50 37q0 40 -65 40h-10v106q-58 28 -58 126v253h-75v47h75v145h52v-145h117v-47h-117v-247q0 -46 16 -72t63 -26q14 0 42 4v-45q-25 -5 -51 -5q-12 0 -30 2v-62
z" />
    <glyph glyph-name="Tcaron" unicode="&#x164;" horiz-adv-x="468" 
d="M263 0h-58v647h-191v53h440v-53h-191v-647zM234 805l104 70l22 -26l-102 -97h-49l-101 97l23 26z" />
    <glyph glyph-name="tcaron" unicode="&#x165;" horiz-adv-x="286" 
d="M264 45v-45q-25 -5 -51 -5q-60 0 -91 32t-31 106v253h-75v47h75v145h52v-145h117v-47h-117v-247q0 -46 16 -72t63 -26q14 0 42 4zM270 516l-35 -1v188l52 -3z" />
    <glyph glyph-name="Tbar" unicode="&#x166;" horiz-adv-x="468" 
d="M454 700v-53h-191v-246h191v-51h-191v-350h-58v350h-190v51h190v246h-191v53h440z" />
    <glyph glyph-name="tbar" unicode="&#x167;" horiz-adv-x="286" 
d="M264 386h-121v-129h121v-47h-121v-71q0 -46 16 -72t63 -26q14 0 42 4v-45q-25 -5 -51 -5q-60 0 -91 32t-31 106v77h-75v47h75v129h-75v47h75v145h52v-145h121v-47z" />
    <glyph glyph-name="Utilde" unicode="&#x168;" horiz-adv-x="701" 
d="M99 267v433h58v-430q0 -107 51.5 -167t142.5 -61q90 1 141.5 61t51.5 167v430h58v-433q0 -128 -66.5 -202.5t-184.5 -74.5q-78 0 -135 34t-87 97t-30 146zM327 781q-19 9 -28.5 12.5t-22.5 3.5q-36 0 -38 -40h-46q0 45 23 66.5t60 21.5q20 0 33.5 -5t29.5 -14
q18 -10 31 -14.5t33 -4.5q26 0 37.5 10t11.5 33h46q0 -44 -23 -68t-68 -24q-23 0 -41 6t-38 17z" />
    <glyph glyph-name="utilde" unicode="&#x169;" horiz-adv-x="506" 
d="M374 433h51v-433h-48v92q-18 -42 -57.5 -69.5t-96.5 -27.5q-71 0 -111 47.5t-40 148.5v242h52v-230q0 -85 25 -122.5t81 -37.5q69 0 106.5 48t37.5 119v223zM230 618q-16 9 -26.5 13.5t-22.5 4.5q-20 0 -29.5 -13t-10.5 -34h-44q0 45 23 68.5t61 23.5q20 0 34 -5.5
t31 -16.5q19 -11 31.5 -16.5t31.5 -5.5q26 0 36 13t10 39h44q0 -46 -21 -71.5t-66 -25.5q-24 0 -42 6.5t-40 19.5z" />
    <glyph glyph-name="Umacron" unicode="&#x16a;" horiz-adv-x="701" 
d="M99 267v433h58v-430q0 -107 51.5 -167t142.5 -61q90 1 141.5 61t51.5 167v430h58v-433q0 -128 -66.5 -202.5t-184.5 -74.5q-78 0 -135 34t-87 97t-30 146zM199 815h300v-45h-300v45z" />
    <glyph glyph-name="umacron" unicode="&#x16b;" horiz-adv-x="506" 
d="M374 433h51v-433h-48v92q-18 -42 -57.5 -69.5t-96.5 -27.5q-71 0 -111 47.5t-40 148.5v242h52v-230q0 -85 25 -122.5t81 -37.5q69 0 106.5 48t37.5 119v223zM114 627h268v-46h-268v46z" />
    <glyph glyph-name="Ubreve" unicode="&#x16c;" horiz-adv-x="701" 
d="M99 267v433h58v-430q0 -107 51.5 -167t142.5 -61q90 1 141.5 61t51.5 167v430h58v-433q0 -128 -66.5 -202.5t-184.5 -74.5q-78 0 -135 34t-87 97t-30 146zM222 849l34 16q15 -30 39.5 -47.5t53.5 -17.5q30 0 55 18t37 47l35 -16q-11 -47 -45 -74t-82 -27t-82 27t-45 74z
" />
    <glyph glyph-name="ubreve" unicode="&#x16d;" horiz-adv-x="506" 
d="M374 433h51v-433h-48v92q-18 -42 -57.5 -69.5t-96.5 -27.5q-71 0 -111 47.5t-40 148.5v242h52v-230q0 -85 25 -122.5t81 -37.5q69 0 106.5 48t37.5 119v223zM111 660l34 20q36 -69 103 -69q66 0 104 69l34 -20q-20 -45 -55 -70.5t-83 -25.5q-47 0 -82 25.5t-55 70.5z" />
    <glyph glyph-name="Uring" unicode="&#x16e;" horiz-adv-x="701" 
d="M99 267v433h58v-430q0 -107 51.5 -167t142.5 -61q90 1 141.5 61t51.5 167v430h58v-433q0 -128 -66.5 -202.5t-184.5 -74.5q-78 0 -135 34t-87 97t-30 146zM236 819q0 38 30 57.5t83 19.5q52 0 81.5 -19.5t29.5 -57.5t-29.5 -57.5t-81.5 -19.5q-53 0 -83 19.5t-30 57.5z
M413 819q0 38 -64 38q-66 0 -66 -38t66 -38q64 0 64 38z" />
    <glyph glyph-name="uring" unicode="&#x16f;" horiz-adv-x="506" 
d="M374 433h51v-433h-48v92q-18 -42 -57.5 -69.5t-96.5 -27.5q-71 0 -111 47.5t-40 148.5v242h52v-230q0 -85 25 -122.5t81 -37.5q69 0 106.5 48t37.5 119v223zM151 644q0 39 28 66t70 27q41 0 69 -27t28 -66q0 -40 -28 -67.5t-69 -27.5q-43 0 -70.5 27t-27.5 68zM301 644
q0 26 -13.5 40.5t-38.5 14.5t-39.5 -15t-14.5 -40q0 -26 14.5 -41t39.5 -15q24 0 38 15t14 41z" />
    <glyph glyph-name="Uhungarumlaut" unicode="&#x170;" horiz-adv-x="701" 
d="M99 267v433h58v-430q0 -107 51.5 -167t142.5 -61q90 1 141.5 61t51.5 167v430h58v-433q0 -128 -66.5 -202.5t-184.5 -74.5q-78 0 -135 34t-87 97t-30 146zM233 761l72 104l50 -50l-92 -75zM391 763l81 98l44 -53l-98 -68z" />
    <glyph glyph-name="uhungarumlaut" unicode="&#x171;" horiz-adv-x="506" 
d="M374 433h51v-433h-48v92q-18 -42 -57.5 -69.5t-96.5 -27.5q-71 0 -111 47.5t-40 148.5v242h52v-230q0 -85 25 -122.5t81 -37.5q69 0 106.5 48t37.5 119v223zM147 565l82 149l52 -32l-105 -135zM286 568l98 140l49 -38l-120 -123z" />
    <glyph glyph-name="Uogonek" unicode="&#x172;" horiz-adv-x="699" 
d="M602 700v-433q0 -114 -54 -187v-3q-62 -84 -86 -128.5t-24 -84.5q0 -29 14 -42.5t45 -13.5q27 0 51 7v-37q-21 -13 -63 -13q-49 0 -75.5 22.5t-26.5 63.5q0 59 68 156q-45 -17 -100 -17q-78 0 -135 34t-87 97t-30 146v433h58v-430q0 -107 51.5 -167t142.5 -61
q90 1 141.5 61t51.5 167v430h58z" />
    <glyph glyph-name="uogonek" unicode="&#x173;" horiz-adv-x="506" 
d="M426 -194v-35q-25 -13 -56 -13q-48 0 -75 28t-27 68t28 79.5t81 73.5v85q-18 -42 -57.5 -69.5t-96.5 -27.5q-71 0 -111 47.5t-40 148.5v242h52v-230q0 -85 25 -122.5t81 -37.5q69 0 106.5 48t37.5 119v223h51v-433q-114 -69 -114 -137q0 -28 18.5 -47.5t50.5 -19.5
q19 0 46 10z" />
    <glyph glyph-name="Wcircumflex" unicode="&#x174;" horiz-adv-x="872" 
d="M634 142l154 558h51v-20l-196 -692h-12l-198 577l-198 -577h-13l-189 692v20h54l150 -558l193 561h11zM460 868l101 -103l-22 -26l-105 73l-102 -73l-23 26l102 103h49z" />
    <glyph glyph-name="wcircumflex" unicode="&#x175;" horiz-adv-x="598" 
d="M426 115l95 318h47v-4l-132 -434h-16l-120 327l-118 -327h-19l-133 434v4h52l98 -318l114 318h17zM331 678l101 -98l-20 -25l-112 75l-112 -75l-20 25l102 98h61z" />
    <glyph glyph-name="Ycircumflex" unicode="&#x176;" horiz-adv-x="541" 
d="M468 700h53v-20l-216 -358v-322h-58v321l-227 359v20h56l202 -322zM299 868l101 -103l-22 -26l-105 73l-102 -73l-23 26l102 103h49z" />
    <glyph glyph-name="ycircumflex" unicode="&#x177;" horiz-adv-x="430" 
d="M223 80l136 353h51v-4l-258 -669h-49v8l94 243l-180 418v4h55zM245 678l101 -98l-20 -25l-112 75l-112 -75l-20 25l102 98h61z" />
    <glyph glyph-name="Ydieresis" unicode="&#x178;" horiz-adv-x="541" 
d="M468 700h53v-20l-216 -358v-322h-58v321l-227 359v20h56l202 -322zM131 805q0 18 12 29t31 11q17 0 28.5 -11t11.5 -29t-11.5 -29.5t-28.5 -11.5q-19 0 -31 11.5t-12 29.5zM335 805q0 18 12 29t30 11q17 0 28.5 -11t11.5 -29t-11.5 -29.5t-28.5 -11.5q-18 0 -30 11.5
t-12 29.5z" />
    <glyph glyph-name="Zacute" unicode="&#x179;" horiz-adv-x="539" 
d="M42 700h466v-26l-407 -621h398v-53h-473v34l403 613h-387v53zM204 768l107 107l47 -50l-127 -86z" />
    <glyph glyph-name="zacute" unicode="&#x17a;" horiz-adv-x="416" 
d="M379 0h-338v26l268 360h-266v47h339v-25l-268 -361h265v-47zM157 568l98 140l48 -38l-120 -123z" />
    <glyph glyph-name="Zdotaccent" unicode="&#x17b;" horiz-adv-x="539" 
d="M42 700h466v-26l-407 -621h398v-53h-473v34l403 613h-387v53zM231 805q0 18 12 29t31 11q17 0 28.5 -11t11.5 -29t-11.5 -29.5t-28.5 -11.5q-19 0 -31 11.5t-12 29.5z" />
    <glyph glyph-name="zdotaccent" unicode="&#x17c;" horiz-adv-x="416" 
d="M379 0h-338v26l268 360h-266v47h339v-25l-268 -361h265v-47zM172 587q0 16 11.5 26.5t28.5 10.5t28 -10.5t11 -26.5t-11.5 -27t-27.5 -11q-17 0 -28.5 11t-11.5 27z" />
    <glyph glyph-name="Zcaron" unicode="&#x17d;" horiz-adv-x="539" 
d="M42 700h466v-26l-407 -621h398v-53h-473v34l403 613h-387v53zM274 805l104 70l22 -26l-102 -97h-49l-101 97l23 26z" />
    <glyph glyph-name="zcaron" unicode="&#x17e;" horiz-adv-x="416" 
d="M379 0h-338v26l268 360h-266v47h339v-25l-268 -361h265v-47zM211 613l112 74l20 -24l-102 -99h-61l-101 99l20 24z" />
    <glyph glyph-name="uni018F" unicode="&#x18f;" horiz-adv-x="788" 
d="M737 345q0 -102 -42.5 -183t-122 -127t-185.5 -46q-97 0 -173 39t-119.5 118.5t-43.5 196.5v50h625q-9 78 -46 137.5t-100 92.5t-147 33q-60 0 -119 -19t-103 -65l-37 42q51 51 121 74t143 23q112 0 191 -50t118.5 -133.5t39.5 -182.5zM679 341h-569v-4q0 -90 34 -156.5
t96 -101.5t146 -35q88 0 154 37t102 104.5t37 155.5z" />
    <glyph glyph-name="uni01DD" unicode="&#x1dd;" horiz-adv-x="486" 
d="M441 217q0 -102 -57 -163.5t-155 -61.5q-93 0 -145 58.5t-52 160.5v25h357q-4 75 -48 116.5t-114 41.5q-41 0 -75 -15t-67 -44l-26 40q69 66 167 66t156.5 -59t58.5 -165zM388 190h-305q4 -71 44.5 -111t103.5 -40q65 0 107 41t50 110z" />
    <glyph glyph-name="uni0218" unicode="&#x218;" horiz-adv-x="551" 
d="M56 69l36 48q71 -74 179 -74q82 0 125 40.5t43 100.5q0 43 -23 73t-56.5 48.5t-90.5 42.5q-62 27 -98.5 47.5t-62 55.5t-25.5 87q0 76 55 123.5t149 47.5q55 0 102 -17t81 -48l-34 -41q-26 25 -64 39t-86 14q-70 0 -108.5 -30.5t-38.5 -80.5q0 -38 21 -64t52 -42.5
t85 -38.5q64 -26 103.5 -48.5t67 -61.5t27.5 -98q0 -97 -64 -150t-166 -53q-120 0 -209 80zM260 -112q-17 3 -27 12.5t-10 22.5q0 15 13 24.5t29 9.5q21 0 33 -12t12 -33q0 -13 -9 -30t-37 -61l-35 -55h-46z" />
    <glyph glyph-name="uni0219" unicode="&#x219;" horiz-adv-x="440" 
d="M43 54l30 41q28 -27 64.5 -42.5t77.5 -15.5q51 0 86 23.5t35 61.5q0 25 -15.5 40.5t-39 24t-64.5 18.5q-47 11 -76.5 22.5t-50 34.5t-20.5 61q0 59 45.5 89t111.5 30q85 0 147 -56l-32 -40q-20 22 -51 35.5t-70 13.5q-47 0 -73.5 -19t-26.5 -49q0 -32 27.5 -46.5
t84.5 -28.5q49 -11 80 -23t52.5 -37t21.5 -66q0 -64 -49.5 -100t-125.5 -36q-99 0 -169 64zM265 -86q0 -11 -7.5 -25.5t-19 -33.5t-15.5 -26l-34 -52h-44l72 115q-17 1 -26 10t-9 23t12.5 23t27.5 9q19 0 31 -12t12 -31z" />
    <glyph glyph-name="uni021A" unicode="&#x21a;" horiz-adv-x="468" 
d="M263 0h-58v647h-191v53h440v-53h-191v-647zM228 -112q-17 3 -27 12.5t-10 22.5q0 15 13 24.5t29 9.5q21 0 33 -12t12 -33q0 -13 -9 -30t-37 -61l-35 -55h-46z" />
    <glyph glyph-name="uni021B" unicode="&#x21b;" horiz-adv-x="286" 
d="M264 45v-45q-25 -5 -51 -5q-60 0 -91 32t-31 106v253h-75v47h75v145h52v-145h117v-47h-117v-247q0 -46 16 -72t63 -26q14 0 42 4zM215 -86q0 -11 -7.5 -25.5t-19 -33.5t-15.5 -26l-34 -52h-44l72 115q-17 1 -26 10t-9 23t12.5 23t27.5 9q19 0 31 -12t12 -31z" />
    <glyph glyph-name="uni0237" unicode="&#x237;" horiz-adv-x="229" 
d="M1 -242v47q4 -1 13 -1q45 0 64 28.5t19 88.5v512h51v-518q0 -79 -31 -118t-101 -39h-15z" />
    <glyph glyph-name="uni0259" unicode="&#x259;" horiz-adv-x="486" 
d="M441 217q0 -102 -57 -163.5t-155 -61.5q-93 0 -145 58.5t-52 160.5v25h357q-4 75 -48 116.5t-114 41.5q-41 0 -75 -15t-67 -44l-26 40q69 66 167 66t156.5 -59t58.5 -165zM388 190h-305q4 -71 44.5 -111t103.5 -40q65 0 107 41t50 110z" />
    <glyph glyph-name="uni02BC" unicode="&#x2bc;" horiz-adv-x="156" 
d="M125 614q0 -14 -8.5 -32.5t-27.5 -51.5l-29 -51h-40l64 110q-15 1 -23.5 10t-8.5 21q0 15 11 24.5t25 9.5q16 0 26.5 -11.5t10.5 -28.5z" />
    <glyph glyph-name="circumflex" unicode="&#x2c6;" horiz-adv-x="292" 
d="M189 673l93 -96l-25 -29l-111 74l-112 -74l-24 29l93 96h86z" />
    <glyph glyph-name="caron" unicode="&#x2c7;" horiz-adv-x="292" 
d="M146 615l112 74l24 -29l-93 -96h-86l-93 96l24 29z" />
    <glyph glyph-name="breve" unicode="&#x2d8;" horiz-adv-x="310" 
d="M10 658l42 22q17 -29 44.5 -48t58.5 -19t59 18.5t44 48.5l42 -22q-20 -46 -57.5 -72.5t-87.5 -26.5q-51 0 -88.5 26.5t-56.5 72.5z" />
    <glyph glyph-name="dotaccent" unicode="&#x2d9;" horiz-adv-x="91" 
d="M10 587q0 15 10.5 24t25.5 9t25 -9t10 -24q0 -14 -10 -24t-25 -10t-25.5 10t-10.5 24z" />
    <glyph glyph-name="ring" unicode="&#x2da;" horiz-adv-x="215" 
d="M10 644q0 39 28 66t70 27q41 0 69 -27t28 -66q0 -40 -28 -67.5t-69 -27.5q-43 0 -70.5 27t-27.5 68zM160 644q0 26 -13.5 40.5t-38.5 14.5t-39.5 -15t-14.5 -40q0 -26 14.5 -41t39.5 -15q24 0 38 15t14 41z" />
    <glyph glyph-name="ogonek" unicode="&#x2db;" horiz-adv-x="178" 
d="M10 -146q0 47 35 92t99 80l23 -26q-107 -66 -107 -131q0 -28 19 -49.5t52 -21.5q17 0 37 6v-33q-27 -13 -56 -13q-50 0 -76 27.5t-26 68.5z" />
    <glyph glyph-name="tilde" unicode="&#x2dc;" horiz-adv-x="325" 
d="M146 617q-3 2 -14 8t-20 9t-17 3q-19 0 -29 -13.5t-11 -35.5h-45q0 52 22.5 76.5t58.5 24.5q20 0 34 -6.5t33 -18.5q18 -12 31.5 -18t32.5 -6q48 0 48 49h45q0 -48 -22.5 -74.5t-63.5 -26.5q-24 0 -42.5 7.5t-40.5 21.5z" />
    <glyph glyph-name="hungarumlaut" unicode="&#x2dd;" horiz-adv-x="331" 
d="M10 562l71 165l59 -25l-96 -155zM165 570l107 143l49 -38l-127 -128z" />
    <glyph glyph-name="gravecomb" unicode="&#x300;" 
d="M-156 670l49 38l97 -140l-26 -21z" />
    <glyph glyph-name="acutecomb" unicode="&#x301;" 
d="M-156 568l98 140l48 -38l-120 -123z" />
    <glyph glyph-name="uni0302" unicode="&#x302;" 
d="M-111 678l101 -98l-20 -25l-112 75l-112 -75l-20 25l102 98h61z" />
    <glyph glyph-name="tildecomb" unicode="&#x303;" 
d="M-179 618q-16 9 -26.5 13.5t-22.5 4.5q-20 0 -29.5 -13t-10.5 -34h-44q0 45 23 68.5t61 23.5q20 0 34 -5.5t31 -16.5q19 -11 31.5 -16.5t31.5 -5.5q26 0 36 13t10 39h44q0 -46 -21 -71.5t-66 -25.5q-24 0 -42 6.5t-40 19.5z" />
    <glyph glyph-name="uni0304" unicode="&#x304;" 
d="M-278 627h268v-46h-268v46z" />
    <glyph glyph-name="uni0306" unicode="&#x306;" 
d="M-285 660l34 20q36 -69 103 -69q66 0 104 69l34 -20q-20 -45 -55 -70.5t-83 -25.5q-47 0 -82 25.5t-55 70.5z" />
    <glyph glyph-name="uni0307" unicode="&#x307;" 
d="M-89 587q0 16 11.5 26.5t28.5 10.5t28 -10.5t11 -26.5t-11.5 -27t-27.5 -11q-17 0 -28.5 11t-11.5 27z" />
    <glyph glyph-name="uni0308" unicode="&#x308;" 
d="M-294 600q0 16 11 26t28 10q16 0 26.5 -10t10.5 -26t-10.5 -26.5t-26.5 -10.5q-17 0 -28 10.5t-11 26.5zM-86 600q0 16 11 26t28 10q16 0 26.5 -10t10.5 -26t-10.5 -26.5t-26.5 -10.5q-17 0 -28 10.5t-11 26.5z" />
    <glyph glyph-name="uni030A" unicode="&#x30a;" 
d="M-205 644q0 39 28 66t70 27q41 0 69 -27t28 -66q0 -40 -28 -67.5t-69 -27.5q-43 0 -70.5 27t-27.5 68zM-55 644q0 26 -13.5 40.5t-38.5 14.5t-39.5 -15t-14.5 -40q0 -26 14.5 -41t39.5 -15q24 0 38 15t14 41z" />
    <glyph glyph-name="uni030B" unicode="&#x30b;" 
d="M-296 565l82 149l52 -32l-105 -135zM-157 568l98 140l49 -38l-120 -123z" />
    <glyph glyph-name="uni030C" unicode="&#x30c;" 
d="M-142 613l112 74l20 -24l-102 -99h-61l-101 99l20 24z" />
    <glyph glyph-name="uni0312" unicode="&#x312;" 
d="M-87 620q18 -1 28 -11.5t10 -25.5q0 -17 -13 -27.5t-30 -10.5q-21 0 -33 13t-12 36q0 14 10 35t33 61l36 59h48z" />
    <glyph glyph-name="uni0326" unicode="&#x326;" 
d="M-10 -86q0 -11 -7.5 -25.5t-19 -33.5t-15.5 -26l-34 -52h-44l72 115q-17 1 -26 10t-9 23t12.5 23t27.5 9q19 0 31 -12t12 -31z" />
    <glyph glyph-name="uni0327" unicode="&#x327;" 
d="M-96 -65q42 -3 64 -22.5t22 -50.5q0 -35 -26.5 -55t-68.5 -20q-25 0 -45 8t-32 21l21 28q20 -20 56 -20q50 0 50 37q0 40 -65 40h-10v109h34v-75z" />
    <glyph glyph-name="uni0328" unicode="&#x328;" 
d="M-168 -146q0 45 35 89t99 79h23v-22q-114 -69 -114 -137q0 -28 18.5 -47.5t50.5 -19.5q19 0 46 10v-35q-25 -13 -56 -13q-48 0 -75 28t-27 68z" />
    <glyph glyph-name="uni0335" unicode="&#x335;" 
d="M-276 260h327v-48h-327v48z" />
    <glyph glyph-name="uni03BC" unicode="&#x3bc;" horiz-adv-x="519" 
d="M83 -240v673h51v-244q0 -73 28.5 -109.5t87.5 -36.5q70 0 102.5 47.5t32.5 132.5v210h53v-433h-50v114q-30 -120 -146 -120q-36 0 -61.5 12t-46.5 38v-284h-51z" />
    <glyph glyph-name="pi" unicode="&#x3c0;" horiz-adv-x="532" 
d="M516 386h-83v-256q0 -51 11 -69t42 -18h25v-46h-30q-54 0 -76.5 26.5t-22.5 88.5v274h-229v-386h-52v386h-85v47h500v-47z" />
    <glyph glyph-name="uni0400" unicode="&#x400;" horiz-adv-x="550" 
d="M475 0h-365v700h355v-53h-297v-243h247v-53h-247v-298h307v-53zM167 825l47 49l107 -107l-27 -29z" />
    <glyph glyph-name="uni0401" unicode="&#x401;" horiz-adv-x="550" 
d="M475 0h-365v700h355v-53h-297v-243h247v-53h-247v-298h307v-53zM149 805q0 18 12 29t31 11q17 0 28.5 -11t11.5 -29t-11.5 -29.5t-28.5 -11.5q-19 0 -31 11.5t-12 29.5zM353 805q0 18 12 29t30 11q17 0 28.5 -11t11.5 -29t-11.5 -29.5t-28.5 -11.5q-18 0 -30 11.5
t-12 29.5z" />
    <glyph glyph-name="uni0402" unicode="&#x402;" horiz-adv-x="702" 
d="M658 166v-4q0 -122 -53 -189.5t-164 -67.5q-32 0 -55 5.5t-45 16.5l17 45q38 -15 81 -15q81 0 120.5 52t39.5 147v2q0 202 -184 202q-73 0 -151 -31v-329h-58v647h-192v53h527v-53h-277v-266q82 31 156 31q117 0 177.5 -63t60.5 -183z" />
    <glyph glyph-name="uni0403" unicode="&#x403;" horiz-adv-x="451" 
d="M168 0h-58v700h327v-53h-269v-647zM211 768l107 107l47 -50l-127 -86z" />
    <glyph glyph-name="uni0404" unicode="&#x404;" horiz-adv-x="675" 
d="M657 66q-89 -76 -227 -76q-112 0 -198.5 46t-134.5 128t-48 186q0 103 48 185t133.5 128.5t194.5 46.5q127 0 222 -64l-29 -48q-79 57 -184 57q-87 0 -156 -33t-111.5 -91.5t-53.5 -131.5h391v-53h-395q1 -86 44 -154.5t117 -107.5t165 -39q112 0 193 64z" />
    <glyph glyph-name="uni0405" unicode="&#x405;" horiz-adv-x="551" 
d="M56 69l36 48q71 -74 179 -74q82 0 125 40.5t43 100.5q0 43 -23 73t-56.5 48.5t-90.5 42.5q-62 27 -98.5 47.5t-62 55.5t-25.5 87q0 76 55 123.5t149 47.5q55 0 102 -17t81 -48l-34 -41q-26 25 -64 39t-86 14q-70 0 -108.5 -30.5t-38.5 -80.5q0 -38 21 -64t52 -42.5
t85 -38.5q64 -26 103.5 -48.5t67 -61.5t27.5 -98q0 -97 -64 -150t-166 -53q-120 0 -209 80z" />
    <glyph glyph-name="uni0406" unicode="&#x406;" horiz-adv-x="278" 
d="M110 700h58v-700h-58v700z" />
    <glyph glyph-name="uni0407" unicode="&#x407;" horiz-adv-x="278" 
d="M41 798q0 16 12 27.5t27 11.5t26.5 -11.5t11.5 -27.5t-12 -28t-26 -12q-15 0 -27 12t-12 28zM160 798q0 16 11.5 27.5t27.5 11.5q14 0 26 -12t12 -27t-12 -27.5t-26 -12.5q-16 0 -27.5 12t-11.5 28zM110 700h58v-700h-58v700z" />
    <glyph glyph-name="uni0408" unicode="&#x408;" horiz-adv-x="335" 
d="M21 1v51q18 -6 42 -6q60 0 87.5 32t27.5 100v522h58v-529q0 -89 -44 -132.5t-125 -43.5q-26 0 -46 6z" />
    <glyph glyph-name="uni0409" unicode="&#x409;" horiz-adv-x="914" 
d="M22 -2v57q15 -6 30 -6q51 0 83 91.5t32 335.5v224h373v-275h104q68 0 119.5 -29t79 -77t27.5 -105q0 -56 -28 -105t-79.5 -79t-118.5 -30h-162v649h-261v-201q0 -456 -164 -456q-21 0 -35 6zM637 53q54 0 93 21.5t59.5 58t20.5 80.5t-20.5 80.5t-60 57.5t-92.5 21h-97
v-319h97z" />
    <glyph glyph-name="uni040A" unicode="&#x40a;" horiz-adv-x="938" 
d="M110 0v700h58v-301h339v301h58v-301h112q66 0 115 -25.5t75 -69.5t26 -97q0 -55 -26.5 -102.5t-75.5 -76t-114 -28.5h-170v347h-339v-347h-58zM669 53q77 0 121 43.5t44 107.5q0 63 -44 103t-120 40h-105v-294h104z" />
    <glyph glyph-name="uni040B" unicode="&#x40b;" horiz-adv-x="704" 
d="M639 0h-58l-1 218q0 143 -161 143q-81 0 -155 -35v-326h-58v647h-192v53h527v-53h-277v-266q80 35 159 35q100 0 157.5 -47t57.5 -134z" />
    <glyph glyph-name="uni040C" unicode="&#x40c;" horiz-adv-x="616" 
d="M512 680l-252 -307l336 -353v-20h-61l-325 343h-42v-343h-58v700h58v-307h44l247 307h53v-20zM220 768l107 107l47 -50l-127 -86z" />
    <glyph glyph-name="uni040E" unicode="&#x40e;" horiz-adv-x="616" 
d="M545 700h49v-20l-250 -571q-28 -64 -61.5 -90.5t-77.5 -26.5q-16 0 -34 3v55q21 -3 32 -3q31 0 53.5 19t39.5 58l9 20l-281 536v20h55l255 -488zM170 860h54q15 -69 94 -69q45 0 68.5 19t29.5 50h48q-2 -49 -42 -81.5t-104 -32.5q-56 0 -99 26.5t-49 87.5z" />
    <glyph glyph-name="uni040F" unicode="&#x40f;" horiz-adv-x="703" 
d="M377 -125h-53v125h-214v700h58v-646h367v646h58v-700h-216v-125z" />
    <glyph glyph-name="uni0410" unicode="&#x410;" horiz-adv-x="617" 
d="M606 0h-60l-87 214h-304l-86 -214h-58l289 712h15zM306 593l-131 -327h263z" />
    <glyph glyph-name="uni0411" unicode="&#x411;" horiz-adv-x="561" 
d="M110 0v700h335v-53h-277v-240h73q133 0 199 -53.5t66 -148.5t-66.5 -150t-198.5 -55h-131zM235 53q107 0 159.5 39.5t52.5 112.5q0 68 -50 108.5t-158 40.5h-71v-301h67z" />
    <glyph glyph-name="uni0412" unicode="&#x412;" horiz-adv-x="573" 
d="M520 208q0 -61 -31.5 -108t-88 -73.5t-127.5 -26.5h-163v700h166q88 0 139.5 -42t51.5 -116q0 -59 -32.5 -97.5t-81.5 -57.5q75 -13 121 -59.5t46 -119.5zM254 647h-86v-243h73q78 0 123 33.5t45 95.5q0 114 -155 114zM259 53q98 0 150.5 42t52.5 112q0 74 -54 110.5
t-140 36.5h-100v-301h91z" />
    <glyph glyph-name="uni0413" unicode="&#x413;" horiz-adv-x="451" 
d="M168 0h-58v700h327v-53h-269v-647z" />
    <glyph glyph-name="uni0414" unicode="&#x414;" horiz-adv-x="702" 
d="M557 53h103v-178h-52v125h-533v-125h-52v178h69q84 193 84 526v121h381v-647zM231 576q0 -322 -80 -523h348v594h-268v-71z" />
    <glyph glyph-name="uni0415" unicode="&#x415;" horiz-adv-x="550" 
d="M475 0h-365v700h355v-53h-297v-243h247v-53h-247v-298h307v-53z" />
    <glyph glyph-name="uni0416" unicode="&#x416;" horiz-adv-x="820" 
d="M739 690l-197 -319l258 -361v-10h-63l-240 344h-58v-344h-58v344h-58l-240 -344h-63v10l258 361l-197 319v10h56l186 -307h58v307h58v-307h58l186 307h56v-10z" />
    <glyph glyph-name="uni0417" unicode="&#x417;" horiz-adv-x="531" 
d="M478 202q0 -58 -29 -106.5t-84.5 -77t-132.5 -28.5q-139 0 -221 101l38 40q31 -42 73.5 -66t109.5 -24q90 0 139 43t49 114q0 68 -47 110.5t-140 42.5h-63v52h50q71 0 118 37.5t47 100.5q0 57 -40 87.5t-114 30.5q-96 0 -152 -60l-33 39q30 32 78 52t113 20q66 0 112 -22
t69.5 -59.5t23.5 -83.5q0 -54 -31.5 -97t-96.5 -65q72 -12 118 -58.5t46 -122.5z" />
    <glyph glyph-name="uni0418" unicode="&#x418;" horiz-adv-x="756" 
d="M168 111l445 589h33v-700h-58v585l-442 -585h-36v701h58v-590z" />
    <glyph glyph-name="uni0419" unicode="&#x419;" horiz-adv-x="756" 
d="M168 111l445 589h33v-700h-58v585l-442 -585h-36v701h58v-590zM226 860h54q15 -69 94 -69q45 0 68.5 19t29.5 50h48q-2 -49 -42 -81.5t-104 -32.5q-56 0 -99 26.5t-49 87.5z" />
    <glyph glyph-name="uni041A" unicode="&#x41a;" horiz-adv-x="616" 
d="M512 680l-252 -307l336 -353v-20h-61l-325 343h-42v-343h-58v700h58v-307h44l247 307h53v-20z" />
    <glyph glyph-name="uni041B" unicode="&#x41b;" horiz-adv-x="664" 
d="M22 -2v57q15 -6 30 -6q51 0 83 91.5t32 335.5v224h387v-700h-58v649h-275v-201q0 -456 -164 -456q-21 0 -35 6z" />
    <glyph glyph-name="uni041C" unicode="&#x41c;" horiz-adv-x="894" 
d="M717 700l101 -700h-56l-80 539l-235 -539h-10l-237 532l-71 -532h-54l92 700h18l261 -581l254 581h17z" />
    <glyph glyph-name="uni041D" unicode="&#x41d;" horiz-adv-x="736" 
d="M568 404v296h58v-700h-58v351h-400v-351h-58v700h58v-296h400z" />
    <glyph glyph-name="uni041E" unicode="&#x41e;" horiz-adv-x="806" 
d="M49 351q0 101 46 183t127 129t181 47q101 0 181.5 -47.5t126.5 -130t46 -184.5q0 -100 -46 -182.5t-126.5 -129.5t-181.5 -47q-100 0 -181 47.5t-127 130.5t-46 184zM697 350q0 86 -38.5 155.5t-106 109.5t-149.5 40t-149.5 -40t-106 -109.5t-38.5 -155.5t38.5 -156
t106 -110t149.5 -40t149.5 40t106 110t38.5 156z" />
    <glyph glyph-name="uni041F" unicode="&#x41f;" horiz-adv-x="716" 
d="M110 0v700h496v-700h-58v647h-380v-647h-58z" />
    <glyph glyph-name="uni0420" unicode="&#x420;" horiz-adv-x="556" 
d="M297 700q63 0 112 -27.5t76 -73t27 -98.5t-27 -99.5t-75.5 -74.5t-110.5 -28h-131v-299h-58v700h187zM290 351q74 0 118 42.5t44 106.5t-43.5 105.5t-118.5 41.5h-122v-296h122z" />
    <glyph glyph-name="uni0421" unicode="&#x421;" horiz-adv-x="675" 
d="M49 350q0 103 48 185t133.5 128.5t194.5 46.5q127 0 222 -64l-29 -48q-79 57 -184 57q-97 0 -170.5 -40.5t-114 -110t-40.5 -154.5q0 -87 43 -156.5t117.5 -109t165.5 -39.5q112 0 193 64l29 -43q-89 -76 -227 -76q-112 0 -198.5 46t-134.5 128t-48 186z" />
    <glyph glyph-name="uni0422" unicode="&#x422;" horiz-adv-x="468" 
d="M263 0h-58v647h-191v53h440v-53h-191v-647z" />
    <glyph glyph-name="uni0423" unicode="&#x423;" horiz-adv-x="616" 
d="M545 700h49v-20l-250 -571q-28 -64 -61.5 -90.5t-77.5 -26.5q-16 0 -34 3v55q21 -3 32 -3q31 0 53.5 19t39.5 58l9 20l-281 536v20h55l255 -488z" />
    <glyph glyph-name="uni0424" unicode="&#x424;" horiz-adv-x="836" 
d="M450 678q95 0 172 -41.5t121 -114.5t44 -164q0 -89 -40.5 -162.5t-117.5 -116.5t-181 -43h-1v-70h-58v70h-2q-95 0 -172.5 41.5t-121.5 114.5t-44 164q0 89 40.5 162.5t117.5 116.5t182 43v58h58v-58h3zM389 87v540h-3q-91 0 -153.5 -38t-93 -99.5t-30.5 -133.5
q0 -79 37.5 -140t101.5 -95t140 -34h1zM451 87q91 0 153 37.5t92.5 99.5t30.5 134q0 79 -37 140t-101 95t-140 34h-2v-540h4z" />
    <glyph glyph-name="uni0425" unicode="&#x425;" horiz-adv-x="594" 
d="M518 680l-195 -299l231 -361v-20h-58l-206 330l-198 -330h-52v20l218 356l-197 304v20h57l176 -276l171 276h53v-20z" />
    <glyph glyph-name="uni0426" unicode="&#x426;" horiz-adv-x="739" 
d="M696 -125h-52v125h-534v700h58v-647h367v647h58v-647h103v-178z" />
    <glyph glyph-name="uni0427" unicode="&#x427;" horiz-adv-x="615" 
d="M447 700h58v-700h-58v305q-73 -19 -169 -19q-107 0 -159.5 39.5t-52.5 135.5v239h58v-231q0 -49 14 -77t48 -41t97 -13q80 0 164 19v343z" />
    <glyph glyph-name="uni0428" unicode="&#x428;" horiz-adv-x="940" 
d="M830 0h-720v700h58v-647h273v647h58v-647h273v647h58v-700z" />
    <glyph glyph-name="uni0429" unicode="&#x429;" horiz-adv-x="976" 
d="M933 -125h-52v125h-771v700h58v-647h273v647h58v-647h273v647h58v-647h103v-178z" />
    <glyph glyph-name="uni042A" unicode="&#x42a;" horiz-adv-x="609" 
d="M338 425q70 0 121.5 -29t78.5 -77t27 -105q0 -56 -27 -105t-78.5 -79t-121.5 -30h-167v647h-157v53h215v-275h109zM332 53q82 0 127.5 45.5t45.5 114.5t-45.5 114.5t-127.5 45.5h-103v-320h103z" />
    <glyph glyph-name="uni042B" unicode="&#x42b;" horiz-adv-x="782" 
d="M110 0v700h58v-275h100q68 0 119.5 -29t79 -77t27.5 -105q0 -56 -28 -105t-79.5 -79t-118.5 -30h-158zM672 0h-58v700h58v-700zM260 53q54 0 93.5 21.5t60 58t20.5 80.5t-21 80.5t-60 57.5t-92 21h-93v-319h92z" />
    <glyph glyph-name="uni042C" unicode="&#x42c;" horiz-adv-x="548" 
d="M110 0v700h58v-275h109q70 0 121.5 -29t78.5 -77t27 -105q0 -56 -27 -105t-78.5 -79t-121.5 -30h-167zM271 53q82 0 127.5 45.5t45.5 114.5t-45.5 114.5t-127.5 45.5h-103v-320h103z" />
    <glyph glyph-name="uni042D" unicode="&#x42d;" horiz-adv-x="656" 
d="M607 353q0 -104 -49.5 -186.5t-137 -129.5t-196.5 -47q-121 0 -213 64l26 47q73 -58 184 -58q92 0 166.5 40.5t116.5 110.5t42 156v3h-374v52h370q-11 73 -51.5 130t-104 89t-142.5 32q-113 0 -194 -71l-29 45q35 35 92.5 57t133.5 22q106 0 188 -45.5t127 -126.5
t45 -184z" />
    <glyph glyph-name="uni042E" unicode="&#x42e;" horiz-adv-x="1067" 
d="M1016 349q0 -101 -41 -182t-120.5 -128.5t-190.5 -47.5q-105 0 -184.5 44.5t-123 125.5t-43.5 188h-145v-349h-58v700h58v-299h148q10 89 53.5 158.5t117.5 109.5t172 40q103 0 184.5 -45t127 -126.5t45.5 -188.5zM958 350q0 84 -36.5 153.5t-104.5 110.5t-159 41
q-90 0 -154.5 -39t-98 -108t-33.5 -160q0 -83 35.5 -152.5t103 -110t157.5 -40.5t155.5 39t100 108t34.5 158z" />
    <glyph glyph-name="uni042F" unicode="&#x42f;" horiz-adv-x="540" 
d="M430 700v-700h-58v294h-106h-16l-183 -294h-56v21l180 283q-68 21 -106.5 72t-38.5 115q0 56 26.5 104t76 76.5t113.5 28.5h168zM372 347v300h-100q-78 0 -122.5 -43.5t-44.5 -107.5q0 -41 20 -75t57.5 -54t88.5 -20h101z" />
    <glyph glyph-name="uni0430" unicode="&#x430;" horiz-adv-x="550" 
d="M420 433h49v-433h-49v94q-23 -47 -66 -74.5t-100 -27.5q-55 0 -103 27t-77 78t-29 120q0 68 28.5 118.5t77 78t107.5 27.5q58 0 99.5 -25t62.5 -65v82zM418 213v11q0 43 -18.5 81.5t-55 62t-87.5 23.5q-71 0 -115 -46.5t-44 -126.5q0 -78 43 -126.5t114 -48.5q51 0 88 25
t56 64.5t19 80.5z" />
    <glyph glyph-name="uni0431" unicode="&#x431;" horiz-adv-x="522" 
d="M478 215q0 -67 -28 -117.5t-77 -78t-110 -27.5q-118 0 -168 81.5t-50 247.5q0 197 71 274.5t187 81.5q48 2 69.5 9t37.5 29l35 -32q-15 -29 -48.5 -42t-89.5 -15q-68 -2 -111 -24.5t-69.5 -86t-32.5 -182.5q26 53 71.5 79.5t104.5 26.5q63 0 110 -29.5t72.5 -80.5
t25.5 -114zM425 215q0 78 -43.5 126.5t-119.5 48.5q-75 0 -116 -47t-41 -127q0 -83 44.5 -129.5t116.5 -46.5q71 0 115 47.5t44 127.5z" />
    <glyph glyph-name="uni0432" unicode="&#x432;" horiz-adv-x="442" 
d="M411 128q0 -62 -43.5 -95t-124.5 -33h-162v433h161q67 0 101 -27.5t34 -74.5q0 -33 -16 -57t-47 -34q97 -18 97 -112zM230 387h-98v-129h100q94 0 94 64q0 65 -96 65zM233 47q66 0 96 21.5t30 63.5t-30 61.5t-94 19.5h-103v-166h101z" />
    <glyph glyph-name="uni0433" unicode="&#x433;" horiz-adv-x="376" 
d="M132 0h-51v433h273v-47h-222v-386z" />
    <glyph glyph-name="uni0434" unicode="&#x434;" horiz-adv-x="510" 
d="M407 47h72v-160h-49v113h-367v-113h-49v160h56q23 50 36 123.5t13 155.5v107h288v-386zM168 310q0 -69 -10.5 -137t-31.5 -126h230v339h-188v-76z" />
    <glyph glyph-name="uni0435" unicode="&#x435;" horiz-adv-x="500" 
d="M468 209h-373q2 -50 27 -88.5t64 -60t84 -21.5q42 0 80 18t58 48l35 -32q-29 -41 -76 -61t-99 -20q-61 0 -112 28t-81 79t-30 115q0 70 30 121.5t79 78.5t105 27q60 0 108 -30t74.5 -77.5t26.5 -97.5v-27zM98 254h319q-5 38 -27.5 70t-57.5 51t-75 19q-58 0 -103 -39
t-56 -101z" />
    <glyph glyph-name="uni0436" unicode="&#x436;" horiz-adv-x="591" 
d="M550 426l-139 -194l172 -225v-7h-58l-157 207h-49v-207h-52v207h-49l-155 -207h-55v7l168 220l-143 199v7h52l129 -182h53v182h52v-182h53l128 182h50v-7z" />
    <glyph glyph-name="uni0437" unicode="&#x437;" horiz-adv-x="390" 
d="M359 129q0 -37 -21.5 -68t-62 -50t-96.5 -19q-59 0 -97.5 18t-67.5 46l32 38q53 -55 134 -55q60 0 94 27.5t34 66.5q0 37 -31 57.5t-86 20.5h-55v48h49q46 0 72.5 16.5t26.5 48.5t-28 51t-79 19q-68 0 -117 -37l-22 40q30 21 63.5 32.5t76.5 11.5q72 0 113.5 -31.5
t41.5 -79.5q0 -32 -17.5 -55.5t-46.5 -35.5q42 -12 66 -41.5t24 -68.5z" />
    <glyph glyph-name="uni0438" unicode="&#x438;" horiz-adv-x="520" 
d="M132 102l288 331h19v-433h-52v331l-287 -331h-19v433h51v-331z" />
    <glyph glyph-name="uni0439" unicode="&#x439;" horiz-adv-x="520" 
d="M132 102l288 331h19v-433h-52v331l-287 -331h-19v433h51v-331zM124 624h46q0 -35 24 -56t68 -21q43 0 68 20t24 57h46q0 -55 -37.5 -85.5t-102.5 -30.5q-63 0 -100 30.5t-36 85.5z" />
    <glyph glyph-name="uni043A" unicode="&#x43a;" horiz-adv-x="450" 
d="M400 426l-181 -192l224 -227v-7h-61l-208 206h-42v-206h-51v433h51v-182h43l169 182h56v-7z" />
    <glyph glyph-name="uni043B" unicode="&#x43b;" horiz-adv-x="454" 
d="M9 -2v53q4 -1 14 -1q30 0 50.5 53t20.5 203v127h279v-433h-52v386h-178v-107q0 -151 -31.5 -217.5t-82.5 -66.5q-11 0 -20 3z" />
    <glyph glyph-name="uni043C" unicode="&#x43c;" horiz-adv-x="588" 
d="M89 0h-49l77 433h22l158 -336l152 336h22l77 -433h-49l-54 318l-146 -318h-9l-148 311z" />
    <glyph glyph-name="uni043D" unicode="&#x43d;" horiz-adv-x="520" 
d="M388 433h51v-433h-51v211h-256v-211h-51v433h51v-175h256v175z" />
    <glyph glyph-name="uni043E" unicode="&#x43e;" horiz-adv-x="522" 
d="M45 219q0 62 28.5 112.5t78 80t110.5 29.5q60 0 109 -29t77.5 -80t28.5 -113q0 -63 -28.5 -115t-77.5 -82t-109 -30t-109.5 30t-78.5 82t-29 115zM426 219q0 50 -21 90t-58.5 62.5t-84.5 22.5t-85.5 -22.5t-60 -62.5t-21.5 -90q0 -51 21.5 -92t60 -64.5t85.5 -23.5
q46 0 83.5 23.5t59 64.5t21.5 92z" />
    <glyph glyph-name="uni043F" unicode="&#x43f;" horiz-adv-x="502" 
d="M132 0h-51v433h340v-433h-51v386h-238v-386z" />
    <glyph glyph-name="uni0440" unicode="&#x440;" horiz-adv-x="552" 
d="M507 217q0 -69 -29 -120t-77 -78t-103 -27t-98 26.5t-66 70.5v-329h-51v673h48v-84q21 41 62.5 66.5t100.5 25.5t107.5 -27.5t77 -78t28.5 -118.5zM454 218q0 80 -44 126.5t-116 46.5q-51 0 -87 -23.5t-54.5 -62t-18.5 -81.5v-15q1 -41 20 -79t56 -62.5t87 -24.5
q71 0 114 48.5t43 126.5z" />
    <glyph glyph-name="uni0441" unicode="&#x441;" horiz-adv-x="453" 
d="M45 220q0 67 30 117t81 77t113 27q48 0 91 -16.5t73 -48.5l-31 -39q-22 27 -58 42t-76 15q-47 0 -86.5 -20.5t-63 -60t-23.5 -93.5q0 -53 23.5 -94t64 -64t90.5 -23q43 0 78 16t56 43l32 -33q-29 -33 -72 -53t-98 -20q-67 0 -118 30.5t-78.5 82.5t-27.5 115z" />
    <glyph glyph-name="uni0442" unicode="&#x442;" horiz-adv-x="387" 
d="M219 0h-51v386h-146v47h343v-47h-146v-386z" />
    <glyph glyph-name="uni0443" unicode="&#x443;" horiz-adv-x="430" 
d="M223 80l136 353h51v-4l-258 -669h-49v8l94 243l-180 418v4h55z" />
    <glyph glyph-name="uni0444" unicode="&#x444;" horiz-adv-x="589" 
d="M329 441q60 0 109 -29t77.5 -80t28.5 -115q0 -65 -29 -116t-78.5 -79.5t-107.5 -28.5h-9v-233h-52v233h-8q-60 0 -109 28.5t-77.5 79.5t-28.5 115q0 65 29 116.5t78.5 80t107.5 28.5h8v259h52v-259h9zM268 40v354h-8q-47 0 -84.5 -23t-59 -63.5t-21.5 -91.5t21.5 -91
t59 -62.5t84.5 -22.5h8zM329 40q47 0 84.5 23t59 63t21.5 91q0 52 -21.5 92t-59 62.5t-84.5 22.5h-9v-354h9z" />
    <glyph glyph-name="uni0445" unicode="&#x445;" horiz-adv-x="407" 
d="M381 429l-146 -205l158 -219v-5h-61l-131 182l-130 -182h-57v5l156 216l-149 208v4h61l124 -175l120 175h55v-4z" />
    <glyph glyph-name="uni0446" unicode="&#x446;" horiz-adv-x="516" 
d="M485 -113h-49v113h-355v433h51v-386h230v386h51v-386h72v-160z" />
    <glyph glyph-name="uni0447" unicode="&#x447;" horiz-adv-x="460" 
d="M327 433h52v-433h-52v181q-48 -21 -116 -21q-80 0 -122.5 34.5t-42.5 111.5v127h52v-123q0 -53 27 -77.5t96 -24.5q57 0 106 18v207z" />
    <glyph glyph-name="uni0448" unicode="&#x448;" horiz-adv-x="679" 
d="M365 47h182v386h51v-433h-517v433h51v-386h182v386h51v-386z" />
    <glyph glyph-name="uni0449" unicode="&#x449;" horiz-adv-x="701" 
d="M670 -113h-49v113h-540v433h51v-386h182v386h51v-386h182v386h51v-386h72v-160z" />
    <glyph glyph-name="uni044A" unicode="&#x44a;" horiz-adv-x="507" 
d="M155 0v386h-133v47h184v-155h100q89 0 133 -33.5t44 -104.5q0 -72 -46 -106t-141 -34h-141zM288 47q74 0 109 20.5t35 70.5t-32 71t-103 21h-91v-183h82z" />
    <glyph glyph-name="uni044B" unicode="&#x44b;" horiz-adv-x="608" 
d="M225 278q89 0 133 -33.5t44 -104.5q0 -72 -46 -106t-141 -34h-134v433h51v-155h93zM527 0h-52v433h52v-433zM208 47q75 0 109 20.5t34 70.5t-31 71t-102 21h-86v-183h76z" />
    <glyph glyph-name="uni044C" unicode="&#x44c;" horiz-adv-x="437" 
d="M81 0v433h51v-155h100q89 0 133 -33.5t44 -104.5q0 -72 -46 -106t-141 -34h-141zM214 47q74 0 109 20.5t35 70.5t-32 71t-103 21h-91v-183h82z" />
    <glyph glyph-name="uni044D" unicode="&#x44d;" horiz-adv-x="447" 
d="M402 219q0 -63 -27 -115t-78.5 -82t-120.5 -30q-99 0 -162 61l31 36q24 -22 57 -36t73 -14q74 0 123.5 46.5t53.5 124.5h-213v47h210q-12 64 -59.5 100.5t-112.5 36.5q-38 0 -72 -13.5t-57 -36.5l-28 42q66 55 160 55q63 0 113.5 -27t79.5 -77.5t29 -117.5z" />
    <glyph glyph-name="uni044E" unicode="&#x44e;" horiz-adv-x="685" 
d="M640 211q0 -68 -28.5 -117.5t-76.5 -75.5t-104 -26t-101.5 25.5t-73 74t-29.5 114.5h-95v-206h-51v433h51v-180h97q8 59 37.5 101.5t72.5 64.5t92 22q60 0 107.5 -28t74.5 -80t27 -122zM589 211q0 56 -20.5 97.5t-56.5 63.5t-81 22q-69 0 -112 -48.5t-43 -130.5
q0 -81 44 -128.5t111 -47.5q71 0 114.5 46.5t43.5 125.5z" />
    <glyph glyph-name="uni044F" unicode="&#x44f;" horiz-adv-x="472" 
d="M391 433v-433h-52v163h-99h-5l-135 -163h-57v7l135 161q-114 20 -114 129q0 70 47 103t139 33h141zM339 209v177h-85q-71 0 -105 -19t-34 -68t31 -69.5t98 -20.5h95z" />
    <glyph glyph-name="uni0450" unicode="&#x450;" horiz-adv-x="500" 
d="M468 209h-373q2 -50 27 -88.5t64 -60t84 -21.5q42 0 80 18t58 48l35 -32q-29 -41 -76 -61t-99 -20q-61 0 -112 28t-81 79t-30 115q0 70 30 121.5t79 78.5t105 27q60 0 108 -30t74.5 -77.5t26.5 -97.5v-27zM98 254h319q-5 38 -27.5 70t-57.5 51t-75 19q-58 0 -103 -39
t-56 -101zM154 670l49 38l97 -140l-26 -21z" />
    <glyph glyph-name="uni0451" unicode="&#x451;" horiz-adv-x="500" 
d="M468 209h-373q2 -50 27 -88.5t64 -60t84 -21.5q42 0 80 18t58 48l35 -32q-29 -41 -76 -61t-99 -20q-61 0 -112 28t-81 79t-30 115q0 70 30 121.5t79 78.5t105 27q60 0 108 -30t74.5 -77.5t26.5 -97.5v-27zM98 254h319q-5 38 -27.5 70t-57.5 51t-75 19q-58 0 -103 -39
t-56 -101zM114 600q0 16 11 26t28 10q16 0 26.5 -10t10.5 -26t-10.5 -26.5t-26.5 -10.5q-17 0 -28 10.5t-11 26.5zM322 600q0 16 11 26t28 10q16 0 26.5 -10t10.5 -26t-10.5 -26.5t-26.5 -10.5q-17 0 -28 10.5t-11 26.5z" />
    <glyph glyph-name="uni0452" unicode="&#x452;" horiz-adv-x="525" 
d="M452 171v-260q0 -81 -31.5 -117t-104.5 -36h-13v47q5 -1 16 -1q41 0 61.5 26t20.5 81v246q0 80 -31.5 120t-91.5 40q-66 0 -100 -46.5t-34 -119.5v-151h-52v434h-76v47h76v219h50l1 -219h187v-47h-187l1 -153q20 37 55.5 60.5t87.5 23.5q71 0 118 -47.5t47 -146.5z" />
    <glyph glyph-name="uni0453" unicode="&#x453;" horiz-adv-x="376" 
d="M132 0h-51v433h273v-47h-222v-386zM165 568l98 140l48 -38l-120 -123z" />
    <glyph glyph-name="uni0454" unicode="&#x454;" horiz-adv-x="447" 
d="M432 62q-29 -32 -71 -51t-95 -19q-66 0 -116.5 30t-77.5 82t-27 116q0 67 29.5 117t80.5 77t114 27q45 0 86 -14t71 -42l-31 -40q-22 23 -56 36t-72 13q-63 0 -110 -36.5t-59 -100.5h208v-47h-211q2 -50 26 -89t63 -60.5t86 -21.5q76 0 130 57z" />
    <glyph glyph-name="uni0455" unicode="&#x455;" horiz-adv-x="440" 
d="M43 54l30 41q28 -27 64.5 -42.5t77.5 -15.5q51 0 86 23.5t35 61.5q0 25 -15.5 40.5t-39 24t-64.5 18.5q-47 11 -76.5 22.5t-50 34.5t-20.5 61q0 59 45.5 89t111.5 30q85 0 147 -56l-32 -40q-20 22 -51 35.5t-70 13.5q-47 0 -73.5 -19t-26.5 -49q0 -32 27.5 -46.5
t84.5 -28.5q49 -11 80 -23t52.5 -37t21.5 -66q0 -64 -49.5 -100t-125.5 -36q-99 0 -169 64z" />
    <glyph glyph-name="uni0456" unicode="&#x456;" horiz-adv-x="230" 
d="M141 0h-51v433h51v-433zM76 587q0 16 11.5 26.5t28.5 10.5t28 -10.5t11 -26.5t-11.5 -27t-27.5 -11q-17 0 -28.5 11t-11.5 27z" />
    <glyph glyph-name="uni0457" unicode="&#x457;" horiz-adv-x="234" 
d="M143 0h-51v433h51v-433zM23 599q0 15 11 25t27 10q15 0 25.5 -10t10.5 -25t-10.5 -25.5t-25.5 -10.5q-16 0 -27 10.5t-11 25.5zM138 599q0 15 11 25t27 10t26 -10t10 -25t-10 -25.5t-26 -10.5t-27 10.5t-11 25.5z" />
    <glyph glyph-name="uni0458" unicode="&#x458;" horiz-adv-x="240" 
d="M-3 -242v47q4 -1 13 -1q45 0 64 28.5t19 88.5v512h51v-518q0 -79 -31 -118t-101 -39h-15zM80 587q0 16 11.5 26.5t28.5 10.5t28 -10.5t11 -26.5t-11.5 -27t-27.5 -11q-17 0 -28.5 11t-11.5 27z" />
    <glyph glyph-name="uni0459" unicode="&#x459;" horiz-adv-x="645" 
d="M9 -2v53q4 -1 14 -1q30 0 50.5 53t20.5 203v127h274v-155h72q89 0 132.5 -33t43.5 -104q0 -72 -45.5 -106.5t-140.5 -34.5h-114v386h-173v-107q0 -151 -31.5 -217.5t-82.5 -66.5q-11 0 -20 3zM426 47q74 0 107 20.5t33 71.5q0 49 -30 70t-100 21h-68v-183h58z" />
    <glyph glyph-name="uni045A" unicode="&#x45a;" horiz-adv-x="669" 
d="M81 0v433h51v-180h220v180h51v-180h78q76 0 117.5 -30.5t41.5 -93.5q0 -64 -40.5 -96.5t-124.5 -32.5h-123v206h-220v-206h-51zM469 47q60 0 90 16.5t30 61.5t-25.5 63t-84.5 18h-76v-159h66z" />
    <glyph glyph-name="uni045B" unicode="&#x45b;" horiz-adv-x="524" 
d="M452 171v-171h-52v157q0 80 -31.5 120t-90.5 40q-66 0 -100.5 -46.5t-34.5 -119.5v-151h-52v434h-75v47h75v219h51v-219h189v-47h-188v-154q20 37 55.5 61t87.5 24q71 0 118.5 -47.5t47.5 -146.5z" />
    <glyph glyph-name="uni045C" unicode="&#x45c;" horiz-adv-x="450" 
d="M400 426l-181 -192l224 -227v-7h-61l-208 206h-42v-206h-51v433h51v-182h43l169 182h56v-7zM176 568l98 140l48 -38l-120 -123z" />
    <glyph glyph-name="uni045D" unicode="&#x45d;" horiz-adv-x="520" 
d="M132 102l288 331h19v-433h-52v331l-287 -331h-19v433h51v-331zM160 670l49 38l97 -140l-26 -21z" />
    <glyph glyph-name="uni045E" unicode="&#x45e;" horiz-adv-x="430" 
d="M223 80l136 353h51v-4l-258 -669h-49v8l94 243l-180 418v4h55zM76 623h46q0 -35 24 -56t68 -21q43 0 68 20t24 57h46q0 -55 -37.5 -85.5t-102.5 -30.5q-63 0 -100 30.5t-36 85.5z" />
    <glyph glyph-name="uni045F" unicode="&#x45f;" horiz-adv-x="485" 
d="M357 433h52v-433h-141v-111h-49v111h-143v433h52v-386h229v386z" />
    <glyph glyph-name="uni0462" unicode="&#x462;" horiz-adv-x="602" 
d="M164 0v550h-150v53h150v97h58v-97h200v-53h-200v-125h109q69 0 120.5 -29t79 -77t27.5 -105q0 -56 -27.5 -105t-79 -79t-120.5 -30h-167zM324 53q82 0 128 45.5t46 114.5t-46 114.5t-127 45.5h-103v-320h102z" />
    <glyph glyph-name="uni0463" unicode="&#x463;" horiz-adv-x="506" 
d="M303 269q88 0 131 -32t43 -101q0 -70 -45 -103t-139 -33h-144v386h-133v47h133v267h52v-267h179v-47h-179v-117h102zM283 47q74 0 108.5 20t34.5 67t-32 67.5t-101 20.5h-92v-175h82z" />
    <glyph glyph-name="uni0472" unicode="&#x472;" horiz-adv-x="806" 
d="M757 348q0 -100 -46 -182.5t-126.5 -129.5t-181.5 -47q-100 0 -181 47.5t-127 130.5t-46 184t46 183t127 129t181 47q101 0 181.5 -47.5t126.5 -130t46 -184.5zM113 404h580q-11 72 -52 129.5t-103 89.5t-135 32t-135 -32t-103 -89.5t-52 -129.5zM697 350v1h-588v-1
q0 -86 38.5 -156t106 -110t149.5 -40t149.5 40t106 110t38.5 156z" />
    <glyph glyph-name="uni0473" unicode="&#x473;" horiz-adv-x="522" 
d="M477 219q0 -63 -28.5 -115t-77.5 -82t-109 -30t-109.5 30t-78.5 82t-29 115q0 62 28.5 112.5t78 80t110.5 29.5q60 0 109 -29t77.5 -80t28.5 -113zM98 253h325q-10 63 -54 102t-107 39t-108 -39t-56 -102zM426 206h-331q5 -72 51.5 -119.5t115.5 -47.5q67 0 113 47.5
t51 119.5z" />
    <glyph glyph-name="uni0474" unicode="&#x474;" horiz-adv-x="609" 
d="M603 702v-55q-5 1 -14 1q-17 0 -30 -8.5t-28 -34.5t-34 -77l-198 -538h-10l-274 690v20h54l226 -576l165 458q24 68 54 95t70 27q13 0 19 -2z" />
    <glyph glyph-name="uni0475" unicode="&#x475;" horiz-adv-x="441" 
d="M436 437v-52q-3 1 -12 1q-17 0 -27 -6t-21 -26t-30 -66l-125 -295h-10l-194 430v7h55l146 -328l87 212q29 69 56 96.5t59 27.5z" />
    <glyph glyph-name="uni0490" unicode="&#x490;" horiz-adv-x="451" 
d="M110 700h275v130h52v-183h-269v-647h-58v700z" />
    <glyph glyph-name="uni0491" unicode="&#x491;" horiz-adv-x="384" 
d="M132 0h-51v433h226v108h47v-155h-222v-386z" />
    <glyph glyph-name="uni0492" unicode="&#x492;" horiz-adv-x="488" 
d="M467 700v-53h-270v-246h242v-52h-242v-349h-58v349h-131v52h131v299h328z" />
    <glyph glyph-name="uni0493" unicode="&#x493;" horiz-adv-x="388" 
d="M366 433v-47h-222v-123h146v-47h-146v-216h-51v216h-77v47h77v170h273z" />
    <glyph glyph-name="uni0496" unicode="&#x496;" horiz-adv-x="873" 
d="M830 -125h-52v125h-41l-240 344h-58v-344h-58v344h-58l-240 -344h-63v10l258 362l-197 318v10h56l186 -307h58v307h58v-307h58l186 307h56v-10l-197 -318l227 -318h61v-179z" />
    <glyph glyph-name="uni0497" unicode="&#x497;" horiz-adv-x="659" 
d="M628 -113h-49v113h-54l-157 207h-49v-207h-52v207h-49l-155 -207h-55v7l168 220l-143 199v7h52l129 -182h53v182h52v-182h53l128 182h50v-7l-139 -194l142 -185h75v-160z" />
    <glyph glyph-name="uni0498" unicode="&#x498;" horiz-adv-x="582" 
d="M264 -8v-122h-50v120q-127 6 -205 101l38 40q31 -42 73.5 -66t109.5 -24q90 0 139 43t49 114q0 68 -47 110.5t-140 42.5h-63v52h50q71 0 118 37.5t47 100.5q0 57 -40 87.5t-114 30.5q-96 0 -152 -60l-33 39q30 32 78 52t113 20q66 0 112 -22t69.5 -59.5t23.5 -83.5
q0 -54 -31.5 -97t-96.5 -65q72 -12 118 -58.5t46 -122.5q0 -54 -25 -99.5t-72.5 -75t-114.5 -35.5z" />
    <glyph glyph-name="uni0499" unicode="&#x499;" horiz-adv-x="390" 
d="M209 -6v-105h-49v104q-51 3 -85.5 20.5t-60.5 42.5l32 38q53 -55 134 -55q60 0 94 27.5t34 66.5q0 37 -31 57.5t-86 20.5h-55v48h49q46 0 72.5 16.5t26.5 48.5t-28 51t-79 19q-68 0 -117 -37l-22 40q30 21 63.5 32.5t76.5 11.5q72 0 113.5 -31.5t41.5 -79.5
q0 -32 -17.5 -55.5t-46.5 -35.5q42 -12 66 -41.5t24 -68.5q0 -52 -40 -90t-110 -45z" />
    <glyph glyph-name="uni049A" unicode="&#x49a;" horiz-adv-x="680" 
d="M637 -125h-52v125h-50l-326 343h-41v-343h-58v700h58v-307h44l247 307h53v-20l-253 -307l305 -319h73v-179z" />
    <glyph glyph-name="uni049B" unicode="&#x49b;" horiz-adv-x="502" 
d="M471 -113h-49v113h-40l-208 206h-42v-206h-51v433h51v-182h43l169 182h56v-7l-181 -192l185 -187h67v-160z" />
    <glyph glyph-name="uni04A0" unicode="&#x4a0;" horiz-adv-x="663" 
d="M214 0h-58v647h-142v53h200v-307h44l247 307h53v-20l-253 -307l337 -353v-20h-60l-326 343h-42v-343z" />
    <glyph glyph-name="uni04A1" unicode="&#x4a1;" horiz-adv-x="524" 
d="M206 0h-51v386h-133v47h184v-182h43l169 182h56v-7l-181 -192l224 -227v-7h-61l-208 206h-42v-206z" />
    <glyph glyph-name="uni04A2" unicode="&#x4a2;" horiz-adv-x="772" 
d="M729 -125h-52v125h-109v351h-400v-351h-58v700h58v-296h400v296h58v-646h103v-179z" />
    <glyph glyph-name="uni04A3" unicode="&#x4a3;" horiz-adv-x="542" 
d="M511 -113h-49v113h-74v211h-256v-211h-51v433h51v-175h256v175h51v-386h72v-160z" />
    <glyph glyph-name="uni04AA" unicode="&#x4aa;" horiz-adv-x="681" 
d="M657 66q-87 -74 -219 -76v-120h-50v122q-101 8 -178 56t-119 126t-42 176q0 103 48 185t133.5 128.5t194.5 46.5q127 0 222 -64l-29 -48q-79 57 -184 57q-97 0 -170.5 -40.5t-114 -110t-40.5 -154.5q0 -87 43 -156.5t117.5 -109t165.5 -39.5q112 0 193 64z" />
    <glyph glyph-name="uni04AB" unicode="&#x4ab;" horiz-adv-x="453" 
d="M439 65q-27 -31 -67.5 -51t-92.5 -22v-103h-49v106q-85 13 -135 75.5t-50 149.5q0 67 30 117t81 77t113 27q48 0 91 -16.5t73 -48.5l-31 -39q-22 27 -58 42t-76 15q-47 0 -86.5 -20.5t-63 -60t-23.5 -93.5q0 -53 23.5 -94t64 -64t90.5 -23q43 0 78 16t56 43z" />
    <glyph glyph-name="uni04AE" unicode="&#x4ae;" horiz-adv-x="541" 
d="M468 700h53v-20l-216 -358v-322h-58v321l-227 359v20h56l202 -322z" />
    <glyph glyph-name="uni04AF" unicode="&#x4af;" horiz-adv-x="423" 
d="M357 433h49v-5l-162 -385v-283h-51v277l-176 392v4h55l148 -334z" />
    <glyph glyph-name="uni04B0" unicode="&#x4b0;" horiz-adv-x="533" 
d="M519 700v-20l-217 -359v-1h188v-53h-188v-267h-58v267h-202v53h202v1l-226 359v20h55l203 -322l189 322h54z" />
    <glyph glyph-name="uni04B1" unicode="&#x4b1;" horiz-adv-x="423" 
d="M357 433h49v-5l-160 -381h144v-47h-146v-240h-51v240h-152v47h148l-172 382v4h55l148 -334z" />
    <glyph glyph-name="uni04B2" unicode="&#x4b2;" horiz-adv-x="653" 
d="M611 -125h-53v125h-62l-206 329l-198 -329h-52v20l218 355l-197 305v20h57l176 -276l171 276h53v-20l-195 -299l210 -327h78v-179z" />
    <glyph glyph-name="uni04B3" unicode="&#x4b3;" horiz-adv-x="464" 
d="M433 -113h-49v113h-52l-131 182l-130 -182h-57v5l156 216l-149 208v4h61l124 -174l120 174h55v-4l-146 -205l128 -177h70v-160z" />
    <glyph glyph-name="uni04B6" unicode="&#x4b6;" horiz-adv-x="651" 
d="M505 700v-646h104v-179h-53v125h-109v306q-71 -20 -169 -20q-107 0 -159.5 39.5t-52.5 135.5v239h58v-231q0 -49 14 -77t48 -41t97 -13q83 0 164 20v342h58z" />
    <glyph glyph-name="uni04B7" unicode="&#x4b7;" horiz-adv-x="481" 
d="M401 -113v113h-74v181q-48 -21 -116 -21q-80 0 -122.5 34.5t-42.5 111.5v127h52v-123q0 -53 27 -77.5t96 -24.5q57 0 106 18v207h52v-386h71v-160h-49z" />
    <glyph glyph-name="uni04BA" unicode="&#x4ba;" horiz-adv-x="620" 
d="M546 241v-241h-58v242q0 64 -39 92t-131 28q-76 0 -150 -13v-349h-58v700h58v-300q86 14 163 14q108 0 161.5 -38.5t53.5 -134.5z" />
    <glyph glyph-name="uni04BB" unicode="&#x4bb;" horiz-adv-x="509" 
d="M437 257v-257h-52v247q0 72 -33 108t-85 36q-61 0 -98 -45t-37 -116v-230h-51v700h51v-341q21 35 59.5 57.5t85.5 22.5q44 0 80.5 -21.5t58 -62.5t21.5 -98z" />
    <glyph glyph-name="uni04C0" unicode="&#x4c0;" horiz-adv-x="278" 
d="M110 700h58v-700h-58v700z" />
    <glyph glyph-name="uni04CF" unicode="&#x4cf;" horiz-adv-x="213" 
d="M81 700h51v-700h-51v700z" />
    <glyph glyph-name="uni04D0" unicode="&#x4d0;" horiz-adv-x="617" 
d="M606 0h-60l-87 214h-304l-86 -214h-58l289 712h15zM306 593l-131 -327h263zM161 860h54q15 -69 94 -69q45 0 68.5 19t29.5 50h48q-2 -49 -42 -81.5t-104 -32.5q-56 0 -99 26.5t-49 87.5z" />
    <glyph glyph-name="uni04D1" unicode="&#x4d1;" horiz-adv-x="550" 
d="M420 433h49v-433h-49v94q-23 -47 -66 -74.5t-100 -27.5q-55 0 -103 27t-77 78t-29 120q0 68 28.5 118.5t77 78t107.5 27.5q58 0 99.5 -25t62.5 -65v82zM418 213v11q0 43 -18.5 81.5t-55 62t-87.5 23.5q-71 0 -115 -46.5t-44 -126.5q0 -78 43 -126.5t114 -48.5q51 0 88 25
t56 64.5t19 80.5zM121 624h46q0 -35 24 -56t68 -21q43 0 68 20t24 57h46q0 -55 -37.5 -85.5t-102.5 -30.5q-63 0 -100 30.5t-36 85.5z" />
    <glyph glyph-name="uni04D6" unicode="&#x4d6;" horiz-adv-x="550" 
d="M475 0h-365v700h355v-53h-297v-243h247v-53h-247v-298h307v-53zM144 860h54q15 -69 94 -69q45 0 68.5 19t29.5 50h48q-2 -49 -42 -81.5t-104 -32.5q-56 0 -99 26.5t-49 87.5z" />
    <glyph glyph-name="uni04D7" unicode="&#x4d7;" horiz-adv-x="500" 
d="M468 209h-373q2 -50 27 -88.5t64 -60t84 -21.5q42 0 80 18t58 48l35 -32q-29 -41 -76 -61t-99 -20q-61 0 -112 28t-81 79t-30 115q0 70 30 121.5t79 78.5t105 27q60 0 108 -30t74.5 -77.5t26.5 -97.5v-27zM98 254h319q-5 38 -27.5 70t-57.5 51t-75 19q-58 0 -103 -39
t-56 -101zM118 624h46q0 -35 24 -56t68 -21q43 0 68 20t24 57h46q0 -55 -37.5 -85.5t-102.5 -30.5q-63 0 -100 30.5t-36 85.5z" />
    <glyph glyph-name="uni04D8" unicode="&#x4d8;" horiz-adv-x="788" 
d="M737 345q0 -102 -42.5 -183t-122 -127t-185.5 -46q-97 0 -173 39t-119.5 118.5t-43.5 196.5v50h625q-9 78 -46 137.5t-100 92.5t-147 33q-60 0 -119 -19t-103 -65l-37 42q51 51 121 74t143 23q112 0 191 -50t118.5 -133.5t39.5 -182.5zM679 341h-569v-4q0 -90 34 -156.5
t96 -101.5t146 -35q88 0 154 37t102 104.5t37 155.5z" />
    <glyph glyph-name="uni04D9" unicode="&#x4d9;" horiz-adv-x="486" 
d="M441 217q0 -102 -57 -163.5t-155 -61.5q-93 0 -145 58.5t-52 160.5v25h357q-4 75 -48 116.5t-114 41.5q-41 0 -75 -15t-67 -44l-26 40q69 66 167 66t156.5 -59t58.5 -165zM388 190h-305q4 -71 44.5 -111t103.5 -40q65 0 107 41t50 110z" />
    <glyph glyph-name="uni04DC" unicode="&#x4dc;" horiz-adv-x="820" 
d="M739 690l-197 -319l258 -361v-10h-63l-240 344h-58v-344h-58v344h-58l-240 -344h-63v10l258 361l-197 319v10h56l186 -307h58v307h58v-307h58l186 307h56v-10zM267 805q0 18 12 29t31 11q17 0 28.5 -11t11.5 -29t-11.5 -29.5t-28.5 -11.5q-19 0 -31 11.5t-12 29.5z
M471 805q0 18 12 29t30 11q17 0 28.5 -11t11.5 -29t-11.5 -29.5t-28.5 -11.5q-18 0 -30 11.5t-12 29.5z" />
    <glyph glyph-name="uni04DD" unicode="&#x4dd;" horiz-adv-x="591" 
d="M550 426l-139 -194l172 -225v-7h-58l-157 207h-49v-207h-52v207h-49l-155 -207h-55v7l168 220l-143 199v7h52l129 -182h53v182h52v-182h53l128 182h50v-7zM150 600q0 16 11 26t28 10q16 0 26.5 -10t10.5 -26t-10.5 -26.5t-26.5 -10.5q-17 0 -28 10.5t-11 26.5zM358 600
q0 16 11 26t28 10q16 0 26.5 -10t10.5 -26t-10.5 -26.5t-26.5 -10.5q-17 0 -28 10.5t-11 26.5z" />
    <glyph glyph-name="uni04DE" unicode="&#x4de;" horiz-adv-x="531" 
d="M478 202q0 -58 -29 -106.5t-84.5 -77t-132.5 -28.5q-139 0 -221 101l38 40q31 -42 73.5 -66t109.5 -24q90 0 139 43t49 114q0 68 -47 110.5t-140 42.5h-63v52h50q71 0 118 37.5t47 100.5q0 57 -40 87.5t-114 30.5q-96 0 -152 -60l-33 39q30 32 78 52t113 20q66 0 112 -22
t69.5 -59.5t23.5 -83.5q0 -54 -31.5 -97t-96.5 -65q72 -12 118 -58.5t46 -122.5zM101 805q0 18 12 29t31 11q17 0 28.5 -11t11.5 -29t-11.5 -29.5t-28.5 -11.5q-19 0 -31 11.5t-12 29.5zM305 805q0 18 12 29t30 11q17 0 28.5 -11t11.5 -29t-11.5 -29.5t-28.5 -11.5
q-18 0 -30 11.5t-12 29.5z" />
    <glyph glyph-name="uni04DF" unicode="&#x4df;" horiz-adv-x="390" 
d="M359 129q0 -37 -21.5 -68t-62 -50t-96.5 -19q-59 0 -97.5 18t-67.5 46l32 38q53 -55 134 -55q60 0 94 27.5t34 66.5q0 37 -31 57.5t-86 20.5h-55v48h49q46 0 72.5 16.5t26.5 48.5t-28 51t-79 19q-68 0 -117 -37l-22 40q30 21 63.5 32.5t76.5 11.5q72 0 113.5 -31.5
t41.5 -79.5q0 -32 -17.5 -55.5t-46.5 -35.5q42 -12 66 -41.5t24 -68.5zM38 600q0 16 11 26t28 10q16 0 26.5 -10t10.5 -26t-10.5 -26.5t-26.5 -10.5q-17 0 -28 10.5t-11 26.5zM246 600q0 16 11 26t28 10q16 0 26.5 -10t10.5 -26t-10.5 -26.5t-26.5 -10.5q-17 0 -28 10.5
t-11 26.5z" />
    <glyph glyph-name="uni04E2" unicode="&#x4e2;" horiz-adv-x="756" 
d="M168 111l445 589h33v-700h-58v585l-442 -585h-36v701h58v-590zM224 815h300v-45h-300v45z" />
    <glyph glyph-name="uni04E3" unicode="&#x4e3;" horiz-adv-x="520" 
d="M132 102l288 331h19v-433h-52v331l-287 -331h-19v433h51v-331zM129 627h268v-46h-268v46z" />
    <glyph glyph-name="uni04E4" unicode="&#x4e4;" horiz-adv-x="756" 
d="M168 111l445 589h33v-700h-58v585l-442 -585h-36v701h58v-590zM230 805q0 18 12 29t31 11q17 0 28.5 -11t11.5 -29t-11.5 -29.5t-28.5 -11.5q-19 0 -31 11.5t-12 29.5zM434 805q0 18 12 29t30 11q17 0 28.5 -11t11.5 -29t-11.5 -29.5t-28.5 -11.5q-18 0 -30 11.5
t-12 29.5z" />
    <glyph glyph-name="uni04E5" unicode="&#x4e5;" horiz-adv-x="520" 
d="M132 102l288 331h19v-433h-52v331l-287 -331h-19v433h51v-331zM120 600q0 16 11 26t28 10q16 0 26.5 -10t10.5 -26t-10.5 -26.5t-26.5 -10.5q-17 0 -28 10.5t-11 26.5zM328 600q0 16 11 26t28 10q16 0 26.5 -10t10.5 -26t-10.5 -26.5t-26.5 -10.5q-17 0 -28 10.5
t-11 26.5z" />
    <glyph glyph-name="uni04E6" unicode="&#x4e6;" horiz-adv-x="806" 
d="M49 351q0 101 46 183t127 129t181 47q101 0 181.5 -47.5t126.5 -130t46 -184.5q0 -100 -46 -182.5t-126.5 -129.5t-181.5 -47q-100 0 -181 47.5t-127 130.5t-46 184zM697 350q0 86 -38.5 155.5t-106 109.5t-149.5 40t-149.5 -40t-106 -109.5t-38.5 -155.5t38.5 -156
t106 -110t149.5 -40t149.5 40t106 110t38.5 156zM260 805q0 18 12 29t31 11q17 0 28.5 -11t11.5 -29t-11.5 -29.5t-28.5 -11.5q-19 0 -31 11.5t-12 29.5zM464 805q0 18 12 29t30 11q17 0 28.5 -11t11.5 -29t-11.5 -29.5t-28.5 -11.5q-18 0 -30 11.5t-12 29.5z" />
    <glyph glyph-name="uni04E7" unicode="&#x4e7;" horiz-adv-x="522" 
d="M45 219q0 62 28.5 112.5t78 80t110.5 29.5q60 0 109 -29t77.5 -80t28.5 -113q0 -63 -28.5 -115t-77.5 -82t-109 -30t-109.5 30t-78.5 82t-29 115zM426 219q0 50 -21 90t-58.5 62.5t-84.5 22.5t-85.5 -22.5t-60 -62.5t-21.5 -90q0 -51 21.5 -92t60 -64.5t85.5 -23.5
q46 0 83.5 23.5t59 64.5t21.5 92zM116 600q0 16 11 26t28 10q16 0 26.5 -10t10.5 -26t-10.5 -26.5t-26.5 -10.5q-17 0 -28 10.5t-11 26.5zM324 600q0 16 11 26t28 10q16 0 26.5 -10t10.5 -26t-10.5 -26.5t-26.5 -10.5q-17 0 -28 10.5t-11 26.5z" />
    <glyph glyph-name="uni04E8" unicode="&#x4e8;" horiz-adv-x="804" 
d="M756 348q0 -100 -46 -182.5t-126.5 -129.5t-181.5 -47q-100 0 -181 47.5t-127 130.5t-46 184t46 183t127 129t181 47q101 0 181.5 -47.5t126.5 -130t46 -184.5zM109 375h586q-5 80 -45 143.5t-105 100t-143 36.5t-143 -36.5t-105 -100t-45 -143.5zM695 323h-586
q6 -79 46 -142.5t104.5 -100t142.5 -36.5t142.5 36.5t104.5 100t46 142.5z" />
    <glyph glyph-name="uni04E9" unicode="&#x4e9;" horiz-adv-x="510" 
d="M477 219q0 -63 -28.5 -115t-77.5 -82t-109 -30t-109.5 30t-78.5 82t-29 115q0 62 28.5 112.5t78 80t110.5 29.5q60 0 109 -29t77.5 -80t28.5 -113zM96 239h329q-6 68 -51 111.5t-112 43.5t-113 -43t-53 -112zM424 193h-327q8 -68 53.5 -111t111.5 -43q64 0 109 43t53 111
z" />
    <glyph glyph-name="uni04EE" unicode="&#x4ee;" horiz-adv-x="616" 
d="M545 700h49v-20l-250 -571q-28 -64 -61.5 -90.5t-77.5 -26.5q-16 0 -34 3v55q21 -3 32 -3q31 0 53.5 19t39.5 58l9 20l-281 536v20h55l255 -488zM168 815h300v-45h-300v45z" />
    <glyph glyph-name="uni04EF" unicode="&#x4ef;" horiz-adv-x="430" 
d="M223 80l136 353h51v-4l-258 -669h-49v8l94 243l-180 418v4h55zM81 627h268v-46h-268v46z" />
    <glyph glyph-name="uni04F2" unicode="&#x4f2;" horiz-adv-x="616" 
d="M545 700h49v-20l-250 -571q-28 -64 -61.5 -90.5t-77.5 -26.5q-16 0 -34 3v55q21 -3 32 -3q31 0 53.5 19t39.5 58l9 20l-281 536v20h55l255 -488zM202 761l72 104l50 -50l-92 -75zM360 763l81 98l44 -53l-98 -68z" />
    <glyph glyph-name="uni04F3" unicode="&#x4f3;" horiz-adv-x="430" 
d="M223 80l136 353h51v-4l-258 -669h-49v8l94 243l-180 418v4h55zM114 565l82 149l52 -32l-105 -135zM253 568l98 140l49 -38l-120 -123z" />
    <glyph glyph-name="uni04F4" unicode="&#x4f4;" horiz-adv-x="615" 
d="M447 700h58v-700h-58v305q-73 -19 -169 -19q-107 0 -159.5 39.5t-52.5 135.5v239h58v-231q0 -49 14 -77t48 -41t97 -13q80 0 164 19v343zM139 805q0 18 12 29t31 11q17 0 28.5 -11t11.5 -29t-11.5 -29.5t-28.5 -11.5q-19 0 -31 11.5t-12 29.5zM343 805q0 18 12 29t30 11
q17 0 28.5 -11t11.5 -29t-11.5 -29.5t-28.5 -11.5q-18 0 -30 11.5t-12 29.5z" />
    <glyph glyph-name="uni04F5" unicode="&#x4f5;" horiz-adv-x="460" 
d="M327 433h52v-433h-52v181q-48 -21 -116 -21q-80 0 -122.5 34.5t-42.5 111.5v127h52v-123q0 -53 27 -77.5t96 -24.5q57 0 106 18v207zM67 600q0 16 11 26t28 10q16 0 26.5 -10t10.5 -26t-10.5 -26.5t-26.5 -10.5q-17 0 -28 10.5t-11 26.5zM275 600q0 16 11 26t28 10
q16 0 26.5 -10t10.5 -26t-10.5 -26.5t-26.5 -10.5q-17 0 -28 10.5t-11 26.5z" />
    <glyph glyph-name="Wgrave" unicode="&#x1e80;" horiz-adv-x="872" 
d="M634 142l154 558h51v-20l-196 -692h-12l-198 577l-198 -577h-13l-189 692v20h54l150 -558l193 561h11zM310 825l47 49l107 -107l-27 -29z" />
    <glyph glyph-name="wgrave" unicode="&#x1e81;" horiz-adv-x="598" 
d="M426 115l95 318h47v-4l-132 -434h-16l-120 327l-118 -327h-19l-133 434v4h52l98 -318l114 318h17zM199 670l49 38l97 -140l-26 -21z" />
    <glyph glyph-name="Wacute" unicode="&#x1e82;" horiz-adv-x="872" 
d="M634 142l154 558h51v-20l-196 -692h-12l-198 577l-198 -577h-13l-189 692v20h54l150 -558l193 561h11zM365 768l107 107l47 -50l-127 -86z" />
    <glyph glyph-name="wacute" unicode="&#x1e83;" horiz-adv-x="598" 
d="M426 115l95 318h47v-4l-132 -434h-16l-120 327l-118 -327h-19l-133 434v4h52l98 -318l114 318h17zM247 568l98 140l48 -38l-120 -123z" />
    <glyph glyph-name="Wdieresis" unicode="&#x1e84;" horiz-adv-x="872" 
d="M634 142l154 558h51v-20l-196 -692h-12l-198 577l-198 -577h-13l-189 692v20h54l150 -558l193 561h11zM292 805q0 18 12 29t31 11q17 0 28.5 -11t11.5 -29t-11.5 -29.5t-28.5 -11.5q-19 0 -31 11.5t-12 29.5zM496 805q0 18 12 29t30 11q17 0 28.5 -11t11.5 -29
t-11.5 -29.5t-28.5 -11.5q-18 0 -30 11.5t-12 29.5z" />
    <glyph glyph-name="wdieresis" unicode="&#x1e85;" horiz-adv-x="598" 
d="M426 115l95 318h47v-4l-132 -434h-16l-120 327l-118 -327h-19l-133 434v4h52l98 -318l114 318h17zM158 600q0 16 11 26t28 10q16 0 26.5 -10t10.5 -26t-10.5 -26.5t-26.5 -10.5q-17 0 -28 10.5t-11 26.5zM366 600q0 16 11 26t28 10q16 0 26.5 -10t10.5 -26t-10.5 -26.5
t-26.5 -10.5q-17 0 -28 10.5t-11 26.5z" />
    <glyph glyph-name="uni1E9E" unicode="&#x1e9e;" horiz-adv-x="640" 
d="M364 506q115 -9 169 -74t54 -177q0 -81 -30 -139.5t-83.5 -89.5t-123.5 -31q-41 0 -76 12v54q26 -12 63 -12q87 0 139.5 52t52.5 151t-52.5 151.5t-142.5 52.5h-26v63l136 122q-74 15 -136 15q-59 0 -92 -14.5t-46 -46t-13 -86.5v-509h-58v509q0 78 23.5 122t67.5 61.5
t112 17.5q48 0 91.5 -7t96.5 -18v-69z" />
    <glyph glyph-name="Ygrave" unicode="&#x1ef2;" horiz-adv-x="541" 
d="M468 700h53v-20l-216 -358v-322h-58v321l-227 359v20h56l202 -322zM149 825l47 49l107 -107l-27 -29z" />
    <glyph glyph-name="ygrave" unicode="&#x1ef3;" horiz-adv-x="430" 
d="M223 80l136 353h51v-4l-258 -669h-49v8l94 243l-180 418v4h55zM112 670l49 38l97 -140l-26 -21z" />
    <glyph glyph-name="endash" unicode="&#x2013;" horiz-adv-x="560" 
d="M47 263h467v-47h-467v47z" />
    <glyph glyph-name="emdash" unicode="&#x2014;" horiz-adv-x="760" 
d="M47 263h666v-47h-666v47z" />
    <glyph glyph-name="quoteleft" unicode="&#x2018;" horiz-adv-x="204" 
d="M107 588q16 -1 24.5 -10t8.5 -22q0 -15 -11 -24.5t-26 -9.5q-18 0 -28.5 11.5t-10.5 29.5q0 14 9 33.5t29 51.5l30 52h42z" />
    <glyph glyph-name="quoteright" unicode="&#x2019;" horiz-adv-x="204" 
d="M140 670q0 -14 -8.5 -32.5t-28.5 -53.5l-31 -51h-41l65 112q-15 1 -23.5 10t-8.5 21q0 15 11.5 25t26.5 10q17 0 27.5 -11.5t10.5 -29.5z" />
    <glyph glyph-name="quotesinglbase" unicode="&#x201a;" horiz-adv-x="204" 
d="M140 26q0 -14 -8.5 -33t-28.5 -52l-31 -52h-41l66 112q-16 1 -24.5 10t-8.5 22q0 15 11 24.5t27 9.5q17 0 27.5 -11.5t10.5 -29.5z" />
    <glyph glyph-name="quotedblleft" unicode="&#x201c;" horiz-adv-x="360" 
d="M132 701h42l-67 -112q16 -1 24.5 -9.5t8.5 -21.5q0 -15 -11 -24.5t-26 -9.5q-18 0 -28.5 11.5t-10.5 29.5q0 14 9 33.5t29 51.5zM263 589q16 -1 24.5 -9.5t8.5 -21.5q0 -15 -11.5 -24.5t-26.5 -9.5q-17 0 -28 11.5t-11 29.5q0 14 8.5 32t29.5 53l30 51h42z" />
    <glyph glyph-name="quotedblright" unicode="&#x201d;" horiz-adv-x="359" 
d="M140 670q0 -14 -8.5 -33t-28.5 -52l-31 -52h-41l66 112q-16 1 -24.5 10t-8.5 22q0 15 11 24.5t27 9.5q17 0 27.5 -11.5t10.5 -29.5zM295 670q0 -14 -8.5 -33t-28.5 -52l-31 -52h-41l66 112q-16 1 -24.5 10t-8.5 22q0 15 11 24.5t27 9.5q17 0 27.5 -11.5t10.5 -29.5z" />
    <glyph glyph-name="quotedblbase" unicode="&#x201e;" horiz-adv-x="360" 
d="M140 26q0 -14 -8.5 -33t-28.5 -52l-31 -52h-41l66 112q-16 1 -24.5 10t-8.5 22q0 15 11 24.5t27 9.5q17 0 27.5 -11.5t10.5 -29.5zM296 26q0 -14 -8.5 -33t-28.5 -52l-31 -52h-41l66 112q-16 1 -24.5 10t-8.5 22q0 15 11 24.5t27 9.5q17 0 27.5 -11.5t10.5 -29.5z" />
    <glyph glyph-name="dagger" unicode="&#x2020;" horiz-adv-x="520" 
d="M286 521l175 6v-60l-175 7l7 -176l-8 -398h-45l-7 398l6 176l-180 -7v60l180 -6l-6 179h60z" />
    <glyph glyph-name="daggerdbl" unicode="&#x2021;" horiz-adv-x="520" 
d="M286 521l175 6v-60l-175 7l7 -176l-7 -179l175 6v-60l-175 7l7 -176h-60l6 176l-180 -7v60l180 -6l-6 179l6 176l-180 -7v60l180 -6l-6 179h60z" />
    <glyph glyph-name="bullet" unicode="&#x2022;" horiz-adv-x="272" 
d="M77 276q0 25 15 41t43 16t43.5 -16t15.5 -41q0 -24 -15.5 -40t-43.5 -16q-27 0 -42.5 16t-15.5 40z" />
    <glyph glyph-name="ellipsis" unicode="&#x2026;" horiz-adv-x="843" 
d="M72 27q0 17 10 27.5t28 10.5t28.5 -10.5t10.5 -27.5q0 -16 -10.5 -26.5t-28.5 -10.5q-17 0 -27.5 10.5t-10.5 26.5zM383 27q0 17 10 27.5t28 10.5t28.5 -10.5t10.5 -27.5q0 -16 -10.5 -26.5t-28.5 -10.5q-17 0 -27.5 10.5t-10.5 26.5zM694 27q0 17 10 27.5t28 10.5
t28.5 -10.5t10.5 -27.5q0 -16 -10.5 -26.5t-28.5 -10.5q-17 0 -27.5 10.5t-10.5 26.5z" />
    <glyph glyph-name="perthousand" unicode="&#x2030;" horiz-adv-x="1172" 
d="M64 548q0 70 44.5 113t116.5 43q69 0 114.5 -43t45.5 -113t-45 -113.5t-115 -43.5q-71 0 -116 43.5t-45 113.5zM629 700h53l-504 -700h-56zM341 548q0 52 -32 84t-84 32t-84 -31.5t-32 -84.5q0 -52 32 -84t84 -32t84 32t32 84zM418 150q0 71 44.5 114t116.5 43
q69 0 114.5 -43.5t45.5 -113.5t-45 -113t-115 -43t-115.5 43t-45.5 113zM787 150q0 71 44.5 114t115.5 43q70 0 115.5 -43.5t45.5 -113.5t-45.5 -113t-115.5 -43t-115 43t-45 113zM695 150q0 52 -32 84t-84 32t-84 -31.5t-32 -84.5q0 -52 32 -84t84 -32t84 32t32 84z
M1063 150q0 52 -32 84t-84 32t-84 -32t-32 -84t32 -84t84 -32q53 0 84.5 32t31.5 84z" />
    <glyph glyph-name="guilsinglleft" unicode="&#x2039;" horiz-adv-x="315" 
d="M34 220l192 208v-67l-133 -140l133 -141v-68z" />
    <glyph glyph-name="guilsinglright" unicode="&#x203a;" horiz-adv-x="315" 
d="M89 360v68l192 -208l-192 -208v67l132 140z" />
    <glyph glyph-name="fraction" unicode="&#x2044;" horiz-adv-x="394" 
d="M425 700h53l-504 -700h-56z" />
    <glyph glyph-name="Euro" unicode="&#x20ac;" horiz-adv-x="496" 
d="M143 435h273l-13 -50h-264q-1 -12 -1 -36v-31h248l-13 -50h-232q11 -114 55.5 -167.5t128.5 -53.5q40 0 77.5 11.5t61.5 34.5v-60q-34 -19 -69 -29.5t-77 -10.5q-106 0 -163.5 71.5t-69.5 203.5h-70l12 50h54v31q0 24 1 36h-68l12 50h60q17 128 82.5 201t168.5 73
q41 0 79.5 -11t62.5 -28l-15 -50q-25 17 -60.5 26t-67.5 9q-77 0 -127.5 -55.5t-65.5 -164.5z" />
    <glyph glyph-name="uni20B4" unicode="&#x20b4;" horiz-adv-x="546" 
d="M479 436v-50h-412v50h265q36 35 51.5 68.5t15.5 61.5q0 42 -32 69t-83 27q-48 0 -78 -25t-36 -71l-47 9q13 132 162 132q81 0 122 -38.5t41 -98.5q0 -38 -17 -70.5t-49 -63.5h97zM67 269v50h412v-50h-252q-78 -73 -78 -137q0 -43 34.5 -69.5t94.5 -26.5q56 0 95 24.5
t51 70.5l45 -13q-15 -67 -67.5 -97.5t-124.5 -30.5q-86 0 -131.5 37.5t-45.5 99.5q0 39 18.5 73.5t52.5 68.5h-104z" />
    <glyph glyph-name="uni20B8" unicode="&#x20b8;" horiz-adv-x="511" 
d="M14 649v51h483v-51h-483zM226 513h-212v52h483v-52h-213v-513h-58v513z" />
    <glyph glyph-name="uni20BD" unicode="&#x20bd;" horiz-adv-x="531" 
d="M222 327v-84h211v-49h-211v-194h-55v194h-102v49h102v84h-102v50h102v323h79q123 0 181.5 -44.5t58.5 -138.5q0 -96 -60 -143t-184 -47h-20zM222 651v-274h22q101 0 144 32.5t43 109.5q0 71 -43.5 101.5t-146.5 30.5h-19z" />
    <glyph glyph-name="uni2116" unicode="&#x2116;" horiz-adv-x="1112" 
d="M140 700l440 -564v564h58v-700h-26l-444 568v-568h-58v700h30zM719 509q0 72 45.5 116t118.5 44q71 0 117.5 -44t46.5 -116q0 -71 -46.5 -115.5t-117.5 -44.5q-72 0 -118 44t-46 116zM764 509q0 -53 33 -86t86 -33t86 33t33 86t-33 86t-86 33t-86 -33t-33 -86zM1032 205
h-294v50h294v-50z" />
    <glyph glyph-name="uni2120" unicode="&#x2120;" horiz-adv-x="569" 
d="M11 471v11h42q4 -28 17 -42t40 -14t41 13.5t14 36.5q0 25 -16 37.5t-49 26.5q-37 14 -56.5 30.5t-19.5 50.5q0 36 22.5 61t62.5 25q39 0 62.5 -23.5t24.5 -54.5v-10h-38q-4 26 -14.5 38.5t-32.5 12.5t-34.5 -13t-12.5 -31q0 -20 14 -30.5t45 -23.5q27 -10 43 -19
t27.5 -26t11.5 -44q0 -44 -27 -68.5t-72 -24.5t-68 23.5t-27 57.5zM276 391h-39l38 309l27 -1l91 -221l84 222h29l48 -309h-44l-30 209l-68 -184h-38l-73 179z" />
    <glyph glyph-name="trademark" unicode="&#x2122;" horiz-adv-x="579" 
d="M124 391h-44v271h-73v38h190v-38h-73v-271zM257 391h-38l38 309l27 -1l91 -221l84 222h28l48 -309h-43l-31 209l-67 -184h-38l-73 179z" />
    <glyph glyph-name="uni2126" unicode="&#x2126;" horiz-adv-x="832" 
d="M562 53h172v-53h-294v61q74 7 131 46.5t89 104t32 141.5q0 84 -36.5 153t-100 109t-139.5 40t-139.5 -39.5t-100 -108.5t-36.5 -152q0 -78 32 -142.5t89 -104.5t131 -47v-61h-294v53h173q-96 41 -143 124t-47 185q0 99 44 178.5t120.5 124.5t170.5 45t170.5 -44.5
t120.5 -123.5t44 -178q0 -102 -47 -186t-142 -125z" />
    <glyph glyph-name="uni2153" unicode="&#x2153;" horiz-adv-x="682" 
d="M24 594v48l149 57v-349h-47v287zM569 700h53l-504 -700h-56zM651 102q0 -46 -32.5 -76.5t-86.5 -30.5q-39 0 -69 17t-44 52l37 27q9 -23 29 -38t48 -15q30 0 49.5 17.5t19.5 45.5q0 29 -21 50t-51 21h-17v41h16q23 0 38 15.5t15 34.5q0 18 -14.5 30.5t-35.5 12.5
q-20 0 -36 -11.5t-22 -30.5l-39 19q10 33 36.5 49.5t62.5 16.5q43 0 70 -22t27 -57q0 -29 -16 -47.5t-43 -26.5q41 -11 60 -35.5t19 -58.5z" />
    <glyph glyph-name="uni2154" unicode="&#x2154;" horiz-adv-x="738" 
d="M133 397h134v-43h-223v4l106 134q36 45 48.5 69.5t12.5 44.5q0 26 -15 40t-38 14q-20 0 -35 -11.5t-29 -33.5l-38 25q18 32 45.5 47.5t59.5 15.5q43 0 71 -26.5t28 -68.5q0 -30 -16.5 -61.5t-51.5 -75.5zM626 700h53l-504 -700h-56zM708 102q0 -46 -32.5 -76.5
t-86.5 -30.5q-39 0 -69 17t-44 52l37 27q9 -23 29 -38t48 -15q30 0 49.5 17.5t19.5 45.5q0 29 -21 50t-51 21h-17v41h16q23 0 38 15.5t15 34.5q0 18 -14.5 30.5t-35.5 12.5q-20 0 -36 -11.5t-22 -30.5l-39 19q10 33 36.5 49.5t62.5 16.5q43 0 70 -22t27 -57q0 -29 -16 -47.5
t-43 -26.5q41 -11 60 -35.5t19 -58.5z" />
    <glyph glyph-name="oneeighth" unicode="&#x215b;" horiz-adv-x="676" 
d="M24 594v48l149 57v-349h-47v287zM569 700h53l-504 -700h-56zM646 99q0 -44 -32.5 -74t-87.5 -30t-87.5 30t-32.5 74q0 35 19.5 61t53.5 35q-23 7 -39 27.5t-16 46.5q0 37 28.5 61.5t75.5 24.5q45 0 72.5 -25t27.5 -61q0 -27 -15.5 -47t-38.5 -28q32 -8 52 -34t20 -61z
M470 264q0 -22 15.5 -37t42.5 -15q25 0 39.5 15t14.5 37q0 23 -14.5 35.5t-41.5 12.5t-41 -12.5t-15 -35.5zM600 104q0 31 -19.5 49t-52.5 18t-54 -18.5t-21 -49.5t20.5 -48t54.5 -17t53 17t19 49z" />
    <glyph glyph-name="threeeighths" unicode="&#x215c;" horiz-adv-x="773" 
d="M743 99q0 -44 -32.5 -74t-87.5 -30t-87.5 30t-32.5 74q0 35 19.5 61t53.5 35q-23 7 -39 27.5t-16 46.5q0 37 28.5 61.5t75.5 24.5q45 0 72.5 -25t27.5 -61q0 -27 -15.5 -47t-38.5 -28q32 -8 52 -34t20 -61zM567 264q0 -22 15.5 -37t42.5 -15q25 0 39.5 15t14.5 37
q0 23 -14.5 35.5t-41.5 12.5t-41 -12.5t-15 -35.5zM697 104q0 31 -19.5 49t-52.5 18t-54 -18.5t-21 -49.5t20.5 -48t54.5 -17t53 17t19 49zM666 700h53l-504 -700h-56zM269 452q0 -46 -32.5 -76.5t-86.5 -30.5q-39 0 -69 17t-44 52l37 27q9 -23 29 -38t48 -15
q30 0 49.5 17.5t19.5 45.5q0 29 -21 50t-51 21h-17v41h16q23 0 38 15.5t15 34.5q0 18 -14.5 30.5t-35.5 12.5q-20 0 -36 -11.5t-22 -30.5l-39 19q10 33 36.5 49.5t62.5 16.5q43 0 70 -22t27 -57q0 -29 -16 -47.5t-43 -26.5q41 -11 60 -35.5t19 -58.5z" />
    <glyph glyph-name="fiveeighths" unicode="&#x215d;" horiz-adv-x="681" 
d="M257 465q0 -50 -32.5 -82.5t-86.5 -32.5q-39 0 -69.5 17t-45.5 52l37 27q9 -23 29.5 -38t48.5 -15q32 0 51 19.5t19 52.5q0 35 -22.5 54t-64.5 19q-26 0 -58 -8h-6l22 169h157v-43h-120l-10 -77q13 3 32 3q51 0 85 -31.5t34 -85.5zM573 700h53l-504 -700h-56zM650 99
q0 -44 -32.5 -74t-87.5 -30t-87.5 30t-32.5 74q0 35 19.5 61t53.5 35q-23 7 -39 27.5t-16 46.5q0 37 28.5 61.5t75.5 24.5q45 0 72.5 -25t27.5 -61q0 -27 -15.5 -47t-38.5 -28q32 -8 52 -34t20 -61zM474 264q0 -22 15.5 -37t42.5 -15q25 0 39.5 15t14.5 37q0 23 -14.5 35.5
t-41.5 12.5t-41 -12.5t-15 -35.5zM604 104q0 31 -19.5 49t-52.5 18t-54 -18.5t-21 -49.5t20.5 -48t54.5 -17t53 17t19 49z" />
    <glyph glyph-name="seveneighths" unicode="&#x215e;" horiz-adv-x="653" 
d="M255 700v-10l-117 -340h-47v7l104 300h-155v43h215zM546 700h53l-504 -700h-56zM623 99q0 -44 -32.5 -74t-87.5 -30t-87.5 30t-32.5 74q0 35 19.5 61t53.5 35q-23 7 -39 27.5t-16 46.5q0 37 28.5 61.5t75.5 24.5q45 0 72.5 -25t27.5 -61q0 -27 -15.5 -47t-38.5 -28
q32 -8 52 -34t20 -61zM447 264q0 -22 15.5 -37t42.5 -15q25 0 39.5 15t14.5 37q0 23 -14.5 35.5t-41.5 12.5t-41 -12.5t-15 -35.5zM577 104q0 31 -19.5 49t-52.5 18t-54 -18.5t-21 -49.5t20.5 -48t54.5 -17t53 17t19 49z" />
    <glyph glyph-name="uni2206" unicode="&#x2206;" horiz-adv-x="633" 
d="M352 706l263 -706h-597l258 706h76zM312 655l-218 -598h441z" />
    <glyph glyph-name="minus" unicode="&#x2212;" horiz-adv-x="628" 
d="M82 376h420v-47h-420v47z" />
    <glyph glyph-name="uni2219" unicode="&#x2219;" horiz-adv-x="265" 
d="M97 336q0 17 9 26.5t26 9.5q18 0 27 -9.5t9 -26.5q0 -15 -9.5 -24.5t-26.5 -9.5q-16 0 -25.5 9.5t-9.5 24.5z" />
    <glyph glyph-name="infinity" unicode="&#x221e;" horiz-adv-x="628" 
d="M593 350q0 -61 -36 -96t-96 -35q-48 0 -83 22.5t-71 68.5q-35 -46 -70.5 -68.5t-82.5 -22.5q-60 0 -95.5 34.5t-35.5 96.5q0 61 35 96t91 35q46 0 87 -24t71 -67q31 45 67 68t85 23q62 0 98 -34.5t36 -96.5zM276 350q-60 80 -123 80q-35 0 -56.5 -21.5t-21.5 -58.5
t22 -58.5t57 -21.5q69 0 122 80zM541 350q0 37 -23 58.5t-59 21.5q-66 0 -119 -80q30 -40 59 -60t62 -20q34 0 57 21.5t23 58.5z" />
    <glyph glyph-name="approxequal" unicode="&#x2248;" horiz-adv-x="628" 
d="M116 358q0 58 29 86.5t74 28.5q27 0 47 -8.5t47 -24.5t45 -24t43 -8q32 0 46.5 16.5t15.5 53.5h48q0 -56 -30.5 -88t-81.5 -32q-31 0 -56 10t-58 28q-26 14 -40.5 20.5t-29.5 6.5q-48 0 -51 -65h-48zM116 159q0 58 29 86.5t74 28.5q27 0 47 -8.5t47 -24.5t45 -24t43 -8
q32 0 46.5 16.5t15.5 53.5h48q0 -56 -30.5 -88t-81.5 -32q-31 0 -56 10t-58 28q-26 14 -40.5 20.5t-29.5 6.5q-48 0 -51 -65h-48z" />
    <glyph glyph-name="notequal" unicode="&#x2260;" horiz-adv-x="628" 
d="M524 471v-47h-159l-57 -163h216v-47h-232l-77 -219h-50l77 219h-138v47h154l57 163h-211v47h228l81 232h50l-81 -232h142z" />
    <glyph glyph-name="lessequal" unicode="&#x2264;" horiz-adv-x="628" 
d="M105 407l387 248v-66l-293 -182l293 -182v-66zM492 85h-365v51h365v-51z" />
    <glyph glyph-name="greaterequal" unicode="&#x2265;" horiz-adv-x="628" 
d="M122 589v66l387 -248l-387 -248v66l293 182zM487 85h-365v51h365v-51z" />
    <glyph glyph-name="lozenge" unicode="&#x25ca;" horiz-adv-x="620" 
d="M323 707l210 -356l-210 -357h-26l-210 357l210 356h26zM141 351l169 -283l169 283l-169 282z" />
    <glyph glyph-name="uniF400" unicode="&#xf400;" 
d="M-155 570l100 144l55 -38l-124 -129z" />
    <glyph glyph-name="one.tab" unicode="&#xf4e1;" horiz-adv-x="628" 
d="M343 710v-658h145v-52h-344v52h146v585l-126 -49v52z" />
    <glyph glyph-name="two.tab" unicode="&#xf4e2;" horiz-adv-x="628" 
d="M199 50h318v-50h-410v8l208 278l40 52q55 72 75 108t20 80q0 63 -37.5 97t-100.5 34q-95 0 -170 -82l-28 34q30 39 83 67.5t122 28.5q59 0 100.5 -23.5t63 -62.5t21.5 -87q0 -36 -12 -68t-33.5 -63.5t-65.5 -89.5l-28 -38z" />
    <glyph glyph-name="three.tab" unicode="&#xf4e3;" horiz-adv-x="628" 
d="M541 203q0 -60 -30 -108.5t-83 -76.5t-119 -28q-57 0 -110.5 22.5t-91.5 70.5l39 39q28 -39 71 -62t96 -23q50 0 90 21.5t63.5 60t23.5 87.5q0 70 -47.5 112t-125.5 42h-14v45h14q61 0 96 38t35 95q0 55 -33 90t-94 35q-98 0 -151 -80l-36 32q27 44 76 69.5t108 25.5
q56 0 97.5 -23t63 -62t21.5 -86q0 -56 -31.5 -96.5t-77.5 -54.5q71 -14 110.5 -65t39.5 -120z" />
    <glyph glyph-name="four.tab" unicode="&#xf4e4;" horiz-adv-x="628" 
d="M450 261h93v-47h-93v-214h-53v214h-330v10l373 486h10v-449zM397 580l-243 -319h243v319z" />
    <glyph glyph-name="five.tab" unicode="&#xf4e5;" horiz-adv-x="628" 
d="M524 211q0 -63 -29.5 -113.5t-81.5 -79t-118 -28.5q-57 0 -110 22.5t-91 70.5l39 39q28 -39 71 -62t94 -23q50 0 90 22.5t63 62t23 89.5q0 82 -57.5 127.5t-145.5 45.5q-37 0 -91 -14h-10l47 330h260v-50h-222l-31 -225q25 5 54 5q73 0 128.5 -27.5t86.5 -77t31 -114.5z
" />
    <glyph glyph-name="six.tab" unicode="&#xf4e6;" horiz-adv-x="628" 
d="M540 224q0 -73 -32.5 -126t-85.5 -80t-112 -27q-60 0 -113 27.5t-85 81t-32 128.5q0 70 29 135.5t87 146.5l136 190h58v-7l-223 -306q64 56 154 56q60 0 110 -26t79.5 -75.5t29.5 -117.5zM490 218q0 56 -24 97.5t-65.5 63t-92.5 21.5q-49 0 -89.5 -20.5t-64 -60.5
t-23.5 -96t24 -98t65 -64t91 -22q48 0 89 21t65.5 61.5t24.5 96.5z" />
    <glyph glyph-name="seven.tab" unicode="&#xf4e7;" horiz-adv-x="628" 
d="M107 650v50h401v-20l-243 -680h-54l235 650h-339z" />
    <glyph glyph-name="eight.tab" unicode="&#xf4e8;" horiz-adv-x="628" 
d="M537 198q0 -58 -26.5 -105.5t-77.5 -75.5t-119 -28t-119 28t-77.5 75.5t-26.5 105.5q0 67 34 117.5t104 72.5q-42 18 -70 57.5t-28 94.5q0 75 49.5 122.5t133.5 47.5q83 0 133 -47.5t50 -122.5q0 -55 -28 -94.5t-70 -57.5q70 -22 104 -72.5t34 -117.5zM314 405
q60 0 95 37.5t35 94.5q0 58 -34 92t-96 34t-96 -34t-34 -92q0 -57 35 -94.5t95 -37.5zM487 200q0 74 -47 117t-126 43t-126 -43t-47 -117q0 -48 23 -85.5t62.5 -58t87.5 -20.5t87.5 20.5t62.5 58t23 85.5z" />
    <glyph glyph-name="nine.tab" unicode="&#xf4e9;" horiz-adv-x="628" 
d="M546 472q0 -70 -29 -135.5t-87 -146.5l-136 -190h-58v7l223 306q-64 -56 -154 -56q-60 0 -110 26t-79.5 75.5t-29.5 117.5q0 73 32.5 126t85.5 80t112 27q60 0 113 -27.5t85 -81t32 -128.5zM495 477q0 56 -24 98t-65 64t-91 22q-48 0 -89 -21t-65.5 -61.5t-24.5 -96.5
t24 -97.5t65.5 -63t92.5 -21.5q49 0 89.5 20.5t64 60.5t23.5 96z" />
    <glyph glyph-name="dollar.tab" unicode="&#xf4ec;" horiz-adv-x="628" 
d="M339 -9v-91h-51v89q-111 4 -196 80l36 48q71 -74 179 -74q82 0 125 40.5t43 100.5q0 43 -23 73t-56.5 48.5t-90.5 42.5q-62 27 -98.5 47.5t-62 55.5t-25.5 87q0 70 47 116.5t129 53.5v92h51v-92q48 -3 89 -19.5t71 -44.5l-34 -41q-26 25 -64 39t-86 14
q-70 0 -108.5 -30.5t-38.5 -80.5q0 -38 21 -64t52 -42.5t85 -38.5q64 -26 103.5 -48.5t67 -61.5t27.5 -98q0 -87 -52.5 -139.5t-139.5 -61.5z" />
    <glyph glyph-name="Euro.tab" unicode="&#xf4ed;" horiz-adv-x="628" 
d="M599 34q-74 -43 -173 -43q-86 0 -154 34t-112 97t-59 146h-79l13 50h60q-1 10 -1 32q0 24 1 35h-74l12 50h69q16 81 62 143t115 96.5t152 34.5q48 0 91 -11.5t75 -30.5l-13 -52q-30 19 -68.5 29.5t-80.5 10.5q-104 0 -178 -60t-97 -160h377l-13 -50h-371q-2 -22 -2 -35
q0 -22 1 -32h354l-12 -50h-334q22 -103 96 -163t175 -60q84 0 151 37z" />
    <glyph glyph-name="cent.tab" unicode="&#xf4ee;" horiz-adv-x="628" 
d="M499 65q-27 -31 -66.5 -50.5t-90.5 -22.5v-80h-48v82q-86 12 -137.5 75t-51.5 151q0 91 53 149t136 70v96h48v-94q44 -2 83.5 -19t67.5 -46l-31 -39q-22 27 -58 42t-76 15q-47 0 -86.5 -20.5t-63 -60t-23.5 -93.5q0 -53 23.5 -94t64 -64t90.5 -23q43 0 78 16t56 43z" />
    <glyph glyph-name="sterling.tab" unicode="&#xf4ef;" horiz-adv-x="628" 
d="M250 51h250v-51h-386v51h81v268h-80v49h80v144q0 95 40 146.5t112 51.5q57 0 98.5 -35t48.5 -114v-23h-49q0 55 -26.5 86t-71.5 31q-44 0 -70.5 -31.5t-26.5 -90.5v-165h220v-49h-220v-268z" />
    <glyph glyph-name="yen.tab" unicode="&#xf4fa;" horiz-adv-x="628" 
d="M509 700h58v-20l-213 -344h170v-49h-181v-86h181v-50h-181v-151h-58v151h-181v50h181v86h-181v49h172l-215 344v20h60l198 -319z" />
    <glyph glyph-name="uni20B4.tab" unicode="&#xf4fc;" horiz-adv-x="628" 
d="M520 436v-50h-412v50h265q36 35 51.5 68.5t15.5 61.5q0 42 -32 69t-83 27q-48 0 -78 -25t-36 -71l-47 9q13 132 162 132q81 0 122 -38.5t41 -98.5q0 -38 -17 -70.5t-49 -63.5h97zM108 269v50h412v-50h-252q-78 -73 -78 -137q0 -43 34.5 -69.5t94.5 -26.5q56 0 95 24.5
t51 70.5l45 -13q-15 -67 -67.5 -97.5t-124.5 -30.5q-86 0 -131.5 37.5t-45.5 99.5q0 39 18.5 73.5t52.5 68.5h-104z" />
    <glyph glyph-name="uni20BD.tab" unicode="&#xf4fd;" horiz-adv-x="628" 
d="M254 327v-84h211v-49h-211v-194h-55v194h-102v49h102v84h-102v50h102v323h79q123 0 181.5 -44.5t58.5 -138.5q0 -96 -60 -143t-184 -47h-20zM254 651v-274h22q101 0 144 32.5t43 109.5q0 71 -43.5 101.5t-146.5 30.5h-19z" />
    <glyph glyph-name="uni20B8.tab" unicode="&#xf5f3;" horiz-adv-x="628" 
d="M73 649v51h483v-51h-483zM285 513h-212v52h483v-52h-213v-513h-58v513z" />
    <glyph glyph-name="at.case" unicode="&#xf623;" horiz-adv-x="909" 
d="M859 339q0 -99 -40.5 -160.5t-112.5 -61.5q-44 0 -77 23.5t-36 69.5l-2 1q-15 -44 -53.5 -70.5t-89.5 -26.5q-48 0 -87.5 24t-63 68.5t-23.5 103.5q0 89 48.5 141.5t124.5 52.5q60 0 97.5 -31t45.5 -73v89h45v-242q0 -47 20 -67t50 -20q51 0 78 47.5t27 130.5
q0 105 -45 179.5t-125.5 112.5t-185.5 38q-109 0 -189.5 -44t-123.5 -124.5t-43 -186.5t44 -186t124.5 -123.5t187.5 -43.5v-45q-126 0 -217.5 50t-139.5 139.5t-48 206.5q0 116 47.5 207t139 143t218.5 52q119 0 211 -46t143 -131t51 -197zM587 307v7q0 64 -34.5 104.5
t-100.5 40.5q-63 0 -97 -38.5t-34 -107.5q0 -70 33.5 -112t96.5 -42q66 0 101 42t35 106z" />
    <glyph glyph-name="zero.denominator" unicode="&#xf655;" horiz-adv-x="297" 
d="M38 171q0 90 27.5 134t83.5 44q112 0 112 -177q0 -179 -110 -179q-57 0 -85 44t-28 134zM211 172q0 71 -14 103t-46 32q-34 0 -49 -31.5t-15 -104.5q0 -71 15 -103t49 -32q32 0 46 32t14 104z" />
    <glyph glyph-name="one.denominator" unicode="&#xf656;" horiz-adv-x="254" 
d="M29 244v48l149 57v-349h-47v287z" />
    <glyph glyph-name="two.denominator" unicode="&#xf657;" horiz-adv-x="324" 
d="M143 43h134v-43h-223v4l106 134q36 45 48.5 69.5t12.5 44.5q0 26 -15 40t-38 14q-20 0 -35 -11.5t-29 -33.5l-38 25q18 32 45.5 47.5t59.5 15.5q43 0 71 -26.5t28 -68.5q0 -30 -16.5 -61.5t-51.5 -75.5z" />
    <glyph glyph-name="three.denominator" unicode="&#xf658;" horiz-adv-x="299" 
d="M267 102q0 -46 -32.5 -76.5t-86.5 -30.5q-39 0 -69 17t-44 52l37 27q9 -23 29 -38t48 -15q30 0 49.5 17.5t19.5 45.5q0 29 -21 50t-51 21h-17v41h16q23 0 38 15.5t15 34.5q0 18 -14.5 30.5t-35.5 12.5q-20 0 -36 -11.5t-22 -30.5l-39 19q10 33 36.5 49.5t62.5 16.5
q43 0 70 -22t27 -57q0 -29 -16 -47.5t-43 -26.5q41 -11 60 -35.5t19 -58.5z" />
    <glyph glyph-name="four.denominator" unicode="&#xf659;" horiz-adv-x="342" 
d="M254 137h50v-43h-50v-94h-47v94h-173v6l167 243h53v-206zM207 283l-101 -146h101v146z" />
    <glyph glyph-name="five.denominator" unicode="&#xf65a;" horiz-adv-x="288" 
d="M249 110q0 -50 -32.5 -82.5t-86.5 -32.5q-39 0 -69.5 17t-45.5 52l37 27q9 -23 29.5 -38t48.5 -15q32 0 51 19.5t19 52.5q0 35 -22.5 54t-64.5 19q-26 0 -58 -8h-6l22 169h157v-43h-120l-10 -77q13 3 32 3q51 0 85 -31.5t34 -85.5z" />
    <glyph glyph-name="six.denominator" unicode="&#xf65b;" horiz-adv-x="298" 
d="M267 107q0 -52 -34.5 -81t-79.5 -29q-49 0 -83 30t-34 81q0 66 56 147l64 95h54v-5l-104 -149q25 18 55 18q42 0 74 -28.5t32 -78.5zM218 106q0 30 -19 47.5t-47 17.5t-47.5 -17.5t-19.5 -46.5q0 -31 20 -49t48 -18t46.5 17.5t18.5 48.5z" />
    <glyph glyph-name="seven.denominator" unicode="&#xf65c;" horiz-adv-x="266" 
d="M244 350v-10l-117 -340h-47v7l104 300h-155v43h215z" />
    <glyph glyph-name="eight.denominator" unicode="&#xf65d;" horiz-adv-x="305" 
d="M272 99q0 -44 -32.5 -74t-87.5 -30t-87.5 30t-32.5 74q0 35 19.5 61t53.5 35q-23 7 -39 27.5t-16 46.5q0 37 28.5 61.5t75.5 24.5q45 0 72.5 -25t27.5 -61q0 -27 -15.5 -47t-38.5 -28q32 -8 52 -34t20 -61zM96 264q0 -22 15.5 -37t42.5 -15q25 0 39.5 15t14.5 37
q0 23 -14.5 35.5t-41.5 12.5t-41 -12.5t-15 -35.5zM226 104q0 31 -19.5 49t-52.5 18t-54 -18.5t-21 -49.5t20.5 -48t54.5 -17t53 17t19 49z" />
    <glyph glyph-name="nine.denominator" unicode="&#xf65e;" horiz-adv-x="298" 
d="M262 243q0 -66 -56 -147l-64 -95h-54v5l104 149q-25 -18 -55 -18q-42 0 -74 28.5t-32 78.5q0 52 34.5 81t79.5 29q49 0 83 -30t34 -81zM146 180q28 0 47.5 17.5t19.5 46.5q0 31 -20 49t-48 18t-46.5 -17.5t-18.5 -48.5q0 -30 19 -47.5t47 -17.5z" />
    <glyph glyph-name="zero.numerator" unicode="&#xf661;" horiz-adv-x="297" 
d="M38 525q0 90 27.5 134t83.5 44q112 0 112 -177q0 -179 -110 -179q-57 0 -85 44t-28 134zM211 526q0 71 -14 103t-46 32q-34 0 -49 -31.5t-15 -104.5q0 -71 15 -103t49 -32q32 0 46 32t14 104z" />
    <glyph glyph-name="one.numerator" unicode="&#xf662;" horiz-adv-x="268" 
d="M29 594v48l149 57v-349h-47v287z" />
    <glyph glyph-name="two.numerator" unicode="&#xf663;" horiz-adv-x="323" 
d="M143 397h134v-43h-223v4l106 134q36 45 48.5 69.5t12.5 44.5q0 26 -15 40t-38 14q-20 0 -35 -11.5t-29 -33.5l-38 25q18 32 45.5 47.5t59.5 15.5q43 0 71 -26.5t28 -68.5q0 -30 -16.5 -61.5t-51.5 -75.5z" />
    <glyph glyph-name="three.numerator" unicode="&#xf664;" horiz-adv-x="301" 
d="M267 457q0 -46 -32.5 -76.5t-86.5 -30.5q-39 0 -69 17t-44 52l37 27q9 -23 29 -38t48 -15q30 0 49.5 17.5t19.5 45.5q0 29 -21 50t-51 21h-17v41h16q23 0 38 15.5t15 34.5q0 18 -14.5 30.5t-35.5 12.5q-20 0 -36 -11.5t-22 -30.5l-39 19q10 33 36.5 49.5t62.5 16.5
q43 0 70 -22t27 -57q0 -29 -16 -47.5t-43 -26.5q41 -11 60 -35.5t19 -58.5z" />
    <glyph glyph-name="four.numerator" unicode="&#xf665;" horiz-adv-x="343" 
d="M254 492h50v-43h-50v-94h-47v94h-173v6l167 243h53v-206zM207 638l-101 -146h101v146z" />
    <glyph glyph-name="five.numerator" unicode="&#xf666;" horiz-adv-x="288" 
d="M249 465q0 -50 -32.5 -82.5t-86.5 -32.5q-39 0 -69.5 17t-45.5 52l37 27q9 -23 29.5 -38t48.5 -15q32 0 51 19.5t19 52.5q0 35 -22.5 54t-64.5 19q-26 0 -58 -8h-6l22 169h157v-43h-120l-10 -77q13 3 32 3q51 0 85 -31.5t34 -85.5z" />
    <glyph glyph-name="six.numerator" unicode="&#xf667;" horiz-adv-x="298" 
d="M267 457q0 -52 -34.5 -81t-79.5 -29q-49 0 -83 30t-34 81q0 66 56 147l64 95h54v-5l-104 -149q25 18 55 18q42 0 74 -28.5t32 -78.5zM218 456q0 30 -19 47.5t-47 17.5t-47.5 -17.5t-19.5 -46.5q0 -31 20 -49t48 -18t46.5 17.5t18.5 48.5z" />
    <glyph glyph-name="seven.numerator" unicode="&#xf668;" horiz-adv-x="266" 
d="M244 700v-10l-117 -340h-47v7l104 300h-155v43h215z" />
    <glyph glyph-name="eight.numerator" unicode="&#xf669;" horiz-adv-x="305" 
d="M272 450q0 -44 -32.5 -74t-87.5 -30t-87.5 30t-32.5 74q0 35 19.5 61t53.5 35q-23 7 -39 27.5t-16 46.5q0 37 28.5 61.5t75.5 24.5q45 0 72.5 -25t27.5 -61q0 -27 -15.5 -47t-38.5 -28q32 -8 52 -34t20 -61zM96 615q0 -22 15.5 -37t42.5 -15q25 0 39.5 15t14.5 37
q0 23 -14.5 35.5t-41.5 12.5t-41 -12.5t-15 -35.5zM226 455q0 31 -19.5 49t-52.5 18t-54 -18.5t-21 -49.5t20.5 -48t54.5 -17t53 17t19 49z" />
    <glyph glyph-name="nine.numerator" unicode="&#xf66a;" horiz-adv-x="298" 
d="M262 598q0 -66 -56 -147l-64 -95h-54v5l104 149q-25 -18 -55 -18q-42 0 -74 28.5t-32 78.5q0 52 34.5 81t79.5 29q49 0 83 -30t34 -81zM146 535q28 0 47.5 17.5t19.5 46.5q0 31 -20 49t-48 18t-46.5 -17.5t-18.5 -48.5q0 -30 19 -47.5t47 -17.5z" />
    <glyph glyph-name="exclamdown.case" unicode="&#xf6b4;" horiz-adv-x="273" 
d="M98 673q0 16 10.5 26.5t28.5 10.5q17 0 27.5 -10.5t10.5 -26.5q0 -17 -10 -27.5t-28 -10.5t-28.5 10.5t-10.5 27.5zM165 0h-56l3 534h49z" />
    <glyph glyph-name="questiondown.case" unicode="&#xf6b5;" horiz-adv-x="544" 
d="M238 645q0 16 11 27t29 11q17 0 27.5 -11t10.5 -27t-10 -27t-28 -11q-19 0 -29.5 11t-10.5 27zM80 168q0 45 12.5 79.5t30.5 58.5t48 56q28 31 44.5 52.5t27.5 51.5t11 68h47q0 -49 -12 -84.5t-29 -58.5t-46 -55q-39 -41 -58 -74.5t-19 -87.5q0 -63 34.5 -101t95.5 -38
q64 0 99.5 40t35.5 113h48v-21q-6 -91 -56.5 -134t-126.5 -43q-82 0 -134.5 46.5t-52.5 131.5z" />
    <glyph glyph-name="guillemotleft.case" unicode="&#xf6b6;" horiz-adv-x="501" 
d="M221 340l192 208v-67l-133 -140l133 -141v-68zM34 340l192 208v-67l-133 -140l133 -141v-68z" />
    <glyph glyph-name="guillemotright.case" unicode="&#xf6b7;" horiz-adv-x="501" 
d="M89 480v68l192 -208l-192 -208v67l132 140zM275 480v68l193 -208l-193 -208v67l133 140z" />
    <glyph glyph-name="guilsinglleft.case" unicode="&#xf6b8;" horiz-adv-x="315" 
d="M34 340l192 208v-67l-133 -140l133 -141v-68z" />
    <glyph glyph-name="guilsinglright.case" unicode="&#xf6b9;" horiz-adv-x="315" 
d="M89 480v68l192 -208l-192 -208v67l132 140z" />
    <glyph glyph-name="uniFEFF" unicode="&#xfeff;" 
 />
    <glyph glyph-name="i.loclTRK" horiz-adv-x="234" 
d="M143 0h-51v433h51v-433zM78 587q0 16 11.5 26.5t28.5 10.5t28 -10.5t11 -26.5t-11.5 -27t-27.5 -11q-17 0 -28.5 11t-11.5 27z" />
    <glyph glyph-name="a.ss01" horiz-adv-x="515" 
d="M443 242v-242h-46v90q-20 -42 -66.5 -69.5t-108.5 -27.5q-74 0 -119 38.5t-45 99.5q0 56 37 94t101 38q24 0 43 -4.5t44 -13.5q15 -5 30.5 -9.5t30.5 -4.5q48 0 48 50t-38.5 80t-96.5 30q-59 0 -97 -31.5t-45 -81.5l-46 15q10 69 65.5 107.5t129.5 38.5q73 0 126 -44
t53 -153zM392 178v31q-25 -20 -60 -20q-16 0 -31 3.5t-37 10.5q-5 1 -26.5 7t-42.5 6q-40 0 -62.5 -22.5t-22.5 -60.5q0 -42 31 -67t88 -25q50 0 87 19.5t56.5 51t19.5 66.5z" />
    <glyph glyph-name="aacute.ss01" horiz-adv-x="515" 
d="M443 242v-242h-46v90q-20 -42 -66.5 -69.5t-108.5 -27.5q-74 0 -119 38.5t-45 99.5q0 56 37 94t101 38q24 0 43 -4.5t44 -13.5q15 -5 30.5 -9.5t30.5 -4.5q48 0 48 50t-38.5 80t-96.5 30q-59 0 -97 -31.5t-45 -81.5l-46 15q10 69 65.5 107.5t129.5 38.5q73 0 126 -44
t53 -153zM392 178v31q-25 -20 -60 -20q-16 0 -31 3.5t-37 10.5q-5 1 -26.5 7t-42.5 6q-40 0 -62.5 -22.5t-22.5 -60.5q0 -42 31 -67t88 -25q50 0 87 19.5t56.5 51t19.5 66.5zM210 568l98 140l48 -38l-120 -123z" />
    <glyph glyph-name="abreve.ss01" horiz-adv-x="515" 
d="M443 242v-242h-46v90q-20 -42 -66.5 -69.5t-108.5 -27.5q-74 0 -119 38.5t-45 99.5q0 56 37 94t101 38q24 0 43 -4.5t44 -13.5q15 -5 30.5 -9.5t30.5 -4.5q48 0 48 50t-38.5 80t-96.5 30q-59 0 -97 -31.5t-45 -81.5l-46 15q10 69 65.5 107.5t129.5 38.5q73 0 126 -44
t53 -153zM392 178v31q-25 -20 -60 -20q-16 0 -31 3.5t-37 10.5q-5 1 -26.5 7t-42.5 6q-40 0 -62.5 -22.5t-22.5 -60.5q0 -42 31 -67t88 -25q50 0 87 19.5t56.5 51t19.5 66.5zM127 660l34 20q36 -69 103 -69q66 0 104 69l34 -20q-20 -45 -55 -70.5t-83 -25.5q-47 0 -82 25.5
t-55 70.5z" />
    <glyph glyph-name="acircumflex.ss01" horiz-adv-x="515" 
d="M443 242v-242h-46v90q-20 -42 -66.5 -69.5t-108.5 -27.5q-74 0 -119 38.5t-45 99.5q0 56 37 94t101 38q24 0 43 -4.5t44 -13.5q15 -5 30.5 -9.5t30.5 -4.5q48 0 48 50t-38.5 80t-96.5 30q-59 0 -97 -31.5t-45 -81.5l-46 15q10 69 65.5 107.5t129.5 38.5q73 0 126 -44
t53 -153zM392 178v31q-25 -20 -60 -20q-16 0 -31 3.5t-37 10.5q-5 1 -26.5 7t-42.5 6q-40 0 -62.5 -22.5t-22.5 -60.5q0 -42 31 -67t88 -25q50 0 87 19.5t56.5 51t19.5 66.5zM294 678l101 -98l-20 -25l-112 75l-112 -75l-20 25l102 98h61z" />
    <glyph glyph-name="adieresis.ss01" horiz-adv-x="515" 
d="M443 242v-242h-46v90q-20 -42 -66.5 -69.5t-108.5 -27.5q-74 0 -119 38.5t-45 99.5q0 56 37 94t101 38q24 0 43 -4.5t44 -13.5q15 -5 30.5 -9.5t30.5 -4.5q48 0 48 50t-38.5 80t-96.5 30q-59 0 -97 -31.5t-45 -81.5l-46 15q10 69 65.5 107.5t129.5 38.5q73 0 126 -44
t53 -153zM392 178v31q-25 -20 -60 -20q-16 0 -31 3.5t-37 10.5q-5 1 -26.5 7t-42.5 6q-40 0 -62.5 -22.5t-22.5 -60.5q0 -42 31 -67t88 -25q50 0 87 19.5t56.5 51t19.5 66.5zM121 600q0 16 11 26t28 10q16 0 26.5 -10t10.5 -26t-10.5 -26.5t-26.5 -10.5q-17 0 -28 10.5
t-11 26.5zM329 600q0 16 11 26t28 10q16 0 26.5 -10t10.5 -26t-10.5 -26.5t-26.5 -10.5q-17 0 -28 10.5t-11 26.5z" />
    <glyph glyph-name="agrave.ss01" horiz-adv-x="515" 
d="M443 242v-242h-46v90q-20 -42 -66.5 -69.5t-108.5 -27.5q-74 0 -119 38.5t-45 99.5q0 56 37 94t101 38q24 0 43 -4.5t44 -13.5q15 -5 30.5 -9.5t30.5 -4.5q48 0 48 50t-38.5 80t-96.5 30q-59 0 -97 -31.5t-45 -81.5l-46 15q10 69 65.5 107.5t129.5 38.5q73 0 126 -44
t53 -153zM392 178v31q-25 -20 -60 -20q-16 0 -31 3.5t-37 10.5q-5 1 -26.5 7t-42.5 6q-40 0 -62.5 -22.5t-22.5 -60.5q0 -42 31 -67t88 -25q50 0 87 19.5t56.5 51t19.5 66.5zM162 670l49 38l97 -140l-26 -21z" />
    <glyph glyph-name="amacron.ss01" horiz-adv-x="515" 
d="M443 242v-242h-46v90q-20 -42 -66.5 -69.5t-108.5 -27.5q-74 0 -119 38.5t-45 99.5q0 56 37 94t101 38q24 0 43 -4.5t44 -13.5q15 -5 30.5 -9.5t30.5 -4.5q48 0 48 50t-38.5 80t-96.5 30q-59 0 -97 -31.5t-45 -81.5l-46 15q10 69 65.5 107.5t129.5 38.5q73 0 126 -44
t53 -153zM392 178v31q-25 -20 -60 -20q-16 0 -31 3.5t-37 10.5q-5 1 -26.5 7t-42.5 6q-40 0 -62.5 -22.5t-22.5 -60.5q0 -42 31 -67t88 -25q50 0 87 19.5t56.5 51t19.5 66.5zM130 627h268v-46h-268v46z" />
    <glyph glyph-name="aogonek.ss01" horiz-adv-x="515" 
d="M444 -194v-35q-25 -13 -56 -13q-48 0 -75 28t-27 68q0 41 29 81t82 73v82q-20 -42 -66.5 -69.5t-108.5 -27.5q-74 0 -119 38.5t-45 99.5q0 56 37 94t101 38q24 0 43 -4.5t44 -13.5q15 -5 30.5 -9.5t30.5 -4.5q48 0 48 50t-38.5 80t-96.5 30q-59 0 -97 -31.5t-45 -81.5
l-46 15q10 69 65.5 107.5t129.5 38.5q73 0 126 -44t53 -153v-242q-114 -69 -114 -137q0 -28 18.5 -47.5t50.5 -19.5q19 0 46 10zM392 178v31q-25 -20 -60 -20q-16 0 -31 3.5t-37 10.5q-5 1 -26.5 7t-42.5 6q-40 0 -62.5 -22.5t-22.5 -60.5q0 -42 31 -67t88 -25q50 0 87 19.5
t56.5 51t19.5 66.5z" />
    <glyph glyph-name="aring.ss01" horiz-adv-x="515" 
d="M443 242v-242h-46v90q-20 -42 -66.5 -69.5t-108.5 -27.5q-74 0 -119 38.5t-45 99.5q0 56 37 94t101 38q24 0 43 -4.5t44 -13.5q15 -5 30.5 -9.5t30.5 -4.5q48 0 48 50t-38.5 80t-96.5 30q-59 0 -97 -31.5t-45 -81.5l-46 15q10 69 65.5 107.5t129.5 38.5q73 0 126 -44
t53 -153zM392 178v31q-25 -20 -60 -20q-16 0 -31 3.5t-37 10.5q-5 1 -26.5 7t-42.5 6q-40 0 -62.5 -22.5t-22.5 -60.5q0 -42 31 -67t88 -25q50 0 87 19.5t56.5 51t19.5 66.5zM167 644q0 39 28 66t70 27q41 0 69 -27t28 -66q0 -40 -28 -67.5t-69 -27.5q-43 0 -70.5 27
t-27.5 68zM317 644q0 26 -13.5 40.5t-38.5 14.5t-39.5 -15t-14.5 -40q0 -26 14.5 -41t39.5 -15q24 0 38 15t14 41z" />
    <glyph glyph-name="atilde.ss01" horiz-adv-x="515" 
d="M443 242v-242h-46v90q-20 -42 -66.5 -69.5t-108.5 -27.5q-74 0 -119 38.5t-45 99.5q0 56 37 94t101 38q24 0 43 -4.5t44 -13.5q15 -5 30.5 -9.5t30.5 -4.5q48 0 48 50t-38.5 80t-96.5 30q-59 0 -97 -31.5t-45 -81.5l-46 15q10 69 65.5 107.5t129.5 38.5q73 0 126 -44
t53 -153zM392 178v31q-25 -20 -60 -20q-16 0 -31 3.5t-37 10.5q-5 1 -26.5 7t-42.5 6q-40 0 -62.5 -22.5t-22.5 -60.5q0 -42 31 -67t88 -25q50 0 87 19.5t56.5 51t19.5 66.5zM246 618q-16 9 -26.5 13.5t-22.5 4.5q-20 0 -29.5 -13t-10.5 -34h-44q0 45 23 68.5t61 23.5
q20 0 34 -5.5t31 -16.5q19 -11 31.5 -16.5t31.5 -5.5q26 0 36 13t10 39h44q0 -46 -21 -71.5t-66 -25.5q-24 0 -42 6.5t-40 19.5z" />
    <glyph glyph-name="u.ss02" horiz-adv-x="500" 
d="M72 191v242h52v-230q0 -74 32 -115t95 -41q62 0 93.5 41t31.5 115v230h51v-242q0 -93 -47 -144.5t-129 -51.5q-83 0 -131 51.5t-48 144.5z" />
    <glyph glyph-name="f_b" horiz-adv-x="834" 
d="M789 217q0 -69 -29 -120t-77 -78t-103 -27q-59 0 -102.5 29.5t-66.5 78.5v-100h-47v482q0 67 -10 106.5t-34 57.5t-66 18q-45 0 -68.5 -19t-32.5 -58t-9 -107v-47h108v-47h-108v-386h-51v386h-77v47h77v63q0 107 36 160.5t126 53.5q89 0 125 -53.5t36 -159.5v-142
q21 39 62.5 62.5t97.5 23.5q59 0 107.5 -27.5t77 -78t28.5 -118.5zM736 218q0 80 -44 126.5t-115 46.5q-51 0 -87.5 -23.5t-55 -62t-18.5 -81.5v-11q0 -41 19 -80.5t56 -64.5t88 -25q71 0 114 48.5t43 126.5z" />
    <glyph glyph-name="f_f_b" horiz-adv-x="1095" 
d="M1050 217q0 -69 -29 -120t-77 -78t-103 -27q-51 0 -91.5 23t-65.5 62v-77h-48v518q0 77 -25.5 113t-86.5 36q-44 0 -67 -19.5t-32 -60.5t-9 -113v-41h107v-47h-107v-386h-52v386h-220v-386h-51v386h-77v47h77v65q0 87 36 136t121 49q53 0 85.5 -21.5t47.5 -63.5
q12 57 47.5 86t99.5 29q88 0 122.5 -50.5t34.5 -134.5v-157q23 32 61 51t89 19q59 0 107.5 -27.5t77 -78t28.5 -118.5zM144 433h220v44q0 82 -28 121t-89 39q-58 0 -80.5 -36.5t-22.5 -122.5v-45zM997 218q0 80 -44 126.5t-116 46.5q-57 0 -95.5 -29.5t-54.5 -76.5v-132
q17 -48 56.5 -79t96.5 -31q71 0 114 48.5t43 126.5z" />
    <glyph glyph-name="f_f_h" horiz-adv-x="1064" 
d="M992 257v-257h-52v247q0 72 -33 108t-85 36q-61 0 -98 -45t-37 -116v-230h-51v518q0 77 -25.5 113t-86.5 36q-44 0 -67 -19.5t-32 -60.5t-9 -113v-41h107v-47h-107v-386h-52v386h-220v-386h-51v386h-77v47h77v65q0 87 36 136t121 49q53 0 85.5 -21.5t47.5 -63.5
q12 57 47.5 86t99.5 29q88 0 122.5 -50.5t34.5 -134.5v-169q21 35 59.5 57.5t85.5 22.5q44 0 80.5 -21.5t58 -62.5t21.5 -98zM144 433h220v44q0 82 -28 121t-89 39q-58 0 -80.5 -36.5t-22.5 -122.5v-45z" />
    <glyph glyph-name="f_f_j" horiz-adv-x="768" 
d="M416 474v-41h107v-47h-107v-386h-52v386h-220v-386h-51v386h-77v47h77v65q0 87 36 136t121 49q55 0 87 -22.5t48 -66.5q11 59 46 89t99 30q88 0 122.5 -51t34.5 -137h-51q-1 73 -27 107.5t-85 34.5q-44 0 -67 -19.5t-32 -60.5t-9 -113zM144 433h220v38q-2 87 -29 126.5
t-88 39.5q-58 0 -80.5 -36.5t-22.5 -122.5v-45zM635 433h51v-518q0 -79 -31 -118t-101 -39h-15v47q4 -1 13 -1q45 0 64 28.5t19 88.5v512z" />
    <glyph glyph-name="f_f_k" horiz-adv-x="979" 
d="M759 236l213 -229v-7h-62l-197 209h-26v-209h-51v518q0 77 -25.5 113t-86.5 36q-44 0 -67 -19.5t-32 -60.5t-9 -113v-41h107v-47h-107v-386h-52v386h-220v-386h-51v386h-77v47h77v65q0 87 36 136t121 49q53 0 85.5 -21.5t47.5 -63.5q12 57 47.5 86t99.5 29
q88 0 122.5 -50.5t34.5 -134.5v-267h36l153 172h56v-7zM144 433h220v44q0 82 -28 121t-89 39q-58 0 -80.5 -36.5t-22.5 -122.5v-45z" />
    <glyph glyph-name="f_h" horiz-adv-x="792" 
d="M720 257v-257h-51v247q0 72 -33.5 108t-85.5 36q-61 0 -97.5 -45t-36.5 -116v-230h-52v482q0 67 -10 106.5t-34 57.5t-66 18q-45 0 -68.5 -19t-32.5 -58t-9 -107v-47h108v-47h-108v-386h-51v386h-77v47h77v63q0 107 36 160.5t126 53.5q89 0 125 -53.5t36 -159.5v-138
q21 35 59.5 57.5t84.5 22.5q45 0 81 -21.5t57.5 -62.5t21.5 -98z" />
    <glyph glyph-name="f_j" horiz-adv-x="497" 
d="M144 480v-47h108v-47h-108v-386h-51v386h-77v47h77v63q0 106 35.5 160t124.5 54q92 0 127.5 -51.5t35.5 -133.5h-52q2 70 -24 104.5t-87 34.5q-44 0 -67.5 -19t-32.5 -58t-9 -107zM364 433h52v-518q0 -79 -31.5 -118t-101.5 -39h-15v47q5 -1 13 -1q45 0 64.5 29t18.5 88
v512z" />
    <glyph glyph-name="f_k" horiz-adv-x="707" 
d="M487 236l212 -229v-7h-61l-196 209h-26v-209h-52v482q0 67 -10 106.5t-34 57.5t-66 18q-45 0 -68.5 -19t-32.5 -58t-9 -107v-47h108v-47h-108v-386h-51v386h-77v47h77v63q0 107 36 160.5t126 53.5q89 0 125 -53.5t36 -159.5v-236h35l6 6v1l147 165h56v-7z" />
    <glyph glyph-name="uni0430.ss01" horiz-adv-x="515" 
d="M443 242v-242h-46v90q-20 -42 -66.5 -69.5t-108.5 -27.5q-74 0 -119 38.5t-45 99.5q0 56 37 94t101 38q24 0 43 -4.5t44 -13.5q15 -5 30.5 -9.5t30.5 -4.5q48 0 48 50t-38.5 80t-96.5 30q-59 0 -97 -31.5t-45 -81.5l-46 15q10 69 65.5 107.5t129.5 38.5q73 0 126 -44
t53 -153zM392 178v31q-25 -20 -60 -20q-16 0 -31 3.5t-37 10.5q-5 1 -26.5 7t-42.5 6q-40 0 -62.5 -22.5t-22.5 -60.5q0 -42 31 -67t88 -25q50 0 87 19.5t56.5 51t19.5 66.5z" />
    <glyph glyph-name="hyphen.case" horiz-adv-x="384" 
d="M58 376h268v-47h-268v47z" />
    <glyph glyph-name="uni00AD.case" horiz-adv-x="384" 
d="M58 376h268v-47h-268v47z" />
    <glyph glyph-name="endash.case" horiz-adv-x="560" 
d="M47 383h467v-47h-467v47z" />
    <glyph glyph-name="emdash.case" horiz-adv-x="760" 
d="M47 383h667v-47h-667v47z" />
    <glyph glyph-name="quoteright.case" horiz-adv-x="241" 
d="M177 658q0 -19 -10.5 -40t-39.5 -70l-42 -66h-54l87 145q-20 2 -31 13t-11 27q0 19 14.5 31t34.5 12q23 0 37.5 -15t14.5 -37z" />
    <glyph glyph-name="uni030C.alt" 
d="M-27 516l-35 -1v188l52 -3z" />
    <glyph glyph-name="uni0308.case" 
d="M-302 805q0 18 12 29t31 11q17 0 28.5 -11t11.5 -29t-11.5 -29.5t-28.5 -11.5q-19 0 -31 11.5t-12 29.5zM-98 805q0 18 12 29t30 11q17 0 28.5 -11t11.5 -29t-11.5 -29.5t-28.5 -11.5q-18 0 -30 11.5t-12 29.5z" />
    <glyph glyph-name="uni0307.case" 
d="M-98 805q0 18 12 29t31 11q17 0 28.5 -11t11.5 -29t-11.5 -29.5t-28.5 -11.5q-19 0 -31 11.5t-12 29.5z" />
    <glyph glyph-name="gravecomb.case" 
d="M-167 825l47 49l107 -107l-27 -29z" />
    <glyph glyph-name="acutecomb.case" 
d="M-164 768l107 107l47 -50l-127 -86z" />
    <glyph glyph-name="uni030B.case" 
d="M-307 761l72 104l50 -50l-92 -75zM-149 763l81 98l44 -53l-98 -68z" />
    <glyph glyph-name="uni0302.case" 
d="M-127 868l101 -103l-22 -26l-105 73l-102 -73l-23 26l102 103h49z" />
    <glyph glyph-name="uni030C.case" 
d="M-152 805l104 70l22 -26l-102 -97h-49l-101 97l23 26z" />
    <glyph glyph-name="uni0306.case" 
d="M-287 849l34 16q15 -30 39.5 -47.5t53.5 -17.5q30 0 55 18t37 47l35 -16q-11 -47 -45 -74t-82 -27t-82 27t-45 74z" />
    <glyph glyph-name="uni030A.case" 
d="M-234 819q0 38 30 57.5t83 19.5q52 0 81.5 -19.5t29.5 -57.5t-29.5 -57.5t-81.5 -19.5q-53 0 -83 19.5t-30 57.5zM-57 819q0 38 -64 38q-66 0 -66 -38t66 -38q64 0 64 38z" />
    <glyph glyph-name="tildecomb.case" 
d="M-183 781q-19 9 -28.5 12.5t-22.5 3.5q-36 0 -38 -40h-46q0 45 23 66.5t60 21.5q20 0 33.5 -5t29.5 -14q18 -10 31 -14.5t33 -4.5q26 0 37.5 10t11.5 33h46q0 -44 -23 -68t-68 -24q-23 0 -41 6t-38 17z" />
    <glyph glyph-name="uni0304.case" 
d="M-310 815h300v-45h-300v45z" />
    <glyph glyph-name="uni0326.case" 
d="M-64 -112q-17 3 -27 12.5t-10 22.5q0 15 13 24.5t29 9.5q21 0 33 -12t12 -33q0 -13 -9 -30t-37 -61l-35 -55h-46z" />
    <glyph glyph-name="uni0327.case" 
d="M-97 -61q45 -3 65 -25t20 -54q0 -40 -28.5 -61t-70.5 -21q-56 0 -80 36l23 25q22 -26 58 -26q24 0 38.5 13t14.5 35q0 44 -63 44h-20v105h43v-71z" />
    <glyph glyph-name="uni0328.case" 
d="M-190 -140q0 53 37.5 97.5t99.5 70.5h4l13 -28q-39 -15 -71 -51t-32 -75q0 -34 18.5 -53t53.5 -19q15 0 37 5v-36q-26 -13 -56 -13q-48 0 -76 28t-28 74z" />
    <glyph glyph-name="uni0335.case" 
d="M-449 435h439v-51h-439v51z" />
    <glyph glyph-name="uni030C.vertical.case" orientation="v" 
d="M-74 711l64 -11l-29 -187l-35 -1v199z" />
    <glyph glyph-name="uni0308.narrow" 
d="M-199 599q0 15 11 25t27 10q15 0 25.5 -10t10.5 -25t-10.5 -25.5t-25.5 -10.5q-16 0 -27 10.5t-11 25.5zM-84 599q0 15 11 25t27 10t26 -10t10 -25t-10 -25.5t-26 -10.5t-27 10.5t-11 25.5z" />
    <glyph glyph-name="brevecombcy" 
d="M-286 630h46q0 -35 24 -56t68 -21q43 0 68 20t24 57h46q0 -55 -37.5 -85.5t-102.5 -30.5q-63 0 -100 30.5t-36 85.5z" />
    <glyph glyph-name="descendercy" horiz-adv-x="119" 
d="M60 0h-38l5 47h82v-160h-49v113z" />
    <glyph glyph-name="descendercy.alt" horiz-adv-x="167" 
d="M58 20h51v-133h-51v133z" />
    <glyph glyph-name="descendercy.alt.case" horiz-adv-x="159" 
d="M55 20h50v-150h-50v150z" />
    <glyph glyph-name="brevecombcy.case" 
d="M-304 860h54q15 -69 94 -69q45 0 68.5 19t29.5 50h48q-2 -49 -42 -81.5t-104 -32.5q-56 0 -99 26.5t-49 87.5z" />
    <glyph glyph-name="descendercy.case" horiz-adv-x="115" 
d="M48 0h-55l4 54h104v-179h-53v125z" />
    <glyph glyph-name="uacute.ss02" horiz-adv-x="500" 
d="M72 191v242h52v-230q0 -74 32 -115t95 -41q62 0 93.5 41t31.5 115v230h51v-242q0 -93 -47 -144.5t-129 -51.5q-83 0 -131 51.5t-48 144.5zM196 568l98 140l48 -38l-120 -123z" />
    <glyph glyph-name="ubreve.ss02" horiz-adv-x="500" 
d="M72 191v242h52v-230q0 -74 32 -115t95 -41q62 0 93.5 41t31.5 115v230h51v-242q0 -93 -47 -144.5t-129 -51.5q-83 0 -131 51.5t-48 144.5zM112 660l34 20q36 -69 103 -69q66 0 104 69l34 -20q-20 -45 -55 -70.5t-83 -25.5q-47 0 -82 25.5t-55 70.5z" />
    <glyph glyph-name="ucircumflex.ss02" horiz-adv-x="500" 
d="M72 191v242h52v-230q0 -74 32 -115t95 -41q62 0 93.5 41t31.5 115v230h51v-242q0 -93 -47 -144.5t-129 -51.5q-83 0 -131 51.5t-48 144.5zM280 678l101 -98l-20 -25l-112 75l-112 -75l-20 25l102 98h61z" />
    <glyph glyph-name="udieresis.ss02" horiz-adv-x="500" 
d="M72 191v242h52v-230q0 -74 32 -115t95 -41q62 0 93.5 41t31.5 115v230h51v-242q0 -93 -47 -144.5t-129 -51.5q-83 0 -131 51.5t-48 144.5zM107 600q0 16 11 26t28 10q16 0 26.5 -10t10.5 -26t-10.5 -26.5t-26.5 -10.5q-17 0 -28 10.5t-11 26.5zM315 600q0 16 11 26t28 10
q16 0 26.5 -10t10.5 -26t-10.5 -26.5t-26.5 -10.5q-17 0 -28 10.5t-11 26.5z" />
    <glyph glyph-name="ugrave.ss02" horiz-adv-x="500" 
d="M72 191v242h52v-230q0 -74 32 -115t95 -41q62 0 93.5 41t31.5 115v230h51v-242q0 -93 -47 -144.5t-129 -51.5q-83 0 -131 51.5t-48 144.5zM148 670l49 38l97 -140l-26 -21z" />
    <glyph glyph-name="uhungarumlaut.ss02" horiz-adv-x="500" 
d="M72 191v242h52v-230q0 -74 32 -115t95 -41q62 0 93.5 41t31.5 115v230h51v-242q0 -93 -47 -144.5t-129 -51.5q-83 0 -131 51.5t-48 144.5zM149 565l82 149l52 -32l-105 -135zM288 568l98 140l49 -38l-120 -123z" />
    <glyph glyph-name="umacron.ss02" horiz-adv-x="500" 
d="M72 191v242h52v-230q0 -74 32 -115t95 -41q62 0 93.5 41t31.5 115v230h51v-242q0 -93 -47 -144.5t-129 -51.5q-83 0 -131 51.5t-48 144.5zM116 627h268v-46h-268v46z" />
    <glyph glyph-name="uogonek.ss02" horiz-adv-x="500" 
d="M376 433h51v-242q0 -80 -35.5 -130t-99.5 -62q-112 -69 -112 -136q0 -28 18.5 -47.5t50.5 -19.5q19 0 46 10v-35q-25 -13 -56 -13q-48 0 -75 28t-27 68q0 37 24 74t69 68q-74 7 -116 57.5t-42 137.5v242h52v-230q0 -74 32 -115t95 -41q62 0 93.5 41t31.5 115v230z" />
    <glyph glyph-name="uring.ss02" horiz-adv-x="500" 
d="M72 191v242h52v-230q0 -74 32 -115t95 -41q62 0 93.5 41t31.5 115v230h51v-242q0 -93 -47 -144.5t-129 -51.5q-83 0 -131 51.5t-48 144.5zM153 644q0 39 28 66t70 27q41 0 69 -27t28 -66q0 -40 -28 -67.5t-69 -27.5q-43 0 -70.5 27t-27.5 68zM303 644q0 26 -13.5 40.5
t-38.5 14.5t-39.5 -15t-14.5 -40q0 -26 14.5 -41t39.5 -15q24 0 38 15t14 41z" />
    <glyph glyph-name="utilde.ss02" horiz-adv-x="500" 
d="M72 191v242h52v-230q0 -74 32 -115t95 -41q62 0 93.5 41t31.5 115v230h51v-242q0 -93 -47 -144.5t-129 -51.5q-83 0 -131 51.5t-48 144.5zM231 618q-16 9 -26.5 13.5t-22.5 4.5q-20 0 -29.5 -13t-10.5 -34h-44q0 45 23 68.5t61 23.5q20 0 34 -5.5t31 -16.5
q19 -11 31.5 -16.5t31.5 -5.5q26 0 36 13t10 39h44q0 -46 -21 -71.5t-66 -25.5q-24 0 -42 6.5t-40 19.5z" />
    </font>
</defs>
</svg>
