<svg width="657" height="598" viewBox="0 0 657 598" fill="none" xmlns="http://www.w3.org/2000/svg">
<g clip-path="url(#clip0_288_2154)">
<g filter="url(#filter0_d_288_2154)">
<path d="M566.349 62.1205C566.017 45.2419 551.539 32.1273 534.713 33.4462L507.999 35.548C502.679 33.8752 497.017 32.9744 491.14 32.9744C486.336 32.9744 481.671 33.5856 477.22 34.7116C477.252 34.1325 477.263 33.5535 477.263 32.9744C477.263 14.7661 462.496 0 444.286 0C426.076 0 411.309 14.7661 411.309 32.9744C411.309 49.7779 423.877 63.6325 440.125 65.6807C436.843 72.8118 434.999 80.7471 434.999 89.1113C434.999 119.083 458.495 143.565 488.073 145.162V145.688C488.341 145.538 488.631 145.377 488.942 145.195C489.671 145.227 490.4 145.248 491.14 145.248C522.144 145.248 547.282 120.113 547.282 89.1113C547.282 79.7927 544.997 71.0102 540.976 63.2787C542.391 63.536 543.861 63.6325 545.362 63.5253C545.362 63.5253 546.209 63.461 547.582 63.3645C551.282 63.0964 554.821 63.9221 557.909 65.5735C560.955 67.2034 563.561 69.6484 565.459 72.6509C566.135 70.088 566.467 67.4072 566.414 64.6405L566.36 62.1205H566.349ZM517.136 36.9849C515.892 37.1136 514.658 37.3281 513.457 37.5962C511.892 36.9206 510.283 36.3094 508.642 35.7732C511.591 35.355 514.508 35.8054 517.125 36.9849H517.136Z" fill="#FCE79E"/>
</g>
<g filter="url(#filter1_d_288_2154)">
<path d="M393.163 216.773C404.67 188.86 427.502 171.349 452.393 171.349L528.396 166.781C553.823 165.247 577.438 183.445 588.023 212.731L621.043 304.104H355.51L393.163 216.773Z" fill="#F9EEC8"/>
</g>
<path d="M487.611 96.3282C487.611 96.5534 487.633 96.7678 487.686 96.9823L487.783 97.4005L487.761 94.1299C487.686 94.902 487.622 95.6419 487.611 96.3282Z" fill="#F8F8FF"/>
<g filter="url(#filter2_d_288_2154)">
<path d="M566.145 97.7544L560.397 90.0657C560.086 89.6475 559.893 89.1542 559.85 88.6288L557.92 65.7987C557.92 65.7236 557.898 65.6486 557.898 65.5735C554.81 63.9221 551.271 63.0964 547.571 63.3645C546.209 63.461 545.351 63.5254 545.351 63.5254C535.538 64.2438 526.948 56.7589 525.661 46.6575C523.548 49.9924 522.337 53.9065 522.337 58.0779C522.337 59.622 522.337 60.5871 522.337 60.5871C522.337 72.1041 512.556 81.4334 500.481 81.4334C492.888 84.1035 487.965 91.0415 488.062 98.6659L489.628 105.625C490.196 106.816 490.915 107.942 491.783 108.982C493.939 111.534 496.738 114.88 498.85 117.389C500.824 119.737 501.971 122.611 502.143 125.614V125.817C502.561 132.906 498.808 139.618 492.427 143.232C490.7 144.208 489.145 145.098 488.083 145.699L475.236 127.04C475.632 134.471 474.517 142.16 471.997 149.312C468.469 159.317 461.316 167.639 452.039 172.786L507.484 187.144C515.323 189.171 522.862 182.962 522.38 174.888L521.318 157.301C520.9 151.961 523.13 146.76 527.238 143.511L542.337 145.377C553.93 146.814 562.113 139.951 561.191 128.337C561.191 128.252 561.191 128.177 561.191 128.091L561.663 111.984C561.695 110.933 562.306 110 563.25 109.55C567.722 107.416 569.127 101.733 566.167 97.7651L566.145 97.7544Z" fill="white"/>
</g>
<g filter="url(#filter3_d_288_2154)">
<path d="M449.283 247.571C440.714 231.143 423.727 220.837 405.195 220.837L340.775 217.556C330.126 217.009 320.195 222.918 315.573 232.526L255.045 358.504H508.256L449.272 247.571H449.283Z" fill="#FCE79E"/>
</g>
<g filter="url(#filter4_d_288_2154)">
<path d="M376.39 172.69L371.403 151.64L371.478 151.307C374.91 165.097 386.589 175.252 400.702 176.775L400.991 179.456C400.595 186.834 401.699 194.458 404.198 201.557C407.694 211.487 414.793 219.733 423.995 224.837L348.003 238.842C342.834 239.796 338.63 234.692 340.56 229.802L345.665 216.848C347.113 213.181 347.102 209.235 345.869 205.739L367.617 204.227C380.54 204.023 378.32 187.338 376.39 172.69Z" fill="white"/>
</g>
<g filter="url(#filter5_d_288_2154)">
<path d="M306.2 156.272L317.428 136.541L318.64 122.3L319.519 111.942C319.745 109.271 320.431 106.741 321.45 104.403C322.844 104.735 324.292 104.886 325.761 104.832L348.604 103.996C354.309 103.835 358.749 108.939 357.794 114.569L357.258 118.118C355.703 128.466 356.497 139.04 359.574 149.044L362.588 158.835C360.55 164.679 355.596 169.065 349.483 170.33L329.729 174.416L329.096 172.186C327.691 167.263 323.091 163.95 317.986 164.186L315.669 164.293C315.637 163.789 315.573 163.424 315.444 163.221L315.208 162.835L309.632 162.545C306.511 162.384 304.655 158.996 306.2 156.283V156.272Z" fill="white"/>
</g>
<g filter="url(#filter6_d_288_2154)">
<path d="M316.42 84.6184L324.989 84.8543C330.501 79.6427 338.04 76.3828 346.92 76.6938C347.252 76.7045 347.585 76.726 347.928 76.7474L375.232 78.4524C375.661 78.4846 376.09 78.5168 376.519 78.5597C410.579 81.9268 430.312 118.912 414.869 149.441L401.024 176.807C400.916 176.797 400.809 176.775 400.702 176.764C386.6 175.242 374.91 165.087 371.478 151.296L371.403 151.629L376.208 171.885L376.401 172.679C378.331 187.327 380.551 204.012 367.628 204.216L345.879 205.728L326.34 207.079C317.889 207.766 310.94 200.538 311.969 192.12L315.358 164.293H315.669L317.986 164.175C323.101 163.939 327.691 167.253 329.096 172.175L329.729 174.405L349.483 170.32C355.596 169.054 360.561 164.668 362.588 158.824L359.574 149.034C356.497 139.029 355.703 128.466 357.258 118.107L357.794 114.558C358.749 108.928 354.319 103.824 348.603 103.985L325.761 104.821C324.292 104.875 322.844 104.725 321.45 104.392C320.42 106.73 319.744 109.261 319.519 111.931L318.64 122.29C315.144 115.727 314.329 108.478 315.691 101.722C314.093 100.553 312.688 99.0842 311.594 97.347L310.811 96.1031C306.972 91.4492 310.393 84.4361 316.431 84.6076L316.42 84.6184Z" fill="#2D2D48"/>
</g>
<g filter="url(#filter7_d_288_2154)">
<path d="M319.218 355.898L198.495 328.736L198.002 266.637C197.766 237.008 220.544 212.269 250.1 210.071L279.27 208.248C302.199 206.811 321.191 225.813 319.744 248.74L319.229 355.898H319.218Z" fill="#2D2D48"/>
</g>
<g filter="url(#filter8_d_288_2154)">
<path d="M147.974 392.283C160.489 362.461 185.326 343.759 212.394 343.759L295.057 338.869C322.715 337.239 348.399 356.67 359.907 387.95L395.822 485.565H107.018L147.974 392.272V392.283Z" fill="#FCE79E"/>
</g>
<g filter="url(#filter9_d_288_2154)">
<path d="M326.993 276.695L319.218 266.283L317.781 249.286C317.685 249.286 317.599 249.286 317.502 249.286L318.907 265.886C318.811 265.64 318.747 265.371 318.725 265.103L316.795 242.273C316.795 242.198 316.773 242.123 316.773 242.048C313.685 240.397 310.146 239.571 306.446 239.839C305.084 239.936 304.226 240 304.226 240C294.413 240.718 285.823 233.234 284.536 223.132C282.423 226.467 281.212 230.381 281.212 234.552C281.212 236.097 281.212 237.062 281.212 237.062C281.212 248.493 271.56 257.769 259.591 257.897L259.709 277.371C258.594 289.917 253.918 301.863 246.208 311.696L239.14 301.434C239.516 308.437 238.465 315.675 236.095 322.42C232.77 331.846 226.035 339.685 217.295 344.531L217.842 344.671C217.756 344.714 217.681 344.767 217.595 344.81L269.822 358.332C277.211 360.241 284.311 354.397 283.85 346.783L282.852 330.216C282.466 325.187 284.568 320.286 288.429 317.23L302.66 318.988C313.62 320.34 321.642 314.42 320.709 303.407C320.709 303.407 320.988 289.317 320.677 286.304L320.902 285.939L325.245 283.869C327.959 282.572 328.817 279.119 327.015 276.706L326.993 276.695Z" fill="white"/>
</g>
<g filter="url(#filter10_d_288_2154)">
<path d="M644.561 159.596L598.661 182.587L581.792 149.237C566.338 118.708 586.081 81.7228 620.142 78.3557C620.571 78.3128 621 78.2806 621.429 78.2485L648.733 76.5434C649.065 76.522 649.397 76.5113 649.741 76.4898C677.259 75.5247 691.962 108.703 673.195 128.852L644.561 159.596Z" fill="#FCE79E"/>
</g>
<g filter="url(#filter11_d_288_2154)">
<path d="M547.377 247.517C555.946 230.992 572.933 220.633 591.465 220.633L642.598 217.642C655.317 216.902 667.328 223.593 673.452 234.831L740.639 358.268H501.273L547.388 247.506L547.377 247.517Z" fill="#2D2D48"/>
</g>
<g filter="url(#filter12_d_288_2154)">
<path d="M592.462 201.342C594.961 194.243 596.065 186.619 595.669 179.241L595.958 176.593C633.557 176.389 631.177 151.468 631.177 151.468C634.158 141.806 654.073 145.194 640.828 120.638C639.778 118.686 639.08 116.552 638.748 114.354C637.794 108.724 642.223 103.62 647.939 103.781L670.781 104.617C672.251 104.671 673.698 104.521 675.093 104.188C676.122 106.526 676.798 109.057 677.023 111.727L677.902 122.096C677.945 122.021 677.977 121.957 678.01 121.882L679.232 136.326L690.46 156.057C692.005 158.77 690.149 162.159 687.029 162.32L681.452 162.609L681.216 162.995C680.691 165.708 680.347 177.976 680.347 177.976C680.347 189.6 673.784 198.844 662.234 197.417L658.255 196.924C658.052 197.031 657.859 197.139 657.666 197.246C650.909 201.063 648.142 209.406 650.995 216.623L656.1 229.577C658.03 234.467 653.826 239.571 648.657 238.617L572.665 224.612C581.866 219.508 588.966 211.251 592.462 201.331V201.342Z" fill="white"/>
</g>
<g filter="url(#filter13_d_288_2154)">
<path d="M723.481 229.008C723.17 213.106 709.529 200.752 693.678 201.996L668.508 203.98C663.5 202.404 658.159 201.546 652.626 201.546C623.413 201.546 599.733 225.223 599.733 254.434C599.733 283.644 621.868 305.734 649.73 307.236V307.729C649.977 307.589 650.255 307.429 650.545 307.268C651.231 307.289 651.918 307.321 652.615 307.321C681.828 307.321 705.507 283.644 705.507 254.434C705.507 245.651 703.351 237.383 699.566 230.092C700.906 230.327 702.279 230.424 703.694 230.327C703.694 230.327 704.499 230.274 705.786 230.177C709.271 229.92 712.606 230.703 715.513 232.268C718.376 233.802 720.832 236.107 722.612 238.928C723.245 236.515 723.567 233.984 723.513 231.378L723.47 228.998L723.481 229.008ZM677.12 205.331C675.94 205.46 674.793 205.653 673.656 205.91C672.176 205.267 670.664 204.699 669.119 204.195C671.897 203.798 674.653 204.227 677.12 205.331Z" fill="#F9EEC8"/>
</g>
<g filter="url(#filter14_d_288_2154)">
<path d="M560.332 374.696C571.175 348.403 592.677 331.91 616.131 331.91L687.726 327.599C711.684 326.162 733.926 343.298 743.889 370.879L775 456.955H524.867L560.332 374.686V374.696Z" fill="#F9EEC8"/>
</g>
<g filter="url(#filter15_d_288_2154)">
<path d="M725.196 265.146L717.421 254.734L715.512 232.268C712.606 230.703 709.271 229.931 705.785 230.177C704.498 230.274 703.694 230.327 703.694 230.327C694.45 231.003 686.353 223.958 685.141 214.435C683.157 217.577 682.009 221.255 682.009 225.202V227.561C682.009 238.402 672.787 247.195 661.419 247.195C660.239 247.614 659.135 248.15 658.094 248.772L658.277 279.162C658.834 279.827 659.381 280.47 659.875 281.07C661.73 283.28 662.813 285.993 662.974 288.813V289.006C663.371 295.686 659.832 302.003 653.815 305.413C652.196 306.335 650.716 307.171 649.719 307.729L637.611 290.153C637.986 297.156 636.935 304.394 634.565 311.139C631.241 320.565 624.506 328.403 615.766 333.25L667.993 346.773C675.382 348.681 682.481 342.837 682.02 335.224L681.023 318.656C680.637 313.627 682.739 308.726 686.599 305.67L700.831 307.429C711.791 308.78 719.512 302.271 718.579 291.268L719.073 274.379L723.416 272.31C726.129 271.012 726.987 267.559 725.185 265.146H725.196Z" fill="white"/>
</g>
<g filter="url(#filter16_d_288_2154)">
<path d="M554.38 346.612C548.257 347.127 543.345 340.832 544.664 334.162L545.136 329.165C545.34 327.009 545.136 324.918 544.611 322.967C547.174 320.693 549.254 317.273 550.219 311.9C553.072 296.073 542.444 282.893 537.029 282.465C531.13 282.003 525.06 279.001 525.028 272.202L524.503 267.205C524.031 262.766 521.961 258.927 519.044 256.257C516.813 232.226 497.52 212.881 472.962 211.047L447.041 209.428C426.665 208.152 409.785 225.041 411.072 245.415L415.201 310.785L471.31 313.895C474.367 316.393 478.056 317.895 481.573 317.841C482.281 317.83 482.978 317.702 483.675 317.573C486.335 320.543 487.965 324.597 488.019 328.972V329.219C488.062 332.157 487.322 334.945 485.906 337.315C484.458 339.727 482.581 342.891 481.166 345.261C479.847 347.48 479.182 350.108 479.278 352.799V352.982C479.579 361.271 485.97 368.959 492.984 370.257C493.745 370.396 494.518 370.407 495.29 370.418C513.961 370.643 532.642 370.825 551.313 371.029C558.016 370.461 563.314 364.638 563.914 357.174C564.397 351.148 559.775 346.033 554.38 346.633V346.612Z" fill="#F7C105"/>
</g>
<path d="M613.835 420.828C597.234 375.908 564.289 347.738 528.363 347.738L418.697 340.382C381.998 337.915 347.938 367.201 332.667 414.319L285.019 561.369H668.165L613.835 420.828Z" fill="#2D2D48"/>
<g filter="url(#filter17_d_288_2154)">
<path d="M483.857 317.53C483.107 317.669 482.345 317.82 481.573 317.83C474.441 317.948 466.645 311.686 464.714 303.622L464.672 303.44C464.05 300.823 464.168 298.121 465.025 295.676C465.937 293.07 467.16 289.596 468.093 286.947C469.015 284.341 469.176 281.457 468.554 278.593L468.5 278.358C466.967 271.259 461.369 265.876 454.805 265.168C445.958 267.752 436.445 261.833 433.56 251.957C433.56 251.957 433.314 251.131 432.928 249.801C430.204 240.493 421.957 234.488 413.517 235.164C413.742 234.209 411.501 239.099 411.179 242.906L409.098 267.441L401.323 277.854C399.522 280.266 400.38 283.719 403.093 285.017L407.436 287.086L407.661 287.451C408.155 290.411 408.273 302.26 408.273 302.26C408.09 313.134 414.718 321.487 425.678 320.136L439.909 318.377C443.77 321.433 445.872 326.334 445.486 331.363L444.489 347.931C444.027 355.544 451.127 361.389 458.516 359.48L510.743 345.958C502.003 341.111 495.268 333.272 491.943 323.846C491.171 321.648 490.549 319.396 490.067 317.123C488.104 316.994 486.045 317.101 483.857 317.519V317.53Z" fill="white"/>
</g>
<path d="M443.877 209.9C444.22 209.889 444.563 209.9 444.906 209.889H444.939C444.585 209.889 444.231 209.889 443.877 209.9Z" fill="#F7C105"/>
<g filter="url(#filter18_d_288_2154)">
<path d="M258.927 487.067C267.496 470.638 284.483 460.333 303.014 460.333L367.435 457.052C378.084 456.505 388.015 462.414 392.637 472.022L453.165 598H199.943L258.927 487.077V487.067Z" fill="#F9EEC8"/>
</g>
<g filter="url(#filter19_d_288_2154)">
<path d="M331.82 412.196L336.807 391.146L336.732 390.814C333.3 404.604 321.621 414.759 307.508 416.282L307.218 418.962C307.615 426.34 306.511 433.964 304.012 441.063C300.516 450.993 293.416 459.239 284.215 464.344L360.207 478.349C365.376 479.303 369.58 474.199 367.65 469.309L362.545 456.355C361.097 452.688 361.108 448.741 362.341 445.245L340.592 443.733C327.67 443.53 329.89 426.844 331.82 412.196Z" fill="white"/>
</g>
<g filter="url(#filter20_d_288_2154)">
<path d="M402.01 395.778L390.782 376.047L389.57 361.807L388.691 351.448C388.466 348.778 387.779 346.247 386.76 343.909C385.366 344.242 383.918 344.392 382.449 344.338L359.607 343.502C353.901 343.341 349.461 348.445 350.416 354.075L350.952 357.625C352.507 367.973 351.713 378.546 348.636 388.551L345.622 398.341C347.66 404.186 352.614 408.571 358.727 409.837L378.481 413.922L379.114 411.692C380.519 406.77 385.12 403.456 390.224 403.692L392.541 403.8C392.573 403.296 392.637 402.931 392.766 402.727L393.002 402.341L398.579 402.052C401.699 401.891 403.555 398.502 402.01 395.789V395.778Z" fill="white"/>
</g>
<g filter="url(#filter21_d_288_2154)">
<path d="M391.779 324.125L383.21 324.361C377.698 319.149 370.159 315.9 361.279 316.2C360.947 316.211 360.614 316.233 360.271 316.254L332.967 317.959C332.538 317.991 332.109 318.034 331.68 318.066C297.62 321.433 277.887 358.418 293.33 388.948L307.175 416.314C307.282 416.303 307.39 416.282 307.497 416.271C321.599 414.748 333.289 404.593 336.721 390.803L336.796 391.135L331.991 411.392L331.798 412.185C329.868 426.833 327.648 443.519 340.571 443.723L362.319 445.235L381.859 446.586C390.31 447.272 397.259 440.045 396.23 431.627L392.841 403.8H392.53L390.213 403.682C385.098 403.446 380.508 406.759 379.103 411.681L378.47 413.912L358.716 409.826C352.603 408.561 347.638 404.175 345.611 398.331L348.625 388.54C351.702 378.535 352.496 367.973 350.941 357.614L350.405 354.065C349.45 348.435 353.879 343.33 359.595 343.491L382.438 344.328C383.907 344.381 385.355 344.231 386.749 343.899C387.779 346.237 388.454 348.767 388.68 351.437L389.559 361.796C393.055 355.233 393.87 347.984 392.508 341.229C394.106 340.06 395.511 338.591 396.605 336.854L397.388 335.61C401.227 330.956 397.806 323.943 391.768 324.114L391.779 324.125Z" fill="#F7C105"/>
</g>
<g filter="url(#filter22_d_288_2154)">
<path d="M572.826 399.317L618.726 422.308L635.595 388.958C651.049 358.429 631.305 321.444 597.245 318.077C596.816 318.034 596.387 318.002 595.958 317.97L568.654 316.265C568.322 316.243 567.989 316.232 567.646 316.211C540.128 315.246 525.425 348.424 544.192 368.573L572.826 399.317Z" fill="#FCE79E"/>
</g>
<g filter="url(#filter23_d_288_2154)">
<path d="M670.009 487.238C661.44 470.713 644.453 460.355 625.922 460.355L574.788 457.363C562.069 456.623 550.058 463.314 543.935 474.552L476.747 597.989H716.113L669.998 487.227L670.009 487.238Z" fill="#F9EEC8"/>
</g>
<g filter="url(#filter24_d_288_2154)">
<path d="M624.925 441.063C622.426 433.964 621.321 426.34 621.718 418.962L621.429 416.314C583.829 416.11 586.21 391.189 586.21 391.189C583.229 381.527 563.314 384.916 576.558 360.359C577.609 358.407 578.306 356.274 578.639 354.075C579.593 348.445 575.164 343.341 569.448 343.502L546.605 344.338C545.136 344.392 543.688 344.242 542.294 343.909C541.265 346.247 540.589 348.778 540.364 351.448L539.484 361.818C539.442 361.742 539.409 361.678 539.377 361.603L538.155 376.047L526.926 395.778C525.382 398.491 527.237 401.88 530.358 402.041L535.935 402.33L536.171 402.717C536.696 405.43 537.039 417.697 537.039 417.697C537.039 429.31 543.603 438.565 555.153 437.139L559.131 436.645C559.335 436.753 559.528 436.86 559.721 436.967C566.477 440.785 569.244 449.127 566.392 456.344L561.287 469.298C559.357 474.188 563.56 479.292 568.73 478.338L644.722 464.333C635.52 459.229 628.421 450.972 624.925 441.053V441.063Z" fill="white"/>
</g>
<g filter="url(#filter25_d_288_2154)">
<path d="M120.498 320.243C120.069 320.2 119.64 320.168 119.211 320.136L113.903 319.803C96.7869 309.187 74.5448 311.847 60.4102 326.291C54.3831 326.119 50.9514 333.133 54.7907 337.787L55.5735 339.03C56.6674 340.768 58.0723 342.237 59.6702 343.406C57.8149 352.595 59.9598 362.708 67.4453 370.739L96.0791 401.483L141.979 424.474L145.003 418.491L158.848 391.125C174.302 360.595 154.559 323.61 120.498 320.243Z" fill="#F9EEC8"/>
</g>
<g filter="url(#filter26_d_288_2154)">
<path d="M215.976 488.9C214.646 486.648 213.038 484.321 211.182 481.984C195.117 461.674 169.293 451.669 143.619 455.047L109.559 459.54C95.3388 458.811 81.912 465.384 75.0806 476.44L0 597.796H267.506L215.976 488.911V488.9Z" fill="#2D2D48"/>
</g>
<g filter="url(#filter27_d_288_2154)">
<path d="M158.28 459.218C153.797 454.736 150.312 449.299 148.178 443.229C145.679 436.131 144.306 426.094 144.703 418.716L144.682 418.491C106.954 418.341 109.334 393.366 109.334 393.366C106.353 383.704 86.438 387.093 99.6825 362.536C100.733 360.584 101.431 358.45 101.763 356.252C102.717 350.622 98.2883 345.518 92.5723 345.679L69.7296 346.515C68.2604 346.569 66.8126 346.419 65.4185 346.086C64.3889 348.424 63.7133 350.955 63.4881 353.625L61.4076 378.224L50.1793 397.955C48.635 400.668 50.4903 404.057 53.611 404.218L59.1877 404.507L59.4236 404.893C59.6381 407.456 60.0134 419.574 60.0134 419.574C59.7024 437.943 66.8555 440.742 78.4055 439.315L82.3843 438.822C82.4486 438.854 82.5237 438.897 82.588 438.929C89.3121 442.532 92.4114 451.519 89.6124 458.618L84.5505 471.475C82.6202 476.365 86.8241 481.469 91.9932 480.515L155.181 468.869C159.696 468.033 161.529 462.457 158.291 459.207L158.28 459.218Z" fill="white"/>
</g>
<g filter="url(#filter28_d_288_2154)">
<path d="M318.028 500.589C309.814 501.286 303.336 494.144 305.213 486.477L305.931 480.729C307.197 470.66 299.658 461.867 289.577 460.644L289.727 442.297C289.942 415.96 269.694 393.977 243.42 392.015L217.499 390.395C197.123 389.119 180.243 406.009 181.53 426.383L185.659 491.753L224.384 493.897C222.861 496.053 221.242 498.348 219.923 500.224C218.11 502.787 217.188 505.822 217.274 508.899V509.103C217.531 518.604 225.971 527.322 235.355 528.695C236.374 528.845 237.403 528.845 238.444 528.845C247.452 528.824 256.471 528.791 265.48 528.77C281.502 528.727 297.513 528.673 313.535 528.631C322.533 527.869 329.729 521.103 330.651 512.535C331.402 505.607 325.289 499.827 318.039 500.6L318.028 500.589Z" fill="#2D2D48"/>
</g>
<g filter="url(#filter29_d_288_2154)">
<path d="M314.264 549.198C306.135 533.595 289.995 523.816 272.407 523.816L218.7 521.263C200.726 520.406 184.039 530.571 176.565 546.935L153.229 598H340.882L314.275 549.198H314.264Z" fill="#FCE79E"/>
</g>
<g filter="url(#filter30_d_288_2154)">
<path d="M236.803 506.283C228.566 505.146 221.113 497.5 220.888 489.158V488.975C220.813 486.284 221.617 483.646 223.193 481.405C224.877 479.003 227.129 475.818 228.856 473.384C230.55 470.992 231.451 468.183 231.451 465.244V464.998C231.451 457.738 226.379 451.39 219.043 449.492C208.287 450.393 198.871 442.811 198.002 432.56C198.002 432.56 197.927 431.702 197.809 430.329C197.498 426.608 196.125 423.22 193.991 420.399C190.227 415.434 182.195 417.579 181.637 423.788C181.637 423.82 181.637 423.863 181.637 423.895L179.556 448.43L171.781 458.843C169.98 461.255 170.838 464.708 173.551 466.006L177.894 468.075L178.119 468.44C177.894 471.121 178.731 484.375 178.731 484.375C177.798 495.377 185.176 502.476 196.136 501.125L210.367 499.366C214.228 502.422 216.33 507.323 215.944 512.352L214.947 528.92C214.485 536.534 221.585 542.378 228.974 540.469L281.201 526.947C272.922 522.357 266.444 515.087 262.97 506.315C254.97 506.337 246.969 506.369 238.98 506.39C238.261 506.39 237.532 506.39 236.813 506.283H236.803Z" fill="white"/>
</g>
<path d="M220.19 393.076C220.587 393.13 220.973 393.194 221.37 393.248H221.413C221.005 393.183 220.598 393.13 220.19 393.076Z" fill="#2D2D48"/>
<g filter="url(#filter31_d_288_2154)">
<path d="M588.784 516.524C598.103 517.307 605.449 509.221 603.315 500.514L602.5 494.005C601.063 482.584 609.61 472.622 621.042 471.228L620.881 450.436C620.646 420.571 643.595 395.65 673.377 393.419L702.772 391.586C725.883 390.138 745.015 409.29 743.556 432.399L738.87 506.508L694.954 508.942C696.681 511.387 698.514 513.982 700.005 516.106C702.053 519.012 703.104 522.454 703.008 525.939V526.175C702.718 536.952 693.142 546.828 682.503 548.394C681.345 548.565 680.176 548.565 679.007 548.555C668.787 548.533 658.577 548.49 648.357 548.469C630.201 548.415 612.034 548.362 593.878 548.308C583.679 547.45 575.518 539.772 574.478 530.057C573.63 522.207 580.558 515.655 588.773 516.524H588.784Z" fill="#F7C105"/>
</g>
<g filter="url(#filter32_d_288_2154)">
<path d="M605.342 549.198C613.471 533.595 629.611 523.816 647.199 523.816L700.906 521.263C718.88 520.406 735.567 530.571 743.042 546.935L766.378 598H578.725L605.332 549.198H605.342Z" fill="#FCE79E"/>
</g>
<g filter="url(#filter33_d_288_2154)">
<path d="M511.484 566.774L380.669 565.937C380.669 565.937 407.49 438.661 407.673 436.881C410.053 413.011 429.282 393.838 453.733 392.015L479.654 390.395C500.03 389.119 516.91 406.009 515.623 426.383L511.494 566.763L511.484 566.774Z" fill="#FCE79E"/>
</g>
<g filter="url(#filter34_d_288_2154)">
<path d="M382.868 549.198C390.997 533.595 407.137 523.816 424.724 523.816L478.432 521.263C496.405 520.406 513.092 530.571 520.567 546.935L543.903 598H356.25L382.857 549.198H382.868Z" fill="#F7C105"/>
</g>
<g filter="url(#filter35_d_288_2154)">
<path d="M525.35 458.843L517.575 448.43L515.666 425.965C512.76 424.399 509.425 423.627 505.939 423.874C504.653 423.97 503.848 424.024 503.848 424.024C497.617 424.474 491.912 421.418 488.48 416.464C488.255 417.761 488.137 419.08 488.137 420.442V423.23C488.137 436.023 477.263 446.393 463.857 446.393C461.82 447.111 459.965 448.119 458.302 449.331L458.259 455.551C458.12 473.544 450.163 490.541 436.564 502.326C436.468 502.412 436.371 502.487 436.275 502.573C435.61 503.152 435.074 503.902 434.741 504.835C431.417 514.261 424.682 522.1 415.941 526.947L468.169 540.469C475.558 542.378 482.657 536.534 482.196 528.92L481.199 512.352C480.813 507.323 482.914 502.422 486.775 499.366L501.006 501.125C511.967 502.476 519.988 496.557 519.055 485.544C519.055 485.544 519.334 471.453 519.023 468.44L519.248 468.076L523.592 466.006C526.305 464.708 527.163 461.255 525.361 458.853L525.35 458.843Z" fill="white"/>
</g>
<g filter="url(#filter36_d_288_2154)">
<path d="M487.611 398.577C485.252 397.773 482.753 397.269 480.158 397.13L477.788 397.001C477.348 396.979 476.909 396.969 476.469 396.958C458.945 396.851 446.141 413.611 450.044 430.694L458.409 467.293L458.549 426.329C458.452 410.437 471.75 397.741 487.622 398.567L487.611 398.577Z" fill="#F9EEC8"/>
</g>
</g>
<defs>
<filter id="filter0_d_288_2154" x="395.309" y="-12" width="187.11" height="177.688" filterUnits="userSpaceOnUse" color-interpolation-filters="sRGB">
<feFlood flood-opacity="0" result="BackgroundImageFix"/>
<feColorMatrix in="SourceAlpha" type="matrix" values="0 0 0 0 0 0 0 0 0 0 0 0 0 0 0 0 0 0 127 0" result="hardAlpha"/>
<feOffset dy="4"/>
<feGaussianBlur stdDeviation="8"/>
<feComposite in2="hardAlpha" operator="out"/>
<feColorMatrix type="matrix" values="0 0 0 0 0 0 0 0 0 0.0585987 0 0 0 0 0.191667 0 0 0 0.15 0"/>
<feBlend mode="normal" in2="BackgroundImageFix" result="effect1_dropShadow_288_2154"/>
<feBlend mode="normal" in="SourceGraphic" in2="effect1_dropShadow_288_2154" result="shape"/>
</filter>
<filter id="filter1_d_288_2154" x="339.51" y="154.691" width="297.533" height="169.413" filterUnits="userSpaceOnUse" color-interpolation-filters="sRGB">
<feFlood flood-opacity="0" result="BackgroundImageFix"/>
<feColorMatrix in="SourceAlpha" type="matrix" values="0 0 0 0 0 0 0 0 0 0 0 0 0 0 0 0 0 0 127 0" result="hardAlpha"/>
<feOffset dy="4"/>
<feGaussianBlur stdDeviation="8"/>
<feComposite in2="hardAlpha" operator="out"/>
<feColorMatrix type="matrix" values="0 0 0 0 0 0 0 0 0 0.0585987 0 0 0 0 0.191667 0 0 0 0.15 0"/>
<feBlend mode="normal" in2="BackgroundImageFix" result="effect1_dropShadow_288_2154"/>
<feBlend mode="normal" in="SourceGraphic" in2="effect1_dropShadow_288_2154" result="shape"/>
</filter>
<filter id="filter2_d_288_2154" x="436.039" y="34.6575" width="147.688" height="172.874" filterUnits="userSpaceOnUse" color-interpolation-filters="sRGB">
<feFlood flood-opacity="0" result="BackgroundImageFix"/>
<feColorMatrix in="SourceAlpha" type="matrix" values="0 0 0 0 0 0 0 0 0 0 0 0 0 0 0 0 0 0 127 0" result="hardAlpha"/>
<feOffset dy="4"/>
<feGaussianBlur stdDeviation="8"/>
<feComposite in2="hardAlpha" operator="out"/>
<feColorMatrix type="matrix" values="0 0 0 0 0 0 0 0 0 0.0585987 0 0 0 0 0.191667 0 0 0 0.15 0"/>
<feBlend mode="normal" in2="BackgroundImageFix" result="effect1_dropShadow_288_2154"/>
<feBlend mode="normal" in="SourceGraphic" in2="effect1_dropShadow_288_2154" result="shape"/>
</filter>
<filter id="filter3_d_288_2154" x="239.045" y="205.521" width="285.211" height="172.983" filterUnits="userSpaceOnUse" color-interpolation-filters="sRGB">
<feFlood flood-opacity="0" result="BackgroundImageFix"/>
<feColorMatrix in="SourceAlpha" type="matrix" values="0 0 0 0 0 0 0 0 0 0 0 0 0 0 0 0 0 0 127 0" result="hardAlpha"/>
<feOffset dy="4"/>
<feGaussianBlur stdDeviation="8"/>
<feComposite in2="hardAlpha" operator="out"/>
<feColorMatrix type="matrix" values="0 0 0 0 0 0 0 0 0 0.0585987 0 0 0 0 0.191667 0 0 0 0.15 0"/>
<feBlend mode="normal" in2="BackgroundImageFix" result="effect1_dropShadow_288_2154"/>
<feBlend mode="normal" in="SourceGraphic" in2="effect1_dropShadow_288_2154" result="shape"/>
</filter>
<filter id="filter4_d_288_2154" x="324.082" y="139.307" width="115.913" height="119.651" filterUnits="userSpaceOnUse" color-interpolation-filters="sRGB">
<feFlood flood-opacity="0" result="BackgroundImageFix"/>
<feColorMatrix in="SourceAlpha" type="matrix" values="0 0 0 0 0 0 0 0 0 0 0 0 0 0 0 0 0 0 127 0" result="hardAlpha"/>
<feOffset dy="4"/>
<feGaussianBlur stdDeviation="8"/>
<feComposite in2="hardAlpha" operator="out"/>
<feColorMatrix type="matrix" values="0 0 0 0 0 0 0 0 0 0.0585987 0 0 0 0 0.191667 0 0 0 0.15 0"/>
<feBlend mode="normal" in2="BackgroundImageFix" result="effect1_dropShadow_288_2154"/>
<feBlend mode="normal" in="SourceGraphic" in2="effect1_dropShadow_288_2154" result="shape"/>
</filter>
<filter id="filter5_d_288_2154" x="289.646" y="91.9918" width="88.9424" height="102.424" filterUnits="userSpaceOnUse" color-interpolation-filters="sRGB">
<feFlood flood-opacity="0" result="BackgroundImageFix"/>
<feColorMatrix in="SourceAlpha" type="matrix" values="0 0 0 0 0 0 0 0 0 0 0 0 0 0 0 0 0 0 127 0" result="hardAlpha"/>
<feOffset dy="4"/>
<feGaussianBlur stdDeviation="8"/>
<feComposite in2="hardAlpha" operator="out"/>
<feColorMatrix type="matrix" values="0 0 0 0 0 0 0 0 0 0.0585987 0 0 0 0 0.191667 0 0 0 0.15 0"/>
<feBlend mode="normal" in2="BackgroundImageFix" result="effect1_dropShadow_288_2154"/>
<feBlend mode="normal" in="SourceGraphic" in2="effect1_dropShadow_288_2154" result="shape"/>
</filter>
<filter id="filter6_d_288_2154" x="293.189" y="64.6733" width="143.01" height="162.451" filterUnits="userSpaceOnUse" color-interpolation-filters="sRGB">
<feFlood flood-opacity="0" result="BackgroundImageFix"/>
<feColorMatrix in="SourceAlpha" type="matrix" values="0 0 0 0 0 0 0 0 0 0 0 0 0 0 0 0 0 0 127 0" result="hardAlpha"/>
<feOffset dy="4"/>
<feGaussianBlur stdDeviation="8"/>
<feComposite in2="hardAlpha" operator="out"/>
<feColorMatrix type="matrix" values="0 0 0 0 0 0 0 0 0 0.0585987 0 0 0 0 0.191667 0 0 0 0.15 0"/>
<feBlend mode="normal" in2="BackgroundImageFix" result="effect1_dropShadow_288_2154"/>
<feBlend mode="normal" in="SourceGraphic" in2="effect1_dropShadow_288_2154" result="shape"/>
</filter>
<filter id="filter7_d_288_2154" x="182" y="196.172" width="153.821" height="179.727" filterUnits="userSpaceOnUse" color-interpolation-filters="sRGB">
<feFlood flood-opacity="0" result="BackgroundImageFix"/>
<feColorMatrix in="SourceAlpha" type="matrix" values="0 0 0 0 0 0 0 0 0 0 0 0 0 0 0 0 0 0 127 0" result="hardAlpha"/>
<feOffset dy="4"/>
<feGaussianBlur stdDeviation="8"/>
<feComposite in2="hardAlpha" operator="out"/>
<feColorMatrix type="matrix" values="0 0 0 0 0 0 0 0 0 0.0585987 0 0 0 0 0.191667 0 0 0 0.15 0"/>
<feBlend mode="normal" in2="BackgroundImageFix" result="effect1_dropShadow_288_2154"/>
<feBlend mode="normal" in="SourceGraphic" in2="effect1_dropShadow_288_2154" result="shape"/>
</filter>
<filter id="filter8_d_288_2154" x="91.0176" y="326.774" width="320.805" height="178.791" filterUnits="userSpaceOnUse" color-interpolation-filters="sRGB">
<feFlood flood-opacity="0" result="BackgroundImageFix"/>
<feColorMatrix in="SourceAlpha" type="matrix" values="0 0 0 0 0 0 0 0 0 0 0 0 0 0 0 0 0 0 127 0" result="hardAlpha"/>
<feOffset dy="4"/>
<feGaussianBlur stdDeviation="8"/>
<feComposite in2="hardAlpha" operator="out"/>
<feColorMatrix type="matrix" values="0 0 0 0 0 0 0 0 0 0.0585987 0 0 0 0 0.191667 0 0 0 0.15 0"/>
<feBlend mode="normal" in2="BackgroundImageFix" result="effect1_dropShadow_288_2154"/>
<feBlend mode="normal" in="SourceGraphic" in2="effect1_dropShadow_288_2154" result="shape"/>
</filter>
<filter id="filter9_d_288_2154" x="201.295" y="211.132" width="142.669" height="167.565" filterUnits="userSpaceOnUse" color-interpolation-filters="sRGB">
<feFlood flood-opacity="0" result="BackgroundImageFix"/>
<feColorMatrix in="SourceAlpha" type="matrix" values="0 0 0 0 0 0 0 0 0 0 0 0 0 0 0 0 0 0 127 0" result="hardAlpha"/>
<feOffset dy="4"/>
<feGaussianBlur stdDeviation="8"/>
<feComposite in2="hardAlpha" operator="out"/>
<feColorMatrix type="matrix" values="0 0 0 0 0 0 0 0 0 0.0585987 0 0 0 0 0.191667 0 0 0 0.15 0"/>
<feBlend mode="normal" in2="BackgroundImageFix" result="effect1_dropShadow_288_2154"/>
<feBlend mode="normal" in="SourceGraphic" in2="effect1_dropShadow_288_2154" result="shape"/>
</filter>
<filter id="filter10_d_288_2154" x="560.457" y="64.4692" width="137.157" height="138.118" filterUnits="userSpaceOnUse" color-interpolation-filters="sRGB">
<feFlood flood-opacity="0" result="BackgroundImageFix"/>
<feColorMatrix in="SourceAlpha" type="matrix" values="0 0 0 0 0 0 0 0 0 0 0 0 0 0 0 0 0 0 127 0" result="hardAlpha"/>
<feOffset dy="4"/>
<feGaussianBlur stdDeviation="8"/>
<feComposite in2="hardAlpha" operator="out"/>
<feColorMatrix type="matrix" values="0 0 0 0 0 0 0 0 0 0.0585987 0 0 0 0 0.191667 0 0 0 0.15 0"/>
<feBlend mode="normal" in2="BackgroundImageFix" result="effect1_dropShadow_288_2154"/>
<feBlend mode="normal" in="SourceGraphic" in2="effect1_dropShadow_288_2154" result="shape"/>
</filter>
<filter id="filter11_d_288_2154" x="485.273" y="205.586" width="271.365" height="172.682" filterUnits="userSpaceOnUse" color-interpolation-filters="sRGB">
<feFlood flood-opacity="0" result="BackgroundImageFix"/>
<feColorMatrix in="SourceAlpha" type="matrix" values="0 0 0 0 0 0 0 0 0 0 0 0 0 0 0 0 0 0 127 0" result="hardAlpha"/>
<feOffset dy="4"/>
<feGaussianBlur stdDeviation="8"/>
<feComposite in2="hardAlpha" operator="out"/>
<feColorMatrix type="matrix" values="0 0 0 0 0 0 0 0 0 0.0585987 0 0 0 0 0.191667 0 0 0 0.15 0"/>
<feBlend mode="normal" in2="BackgroundImageFix" result="effect1_dropShadow_288_2154"/>
<feBlend mode="normal" in="SourceGraphic" in2="effect1_dropShadow_288_2154" result="shape"/>
</filter>
<filter id="filter12_d_288_2154" x="556.665" y="91.7771" width="150.35" height="166.956" filterUnits="userSpaceOnUse" color-interpolation-filters="sRGB">
<feFlood flood-opacity="0" result="BackgroundImageFix"/>
<feColorMatrix in="SourceAlpha" type="matrix" values="0 0 0 0 0 0 0 0 0 0 0 0 0 0 0 0 0 0 127 0" result="hardAlpha"/>
<feOffset dy="4"/>
<feGaussianBlur stdDeviation="8"/>
<feComposite in2="hardAlpha" operator="out"/>
<feColorMatrix type="matrix" values="0 0 0 0 0 0 0 0 0 0.0585987 0 0 0 0 0.191667 0 0 0 0.15 0"/>
<feBlend mode="normal" in2="BackgroundImageFix" result="effect1_dropShadow_288_2154"/>
<feBlend mode="normal" in="SourceGraphic" in2="effect1_dropShadow_288_2154" result="shape"/>
</filter>
<filter id="filter13_d_288_2154" x="583.733" y="189.546" width="155.785" height="138.183" filterUnits="userSpaceOnUse" color-interpolation-filters="sRGB">
<feFlood flood-opacity="0" result="BackgroundImageFix"/>
<feColorMatrix in="SourceAlpha" type="matrix" values="0 0 0 0 0 0 0 0 0 0 0 0 0 0 0 0 0 0 127 0" result="hardAlpha"/>
<feOffset dy="4"/>
<feGaussianBlur stdDeviation="8"/>
<feComposite in2="hardAlpha" operator="out"/>
<feColorMatrix type="matrix" values="0 0 0 0 0 0 0 0 0 0.0585987 0 0 0 0 0.191667 0 0 0 0.15 0"/>
<feBlend mode="normal" in2="BackgroundImageFix" result="effect1_dropShadow_288_2154"/>
<feBlend mode="normal" in="SourceGraphic" in2="effect1_dropShadow_288_2154" result="shape"/>
</filter>
<filter id="filter14_d_288_2154" x="508.867" y="315.515" width="282.133" height="161.44" filterUnits="userSpaceOnUse" color-interpolation-filters="sRGB">
<feFlood flood-opacity="0" result="BackgroundImageFix"/>
<feColorMatrix in="SourceAlpha" type="matrix" values="0 0 0 0 0 0 0 0 0 0 0 0 0 0 0 0 0 0 127 0" result="hardAlpha"/>
<feOffset dy="4"/>
<feGaussianBlur stdDeviation="8"/>
<feComposite in2="hardAlpha" operator="out"/>
<feColorMatrix type="matrix" values="0 0 0 0 0 0 0 0 0 0.0585987 0 0 0 0 0.191667 0 0 0 0.15 0"/>
<feBlend mode="normal" in2="BackgroundImageFix" result="effect1_dropShadow_288_2154"/>
<feBlend mode="normal" in="SourceGraphic" in2="effect1_dropShadow_288_2154" result="shape"/>
</filter>
<filter id="filter15_d_288_2154" x="599.766" y="202.435" width="142.369" height="164.702" filterUnits="userSpaceOnUse" color-interpolation-filters="sRGB">
<feFlood flood-opacity="0" result="BackgroundImageFix"/>
<feColorMatrix in="SourceAlpha" type="matrix" values="0 0 0 0 0 0 0 0 0 0 0 0 0 0 0 0 0 0 127 0" result="hardAlpha"/>
<feOffset dy="4"/>
<feGaussianBlur stdDeviation="8"/>
<feComposite in2="hardAlpha" operator="out"/>
<feColorMatrix type="matrix" values="0 0 0 0 0 0 0 0 0 0.0585987 0 0 0 0 0.191667 0 0 0 0.15 0"/>
<feBlend mode="normal" in2="BackgroundImageFix" result="effect1_dropShadow_288_2154"/>
<feBlend mode="normal" in="SourceGraphic" in2="effect1_dropShadow_288_2154" result="shape"/>
</filter>
<filter id="filter16_d_288_2154" x="395.003" y="197.36" width="184.946" height="193.669" filterUnits="userSpaceOnUse" color-interpolation-filters="sRGB">
<feFlood flood-opacity="0" result="BackgroundImageFix"/>
<feColorMatrix in="SourceAlpha" type="matrix" values="0 0 0 0 0 0 0 0 0 0 0 0 0 0 0 0 0 0 127 0" result="hardAlpha"/>
<feOffset dy="4"/>
<feGaussianBlur stdDeviation="8"/>
<feComposite in2="hardAlpha" operator="out"/>
<feColorMatrix type="matrix" values="0 0 0 0 0 0 0 0 0 0.0585987 0 0 0 0 0.191667 0 0 0 0.15 0"/>
<feBlend mode="normal" in2="BackgroundImageFix" result="effect1_dropShadow_288_2154"/>
<feBlend mode="normal" in="SourceGraphic" in2="effect1_dropShadow_288_2154" result="shape"/>
</filter>
<filter id="filter17_d_288_2154" x="384.374" y="223.043" width="142.369" height="156.802" filterUnits="userSpaceOnUse" color-interpolation-filters="sRGB">
<feFlood flood-opacity="0" result="BackgroundImageFix"/>
<feColorMatrix in="SourceAlpha" type="matrix" values="0 0 0 0 0 0 0 0 0 0 0 0 0 0 0 0 0 0 127 0" result="hardAlpha"/>
<feOffset dy="4"/>
<feGaussianBlur stdDeviation="8"/>
<feComposite in2="hardAlpha" operator="out"/>
<feColorMatrix type="matrix" values="0 0 0 0 0 0 0 0 0 0.0585987 0 0 0 0 0.191667 0 0 0 0.15 0"/>
<feBlend mode="normal" in2="BackgroundImageFix" result="effect1_dropShadow_288_2154"/>
<feBlend mode="normal" in="SourceGraphic" in2="effect1_dropShadow_288_2154" result="shape"/>
</filter>
<filter id="filter18_d_288_2154" x="183.943" y="445.017" width="285.222" height="172.983" filterUnits="userSpaceOnUse" color-interpolation-filters="sRGB">
<feFlood flood-opacity="0" result="BackgroundImageFix"/>
<feColorMatrix in="SourceAlpha" type="matrix" values="0 0 0 0 0 0 0 0 0 0 0 0 0 0 0 0 0 0 127 0" result="hardAlpha"/>
<feOffset dy="4"/>
<feGaussianBlur stdDeviation="8"/>
<feComposite in2="hardAlpha" operator="out"/>
<feColorMatrix type="matrix" values="0 0 0 0 0 0 0 0 0 0.0585987 0 0 0 0 0.191667 0 0 0 0.15 0"/>
<feBlend mode="normal" in2="BackgroundImageFix" result="effect1_dropShadow_288_2154"/>
<feBlend mode="normal" in="SourceGraphic" in2="effect1_dropShadow_288_2154" result="shape"/>
</filter>
<filter id="filter19_d_288_2154" x="268.215" y="378.814" width="115.913" height="119.651" filterUnits="userSpaceOnUse" color-interpolation-filters="sRGB">
<feFlood flood-opacity="0" result="BackgroundImageFix"/>
<feColorMatrix in="SourceAlpha" type="matrix" values="0 0 0 0 0 0 0 0 0 0 0 0 0 0 0 0 0 0 127 0" result="hardAlpha"/>
<feOffset dy="4"/>
<feGaussianBlur stdDeviation="8"/>
<feComposite in2="hardAlpha" operator="out"/>
<feColorMatrix type="matrix" values="0 0 0 0 0 0 0 0 0 0.0585987 0 0 0 0 0.191667 0 0 0 0.15 0"/>
<feBlend mode="normal" in2="BackgroundImageFix" result="effect1_dropShadow_288_2154"/>
<feBlend mode="normal" in="SourceGraphic" in2="effect1_dropShadow_288_2154" result="shape"/>
</filter>
<filter id="filter20_d_288_2154" x="329.622" y="331.498" width="88.9424" height="102.424" filterUnits="userSpaceOnUse" color-interpolation-filters="sRGB">
<feFlood flood-opacity="0" result="BackgroundImageFix"/>
<feColorMatrix in="SourceAlpha" type="matrix" values="0 0 0 0 0 0 0 0 0 0 0 0 0 0 0 0 0 0 127 0" result="hardAlpha"/>
<feOffset dy="4"/>
<feGaussianBlur stdDeviation="8"/>
<feComposite in2="hardAlpha" operator="out"/>
<feColorMatrix type="matrix" values="0 0 0 0 0 0 0 0 0 0.0585987 0 0 0 0 0.191667 0 0 0 0.15 0"/>
<feBlend mode="normal" in2="BackgroundImageFix" result="effect1_dropShadow_288_2154"/>
<feBlend mode="normal" in="SourceGraphic" in2="effect1_dropShadow_288_2154" result="shape"/>
</filter>
<filter id="filter21_d_288_2154" x="272" y="304.181" width="143.01" height="162.45" filterUnits="userSpaceOnUse" color-interpolation-filters="sRGB">
<feFlood flood-opacity="0" result="BackgroundImageFix"/>
<feColorMatrix in="SourceAlpha" type="matrix" values="0 0 0 0 0 0 0 0 0 0 0 0 0 0 0 0 0 0 127 0" result="hardAlpha"/>
<feOffset dy="4"/>
<feGaussianBlur stdDeviation="8"/>
<feComposite in2="hardAlpha" operator="out"/>
<feColorMatrix type="matrix" values="0 0 0 0 0 0 0 0 0 0.0585987 0 0 0 0 0.191667 0 0 0 0.15 0"/>
<feBlend mode="normal" in2="BackgroundImageFix" result="effect1_dropShadow_288_2154"/>
<feBlend mode="normal" in="SourceGraphic" in2="effect1_dropShadow_288_2154" result="shape"/>
</filter>
<filter id="filter22_d_288_2154" x="519.772" y="304.19" width="137.157" height="138.118" filterUnits="userSpaceOnUse" color-interpolation-filters="sRGB">
<feFlood flood-opacity="0" result="BackgroundImageFix"/>
<feColorMatrix in="SourceAlpha" type="matrix" values="0 0 0 0 0 0 0 0 0 0 0 0 0 0 0 0 0 0 127 0" result="hardAlpha"/>
<feOffset dy="4"/>
<feGaussianBlur stdDeviation="8"/>
<feComposite in2="hardAlpha" operator="out"/>
<feColorMatrix type="matrix" values="0 0 0 0 0 0 0 0 0 0.0585987 0 0 0 0 0.191667 0 0 0 0.15 0"/>
<feBlend mode="normal" in2="BackgroundImageFix" result="effect1_dropShadow_288_2154"/>
<feBlend mode="normal" in="SourceGraphic" in2="effect1_dropShadow_288_2154" result="shape"/>
</filter>
<filter id="filter23_d_288_2154" x="460.747" y="445.307" width="271.365" height="172.682" filterUnits="userSpaceOnUse" color-interpolation-filters="sRGB">
<feFlood flood-opacity="0" result="BackgroundImageFix"/>
<feColorMatrix in="SourceAlpha" type="matrix" values="0 0 0 0 0 0 0 0 0 0 0 0 0 0 0 0 0 0 127 0" result="hardAlpha"/>
<feOffset dy="4"/>
<feGaussianBlur stdDeviation="8"/>
<feComposite in2="hardAlpha" operator="out"/>
<feColorMatrix type="matrix" values="0 0 0 0 0 0 0 0 0 0.0585987 0 0 0 0 0.191667 0 0 0 0.15 0"/>
<feBlend mode="normal" in2="BackgroundImageFix" result="effect1_dropShadow_288_2154"/>
<feBlend mode="normal" in="SourceGraphic" in2="effect1_dropShadow_288_2154" result="shape"/>
</filter>
<filter id="filter24_d_288_2154" x="510.372" y="331.498" width="150.35" height="166.956" filterUnits="userSpaceOnUse" color-interpolation-filters="sRGB">
<feFlood flood-opacity="0" result="BackgroundImageFix"/>
<feColorMatrix in="SourceAlpha" type="matrix" values="0 0 0 0 0 0 0 0 0 0 0 0 0 0 0 0 0 0 127 0" result="hardAlpha"/>
<feOffset dy="4"/>
<feGaussianBlur stdDeviation="8"/>
<feComposite in2="hardAlpha" operator="out"/>
<feColorMatrix type="matrix" values="0 0 0 0 0 0 0 0 0 0.0585987 0 0 0 0 0.191667 0 0 0 0.15 0"/>
<feBlend mode="normal" in2="BackgroundImageFix" result="effect1_dropShadow_288_2154"/>
<feBlend mode="normal" in="SourceGraphic" in2="effect1_dropShadow_288_2154" result="shape"/>
</filter>
<filter id="filter25_d_288_2154" x="37.1709" y="301.338" width="143.012" height="143.137" filterUnits="userSpaceOnUse" color-interpolation-filters="sRGB">
<feFlood flood-opacity="0" result="BackgroundImageFix"/>
<feColorMatrix in="SourceAlpha" type="matrix" values="0 0 0 0 0 0 0 0 0 0 0 0 0 0 0 0 0 0 127 0" result="hardAlpha"/>
<feOffset dy="4"/>
<feGaussianBlur stdDeviation="8"/>
<feComposite in2="hardAlpha" operator="out"/>
<feColorMatrix type="matrix" values="0 0 0 0 0 0 0 0 0 0.0585987 0 0 0 0 0.191667 0 0 0 0.15 0"/>
<feBlend mode="normal" in2="BackgroundImageFix" result="effect1_dropShadow_288_2154"/>
<feBlend mode="normal" in="SourceGraphic" in2="effect1_dropShadow_288_2154" result="shape"/>
</filter>
<filter id="filter26_d_288_2154" x="-16" y="442.401" width="299.506" height="175.395" filterUnits="userSpaceOnUse" color-interpolation-filters="sRGB">
<feFlood flood-opacity="0" result="BackgroundImageFix"/>
<feColorMatrix in="SourceAlpha" type="matrix" values="0 0 0 0 0 0 0 0 0 0 0 0 0 0 0 0 0 0 127 0" result="hardAlpha"/>
<feOffset dy="4"/>
<feGaussianBlur stdDeviation="8"/>
<feComposite in2="hardAlpha" operator="out"/>
<feColorMatrix type="matrix" values="0 0 0 0 0 0 0 0 0 0.0585987 0 0 0 0 0.191667 0 0 0 0.15 0"/>
<feBlend mode="normal" in2="BackgroundImageFix" result="effect1_dropShadow_288_2154"/>
<feBlend mode="normal" in="SourceGraphic" in2="effect1_dropShadow_288_2154" result="shape"/>
</filter>
<filter id="filter27_d_288_2154" x="33.625" y="333.675" width="142.305" height="166.956" filterUnits="userSpaceOnUse" color-interpolation-filters="sRGB">
<feFlood flood-opacity="0" result="BackgroundImageFix"/>
<feColorMatrix in="SourceAlpha" type="matrix" values="0 0 0 0 0 0 0 0 0 0 0 0 0 0 0 0 0 0 127 0" result="hardAlpha"/>
<feOffset dy="4"/>
<feGaussianBlur stdDeviation="8"/>
<feComposite in2="hardAlpha" operator="out"/>
<feColorMatrix type="matrix" values="0 0 0 0 0 0 0 0 0 0.0585987 0 0 0 0 0.191667 0 0 0 0.15 0"/>
<feBlend mode="normal" in2="BackgroundImageFix" result="effect1_dropShadow_288_2154"/>
<feBlend mode="normal" in="SourceGraphic" in2="effect1_dropShadow_288_2154" result="shape"/>
</filter>
<filter id="filter28_d_288_2154" x="165.461" y="378.328" width="181.253" height="170.517" filterUnits="userSpaceOnUse" color-interpolation-filters="sRGB">
<feFlood flood-opacity="0" result="BackgroundImageFix"/>
<feColorMatrix in="SourceAlpha" type="matrix" values="0 0 0 0 0 0 0 0 0 0 0 0 0 0 0 0 0 0 127 0" result="hardAlpha"/>
<feOffset dy="4"/>
<feGaussianBlur stdDeviation="8"/>
<feComposite in2="hardAlpha" operator="out"/>
<feColorMatrix type="matrix" values="0 0 0 0 0 0 0 0 0 0.0585987 0 0 0 0 0.191667 0 0 0 0.15 0"/>
<feBlend mode="normal" in2="BackgroundImageFix" result="effect1_dropShadow_288_2154"/>
<feBlend mode="normal" in="SourceGraphic" in2="effect1_dropShadow_288_2154" result="shape"/>
</filter>
<filter id="filter29_d_288_2154" x="137.229" y="509.213" width="219.653" height="108.787" filterUnits="userSpaceOnUse" color-interpolation-filters="sRGB">
<feFlood flood-opacity="0" result="BackgroundImageFix"/>
<feColorMatrix in="SourceAlpha" type="matrix" values="0 0 0 0 0 0 0 0 0 0 0 0 0 0 0 0 0 0 127 0" result="hardAlpha"/>
<feOffset dy="4"/>
<feGaussianBlur stdDeviation="8"/>
<feComposite in2="hardAlpha" operator="out"/>
<feColorMatrix type="matrix" values="0 0 0 0 0 0 0 0 0 0.0585987 0 0 0 0 0.191667 0 0 0 0.15 0"/>
<feBlend mode="normal" in2="BackgroundImageFix" result="effect1_dropShadow_288_2154"/>
<feBlend mode="normal" in="SourceGraphic" in2="effect1_dropShadow_288_2154" result="shape"/>
</filter>
<filter id="filter30_d_288_2154" x="154.832" y="405.652" width="142.369" height="155.181" filterUnits="userSpaceOnUse" color-interpolation-filters="sRGB">
<feFlood flood-opacity="0" result="BackgroundImageFix"/>
<feColorMatrix in="SourceAlpha" type="matrix" values="0 0 0 0 0 0 0 0 0 0 0 0 0 0 0 0 0 0 127 0" result="hardAlpha"/>
<feOffset dy="4"/>
<feGaussianBlur stdDeviation="8"/>
<feComposite in2="hardAlpha" operator="out"/>
<feColorMatrix type="matrix" values="0 0 0 0 0 0 0 0 0 0.0585987 0 0 0 0 0.191667 0 0 0 0.15 0"/>
<feBlend mode="normal" in2="BackgroundImageFix" result="effect1_dropShadow_288_2154"/>
<feBlend mode="normal" in="SourceGraphic" in2="effect1_dropShadow_288_2154" result="shape"/>
</filter>
<filter id="filter31_d_288_2154" x="558.407" y="379.509" width="201.228" height="189.05" filterUnits="userSpaceOnUse" color-interpolation-filters="sRGB">
<feFlood flood-opacity="0" result="BackgroundImageFix"/>
<feColorMatrix in="SourceAlpha" type="matrix" values="0 0 0 0 0 0 0 0 0 0 0 0 0 0 0 0 0 0 127 0" result="hardAlpha"/>
<feOffset dy="4"/>
<feGaussianBlur stdDeviation="8"/>
<feComposite in2="hardAlpha" operator="out"/>
<feColorMatrix type="matrix" values="0 0 0 0 0 0 0 0 0 0.0585987 0 0 0 0 0.191667 0 0 0 0.15 0"/>
<feBlend mode="normal" in2="BackgroundImageFix" result="effect1_dropShadow_288_2154"/>
<feBlend mode="normal" in="SourceGraphic" in2="effect1_dropShadow_288_2154" result="shape"/>
</filter>
<filter id="filter32_d_288_2154" x="562.725" y="509.213" width="219.653" height="108.787" filterUnits="userSpaceOnUse" color-interpolation-filters="sRGB">
<feFlood flood-opacity="0" result="BackgroundImageFix"/>
<feColorMatrix in="SourceAlpha" type="matrix" values="0 0 0 0 0 0 0 0 0 0 0 0 0 0 0 0 0 0 127 0" result="hardAlpha"/>
<feOffset dy="4"/>
<feGaussianBlur stdDeviation="8"/>
<feComposite in2="hardAlpha" operator="out"/>
<feColorMatrix type="matrix" values="0 0 0 0 0 0 0 0 0 0.0585987 0 0 0 0 0.191667 0 0 0 0.15 0"/>
<feBlend mode="normal" in2="BackgroundImageFix" result="effect1_dropShadow_288_2154"/>
<feBlend mode="normal" in="SourceGraphic" in2="effect1_dropShadow_288_2154" result="shape"/>
</filter>
<filter id="filter33_d_288_2154" x="364.669" y="378.328" width="167.023" height="208.446" filterUnits="userSpaceOnUse" color-interpolation-filters="sRGB">
<feFlood flood-opacity="0" result="BackgroundImageFix"/>
<feColorMatrix in="SourceAlpha" type="matrix" values="0 0 0 0 0 0 0 0 0 0 0 0 0 0 0 0 0 0 127 0" result="hardAlpha"/>
<feOffset dy="4"/>
<feGaussianBlur stdDeviation="8"/>
<feComposite in2="hardAlpha" operator="out"/>
<feColorMatrix type="matrix" values="0 0 0 0 0 0 0 0 0 0.0585987 0 0 0 0 0.191667 0 0 0 0.15 0"/>
<feBlend mode="normal" in2="BackgroundImageFix" result="effect1_dropShadow_288_2154"/>
<feBlend mode="normal" in="SourceGraphic" in2="effect1_dropShadow_288_2154" result="shape"/>
</filter>
<filter id="filter34_d_288_2154" x="340.25" y="509.213" width="219.653" height="108.787" filterUnits="userSpaceOnUse" color-interpolation-filters="sRGB">
<feFlood flood-opacity="0" result="BackgroundImageFix"/>
<feColorMatrix in="SourceAlpha" type="matrix" values="0 0 0 0 0 0 0 0 0 0 0 0 0 0 0 0 0 0 127 0" result="hardAlpha"/>
<feOffset dy="4"/>
<feGaussianBlur stdDeviation="8"/>
<feComposite in2="hardAlpha" operator="out"/>
<feColorMatrix type="matrix" values="0 0 0 0 0 0 0 0 0 0.0585987 0 0 0 0 0.191667 0 0 0 0.15 0"/>
<feBlend mode="normal" in2="BackgroundImageFix" result="effect1_dropShadow_288_2154"/>
<feBlend mode="normal" in="SourceGraphic" in2="effect1_dropShadow_288_2154" result="shape"/>
</filter>
<filter id="filter35_d_288_2154" x="399.941" y="404.464" width="142.369" height="156.37" filterUnits="userSpaceOnUse" color-interpolation-filters="sRGB">
<feFlood flood-opacity="0" result="BackgroundImageFix"/>
<feColorMatrix in="SourceAlpha" type="matrix" values="0 0 0 0 0 0 0 0 0 0 0 0 0 0 0 0 0 0 127 0" result="hardAlpha"/>
<feOffset dy="4"/>
<feGaussianBlur stdDeviation="8"/>
<feComposite in2="hardAlpha" operator="out"/>
<feColorMatrix type="matrix" values="0 0 0 0 0 0 0 0 0 0.0585987 0 0 0 0 0.191667 0 0 0 0.15 0"/>
<feBlend mode="normal" in2="BackgroundImageFix" result="effect1_dropShadow_288_2154"/>
<feBlend mode="normal" in="SourceGraphic" in2="effect1_dropShadow_288_2154" result="shape"/>
</filter>
<filter id="filter36_d_288_2154" x="433.34" y="384.958" width="70.2822" height="102.335" filterUnits="userSpaceOnUse" color-interpolation-filters="sRGB">
<feFlood flood-opacity="0" result="BackgroundImageFix"/>
<feColorMatrix in="SourceAlpha" type="matrix" values="0 0 0 0 0 0 0 0 0 0 0 0 0 0 0 0 0 0 127 0" result="hardAlpha"/>
<feOffset dy="4"/>
<feGaussianBlur stdDeviation="8"/>
<feComposite in2="hardAlpha" operator="out"/>
<feColorMatrix type="matrix" values="0 0 0 0 0 0 0 0 0 0.0585987 0 0 0 0 0.191667 0 0 0 0.15 0"/>
<feBlend mode="normal" in2="BackgroundImageFix" result="effect1_dropShadow_288_2154"/>
<feBlend mode="normal" in="SourceGraphic" in2="effect1_dropShadow_288_2154" result="shape"/>
</filter>
<clipPath id="clip0_288_2154">
<rect width="658" height="598" fill="white"/>
</clipPath>
</defs>
</svg>
