<svg width="493" height="337" viewBox="0 0 493 337" fill="none" xmlns="http://www.w3.org/2000/svg">
<mask id="mask0_539_4184" style="mask-type:luminance" maskUnits="userSpaceOnUse" x="0" y="0" width="493" height="337">
<path d="M440.492 321.283C426.359 325.809 409.145 327.036 395.473 326.092C395.473 326.092 144.105 350.306 53.2434 325.48C-14.0041 307.106 -5.8852 241.696 14.6941 199.829C35.509 157.484 -19.1296 75.6343 68.7011 28.1703C119.22 0.869847 164.53 44.5565 251.866 12.3067C330.714 -16.8111 432.423 9.2342 457.296 70.3009C474.405 112.311 452.836 157.597 474.405 179.546C509.387 215.146 493.302 304.372 440.494 321.283H440.492Z" fill="white"/>
</mask>
<g mask="url(#mask0_539_4184)">
<path d="M440.492 321.283C426.359 325.809 409.145 327.036 395.473 326.092C395.473 326.092 144.105 350.306 53.2434 325.48C-14.0041 307.106 -5.8852 241.696 14.6941 199.829C35.509 157.484 -19.1296 75.6343 68.7011 28.1703C119.22 0.869847 164.53 44.5565 251.866 12.3067C330.714 -16.8111 432.423 9.2342 457.296 70.3009C474.405 112.311 452.836 157.597 474.405 179.546C509.387 215.146 493.302 304.372 440.494 321.283H440.492Z" fill="#F6E7EE"/>
<path d="M369.007 143.282C369.007 143.282 356.325 151.646 351.124 151.435C345.923 151.221 330.923 148.637 325.623 150.328C323.974 150.854 311.44 155.839 310.033 159.254C309.081 161.565 314.503 165.827 320.925 163.414C332.089 159.219 339.24 161.963 344.328 163.319C353.005 165.633 358.103 166.332 354.074 166.878C354.074 166.878 341.459 166.742 336.1 167.932C334.653 168.252 323.762 172.728 323.071 175.95C322.697 177.692 326.079 182.657 336.187 179.44C342.829 177.325 347.707 180.643 352.71 182.918C357.042 184.888 368.645 195.541 368.645 195.541L379.03 178.254L369.007 143.282Z" fill="#DB7665"/>
<path d="M345.936 135.442C345.936 135.442 323.841 130.283 315.043 130.683C311.513 130.843 299.995 132.459 298.304 135.545C295.515 140.639 304.408 145.147 314.958 143.476C325.425 141.817 334.804 151.173 342.296 155.348C360.917 165.732 372.124 171.994 372.124 171.994L345.938 135.444L345.936 135.442Z" fill="#EA8F7D"/>
<path d="M326.053 110.64C329.873 112.014 355.683 123.873 359.886 126.565C370.264 133.201 402.409 163.168 407.982 168.939C418.258 179.58 423.584 213.63 430.711 236.416C430.729 236.547 434.334 248.538 440.736 261.749C442.577 265.57 444.615 269.422 446.576 272.835C434.403 286.703 422.384 297.834 410.587 306.831C405.402 308.492 400.374 310.021 395.486 311.412C393.405 306.233 388.135 293.159 385.539 288.236C383.437 284.247 381.105 277.862 377.326 272.843V272.839C377.326 272.839 377.32 272.835 377.32 272.833L377.316 272.83C374.758 269.434 371.543 266.673 367.284 265.689C358.993 263.766 346.232 253.315 339.919 247.596C337.046 245.018 333.96 242.027 333.979 242.025C327.466 235.68 323.132 230.483 322.614 229.911C318.112 224.718 311.527 219.08 305.748 214.744C303.713 213.208 302.46 212.345 300.979 211.309C299.447 210.232 298.126 209.456 296.564 208.564C294.22 207.263 288.22 203.804 285.397 201.983C283.773 200.946 279.551 198.212 278.769 196.455C277.911 194.535 282.459 189.42 285.716 187.879C287.396 187.091 289.984 186.887 291.857 187.044C298.216 187.43 306.762 191.718 312.379 194.725C318.193 197.8 324.56 202.06 332.797 204.43C337.848 205.808 341.96 206.156 347.612 205.174C352.147 204.378 356.604 202.854 360.096 196.857C360.512 196.137 361.998 193.957 363.378 190.887C366.269 184.458 368.692 174.138 359.827 165.273C355.98 161.446 353.216 156.041 350.411 151.395C350.411 151.393 350.409 151.393 350.407 151.391C347.509 146.592 344.444 142.375 339.798 140.829C334.668 139.121 329.664 135.682 325.132 132.639C322.885 131.128 322.974 131.202 322.96 131.182H322.958C318.686 128.337 314.089 125.452 308.777 123.241C295.828 117.838 295.741 109.963 300.536 106.708C303.127 104.952 323.113 109.585 326.055 110.644L326.053 110.64Z" fill="#FFC3B4"/>
<path d="M449.224 266.659L430.621 236.278L377.305 272.812L389.427 303.094L449.224 266.659Z" fill="white"/>
<path d="M512.42 341.74C508.031 341.388 495.484 358.94 473.821 367.401C449.514 376.896 416.057 377.454 415.334 377.652C411.67 367.732 385.753 297.323 385.753 297.323C385.83 297.271 436.438 264.532 448.237 256.887L512.418 341.74H512.42Z" fill="#FC8C9F"/>
<path d="M388.526 279.901C389.573 280.794 389.7 282.366 388.809 283.415C387.916 284.463 386.344 284.589 385.295 283.698C384.246 282.806 384.119 281.234 385.012 280.184C385.905 279.135 387.477 279.008 388.526 279.901Z" fill="#0B0755"/>
<g opacity="0.97">
<path d="M345.001 106.475L272.337 65.9834L199.17 197.285L292.231 249.144L355.335 135.905L345.001 106.475Z" fill="white"/>
<path d="M355.513 137.208L334.259 125.365C333.865 125.146 333.766 124.578 334.035 124.092L344.124 105.988C344.393 105.503 344.932 105.289 345.324 105.509C345.718 105.728 345.817 106.297 345.547 106.782L335.946 124.011L356.487 135.458C356.881 135.678 356.98 136.246 356.711 136.731C356.442 137.216 355.903 137.43 355.511 137.21L355.513 137.208Z" fill="#D8E4FD"/>
<path d="M327.098 119.969L288.28 98.3381C287.795 98.0689 287.622 97.4571 287.892 96.9741C288.161 96.489 288.773 96.3168 289.256 96.5861L328.074 118.217C328.559 118.486 328.731 119.098 328.462 119.581C328.193 120.066 327.581 120.238 327.098 119.969Z" fill="#FF647D"/>
<path d="M338.653 148.61L260.236 104.911C259.751 104.642 259.579 104.03 259.848 103.547C260.117 103.064 260.727 102.89 261.212 103.159L339.629 146.857C340.114 147.127 340.286 147.738 340.017 148.221C339.748 148.707 339.136 148.879 338.653 148.61Z" fill="#FF647D"/>
<path d="M335.364 154.513L256.947 110.814C256.462 110.545 256.29 109.933 256.559 109.45C256.828 108.965 257.438 108.793 257.923 109.062L336.34 152.761C336.825 153.03 336.997 153.642 336.728 154.125C336.459 154.61 335.847 154.782 335.364 154.513Z" fill="#FF647D"/>
<path d="M330.666 162.943L252.249 119.244C251.763 118.975 251.591 118.363 251.86 117.88C252.13 117.395 252.739 117.223 253.224 117.492L331.642 161.191C332.127 161.46 332.299 162.07 332.03 162.555C331.76 163.04 331.149 163.212 330.666 162.943Z" fill="#FF647D"/>
<path d="M327.376 168.846L248.959 125.148C248.474 124.878 248.301 124.267 248.571 123.784C248.84 123.299 249.452 123.126 249.935 123.396L328.352 167.094C328.837 167.363 329.009 167.975 328.74 168.458C328.471 168.943 327.859 169.115 327.376 168.846Z" fill="#FF647D"/>
<path d="M324.086 174.752L245.668 131.053C245.183 130.784 245.011 130.172 245.28 129.689C245.55 129.204 246.161 129.032 246.644 129.301L325.062 173C325.547 173.269 325.719 173.881 325.45 174.364C325.18 174.849 324.569 175.021 324.086 174.752Z" fill="#FF647D"/>
<path d="M320.795 180.655L242.377 136.957C241.892 136.688 241.72 136.076 241.989 135.593C242.259 135.108 242.87 134.935 243.353 135.205L321.771 178.903C322.256 179.173 322.428 179.784 322.159 180.267C321.889 180.752 321.278 180.925 320.795 180.655Z" fill="#FF647D"/>
<path d="M313.252 194.193L234.834 150.494C234.349 150.225 234.177 149.613 234.446 149.13C234.716 148.645 235.325 148.473 235.81 148.742L314.228 192.441C314.713 192.71 314.885 193.322 314.616 193.805C314.346 194.29 313.735 194.462 313.252 194.193Z" fill="#FF647D"/>
<path d="M309.962 200.096L231.545 156.398C231.06 156.128 230.887 155.517 231.157 155.034C231.426 154.549 232.036 154.376 232.521 154.646L310.938 198.344C311.423 198.613 311.595 199.225 311.326 199.708C311.057 200.193 310.445 200.365 309.962 200.096Z" fill="#FF647D"/>
<path d="M306.671 206L228.254 162.301C227.769 162.032 227.597 161.422 227.866 160.937C228.136 160.452 228.745 160.28 229.23 160.549L307.647 204.248C308.132 204.517 308.305 205.129 308.035 205.612C307.766 206.097 307.155 206.269 306.671 206Z" fill="#FF647D"/>
<path d="M303.381 211.905L224.964 168.207C224.479 167.938 224.307 167.328 224.576 166.843C224.845 166.358 225.455 166.185 225.94 166.455L304.357 210.153C304.842 210.423 305.015 211.034 304.745 211.517C304.476 212.002 303.864 212.175 303.381 211.905Z" fill="#FF647D"/>
</g>
<path d="M362.903 264.117C351.793 259.007 334.91 244.224 322.962 230.315C315.516 221.646 303.972 213.218 299.348 210.217C295.711 207.863 280.315 199.954 278.764 196.454C277.858 194.389 283.183 188.586 286.483 187.574C293.555 185.399 303.238 189.422 318.209 197.952C332.477 206.085 340.255 206.418 347.366 205.214C347.53 205.186 347.689 205.156 347.853 205.129L362.903 264.117Z" fill="#F9A58F"/>
<path d="M90.0206 314.79C85.0673 312.994 80.3139 311.19 75.7447 309.365C78.3936 300.003 84.0636 279.964 84.6535 269.084C84.6535 269.08 84.6535 269.074 84.6535 269.072C84.7802 258.641 80.4525 259.793 76.1466 247.798C71.8506 236.044 69.2294 219.672 68.3564 207.245C67.5645 195.778 65.6342 184.094 61.2214 173.045C53.0709 153.339 53.0649 152.028 56.2523 150.723C58.628 149.712 63.1041 149.175 65.5234 150.06C74.4638 153.402 80.1417 168.763 84.408 178.475C102.762 123.009 108.796 79.6492 122.583 86.8534C128.006 89.6884 119.077 135.929 114.559 153.052C113.526 156.97 116.707 153.376 116.994 152.836C125.826 136.133 135.535 78.9207 149.264 84.4956C159.218 88.5362 141.246 146.198 136.59 162.685C135.756 165.637 138.124 165.126 138.688 164.174C146.34 151.232 154.192 115.813 161.237 108.423C165.264 104.198 172.815 110.8 168.754 130.831C167.408 137.473 161.22 160.513 158.604 170.279C157.929 172.797 159.438 171.606 160.063 170.723C165.725 162.744 172.209 146.619 176.852 142.141C182.044 137.131 185.984 146.742 183.098 158.737C174.949 192.605 167.935 240.045 148.429 269.268C143.101 282.746 139.512 296.748 137.689 310.046C120.164 313.467 104.376 314.881 90.0186 314.792L90.0206 314.79Z" fill="#FFC3B4"/>
<path d="M110.152 229.645C110.22 229.665 110.291 229.673 110.362 229.667C110.685 229.641 110.924 229.36 110.899 229.038C109.762 214.742 105.452 204.895 97.7215 198.932C90.6559 193.48 84.293 176.735 84.2297 176.567C84.1168 176.264 83.7783 176.111 83.4774 176.226C83.1745 176.341 83.0221 176.678 83.1369 176.979C83.4002 177.679 89.6819 194.204 97.0089 199.856C104.465 205.607 108.626 215.183 109.735 229.131C109.754 229.38 109.927 229.58 110.152 229.645Z" fill="#F2806D"/>
<path d="M72.7549 308.116L79.8701 273.13L146.442 288.538L145.724 321.148L72.7549 308.116Z" fill="white"/>
<path d="M38.0801 400.646C42.3048 398.772 61.3182 410.777 85.9796 411.066C113.654 411.39 147.074 400.124 147.864 400.054C147.795 389.479 147.213 314.453 147.213 314.453C147.068 314.423 83.3961 301.361 70.0844 298.623L38.0821 400.646H38.0801Z" fill="#FC8C9F"/>
<path d="M137.954 299.128C137.248 300.332 137.709 301.848 138.986 302.515C140.263 303.183 141.872 302.747 142.579 301.543C143.286 300.34 142.824 298.821 141.547 298.156C140.271 297.489 138.661 297.924 137.954 299.128Z" fill="#0B0755"/>
<path d="M157.017 211.933C160.421 206.267 158.587 198.916 152.921 195.513C147.255 192.11 139.905 193.943 136.501 199.609C133.098 205.275 134.932 212.626 140.597 216.029C146.263 219.432 153.614 217.599 157.017 211.933Z" fill="white"/>
<path d="M152.553 196.127C151.601 195.555 150.368 195.863 149.795 196.816L140.483 212.321C139.911 213.273 140.219 214.507 141.17 215.079C142.122 215.651 143.355 215.342 143.928 214.392L153.24 198.886C153.812 197.934 153.503 196.701 152.551 196.129L152.553 196.127Z" fill="#DDE7FE"/>
<path d="M142.417 172.986C138.083 171.358 133.253 173.55 131.624 177.883C129.996 182.217 132.188 187.05 136.521 188.677C140.855 190.304 145.688 188.113 147.315 183.779C148.942 179.445 146.751 174.613 142.417 172.986Z" fill="#7AA6F4"/>
<path d="M132.092 178.06C131.819 178.788 132.187 179.6 132.916 179.873L144.774 184.328C145.503 184.601 146.315 184.233 146.588 183.504C146.861 182.775 146.493 181.964 145.766 181.691L133.908 177.236C133.179 176.963 132.367 177.331 132.094 178.06H132.092Z" fill="#6E9BDB"/>
<path d="M124.518 183.678C122.273 181.338 118.557 181.261 116.217 183.506L105.733 193.563C103.393 195.808 103.315 199.524 105.56 201.864C107.805 204.204 111.521 204.281 113.861 202.036L124.346 191.979C126.686 189.734 126.763 186.018 124.518 183.678Z" fill="white"/>
<path d="M124.518 183.678C122.273 181.338 118.557 181.261 116.217 183.506L110.975 188.534L119.104 197.01L124.346 191.981C126.686 189.736 126.763 186.02 124.518 183.68V183.678Z" fill="#E25B54"/>
<path d="M126.181 226.323C129.489 225.631 131.633 222.495 130.968 219.321L127.988 205.101C127.323 201.927 124.102 199.916 120.794 200.609C117.486 201.302 115.342 204.438 116.007 207.611L118.986 221.831C119.651 225.005 122.873 227.016 126.181 226.323Z" fill="white"/>
<path d="M126.18 226.323C129.488 225.631 131.632 222.495 130.967 219.321L129.478 212.21L117.497 214.72L118.986 221.831C119.651 225.005 122.872 227.016 126.18 226.323Z" fill="#E25B54"/>
</g>
</svg>
