<svg width="493" height="416" viewBox="0 0 493 416" fill="none" xmlns="http://www.w3.org/2000/svg">
<mask id="mask0_546_1842" style="mask-type:luminance" maskUnits="userSpaceOnUse" x="0" y="39" width="493" height="337">
<path d="M440.492 360.564C426.359 365.089 409.145 366.317 395.473 365.372C395.473 365.372 144.105 389.587 53.2434 364.761C-14.0041 346.387 -5.8852 280.977 14.6941 239.109C35.509 196.765 -19.1296 114.915 68.7011 67.4508C119.22 40.1504 164.53 83.8371 251.866 51.5873C330.714 22.4694 432.423 48.5147 457.296 109.581C474.405 151.591 452.836 196.878 474.405 218.827C509.387 254.426 493.302 343.653 440.494 360.564H440.492Z" fill="white"/>
</mask>
<g mask="url(#mask0_546_1842)">
</g>
<g clip-path="url(#clip0_546_1842)">
<path d="M456.97 122.57C460.51 96.1098 480.35 42.1898 465.55 27.3898C464.85 26.6898 463.83 26.0098 462.5 25.3398C441.91 15.0198 348.23 9.29981 253.27 8.94981C247.84 8.92981 242.41 8.92981 236.99 8.94981C137.82 9.20981 41.75 15.3698 30.83 28.3298C25.97 33.7098 26.2 66.9598 27.43 102.73C27.43 102.73 27.43 102.74 27.43 102.75C27.46 103.63 27.49 104.5 27.52 105.38C27.52 105.51 27.52 105.64 27.53 105.77C27.55 106.44 27.58 107.11 27.6 107.79C28.13 122.62 28.81 137.65 29.34 151.15C29.38 151.99 29.4 152.82 29.44 153.64C29.46 154.23 29.48 154.82 29.51 155.4C29.51 155.69 29.53 155.98 29.54 156.27C29.57 157.14 29.6 158 29.63 158.85C29.64 159.26 29.66 159.68 29.67 160.08C29.69 160.66 29.71 161.23 29.73 161.8C30.1 172.79 30.3 182.21 30.13 188.87C30.13 189.08 30.13 189.28 30.11 189.48C30.11 189.68 30.1 189.88 30.09 190.08C30.09 190.28 30.08 190.47 30.07 190.66C30.05 191.17 30.03 191.66 30 192.14C29.98 192.55 29.95 192.94 29.93 193.31C28.8 209.48 21.25 287.38 20 322.5C19.93 324.45 21.77 339.16 38.46 339.16C133.35 339.16 405.87 338.7 405.87 338.7C419.13 338.7 452.53 349.93 467.9 332.51C483.37 314.98 453.43 149.02 456.96 122.56L456.97 122.57Z" fill="#F6E7EE"/>
<path d="M288.98 137.42C290.51 136.87 305.05 127.68 307.21 129.18L320.71 148.44L313.81 153.81L291.98 157.2L288.98 137.42Z" fill="#EBAF9D"/>
<path d="M309.72 140.48L304.25 140.44C305.58 136.44 306.89 132.82 308.14 129.53C315.67 109.75 321.37 102.28 321.91 101.6C324.2 102.89 327.05 104.41 329.93 105.91C329.86 106.25 324.56 133.47 326.61 134.79C328.67 136.12 369.25 110.46 387.57 88.4399C399.44 101 414.34 121.96 418.4 131.25C424.59 145.39 423.7 203.74 424.88 218.18C426.06 232.62 409.85 302.16 406.61 304.52C405.67 305.2 402.67 305.02 398.83 304.37C391.97 303.21 382.45 300.55 377.26 298.62C375.3 297.89 373.96 297.26 373.61 296.86C373.42 296.64 373.46 295.62 373.67 293.92C373.91 291.93 374.39 289.01 375.02 285.32L373.61 285.71C373.61 285.71 311.64 288.36 297.59 286.17C296.2 285.95 295.28 285.69 294.93 285.37C293.5 284.8 308.8 148.62 309.72 140.48Z" fill="#FC8C9F"/>
<path d="M406.61 304.53C406.61 304.53 401.31 413.73 401.02 415.21C390.3 415.59 373.09 415.21 336.64 415.21C336.64 415.21 339.44 308.95 337.37 304.38L337.63 293.26C355.93 293.65 373.61 293.93 373.61 293.93H373.67C373.46 295.64 373.42 296.65 373.61 296.88C373.95 297.28 375.3 297.91 377.26 298.64C377.26 298.64 366.47 338.47 382.45 349.92C391.5 356.4 390.6 349.65 390.3 349.35C392.69 351 394.86 350.72 396.24 346.69C397.98 348.14 399.23 347.48 399.17 342.56C399.15 340.73 396 333.72 394.82 331.07C393.64 328.42 399.51 308.24 399.17 306.32C398.86 304.58 398.83 304.42 398.83 304.4C402.67 305.05 405.68 305.23 406.61 304.55V304.53Z" fill="#6B7DC1"/>
<path d="M396.24 346.68C394.87 350.72 392.7 351 390.3 349.34C390.59 349.63 391.49 356.39 382.45 349.91C366.47 338.46 377.26 298.63 377.26 298.63C382.45 300.56 391.98 303.22 398.83 304.38C398.83 304.39 398.86 304.56 399.17 306.3C399.51 308.22 393.64 328.4 394.82 331.05C396 333.7 399.15 340.72 399.17 342.54C399.23 347.47 397.98 348.13 396.24 346.67V346.68Z" fill="#FFC3B4"/>
<path d="M383.34 84.23C384.68 85.48 386.1 86.9 387.56 88.45C369.25 110.47 328.67 136.12 326.6 134.8C324.55 133.48 329.85 106.26 329.92 105.92C331.56 106.77 333.22 107.62 334.78 108.42C334.78 108.44 334.43 110.16 334.01 112.44C333.24 116.63 332.26 122.79 332.93 123.75C333.24 124.19 337.69 121.25 343.83 116.79C358.31 106.28 382.19 87.31 383.32 84.23H383.34Z" fill="#FC8C9F"/>
<path d="M373.61 285.71L375.02 285.32C374.4 289.02 373.92 291.94 373.67 293.92H373.61C373.61 293.92 355.94 293.63 337.63 293.25C321.45 292.91 304.79 292.48 299.38 292.08C298.31 292 297.69 291.92 297.59 291.85C296.41 290.97 297.59 286.2 297.59 286.2V286.17C311.65 288.36 373.62 285.71 373.62 285.71H373.61Z" fill="white"/>
<path d="M336 35.4899C333.75 34.6699 324.33 30.6899 318.55 27.3199C316 25.8299 314.15 24.4699 313.94 23.5499C313.2 20.3099 314.82 13.9699 321.01 11.4699C327.2 8.96994 350.77 8.75994 365.14 18.6899C379.65 28.7099 398.06 46.2399 374.34 77.4799L374.31 78.3899C373.97 78.3699 373.67 78.4099 373.4 78.5099C373.4 78.5099 372.42 79.7199 370.8 81.6899C367.14 84.9699 357.71 75.1399 357.07 74.3899C363.45 66.3499 357.75 58.7699 356.22 57.5899C354.3 56.1199 351.21 55.9699 348.41 57.7399C345.61 59.5099 342.96 64.5199 342.96 64.5199C342.96 64.5199 340.31 65.1099 337.51 63.7799C334.71 62.4499 332.06 52.4399 331.03 46.6899C330 40.9399 336.48 35.6399 336 35.4899Z" fill="#738086"/>
<path d="M374.32 78.4C376.39 78.51 379.58 80.73 383.34 84.23C382.21 87.31 358.33 106.27 343.85 116.79V113.09C344.57 113.65 363.73 90.35 370.81 81.7C372.42 79.73 373.41 78.52 373.41 78.52C373.68 78.42 373.99 78.38 374.32 78.4Z" fill="white"/>
<path d="M321.91 101.6C319.1 99.9998 317.14 98.7398 317.03 98.2598C316.64 96.4798 312.02 75.5698 312.02 75.5698C312.02 75.5698 305.44 74.6898 305.34 73.7998C305.24 72.9098 314.41 34.5398 318.54 27.3198C324.32 30.6798 333.74 34.6698 335.99 35.4898C336.47 35.6398 329.99 40.9398 331.02 46.6898C332.05 52.4398 334.7 62.4498 337.5 63.7798C340.3 65.1098 342.95 64.5198 342.95 64.5198C342.95 64.5198 345.6 59.5098 348.4 57.7398C351.2 55.9698 354.29 56.1198 356.21 57.5898C357.74 58.7698 363.44 66.3498 357.06 74.3898C357.7 75.1398 367.13 84.9698 370.79 81.6898C363.71 90.3398 344.55 113.65 343.83 113.08C343.58 112.88 341.28 111.72 338.12 110.11C337.08 109.58 335.95 109.01 334.77 108.41C333.21 107.61 331.55 106.76 329.91 105.91C327.03 104.41 324.18 102.89 321.89 101.6H321.91Z" fill="#FFC3B4"/>
<path d="M343.85 116.79C337.71 121.25 333.25 124.19 332.95 123.75C332.28 122.8 333.26 116.63 334.03 112.44C334.03 112.44 337.37 110.93 338.15 110.12C341.3 111.72 343.6 112.89 343.86 113.09V116.79H343.85Z" fill="#335875"/>
<path d="M337.37 304.38C339.44 308.94 336.64 415.21 336.64 415.21C316.55 414.28 299.25 416.66 298.53 415.21C297.75 413.62 298.45 350.44 298.56 334.29C298.63 323.67 298.81 312.54 298.99 304.38C299.14 297.27 299.3 292.41 299.38 292.09C304.79 292.49 321.45 292.92 337.63 293.26L337.37 304.38Z" fill="#6B7DC1"/>
<path d="M338.141 110.12C337.371 110.93 334.021 112.44 334.021 112.44C334.441 110.16 334.791 108.44 334.791 108.42C335.971 109.02 337.101 109.6 338.141 110.12Z" fill="white"/>
<path d="M304.26 140.44L309.73 140.48C308.81 148.62 293.51 284.8 294.94 285.37C294.94 285.37 290.6 285.71 286.67 285.71C283.29 285.71 280.23 285.44 280.5 284.49C281.02 282.69 288.51 206.86 297.86 163.73C299.21 157.5 300.6 151.96 302.01 147.41C302.77 144.97 303.52 142.65 304.26 140.43V140.44Z" fill="#FC8C9F"/>
<path d="M286.66 286.2V285.71C290.59 285.71 294.93 285.37 294.93 285.37C295.27 285.69 296.2 285.95 297.59 286.17V286.2C297.59 286.2 296.41 290.97 297.59 291.85C297.69 291.92 298.32 292 299.38 292.08C299.3 292.4 299.14 297.26 298.99 304.37C298.81 312.53 298.63 323.66 298.56 334.28H298.53C298.53 334.28 296.99 336.93 294.93 337.52C292.87 338.1 287.86 332.81 284.03 325.66C280.23 318.56 285.72 286.19 286.66 286.19V286.2Z" fill="#FFC3B4"/>
<path d="M235.74 225.91H236.16C237.52 227.03 238.13 228.23 237.23 229.58C234.91 233.06 228.03 235.26 219.7 236.61C212.05 237.85 203.17 238.37 195.48 238.5C193.58 238.53 191.76 238.54 190.04 238.54C183.48 238.51 178.49 238.22 177.07 237.93L176.68 237.89C177.38 231.49 177.84 221.53 178.07 215.55C178.07 215.55 183.27 215.83 187.39 213.77C188.13 213.4 190.2 212.91 192.84 212.28C196.15 211.5 200.37 210.51 204.03 209.28C215.68 205.37 221.38 207.96 200.36 219.66C200.36 219.66 209.28 218.41 217.55 217.24C224.31 216.28 230.64 215.37 231.3 215.24C232.77 214.95 236.6 217.01 233.66 219.66C233.04 220.22 231.76 220.87 230.11 221.55C230.11 221.55 238.38 220.88 237.1 224.53C236.97 224.9 236.51 225.38 235.75 225.92L235.74 225.91Z" fill="#EBAF9D"/>
<path d="M219.69 236.62C219.69 236.62 226.13 311.16 225.39 312.78C223.84 316.25 215.79 318.87 209.01 320.36C204.85 321.28 201.16 321.77 199.76 321.77C199.92 321.2 199.41 310.83 198.71 297.63C198.16 287.51 197.5 275.72 196.91 265.39C196.73 262.26 196.57 259.27 196.41 256.5C195.84 246.5 195.45 239.39 195.49 239.26V238.51C203.17 238.37 212.04 237.86 219.69 236.62Z" fill="white"/>
<path d="M204.62 14.2799C204.62 14.2799 219.94 20.3199 204.62 27.8299C204.62 27.8299 204.62 27.8699 204.62 27.9499C203.41 28.2199 192.97 27.7799 191.65 23.6999C183.84 27.3799 182.96 19.8699 182.52 20.3099C182.08 20.7499 181.49 23.5499 176.18 24.8799C176.03 26.7999 177.95 37.3999 177.95 39.3199C177.27 39.6399 176.66 40.0299 176.11 40.4799C170.83 44.7999 171.32 54.3499 171.32 54.3499L167.93 54.9399C167.93 54.9399 161.89 39.1799 155.26 49.3399C148.63 59.5099 158.94 65.2499 159.97 65.3999C161 65.5499 156.29 71.5899 153.93 72.0299C151.57 72.4699 145.97 69.2299 145.97 69.2299C145.97 69.2299 145.53 67.5699 144.88 64.9999C142.84 56.8499 138.77 39.4799 140.22 36.2299C142.14 31.9599 135.36 30.3399 141.55 23.5599C140.67 18.2599 138.9 10.1499 147.74 10.1499C145.38 5.72989 158.05 -1.93011 162.18 3.95988C167.04 -2.67012 181.92 2.18988 182.36 5.42988C182.36 5.42988 191.94 0.569885 194.88 9.55989C203.87 4.69988 204.6 14.2699 204.6 14.2699L204.62 14.2799Z" fill="#376796"/>
<path d="M297.58 163.68C297.44 163.4 292.45 146.04 288.98 137.42C287.7 134.26 286.64 132.27 286.09 132.74C284.03 134.51 223.83 143.07 223.83 143.07C223.71 142.11 223.54 141.38 223.33 141.01C222.15 138.96 189.44 90.55 189.44 90.55L189.51 90.24C186.89 89.63 183.01 88.21 179.39 86.77C179.39 86.77 179.76 99.75 180.26 113.29C180.73 125.77 181.3 138.72 181.82 142.47C182.89 150.28 192.83 212.3 192.83 212.3C196.14 211.52 200.36 210.53 204.02 209.3C215.67 205.39 221.37 207.98 200.35 219.68C200.35 219.68 209.27 218.43 217.54 217.26C217.54 217.26 214.93 200.47 211.71 180.8C218.65 187.27 296.94 163.59 297.58 163.69V163.68Z" fill="white"/>
<path d="M204.77 42.99C204.76 35.51 204.64 28.91 204.62 27.95C203.41 28.22 192.97 27.78 191.65 23.7C183.84 27.38 182.96 19.87 182.52 20.31C182.08 20.75 181.49 23.55 176.18 24.88C176.03 26.8 177.95 37.4 177.95 39.32C177.27 39.64 176.66 40.03 176.11 40.48C170.83 44.8 171.32 54.3499 171.32 54.3499L167.93 54.9399C167.93 54.9399 161.89 39.18 155.26 49.34C148.63 59.51 158.94 65.2499 159.97 65.3999C161 65.5499 156.29 71.59 153.93 72.03C151.57 72.47 145.97 69.2299 145.97 69.2299C145.97 69.2299 145.23 70.26 144.64 72.07C144.05 73.88 168.66 102.53 169.98 102.38C171.31 102.23 178.82 87.7899 179.38 86.7599C183 88.2 186.88 89.6199 189.5 90.2299C190.76 90.52 191.73 90.6199 192.23 90.45C195.18 89.42 199.89 66.7299 199.89 66.7299C199.89 66.7299 199.89 67.32 203.57 66.7299C204.57 66.06 204.77 53.63 204.75 42.99H204.77Z" fill="#EBAF9D"/>
<path d="M196.9 265.39L196.4 265.42C196.4 265.53 192.24 266.37 187.42 267.1L187.38 266.83C187.38 266.83 186.89 258.27 187.38 258.2C192.21 257.46 196.4 256.62 196.4 256.51C196.56 259.28 196.72 262.27 196.9 265.4V265.39Z" fill="#376796"/>
<path d="M195.48 239.26C195.44 239.39 195.83 246.5 196.4 256.5C196.4 256.61 192.21 257.45 187.38 258.19C181.46 259.09 174.58 259.83 173.27 258.85L172.66 258.82L173.04 250H173.27L183.85 256.79C183.85 256.79 189.74 251.78 191.22 250.01C192.69 248.24 190.04 238.54 190.04 238.54C191.75 238.54 193.58 238.54 195.48 238.5V239.25V239.26Z" fill="white"/>
<path d="M190.03 238.55C190.03 238.55 192.68 248.25 191.21 250.02C189.74 251.79 183.84 256.8 183.84 256.8L173.26 250.02H173.03L173.26 244.59L173.33 243.89C174.44 243.99 175.12 244.02 175.29 243.97C175.82 243.81 176.28 241.37 176.66 237.89L177.05 237.93C178.47 238.22 183.46 238.51 190.02 238.54L190.03 238.55Z" fill="#F47346"/>
<path d="M181.82 142.46C182.89 150.27 192.83 212.29 192.83 212.29C190.19 212.91 188.12 213.41 187.38 213.78L175.16 123.87L175.94 115.56L178.24 120.66L180.16 113.29H180.26C180.73 125.76 181.3 138.72 181.82 142.46Z" fill="white"/>
<path d="M187.38 266.83L187.42 267.1C181.49 268 174.58 268.74 173.26 267.77L172.26 267.73L172.64 258.83L173.25 258.86C174.56 259.83 181.45 259.1 187.36 258.2C186.87 258.27 187.36 266.83 187.36 266.83H187.38Z" fill="white"/>
<path d="M178.24 210.53C178.22 210.64 177.08 210.4 175.16 209.92C175.1 209.66 171.55 195.45 166.89 176.68L166.03 123.87H175.16L187.38 213.78C183.26 215.84 178.06 215.56 178.06 215.56C178.17 212.68 178.23 210.73 178.24 210.54V210.53Z" fill="#F47346"/>
<path d="M180.26 113.28H180.16L178.24 120.65L175.94 115.55L169.99 102.38C171.32 102.23 178.83 87.7898 179.39 86.7598C179.39 86.7598 179.76 99.7398 180.26 113.28Z" fill="white"/>
<path d="M169.99 102.38L175.94 115.55L175.16 123.86H166.03L162.26 115.55L169.99 102.38Z" fill="#F47346"/>
<path d="M169.99 102.38L162.25 115.55L159.25 120.65L150.23 109.23C147.48 97.9498 145.39 89.2498 144.63 85.7998C141.74 72.5498 144.64 72.0698 144.64 72.0698C144.05 73.8798 168.66 102.53 169.98 102.38H169.99Z" fill="white"/>
<path d="M166.03 123.86L166.89 176.67C163.5 163.04 159.53 147.01 155.87 132.16C153.85 123.96 151.92 116.12 150.24 109.24L159.26 120.66L162.26 115.56L166.03 123.87V123.86Z" fill="white"/>
<path d="M209.01 320.36C204.85 321.28 201.16 321.77 199.76 321.77C199.92 321.2 199.41 310.83 198.71 297.63C198.16 287.51 197.5 275.72 196.91 265.39L196.41 265.42C196.41 265.53 192.25 266.37 187.43 267.1C181.5 268 174.59 268.74 173.27 267.77L172.27 267.73L170.64 305.57L169.99 320.61C169.99 320.61 165.08 320.34 157.51 319.86C140.25 318.76 109.13 316.52 90.63 313.68L94.39 415.2H210.19L209.06 320.6L209 320.35L209.01 320.36Z" fill="#376796"/>
<path d="M145.69 125.04C146.3 124.82 146.94 124.7 147.59 124.7C151.03 124.7 153.95 127.89 155.06 132.36C155.37 133.61 155.54 134.96 155.54 136.37C155.54 142.81 151.98 148.04 147.58 148.04C143.73 148.04 140.53 144.04 139.79 138.72C139.68 137.96 139.63 137.18 139.63 136.37C139.63 130.89 142.21 126.29 145.68 125.04H145.69ZM152.29 136.37C152.29 132.75 150.29 129.82 147.82 129.82C145.35 129.82 143.35 132.75 143.35 136.37C143.35 139.99 145.35 142.92 147.82 142.92C150.29 142.92 152.29 139.99 152.29 136.37Z" fill="#6B7DC1"/>
<path d="M147.82 129.82C150.29 129.82 152.29 132.75 152.29 136.37C152.29 139.99 150.29 142.92 147.82 142.92C145.35 142.92 143.35 139.99 143.35 136.37C143.35 132.75 145.35 129.82 147.82 129.82Z" fill="#335875"/>
<path d="M175.16 209.92C175.1 209.66 171.55 195.45 166.89 176.68C163.5 163.05 159.53 147.02 155.87 132.17C153.85 123.97 151.92 116.13 150.24 109.25C147.49 97.9698 145.4 89.2698 144.64 85.8198C141.75 72.5698 144.65 72.0898 144.65 72.0898C145.24 70.2798 145.98 69.2498 145.98 69.2498C145.98 69.2498 145.54 67.5898 144.89 65.0198L144.64 65.0798C143.93 65.3998 142.82 66.2998 141.64 67.8398C132.76 70.8398 106.5 82.0298 94.53 112.24C91.68 119.44 89.64 127.71 88.85 137.21C88.42 142.29 87.95 147.81 87.44 153.65C82.17 214.32 73.45 309.59 79.12 311.35C81.76 312.17 85.76 312.96 90.63 313.71C109.14 316.55 140.25 318.79 157.51 319.89C165.08 320.37 169.99 320.64 169.99 320.64L170.64 305.6L172.27 267.76L172.65 258.86L173.03 250.04L173.26 244.62L173.33 243.92C174.44 244.02 175.12 244.05 175.29 244C175.82 243.84 176.28 241.4 176.66 237.92C177.36 231.52 177.82 221.56 178.05 215.58C178.16 212.7 178.22 210.75 178.23 210.56C178.21 210.67 177.07 210.43 175.15 209.95L175.16 209.92ZM145.69 125.04C146.3 124.82 146.94 124.7 147.59 124.7C151.03 124.7 153.95 127.89 155.06 132.36C155.37 133.61 155.54 134.96 155.54 136.37C155.54 142.81 151.98 148.04 147.58 148.04C143.73 148.04 140.53 144.04 139.79 138.72C139.68 137.96 139.63 137.18 139.63 136.37C139.63 130.89 142.21 126.29 145.68 125.04H145.69Z" fill="white"/>
<path d="M312.8 49.91C313.2 50.98 316.28 50.39 319.13 51.51C321.98 52.62 323.84 55.15 324.86 54.63C325.88 54.12 325.1 49.18 320.72 47.46C316.34 45.74 312.41 48.84 312.81 49.91H312.8Z" fill="#335875"/>
<path d="M316.77 60.9202C316.98 61.9502 317.69 62.6802 318.36 62.5402C319.03 62.4002 319.4 61.4602 319.2 60.4302C319 59.4002 318.28 58.6702 317.61 58.8102C316.94 58.9502 316.57 59.8902 316.77 60.9202Z" fill="#335875"/>
<path d="M179.39 86.7598C174.44 84.7898 169.99 82.7898 169.99 82.7898L176.15 92.7998L179.39 86.7598Z" fill="#335875" stroke="#335875" stroke-width="0.75" stroke-linecap="round" stroke-linejoin="round"/>
<path d="M157.47 320.61V320.6C157.31 320.6 155.21 415.21 155.21 415.21" stroke="#335875" stroke-width="0.75" stroke-linecap="round" stroke-linejoin="round"/>
<path d="M170.64 305.57L181.34 298.93" stroke="#335875" stroke-width="0.75" stroke-linecap="round" stroke-linejoin="round"/>
<path d="M195.479 239.26C195.439 239.39 195.829 246.5 196.399 256.5C196.559 259.27 196.719 262.26 196.899 265.39" stroke="#335875" stroke-width="0.75" stroke-linecap="round" stroke-linejoin="round"/>
<path d="M178.24 210.52V210.53C178.24 210.72 178.17 212.68 178.06 215.55C177.83 221.53 177.37 231.49 176.67 237.89C176.29 241.38 175.83 243.81 175.3 243.97C175.13 244.02 174.45 243.99 173.34 243.89C161.18 242.76 97.7197 233.06 95.1497 229.68C92.3497 226 89.5497 153.8 89.5497 153.8" stroke="#335875" stroke-width="0.75" stroke-linecap="round" stroke-linejoin="round"/>
<path d="M107.96 112.55C108.38 112.83 127.76 123.38 130.62 138.97C130.78 139.87 130.9 140.79 130.94 141.73C131.82 158.82 129.61 197.13 129.61 197.13C129.61 197.13 164.45 207.27 175.15 209.93C177.07 210.41 178.21 210.65 178.23 210.54" stroke="#335875" stroke-width="0.75" stroke-linecap="round" stroke-linejoin="round"/>
<path d="M175.16 209.92C175.1 209.66 171.55 195.45 166.89 176.67C163.5 163.04 159.53 147.01 155.87 132.16C153.85 123.96 151.92 116.12 150.24 109.24C147.49 97.9598 145.4 89.2598 144.64 85.8098C141.75 72.5598 144.65 72.0798 144.65 72.0798" stroke="#335875" stroke-width="0.75" stroke-linecap="round" stroke-linejoin="round"/>
<path d="M233.64 219.66C233.02 220.22 231.74 220.87 230.09 221.55C223.92 224.09 212.72 227.03 212.72 227.03" stroke="#335875" stroke-width="0.75" stroke-linecap="round" stroke-linejoin="round"/>
<path d="M235.74 225.91C232.78 228.02 225.36 231.08 215.96 232.33" stroke="#335875" stroke-width="0.75" stroke-linecap="round" stroke-linejoin="round"/>
<path d="M211.71 180.79C207.35 154.07 201.87 122.02 200.35 119.48" stroke="#335875" stroke-width="0.75" stroke-linecap="round" stroke-linejoin="round"/>
<path d="M223.83 143.06C224.38 147.37 224.05 156.23 223.33 157.19" stroke="#335875" stroke-width="0.75" stroke-linecap="round" stroke-linejoin="round"/>
<path d="M192.83 212.29C192.83 212.29 182.89 150.27 181.82 142.46C181.31 138.72 180.73 125.76 180.26 113.28C179.76 99.73 179.39 86.76 179.39 86.76C178.83 87.8 171.32 102.24 169.99 102.38C168.66 102.53 144.06 73.88 144.65 72.07C145.24 70.26 145.98 69.23 145.98 69.23" stroke="#335875" stroke-width="0.75" stroke-linecap="round" stroke-linejoin="round"/>
<path d="M150.229 109.24L159.259 120.65L162.259 115.55L169.989 102.38L175.939 115.55L178.239 120.65L180.159 113.29" stroke="#335875" stroke-width="0.75" stroke-linecap="round" stroke-linejoin="round"/>
<path d="M166.03 123.86H175.16" stroke="#335875" stroke-width="0.75" stroke-linecap="round" stroke-linejoin="round"/>
<path d="M196.399 256.5C196.399 256.61 192.209 257.45 187.379 258.19C181.459 259.09 174.579 259.83 173.269 258.85" stroke="#335875" stroke-width="0.75" stroke-linecap="round" stroke-linejoin="round"/>
<path d="M196.4 265.42C196.4 265.53 192.24 266.37 187.42 267.1C181.49 268 174.58 268.74 173.26 267.77" stroke="#335875" stroke-width="0.75" stroke-linecap="round" stroke-linejoin="round"/>
<path d="M187.38 258.19C186.89 258.26 187.38 266.82 187.38 266.82" stroke="#335875" stroke-width="0.75" stroke-linecap="round" stroke-linejoin="round"/>
<path d="M189.18 121.39C189.27 121.93 189.35 122.47 189.44 123.01" stroke="#335875" stroke-width="0.75" stroke-linecap="round" stroke-linejoin="round"/>
<path d="M180.31 87.71C184.63 98.87 187.28 109.66 189.18 121.36" stroke="#335875" stroke-width="0.75" stroke-linecap="round" stroke-linejoin="round"/>
<path d="M145.93 125.56C145.85 125.38 145.77 125.21 145.69 125.03C130.65 91.3798 136.77 74.1298 141.64 67.8098C142.82 66.2698 143.93 65.3798 144.64 65.0498" stroke="#335875" stroke-width="0.75" stroke-linecap="round" stroke-linejoin="round"/>
<path d="M299.359 127.14C299.359 127.14 300.139 120.27 303.879 117.12C303.679 111.03 306.589 107.53 309.769 104.94" stroke="#335875" stroke-width="0.75" stroke-linecap="round" stroke-linejoin="round"/>
<path d="M294.84 125.57C295.04 124.98 295.63 118.3 299.36 114.57C299.16 109.66 300.73 104.94 305.35 100.62" stroke="#335875" stroke-width="0.75" stroke-linecap="round" stroke-linejoin="round"/>
<path d="M429.479 269.49C429.479 269.49 432.299 263.17 430.689 258.57C433.959 253.43 433.239 248.93 431.809 245.09" stroke="#335875" stroke-width="0.75" stroke-linecap="round" stroke-linejoin="round"/>
<path d="M434.17 270.44C434.3 269.83 437.19 263.78 435.88 258.67C438.55 254.54 439.59 249.68 437.82 243.61" stroke="#335875" stroke-width="0.75" stroke-linecap="round" stroke-linejoin="round"/>
<path d="M399.47 52.6898C399.47 52.6898 400.18 45.8098 397.22 41.9298C398.72 36.0298 396.64 31.9798 394.09 28.7698" stroke="#335875" stroke-width="0.75" stroke-linecap="round" stroke-linejoin="round"/>
<path d="M404.22 52.1298C404.16 51.5098 405.02 44.8598 402.18 40.4098C403.43 35.6598 402.91 30.7198 399.34 25.4998" stroke="#335875" stroke-width="0.75" stroke-linecap="round" stroke-linejoin="round"/>
<path d="M418 109.04C421.05 111.78 423.78 115.43 423.27 121.5C426.84 124.83 427.28 131.73 427.28 131.73C427.28 131.73 431.06 135.98 429.58 141.97" stroke="#335875" stroke-width="0.75" stroke-linecap="round" stroke-linejoin="round"/>
<path d="M422.63 104.94C427.03 109.49 428.36 114.28 427.92 119.17C431.46 123.09 431.72 129.78 431.88 130.39C431.88 130.39 436.67 136.96 434.99 142.56" stroke="#335875" stroke-width="0.75" stroke-linecap="round" stroke-linejoin="round"/>
<path d="M309.77 140.1C309.77 140.1 309.76 140.23 309.73 140.48C308.81 148.62 293.51 284.8 294.94 285.37" stroke="#335875" stroke-width="0.75" stroke-linecap="round" stroke-linejoin="round"/>
<path d="M297.59 286.17C296.2 285.95 295.28 285.69 294.93 285.37" stroke="#335875" stroke-width="0.75" stroke-linecap="round" stroke-linejoin="round"/>
<path d="M297.58 286.21C297.58 286.21 296.4 290.98 297.58 291.86C297.68 291.93 298.31 292.01 299.37 292.09" stroke="#335875" stroke-width="0.75" stroke-linecap="round" stroke-linejoin="round"/>
<path d="M338.14 110.12C337.1 109.59 335.97 109.02 334.79 108.42" stroke="#335875" stroke-width="0.75" stroke-linecap="round" stroke-linejoin="round"/>
<path d="M374.32 78.3998C373.98 78.3798 373.68 78.4198 373.41 78.5198C373.41 78.5198 372.43 79.7298 370.81 81.6998C363.73 90.3498 344.57 113.66 343.85 113.09" stroke="#335875" stroke-width="0.75" stroke-linecap="round" stroke-linejoin="round"/>
<path d="M387.57 88.4497C386.11 86.8997 384.69 85.4797 383.35 84.2297" stroke="#335875" stroke-width="0.75" stroke-linecap="round" stroke-linejoin="round"/>
<path d="M398.95 142.46C398.95 142.46 378.44 154.43 380.68 168.39C387.67 211.93 378.78 262.9 375.02 285.32C374.4 289.02 373.92 291.94 373.67 293.92C373.46 295.62 373.42 296.63 373.61 296.86" stroke="#335875" stroke-width="0.75" stroke-linecap="round" stroke-linejoin="round"/>
<path d="M377.149 329.28C377.359 329.91 384.489 345.33 390.309 349.34" stroke="#335875" stroke-width="0.75" stroke-linecap="round" stroke-linejoin="round"/>
<path d="M385.99 329.28C385.99 329.69 392.36 343.43 396.24 346.67" stroke="#335875" stroke-width="0.75" stroke-linecap="round" stroke-linejoin="round"/>
<path d="M336.64 415.2C336.64 415.2 339.44 308.94 337.37 304.37" stroke="#335875" stroke-width="0.75" stroke-linecap="round" stroke-linejoin="round"/>
<path d="M294.93 337.53C296.99 336.95 298.53 334.29 298.53 334.29L291.99 323.98" stroke="#335875" stroke-width="0.75" stroke-linecap="round" stroke-linejoin="round"/>
<path d="M286.68 298.63C286.68 298.63 285.5 315.73 286.68 319.86C287.86 323.99 288.36 324.72 290.62 323.4C292.87 322.07 294.64 312.5 294.93 308.96C295.22 305.42 298.98 304.39 298.98 304.39" stroke="#335875" stroke-width="0.75" stroke-linecap="round" stroke-linejoin="round"/>
<path d="M357.08 74.3999C355.48 76.4199 353.13 78.4599 349.76 80.4299" stroke="#335875" stroke-width="0.75" stroke-linecap="round" stroke-linejoin="round"/>
<path d="M329.93 105.91C329.86 106.25 324.56 133.48 326.61 134.79C328.67 136.12 369.25 110.46 387.57 88.4399" stroke="#FC8C9F" stroke-width="0.75" stroke-linecap="round" stroke-linejoin="round"/>
<path d="M334.79 108.42C334.79 108.42 334.44 110.16 334.02 112.44C333.25 116.63 332.27 122.79 332.94 123.75C333.25 124.19 337.7 121.25 343.84 116.79C358.32 106.28 382.2 87.3097 383.33 84.2297" stroke="#335875" stroke-width="0.75" stroke-linecap="round" stroke-linejoin="round"/>
<path d="M316.06 87.1298C318.93 86.2698 321.64 84.8698 324 83.0298" stroke="#335875" stroke-width="0.75" stroke-linecap="round" stroke-linejoin="round"/>
<path d="M319.7 76.6997C324.19 81.8297 327.12 88.3197 328 95.0797" stroke="#335875" stroke-width="0.75" stroke-linecap="round" stroke-linejoin="round"/>
<path d="M346.779 65.5698C346.689 62.9698 348.569 60.4298 351.079 59.7398C353.589 59.0498 356.499 60.2898 357.749 62.5698" fill="#335875"/>
<path d="M346.779 65.5698C346.689 62.9698 348.569 60.4298 351.079 59.7398C353.589 59.0498 356.499 60.2898 357.749 62.5698" stroke="#335875" stroke-width="0.75" stroke-linecap="round" stroke-linejoin="round"/>
<path d="M325.81 30.7598C324.38 28.7198 323.86 26.0698 324.41 23.6398C324.96 21.2098 326.59 19.0498 328.76 17.8398" stroke="#335875" stroke-width="0.75" stroke-linecap="round" stroke-linejoin="round"/>
<path d="M336.26 35.1798C334.94 31.4798 335.98 27.0498 338.81 24.3198" stroke="#335875" stroke-width="0.75" stroke-linecap="round" stroke-linejoin="round"/>
<path d="M365.89 65.0398C369.66 67.0298 374.45 66.9498 378.15 64.8298" stroke="#335875" stroke-width="0.75" stroke-linecap="round" stroke-linejoin="round"/>
<path d="M173.33 243.89L169.99 320.61" stroke="#335875" stroke-width="0.75" stroke-linecap="round" stroke-linejoin="round"/>
<path d="M156.67 52.9599C156.67 52.9599 159.68 46.1599 165.19 54.5599L156.67 52.9599Z" fill="#335875"/>
<path d="M156.67 52.9599C156.67 52.9599 159.68 46.1599 165.19 54.5599" stroke="#335875" stroke-width="0.75" stroke-linecap="round" stroke-linejoin="round"/>
<path d="M199.76 45.68C198.83 46.34 196.61 44.13 193.63 43.46C190.65 42.79 187.69 43.83 187.14 42.83C186.58 41.83 190 38.18 194.59 39.22C199.18 40.26 200.7 45.02 199.77 45.68H199.76Z" fill="#335875"/>
<path d="M195.95 50.53C195.74 51.56 195.03 52.29 194.36 52.15C193.69 52.01 193.32 51.07 193.52 50.04C193.73 49.01 194.44 48.28 195.11 48.42C195.78 48.56 196.15 49.5 195.95 50.53Z" fill="#335875"/>
<path d="M193.7 72.0701C193.7 72.0701 187.85 70.7001 184.74 67.8101" stroke="#335875" stroke-width="0.75" stroke-linecap="round" stroke-linejoin="round"/>
<path d="M183.06 19.3499C185.36 19.2399 187.48 17.4299 187.94 15.1799C188.01 14.8299 188.05 14.4599 187.94 14.1199C187.83 13.7799 187.54 13.4799 187.18 13.4399C186.68 13.3899 186.26 13.8899 186.23 14.3799C186.2 14.8799 186.47 15.3499 186.8 15.7299C187.61 16.6799 188.84 17.2599 190.09 17.2899C191.34 17.3199 192.59 16.7899 193.44 15.8799C194.24 15.0199 194.66 13.6199 193.98 12.6599" stroke="#335875" stroke-width="0.75" stroke-linecap="round" stroke-linejoin="round"/>
<path d="M173.3 24.9398C172.61 25.9198 171.49 26.5898 170.3 26.7398C169.11 26.8898 167.86 26.5298 166.94 25.7498C166.48 25.3698 166.09 24.8498 166.05 24.2498C166.01 23.6498 166.44 23.0098 167.04 22.9798C167.49 22.9598 167.91 23.2998 168.09 23.7098C168.27 24.1198 168.26 24.5998 168.17 25.0498C167.82 26.9698 166.16 28.5898 164.23 28.8898C162.3 29.1898 160.23 28.1598 159.31 26.4398" stroke="#335875" stroke-width="0.75" stroke-linecap="round" stroke-linejoin="round"/>
<path d="M142.24 35.2198C142.81 36.6598 144.45 37.5098 146 37.4198C147.55 37.3298 148.97 36.4098 149.95 35.2198C150.35 34.7398 150.7 34.1698 150.69 33.5498C150.69 32.9298 150.17 32.2898 149.56 32.3398C149.03 32.3798 148.63 32.9198 148.61 33.4498C148.58 33.9798 148.84 34.4898 149.17 34.9098C150.45 36.5398 152.94 37.0598 154.77 36.0998C156.6 35.1298 157.57 32.7798 156.95 30.8098" stroke="#335875" stroke-width="0.75" stroke-linecap="round" stroke-linejoin="round"/>
<path d="M196.63 20.83C197.42 22.46 199.34 23.46 201.13 23.17C202.92 22.88 204.43 21.33 204.67 19.54" stroke="#335875" stroke-width="0.75" stroke-linecap="round" stroke-linejoin="round"/>
<path d="M193.65 182.42C193.21 182.42 192.76 182.31 192.35 182.09C189.12 180.37 187.91 175.96 187.47 172.56C187.41 172.13 187.25 171.68 186.99 171.22C184.24 166.36 181.99 160.41 180.48 154.01C176.84 138.6 178.02 121.03 187.37 118.82C191.67 117.8 196.36 120.53 200.56 126.49C204.27 131.74 207.36 139.1 209.28 147.21C210.72 153.31 211.38 159.38 211.19 164.77C211.16 165.74 211.26 166.7 211.51 167.61C211.97 169.32 212.39 172.18 211.78 176.03C211.54 177.54 210.12 178.58 208.61 178.34C207.1 178.1 206.06 176.68 206.3 175.17C206.76 172.28 206.47 170.25 206.15 169.05C205.76 167.6 205.59 166.1 205.65 164.57C205.82 159.67 205.21 154.11 203.88 148.48C202.12 141.05 199.33 134.37 196.03 129.68C193.34 125.87 190.52 123.78 188.65 124.22C184.98 125.09 182.08 136.63 185.89 152.73C187.28 158.63 189.34 164.08 191.83 168.48C192.44 169.56 192.83 170.69 192.98 171.83C193.42 175.21 194.41 176.89 194.97 177.18C196.32 177.9 196.83 179.58 196.11 180.93C195.61 181.87 194.65 182.4 193.66 182.4L193.65 182.42Z" fill="#EED03F"/>
<path d="M207.36 168.52C207.36 168.52 211.5 169.68 209.95 173.95" stroke="#335875" stroke-width="0.75" stroke-linecap="round" stroke-linejoin="round"/>
<path d="M191.58 172.27C191.58 172.27 190.89 180.03 195.31 179.64" stroke="#335875" stroke-width="0.75" stroke-linecap="round" stroke-linejoin="round"/>
<path d="M189.67 121.98C185.73 122.22 182.59 125.67 181.42 129.43C180.25 133.2 180.64 137.24 181.04 141.17" stroke="#335875" stroke-width="0.75" stroke-linecap="round" stroke-linejoin="round"/>
</g>
<defs>
<clipPath id="clip0_546_1842">
<rect width="452.37" height="415.03" fill="white" transform="translate(20 0.659912)"/>
</clipPath>
</defs>
</svg>
