<svg width="52" height="62" viewBox="0 0 52 62" fill="none" xmlns="http://www.w3.org/2000/svg">
<path d="M5.05621 16.5301C4.76695 31.6845 4.44101 48.84 25.9989 56.6713C47.5586 48.8397 47.2329 31.6837 46.9439 16.5287C46.9266 15.6198 46.9098 14.7388 46.898 13.875C38.4856 13.5202 31.7578 10.9709 25.9989 5.95458C20.2406 10.9709 13.514 13.5199 5.10214 13.875C5.09037 14.7391 5.07357 15.6206 5.05621 16.5301Z" fill="#F2F5FA"/>
<path d="M51.1437 16.4489C51.1129 14.829 51.0835 13.2987 51.0835 11.8182C51.0835 10.6584 50.1434 9.71805 48.9833 9.71805C40.0016 9.71805 33.1633 7.13682 27.4632 1.59465C26.6477 0.801633 25.3501 0.801913 24.535 1.59465C18.8354 7.13682 11.9982 9.71805 3.01708 9.71805C1.85724 9.71805 0.91693 10.6584 0.91693 11.8182C0.91693 13.2989 0.887808 14.8298 0.856726 16.45C0.568865 31.5252 0.174597 52.1714 25.3112 60.8842C25.5341 60.9615 25.7665 61.0002 25.9989 61.0002C26.2313 61.0002 26.464 60.9615 26.6867 60.8842C51.8252 52.1711 51.4315 31.5244 51.1437 16.4489ZM25.9992 56.6713C4.44127 48.84 4.76721 31.6845 5.05647 16.5301C5.07383 15.6206 5.09064 14.7391 5.1024 13.875C13.5142 13.5199 20.2409 10.9709 25.9992 5.95457C31.7581 10.9709 38.4859 13.5202 46.8983 13.875C46.91 14.7388 46.9268 15.6198 46.9442 16.5287C47.2332 31.6837 47.5588 48.8397 25.9992 56.6713Z" fill="#00309D" stroke="#F2F5FA"/>
<path d="M33.2315 23.7045L23.0951 33.8404L18.7696 29.5149C17.9494 28.695 16.6196 28.695 15.7997 29.5149C14.9795 30.3354 14.9795 31.6649 15.7997 32.4851L21.6101 38.2955C22.0201 38.7055 22.5577 38.9105 23.0951 38.9105C23.6324 38.9105 24.1701 38.7055 24.58 38.2955L36.2012 26.6747C37.0216 25.8545 37.0216 24.5247 36.2014 23.7048C35.3815 22.8846 34.0517 22.8843 33.2315 23.7045Z" fill="#00309D"/>
</svg>
