<svg width="61" height="60" viewBox="0 0 61 60" fill="none" xmlns="http://www.w3.org/2000/svg">
<path d="M53.4689 18.1212L53.6925 18.0091L55.3678 17.1691L55.5914 17.057L55.7034 17.2807C58.646 23.1599 59.4558 29.8785 57.9943 36.2885C56.5328 42.6985 52.8908 48.4021 47.6905 52.4247C42.4903 56.4473 36.0546 58.5393 29.483 58.3432C22.9916 58.1495 16.7657 55.7351 11.8426 51.5072L10.1143 53.3391C10.1142 53.3391 10.1142 53.3391 10.1142 53.3391C10.0033 53.4568 9.8695 53.5505 9.72108 53.6146C9.57263 53.6787 9.41265 53.7119 9.25094 53.712H9.25087C9.14638 53.712 9.04232 53.6985 8.94128 53.6718L8.93978 53.6714C8.73219 53.6151 8.54378 53.5035 8.39466 53.3486C8.24558 53.1936 8.14136 53.0011 8.09313 52.7916C8.09312 52.7915 8.0931 52.7915 8.09309 52.7914L6.57346 46.2048L6.57344 46.2047L6.81704 46.1485C6.78228 45.9981 6.78521 45.8414 6.82557 45.6924C6.86593 45.5433 6.94248 45.4066 7.04841 45.2942C7.15434 45.1819 7.28638 45.0975 7.43279 45.0484C7.5792 44.9994 7.73545 44.9873 7.88767 45.0132L53.4689 18.1212ZM53.4689 18.1212L53.5811 18.3447C56.2819 23.7269 57.0303 29.8798 55.6985 35.7525C54.3668 41.6252 51.0375 46.8534 46.2793 50.5441C41.521 54.2349 35.6291 56.1592 29.6097 55.9884C23.6771 55.8201 17.9834 53.627 13.4728 49.7778L15.2619 47.883L15.2621 47.8828C15.4095 47.7264 15.5118 47.5329 15.5579 47.3229C15.604 47.1129 15.5922 46.8943 15.5238 46.6905C15.4555 46.4867 15.333 46.3052 15.1696 46.1655C15.0062 46.0259 14.808 45.9332 14.596 45.8973C14.596 45.8973 14.5959 45.8973 14.5959 45.8973M53.4689 18.1212L14.5959 45.8973M14.5959 45.8973L7.92959 44.7667L14.5959 45.8973ZM9.90847 50.0958L9.28641 47.4064L12.0074 47.8676L9.90847 50.0958Z" fill="#00309D" stroke="#00309D" stroke-width="0.5"/>
<path d="M7.19777 41.879L6.97422 41.9911L5.29891 42.8311L5.07529 42.9432L4.9633 42.7195C2.0197 36.84 1.20931 30.1208 2.67064 23.7101C4.13197 17.2994 7.7743 11.5951 12.9752 7.57219C18.176 3.54928 24.6126 1.45742 31.1848 1.65411C37.6768 1.8484 43.9031 4.26381 48.826 8.49296L50.5544 6.66102L50.5547 6.66066C50.7022 6.50491 50.8892 6.39203 51.0957 6.33402C51.3022 6.276 51.5206 6.27501 51.7277 6.33116C51.9347 6.3873 52.1227 6.49848 52.2716 6.65289C52.4205 6.8073 52.5248 6.99916 52.5735 7.2081L52.5736 7.20863L54.0914 13.7954C54.0914 13.7954 54.0914 13.7955 54.0914 13.7955C54.1316 13.9696 54.132 14.1505 54.0925 14.3248C54.0531 14.4991 53.9748 14.6623 53.8635 14.8021C53.7522 14.9419 53.6107 15.0548 53.4497 15.1324C53.2887 15.21 53.1123 15.2502 52.9336 15.2501M7.19777 41.879L52.9337 15.0001M7.19777 41.879L7.08561 41.6555C4.38484 36.2733 3.63642 30.1204 4.96816 24.2477C6.29991 18.375 9.62921 13.1468 14.3874 9.45603C19.1457 5.7653 25.0376 3.84098 31.057 4.01176C36.9896 4.18007 42.6833 6.3732 47.1939 10.2224M7.19777 41.879L47.3658 10.0404L47.1939 10.2224M52.9336 15.2501L52.9337 15.0001M52.9336 15.2501C52.934 15.2501 52.9345 15.2501 52.9349 15.2501L52.9337 15.0001M52.9336 15.2501C52.8669 15.2503 52.8003 15.2447 52.7347 15.2333L52.7354 15.2334L52.7772 14.987M52.9337 15.0001C52.8813 15.0003 52.8289 14.9959 52.7772 14.987M52.7772 14.987L52.7344 15.2333M52.7772 14.987L52.7344 15.2333M52.7344 15.2333L46.0708 14.1028M52.7344 15.2333L45.5865 12.2888L47.3835 10.3857C47.3206 10.331 47.2574 10.2765 47.1939 10.2224M46.0708 14.1028L46.112 13.8592L46.0707 14.1028L46.0708 14.1028ZM46.0708 14.1028C45.8588 14.067 45.6606 13.9743 45.4971 13.8346C45.3337 13.6949 45.2113 13.5135 45.1429 13.3097C45.0745 13.1059 45.0627 12.8873 45.1088 12.6773C45.1549 12.4673 45.2572 12.2738 45.4046 12.1173L45.4048 12.1172L47.1939 10.2224M48.8434 8.83883L48.8434 8.8388L48.8434 8.83883ZM48.6576 12.1326L50.758 9.90434L51.3786 12.5937L48.6576 12.1326Z" fill="#00309D" stroke="#00309D" stroke-width="0.5"/>
<path d="M43.6643 37.3843L43.6643 37.3844C41.47 39.5781 38.4692 40.6795 35.5952 41.2045C32.7187 41.7301 29.9437 41.6831 28.1729 41.5595L27.6258 41.5213L28.0135 41.1333L40.2927 28.8495L39.3239 27.8779L27.0134 40.1884L26.6268 40.575L26.5873 40.0297C26.4599 38.2725 26.4046 35.489 26.9264 32.5975C27.4478 29.7088 28.55 26.6863 30.7586 24.4795C30.7586 24.4795 30.7586 24.4795 30.7587 24.4795M43.6643 37.3843L47.4785 20.6663C44.9229 20.3776 35.8366 19.7541 30.9354 24.6563L30.7587 24.4795M43.6643 37.3843C46.1767 34.872 47.259 31.31 47.6824 28.0842C48.1064 24.8537 47.8743 21.9239 47.7268 20.6378L47.7042 20.4402L47.5065 20.4179C46.2184 20.2723 43.2856 20.0423 40.054 20.4668C36.8273 20.8907 33.2659 21.9718 30.7587 24.4795M43.6643 37.3843L30.7587 24.4795M26.8143 39.6804L26.6598 39.8348L26.8366 40.0116L27.086 39.9935C27.0808 39.9231 27.0759 39.8509 27.071 39.7772L39.1473 27.7009L26.8143 39.6804ZM28.4252 41.0751C28.3512 41.0704 28.2787 41.0656 28.2078 41.0607L28.1904 41.3101L28.3672 41.4868L28.5224 41.3315C32.1617 41.5481 39.3299 41.3643 43.4875 37.2076L28.4252 41.0751Z" fill="#F2F5FA" stroke="#00309D" stroke-width="0.5"/>
<path d="M25.1197 36.8383L25.1222 36.7314L25.0465 36.6558L18.8024 30.4125L19.7745 29.4405L24.8477 34.5137L25.2247 34.8907L25.2734 34.3598C25.4841 32.062 26.0547 29.8117 26.9642 27.6911L27.0314 27.5344L26.91 27.4146C24.7795 25.3123 21.8835 24.2848 19.2474 23.797C16.6081 23.3086 14.2021 23.3561 13.023 23.4252L12.801 23.4382L12.788 23.6601C12.7185 24.8449 12.6714 27.2626 13.1648 29.9113C13.6576 32.5569 14.6947 35.4605 16.8149 37.5884L16.8146 37.5886L16.8247 37.5978C19.106 39.6505 21.9638 40.9514 25.0101 41.3238L25.3215 41.3619L25.2891 41.0499C25.1438 39.651 25.0873 38.2443 25.1197 36.8383Z" fill="#F2F5FA" stroke="#00309D" stroke-width="0.5"/>
<path d="M48.5071 18.6553L48.5074 18.6553C48.7519 18.6959 48.9776 18.8119 49.1529 18.9871C49.3282 19.1624 49.4442 19.3881 49.4847 19.6326M48.5071 18.6553L49.2381 19.6735M48.5071 18.6553C48.2438 18.6119 45.1063 18.1153 41.2265 18.4347C37.3529 18.7535 32.6937 19.8894 29.4329 23.1511L29.4323 23.1517C28.7299 23.8585 28.1076 24.6402 27.5765 25.4826M48.5071 18.6553L27.7672 25.6491M49.4847 19.6326L49.2381 19.6735M49.4847 19.6326C49.4847 19.6326 49.4847 19.6325 49.4847 19.6324L49.2381 19.6735M49.4847 19.6326C49.5289 19.8976 50.0253 23.0343 49.7062 26.9135C49.3874 30.7874 48.2516 35.4473 44.9899 38.709L44.9898 38.7091C40.9461 42.7518 34.7502 43.5316 30.5509 43.5316C30.4532 43.5316 30.3591 43.5297 30.2687 43.5278L30.2672 43.5278C30.1776 43.526 30.0919 43.5242 30.0056 43.5241M49.2381 19.6735C49.3225 20.1798 51.2125 32.1329 44.8131 38.5323C40.8437 42.5007 34.7368 43.2816 30.5509 43.2816C30.4553 43.2816 30.3627 43.2797 30.2711 43.2778C30.1814 43.276 30.0925 43.2741 30.0025 43.2741C29.7381 43.2807 29.4681 43.2873 29.1756 43.2873C25.45 43.2873 19.54 42.5944 15.6662 38.7385C10.0478 33.0985 11.185 23.1141 11.2356 22.6923C11.2607 22.4839 11.3551 22.29 11.5034 22.1417C11.6518 21.9933 11.8457 21.899 12.054 21.8738M30.0056 43.5241C30.0066 43.5241 30.0076 43.5241 30.0087 43.5241L30.0025 43.2742V43.5241C30.0035 43.5241 30.0045 43.5241 30.0056 43.5241ZM30.0056 43.5241C29.7424 43.5307 29.4704 43.5373 29.1756 43.5373C25.437 43.5373 19.438 42.8457 15.4899 38.9157L15.4891 38.915C12.6233 36.0382 11.4917 32.0675 11.077 28.79C10.6617 25.5078 10.9608 22.8837 10.9874 22.6625L10.9874 22.6623C11.0192 22.3984 11.1387 22.1528 11.3267 21.9649C11.5145 21.7771 11.7598 21.6576 12.0235 21.6257M12.0235 21.6257C12.0233 21.6257 12.0231 21.6257 12.023 21.6258L12.054 21.8738M12.0235 21.6257C12.0237 21.6257 12.0239 21.6256 12.0241 21.6256L12.054 21.8738M12.0235 21.6257C12.2447 21.598 14.7343 21.3157 17.8893 21.6833C20.9621 22.0413 24.6983 23.0196 27.5765 25.4826M12.054 21.8738C12.461 21.8228 21.7239 20.7725 27.4435 25.698C27.4872 25.6258 27.5315 25.554 27.5765 25.4826M27.5765 25.4826C27.6405 25.5374 27.704 25.5929 27.7672 25.6491M27.7672 25.6491C28.293 24.8095 28.911 24.0309 29.6097 23.3279L27.7672 25.6491ZM24.8298 33.7888L19.9511 28.9102L19.7743 28.7334L19.5976 28.9102L18.2719 30.2358L18.0952 30.4126L18.272 30.5894L24.6174 36.9339C24.5918 38.2197 24.6396 39.5059 24.7604 40.7862C21.9348 40.3785 19.2906 39.1423 17.1641 37.2307C15.1475 35.2039 14.1397 32.4151 13.6563 29.8198C13.2021 27.3817 13.2152 25.1387 13.2751 23.9124C14.4958 23.8529 16.7277 23.8392 19.1563 24.2887C21.6932 24.7582 24.4185 25.7281 26.4373 27.6527C25.6144 29.6125 25.0733 31.6785 24.8298 33.7888ZM35.5053 40.7127C32.9664 41.1766 30.5011 41.1862 28.7593 41.0944L40.8227 29.0265L40.9992 28.85L40.8229 28.6732L39.5011 27.3476L39.3243 27.1703L39.1473 27.3474L27.0508 39.4438C26.9551 37.7106 26.9579 35.2379 27.4184 32.6864C27.9306 29.8484 29.0044 26.939 31.112 24.8332L31.1121 24.8331C33.5061 22.4386 36.9384 21.3804 40.119 20.9626C43.1387 20.5659 45.8984 20.7509 47.252 20.8931C47.396 22.2443 47.5828 25.0009 47.1866 28.0192C46.7693 31.1984 45.7099 34.6316 43.3107 37.0308C41.2169 39.1242 38.3283 40.1969 35.5053 40.7127Z" fill="#00309D" stroke="#00309D" stroke-width="0.5"/>
</svg>
