<svg width="54" height="58" viewBox="0 0 54 58" fill="none" xmlns="http://www.w3.org/2000/svg">
<path d="M26.7109 13.7657C42.5031 13.7657 52.9219 29.0001 52.9219 29.0001C52.9219 29.0001 42.5031 44.2344 26.7109 44.2344C10.9188 44.2344 0.5 29.0001 0.5 29.0001C0.5 29.0001 10.9188 13.7657 26.7109 13.7657Z" fill="#F2F5FA"/>
<path d="M26.7109 25.4845C28.6814 25.4845 30.2852 27.0619 30.2852 29.0001C30.2852 30.9382 28.6814 32.5157 26.7109 32.5157C24.7405 32.5157 23.1367 30.9382 23.1367 29.0001C23.1367 27.0619 24.7405 25.4845 26.7109 25.4845Z" fill="white"/>
<path d="M19 23.2501C19.966 23.2501 20.75 22.4661 20.75 21.5001C20.75 20.5288 19.9578 19.7501 19 19.7501C18.034 19.7501 17.25 20.5341 17.25 21.5001C17.25 22.4667 18.0341 23.2501 19 23.2501Z" fill="#00309D" stroke="#00309D" stroke-width="0.5"/>
<path d="M26.7384 0.764016L26.7383 0.763993C25.9544 0.646281 25.3027 1.28003 25.3027 2.04667V8.95348C25.3027 9.72013 25.9544 10.3539 26.7383 10.2362L26.7384 10.2361C27.3758 10.14 27.8027 9.5487 27.8027 8.92078V2.07937C27.8027 1.45146 27.3758 0.860128 26.7384 0.764016Z" fill="#00309D" stroke="#00309D" stroke-width="0.5"/>
<path d="M26.367 57.2361L26.3672 57.2362C27.1511 57.3539 27.8027 56.7201 27.8027 55.9535V49.0794C27.8027 48.4515 27.3758 47.8601 26.7384 47.764L26.7383 47.764C25.9544 47.6463 25.3027 48.28 25.3027 49.0467V55.9208C25.3027 56.5487 25.7296 57.14 26.367 57.2361Z" fill="#00309D" stroke="#00309D" stroke-width="0.5"/>
<path d="M11.4014 15.8484L11.4013 15.8484C10.8653 16.3839 9.99751 16.384 9.46185 15.8484L4.70453 11.091L4.70445 11.0909L4.88122 10.9141C4.44324 10.4766 4.44324 9.76657 4.88122 9.32857C5.31921 8.89058 6.02918 8.89058 6.46673 9.32857L11.4014 15.8484ZM11.4014 15.8484C11.9366 15.3131 11.9365 14.4449 11.4014 13.9094L11.4013 13.9093L6.6436 9.15189L11.4014 15.8484Z" fill="#00309D" stroke="#00309D" stroke-width="0.5"/>
<path d="M42.7045 43.1514L42.7045 43.1515C42.1688 43.6871 42.1688 44.5554 42.7045 45.091L47.4619 49.8485C47.9971 50.3836 48.8653 50.3842 49.401 49.8485C49.9366 49.3129 49.9366 48.4446 49.401 47.909L44.6435 43.1515L44.6435 43.1514C44.1078 42.6163 43.2401 42.6163 42.7045 43.1514Z" fill="#00309D" stroke="#00309D" stroke-width="0.5"/>
<path d="M49.4009 11.091L44.6435 15.8484C44.108 16.3839 43.2398 16.3841 42.7045 15.8484C42.7045 15.8484 42.7045 15.8484 42.7045 15.8484M49.4009 11.091L42.7045 15.8484M49.4009 11.091C49.401 11.0909 49.401 11.0909 49.401 11.0909C49.9367 10.5556 49.9366 9.68734 49.401 9.1518C48.8654 8.61617 47.9976 8.61617 47.4619 9.1518L42.7045 13.9093C42.1689 14.4448 42.1688 15.3131 42.7045 15.8484M49.4009 11.091L42.7045 15.8484" fill="#00309D" stroke="#00309D" stroke-width="0.5"/>
<path d="M9.46194 43.1514L9.46184 43.1515L4.70454 47.9092C4.7045 47.9092 4.70447 47.9093 4.70444 47.9093C4.16875 48.4446 4.16891 49.3128 4.70445 49.8484C5.24006 50.384 6.10788 50.384 6.6435 49.8484C6.6435 49.8484 6.64351 49.8484 6.64351 49.8484L11.4013 45.091L11.4014 45.0909C11.9365 44.5553 11.9365 43.6871 11.4014 43.1515L11.4013 43.1514C10.8657 42.6163 9.99754 42.6163 9.46194 43.1514Z" fill="#00309D" stroke="#00309D" stroke-width="0.5"/>
<path d="M7.61253 36.9776L7.76889 36.7826L7.61254 36.9777C13.5397 41.7284 20.0885 44.2501 26.5527 44.2501C33.017 44.2501 39.5658 41.7284 45.4929 36.9777C49.9316 33.4201 52.4525 29.9007 52.5644 29.7425C52.8822 29.2943 52.8822 28.7055 52.5642 28.2573C52.4525 28.0999 49.9316 24.5801 45.4929 21.0225C39.5658 16.2718 33.017 13.7501 26.5527 13.7501C20.0885 13.7501 13.5397 16.2718 7.61254 21.0225L7.61253 21.0225C3.17427 24.5801 0.653396 28.0995 0.541343 28.2572L0.541257 28.2573C0.223227 28.7056 0.223227 29.2946 0.541257 29.7428L0.541343 29.7429C0.653396 29.9007 3.17427 33.4201 7.61253 36.9776ZM9.3851 23.0491C13.1844 20.0038 19.236 16.3929 26.5527 16.3929C33.8472 16.3929 39.883 19.9831 43.673 23.0108C46.6633 25.4 48.758 27.8178 49.7086 29.001C48.7657 30.1754 46.6938 32.5678 43.7204 34.9511C39.921 37.9963 33.8695 41.6072 26.5527 41.6072C19.2583 41.6072 13.2225 38.017 9.43293 34.9893C6.44224 32.5997 4.34708 30.182 3.39725 28.9996C4.33964 27.8248 6.41159 25.4324 9.3851 23.0491Z" fill="#00309D" stroke="#00309D" stroke-width="0.5"/>
<path d="M22.7935 17.5258C22.0069 17.8314 21.6174 18.717 21.9229 19.5034L21.9229 19.5035C22.0652 19.8696 22.3381 20.1755 22.71 20.3388C23.0839 20.5029 23.5366 20.514 24.0222 20.3291C24.9645 19.9764 26.0244 19.8056 27 19.8056C31.7939 19.8056 35.6944 23.7062 35.6944 28.5001C35.6944 33.2802 31.8186 37.1945 27 37.1945C22.2061 37.1945 18.3056 33.2939 18.3056 28.5001C18.3056 27.9225 18.3564 27.4786 18.4495 26.9123C18.6047 26.0836 18.0591 25.2912 17.2324 25.1334L17.232 25.1334C16.4047 24.9769 15.6036 25.5241 15.4456 26.3518L15.4455 26.3524C15.3116 27.063 15.25 27.8113 15.25 28.5001C15.25 34.9791 20.521 40.2501 27 40.2501C33.5193 40.2501 38.75 34.9588 38.75 28.5001C38.75 22.021 33.479 16.7501 27 16.7501C25.6289 16.7501 24.1404 17.001 22.7935 17.5258ZM22.7935 17.5258C22.7935 17.5258 22.7936 17.5257 22.7936 17.5257L22.8842 17.7588L22.7934 17.5258C22.7934 17.5258 22.7935 17.5258 22.7935 17.5258Z" fill="#00309D" stroke="#00309D" stroke-width="0.5"/>
<path d="M31.75 28.5001C31.75 25.8809 29.6192 23.7501 27 23.7501C24.3808 23.7501 22.25 25.8809 22.25 28.5001C22.25 31.1193 24.3808 33.2501 27 33.2501C29.6192 33.2501 31.75 31.1193 31.75 28.5001ZM25 28.5001C25 27.3976 25.8975 26.5001 27 26.5001C28.1025 26.5001 29 27.3976 29 28.5001C29 29.6026 28.1025 30.5001 27 30.5001C25.8975 30.5001 25 29.6026 25 28.5001Z" fill="#00309D" stroke="#00309D" stroke-width="0.5"/>
</svg>
