<svg width="60" height="60" viewBox="0 0 60 60" fill="none" xmlns="http://www.w3.org/2000/svg">
<path d="M45.4171 53.3682L45.4171 53.3682C45.0766 52.7765 44.3229 52.5737 43.7335 52.918L43.6962 52.9397L43.6962 52.9397L43.6956 52.94C43.1076 53.2839 42.9091 54.0415 43.2489 54.6321L43.2489 54.6322C43.477 55.0284 43.8903 55.2503 44.315 55.2503C44.5253 55.2503 44.7386 55.1958 44.9326 55.0823L44.9699 55.0606L44.9704 55.0603C45.5584 54.7164 45.7569 53.9589 45.4171 53.3682Z" fill="#00309D" stroke="#00309D" stroke-width="0.5"/>
<mask id="path-2-outside-1_272_592" maskUnits="userSpaceOnUse" x="0.333008" y="0.000274658" width="60" height="60" fill="black">
<rect fill="white" x="0.333008" y="0.000274658" width="60" height="60"/>
<path d="M55.4467 15.5093C51.5745 8.80244 45.3224 4.00508 37.842 2.00067C30.3618 -0.00373387 22.5486 1.02498 15.8418 4.89706C9.1351 8.76914 4.33764 15.0214 2.33335 22.5017C0.329067 29.982 1.35766 37.7954 5.22973 44.5021C8.70304 50.5182 14.2235 55.0904 20.7741 57.3762C23.8792 58.4596 27.1208 59.0003 30.3573 59.0003C33.8764 59.0003 37.3891 58.3607 40.7095 57.0846C41.2935 56.8602 41.5848 56.2048 41.3603 55.6209C41.1358 55.0369 40.4804 54.7452 39.8966 54.9701C31.0584 58.367 21.4905 56.8236 14.3421 51.4579L15.357 46.1603L15.846 46.0014C17.6939 45.401 18.7089 43.4091 18.1088 41.561L17.7499 40.4566C17.6669 40.2011 17.6673 39.9309 17.751 39.6756C18.0658 38.7158 17.9534 37.6658 17.4423 36.7945C16.9313 35.9232 16.0698 35.3123 15.0785 35.1185L12.5218 34.6189L7.58858 30.8681C7.29303 30.6434 6.90617 30.5778 6.55296 30.6924L3.66475 31.6306C3.60346 30.5976 3.60255 29.5649 3.66078 28.5377C3.77474 28.6438 3.84894 28.716 3.89459 28.7634C3.95112 28.8575 4.02113 28.9438 4.10314 29.0186C4.339 29.2334 4.55264 29.3308 5.00124 29.3308C5.41347 29.3307 6.02371 29.2485 7.03135 29.0997C7.98699 28.9584 8.93765 28.7993 8.94705 28.7977C9.32801 28.7339 9.65007 28.4802 9.80164 28.125C9.95321 27.7698 9.91322 27.3618 9.69561 27.0426L8.30667 25.0054L10.2961 23.5828C10.4287 23.4879 10.5392 23.3657 10.6202 23.2243L13.7041 17.8406L14.9471 16.5087C16.2173 15.1472 16.5798 13.1554 15.8705 11.434C15.452 10.4186 14.7211 9.57333 13.8069 9.00363C14.797 8.22527 15.8527 7.50662 16.9746 6.85898C21.091 4.48233 25.5833 3.3306 30.0283 3.28653L28.0056 5.82393L20.5047 8.45354C20.2001 8.56025 19.9554 8.79202 19.8324 9.09041L17.7376 14.1686C17.5888 14.5294 17.6361 14.9411 17.8627 15.2587L20.9222 19.5444C20.4841 19.9442 20.0576 20.5264 19.5481 21.2494C19.3247 21.5665 19.1138 21.8659 18.968 22.0337C18.8413 22.1799 18.7144 22.3226 18.5886 22.464C17.9306 23.2043 17.2502 23.97 16.7669 24.9927C15.704 27.2423 15.9187 29.8571 17.327 31.8166C18.6888 33.7113 20.9338 34.6744 23.3299 34.3926C23.7203 34.3468 24.0843 34.2567 24.4364 34.1695C25.4076 33.9292 25.7153 33.9052 26.0268 34.1968C26.1784 34.3387 26.1923 34.3656 26.1892 34.8469C26.1871 35.1532 26.1847 35.5343 26.2903 35.9694C26.4594 36.6655 26.8966 37.1467 27.2477 37.5332C27.4223 37.7252 27.6029 37.9239 27.6585 38.0572C28.0118 38.9039 27.858 39.3727 27.5209 40.4002C27.492 40.4881 27.4625 40.5778 27.433 40.6698C26.9208 42.2552 27.6347 43.8278 28.2646 45.215C28.4691 45.6655 28.6623 46.0908 28.7888 46.4667C29.8073 49.4889 30.5709 50.1811 31.1836 50.4597C31.5045 50.6057 31.8367 50.6697 32.1722 50.6695C33.8051 50.6694 35.5091 49.1533 36.2919 48.1921C36.7835 47.5885 36.9046 46.9841 36.993 46.5427C37.0371 46.3231 37.0717 46.1498 37.1379 46.0365C37.2391 45.8632 37.3584 45.7289 37.5094 45.5587C37.8131 45.2167 38.1912 44.7912 38.436 44.0199C38.622 43.434 38.7571 43.2904 39.2047 42.8137C39.2826 42.7309 39.3657 42.6423 39.4548 42.5453C40.9636 40.9035 40.5751 39.6494 40.1635 38.3215C39.8172 37.2042 40.4229 36.4896 41.8874 35.1258C42.5222 34.5346 43.1786 33.9233 43.686 33.1888C43.908 32.8673 44.5835 31.8894 44.1655 30.92C43.7558 29.9696 42.7144 29.8099 41.8777 29.6816C41.5472 29.6309 41.0479 29.5543 40.889 29.4504C40.1881 28.9922 39.7593 28.0359 39.3446 27.1109C39.262 26.9268 39.1806 26.7451 39.098 26.5688C38.9507 26.2541 38.8036 25.8733 38.6478 25.4703C38.2357 24.4036 37.7686 23.1945 36.9735 22.3517C36.2588 21.5944 34.9116 21.2297 33.7229 20.9077C33.3231 20.7995 32.9458 20.6974 32.6969 20.6055C32.4884 20.5285 32.262 20.5145 32.0461 20.5653C31.4676 20.7009 31.1067 20.8503 30.8386 21.0651C30.7678 21.1218 30.5582 21.3082 30.4354 21.6077C30.0206 21.4087 29.4504 21.0286 29.0994 20.7947C29.0922 20.7898 29.0848 20.7849 29.0776 20.7801C29.1958 20.3068 29.0888 19.9269 28.9766 19.6897C28.3439 18.3512 26.2433 18.456 25.8289 18.4912C25.5935 18.5109 25.2957 18.5214 24.9806 18.5325C24.4858 18.5501 23.9389 18.5698 23.3978 18.6305L23.4256 18.5528C23.8364 17.4083 24.9293 16.6394 26.1453 16.6394H26.7893C27.4147 16.6394 27.922 16.1321 27.922 15.5067C27.922 14.8813 27.4147 14.374 26.7893 14.374H26.1453C24.34 14.374 22.6869 15.3241 21.7604 16.8195L20.0708 14.4527L21.7331 10.4234L29.0627 7.85371C29.2637 7.78325 29.4409 7.65751 29.5737 7.49087L32.8321 3.40378C41.1575 4.19573 48.9943 8.86362 53.485 16.6418C54.6812 18.7136 55.566 20.8947 56.1543 23.1256L55.6741 23.5538C55.0473 24.113 54.68 24.9152 54.666 25.7547C54.6659 25.7639 54.6656 25.7729 54.6653 25.782L53.883 23.6306C53.7664 23.3095 53.5947 23.0151 53.3729 22.7556L51.9774 21.1217C51.4363 20.4884 50.6486 20.1253 49.8159 20.1253H48.1077C47.5013 20.1253 46.9471 20.4574 46.6611 20.9918C46.3751 21.5262 46.4063 22.1717 46.7426 22.6761L46.9155 22.9356C45.8117 23.8848 44.535 24.6443 43.1757 25.1566L40.8341 20.6714V19.6708C40.8341 19.3613 40.7075 19.0651 40.4835 18.8515L38.375 16.8386C38.2587 16.7276 38.12 16.6427 37.9683 16.5893L36.0703 15.9223C35.4798 15.7146 34.8334 16.0253 34.6261 16.6154C34.4187 17.2057 34.729 17.8522 35.3191 18.0596L36.9871 18.6458L38.5687 20.1555V20.9494C38.5687 21.1319 38.6129 21.3118 38.6974 21.4737L41.6288 27.0887C41.8924 27.594 42.4908 27.8248 43.0248 27.6273L43.8783 27.3126C45.8613 26.5812 47.6993 25.4048 49.1937 23.9106C49.5755 23.5287 49.6348 22.9307 49.3352 22.4813L49.2749 22.3908H49.8159C49.985 22.3908 50.1451 22.4646 50.2549 22.5932L51.6504 24.2271C51.6954 24.2798 51.7302 24.3394 51.754 24.4047L53.294 28.6395C53.4264 29.0034 53.7354 29.2744 54.1131 29.3582C54.1946 29.3762 54.2768 29.385 54.3584 29.385C54.6556 29.385 54.9448 29.268 55.1593 29.0532L55.8924 28.3202C56.3566 27.8559 56.6762 27.2684 56.8289 26.6171C57.9626 35.7029 54.4 45.1016 46.8698 51.012C46.3775 51.3982 46.2917 52.1101 46.6781 52.6024C47.0643 53.0946 47.7761 53.1804 48.2684 52.794C53.705 48.527 57.4399 42.424 58.7851 35.6091C60.1429 28.7285 58.9574 21.59 55.4467 15.5093ZM6.68913 33.0302L11.3601 36.5817C11.4981 36.6867 11.6583 36.7585 11.8285 36.7917L14.6437 37.3418C15.0031 37.4121 15.3028 37.6246 15.488 37.9404C15.6732 38.2561 15.7122 38.6215 15.5982 38.9694C15.3637 39.6845 15.3626 40.4409 15.5952 41.1565L15.9541 42.2608C16.1685 42.9207 15.8058 43.6323 15.1459 43.8467L14.0202 44.2125C13.6275 44.34 13.3354 44.6713 13.2579 45.0766L12.3518 49.806C10.36 47.983 8.61117 45.8283 7.19164 43.3696C5.4598 40.3702 4.37774 37.171 3.90082 33.9361L6.68913 33.0302ZM13.2908 14.963L11.9583 16.3907C11.8988 16.4545 11.8468 16.525 11.8034 16.6006L8.77747 21.8836L6.08806 23.8067C5.58713 24.1649 5.4641 24.8574 5.81097 25.3663L6.8168 26.8416C6.23702 26.928 5.71672 26.9991 5.37076 27.0368C5.30426 26.9731 5.23471 26.9084 5.16278 26.8415C4.89351 26.5914 4.51934 26.2573 3.96154 25.7692C4.8815 20.0753 7.62517 14.7112 11.9403 10.6167C12.7666 10.8769 13.4447 11.4932 13.7759 12.2972C14.1486 13.2014 13.958 14.2479 13.2908 14.963ZM22.5266 21.1531C23.0319 20.8688 24.2046 20.8272 25.0607 20.7968C25.4039 20.7847 25.7281 20.7731 26.0176 20.7489C26.1704 20.7361 26.3401 20.7385 26.5002 20.7509C26.4287 20.9345 26.4055 21.1359 26.4365 21.3357C26.491 21.6872 26.7077 21.9925 27.0213 22.1603C27.2338 22.274 27.5296 22.4712 27.8427 22.68C28.728 23.2702 29.7315 23.9391 30.6743 23.9992C31.5316 24.0548 32.0086 23.5662 32.213 23.3581C32.2293 23.3416 32.2447 23.325 32.261 23.31C32.3761 23.2162 32.4839 23.0904 32.5641 22.9388C32.7453 22.9905 32.9356 23.0421 33.1307 23.095C33.8014 23.2766 35.0499 23.6146 35.3257 23.9069C35.8157 24.4263 36.1975 25.4149 36.5345 26.287C36.7048 26.7278 36.8657 27.1438 37.0461 27.5295C37.1236 27.695 37.1998 27.8655 37.2773 28.0381C37.8 29.204 38.3925 30.5256 39.6493 31.3471C40.2192 31.7197 40.9178 31.8267 41.5343 31.9213C41.6089 31.9328 41.6943 31.9459 41.781 31.9602C41.4151 32.4706 40.8942 32.9557 40.3437 33.4683C38.9414 34.7742 37.1962 36.3996 37.9999 38.9925C38.3793 40.2168 38.397 40.3491 37.787 41.0127C37.7038 41.1032 37.6263 41.1857 37.5537 41.263C37.0313 41.8192 36.6186 42.2585 36.2769 43.3347C36.1777 43.6472 36.0491 43.792 35.8157 44.0548C35.629 44.265 35.3964 44.527 35.182 44.894C34.925 45.3337 34.8401 45.7572 34.772 46.0974C34.7048 46.4321 34.6668 46.6001 34.5354 46.7614C34.2362 47.1287 33.6782 47.662 33.1053 48.026C32.5729 48.364 32.1561 48.4039 32.1561 48.4039C32.1561 48.4039 31.5974 47.7069 30.9358 45.7434C30.7727 45.259 30.5464 44.7605 30.3275 44.2785C29.8451 43.2159 29.3463 42.1171 29.5889 41.3662C29.6176 41.2776 29.6459 41.191 29.6738 41.1064C30.0614 39.9249 30.4273 38.8092 29.7494 37.1847C29.543 36.69 29.2144 36.3285 28.9248 36.0095C28.7373 35.8032 28.5249 35.5694 28.4921 35.4349C28.4523 35.2707 28.4535 35.0812 28.455 34.8618C28.4588 34.2699 28.4647 33.3755 27.5756 32.5429C26.322 31.3695 24.8602 31.731 23.8928 31.9702C23.5957 32.0437 23.315 32.1132 23.0662 32.1424C21.4748 32.3289 20.054 31.7285 19.1671 30.4942C18.2392 29.2031 18.1045 27.4657 18.8157 25.9602C19.1599 25.2317 19.68 24.6464 20.2822 23.9689C20.4137 23.8209 20.5465 23.6716 20.6792 23.5186C20.9001 23.264 21.1432 22.9192 21.4003 22.554C21.7072 22.1185 22.2786 21.3074 22.5266 21.1531Z"/>
</mask>
<path d="M55.4467 15.5093C51.5745 8.80244 45.3224 4.00508 37.842 2.00067C30.3618 -0.00373387 22.5486 1.02498 15.8418 4.89706C9.1351 8.76914 4.33764 15.0214 2.33335 22.5017C0.329067 29.982 1.35766 37.7954 5.22973 44.5021C8.70304 50.5182 14.2235 55.0904 20.7741 57.3762C23.8792 58.4596 27.1208 59.0003 30.3573 59.0003C33.8764 59.0003 37.3891 58.3607 40.7095 57.0846C41.2935 56.8602 41.5848 56.2048 41.3603 55.6209C41.1358 55.0369 40.4804 54.7452 39.8966 54.9701C31.0584 58.367 21.4905 56.8236 14.3421 51.4579L15.357 46.1603L15.846 46.0014C17.6939 45.401 18.7089 43.4091 18.1088 41.561L17.7499 40.4566C17.6669 40.2011 17.6673 39.9309 17.751 39.6756C18.0658 38.7158 17.9534 37.6658 17.4423 36.7945C16.9313 35.9232 16.0698 35.3123 15.0785 35.1185L12.5218 34.6189L7.58858 30.8681C7.29303 30.6434 6.90617 30.5778 6.55296 30.6924L3.66475 31.6306C3.60346 30.5976 3.60255 29.5649 3.66078 28.5377C3.77474 28.6438 3.84894 28.716 3.89459 28.7634C3.95112 28.8575 4.02113 28.9438 4.10314 29.0186C4.339 29.2334 4.55264 29.3308 5.00124 29.3308C5.41347 29.3307 6.02371 29.2485 7.03135 29.0997C7.98699 28.9584 8.93765 28.7993 8.94705 28.7977C9.32801 28.7339 9.65007 28.4802 9.80164 28.125C9.95321 27.7698 9.91322 27.3618 9.69561 27.0426L8.30667 25.0054L10.2961 23.5828C10.4287 23.4879 10.5392 23.3657 10.6202 23.2243L13.7041 17.8406L14.9471 16.5087C16.2173 15.1472 16.5798 13.1554 15.8705 11.434C15.452 10.4186 14.7211 9.57333 13.8069 9.00363C14.797 8.22527 15.8527 7.50662 16.9746 6.85898C21.091 4.48233 25.5833 3.3306 30.0283 3.28653L28.0056 5.82393L20.5047 8.45354C20.2001 8.56025 19.9554 8.79202 19.8324 9.09041L17.7376 14.1686C17.5888 14.5294 17.6361 14.9411 17.8627 15.2587L20.9222 19.5444C20.4841 19.9442 20.0576 20.5264 19.5481 21.2494C19.3247 21.5665 19.1138 21.8659 18.968 22.0337C18.8413 22.1799 18.7144 22.3226 18.5886 22.464C17.9306 23.2043 17.2502 23.97 16.7669 24.9927C15.704 27.2423 15.9187 29.8571 17.327 31.8166C18.6888 33.7113 20.9338 34.6744 23.3299 34.3926C23.7203 34.3468 24.0843 34.2567 24.4364 34.1695C25.4076 33.9292 25.7153 33.9052 26.0268 34.1968C26.1784 34.3387 26.1923 34.3656 26.1892 34.8469C26.1871 35.1532 26.1847 35.5343 26.2903 35.9694C26.4594 36.6655 26.8966 37.1467 27.2477 37.5332C27.4223 37.7252 27.6029 37.9239 27.6585 38.0572C28.0118 38.9039 27.858 39.3727 27.5209 40.4002C27.492 40.4881 27.4625 40.5778 27.433 40.6698C26.9208 42.2552 27.6347 43.8278 28.2646 45.215C28.4691 45.6655 28.6623 46.0908 28.7888 46.4667C29.8073 49.4889 30.5709 50.1811 31.1836 50.4597C31.5045 50.6057 31.8367 50.6697 32.1722 50.6695C33.8051 50.6694 35.5091 49.1533 36.2919 48.1921C36.7835 47.5885 36.9046 46.9841 36.993 46.5427C37.0371 46.3231 37.0717 46.1498 37.1379 46.0365C37.2391 45.8632 37.3584 45.7289 37.5094 45.5587C37.8131 45.2167 38.1912 44.7912 38.436 44.0199C38.622 43.434 38.7571 43.2904 39.2047 42.8137C39.2826 42.7309 39.3657 42.6423 39.4548 42.5453C40.9636 40.9035 40.5751 39.6494 40.1635 38.3215C39.8172 37.2042 40.4229 36.4896 41.8874 35.1258C42.5222 34.5346 43.1786 33.9233 43.686 33.1888C43.908 32.8673 44.5835 31.8894 44.1655 30.92C43.7558 29.9696 42.7144 29.8099 41.8777 29.6816C41.5472 29.6309 41.0479 29.5543 40.889 29.4504C40.1881 28.9922 39.7593 28.0359 39.3446 27.1109C39.262 26.9268 39.1806 26.7451 39.098 26.5688C38.9507 26.2541 38.8036 25.8733 38.6478 25.4703C38.2357 24.4036 37.7686 23.1945 36.9735 22.3517C36.2588 21.5944 34.9116 21.2297 33.7229 20.9077C33.3231 20.7995 32.9458 20.6974 32.6969 20.6055C32.4884 20.5285 32.262 20.5145 32.0461 20.5653C31.4676 20.7009 31.1067 20.8503 30.8386 21.0651C30.7678 21.1218 30.5582 21.3082 30.4354 21.6077C30.0206 21.4087 29.4504 21.0286 29.0994 20.7947C29.0922 20.7898 29.0848 20.7849 29.0776 20.7801C29.1958 20.3068 29.0888 19.9269 28.9766 19.6897C28.3439 18.3512 26.2433 18.456 25.8289 18.4912C25.5935 18.5109 25.2957 18.5214 24.9806 18.5325C24.4858 18.5501 23.9389 18.5698 23.3978 18.6305L23.4256 18.5528C23.8364 17.4083 24.9293 16.6394 26.1453 16.6394H26.7893C27.4147 16.6394 27.922 16.1321 27.922 15.5067C27.922 14.8813 27.4147 14.374 26.7893 14.374H26.1453C24.34 14.374 22.6869 15.3241 21.7604 16.8195L20.0708 14.4527L21.7331 10.4234L29.0627 7.85371C29.2637 7.78325 29.4409 7.65751 29.5737 7.49087L32.8321 3.40378C41.1575 4.19573 48.9943 8.86362 53.485 16.6418C54.6812 18.7136 55.566 20.8947 56.1543 23.1256L55.6741 23.5538C55.0473 24.113 54.68 24.9152 54.666 25.7547C54.6659 25.7639 54.6656 25.7729 54.6653 25.782L53.883 23.6306C53.7664 23.3095 53.5947 23.0151 53.3729 22.7556L51.9774 21.1217C51.4363 20.4884 50.6486 20.1253 49.8159 20.1253H48.1077C47.5013 20.1253 46.9471 20.4574 46.6611 20.9918C46.3751 21.5262 46.4063 22.1717 46.7426 22.6761L46.9155 22.9356C45.8117 23.8848 44.535 24.6443 43.1757 25.1566L40.8341 20.6714V19.6708C40.8341 19.3613 40.7075 19.0651 40.4835 18.8515L38.375 16.8386C38.2587 16.7276 38.12 16.6427 37.9683 16.5893L36.0703 15.9223C35.4798 15.7146 34.8334 16.0253 34.6261 16.6154C34.4187 17.2057 34.729 17.8522 35.3191 18.0596L36.9871 18.6458L38.5687 20.1555V20.9494C38.5687 21.1319 38.6129 21.3118 38.6974 21.4737L41.6288 27.0887C41.8924 27.594 42.4908 27.8248 43.0248 27.6273L43.8783 27.3126C45.8613 26.5812 47.6993 25.4048 49.1937 23.9106C49.5755 23.5287 49.6348 22.9307 49.3352 22.4813L49.2749 22.3908H49.8159C49.985 22.3908 50.1451 22.4646 50.2549 22.5932L51.6504 24.2271C51.6954 24.2798 51.7302 24.3394 51.754 24.4047L53.294 28.6395C53.4264 29.0034 53.7354 29.2744 54.1131 29.3582C54.1946 29.3762 54.2768 29.385 54.3584 29.385C54.6556 29.385 54.9448 29.268 55.1593 29.0532L55.8924 28.3202C56.3566 27.8559 56.6762 27.2684 56.8289 26.6171C57.9626 35.7029 54.4 45.1016 46.8698 51.012C46.3775 51.3982 46.2917 52.1101 46.6781 52.6024C47.0643 53.0946 47.7761 53.1804 48.2684 52.794C53.705 48.527 57.4399 42.424 58.7851 35.6091C60.1429 28.7285 58.9574 21.59 55.4467 15.5093ZM6.68913 33.0302L11.3601 36.5817C11.4981 36.6867 11.6583 36.7585 11.8285 36.7917L14.6437 37.3418C15.0031 37.4121 15.3028 37.6246 15.488 37.9404C15.6732 38.2561 15.7122 38.6215 15.5982 38.9694C15.3637 39.6845 15.3626 40.4409 15.5952 41.1565L15.9541 42.2608C16.1685 42.9207 15.8058 43.6323 15.1459 43.8467L14.0202 44.2125C13.6275 44.34 13.3354 44.6713 13.2579 45.0766L12.3518 49.806C10.36 47.983 8.61117 45.8283 7.19164 43.3696C5.4598 40.3702 4.37774 37.171 3.90082 33.9361L6.68913 33.0302ZM13.2908 14.963L11.9583 16.3907C11.8988 16.4545 11.8468 16.525 11.8034 16.6006L8.77747 21.8836L6.08806 23.8067C5.58713 24.1649 5.4641 24.8574 5.81097 25.3663L6.8168 26.8416C6.23702 26.928 5.71672 26.9991 5.37076 27.0368C5.30426 26.9731 5.23471 26.9084 5.16278 26.8415C4.89351 26.5914 4.51934 26.2573 3.96154 25.7692C4.8815 20.0753 7.62517 14.7112 11.9403 10.6167C12.7666 10.8769 13.4447 11.4932 13.7759 12.2972C14.1486 13.2014 13.958 14.2479 13.2908 14.963ZM22.5266 21.1531C23.0319 20.8688 24.2046 20.8272 25.0607 20.7968C25.4039 20.7847 25.7281 20.7731 26.0176 20.7489C26.1704 20.7361 26.3401 20.7385 26.5002 20.7509C26.4287 20.9345 26.4055 21.1359 26.4365 21.3357C26.491 21.6872 26.7077 21.9925 27.0213 22.1603C27.2338 22.274 27.5296 22.4712 27.8427 22.68C28.728 23.2702 29.7315 23.9391 30.6743 23.9992C31.5316 24.0548 32.0086 23.5662 32.213 23.3581C32.2293 23.3416 32.2447 23.325 32.261 23.31C32.3761 23.2162 32.4839 23.0904 32.5641 22.9388C32.7453 22.9905 32.9356 23.0421 33.1307 23.095C33.8014 23.2766 35.0499 23.6146 35.3257 23.9069C35.8157 24.4263 36.1975 25.4149 36.5345 26.287C36.7048 26.7278 36.8657 27.1438 37.0461 27.5295C37.1236 27.695 37.1998 27.8655 37.2773 28.0381C37.8 29.204 38.3925 30.5256 39.6493 31.3471C40.2192 31.7197 40.9178 31.8267 41.5343 31.9213C41.6089 31.9328 41.6943 31.9459 41.781 31.9602C41.4151 32.4706 40.8942 32.9557 40.3437 33.4683C38.9414 34.7742 37.1962 36.3996 37.9999 38.9925C38.3793 40.2168 38.397 40.3491 37.787 41.0127C37.7038 41.1032 37.6263 41.1857 37.5537 41.263C37.0313 41.8192 36.6186 42.2585 36.2769 43.3347C36.1777 43.6472 36.0491 43.792 35.8157 44.0548C35.629 44.265 35.3964 44.527 35.182 44.894C34.925 45.3337 34.8401 45.7572 34.772 46.0974C34.7048 46.4321 34.6668 46.6001 34.5354 46.7614C34.2362 47.1287 33.6782 47.662 33.1053 48.026C32.5729 48.364 32.1561 48.4039 32.1561 48.4039C32.1561 48.4039 31.5974 47.7069 30.9358 45.7434C30.7727 45.259 30.5464 44.7605 30.3275 44.2785C29.8451 43.2159 29.3463 42.1171 29.5889 41.3662C29.6176 41.2776 29.6459 41.191 29.6738 41.1064C30.0614 39.9249 30.4273 38.8092 29.7494 37.1847C29.543 36.69 29.2144 36.3285 28.9248 36.0095C28.7373 35.8032 28.5249 35.5694 28.4921 35.4349C28.4523 35.2707 28.4535 35.0812 28.455 34.8618C28.4588 34.2699 28.4647 33.3755 27.5756 32.5429C26.322 31.3695 24.8602 31.731 23.8928 31.9702C23.5957 32.0437 23.315 32.1132 23.0662 32.1424C21.4748 32.3289 20.054 31.7285 19.1671 30.4942C18.2392 29.2031 18.1045 27.4657 18.8157 25.9602C19.1599 25.2317 19.68 24.6464 20.2822 23.9689C20.4137 23.8209 20.5465 23.6716 20.6792 23.5186C20.9001 23.264 21.1432 22.9192 21.4003 22.554C21.7072 22.1185 22.2786 21.3074 22.5266 21.1531Z" fill="#00309D"/>
<path d="M55.4467 15.5093C51.5745 8.80244 45.3224 4.00508 37.842 2.00067C30.3618 -0.00373387 22.5486 1.02498 15.8418 4.89706C9.1351 8.76914 4.33764 15.0214 2.33335 22.5017C0.329067 29.982 1.35766 37.7954 5.22973 44.5021C8.70304 50.5182 14.2235 55.0904 20.7741 57.3762C23.8792 58.4596 27.1208 59.0003 30.3573 59.0003C33.8764 59.0003 37.3891 58.3607 40.7095 57.0846C41.2935 56.8602 41.5848 56.2048 41.3603 55.6209C41.1358 55.0369 40.4804 54.7452 39.8966 54.9701C31.0584 58.367 21.4905 56.8236 14.3421 51.4579L15.357 46.1603L15.846 46.0014C17.6939 45.401 18.7089 43.4091 18.1088 41.561L17.7499 40.4566C17.6669 40.2011 17.6673 39.9309 17.751 39.6756C18.0658 38.7158 17.9534 37.6658 17.4423 36.7945C16.9313 35.9232 16.0698 35.3123 15.0785 35.1185L12.5218 34.6189L7.58858 30.8681C7.29303 30.6434 6.90617 30.5778 6.55296 30.6924L3.66475 31.6306C3.60346 30.5976 3.60255 29.5649 3.66078 28.5377C3.77474 28.6438 3.84894 28.716 3.89459 28.7634C3.95112 28.8575 4.02113 28.9438 4.10314 29.0186C4.339 29.2334 4.55264 29.3308 5.00124 29.3308C5.41347 29.3307 6.02371 29.2485 7.03135 29.0997C7.98699 28.9584 8.93765 28.7993 8.94705 28.7977C9.32801 28.7339 9.65007 28.4802 9.80164 28.125C9.95321 27.7698 9.91322 27.3618 9.69561 27.0426L8.30667 25.0054L10.2961 23.5828C10.4287 23.4879 10.5392 23.3657 10.6202 23.2243L13.7041 17.8406L14.9471 16.5087C16.2173 15.1472 16.5798 13.1554 15.8705 11.434C15.452 10.4186 14.7211 9.57333 13.8069 9.00363C14.797 8.22527 15.8527 7.50662 16.9746 6.85898C21.091 4.48233 25.5833 3.3306 30.0283 3.28653L28.0056 5.82393L20.5047 8.45354C20.2001 8.56025 19.9554 8.79202 19.8324 9.09041L17.7376 14.1686C17.5888 14.5294 17.6361 14.9411 17.8627 15.2587L20.9222 19.5444C20.4841 19.9442 20.0576 20.5264 19.5481 21.2494C19.3247 21.5665 19.1138 21.8659 18.968 22.0337C18.8413 22.1799 18.7144 22.3226 18.5886 22.464C17.9306 23.2043 17.2502 23.97 16.7669 24.9927C15.704 27.2423 15.9187 29.8571 17.327 31.8166C18.6888 33.7113 20.9338 34.6744 23.3299 34.3926C23.7203 34.3468 24.0843 34.2567 24.4364 34.1695C25.4076 33.9292 25.7153 33.9052 26.0268 34.1968C26.1784 34.3387 26.1923 34.3656 26.1892 34.8469C26.1871 35.1532 26.1847 35.5343 26.2903 35.9694C26.4594 36.6655 26.8966 37.1467 27.2477 37.5332C27.4223 37.7252 27.6029 37.9239 27.6585 38.0572C28.0118 38.9039 27.858 39.3727 27.5209 40.4002C27.492 40.4881 27.4625 40.5778 27.433 40.6698C26.9208 42.2552 27.6347 43.8278 28.2646 45.215C28.4691 45.6655 28.6623 46.0908 28.7888 46.4667C29.8073 49.4889 30.5709 50.1811 31.1836 50.4597C31.5045 50.6057 31.8367 50.6697 32.1722 50.6695C33.8051 50.6694 35.5091 49.1533 36.2919 48.1921C36.7835 47.5885 36.9046 46.9841 36.993 46.5427C37.0371 46.3231 37.0717 46.1498 37.1379 46.0365C37.2391 45.8632 37.3584 45.7289 37.5094 45.5587C37.8131 45.2167 38.1912 44.7912 38.436 44.0199C38.622 43.434 38.7571 43.2904 39.2047 42.8137C39.2826 42.7309 39.3657 42.6423 39.4548 42.5453C40.9636 40.9035 40.5751 39.6494 40.1635 38.3215C39.8172 37.2042 40.4229 36.4896 41.8874 35.1258C42.5222 34.5346 43.1786 33.9233 43.686 33.1888C43.908 32.8673 44.5835 31.8894 44.1655 30.92C43.7558 29.9696 42.7144 29.8099 41.8777 29.6816C41.5472 29.6309 41.0479 29.5543 40.889 29.4504C40.1881 28.9922 39.7593 28.0359 39.3446 27.1109C39.262 26.9268 39.1806 26.7451 39.098 26.5688C38.9507 26.2541 38.8036 25.8733 38.6478 25.4703C38.2357 24.4036 37.7686 23.1945 36.9735 22.3517C36.2588 21.5944 34.9116 21.2297 33.7229 20.9077C33.3231 20.7995 32.9458 20.6974 32.6969 20.6055C32.4884 20.5285 32.262 20.5145 32.0461 20.5653C31.4676 20.7009 31.1067 20.8503 30.8386 21.0651C30.7678 21.1218 30.5582 21.3082 30.4354 21.6077C30.0206 21.4087 29.4504 21.0286 29.0994 20.7947C29.0922 20.7898 29.0848 20.7849 29.0776 20.7801C29.1958 20.3068 29.0888 19.9269 28.9766 19.6897C28.3439 18.3512 26.2433 18.456 25.8289 18.4912C25.5935 18.5109 25.2957 18.5214 24.9806 18.5325C24.4858 18.5501 23.9389 18.5698 23.3978 18.6305L23.4256 18.5528C23.8364 17.4083 24.9293 16.6394 26.1453 16.6394H26.7893C27.4147 16.6394 27.922 16.1321 27.922 15.5067C27.922 14.8813 27.4147 14.374 26.7893 14.374H26.1453C24.34 14.374 22.6869 15.3241 21.7604 16.8195L20.0708 14.4527L21.7331 10.4234L29.0627 7.85371C29.2637 7.78325 29.4409 7.65751 29.5737 7.49087L32.8321 3.40378C41.1575 4.19573 48.9943 8.86362 53.485 16.6418C54.6812 18.7136 55.566 20.8947 56.1543 23.1256L55.6741 23.5538C55.0473 24.113 54.68 24.9152 54.666 25.7547C54.6659 25.7639 54.6656 25.7729 54.6653 25.782L53.883 23.6306C53.7664 23.3095 53.5947 23.0151 53.3729 22.7556L51.9774 21.1217C51.4363 20.4884 50.6486 20.1253 49.8159 20.1253H48.1077C47.5013 20.1253 46.9471 20.4574 46.6611 20.9918C46.3751 21.5262 46.4063 22.1717 46.7426 22.6761L46.9155 22.9356C45.8117 23.8848 44.535 24.6443 43.1757 25.1566L40.8341 20.6714V19.6708C40.8341 19.3613 40.7075 19.0651 40.4835 18.8515L38.375 16.8386C38.2587 16.7276 38.12 16.6427 37.9683 16.5893L36.0703 15.9223C35.4798 15.7146 34.8334 16.0253 34.6261 16.6154C34.4187 17.2057 34.729 17.8522 35.3191 18.0596L36.9871 18.6458L38.5687 20.1555V20.9494C38.5687 21.1319 38.6129 21.3118 38.6974 21.4737L41.6288 27.0887C41.8924 27.594 42.4908 27.8248 43.0248 27.6273L43.8783 27.3126C45.8613 26.5812 47.6993 25.4048 49.1937 23.9106C49.5755 23.5287 49.6348 22.9307 49.3352 22.4813L49.2749 22.3908H49.8159C49.985 22.3908 50.1451 22.4646 50.2549 22.5932L51.6504 24.2271C51.6954 24.2798 51.7302 24.3394 51.754 24.4047L53.294 28.6395C53.4264 29.0034 53.7354 29.2744 54.1131 29.3582C54.1946 29.3762 54.2768 29.385 54.3584 29.385C54.6556 29.385 54.9448 29.268 55.1593 29.0532L55.8924 28.3202C56.3566 27.8559 56.6762 27.2684 56.8289 26.6171C57.9626 35.7029 54.4 45.1016 46.8698 51.012C46.3775 51.3982 46.2917 52.1101 46.6781 52.6024C47.0643 53.0946 47.7761 53.1804 48.2684 52.794C53.705 48.527 57.4399 42.424 58.7851 35.6091C60.1429 28.7285 58.9574 21.59 55.4467 15.5093ZM6.68913 33.0302L11.3601 36.5817C11.4981 36.6867 11.6583 36.7585 11.8285 36.7917L14.6437 37.3418C15.0031 37.4121 15.3028 37.6246 15.488 37.9404C15.6732 38.2561 15.7122 38.6215 15.5982 38.9694C15.3637 39.6845 15.3626 40.4409 15.5952 41.1565L15.9541 42.2608C16.1685 42.9207 15.8058 43.6323 15.1459 43.8467L14.0202 44.2125C13.6275 44.34 13.3354 44.6713 13.2579 45.0766L12.3518 49.806C10.36 47.983 8.61117 45.8283 7.19164 43.3696C5.4598 40.3702 4.37774 37.171 3.90082 33.9361L6.68913 33.0302ZM13.2908 14.963L11.9583 16.3907C11.8988 16.4545 11.8468 16.525 11.8034 16.6006L8.77747 21.8836L6.08806 23.8067C5.58713 24.1649 5.4641 24.8574 5.81097 25.3663L6.8168 26.8416C6.23702 26.928 5.71672 26.9991 5.37076 27.0368C5.30426 26.9731 5.23471 26.9084 5.16278 26.8415C4.89351 26.5914 4.51934 26.2573 3.96154 25.7692C4.8815 20.0753 7.62517 14.7112 11.9403 10.6167C12.7666 10.8769 13.4447 11.4932 13.7759 12.2972C14.1486 13.2014 13.958 14.2479 13.2908 14.963ZM22.5266 21.1531C23.0319 20.8688 24.2046 20.8272 25.0607 20.7968C25.4039 20.7847 25.7281 20.7731 26.0176 20.7489C26.1704 20.7361 26.3401 20.7385 26.5002 20.7509C26.4287 20.9345 26.4055 21.1359 26.4365 21.3357C26.491 21.6872 26.7077 21.9925 27.0213 22.1603C27.2338 22.274 27.5296 22.4712 27.8427 22.68C28.728 23.2702 29.7315 23.9391 30.6743 23.9992C31.5316 24.0548 32.0086 23.5662 32.213 23.3581C32.2293 23.3416 32.2447 23.325 32.261 23.31C32.3761 23.2162 32.4839 23.0904 32.5641 22.9388C32.7453 22.9905 32.9356 23.0421 33.1307 23.095C33.8014 23.2766 35.0499 23.6146 35.3257 23.9069C35.8157 24.4263 36.1975 25.4149 36.5345 26.287C36.7048 26.7278 36.8657 27.1438 37.0461 27.5295C37.1236 27.695 37.1998 27.8655 37.2773 28.0381C37.8 29.204 38.3925 30.5256 39.6493 31.3471C40.2192 31.7197 40.9178 31.8267 41.5343 31.9213C41.6089 31.9328 41.6943 31.9459 41.781 31.9602C41.4151 32.4706 40.8942 32.9557 40.3437 33.4683C38.9414 34.7742 37.1962 36.3996 37.9999 38.9925C38.3793 40.2168 38.397 40.3491 37.787 41.0127C37.7038 41.1032 37.6263 41.1857 37.5537 41.263C37.0313 41.8192 36.6186 42.2585 36.2769 43.3347C36.1777 43.6472 36.0491 43.792 35.8157 44.0548C35.629 44.265 35.3964 44.527 35.182 44.894C34.925 45.3337 34.8401 45.7572 34.772 46.0974C34.7048 46.4321 34.6668 46.6001 34.5354 46.7614C34.2362 47.1287 33.6782 47.662 33.1053 48.026C32.5729 48.364 32.1561 48.4039 32.1561 48.4039C32.1561 48.4039 31.5974 47.7069 30.9358 45.7434C30.7727 45.259 30.5464 44.7605 30.3275 44.2785C29.8451 43.2159 29.3463 42.1171 29.5889 41.3662C29.6176 41.2776 29.6459 41.191 29.6738 41.1064C30.0614 39.9249 30.4273 38.8092 29.7494 37.1847C29.543 36.69 29.2144 36.3285 28.9248 36.0095C28.7373 35.8032 28.5249 35.5694 28.4921 35.4349C28.4523 35.2707 28.4535 35.0812 28.455 34.8618C28.4588 34.2699 28.4647 33.3755 27.5756 32.5429C26.322 31.3695 24.8602 31.731 23.8928 31.9702C23.5957 32.0437 23.315 32.1132 23.0662 32.1424C21.4748 32.3289 20.054 31.7285 19.1671 30.4942C18.2392 29.2031 18.1045 27.4657 18.8157 25.9602C19.1599 25.2317 19.68 24.6464 20.2822 23.9689C20.4137 23.8209 20.5465 23.6716 20.6792 23.5186C20.9001 23.264 21.1432 22.9192 21.4003 22.554C21.7072 22.1185 22.2786 21.3074 22.5266 21.1531Z" stroke="#00309D" mask="url(#path-2-outside-1_272_592)"/>
<path d="M25.0519 20.547L25.052 20.547L25.0519 20.547ZM25.0519 20.547L25.0477 20.5471C24.6221 20.5622 24.1077 20.5805 23.6354 20.6312C23.1732 20.6808 22.7063 20.7652 22.4041 20.9352L22.404 20.935M25.0519 20.547L22.404 20.935M22.404 20.935L22.3947 20.9408M22.404 20.935L22.3947 20.9408M22.3947 20.9408C22.2992 21.0002 22.1962 21.1045 22.1028 21.2093C22.0038 21.3203 21.8953 21.4551 21.7876 21.5955C21.5723 21.8759 21.3505 22.1908 21.1975 22.4079L21.1964 22.4094L21.1964 22.4094L21.196 22.41L21.1959 22.4101M22.3947 20.9408L21.1959 22.4101M21.1959 22.4101C20.9365 22.7787 20.7013 23.1118 20.4905 23.3548C20.3643 23.5001 20.238 23.6423 20.1117 23.7845L20.0954 23.8028L20.0954 23.8029L20.0839 23.8158C19.4908 24.483 18.9496 25.0918 18.5897 25.8534L18.5897 25.8534M21.1959 22.4101L18.5897 25.8534M18.5897 25.8534C17.842 27.4363 17.9802 29.271 18.9641 30.6401C19.9076 31.953 21.4198 32.5871 23.0954 32.3907L23.0954 32.3907C23.3583 32.3599 23.6497 32.2879 23.9371 32.2169L23.9472 32.2143L23.9528 32.213L23.9529 32.2129C24.9318 31.9709 26.2602 31.654 27.4048 32.7254M18.5897 25.8534L27.4048 32.7254M27.4048 32.7254C28.2118 33.4811 28.2088 34.2787 28.2051 34.86V34.8609V34.8616V34.8618L28.2049 34.878C28.2035 35.0831 28.202 35.2994 28.2493 35.4939L28.2493 35.494C28.2668 35.5659 28.3025 35.6323 28.335 35.6846C28.3696 35.74 28.4116 35.7967 28.4551 35.8512C28.5409 35.9588 28.6456 36.074 28.7374 36.175L28.7397 36.1776L28.7398 36.1777L28.7411 36.1791L28.7412 36.1792C29.0328 36.5003 29.3315 36.8322 29.5188 37.281L29.5188 37.281C30.1592 38.8157 29.8216 39.854 29.4363 41.0285C29.4084 41.1133 29.3799 41.2002 29.3511 41.2892L29.3511 41.2893C29.2052 41.7407 29.289 42.2656 29.4475 42.7792C29.6069 43.2961 29.8578 43.8486 30.0963 44.3738L30.0998 44.3815L30.1 44.3819L30.1 44.3819L30.1002 44.3824C30.3201 44.8667 30.5407 45.3531 30.699 45.8232L30.699 45.8232C31.0337 46.8166 31.344 47.4943 31.5732 47.927C31.6878 48.1433 31.7822 48.2984 31.8492 48.401C31.8827 48.4523 31.9094 48.4905 31.9284 48.5167C31.9378 48.5298 31.9454 48.5399 31.9509 48.5471L31.9576 48.5558L31.9597 48.5585L31.9605 48.5595L31.9608 48.5599L31.961 48.5601C31.961 48.5602 31.9611 48.5603 32.1562 48.4039M27.4048 32.7254L40.5141 33.6513L40.3438 33.4683M32.1562 48.4039L31.9611 48.5603L32.0456 48.6656L32.18 48.6528L32.1562 48.4039ZM32.1562 48.4039C32.18 48.6528 32.1801 48.6528 32.1802 48.6528L32.1803 48.6527L32.1807 48.6527L32.1816 48.6526L32.1839 48.6524L32.1902 48.6517L32.21 48.6491C32.2262 48.6468 32.2486 48.6433 32.2764 48.638C32.3319 48.6274 32.4095 48.6098 32.5042 48.5808C32.6936 48.5229 32.9519 48.4196 33.2394 48.2371L33.2394 48.237C33.8373 47.8571 34.415 47.3051 34.7292 46.9193C34.9055 46.7029 34.9519 46.4719 35.0164 46.1503L35.0172 46.1466L35.0172 46.1464C35.0853 45.8064 35.1641 45.4202 35.3979 45.0201C35.5987 44.6764 35.8165 44.4305 36.0026 44.2208L36.0027 44.2209L36.0041 44.2191L36.0103 44.2122C36.2409 43.9527 36.3999 43.7737 36.5153 43.4103C36.8397 42.3883 37.2219 41.9815 37.7341 41.4361L37.7355 41.4347L37.7356 41.4346L37.7359 41.4342L37.736 41.4342C37.8085 41.357 37.8869 41.2736 37.9711 41.1819C37.9711 41.1819 37.9711 41.1819 37.9712 41.1819L37.787 41.0127M37.787 41.0127C38.3971 40.3491 38.3794 40.2168 38 38.9925C37.1963 36.3996 38.9415 34.7742 40.3438 33.4683M37.787 41.0127C37.7039 41.1033 37.6264 41.1857 37.5538 41.263M37.787 41.0127L37.5538 41.263M40.3438 33.4683L40.5142 33.6512L40.515 33.6504L40.5151 33.6504L40.5273 33.639C41.0682 33.1353 41.604 32.6363 41.9843 32.1058L42.2187 31.7788L41.8217 31.7135C41.7334 31.699 41.6468 31.6856 41.5723 31.6742L41.5719 31.6742L41.5714 31.6741M40.3438 33.4683L40.3447 33.4674L40.3447 33.4674C40.8132 33.0311 41.2603 32.6148 41.6085 32.1857C41.6514 32.1924 41.6958 32.1995 41.7405 32.2069L41.7811 31.9602L41.5779 31.8145C41.5666 31.8303 41.5552 31.846 41.5435 31.8618C41.5435 31.8618 41.5435 31.8619 41.5434 31.8619C41.5431 31.8624 41.5427 31.8629 41.5424 31.8634L41.5714 31.6741M41.5714 31.6741L41.571 31.674L41.5422 31.8635M41.5714 31.6741C40.9452 31.578 40.3029 31.4756 39.7862 31.1378L39.7862 31.1378C38.5998 30.3624 38.0326 29.1116 37.5055 27.9359L37.5055 27.9358L37.4883 27.8975L37.4878 27.8965C37.4166 27.7376 37.3452 27.5786 37.2726 27.4235M41.5422 31.8635L36.7679 26.1972M41.5422 31.8635C41.5292 31.8812 41.5159 31.8988 41.5025 31.9164C40.8939 31.823 40.2095 31.7133 39.6494 31.3471C38.3925 30.5256 37.8001 29.204 37.2774 28.0381L37.2602 27.9999C37.1886 27.8403 37.1179 27.6828 37.0462 27.5295M41.5422 31.8635L36.5346 26.287M37.2726 27.4235C37.0965 27.0471 36.9388 26.6395 36.7679 26.1972M37.2726 27.4235C37.2726 27.4235 37.2726 27.4235 37.2726 27.4236L37.0462 27.5295M37.2726 27.4235L37.0462 27.5295M36.7679 26.1972L36.5346 26.287M36.7679 26.1972L36.5346 26.287M36.5346 26.287L36.7678 26.1969L36.7674 26.196L36.7673 26.1957L36.7656 26.1911C36.5983 25.7582 36.4159 25.2863 36.2133 24.8573C36.0114 24.4298 35.7801 24.0241 35.5076 23.7353L35.5076 23.7353C35.4023 23.6237 35.2326 23.5312 35.0642 23.4547C34.8867 23.3739 34.6746 23.2954 34.4555 23.2223C34.0181 23.0762 33.5326 22.9448 33.1984 22.8543L33.1962 22.8537L33.1961 22.8537L33.1819 22.8498L33.1165 23.0911L33.1819 22.8498C32.9915 22.7982 32.8077 22.7483 32.6329 22.6984L32.438 22.6427L32.3432 22.8219C32.2793 22.9427 32.1934 23.0426 32.1031 23.1162L32.0971 23.1211L32.0915 23.1263C32.074 23.1424 32.0548 23.1623 32.0428 23.1746C32.0396 23.1779 32.037 23.1806 32.0351 23.1826L32.0347 23.183L32.0328 23.1849C31.8355 23.3857 31.4283 23.7976 30.6905 23.7497L30.6902 23.7497C30.2689 23.7229 29.8182 23.5581 29.3521 23.3165C28.887 23.0754 28.4262 22.7685 27.9814 22.472L27.9814 22.472L27.9808 22.4716L27.9808 22.4716L27.9709 22.465C27.6659 22.2616 27.3626 22.0593 27.1393 21.9399L27.1393 21.9399C26.8949 21.8091 26.7261 21.5712 26.6837 21.2974L26.6836 21.2973C26.6594 21.1415 26.6776 20.9846 26.7332 20.8417L26.8555 20.5278L26.5197 20.5017C26.3496 20.4885 26.1661 20.4856 25.9968 20.4998L36.5346 26.287ZM36.5346 26.287C36.7049 26.7278 36.8657 27.1438 37.0462 27.5295M36.5346 26.287L36.5341 26.2858M36.5346 26.287L36.5341 26.2858M36.5341 26.2858L36.5341 26.2857C36.1972 25.4139 35.8155 24.426 35.3258 23.9069M36.5341 26.2858L35.3258 23.9069M35.3258 23.9069C35.0499 23.6146 33.8015 23.2766 33.1307 23.095L35.3258 23.9069ZM37.5538 41.263L37.5537 41.2631C37.0313 41.8192 36.6186 42.2586 36.277 43.3347C36.1778 43.6472 36.0492 43.792 35.8157 44.0548L35.8157 44.0548C35.629 44.2651 35.3965 44.527 35.182 44.894L37.5538 41.263ZM25.9968 20.4998C25.7145 20.5234 25.3967 20.5348 25.0521 20.547L25.9968 20.4998Z" fill="#F2F5FA" stroke="#00309D" stroke-width="0.5"/>
<path d="M48.3825 40.3453L47.8187 38.2203C47.6955 37.7562 47.3018 37.4143 46.8252 37.3573C46.348 37.3015 45.8852 37.5401 45.6561 37.9621C45.5277 38.1988 45.412 38.4496 45.3002 38.6921C45.1121 39.1 44.9176 39.5219 44.7152 39.7547C44.6015 39.8855 44.3095 40.0265 44.0273 40.1626C43.3527 40.4882 42.4286 40.9341 42.0757 42.0593C41.8565 42.7573 41.9383 43.3095 41.9981 43.7126C42.0498 44.0622 42.0617 44.1834 41.9681 44.4032L41.9564 44.4305C41.5834 45.3058 40.8894 46.9353 41.8625 48.3205C42.5568 49.3091 43.2869 49.5633 43.8542 49.5633C43.965 49.5637 44.0697 49.5539 44.1666 49.5381C45.362 49.3428 46.2606 48.0994 46.9949 45.6249L48.3732 40.9794C48.4345 40.7728 48.4378 40.5535 48.3825 40.3453ZM44.7483 44.9582C44.374 46.2198 44.0428 46.8088 43.8517 47.0699C43.8296 47.0418 43.8057 47.0099 43.7802 46.9735C43.5562 46.6545 43.8909 45.8689 44.1124 45.3489L44.1242 45.3215C44.4814 44.4831 44.3859 43.8393 44.3164 43.3691C44.2718 43.0681 44.2558 42.9387 44.3117 42.7609C44.3577 42.6148 44.6322 42.473 45.0459 42.2733C45.2293 42.1847 45.4312 42.0873 45.635 41.9694L44.7483 44.9582Z" fill="#00309D"/>
<path d="M31.7701 13.8441L31.7698 13.844L31.7047 13.8207C31.7047 13.8207 31.7047 13.8207 31.7047 13.8207C31.7046 13.8207 31.7046 13.8207 31.7046 13.8207C31.0662 13.5923 30.3721 13.9372 30.1513 14.5803L30.1513 14.5803C29.9314 15.2211 30.2596 15.9283 30.8959 16.1564L30.8961 16.1564L30.9611 16.1797C30.9612 16.1797 30.9612 16.1797 30.9612 16.1797C31.0945 16.2275 31.231 16.2503 31.3656 16.2503C31.8711 16.2503 32.3402 15.9283 32.5147 15.4201L32.5147 15.4201C32.7346 14.7794 32.4065 14.0721 31.7701 13.8441Z" fill="#00309D" stroke="#00309D" stroke-width="0.5"/>
</svg>
