<svg width="62" height="54" viewBox="0 0 62 54" fill="none" xmlns="http://www.w3.org/2000/svg">
<path d="M29.8481 31.7423H30.0163L29.6671 31.7503C29.6672 31.7503 29.6672 31.7503 29.6673 31.7503C29.7056 31.7503 29.7429 31.7478 29.7713 31.7459L29.7741 31.7457C29.8058 31.7436 29.8278 31.7423 29.8481 31.7423Z" fill="#F2F5FA" stroke="#00309D" stroke-width="0.5"/>
<path d="M29.6673 14.2503H29.667C26.7675 14.2503 24.417 16.6008 24.417 19.5003C24.417 22.3998 26.7675 24.7503 29.667 24.7503C32.5665 24.7503 34.917 22.3998 34.917 19.5003V19.5C34.9135 16.6021 32.5652 14.2537 29.6673 14.2503ZM29.667 22.2503C28.1482 22.2503 26.917 21.0191 26.917 19.5003C26.917 17.9815 28.1482 16.7503 29.667 16.7503C31.1858 16.7503 32.417 17.9815 32.417 19.5003C32.417 21.0191 31.1858 22.2503 29.667 22.2503Z" fill="#00309D" stroke="#00309D" stroke-width="0.5"/>
<path d="M52.2382 11.0004L52.2379 11.0001C47.0431 6.11694 38.8924 0.250275 29.6667 0.250275C22.7284 0.250275 16.3823 3.56964 11.3865 7.37158C6.38803 11.1757 2.71488 15.483 1.11686 17.5049C0.18763 18.6728 0.18761 20.3276 1.1168 21.4956C2.67775 23.4704 6.21886 27.6241 11.0406 31.3594C15.8061 35.0512 21.8463 38.3527 28.4782 38.7111C29.0204 46.0341 34.4167 52.0948 41.6496 53.4656C48.9561 54.8504 56.2696 51.0955 59.4023 44.3511C62.4974 37.6877 60.7304 29.7886 55.1219 25.0769C56.489 23.6099 57.5445 22.3489 58.2164 21.4979C59.146 20.3295 59.146 18.6741 58.2164 17.5057C56.3816 15.1973 54.3838 13.0232 52.2382 11.0004ZM53.9167 19.4999C53.9151 18.3316 53.829 17.1653 53.6593 16.0101C54.7384 17.1912 55.6122 18.2424 56.2568 19.0556L56.2583 19.0575C56.4672 19.3157 56.4672 19.6848 56.2583 19.943L55.9289 20.3503H55.9371C55.4205 20.9876 54.6486 21.9068 53.6672 22.9794C53.8323 21.8274 53.9157 20.6649 53.9167 19.5005V19.4999ZM51.4167 19.5001C51.4158 20.5494 51.3401 21.5972 51.1902 22.6355C49.1372 21.7248 46.9153 21.2525 44.6669 21.2503H44.6667C44.3648 21.2503 44.073 21.2675 43.7871 21.2876C44.4779 15.9186 42.0586 10.61 37.5294 7.61245C32.9399 4.57501 27.0129 4.45912 22.3104 7.3075C22.0987 7.27214 21.8846 7.25301 21.6698 7.2503V7.25028H21.6667C19.3195 7.25028 17.4167 9.15307 17.4167 11.5003L17.4167 11.5034C17.4194 11.7178 17.4385 11.9316 17.4739 12.143C14.8652 16.4496 14.7272 21.8177 17.1169 26.2549C19.4728 30.6293 23.9361 33.4503 28.8827 33.7131C28.6858 34.5332 28.5534 35.3675 28.4869 36.2084C20.8065 35.7472 13.8708 30.8841 9.04921 26.3953C7.53921 21.9227 7.53921 17.0779 9.04919 12.6053C14.1209 7.88631 21.5183 2.75027 29.6667 2.75027C37.9103 2.75027 45.3789 8.03957 50.2914 12.61C51.0392 14.8299 51.4193 17.1572 51.4167 19.5V19.5001ZM29.6667 31.2503H29.6665C25.6313 31.2533 21.8773 29.184 19.7254 25.7705C17.6321 22.4499 17.3403 18.3099 18.9303 14.7367C20.605 16.0746 23.0439 15.9598 24.5851 14.4186C26.127 12.8767 26.2412 10.4363 24.9012 8.76151C28.8457 6.96295 33.4747 7.4968 36.9107 10.1694C40.3899 12.8758 42.0446 17.3074 41.2002 21.6243C36.0226 22.7676 31.7238 26.3586 29.6772 31.2502C29.6736 31.2502 29.6701 31.2503 29.6667 31.2503ZM3.07649 19.9448L3.07505 19.943C2.86616 19.6848 2.86616 19.3157 3.07505 19.0575L3.07507 19.0575L3.07681 19.0553C3.66195 18.3151 4.54245 17.2498 5.67226 16.0132C5.33151 18.3253 5.3315 20.675 5.67223 22.9872C4.54318 21.7508 3.66453 20.6855 3.07649 19.9448ZM23.4167 11.5003C23.4167 12.4668 22.6332 13.2503 21.6667 13.2503C20.7002 13.2503 19.9167 12.4668 19.9167 11.5003C19.9167 10.5338 20.7002 9.75028 21.6667 9.75028C22.6332 9.75028 23.4167 10.5338 23.4167 11.5003ZM44.6664 51.2503C37.0726 51.2501 30.9167 45.0941 30.9167 37.5003C30.9167 29.9064 37.0728 23.7503 44.6667 23.7503C52.2605 23.7503 58.4165 29.9062 58.4167 37.5C58.4086 45.0907 52.2571 51.2422 44.6664 51.2503Z" fill="#00309D" stroke="#00309D" stroke-width="0.5"/>
<path d="M44.667 51.7503H44.6673C52.5337 51.7419 58.9086 45.367 58.917 37.5005V37.5003C58.917 29.6302 52.537 23.2503 44.667 23.2503C36.7969 23.2503 30.417 29.6302 30.417 37.5003C30.417 45.3703 36.7969 51.7503 44.667 51.7503Z" fill="#F2F5FA" stroke="#00309D" stroke-width="0.5"/>
<path d="M44.6673 32.2503H44.667C41.7675 32.2503 39.417 34.6008 39.417 37.5003C39.417 40.3998 41.7675 42.7503 44.667 42.7503C47.5665 42.7503 49.917 40.3998 49.917 37.5003V37.5C49.9135 34.6021 47.5652 32.2537 44.6673 32.2503ZM44.667 40.2503C43.1482 40.2503 41.917 39.0191 41.917 37.5003C41.917 35.9815 43.1482 34.7503 44.667 34.7503C46.1858 34.7503 47.417 35.9815 47.417 37.5003C47.417 39.0191 46.1858 40.2503 44.667 40.2503Z" fill="#00309D" stroke="#00309D" stroke-width="0.5"/>
<path d="M44.667 30.7503C45.3573 30.7503 45.917 30.1906 45.917 29.5003V27.5003C45.917 26.8099 45.3573 26.2503 44.667 26.2503C43.9766 26.2503 43.417 26.8099 43.417 27.5003V29.5003C43.417 30.1906 43.9766 30.7503 44.667 30.7503Z" fill="#00309D" stroke="#00309D" stroke-width="0.5"/>
<path d="M44.667 44.2503C43.9766 44.2503 43.417 44.8099 43.417 45.5003V47.5003C43.417 48.1906 43.9766 48.7503 44.667 48.7503C45.3573 48.7503 45.917 48.1906 45.917 47.5003V45.5003C45.917 44.8099 45.3573 44.2503 44.667 44.2503Z" fill="#00309D" stroke="#00309D" stroke-width="0.5"/>
<path d="M52.667 36.2503C51.9766 36.2503 51.417 36.8099 51.417 37.5003C51.417 38.1906 51.9766 38.7503 52.667 38.7503H54.667C55.3573 38.7503 55.917 38.1906 55.917 37.5003C55.917 36.8099 55.3573 36.2503 54.667 36.2503H52.667Z" fill="#00309D" stroke="#00309D" stroke-width="0.5"/>
<path d="M36.667 38.7503C37.3573 38.7503 37.917 38.1906 37.917 37.5003C37.917 36.8099 37.3573 36.2503 36.667 36.2503H34.667C33.9766 36.2503 33.417 36.8099 33.417 37.5003C33.417 38.1906 33.9766 38.7503 34.667 38.7503H36.667Z" fill="#00309D" stroke="#00309D" stroke-width="0.5"/>
<path d="M49.4402 32.727L49.4403 32.7271C49.9284 33.2151 50.7196 33.2151 51.2078 32.7271L51.2078 32.727L52.6218 31.313L52.6218 31.3131L52.6248 31.3099C53.0985 30.8195 53.0918 30.0398 52.6096 29.5577C52.1274 29.0755 51.3478 29.0687 50.8573 29.5424L50.8573 29.5424L50.8542 29.5455L49.4402 30.9595L49.4402 30.9595C48.9522 31.4476 48.9522 32.2389 49.4402 32.727Z" fill="#00309D" stroke="#00309D" stroke-width="0.5"/>
<path d="M39.8931 42.2735L39.8931 42.2735C39.4049 41.7855 38.6137 41.7855 38.1256 42.2735L38.1255 42.2735L36.713 43.6861C36.3893 43.9999 36.2596 44.4638 36.3738 44.9001C36.4882 45.3371 36.8295 45.6784 37.2665 45.7928C37.7028 45.907 38.1667 45.7773 38.4806 45.4536L39.8931 44.0411L39.8931 44.041C40.3811 43.5529 40.3811 42.7617 39.8931 42.2735Z" fill="#00309D" stroke="#00309D" stroke-width="0.5"/>
<path d="M50.8541 45.455L50.854 45.4551L50.8572 45.4581C51.3476 45.9318 52.1273 45.925 52.6094 45.4429C53.0916 44.9607 53.0984 44.1811 52.6247 43.6906L52.6247 43.6906L52.6216 43.6875L51.2091 42.2749C50.8952 41.9512 50.4313 41.8215 49.995 41.9357C49.558 42.0501 49.2167 42.3914 49.1023 42.8285C48.9881 43.2648 49.1178 43.7287 49.4415 44.0425L50.8541 45.455Z" fill="#00309D" stroke="#00309D" stroke-width="0.5"/>
<path d="M38.4799 29.5455L38.4799 29.5455L38.4768 29.5424C37.9863 29.0687 37.2067 29.0755 36.7245 29.5577C36.2423 30.0398 36.2356 30.8195 36.7093 31.3099L36.7093 31.31L36.7123 31.313L38.1249 32.7256C38.4387 33.0493 38.9026 33.179 39.3389 33.0648C39.776 32.9504 40.1173 32.6091 40.2317 32.1721C40.3459 31.7358 40.2162 31.2719 39.8924 30.958L38.4799 29.5455Z" fill="#00309D" stroke="#00309D" stroke-width="0.5"/>
<path d="M47.2542 31.2662L47.2553 31.2666C47.4067 31.3287 47.5688 31.3608 47.7324 31.3613H47.733C48.2385 31.3614 48.6943 31.0571 48.888 30.5902C48.888 30.5901 48.888 30.5901 48.888 30.59L49.655 28.7432L49.655 28.7431C49.9197 28.1053 49.6173 27.3736 48.9794 27.1089C48.3416 26.8441 47.6099 27.1466 47.3452 27.7844L47.3452 27.7845L46.5792 29.6324C46.5792 29.6325 46.5792 29.6325 46.5792 29.6326C46.3145 30.2701 46.6167 31.0014 47.2542 31.2662Z" fill="#00309D" stroke="#00309D" stroke-width="0.5"/>
<path d="M42.0796 43.7344L42.0795 43.7344L40.6767 44.5063L40.4458 44.4104L40.4458 44.4105C40.4458 44.4105 40.4457 44.4106 40.4457 44.4106L39.6788 46.2574L39.6788 46.2574C39.4141 46.8953 39.7165 47.627 40.3544 47.8917C40.9922 48.1564 41.7239 47.8539 41.9886 47.2161L41.9886 47.216L42.7546 45.3682C43.0193 44.7306 42.7171 43.9992 42.0796 43.7344Z" fill="#00309D" stroke="#00309D" stroke-width="0.5"/>
<path d="M52.5333 39.4114L52.5331 39.4113C51.8952 39.1472 51.1641 39.4503 50.9 40.0882C50.636 40.726 50.939 41.4571 51.5768 41.7212C51.5768 41.7212 51.5768 41.7213 51.5769 41.7213L53.4216 42.4859C53.8362 42.6704 54.3183 42.6157 54.6811 42.3429C55.045 42.0692 55.2312 41.6195 55.1675 41.1687C55.1038 40.7193 54.8016 40.3397 54.3781 40.177L52.5333 39.4114Z" fill="#00309D" stroke="#00309D" stroke-width="0.5"/>
<path d="M37.2771 35.6853C37.8747 35.687 38.39 35.2654 38.5067 34.6792C38.6233 34.0931 38.3087 33.5064 37.756 33.2792C37.7559 33.2791 37.7558 33.2791 37.7556 33.279L35.9115 32.5146C35.4969 32.3302 35.0148 32.3848 34.652 32.6577C34.2882 32.9313 34.1019 33.3811 34.1657 33.8318C34.2293 34.2813 34.5315 34.6608 34.9551 34.8235L36.799 35.5889C36.7991 35.5889 36.7993 35.589 36.7994 35.589C36.9507 35.6524 37.1131 35.6851 37.2771 35.6853ZM37.2771 35.6853C37.277 35.6853 37.2769 35.6853 37.2769 35.6853L37.2776 35.4353L37.2774 35.6853C37.2773 35.6853 37.2772 35.6853 37.2771 35.6853Z" fill="#00309D" stroke="#00309D" stroke-width="0.5"/>
<path d="M53.4298 32.5242L53.4297 32.5242L51.5819 33.2882C51.5819 33.2882 51.5818 33.2882 51.5818 33.2882C51.5818 33.2882 51.5818 33.2882 51.5817 33.2882C51.1689 33.4586 50.8784 33.8363 50.8195 34.2789C50.7606 34.7217 50.9424 35.1622 51.2964 35.4345C51.6504 35.7069 52.1227 35.7697 52.5356 35.5994L52.5357 35.5993L54.3847 34.8353C55.0229 34.5716 55.3265 33.8405 55.0628 33.2023C54.7991 32.5641 54.068 32.2605 53.4298 32.5242Z" fill="#00309D" stroke="#00309D" stroke-width="0.5"/>
<path d="M36.8039 39.4007L36.8039 39.4007L36.8025 39.4012L34.9535 40.1652C34.5407 40.3358 34.2502 40.7137 34.1915 41.1565C34.1328 41.5993 34.3148 42.0398 34.669 42.3121C35.0231 42.5843 35.4956 42.6469 35.9085 42.4763L35.9085 42.4763L37.7565 41.7123L37.7565 41.7123L37.7576 41.7119C38.393 41.4456 38.6932 40.7156 38.4289 40.0794C38.1656 39.4452 37.44 39.1422 36.8039 39.4007Z" fill="#00309D" stroke="#00309D" stroke-width="0.5"/>
<path d="M47.3328 47.2198L47.3328 47.2197L46.5704 45.3746C46.3833 44.9596 46.4366 44.4755 46.7098 44.1111C46.984 43.7455 47.4358 43.5586 47.8882 43.6237C48.339 43.6887 48.7187 43.9936 48.8794 44.4195L49.6428 46.2635L49.6428 46.2637L49.4118 46.3593C49.5398 46.6679 49.5052 47.02 49.3196 47.2978C49.134 47.5756 48.8219 47.7424 48.4878 47.7423L47.3328 47.2198ZM47.3328 47.2198C47.526 47.6873 47.9819 47.9922 48.4878 47.9923L47.3328 47.2198Z" fill="#00309D" stroke="#00309D" stroke-width="0.5"/>
<path d="M39.6881 28.7369L39.6882 28.7372L40.4546 30.5812C40.6154 31.007 40.995 31.3119 41.4457 31.3768C41.8981 31.442 42.3499 31.2551 42.6241 30.8894C42.8973 30.525 42.9506 30.0408 42.7635 29.6258L41.9981 27.7807C41.998 27.7806 41.998 27.7806 41.998 27.7805C41.7339 27.1427 41.0028 26.8398 40.365 27.1038C39.7271 27.3679 39.424 28.099 39.6881 28.7369Z" fill="#00309D" stroke="#00309D" stroke-width="0.5"/>
</svg>
