<svg width="493" height="440" viewBox="0 0 493 440" fill="none" xmlns="http://www.w3.org/2000/svg">
<mask id="mask0_546_2001" style="mask-type:luminance" maskUnits="userSpaceOnUse" x="0" y="51" width="493" height="337">
<path d="M440.492 372.579C426.359 377.104 409.145 378.332 395.473 377.387C395.473 377.387 144.105 401.601 53.2434 376.776C-14.0041 358.402 -5.8852 292.991 14.6941 251.124C35.509 208.78 -19.1296 126.93 68.7011 79.4657C119.22 52.1653 164.53 95.852 251.866 63.6022C330.714 34.4843 432.423 60.5296 457.296 121.596C474.405 163.606 452.836 208.893 474.405 230.842C509.387 266.441 493.302 355.668 440.494 372.579H440.492Z" fill="white"/>
</mask>
<g mask="url(#mask0_546_2001)">
</g>
<g clip-path="url(#clip0_546_2001)">
<path opacity="0.7" d="M351.117 416.421C351.117 416.421 433.506 348.437 452.989 242.444C472.471 136.451 392.661 115.125 345.856 79.2328C299.051 43.3403 281.849 2.94835 214.01 0.503472C146.181 -1.94141 111.069 25.3735 86.5518 78.2774C62.0343 131.171 48.9226 185.493 41.1954 238.499C33.4682 291.506 37.229 333.839 80.7666 354.939C124.304 376.039 144.516 366.763 165.18 391.068C185.855 415.373 280.226 470.373 351.107 416.421H351.117Z" fill="#F6E7EE"/>
<g opacity="0.3">
<path d="M132.309 326.68C132.021 326.33 131.569 326.299 131.292 326.608C109.631 350.974 101.318 388.51 109.59 424.567C109.62 424.68 109.662 424.793 109.723 424.886L110.987 424.567C110.987 424.475 110.987 424.372 110.967 424.269C102.828 388.777 111.008 351.837 132.329 327.861C132.607 327.553 132.586 327.029 132.299 326.68H132.309Z" fill="#335875"/>
<path d="M119.968 392.239C111.244 390.267 107.39 405.727 107.698 405.974C107.781 407.73 107.904 409.497 108.068 411.264C108.562 409.035 112.23 405.511 118.416 403.395C124.468 401.033 128.311 393.77 119.968 392.239Z" fill="#335875"/>
<path d="M94.6695 387.884C86.0791 386.302 89.542 399.831 96.1903 402.789C102.633 405.943 106.918 409.148 107.946 411.254C107.678 409.487 107.463 407.72 107.278 405.963C106.969 406.107 102.787 389.722 94.6695 387.884Z" fill="#335875"/>
<path d="M121.9 377.467C113.464 373.861 107.38 387.945 107.658 388.223C107.483 389.918 107.35 391.633 107.247 393.349C108.069 391.315 112.251 388.675 118.745 387.884C125.137 386.825 130.028 380.59 121.9 377.467Z" fill="#335875"/>
<path d="M97.2179 368.273C88.8536 365.058 90.3743 378.761 96.5911 382.912C102.582 387.205 106.394 391.13 107.113 393.338C107.113 391.602 107.144 389.866 107.216 388.14C106.897 388.233 105.068 371.663 97.2179 368.263V368.273Z" fill="#335875"/>
<path d="M125.928 363.568C118.006 358.421 109.919 370.872 110.155 371.18C109.744 372.783 109.354 374.406 109.015 376.039C110.124 374.241 114.687 372.526 121.294 373.039C127.839 373.286 133.614 368.201 125.938 363.568H125.928Z" fill="#335875"/>
<path d="M102.582 349.803C94.6802 345.047 94.2383 358.637 99.859 363.856C105.233 369.187 108.48 373.728 108.881 375.998C109.128 374.323 109.405 372.659 109.724 371.016C109.395 371.057 109.929 354.662 102.572 349.803H102.582Z" fill="#335875"/>
<path d="M131.98 350.81C124.798 344.266 114.902 354.806 115.098 355.145C114.45 356.624 113.834 358.124 113.258 359.644C114.625 358.124 119.434 357.343 125.959 359.131C132.463 360.651 138.978 356.819 131.98 350.81Z" fill="#335875"/>
<path d="M110.617 332.863C103.393 326.7 100.989 339.849 105.86 346.023C110.463 352.258 113.063 357.302 113.145 359.583C113.628 358.011 114.152 356.449 114.707 354.908C114.358 354.898 117.276 339.037 110.627 332.863H110.617Z" fill="#335875"/>
<path d="M139.943 339.53C133.706 331.754 122.208 340.147 122.362 340.506C121.499 341.821 120.666 343.167 119.865 344.533C121.458 343.311 126.38 343.496 132.658 346.495C138.947 349.238 146.068 346.752 139.933 339.53H139.943Z" fill="#335875"/>
<path d="M121.191 317.876C114.861 310.459 110.473 322.858 114.45 329.812C118.139 336.787 120.009 342.211 119.752 344.451C120.471 343.013 121.211 341.595 122.003 340.198C121.643 340.126 126.935 325.19 121.191 317.876Z" fill="#335875"/>
<path d="M127.274 332.73C127.038 332.73 132.001 319.468 137.18 314.465C142.123 309.359 146.911 312.811 147.517 316.304C148.175 319.807 144.589 323.186 141.085 325.179C137.468 326.813 127.213 332.493 127.274 332.73Z" fill="#335875"/>
<path d="M127.367 333.274C127.367 333.274 127.326 333.274 127.305 333.274C127.1 333.274 126.904 333.11 126.832 332.884C126.832 332.863 126.833 332.853 126.822 332.833C126.781 332.679 126.75 332.565 126.863 332.401C127.387 329.771 132.412 318.317 136.861 314.013C139.297 311.496 142.102 310.685 144.548 311.805C146.315 312.606 147.661 314.342 147.99 316.222C148.874 320.957 143.119 324.645 141.331 325.673C137.807 327.265 128.466 332.442 127.665 333.089C127.593 333.192 127.49 333.254 127.377 333.274H127.367ZM141.753 312.462C140.55 312.616 139.102 313.253 137.519 314.886C133.44 318.841 129.535 327.881 128.22 331.415C129.083 330.891 130.439 330.131 132.577 328.96C135.32 327.45 138.947 325.518 140.889 324.645C144.239 322.735 147.651 319.54 147.055 316.366C146.798 314.876 145.709 313.489 144.27 312.842C143.684 312.575 142.821 312.328 141.753 312.462Z" fill="#335875"/>
<path d="M103.763 426.406C75.0124 379.573 67.7475 319.704 84.8666 269.8C85.0927 269.153 84.805 268.382 84.2295 268.064C83.6541 267.745 83.0068 268.023 82.791 268.66C65.4972 319.078 72.7004 379.511 101.503 426.981L103.763 426.406Z" fill="#335875"/>
<path d="M100.598 373.851C87.5177 376.964 90.066 402.563 90.6312 402.707C91.6382 405.254 92.7069 407.781 93.8372 410.298C93.3748 406.651 96.663 398.875 104.144 391.458C111.306 383.774 112.919 370.327 100.598 373.841V373.851Z" fill="#335875"/>
<path d="M63.3701 384.915C50.6695 388.52 62.3734 406.189 73.0805 405.984C83.6027 406.189 91.1758 407.987 93.6728 410.401C92.4089 407.966 91.1964 405.501 90.0455 403.015C89.6961 403.436 75.5467 382.038 63.3804 384.915H63.3701Z" fill="#335875"/>
<path d="M95.7384 350.625C82.2261 351.108 80.993 376.224 81.5171 376.44C82.1439 379.08 82.822 381.71 83.5722 384.329C83.6646 380.744 88.114 373.933 96.6941 368.253C104.997 362.264 108.583 349.628 95.7487 350.615L95.7384 350.625Z" fill="#335875"/>
<path d="M56.9068 354.056C43.6924 355.073 52.7965 374.355 63.5037 376.204C73.9745 378.433 81.2599 381.607 83.3869 384.391C82.493 381.813 81.6606 379.224 80.8797 376.615C80.4892 376.974 69.5046 353.666 56.9068 354.056Z" fill="#335875"/>
<path d="M94.2277 327.193C80.6434 325.046 75.7933 349.105 76.2865 349.403C76.5331 352.073 76.8311 354.734 77.1805 357.405C77.797 353.974 83.2431 348.262 92.6349 344.451C101.811 340.291 107.216 328.744 94.2277 327.193Z" fill="#335875"/>
<path d="M54.9031 322.94C41.5448 321.358 47.8746 341.811 58.3043 345.673C68.4565 349.865 75.2692 354.343 76.9853 357.436C76.4715 354.785 76.0194 352.125 75.6083 349.454C75.1665 349.752 67.5523 325.046 54.9031 322.94Z" fill="#335875"/>
<path d="M96.0984 304.089C82.8223 299.354 74.5094 321.841 74.9512 322.21C74.8074 324.85 74.7252 327.49 74.6943 330.151C75.8041 326.946 82.0619 322.467 92.0087 320.598C101.781 318.348 108.85 308.157 96.0881 304.089H96.0984Z" fill="#335875"/>
<path d="M57.3798 292.256C44.2476 288.105 47.618 309.288 57.5031 315.071C67.0491 321.132 73.2247 326.802 74.4886 330.141C74.355 327.47 74.2831 324.799 74.2625 322.128C73.7796 322.344 69.7207 296.796 57.3695 292.256H57.3798Z" fill="#335875"/>
<path d="M101.349 281.839C88.7508 274.628 77.1291 295.039 77.5298 295.461C77.0058 298.008 76.5434 300.576 76.1221 303.165C77.6942 300.258 84.6097 297.104 94.8236 297.217C104.914 296.93 113.494 288.311 101.338 281.839H101.349Z" fill="#335875"/>
<path d="M64.3665 262.691C51.8303 256.076 52.077 277.494 61.1297 285.075C69.792 292.872 75.1456 299.611 75.9368 303.114C76.1937 300.484 76.502 297.865 76.8719 295.245C76.3479 295.379 76.0396 269.574 64.3665 262.691Z" fill="#335875"/>
</g>
<g opacity="0.3">
<path d="M373.066 347.41C373.271 347.194 373.59 347.225 373.775 347.461C388.983 366.774 394.829 393.986 389.014 418.465C388.993 418.548 388.962 418.609 388.921 418.671L388.037 418.311C388.037 418.24 388.037 418.178 388.048 418.106C393.761 394.006 388.017 367.236 373.045 348.221C372.85 347.975 372.86 347.605 373.066 347.4V347.41Z" fill="#335875"/>
<path d="M381.728 394.705C387.863 394.212 390.565 405.46 390.339 405.594C390.277 406.816 390.195 408.049 390.082 409.271C389.743 407.658 387.154 404.803 382.807 402.697C378.563 400.427 375.861 394.931 381.718 394.705H381.728Z" fill="#335875"/>
<path d="M399.495 394.222C405.527 393.986 403.092 403.138 398.426 404.535C393.905 406.087 390.884 407.905 390.165 409.281C390.35 408.069 390.504 406.847 390.638 405.635C390.853 405.768 393.792 394.684 399.495 394.222Z" fill="#335875"/>
<path d="M380.372 384.134C386.301 382.46 390.565 392.969 390.37 393.143C390.493 394.356 390.586 395.568 390.658 396.79C390.082 395.28 387.143 393 382.581 391.777C378.091 390.38 374.659 385.511 380.372 384.145V384.134Z" fill="#335875"/>
<path d="M397.707 380.19C403.584 378.782 402.505 388.254 398.149 390.534C393.946 392.938 391.264 395.311 390.76 396.79C390.76 395.568 390.74 394.356 390.688 393.133C390.915 393.236 392.199 381.782 397.707 380.19Z" fill="#335875"/>
<path d="M377.536 373.954C383.095 371.15 388.777 380.713 388.613 380.909C388.9 382.08 389.168 383.251 389.414 384.442C388.633 383.066 385.427 381.402 380.793 381.083C376.2 380.59 372.141 376.43 377.536 373.964V373.954Z" fill="#335875"/>
<path d="M393.935 366.671C399.484 364.133 399.792 373.718 395.846 376.82C392.075 380.015 389.784 382.871 389.506 384.432C389.332 383.23 389.136 382.039 388.91 380.847C389.147 380.909 388.766 369.342 393.935 366.681V366.671Z" fill="#335875"/>
<path d="M373.292 364.39C378.337 360.528 385.284 368.941 385.15 369.157C385.602 370.256 386.034 371.376 386.445 372.506C385.489 371.294 382.108 370.266 377.526 370.852C372.963 371.252 368.38 367.904 373.302 364.401L373.292 364.39Z" fill="#335875"/>
<path d="M388.294 353.953C393.36 350.358 395.056 359.84 391.634 363.682C388.397 367.595 386.568 370.862 386.517 372.465C386.178 371.314 385.808 370.164 385.417 369.023C385.664 369.054 383.609 357.61 388.284 353.964L388.294 353.953Z" fill="#335875"/>
<path d="M367.702 355.648C372.09 350.82 380.156 357.888 380.043 358.124C380.649 359.131 381.235 360.168 381.8 361.206C380.68 360.189 377.227 359.809 372.809 361.278C368.39 362.562 363.396 360.086 367.692 355.638L367.702 355.648Z" fill="#335875"/>
<path d="M380.865 342.345C385.304 337.784 388.397 346.937 385.602 351.416C383.013 355.936 381.698 359.552 381.872 361.154C381.369 360.065 380.845 358.997 380.3 357.939C380.547 357.929 376.837 346.896 380.865 342.345Z" fill="#335875"/>
<path d="M376.601 352.166C376.765 352.186 373.282 342.376 369.644 338.329C366.171 334.24 362.811 336.182 362.39 338.565C361.927 340.958 364.445 343.691 366.911 345.458C369.449 346.978 376.652 352.001 376.611 352.166H376.601Z" fill="#335875"/>
<path d="M376.539 352.546C376.539 352.546 376.57 352.546 376.58 352.546C376.724 352.567 376.858 352.474 376.909 352.32C376.909 352.31 376.909 352.299 376.909 352.279C376.94 352.176 376.96 352.094 376.878 351.971C376.508 350.07 372.984 341.513 369.86 338.041C368.154 336.028 366.181 335.175 364.455 335.709C363.212 336.089 362.266 337.178 362.04 338.462C361.424 341.698 365.462 344.872 366.716 345.776C369.192 347.256 375.748 351.837 376.313 352.382C376.364 352.464 376.436 352.515 376.518 352.536L376.539 352.546ZM366.438 336.469C367.281 336.695 368.298 337.291 369.408 338.606C372.275 341.801 375.018 348.55 375.943 351.159C375.337 350.707 374.381 350.029 372.881 348.992C370.949 347.646 368.401 345.93 367.044 345.119C364.691 343.434 362.297 340.846 362.708 338.678C362.893 337.661 363.653 336.798 364.66 336.49C365.071 336.367 365.678 336.274 366.428 336.49L366.438 336.469Z" fill="#335875"/>
<path d="M393.103 420.345C413.294 390.38 418.391 349.074 406.379 312.288C406.225 311.815 406.42 311.302 406.831 311.137C407.232 310.973 407.684 311.23 407.838 311.702C419.984 348.868 414.928 390.575 394.696 420.982L393.103 420.345Z" fill="#335875"/>
<path d="M395.333 383.764C404.519 387.288 402.731 405.008 402.33 405.049C401.621 406.734 400.871 408.408 400.08 410.052C400.409 407.535 398.097 401.741 392.836 395.773C387.801 389.64 386.67 380.035 395.322 383.764H395.333Z" fill="#335875"/>
<path d="M421.474 395.321C430.393 399.142 422.172 410.36 414.661 409.127C407.273 408.203 401.95 408.696 400.203 410.134C401.087 408.552 401.94 406.939 402.751 405.316C402.998 405.645 412.935 392.054 421.484 395.321H421.474Z" fill="#335875"/>
<path d="M398.744 367.944C408.238 369.66 409.101 387.421 408.731 387.524C408.29 389.311 407.807 391.089 407.293 392.855C407.231 390.328 404.107 385.089 398.076 380.23C392.239 375.176 389.722 365.941 398.744 367.944Z" fill="#335875"/>
<path d="M426.015 374.303C435.294 376.368 428.902 388.972 421.381 389.188C414.023 389.691 408.906 391.171 407.416 392.917C408.043 391.202 408.629 389.465 409.173 387.709C409.451 388.007 417.157 372.742 426.005 374.303H426.015Z" fill="#335875"/>
<path d="M399.802 351.642C409.338 351.518 412.75 368.91 412.4 369.064C412.226 370.913 412.02 372.752 411.773 374.591C411.342 372.115 407.519 367.554 400.922 363.917C394.48 360.055 390.688 351.405 399.802 351.631V351.642Z" fill="#335875"/>
<path d="M427.423 352.659C436.805 352.905 432.366 366.629 425.029 368.273C417.898 370.184 413.11 372.629 411.907 374.632C412.267 372.824 412.586 370.995 412.873 369.167C413.182 369.413 418.525 352.844 427.413 352.659H427.423Z" fill="#335875"/>
<path d="M398.498 335.226C407.818 333.254 413.664 349.895 413.346 350.101C413.449 351.97 413.5 353.84 413.521 355.699C412.74 353.337 408.342 349.556 401.354 347.224C394.49 344.656 389.527 336.767 398.487 335.216L398.498 335.226Z" fill="#335875"/>
<path d="M425.677 330.85C434.894 329.278 432.53 343.804 425.584 346.855C418.874 350.142 414.538 353.501 413.654 355.71C413.747 353.85 413.798 351.981 413.808 350.101C414.147 350.306 416.994 332.771 425.666 330.84L425.677 330.85Z" fill="#335875"/>
<path d="M394.798 319.067C403.646 315.287 411.815 330.799 411.527 331.056C411.897 332.894 412.226 334.754 412.513 336.603C411.404 334.404 406.554 331.487 399.381 330.521C392.291 329.299 386.27 322.365 394.809 319.057L394.798 319.067Z" fill="#335875"/>
<path d="M420.775 309.38C429.581 306.011 429.406 321.029 423.046 325.426C416.963 330.018 413.202 334.209 412.647 336.592C412.472 334.723 412.246 332.843 411.989 330.973C412.359 331.127 412.575 313.027 420.765 309.38H420.775Z" fill="#335875"/>
</g>
<path d="M130.943 235.418C140.613 242.372 155.142 250.744 155.142 250.744C155.142 250.744 173.977 228.854 175.724 216.157C175.796 215.633 175.848 215.109 175.878 214.616" stroke="#335875" stroke-linecap="round" stroke-linejoin="round"/>
<path d="M174.758 208.144C171.758 201.662 163.465 199.854 156.899 203.47C148.144 208.288 148.144 218.797 148.144 218.797C148.144 218.797 133.697 202.597 125.374 207.415C117.05 212.233 117.934 222.741 123.627 229.306C124.562 230.384 126.031 231.679 127.85 233.107" stroke="#335875" stroke-linecap="round" stroke-linejoin="round"/>
<path d="M368.73 258.1C371.926 256.055 374.762 253.816 376.375 251.587C381.862 243.995 375.882 236.825 368.576 236.928C361.27 237.03 357.663 243.821 357.663 243.821C357.663 243.821 353.892 228.412 346.864 228.658C339.835 228.915 336.804 235.993 338.222 242.187C339.64 248.382 351.221 266.852 351.221 266.852C351.221 266.852 357.386 264.448 363.777 260.996" stroke="#335875" stroke-linecap="round" stroke-linejoin="round"/>
<path d="M250.274 100.056C252.986 105.747 258.093 113.893 258.093 113.893C258.093 113.893 272.274 108.356 276.24 102.881C280.196 97.4052 275.88 92.2381 270.619 92.31C265.358 92.3819 262.748 97.2819 262.748 97.2819C262.748 97.2819 260.025 86.167 254.959 86.3519C251.157 86.4854 248.979 89.4029 248.558 92.7312" stroke="#335875" stroke-linecap="round" stroke-linejoin="round"/>
<path d="M325.192 308.055C328.059 306.36 330.721 304.419 332.108 302.498C336.064 297.022 331.748 291.855 326.487 291.927C321.226 291.999 318.616 296.899 318.616 296.899C318.616 296.899 315.893 285.784 310.827 285.969C305.761 286.154 303.573 291.259 304.59 295.728C305.617 300.197 313.961 313.51 313.961 313.51C313.961 313.51 318.051 311.907 322.459 309.586" stroke="#335875" stroke-linecap="round" stroke-linejoin="round"/>
<path d="M434.77 77.0865C436.918 70.3476 440.596 62.0782 437.226 62.6843C433.855 63.3006 423.436 75.2477 425.892 68.8068C428.348 62.3761 434.78 56.2434 433.855 52.8739C432.941 49.5045 425.275 46.4433 421.597 46.4433C417.918 46.4433 413.633 50.1209 409.646 57.4761C405.659 64.8313 403.522 63.9067 403.522 63.9067C403.522 63.9067 415.164 45.8372 413.325 40.3208C411.486 34.8044 394.017 25.0043 391.263 24.0798C388.509 23.1655 379.005 35.7187 373.795 41.8514C368.585 47.9739 382.067 22.5492 382.375 18.8716C382.683 15.194 377.165 16.7246 373.178 22.5492C369.191 28.3738 361.844 40.6187 364.906 31.7432C367.969 22.8574 374.401 14.8961 374.401 12.4409C374.401 12.1739 374.37 11.9479 374.339 11.7424L372.51 10.5508C372.51 10.5508 363.971 22.6006 359.45 31.1371C354.929 39.6736 352.422 50.2236 348.897 55.2366C345.383 60.2599 330.309 65.2832 326.794 74.3231C323.28 83.363 322.273 99.9328 322.273 99.9328L305.719 124.176C305.719 124.176 304.948 125.162 312.357 126.642C319.776 128.121 334.306 138.209 340.533 146.796C346.76 155.395 348.835 171.697 348.835 171.697C348.835 171.697 352.093 176.145 354.764 174.07C357.436 171.995 358.618 165.174 364.845 159.545C371.072 153.915 383.228 134.048 383.228 134.048C383.228 134.048 392.126 140.571 400.727 133.154C409.328 125.738 422.08 92.5365 429.786 83.3425C431.297 81.5448 432.951 79.5724 434.636 77.5487C434.678 77.3844 434.708 77.22 434.77 77.0557V77.0865Z" fill="#335875" stroke="#335875" stroke-linecap="round" stroke-linejoin="round"/>
<path d="M352.854 66.5366C355.166 64.6567 357.005 62.9104 357.734 61.4414C360.283 56.3565 365.369 42.6733 365.369 42.6733" stroke="#F9E5E0" stroke-linecap="round" stroke-linejoin="round"/>
<path d="M326.538 109.148L330.052 102.799C330.052 102.799 332.601 87.534 336.094 81.165C337.995 77.7134 343.441 73.707 348.446 69.9473" stroke="#F9E5E0" stroke-linecap="round" stroke-linejoin="round"/>
<path d="M318.595 123.468L324.051 113.637" stroke="#F9E5E0" stroke-linecap="round" stroke-linejoin="round"/>
<path d="M386.608 51.9391C389.311 47.6862 390.821 44.9023 390.821 44.9023" stroke="#F9E5E0" stroke-linecap="round" stroke-linejoin="round"/>
<path d="M331.645 129.2L341.191 107.884C341.191 107.884 343.739 96.7486 349.144 90.0714C354.549 83.3942 365.688 79.5728 375.234 67.8003C378.203 64.133 380.834 60.5376 383.053 57.312" stroke="#F9E5E0" stroke-linecap="round" stroke-linejoin="round"/>
<path d="M376.837 91.3348C386.054 77.6619 398.148 59.5308 398.148 59.5308" stroke="#F9E5E0" stroke-linecap="round" stroke-linejoin="round"/>
<path d="M342.465 137.469L356.46 115.516C356.46 115.516 361.865 113.287 370.147 101.207C371.154 99.7376 372.336 98.0015 373.62 96.1011" stroke="#F9E5E0" stroke-linecap="round" stroke-linejoin="round"/>
<path d="M415.021 67.0501L419.141 60.1675" stroke="#F9E5E0" stroke-linecap="round" stroke-linejoin="round"/>
<path d="M365.657 132.24L372.686 123.786L386.373 114.88L411.805 72.4331" stroke="#F9E5E0" stroke-linecap="round" stroke-linejoin="round"/>
<path d="M352.329 148.286L362.399 136.164" stroke="#F9E5E0" stroke-linecap="round" stroke-linejoin="round"/>
<path d="M419.47 87.4618C422.121 80.9593 423.919 78.9355 423.919 78.9355" stroke="#F9E5E0" stroke-linecap="round" stroke-linejoin="round"/>
<path d="M356.46 162.914C356.46 162.914 380.001 129.836 381.913 128.563C383.824 127.289 397.182 130.792 400.686 126.333C403.779 122.399 412.071 106.076 416.387 95.5156" stroke="#F9E5E0" stroke-linecap="round" stroke-linejoin="round"/>
<path d="M166.208 302.601C166.208 302.601 173.473 293.017 176.668 284.881C179.864 276.745 181.611 269.482 185.094 266.863C188.578 264.243 208.06 252.337 210.383 246.523C212.705 240.709 215.901 231.998 220.268 227.344C224.625 222.691 251.074 197.708 268.81 173.875C286.535 150.053 299.616 134.644 301.948 130.289C304.271 125.933 305.73 124.187 305.73 124.187C305.73 124.187 316.776 119.533 333.926 133.483C351.076 147.434 353.11 159.339 353.11 163.705V169.52L278.705 238.962L189.472 312.473C189.472 312.473 183.368 312.473 176.103 308.118C168.838 303.762 166.218 302.601 166.218 302.601H166.208Z" fill="#F9E5E0" stroke="#335875" stroke-linecap="round" stroke-linejoin="round"/>
<path d="M283.647 335.411C283.647 335.411 287.562 331.723 290.789 332.186C294.016 332.648 294.704 334.261 295.166 340.476C295.629 346.701 295.392 352.69 293.091 355.217C290.789 357.744 287.789 361.206 287.789 361.206C287.789 361.206 289.402 346.228 289.176 341.852C288.95 337.476 283.647 335.401 283.647 335.401V335.411Z" fill="#F9E5E0" stroke="#335875" stroke-linecap="round" stroke-linejoin="round"/>
<path d="M258.534 388.171C258.534 388.171 265.449 390.935 269.601 388.397C273.752 385.86 276.516 378.032 277.667 375.957C278.818 373.882 286.422 370.656 287.809 361.216C289.196 351.765 293.337 340.024 292.875 336.798C292.412 333.572 286.884 333.346 283.658 335.411C280.431 337.476 280.431 338.863 279.044 341.862C277.657 344.862 272.817 368.818 270.515 370.893C268.214 372.968 261.76 374.807 260.836 378.494C259.911 382.182 258.534 388.171 258.534 388.171Z" fill="#F9E5E0" stroke="#335875" stroke-linecap="round" stroke-linejoin="round"/>
<path d="M287.851 339.386C287.851 339.386 286.32 338.534 285.97 341.092C285.631 343.65 284.943 351.488 286.145 352.34L287.337 353.193" stroke="#335875" stroke-linecap="round" stroke-linejoin="round"/>
<path d="M292.874 336.798L289.555 338.709" stroke="#335875" stroke-linecap="round" stroke-linejoin="round"/>
<path d="M200.919 380.57C200.919 380.57 208.985 395.085 214.287 396.698C219.59 398.31 232.958 399.697 236.185 400.385C239.411 401.074 249.779 405.686 254.393 400.848C259.007 396.009 262.233 387.021 263.846 381.956C265.46 376.892 267.761 371.591 267.761 371.591L199.09 375.043L200.929 380.57H200.919Z" fill="#F9E5E0" stroke="#335875" stroke-linecap="round" stroke-linejoin="round"/>
<path d="M63.915 55.565C63.915 55.565 75.4133 58.0304 82.3905 78.5551C89.3676 99.0798 107.021 103.179 110.72 102.768C114.419 102.357 122.219 104 123.863 106.055C125.507 108.109 141.105 120.827 143.16 122.881C145.215 124.936 145.215 134.376 146.448 137.653C147.681 140.941 145.626 146.272 154.659 150.381C163.691 154.49 169.846 157.767 169.846 157.767C169.846 157.767 170.257 162.287 173.545 165.153C176.833 168.03 180.522 169.262 180.522 169.262C180.522 169.262 171.49 152.436 196.943 139.708C222.395 126.98 243.748 136.421 243.748 136.421C243.748 136.421 244.981 134.366 242.104 127.391C239.227 120.416 232.249 115.074 232.249 115.074C232.249 115.074 228.139 101.936 227.327 96.1932C226.505 90.4508 223.217 78.9557 220.35 74.0249C217.473 69.1043 208.852 66.228 207.208 62.5298C205.564 58.8317 197.354 30.5101 193.254 24.3568C189.154 18.2035 180.111 7.53027 180.111 7.53027" fill="#FC8C9F"/>
<path d="M63.915 55.565C63.915 55.565 75.4133 58.0304 82.3905 78.5551C89.3676 99.0798 107.021 103.179 110.72 102.768C114.419 102.357 122.219 104 123.863 106.055C125.507 108.109 141.105 120.827 143.16 122.881C145.215 124.936 145.215 134.376 146.448 137.653C147.681 140.941 145.626 146.272 154.659 150.381C163.691 154.49 169.846 157.767 169.846 157.767C169.846 157.767 170.257 162.287 173.545 165.153C176.833 168.03 180.522 169.262 180.522 169.262C180.522 169.262 171.49 152.436 196.943 139.708C222.395 126.98 243.748 136.421 243.748 136.421C243.748 136.421 244.981 134.366 242.104 127.391C239.227 120.416 232.249 115.074 232.249 115.074C232.249 115.074 228.139 101.936 227.327 96.1932C226.505 90.4508 223.217 78.9557 220.35 74.0249C217.473 69.1043 208.852 66.228 207.208 62.5298C205.564 58.8317 197.354 30.5101 193.254 24.3568C189.154 18.2035 180.111 7.53027 180.111 7.53027" stroke="#335875" stroke-linecap="round" stroke-linejoin="round"/>
<path d="M219.271 113.688C223.659 113.688 226.495 113.842 226.495 113.842" stroke="#335875" stroke-linecap="round" stroke-linejoin="round"/>
<path d="M161.215 152.014C161.215 152.014 162.448 133.133 176.813 122.46C185.701 115.855 202.615 114.129 214.216 113.77" stroke="#335875" stroke-linecap="round" stroke-linejoin="round"/>
<path d="M182.875 47.0491C187.715 44.3987 191.188 43.7002 191.188 43.7002" stroke="#335875" stroke-linecap="round" stroke-linejoin="round"/>
<path d="M145.945 118.557C145.945 118.557 149.85 96.7276 160.763 72.1658C164.431 63.9066 169.076 57.9896 173.617 53.7676" stroke="#335875" stroke-linecap="round" stroke-linejoin="round"/>
<path d="M159.992 40.9678C159.992 40.9678 143.222 68.2621 143.222 86.1981" stroke="#335875" stroke-linecap="round" stroke-linejoin="round"/>
<path d="M288.261 317.681C288.035 315.842 287.573 312.616 287.573 312.616C287.573 312.616 285.733 284.973 285.733 259.856C285.733 234.74 285.507 224.148 282.044 215.622C278.582 207.096 272.591 199.73 272.591 199.73C272.591 199.73 255.996 168.163 251.618 157.798C247.241 147.433 243.737 136.431 243.737 136.431C243.737 136.431 235.486 128.305 214.051 129.23C192.616 130.154 179.484 142.358 176.483 150.658C173.483 158.948 180.501 169.272 180.501 169.272C180.501 169.272 207.166 199.669 213.794 205.904C220.422 212.14 227.05 230.856 226.659 237.482C226.269 244.108 207.156 257.76 203.262 267.109C199.357 276.467 193.12 295.574 187.273 307.264C181.426 318.965 174.408 331.826 172.846 337.671C171.284 343.516 161.532 358.72 161.142 363.404C160.752 368.078 166.794 370.204 169.558 370.204C172.322 370.204 175.548 369.516 175.548 369.516C175.548 369.516 173.709 372.742 181.539 375.505C189.379 378.268 211.729 383.343 215.418 382.881C219.107 382.419 222.559 378.967 226.937 375.741C231.314 372.516 255.513 355.237 256.9 354.313C258.287 353.388 271.183 343.711 276.259 340.486C281.325 337.26 286.864 332.422 287.552 327.82C288.241 323.207 288.477 319.53 288.241 317.681H288.261ZM208.985 347.399C203.683 352.464 199.994 361.678 199.994 361.678C199.994 361.678 191.239 358.453 189.39 358.915C189.39 358.915 193.767 355.001 196.305 350.851C198.843 346.701 205.522 333.11 206.673 329.884C207.824 326.659 217.504 327.121 217.504 331.035C217.504 334.949 214.277 342.325 208.975 347.389L208.985 347.399Z" fill="#FFC3B4" stroke="#335875" stroke-linecap="round" stroke-linejoin="round"/>
<path d="M169.362 349.957C169.362 349.957 176.185 352.176 177.203 356.778C178.23 361.38 176.35 364.955 175.158 367.174" stroke="#335875" stroke-linecap="round" stroke-linejoin="round"/>
<path d="M223.144 305.374C223.617 303.463 223.977 301.707 224.336 300.269" stroke="#335875" stroke-linecap="round" stroke-linejoin="round"/>
<path d="M208.646 327.008C208.646 327.008 211.554 323.526 216.785 318.287C219.014 316.057 220.504 313.304 221.573 310.521" stroke="#335875" stroke-linecap="round" stroke-linejoin="round"/>
<path d="M228.262 319.725C228.262 319.725 226.135 324.183 227.841 326.309L229.546 328.436C229.546 328.436 223.813 332.257 223.278 333.11" stroke="#335875" stroke-linecap="round" stroke-linejoin="round"/>
<path d="M189.4 358.915C189.4 358.915 181.56 368.818 175.569 369.516" stroke="#335875" stroke-linecap="round" stroke-linejoin="round"/>
<path d="M173.474 295.626C173.474 295.626 167.082 297.372 165.048 304.347C163.013 311.323 168.243 311.898 169.99 320.907C171.737 329.916 173.474 339.798 179.002 338.627C184.52 337.466 189.462 332.813 192.083 323.228C194.703 313.644 192.668 300.855 188.599 297.948" fill="#F9E5E0"/>
<path d="M173.474 295.626C173.474 295.626 167.082 297.372 165.048 304.347C163.013 311.323 168.243 311.898 169.99 320.907C171.737 329.916 173.474 339.798 179.002 338.627C184.52 337.466 189.462 332.813 192.083 323.228C194.703 313.644 192.668 300.855 188.599 297.948" stroke="#335875" stroke-linecap="round" stroke-linejoin="round"/>
<path d="M176.012 337.004C176.012 337.004 178.57 332.741 180.615 329.68C182.66 326.608 183.513 324.399 181.982 319.284C180.451 314.168 174.994 315.021 173.628 321.503C172.261 327.985 173.802 334.795 173.802 334.795" stroke="#335875" stroke-linecap="round" stroke-linejoin="round"/>
<path d="M198.843 346.701C198.843 346.701 209.211 358.679 212.438 361.442C215.664 364.206 224.882 361.668 227.183 360.292C229.485 358.905 251.608 352.228 256.684 349.69C261.75 347.153 267.289 340.476 268.902 338.401C270.515 336.326 276.506 331.95 277.194 328.262C277.883 324.574 273.968 319.273 265.902 321.81C257.835 324.348 242.853 331.487 242.853 331.487L223.268 333.1C223.268 333.1 212.664 324.112 206.673 329.874L198.833 346.691L198.843 346.701Z" fill="#F9E5E0" stroke="#335875" stroke-linecap="round" stroke-linejoin="round"/>
<path d="M275.746 324.389C275.746 324.389 272.17 322.509 270.464 324.05C268.758 325.58 261.257 331.374 261.596 334.62C261.935 337.856 264.319 340.25 266.2 339.048" stroke="#335875" stroke-linecap="round" stroke-linejoin="round"/>
<path d="M219.816 380.806C219.816 380.806 229.722 395.321 235.261 393.934C240.789 392.548 268.214 375.731 272.129 373.204C276.044 370.677 277.894 363.065 280.422 354.539C282.96 346.013 285.035 341.174 284.111 339.099C283.186 337.024 276.507 336.1 270.742 339.787C264.977 343.475 259.686 352.454 259.686 352.454L219.816 380.796V380.806Z" fill="#F9E5E0" stroke="#335875" stroke-linecap="round" stroke-linejoin="round"/>
<path d="M280.35 338.534C280.35 338.534 276.425 338.873 275.233 343.814C274.041 348.755 274.041 354.724 275.747 355.237C277.452 355.751 278.983 354.559 278.983 354.559" stroke="#335875" stroke-linecap="round" stroke-linejoin="round"/>
<path d="M259.686 352.464C259.686 352.464 255.483 355.011 256.757 358.617" stroke="#335875" stroke-linecap="round" stroke-linejoin="round"/>
</g>
<defs>
<clipPath id="clip0_546_2001">
<rect width="418" height="439" fill="white" transform="translate(38 0.674805)"/>
</clipPath>
</defs>
</svg>
