<svg xmlns="http://www.w3.org/2000/svg" width="261px" height="48px" viewBox="0 0 261 48">
<path fill="#FFFFFF" d="M96.879,0H65.859c-1.248,0-2.444,0.496-3.326,1.378l-0.47,0.47c-1.838,1.837-4.816,1.837-6.653,0
l-0.47-0.47C54.059,0.496,52.862,0,51.615,0H20.53C9.191,0,0,9.191,0,20.53v6.94C0,38.808,9.191,48,20.53,48h31.554
c1.248,0,2.444-0.496,3.326-1.378c1.837-1.837,4.815-1.837,6.653,0C62.945,47.504,64.141,48,65.389,48h31.49
c11.338,0,20.53-9.192,20.53-20.53v-6.94C117.409,9.191,108.217,0,96.879,0"/>
<path fill="#0080C9" d="M94.703,37.357h-8.264c-2.55,0-4.616-2.067-4.616-4.616V14.615c0-2.549,2.066-4.616,4.616-4.616h8.264
c6.688,0,12.109,5.422,12.109,12.109v3.139C106.812,31.935,101.39,37.357,94.703,37.357 M87.566,32.783h7.137
c4.161,0,7.535-3.374,7.535-7.535v-3.139c0-4.161-3.374-7.535-7.535-7.535h-7.137c-0.556,0-1.007,0.451-1.007,1.007v16.195
C86.558,32.331,87.01,32.783,87.566,32.783"/>
<path fill="#0080C9" d="M69.869,9.943c-2.531,0-4.747,1.71-5.388,4.158l-4.713,17.995c-0.169,0.646-0.676,0.743-0.963,0.743
c-0.287,0-0.794-0.097-0.964-0.743L53.13,14.101c-0.642-2.448-2.857-4.158-5.388-4.158c-3.071,0-5.57,2.498-5.57,5.57v6.484v15.206
h4.574V21.996v-6.484c0-0.549,0.447-0.995,0.995-0.995c0.452,0,0.848,0.305,0.963,0.743l4.713,17.994
c0.651,2.487,2.816,4.159,5.388,4.159c2.571,0,4.736-1.672,5.387-4.159l4.714-17.994c0.114-0.438,0.51-0.743,0.963-0.743
c0.549,0,0.995,0.447,0.995,0.995v21.69h4.574v-21.69C75.439,12.441,72.94,9.943,69.869,9.943"/>
<path fill="#4DD6B5" d="M32.362,29.139c-1.09,2.266-3.725,3.671-6.47,3.671h-2.327c-4.092,0-7.42-3.328-7.42-7.419v-3.393
c0-4.091,3.328-7.42,7.42-7.42h2.327c2.744,0,5.478,1.295,6.465,3.673l4.307-1.683c-1.707-4.209-6.088-6.57-10.773-6.57h-2.425
c-6.616,0-11.999,5.382-11.999,11.999v3.393c0,6.616,5.382,11.999,11.999,11.999h2.425c4.684,0,9.446-2.664,10.77-6.57
L32.362,29.139z"/>
<polygon fill="#FFFFFF" points="147.09,9.364 147.09,13.075 145.194,13.075 145.194,11.082 137.593,11.082 137.593,2.427
139.619,2.427 139.619,9.364 143.752,9.364 143.752,2.427 145.778,2.427 145.778,9.364 	"/>
<path fill="#FFFFFF" d="M156.645,7.403h-6.791c0.119,0.638,0.429,1.143,0.932,1.516c0.502,0.372,1.126,0.559,1.871,0.559
c0.951,0,1.734-0.313,2.35-0.94l1.086,1.248c-0.389,0.464-0.881,0.816-1.475,1.054c-0.595,0.238-1.264,0.356-2.009,0.356
c-0.951,0-1.788-0.189-2.512-0.567c-0.724-0.378-1.283-0.904-1.678-1.58c-0.394-0.675-0.592-1.439-0.592-2.293
c0-0.843,0.192-1.601,0.576-2.277c0.383-0.676,0.915-1.202,1.596-1.58c0.68-0.378,1.448-0.567,2.301-0.567
c0.843,0,1.596,0.186,2.26,0.559c0.665,0.373,1.184,0.897,1.556,1.572c0.373,0.676,0.559,1.457,0.559,2.342
C156.678,6.944,156.666,7.143,156.645,7.403 M150.657,4.526c-0.449,0.384-0.721,0.894-0.818,1.532h4.911
c-0.087-0.626-0.352-1.135-0.794-1.524c-0.443-0.389-0.994-0.583-1.653-0.583C151.654,3.951,151.106,4.143,150.657,4.526"/>
<polygon fill="#FFFFFF" points="158.489,2.427 160.515,2.427 160.515,5.944 164.874,5.944 164.874,2.427 166.9,2.427 166.9,11.082
164.874,11.082 164.874,7.663 160.515,7.663 160.515,11.082 158.489,11.082 	"/>
<polygon fill="#FFFFFF" points="176.239,4.145 173.209,4.145 173.209,11.082 171.183,11.082 171.183,4.145 168.137,4.145
168.137,2.427 176.239,2.427 	"/>
<path fill="#FFFFFF" d="M184.534,2.881c0.664,0.368,1.185,0.886,1.564,1.555c0.378,0.67,0.567,1.443,0.567,2.318
c0,0.875-0.19,1.65-0.567,2.325c-0.379,0.676-0.9,1.197-1.564,1.564c-0.664,0.368-1.418,0.551-2.261,0.551
c-1.167,0-2.09-0.39-2.771-1.167v4.198h-2.025l-0.001-11.799h1.929v1.135c0.334-0.411,0.748-0.719,1.24-0.924
c0.492-0.205,1.035-0.307,1.628-0.307C183.115,2.331,183.869,2.514,184.534,2.881 M183.885,8.716
c0.48-0.497,0.721-1.151,0.721-1.961s-0.241-1.464-0.721-1.961c-0.481-0.497-1.094-0.746-1.84-0.746
c-0.486,0-0.924,0.111-1.313,0.332c-0.389,0.222-0.697,0.538-0.924,0.948c-0.227,0.411-0.34,0.886-0.34,1.426
c0,0.54,0.113,1.015,0.34,1.426c0.227,0.411,0.535,0.727,0.924,0.948c0.389,0.222,0.827,0.332,1.313,0.332
C182.792,9.461,183.404,9.213,183.885,8.716"/>
<polygon fill="#FFFFFF" points="146.102,28.844 146.102,23.106 143.185,27.936 142.31,27.936 139.441,23.091 139.442,28.844
137.594,28.844 137.593,20.189 139.716,20.189 142.795,25.602 146.02,20.189 147.917,20.189 147.933,28.844 	"/>
<path fill="#FFFFFF" d="M151.901,28.39c-0.702-0.378-1.251-0.905-1.645-1.58c-0.394-0.676-0.592-1.44-0.592-2.293
s0.198-1.615,0.592-2.285c0.394-0.67,0.942-1.194,1.645-1.572c0.702-0.378,1.491-0.567,2.366-0.567c0.886,0,1.68,0.188,2.382,0.567
c0.702,0.378,1.25,0.902,1.645,1.572c0.394,0.67,0.591,1.432,0.591,2.285s-0.197,1.618-0.591,2.293
c-0.394,0.675-0.942,1.202-1.644,1.58c-0.703,0.378-1.497,0.567-2.382,0.567C153.392,28.958,152.603,28.769,151.901,28.39
M156.114,26.478c0.486-0.497,0.729-1.151,0.729-1.961c0-0.81-0.243-1.464-0.729-1.961c-0.486-0.497-1.102-0.746-1.847-0.746
c-0.745,0-1.359,0.249-1.839,0.746c-0.48,0.497-0.721,1.151-0.721,1.961c0,0.81,0.241,1.464,0.721,1.961
c0.481,0.497,1.094,0.745,1.84,0.745C155.012,27.223,155.628,26.975,156.114,26.478"/>
<path fill="#FFFFFF" d="M168.492,20.189v8.655h-2.025l-0.001-6.937h-3.241l-0.081,1.718c-0.054,1.145-0.16,2.104-0.316,2.877
c-0.157,0.772-0.421,1.383-0.794,1.831c-0.373,0.449-0.884,0.673-1.532,0.673c-0.303,0-0.676-0.06-1.118-0.178l0.097-1.701
c0.151,0.033,0.281,0.048,0.389,0.048c0.411,0,0.719-0.165,0.924-0.494c0.205-0.329,0.338-0.723,0.397-1.183
c0.06-0.459,0.111-1.116,0.154-1.969l0.146-3.339H168.492z"/>
<path fill="#FFFFFF" d="M179.031,25.165h-6.79c0.118,0.638,0.429,1.143,0.932,1.516c0.502,0.372,1.126,0.559,1.871,0.559
c0.951,0,1.734-0.313,2.35-0.94l1.086,1.248c-0.389,0.464-0.881,0.816-1.475,1.054c-0.595,0.238-1.264,0.356-2.01,0.356
c-0.95,0-1.788-0.189-2.512-0.567c-0.724-0.378-1.283-0.904-1.678-1.58c-0.394-0.675-0.592-1.439-0.592-2.293
c0-0.843,0.192-1.601,0.576-2.277c0.383-0.676,0.915-1.202,1.596-1.58c0.68-0.378,1.448-0.567,2.301-0.567
c0.843,0,1.596,0.186,2.26,0.559c0.665,0.373,1.184,0.897,1.556,1.572c0.373,0.676,0.559,1.457,0.559,2.342
C179.063,24.706,179.052,24.906,179.031,25.165 M173.043,22.288c-0.449,0.384-0.721,0.895-0.818,1.532h4.911
c-0.087-0.626-0.352-1.135-0.794-1.524c-0.443-0.389-0.994-0.583-1.653-0.583C174.039,21.713,173.491,21.905,173.043,22.288"/>
<polygon fill="#FFFFFF" points="184.472,25.376 182.9,25.376 182.9,28.844 180.875,28.844 180.874,20.19 182.9,20.19 182.9,23.69
184.521,23.69 187.081,20.19 189.253,20.19 186.109,24.354 189.464,28.844 187.081,28.844 	"/>
<path fill="#FFFFFF" d="M199.444,20.189l-4.051,9.351c-0.378,0.94-0.837,1.601-1.378,1.985c-0.54,0.383-1.194,0.575-1.961,0.575
c-0.432,0-0.859-0.071-1.28-0.211c-0.421-0.141-0.767-0.335-1.037-0.583l0.81-1.491c0.194,0.184,0.424,0.329,0.689,0.437
c0.265,0.108,0.532,0.163,0.802,0.163c0.356,0,0.651-0.092,0.883-0.276c0.232-0.183,0.446-0.492,0.64-0.924l0.146-0.34
l-3.776-8.687h2.106l2.723,6.402l2.738-6.402H199.444z"/>
<path fill="#FFFFFF" d="M208.042,20.189v8.655h-2.025l-0.001-6.937h-3.241l-0.081,1.718c-0.054,1.145-0.16,2.104-0.316,2.877
c-0.157,0.772-0.421,1.383-0.794,1.831c-0.373,0.449-0.884,0.673-1.532,0.673c-0.303,0-0.676-0.06-1.118-0.178l0.097-1.701
c0.151,0.033,0.281,0.048,0.389,0.048c0.411,0,0.719-0.165,0.924-0.494c0.205-0.329,0.338-0.723,0.397-1.183
c0.06-0.459,0.111-1.116,0.154-1.969l0.146-3.339H208.042z"/>
<path fill="#FFFFFF" d="M217.81,20.189v8.655h-1.815l-0.001-2.609h-2.285l-1.766,2.609h-2.171l2.041-2.885
c-0.626-0.216-1.104-0.549-1.434-0.997c-0.33-0.449-0.494-1.002-0.494-1.662c0-0.994,0.351-1.761,1.054-2.301
c0.702-0.54,1.669-0.81,2.901-0.81H217.81z M211.943,23.366c0,0.972,0.632,1.459,1.896,1.459h2.155v-2.933h-2.09
C212.597,21.892,211.943,22.383,211.943,23.366"/>
<path fill="#FFFFFF" d="M227.217,20.643c0.664,0.368,1.185,0.886,1.564,1.555c0.378,0.67,0.567,1.443,0.567,2.318
c0,0.875-0.189,1.65-0.567,2.325c-0.378,0.676-0.899,1.197-1.564,1.564c-0.664,0.368-1.418,0.551-2.261,0.551
c-1.167,0-2.09-0.39-2.771-1.167v4.198h-2.025l-0.001-11.799h1.929v1.135c0.334-0.411,0.748-0.719,1.24-0.924
c0.491-0.205,1.035-0.307,1.628-0.307C225.799,20.093,226.552,20.276,227.217,20.643 M226.569,26.478
c0.48-0.497,0.721-1.151,0.721-1.961c0-0.81-0.241-1.464-0.721-1.961c-0.481-0.497-1.094-0.746-1.84-0.746
c-0.486,0-0.924,0.111-1.313,0.332c-0.389,0.222-0.697,0.538-0.924,0.948c-0.227,0.411-0.34,0.886-0.34,1.426
c0,0.54,0.113,1.015,0.34,1.426c0.227,0.411,0.535,0.727,0.924,0.948c0.389,0.222,0.827,0.332,1.313,0.332
C225.475,27.223,226.088,26.975,226.569,26.478"/>
<polygon fill="#FFFFFF" points="231.116,20.189 233.142,20.189 233.142,23.707 237.501,23.707 237.501,20.189 239.527,20.189
239.527,28.844 237.502,28.844 237.501,25.425 233.142,25.425 233.142,28.844 231.116,28.844 	"/>
<path fill="#FFFFFF" d="M243.494,28.39c-0.702-0.378-1.251-0.905-1.645-1.58c-0.395-0.676-0.592-1.44-0.592-2.293
s0.197-1.615,0.592-2.285c0.394-0.67,0.942-1.194,1.645-1.572c0.701-0.378,1.49-0.567,2.366-0.567c0.886,0,1.68,0.188,2.382,0.567
c0.702,0.378,1.25,0.902,1.645,1.572c0.394,0.67,0.591,1.432,0.591,2.285s-0.197,1.618-0.591,2.293
c-0.394,0.675-0.942,1.202-1.644,1.58c-0.703,0.378-1.497,0.567-2.382,0.567C244.985,28.958,244.196,28.769,243.494,28.39
M247.707,26.478c0.486-0.497,0.729-1.151,0.729-1.961c0-0.81-0.243-1.464-0.729-1.961c-0.486-0.497-1.102-0.746-1.848-0.746
c-0.745,0-1.359,0.249-1.839,0.746c-0.48,0.497-0.721,1.151-0.721,1.961c0,0.81,0.241,1.464,0.721,1.961
c0.481,0.497,1.094,0.745,1.84,0.745C246.606,27.223,247.222,26.975,247.707,26.478"/>
<path fill="#FFFFFF" d="M252.185,20.189h2.025v5.705l4.781-5.705h1.847v8.655h-2.025l-0.001-5.705l-4.764,5.705h-1.864V20.189z
M254.381,18.561c-0.459-0.405-0.694-0.997-0.705-1.774h1.345c0.01,0.389,0.132,0.697,0.364,0.924
c0.232,0.227,0.559,0.34,0.981,0.34c0.41,0,0.737-0.113,0.98-0.34c0.243-0.227,0.37-0.535,0.381-0.924h1.378
c-0.011,0.778-0.249,1.369-0.713,1.774c-0.464,0.405-1.134,0.608-2.009,0.608C255.507,19.169,254.84,18.966,254.381,18.561"/>
<path fill="#FFFFFF" d="M146.832,44.144v3.646h-1.897v-1.928h-6.676v1.928h-1.88v-3.646h0.405c0.551-0.021,0.926-0.375,1.127-1.061
c0.2-0.686,0.332-1.656,0.397-2.909l0.113-2.966h7.13l0.001,6.937H146.832z M139.912,42.75c-0.119,0.626-0.335,1.092-0.648,1.394
h4.262v-5.219h-3.323l-0.048,1.394C140.112,41.314,140.031,42.124,139.912,42.75"/>
<polygon fill="#FFFFFF" points="148.419,37.208 150.445,37.208 150.445,42.913 155.226,37.208 157.073,37.208 157.074,45.862
155.048,45.862 155.048,40.157 150.283,45.862 148.419,45.862 	"/>
<path fill="#FFFFFF" d="M165.696,38.026c0.676,0.611,1.013,1.532,1.013,2.763v5.073h-1.912v-1.054
c-0.249,0.378-0.603,0.668-1.062,0.867c-0.459,0.2-1.013,0.3-1.661,0.3c-0.648,0-1.216-0.112-1.701-0.332
c-0.486-0.222-0.862-0.53-1.127-0.924c-0.265-0.394-0.397-0.84-0.397-1.337c0-0.778,0.289-1.402,0.867-1.872
c0.577-0.47,1.488-0.705,2.731-0.705h2.236v-0.13c0-0.605-0.181-1.07-0.543-1.394c-0.362-0.324-0.899-0.486-1.613-0.486
c-0.486,0-0.964,0.076-1.434,0.227c-0.47,0.151-0.867,0.362-1.191,0.632l-0.794-1.475c0.454-0.346,0.999-0.61,1.637-0.794
c0.637-0.184,1.313-0.276,2.026-0.276C164.046,37.11,165.021,37.416,165.696,38.026 M163.849,44.152
c0.394-0.232,0.672-0.565,0.835-0.997v-1.005h-2.091c-1.167,0-1.75,0.384-1.75,1.151c0,0.368,0.146,0.659,0.437,0.875
c0.292,0.216,0.697,0.324,1.216,0.324C163.004,44.501,163.455,44.385,163.849,44.152"/>
<polygon fill="#FFFFFF" points="175.574,38.926 170.955,38.926 170.955,45.862 168.929,45.862 168.929,37.208 175.574,37.208 	"/>
<polygon fill="#FFFFFF" points="176.81,37.208 178.836,37.208 178.836,40.725 183.196,40.725 183.195,37.208 185.221,37.208
185.221,45.862 183.196,45.862 183.196,42.443 178.836,42.443 178.836,45.862 176.81,45.862 	"/>
<path fill="#FFFFFF" d="M189.189,45.408c-0.703-0.378-1.251-0.905-1.645-1.58c-0.395-0.676-0.592-1.44-0.592-2.293
s0.197-1.615,0.592-2.285c0.394-0.67,0.942-1.194,1.644-1.572c0.702-0.378,1.491-0.567,2.366-0.567c0.885,0,1.68,0.188,2.382,0.567
c0.702,0.378,1.25,0.902,1.644,1.572c0.395,0.67,0.592,1.432,0.592,2.285s-0.197,1.618-0.591,2.293
c-0.395,0.675-0.943,1.202-1.645,1.58c-0.703,0.378-1.496,0.567-2.382,0.567C190.679,45.976,189.89,45.787,189.189,45.408
M193.402,43.496c0.486-0.497,0.729-1.151,0.729-1.961s-0.243-1.464-0.729-1.961c-0.486-0.497-1.102-0.746-1.848-0.746
c-0.746,0-1.359,0.249-1.839,0.746c-0.48,0.497-0.721,1.151-0.721,1.961s0.241,1.464,0.721,1.961
c0.48,0.497,1.094,0.745,1.839,0.745C192.3,44.241,192.916,43.993,193.402,43.496"/>
<path fill="#FFFFFF" d="M199.573,45.408c-0.713-0.378-1.27-0.904-1.67-1.58c-0.399-0.676-0.599-1.44-0.599-2.293
s0.2-1.615,0.599-2.285c0.4-0.67,0.954-1.194,1.661-1.572c0.707-0.378,1.516-0.567,2.423-0.567c0.853,0,1.602,0.173,2.245,0.518
c0.642,0.346,1.126,0.843,1.45,1.491l-1.555,0.908c-0.248-0.4-0.559-0.699-0.932-0.9c-0.373-0.2-0.781-0.3-1.224-0.3
c-0.756,0-1.384,0.246-1.88,0.738c-0.497,0.492-0.745,1.148-0.745,1.969c0,0.821,0.246,1.478,0.737,1.969
c0.492,0.492,1.121,0.738,1.888,0.738c0.443,0,0.851-0.1,1.224-0.3c0.373-0.2,0.684-0.5,0.932-0.9l1.556,0.908
c-0.335,0.648-0.824,1.148-1.467,1.499c-0.642,0.351-1.385,0.527-2.228,0.527C201.091,45.976,200.286,45.787,199.573,45.408"/>
<polygon fill="#FFFFFF" points="214.575,38.926 211.544,38.926 211.545,45.862 209.519,45.862 209.518,38.926 206.472,38.926
206.472,37.208 214.575,37.208 	"/>
<polygon fill="#FFFFFF" points="215.811,37.208 217.837,37.208 217.837,42.913 222.618,37.208 224.465,37.208 224.466,45.862
222.44,45.862 222.44,40.157 217.675,45.862 215.811,45.862 	"/>
<polygon fill="#FFFFFF" points="230.413,42.394 228.841,42.394 228.841,45.862 226.815,45.862 226.815,37.208 228.841,37.208
228.841,40.708 230.461,40.708 233.021,37.208 235.193,37.208 232.05,41.373 235.404,45.862 233.022,45.862 	"/>
<polygon fill="#FFFFFF" points="236.608,37.208 238.634,37.208 238.634,42.913 243.415,37.208 245.262,37.208 245.263,45.862
243.237,45.862 243.237,40.157 238.472,45.862 236.608,45.862 	"/>
</svg>
