<svg width="428" height="436" viewBox="0 0 428 436" fill="none" xmlns="http://www.w3.org/2000/svg">
<path opacity="0.7" d="M380.237 61.2615C378.611 59.6756 376.937 58.1285 375.204 56.62C339.207 25.4255 291.41 9.10297 244.805 2.50821C197.57 -4.17357 147.47 1.87968 106.778 28.1233C102.238 31.0532 97.8439 34.2056 93.6237 37.561C59.7074 64.5395 43.5527 102.338 39.1099 144.76C35.7125 177.192 19.6061 202.585 8.533 232.541C-3.50804 265.138 -3.35317 305.229 12.5112 336.588C31.3471 373.816 68.9705 392.856 107.281 404.44C171.978 423.992 244.466 423.934 307.497 398.3C351.19 380.536 395.618 350 413.553 304.794C429.582 264.413 430.337 219.052 425.101 176.457C420 135.032 411.259 91.5857 380.247 61.2421L380.237 61.2615Z" fill="#FC2447" fill-opacity="0.1"/>
<path d="M288.414 435.379L287.504 273.237L292.354 271.207C292.354 271.207 325.67 273.914 344.448 271.883C363.225 269.853 373.824 261.73 375.944 255.638C378.064 249.546 371.985 224.831 368.046 221.785C364.106 218.739 268.117 202.494 268.117 202.494L252.368 206.893C252.368 206.893 244.799 203.509 242.68 202.832C240.56 202.155 235.71 207.232 235.71 207.232L230.861 207.909H183.374L177.954 207.232C177.954 207.232 172.534 202.155 170.162 202.832C167.791 203.509 159.321 206.893 159.321 206.893L141.705 202.494C141.705 202.494 41.7471 222.8 37.343 225.846C32.9389 228.892 18.7104 249.546 21.0818 255.638C23.4532 261.73 35.3103 269.853 56.3241 271.883C77.3282 273.914 114.603 271.207 114.603 271.207L120.024 273.237L119.007 435.379" fill="#FD8C9E"/>
<path d="M288.414 435.379L287.504 273.237L292.354 271.207C292.354 271.207 325.67 273.914 344.448 271.883C363.225 269.853 373.824 261.73 375.944 255.638C378.064 249.546 371.985 224.831 368.046 221.785C364.106 218.739 268.117 202.494 268.117 202.494L252.368 206.893C252.368 206.893 244.799 203.509 242.68 202.832C240.56 202.155 235.71 207.232 235.71 207.232L230.861 207.909H183.374L177.954 207.232C177.954 207.232 172.534 202.155 170.162 202.832C167.791 203.509 159.321 206.893 159.321 206.893L141.705 202.494C141.705 202.494 41.7471 222.8 37.343 225.846C32.9389 228.892 18.7104 249.546 21.0818 255.638C23.4532 261.73 35.3103 269.853 56.3241 271.883C77.3282 273.914 114.603 271.207 114.603 271.207L120.024 273.237L119.007 435.379" stroke="#335875" stroke-linecap="round" stroke-linejoin="round"/>
<path d="M300.745 244.838L302.653 240.738" stroke="#335875" stroke-linecap="round" stroke-linejoin="round"/>
<path d="M293.167 248.183L287.504 273.237L298.471 249.721" stroke="#335875" stroke-linecap="round" stroke-linejoin="round"/>
<path d="M253.956 258.356C253.792 261.305 253.53 263.075 253.53 263.075" stroke="#335875" stroke-linecap="round" stroke-linejoin="round"/>
<path d="M242.68 212.299C242.68 212.299 248.1 220.421 251.827 234.974C253.54 241.646 254.034 248.106 254.072 253.144" stroke="#335875" stroke-linecap="round" stroke-linejoin="round"/>
<path d="M248.778 211.96C248.778 211.96 263.006 228.205 264.023 232.605" stroke="#335875" stroke-linecap="round" stroke-linejoin="round"/>
<path d="M159.322 210.607C159.322 210.607 161.354 232.267 165.759 241.076" stroke="#335875" stroke-linecap="round" stroke-linejoin="round"/>
<path d="M150.426 217.385C147.241 224.86 142.692 236.357 142.044 242.439" stroke="#335875" stroke-linecap="round" stroke-linejoin="round"/>
<path d="M153.563 210.268C153.563 210.268 152.856 211.796 151.791 214.223" stroke="#335875" stroke-linecap="round" stroke-linejoin="round"/>
<path d="M162.022 260.386C162.506 262.262 162.971 263.897 163.388 265.105" stroke="#335875" stroke-linecap="round" stroke-linejoin="round"/>
<path d="M157.289 238.03C157.289 238.03 158.944 247.061 160.754 255.087" stroke="#335875" stroke-linecap="round" stroke-linejoin="round"/>
<path d="M208.454 232.615C208.454 232.615 203.372 269.853 203.033 275.606C202.694 281.36 202.694 396.797 202.694 396.797" stroke="#335875" stroke-linecap="round" stroke-linejoin="round"/>
<path d="M130.864 283.729H171.865C171.865 283.729 174.576 326.721 173.898 331.797C173.221 336.874 155.604 344.996 149.835 345.335C144.076 345.673 131.542 341.95 130.186 338.228" stroke="#335875" stroke-linecap="round" stroke-linejoin="round"/>
<path d="M131.88 290.498H168.468" stroke="#335875" stroke-linecap="round" stroke-linejoin="round"/>
<path d="M272.036 283.729H231.035C231.035 283.729 228.325 326.721 229.002 331.797C229.68 336.874 247.296 344.996 253.055 345.335C258.815 345.673 271.349 341.95 272.704 338.228" stroke="#335875" stroke-linecap="round" stroke-linejoin="round"/>
<path d="M271.02 290.498H234.422" stroke="#335875" stroke-linecap="round" stroke-linejoin="round"/>
<path d="M108.864 246.839L107.141 242.768" stroke="#335875" stroke-linecap="round" stroke-linejoin="round"/>
<path d="M120.014 273.237L111.786 253.753" stroke="#335875" stroke-linecap="round" stroke-linejoin="round"/>
<path d="M114.593 271.207L97.3157 257.998" stroke="#335875" stroke-linecap="round" stroke-linejoin="round"/>
<path d="M134.513 239.432C130.671 246.317 125.347 256.509 124.089 262.398" stroke="#335875" stroke-linecap="round" stroke-linejoin="round"/>
<path d="M138.656 232.276C138.656 232.276 137.64 233.959 136.13 236.579" stroke="#335875" stroke-linecap="round" stroke-linejoin="round"/>
<path d="M331.458 254.275C331.458 254.275 337.556 262.059 342.299 265.105" stroke="#335875" stroke-linecap="round" stroke-linejoin="round"/>
<path d="M213.497 254.401C213.497 255.842 212.335 257.002 210.893 257.002C209.451 257.002 208.289 255.842 208.289 254.401C208.289 252.96 209.451 251.8 210.893 251.8C212.335 251.8 213.497 252.96 213.497 254.401Z" fill="white" stroke="#335875" stroke-linecap="round" stroke-linejoin="round"/>
<path d="M211.038 283.545C211.038 284.986 209.877 286.147 208.434 286.147C206.992 286.147 205.831 284.986 205.831 283.545C205.831 282.105 206.992 280.944 208.434 280.944C209.877 280.944 211.038 282.105 211.038 283.545Z" fill="white" stroke="#335875" stroke-linecap="round" stroke-linejoin="round"/>
<path d="M210.718 312.68C210.718 314.121 209.557 315.281 208.115 315.281C206.672 315.281 205.511 314.121 205.511 312.68C205.511 311.239 206.672 310.079 208.115 310.079C209.557 310.079 210.718 311.239 210.718 312.68Z" fill="white" stroke="#335875" stroke-linecap="round" stroke-linejoin="round"/>
<path d="M210.341 341.815C210.341 343.256 209.18 344.416 207.738 344.416C206.295 344.416 205.134 343.256 205.134 341.815C205.134 340.374 206.295 339.214 207.738 339.214C209.18 339.214 210.341 340.374 210.341 341.815Z" fill="white" stroke="#335875" stroke-linecap="round" stroke-linejoin="round"/>
<path d="M209.644 370.95C209.644 372.391 208.482 373.551 207.04 373.551C205.598 373.551 204.436 372.391 204.436 370.95C204.436 369.509 205.598 368.349 207.04 368.349C208.482 368.349 209.644 369.509 209.644 370.95Z" fill="white" stroke="#335875" stroke-linecap="round" stroke-linejoin="round"/>
<path d="M203.033 405.597V419.134" stroke="#335875" stroke-linecap="round" stroke-linejoin="round"/>
<path d="M210.341 400.085C210.341 401.526 209.18 402.686 207.738 402.686C206.295 402.686 205.134 401.526 205.134 400.085C205.134 398.644 206.295 397.484 207.738 397.484C209.18 397.484 210.341 398.644 210.341 400.085Z" fill="white" stroke="#335875" stroke-linecap="round" stroke-linejoin="round"/>
<path d="M184.739 198.084C184.739 198.084 178.98 199.438 178.303 200.792C177.625 202.145 170.85 225.846 170.511 228.215C170.172 230.584 169.494 235.322 171.527 234.984C173.56 234.645 192.192 220.431 192.192 220.431C192.192 220.431 196.597 221.446 197.613 224.154C198.629 226.861 208.454 232.615 208.454 232.615C208.454 232.615 217.601 227.538 218.278 225.508C218.956 223.477 222.005 218.739 222.005 218.739C222.005 218.739 241.654 236.338 243.347 234.307C245.041 232.276 245.041 225.169 244.025 222.123C243.009 219.077 234.539 197.746 233.523 196.392C232.507 195.038 184.73 198.084 184.73 198.084H184.739Z" fill="white" stroke="#335875" stroke-linecap="round" stroke-linejoin="round"/>
<path d="M197.274 214.677L208.454 232.615L216.923 216.031L197.274 214.677Z" fill="#335875" stroke="#335875" stroke-linecap="round" stroke-linejoin="round"/>
<path d="M180.975 115.766C180.975 115.766 170.444 121.481 166.823 130.203C163.213 138.925 171.944 187.941 173.744 190.948C175.545 193.955 193.703 215.596 200.169 218.342C207.767 221.582 216.469 219.957 219.692 215.48C220.476 214.387 239.563 194.526 240.464 190.61C241.364 186.693 247.8 137.416 245.09 128.694C242.38 119.972 236.359 114.557 234.249 113.358C232.139 112.159 226.119 109.452 226.119 109.452C226.119 109.452 229.729 101.629 228.529 101.329C227.329 101.029 220.398 103.737 220.398 103.737C216.188 103.137 226.119 99.5304 223.109 100.13C220.098 100.729 209.567 105.245 209.567 105.245C209.567 105.245 217.998 97.1226 214.688 97.4224C211.377 97.7222 199.636 101.029 198.136 103.137C196.636 105.245 186.695 112.759 186.695 112.759C186.695 112.759 188.505 105.845 183.985 108.852C179.474 111.859 180.975 115.766 180.975 115.766Z" fill="#FFC3B4" stroke="#335875" stroke-linecap="round" stroke-linejoin="round"/>
<path d="M214.165 149.407C214.165 149.407 209.867 157.694 210.322 162.248" stroke="#335875" stroke-linecap="round" stroke-linejoin="round"/>
<path d="M217.398 130.203L217.475 129.787C216.778 130.194 217.398 130.203 217.398 130.203Z" stroke="#335875" stroke-linecap="round" stroke-linejoin="round"/>
<path d="M234.249 113.358C232.139 112.159 226.119 109.452 226.119 109.452C226.119 109.452 229.729 101.629 228.529 101.329C227.328 101.029 220.398 103.737 220.398 103.737C216.188 103.137 226.119 99.5304 223.108 100.13C220.098 100.729 209.567 105.245 209.567 105.245C209.567 105.245 217.998 97.1226 214.687 97.4224C211.377 97.7222 199.636 101.029 198.136 103.137C196.635 105.245 186.695 112.759 186.695 112.759C186.695 112.759 188.505 105.845 183.985 108.852C179.474 111.859 180.974 115.766 180.974 115.766C180.974 115.766 170.443 121.481 166.823 130.203C165.178 134.177 166.088 146.496 167.743 159.019C169.514 156.185 172.631 150.635 172.844 146.138C173.144 139.824 174.654 129.603 177.354 126.896C180.055 124.188 200.226 131.711 205.347 131.711C210.467 131.711 218.288 125.397 218.288 125.397L217.465 129.797C217.843 129.574 218.607 129.236 220.098 128.704C224.309 127.205 227.019 124.797 227.019 124.797C227.019 124.797 236.05 123.598 236.65 132.92C237.25 142.242 236.95 149.455 238.76 153.371C239.776 155.576 242.147 160.575 244.016 164.501C245.467 150.219 246.61 133.616 245.09 128.714C242.38 119.992 236.359 114.576 234.249 113.377V113.358Z" fill="#738086" stroke="#335875" stroke-linecap="round" stroke-linejoin="round"/>
<path d="M195.251 161.958C195.251 163.438 194.342 164.646 193.219 164.646C192.096 164.646 191.186 163.447 191.186 161.958C191.186 160.469 192.096 159.27 193.219 159.27C194.342 159.27 195.251 160.469 195.251 161.958Z" fill="#335875"/>
<path d="M222.121 161.958C222.121 163.438 221.211 164.646 220.088 164.646C218.965 164.646 218.055 163.447 218.055 161.958C218.055 160.469 218.965 159.27 220.088 159.27C221.211 159.27 222.121 160.469 222.121 161.958Z" fill="#335875"/>
<path d="M199.278 178.087C199.278 178.087 198.562 179.692 198.562 180.775C198.562 181.858 200.537 184.353 200.537 184.353" stroke="#335875" stroke-linecap="round" stroke-linejoin="round"/>
<path d="M201.427 182.023C201.427 182.023 204.834 185.784 207.873 185.069C210.922 184.353 212.887 181.307 212.887 181.307" stroke="#335875" stroke-linecap="round" stroke-linejoin="round"/>
<path d="M214.32 177.555C214.32 177.555 215.753 179.702 215.036 182.207C214.32 184.711 212.887 185.069 212.887 185.069" stroke="#335875" stroke-linecap="round" stroke-linejoin="round"/>
<path d="M197.516 149.407C197.516 149.407 192.551 146.864 187.014 148.923C181.478 150.983 179.6 157.22 181.129 157.22C182.658 157.22 185.649 151.911 188.456 151.244C191.263 150.577 196.645 152.201 197.516 149.397V149.407Z" fill="#335875"/>
<path d="M214.165 149.407C214.165 149.407 219.13 146.864 224.667 148.923C230.203 150.983 232.081 157.22 230.552 157.22C229.022 157.22 226.031 151.911 223.224 151.244C220.417 150.577 215.036 152.201 214.165 149.397V149.407Z" fill="#335875"/>
<path d="M187.459 163.602L183.162 165.923" stroke="#335875" stroke-linecap="round" stroke-linejoin="round"/>
<path d="M180.655 163.244L183.336 162.529" stroke="#335875" stroke-linecap="round" stroke-linejoin="round"/>
<path d="M226.854 163.96L230.435 165.565" stroke="#335875" stroke-linecap="round" stroke-linejoin="round"/>
<path d="M230.436 160.556L227.929 160.382" stroke="#335875" stroke-linecap="round" stroke-linejoin="round"/>
<path d="M207.602 203.18C210.125 203.18 212.171 200.756 212.171 197.765C212.171 194.774 210.125 192.35 207.602 192.35C205.079 192.35 203.034 194.774 203.034 197.765C203.034 200.756 205.079 203.18 207.602 203.18Z" fill="#335875"/>
<path d="M177.509 118.696C177.509 118.696 172.311 127.872 171.44 129.1C170.569 130.329 171.198 166.774 170.733 172.218C170.269 177.652 167.433 184.653 165.4 187.728C163.367 190.793 82.7293 246.191 82.7293 246.191C82.7293 246.191 74.9374 248.202 68.4039 240.525C61.8704 232.857 60.312 219.029 61.1251 215.393C61.9381 211.757 63.9901 209.292 63.9901 209.292C63.9901 209.292 148.849 177.294 149.739 176.975C150.639 176.647 153.224 171.763 153.165 169.356C153.107 166.948 149.604 135.995 150.475 134.767C151.346 133.539 161.857 119.711 161.857 119.711C161.857 119.711 176.735 111.801 177.625 111.173C178.516 110.544 185.388 107.962 185.446 110.37C185.504 112.778 183.733 114.035 182.242 114.673C180.751 115.311 178.97 116.568 178.97 116.568L177.519 118.715L177.509 118.696Z" fill="#FFC3B4" stroke="#335875" stroke-linecap="round" stroke-linejoin="round"/>
<path d="M176.057 112.053C176.057 112.053 163.184 125.426 162.719 126.238C162.254 127.051 159.738 140.472 159.738 140.472" stroke="#335875" stroke-linecap="round" stroke-linejoin="round"/>
<path d="M161.848 119.692C161.848 119.692 155.837 131.18 154.918 132.63C153.998 134.08 153.902 136.479 154.105 138.064" stroke="#335875" stroke-linecap="round" stroke-linejoin="round"/>
<path d="M341.36 209.253C341.36 209.253 340.682 204.853 343.054 204.853C345.425 204.853 370.843 217.375 372.537 223.129C374.231 228.882 368.472 247.506 362.374 251.568C356.276 255.629 343.064 259.013 339.337 257.66C335.61 256.306 323.076 250.552 322.059 247.845C321.043 245.137 323.415 241.076 323.415 241.076L341.37 209.253H341.36Z" fill="white" stroke="#335875" stroke-linecap="round" stroke-linejoin="round"/>
<path d="M233.475 117.951C233.475 117.951 238.614 127.157 239.476 128.395C240.337 129.632 239.476 166.068 239.911 171.512C240.337 176.946 243.135 183.976 245.148 187.051C247.161 190.126 327.451 246.037 327.451 246.037C327.451 246.037 335.233 248.096 341.805 240.467C348.387 232.837 350.033 219.029 349.239 215.384C348.445 211.738 346.413 209.263 346.413 209.263C346.413 209.263 261.758 176.724 260.867 176.395C259.977 176.066 257.412 171.164 257.489 168.756C257.566 166.348 261.264 135.415 260.402 134.187C259.541 132.949 249.116 119.054 249.116 119.054C249.116 119.054 234.288 111.047 233.397 110.419C232.516 109.79 225.654 107.16 225.576 109.568C225.499 111.975 227.27 113.242 228.761 113.89C230.251 114.538 232.023 115.805 232.023 115.805L233.465 117.961L233.475 117.951Z" fill="#FFC3B4" stroke="#335875" stroke-linecap="round" stroke-linejoin="round"/>
<path d="M234.975 111.318C234.975 111.318 247.771 124.769 248.217 125.581C248.662 126.393 251.111 139.834 251.111 139.834" stroke="#335875" stroke-linecap="round" stroke-linejoin="round"/>
<path d="M249.126 119.054C249.126 119.054 255.06 130.58 255.97 132.04C256.88 133.5 256.967 135.889 256.754 137.475" stroke="#335875" stroke-linecap="round" stroke-linejoin="round"/>
<path d="M114.622 106.377L133.342 113.31" stroke="#335875" stroke-linecap="round" stroke-linejoin="round"/>
<path d="M131.958 140.317L118.087 143.779" stroke="#335875" stroke-linecap="round" stroke-linejoin="round"/>
<path d="M293.486 106.377L274.766 113.31" stroke="#335875" stroke-linecap="round" stroke-linejoin="round"/>
<path d="M276.15 140.317L290.021 143.779" stroke="#335875" stroke-linecap="round" stroke-linejoin="round"/>
<path d="M155.905 86.5441L162.825 98.2928" stroke="#335875" stroke-linecap="round" stroke-linejoin="round"/>
<path d="M257.614 86.5441L250.694 98.2928" stroke="#335875" stroke-linecap="round" stroke-linejoin="round"/>
<path d="M186.424 74.1184C186.424 74.1184 184.826 65.0675 180.025 63.9942C176.744 63.269 173.463 64.2843 171.721 64.9902C170.298 61.8379 168.197 58.7145 165.1 56.5292C156.04 50.1375 150.707 61.8572 150.707 61.8572C150.707 61.8572 144.841 47.4783 132.045 40.5548C119.249 33.6313 106.986 38.9593 102.194 43.214C97.3934 47.4783 93.6668 55.4655 93.1345 58.1247C92.6021 60.7839 90.4727 54.3922 83.0003 55.9973C75.5375 57.5928 71.269 67.717 71.269 67.717C71.269 67.717 67.5327 62.9209 62.7415 65.0579C57.9406 67.1852 56.3435 72.5132 56.3435 72.5132L36.0847 77.3094H198.155L186.424 74.1184Z" stroke="#263238" stroke-opacity="0.6" stroke-miterlimit="10"/>
<path d="M398.39 324.748C398.39 324.748 397.277 318.443 393.938 317.699C391.653 317.196 389.369 317.902 388.149 318.395C387.162 316.2 385.691 314.024 383.542 312.506C377.231 308.058 373.514 316.219 373.514 316.219C373.514 316.219 369.43 306.201 360.515 301.386C351.6 296.561 343.063 300.274 339.724 303.243C336.385 306.211 333.781 311.771 333.413 313.628C333.045 315.484 331.555 311.027 326.357 312.148C321.159 313.26 318.188 320.31 318.188 320.31C318.188 320.31 315.584 316.974 312.244 318.453C308.905 319.932 307.792 323.646 307.792 323.646L293.68 326.982H406.559L398.39 324.758V324.748Z" stroke="#263238" stroke-opacity="0.6" stroke-miterlimit="10"/>
<path d="M413.79 74.805C413.79 74.805 412.812 69.2642 409.88 68.6164C407.876 68.1716 405.863 68.7904 404.798 69.2256C403.927 67.2916 402.639 65.3867 400.742 64.0523C395.196 60.1457 391.934 67.311 391.934 67.311C391.934 67.311 388.343 58.5115 380.513 54.2762C372.682 50.0408 365.181 53.2995 362.238 55.9104C359.305 58.5212 357.021 63.4044 356.692 65.0386C356.363 66.6728 355.056 62.7565 350.497 63.7332C345.928 64.7098 343.315 70.9081 343.315 70.9081C343.315 70.9081 341.031 67.9782 338.098 69.2739C335.165 70.5793 334.188 73.838 334.188 73.838L321.788 76.768H420.972L413.79 74.8147V74.805Z" stroke="#263238" stroke-opacity="0.6" stroke-miterlimit="10"/>
</svg>
