<svg width="40" height="42" viewBox="0 0 40 42" fill="none" xmlns="http://www.w3.org/2000/svg">
<path d="M33.5 26.8537C33.5 34.4041 27.4421 40.5 20 40.5C12.5579 40.5 6.5 34.4041 6.5 26.8537C6.5 25.1227 7.30358 22.659 8.69429 19.7815C10.0596 16.9565 11.8945 13.9235 13.751 11.1176C15.604 8.31699 17.4597 5.77066 18.8537 3.92293C19.2852 3.35099 19.6719 2.84666 20 2.42319C20.3281 2.84666 20.7148 3.35099 21.1463 3.92293C22.5403 5.77066 24.396 8.31699 26.249 11.1176C28.1055 13.9235 29.9404 16.9565 31.3057 19.7815C32.6964 22.659 33.5 25.1227 33.5 26.8537Z" fill="#F2F5FA" stroke="#00309D" stroke-width="3"/>
<path d="M12.6038 23C11.3302 26.6491 11.8962 32.1228 16 35" stroke="#00309D" stroke-width="3" stroke-linecap="round"/>
</svg>
