<svg width="184" height="1523" viewBox="0 0 184 1523" fill="none" xmlns="http://www.w3.org/2000/svg">
<path d="M377.479 19.3175C284.025 -18.3492 87.2163 -23.0825 47.6106 259.317C-1.89656 612.317 446.358 894.317 411.919 1056.82C377.479 1219.32 25.0096 1110.32 51.3775 1226.32C77.7454 1342.32 305.371 1289.32 358.645 1522.32" stroke="#FF647D"/>
<path d="M359.445 19.3175C265.992 -18.3492 69.1827 -23.0825 29.577 259.317C-19.9301 612.317 429.245 894.515 393.885 1056.82C358.832 1217.71 -0.671303 1111.1 26.3089 1228.82C52.8847 1344.77 287.337 1289.32 340.611 1522.32" stroke="#FF647D"/>
<path d="M334.692 19.3175C241.238 -18.3492 44.4291 -23.0825 4.82336 259.317C-44.6838 612.317 403.571 894.317 369.131 1056.82C334.692 1219.32 -17.7777 1110.32 8.59027 1226.32C34.9582 1342.32 262.584 1289.32 315.857 1522.32" stroke="#FF647D"/>
</svg>
