<svg width="160" height="2101" viewBox="0 0 160 2101" fill="none" xmlns="http://www.w3.org/2000/svg">
<path d="M-309.151 2056.07C-223.029 2112.34 -36.1578 2128.92 22.3493 1744.99C95.4831 1265.07 -309.533 856.853 -265.383 636.31C-220.477 411.99 106.827 577.918 90.0956 423.159C72.8309 263.465 -146.876 324.014 -180.367 2.82986" stroke="#FF647D"/>
<path d="M-295.471 2056.8C-209.349 2113.08 -22.4779 2129.66 36.0291 1745.72C109.163 1265.81 -276.198 846.375 -232.628 625.627C-190.266 410.995 124.356 587.074 110.652 420.841C97.404 260.137 -133.196 324.752 -166.688 3.56719" stroke="#FF647D"/>
<path d="M-268.449 2058.26C-182.326 2114.54 4.54478 2131.11 63.0519 1747.18C136.186 1267.27 -269.429 858.832 -224.68 638.506C-179.932 418.179 147.325 585.25 130.798 425.355C114.272 265.459 -106.173 326.21 -139.665 5.02527" stroke="#FF647D"/>
</svg>
