<svg width="20" height="20" viewBox="0 0 20 20" fill="none" xmlns="http://www.w3.org/2000/svg">
<path d="M19.3438 1.25C19.3438 0.959919 19.2285 0.68172 19.0234 0.476602C18.8183 0.271484 18.5401 0.15625 18.25 0.15625C17.9599 0.15625 17.6817 0.271484 17.4766 0.476602C17.2715 0.68172 17.1562 0.959919 17.1562 1.25V8.355L3.44719 0.40125C2.26594 -0.28125 0.75 0.545625 0.75 1.92375V18.0763C0.75 19.4544 2.26375 20.2856 3.44719 19.6009L17.1562 11.6472V18.75C17.1562 19.0401 17.2715 19.3183 17.4766 19.5234C17.6817 19.7285 17.9599 19.8438 18.25 19.8438C18.5401 19.8438 18.8183 19.7285 19.0234 19.5234C19.2285 19.3183 19.3438 19.0401 19.3438 18.75V1.25Z" fill="#3F4949"/>
</svg>
