<svg width="20" height="20" viewBox="0 0 20 20" fill="none" xmlns="http://www.w3.org/2000/svg">
<path d="M0.65625 18.75C0.65625 19.0401 0.771483 19.3183 0.976601 19.5234C1.18172 19.7285 1.45992 19.8437 1.75 19.8437C2.04008 19.8437 2.31828 19.7285 2.5234 19.5234C2.72852 19.3183 2.84375 19.0401 2.84375 18.75L2.84375 11.645L16.5528 19.5987C17.7341 20.2812 19.25 19.4544 19.25 18.0762L19.25 1.92375C19.25 0.545624 17.7363 -0.285626 16.5528 0.399063L2.84375 8.35281L2.84375 1.25C2.84375 0.959918 2.72852 0.681717 2.5234 0.476599C2.31828 0.271481 2.04008 0.156248 1.75 0.156248C1.45992 0.156248 1.18172 0.271481 0.976602 0.476599C0.771484 0.681717 0.656252 0.959917 0.656252 1.25L0.65625 18.75Z" fill="#3F4949"/>
</svg>
