<svg width="120" height="188" viewBox="0 0 120 188" fill="none" xmlns="http://www.w3.org/2000/svg">
<circle cx="95" cy="25" r="24.25" fill="#D85B58" stroke="#D84432" stroke-width="1.5"/>
<path fill-rule="evenodd" clip-rule="evenodd" d="M95.0001 40C103.284 40 110 33.2843 110 25C110 16.7157 103.284 10 95.0001 10C86.7158 10 80.0001 16.7157 80.0001 25C80.0001 28.2296 81.0207 31.2207 82.757 33.6686L57.1667 64.8034C54.4813 68.0707 52.7069 71.9896 52.0233 76.1633L44.2123 123.851C43.7822 126.477 42.7036 128.955 41.0743 131.06L20.1775 158.051L26.5033 162.949L47.4001 135.957C49.844 132.8 51.4619 129.084 52.1071 125.144L59.9181 77.4564C60.3738 74.6739 61.5567 72.0613 63.347 69.8832L88.9518 38.7307C90.8019 39.5468 92.848 40 95.0001 40Z" fill="url(#paint0_linear_503_736)"/>
<path d="M16.5629 157.369C17.5793 156.061 19.4639 155.824 20.7724 156.84L27.0904 161.748C28.3988 162.764 28.6356 164.649 27.6193 165.957L14.737 182.542C12.7043 185.159 8.93492 185.633 6.31795 183.6L4.73846 182.373C2.12149 180.34 1.64789 176.571 3.68065 173.954L16.5629 157.369Z" fill="#DB5F4F"/>
<defs>
<linearGradient id="paint0_linear_503_736" x1="104.012" y1="-43.532" x2="-23.7484" y2="95.8096" gradientUnits="userSpaceOnUse">
<stop stop-color="#F4ACA6"/>
<stop offset="1" stop-color="#DD6966"/>
</linearGradient>
</defs>
</svg>
