<svg width="25" height="26" viewBox="0 0 25 26" fill="none" xmlns="http://www.w3.org/2000/svg">
<path d="M25 13V17.234C25 20.0556 22.7044 22.3512 19.8827 22.3512H5.33465L5.81615 22.8327C6.42635 23.4428 6.42635 24.4322 5.81615 25.0424C5.51107 25.3474 5.11112 25.5 4.71131 25.5C4.31141 25.5 3.9116 25.3475 3.60648 25.0423L0.457649 21.8935C0.312539 21.7484 0.19743 21.5762 0.118895 21.3866C0.0403605 21.197 -6.10352e-05 20.9938 -6.10352e-05 20.7886C-6.10352e-05 20.5834 0.0403605 20.3803 0.118895 20.1907C0.19743 20.0011 0.312539 19.8289 0.457649 19.6838L3.60648 16.535C4.21668 15.9248 5.20599 15.9248 5.81619 16.535C6.4264 17.1452 6.4264 18.1346 5.81619 18.7448L5.33475 19.2262H19.8828C20.9813 19.2262 21.875 18.3325 21.875 17.234V13C21.875 12.137 22.5746 11.4375 23.4375 11.4375C24.3005 11.4375 25 12.137 25 13ZM1.56248 14.5625C2.42542 14.5625 3.12498 13.8629 3.12498 13V8.766C3.12498 7.66752 4.01868 6.77382 5.11722 6.77382H19.6653L19.1838 7.25531C18.5736 7.86552 18.5736 8.85482 19.1838 9.46503C19.4889 9.77015 19.8888 9.92269 20.2887 9.92269C20.6885 9.92269 21.0884 9.77015 21.3935 9.46503L24.5423 6.3162C25.1525 5.70599 25.1525 4.71669 24.5423 4.10648L21.3935 0.957654C20.7833 0.347449 19.794 0.347449 19.1838 0.957654C18.5736 1.56786 18.5736 2.55717 19.1838 3.16737L19.6653 3.64882H5.11722C2.29559 3.64882 -1.66572e-05 5.94437 -1.66572e-05 8.766V13C-1.66572e-05 13.8629 0.699544 14.5625 1.56248 14.5625Z" fill="#3F4949"/>
</svg>
