<svg width="902" height="537" viewBox="0 0 902 537" fill="none" xmlns="http://www.w3.org/2000/svg">
<g clip-path="url(#clip0_1153_7072)">
<mask id="path-1-inside-1_1153_7072" fill="white">
<path fill-rule="evenodd" clip-rule="evenodd" d="M540.877 0C447.632 0 402.764 62.5916 407.837 96.773V96.7932C415.203 146.42 453.782 163.228 490.976 166.498C502.289 187.865 520.163 200.337 536.798 204.258C520.877 196.194 513.585 178.601 510.837 167.057C531.388 166.482 549.515 162.562 558.958 159C624.646 134.194 634.122 0 540.877 0Z"/>
</mask>
<path d="M407.837 96.773H412.837V96.404L412.783 96.0389L407.837 96.773ZM407.837 96.7932H402.837V97.1622L402.892 97.5273L407.837 96.7932ZM490.976 166.498L495.394 164.158L494.122 161.755L491.414 161.517L490.976 166.498ZM536.798 204.258L535.651 209.125L539.057 199.798L536.798 204.258ZM510.837 167.057L510.697 162.059L504.549 162.231L505.973 168.215L510.837 167.057ZM558.958 159L560.722 163.678L560.724 163.678L558.958 159ZM412.783 96.0389C410.583 81.2129 419.303 58.5707 440.824 39.2928C462.094 20.2391 495.416 5 540.877 5V-5C493.093 -5 457.358 11.0567 434.152 31.8442C411.196 52.4074 400.019 78.1517 402.892 97.507L412.783 96.0389ZM412.837 96.7932V96.773H402.837V96.7932H412.837ZM491.414 161.517C473.336 159.927 455.357 155.075 441.118 144.954C427.034 134.944 416.27 119.553 412.783 96.0592L402.892 97.5273C406.77 123.66 418.978 141.487 435.324 153.105C451.514 164.611 471.422 169.798 490.538 171.478L491.414 161.517ZM486.557 168.837C498.511 191.413 517.541 204.856 535.651 209.125L537.945 199.391C522.786 195.818 506.068 184.317 495.394 164.158L486.557 168.837ZM539.057 199.798C525.143 192.75 518.344 177.001 515.701 165.899L505.973 168.215C508.827 180.202 516.612 199.639 534.539 208.719L539.057 199.798ZM557.193 154.322C548.363 157.652 530.802 161.496 510.697 162.059L510.977 172.055C531.974 171.467 550.666 167.472 560.722 163.678L557.193 154.322ZM540.877 5C562.874 5 578.332 12.8555 588.493 24.6232C598.762 36.5159 604.007 52.8641 604.52 70.3445C605.557 105.693 587.358 142.931 557.191 154.323L560.724 163.678C596.246 150.264 615.629 108.001 614.515 70.0512C613.953 50.8823 608.188 32.1316 596.062 18.0877C583.827 3.91877 565.503 -5 540.877 -5V5Z" fill="#FF647D" mask="url(#path-1-inside-1_1153_7072)"/>
<path d="M414.879 304.453H414.696C412.159 304.332 409.988 306.296 409.846 308.827L407.208 355.584L416.725 355.968L419.343 309.354C419.485 306.762 417.476 304.554 414.879 304.433V304.453Z" fill="#C64F6C"/>
<path d="M418.268 328.368L419.343 309.354C419.485 306.762 417.476 304.554 414.879 304.433H414.696C413.418 304.372 412.241 304.838 411.368 305.648C411.51 315.854 414.311 324.561 418.288 328.368H418.268Z" fill="#D86A7F"/>
<path d="M397.163 295.705C397.102 293.923 395.641 292.506 393.876 292.506C392.11 292.506 390.527 294.045 390.588 295.888L391.928 341.449H398.523L397.184 295.685L397.163 295.705Z" fill="#735691"/>
<path d="M424.051 335.455H380.442L383.892 391.567H421.474L424.051 335.455Z" fill="#F4E4D4"/>
<path d="M419.161 384.966C405.219 386.95 390.913 367.45 387.179 341.389C386.895 339.384 386.692 337.42 386.55 335.455H380.422L383.871 391.567H421.454L421.778 384.298C420.926 384.601 420.053 384.824 419.14 384.946L419.161 384.966Z" fill="#E8D1BC"/>
<path d="M93.5424 243.664C184.556 247.39 213.27 304.838 226.988 380.997L23.1873 418.823C-0.0682125 335.334 -12.8933 239.31 93.5424 243.664Z" fill="#7F384D"/>
<path d="M761.5 249.435C668.011 249.435 641.123 304.737 630.53 379.033L842.022 424.412C862.091 343.312 870.838 249.455 761.5 249.455V249.435Z" fill="#7F384D"/>
<path d="M744.718 249.435C651.229 249.435 624.341 304.737 613.748 379.033L825.24 424.412C845.309 343.312 854.055 249.455 744.718 249.455V249.435Z" fill="#934759"/>
<path d="M635.543 214.464C635.543 214.464 598.975 264.318 598.407 299.533L603.784 349.387C625.031 352.607 647.82 350.845 660.117 286.026C672.414 221.207 635.543 214.464 635.543 214.464Z" fill="#DD6495"/>
<path d="M635.543 214.464C635.543 214.464 634.284 216.185 632.255 219.182C639.236 230.117 639.601 255.004 632.154 282.705C625.295 308.199 613.667 329.158 602.587 338.088L603.805 349.367C625.051 352.587 647.84 350.825 660.137 286.006C672.435 221.187 635.563 214.444 635.563 214.444L635.543 214.464Z" fill="#C14281"/>
<path d="M658.433 370.447C672.252 311.115 625.335 300.586 616.528 273.978C611.354 258.325 614.824 215.557 638.729 206.566C673.084 193.647 712.797 200.998 744.617 225.095C783.274 254.376 813.45 326.525 790.823 372.877C768.197 419.228 658.433 370.467 658.433 370.467V370.447Z" fill="#FF647D"/>
<path d="M684.57 380.349C697.659 375.793 696.522 352.344 680.938 324.561C663.79 294.025 635.685 269.826 618.152 270.515C617.299 270.555 616.488 270.657 615.696 270.819C615.94 271.973 616.224 273.026 616.549 273.978C625.356 300.606 667.585 314.052 658.453 370.447C658.453 370.447 669.168 375.205 684.59 380.329L684.57 380.349Z" fill="#D8546A"/>
<path d="M744.616 225.095C712.797 200.998 673.084 193.647 638.729 206.566C630.916 209.503 625.295 216.064 621.439 224.103C624.503 221.652 627.831 219.587 631.484 218.008C663.851 204.035 707.075 231.858 728.017 280.154C747.234 324.5 740.984 370.649 714.786 388.732C745.408 395.394 779.337 396.366 790.823 372.856C813.45 326.505 783.274 254.356 744.616 225.075V225.095Z" fill="#FF647D"/>
<path d="M429.956 395.577L426.344 534.995H424.335L419.465 394.726L429.956 395.577Z" fill="#60313A"/>
<path d="M453.881 395.577L467.376 534.995H465.367L443.268 394.726L453.881 395.577Z" fill="#60313A"/>
<path d="M389.046 395.577L375.551 534.995H377.56L399.659 394.726L389.046 395.577Z" fill="#60313A"/>
<path d="M460.193 397.014H382.735V407.605H460.193V397.014Z" fill="#60313A"/>
<path d="M487.831 389.765H355.096V400.072H487.831V389.765Z" fill="#EDB174"/>
<path d="M835 476.879H592.765V491.762H835V476.879Z" fill="#60313A"/>
<path d="M840.946 482.184L844.092 537H840.946C840.946 537 834.574 491.681 815.195 483.865L840.946 482.184Z" fill="#60313A"/>
<path d="M766.776 482.184L763.651 537H766.776C766.776 537 773.108 491.681 792.325 483.865L766.756 482.184H766.776Z" fill="#60313A"/>
<path d="M660.564 482.184L663.75 537H660.543C660.543 537 654.05 491.681 634.366 483.865L660.564 482.184Z" fill="#60313A"/>
<path d="M585.115 482.184L581.949 537H585.135C585.135 537 591.568 491.681 611.131 483.865L585.115 482.184Z" fill="#60313A"/>
<path d="M802.674 425.647H655.45C639.135 398.169 643.315 320.288 589.377 320.288C538.807 320.288 528.194 346.633 528.194 408.071C528.194 462.279 593.455 485.93 593.455 485.93H838.572L802.674 425.627V425.647Z" fill="#934759"/>
<path d="M655.429 425.647H586.698C572.554 401.813 584.242 330.697 561.656 324.156C534.647 333.471 528.173 360.038 528.173 408.091C528.173 462.299 593.435 485.951 593.435 485.951H792.284C883.906 427.105 814.728 421.395 756.386 425.647H655.409H655.429Z" fill="#A05564"/>
<path d="M656.038 449.036C674.079 441.239 701.758 435.023 732.989 432.694C751.069 431.337 768.055 431.459 782.787 432.775C783.193 431.864 783.396 430.932 783.355 430.021C782.909 419.37 751.983 413.032 714.279 415.846C676.575 418.661 646.379 429.596 646.825 440.247C646.967 443.69 650.316 446.666 656.018 449.056L656.038 449.036Z" fill="#934759"/>
<path d="M666.023 420.99H632.255L644.188 485.951H659.732L666.023 420.99Z" fill="#934759"/>
<path d="M736.844 420.99H703.077L715.009 485.951H730.554L736.844 420.99Z" fill="#934759"/>
<path d="M92.6699 425.789H230.052C243.425 398.371 234.314 320.673 284.64 320.673C331.82 320.673 343.489 346.957 347.588 408.273C351.22 462.36 291.925 485.971 291.925 485.971H63.2251L92.6699 425.809V425.789Z" fill="#A05564"/>
<path d="M288.353 476.879H66.269V491.762H288.353V476.879Z" fill="#60313A"/>
<path d="M293.792 482.184L296.673 537H293.792C293.792 537 287.947 491.681 270.191 483.865L293.812 482.184H293.792Z" fill="#60313A"/>
<path d="M225.79 482.184L222.929 537H225.79C225.79 537 231.594 491.681 249.208 483.865L225.77 482.184H225.79Z" fill="#60313A"/>
<path d="M128.426 482.184L131.348 537H128.406C128.406 537 122.46 491.681 104.399 483.865L128.426 482.184Z" fill="#60313A"/>
<path d="M59.2476 482.184L56.3457 537H59.2679C59.2679 537 65.1731 491.681 83.0916 483.865L59.2476 482.184Z" fill="#60313A"/>
<path d="M174.937 230.967C223.132 247.39 247.24 316.461 251.826 320.288C256.412 324.116 249.533 371.439 230.397 366.093C211.261 360.747 174.937 230.967 174.937 230.967Z" fill="#EDE3D3"/>
<path d="M207.324 290.339C207.324 290.339 206.086 268.166 197.157 251.926C188.289 235.827 162.578 218.433 153.102 213.958C143.625 209.462 106.449 199.823 81.9755 215.962C65.4775 226.836 72.2147 317.17 121.668 406.268L227.779 373.504C227.049 340.7 207.344 290.339 207.344 290.339H207.324Z" fill="#EDE3D3"/>
<path d="M207.223 288.982C214.995 324.966 201.419 366.984 183.46 372.755C146.243 384.743 101.579 342.522 99.2246 268.915C98.2708 239.371 73.5339 241.517 79.1144 218.979C65.9647 239.148 71.2814 332.155 117.691 415.745L227.739 373.504C227.495 362.327 210.328 301.557 207.202 289.003L207.223 288.982Z" fill="#E0CEB6"/>
<path d="M119.741 220.842C119.416 197.859 82.3206 208.652 53.586 233.033C21.0161 260.694 8.13016 310.488 20.2855 327.437L82.5438 290.056C75.6849 283.637 86.785 278.574 92.1626 274.322C103.202 265.614 120.248 256.684 119.741 220.842Z" fill="#EDE3D3"/>
<path d="M103.283 263.326C77.8562 283.981 41.3291 302.266 27.0024 292.303C23.3091 289.732 25.4805 276.529 24.7499 272.297C14.7659 294.571 12.8786 317.089 20.2855 327.416L84.7963 291.979C77.9373 285.56 86.785 278.554 92.1626 274.302C98.1084 269.624 105.779 264.865 111.522 255.874C109.006 258.385 106.246 260.876 103.263 263.306L103.283 263.326Z" fill="#E0CEB6"/>
<path d="M78.8303 292.06C70.7334 277.764 49.8725 274.241 32.238 284.183C14.6036 294.126 6.85174 313.768 14.9486 328.064C23.0454 342.361 43.9064 345.884 61.5408 335.941C79.1752 325.999 86.9271 306.357 78.8303 292.06Z" fill="#EADFCE"/>
<path d="M81.1233 331.912C61.6016 332.175 26.6372 336.306 20.8131 328.348C14.9891 320.41 17.7895 288.598 42.4452 283.09C74.3861 275.942 90.4783 304.149 92.5887 309.03C96.9517 319.114 93.4816 331.729 81.1233 331.912Z" fill="#EDB984"/>
<path d="M91.2493 306.458C85.1411 312.168 76.0094 316.745 65.3354 318.81C44.1091 322.901 24.8309 315.51 22.274 302.307C22.132 301.578 22.0711 300.849 22.0305 300.12C16.9573 311.014 17.4241 323.731 20.813 328.348C26.637 336.286 61.6015 332.175 81.1231 331.912C93.4815 331.75 96.9515 319.114 92.5886 309.03C92.3451 308.463 91.8986 307.551 91.2695 306.438L91.2493 306.458Z" fill="#E79B69"/>
<path d="M172.258 367.247C142.428 353.133 124.448 372.978 124.448 372.978L138.227 426.417H253.369L284.132 360.95C247.626 354.085 202.109 381.382 172.279 367.247H172.258Z" fill="#5B484A"/>
<path d="M199.126 371.115C192.003 375.307 183.703 379.195 174.632 382.414C157.505 388.469 141.068 390.96 128.832 389.988L138.227 426.417H253.368L284.132 360.95C257.407 355.928 225.851 369.191 199.146 371.135L199.126 371.115Z" fill="#49383A"/>
<path d="M257.934 425.647H119.842C104.541 398.169 108.458 320.288 57.8678 320.288C10.4435 320.288 0.479736 346.633 0.479736 408.071C0.479736 462.279 61.6828 485.93 61.6828 485.93H291.58L257.914 425.627L257.934 425.647Z" fill="#A05564"/>
<path d="M217.775 425.647C223.741 444.682 235.754 464.446 253.206 485.951H288.942C288.921 484.331 288.881 482.69 288.861 481.03L257.955 425.647H217.795H217.775Z" fill="#934759"/>
<path d="M119.842 425.647C114.18 415.482 111.157 398.432 107.017 380.956C107.017 380.997 106.976 381.037 106.956 381.078C95.7341 407.544 104.074 445.512 127.655 485.951H163.066C166.617 467.726 170.838 445.492 173.841 425.647H119.822H119.842Z" fill="#934759"/>
<path d="M31.3248 405.965C30.1681 357.588 35.363 330.413 59.2273 320.349C58.7809 320.349 58.3548 320.288 57.888 320.288C10.4638 320.288 0.5 346.633 0.5 408.091C0.5 462.299 61.7031 485.951 61.7031 485.951H94.4556C94.4556 485.951 32.6641 461.651 31.3248 405.965Z" fill="#934759"/>
<path d="M233.258 366.701C212.397 363.602 219.946 323.285 249.513 318.709C267.715 315.894 282.509 323.366 288.82 326.93C295.131 330.494 290.058 354.693 275.995 358.844C261.932 362.975 245.414 368.523 233.258 366.721V366.701Z" fill="#EDB984"/>
<path d="M299.25 369.151C285.106 352.668 237.155 357.325 237.155 387.153C237.155 428.806 269.826 470.399 329.852 523.838L332.348 522.987C329.527 517.297 313.395 385.634 299.25 369.151Z" fill="#5B484A"/>
<path d="M284.802 452.032C272.505 413.761 271.794 377.939 281.373 360.403C262.155 357.203 233.827 365.951 233.827 387.497C233.827 425.06 263.779 462.279 313.05 508.488C302.254 494.435 292.128 474.773 284.822 452.032H284.802Z" fill="#49383A"/>
<path d="M355.096 535.562H324.211C324.211 535.562 324.211 523.534 331.029 522.117C337.847 520.679 355.096 535.562 355.096 535.562Z" fill="#F4E4D4"/>
<path d="M179.503 375.772C166.881 359.168 117.366 351.21 111.603 381.078C104.927 415.725 136.299 470.014 191.374 523.838L193.951 522.987C191.658 517.257 192.105 392.377 179.483 375.772H179.503Z" fill="#5B484A"/>
<path d="M144.579 430.365C135.001 404.709 129.359 382.597 127.005 363.4C119.294 366.275 113.389 371.884 111.623 381.058C104.947 415.705 136.32 469.994 191.394 523.817L193.972 522.967C193.708 522.299 193.464 519.97 193.261 516.386C178.488 503.507 159.251 469.609 144.599 430.365H144.579Z" fill="#49383A"/>
<path d="M211.18 535.562H186.504C186.504 535.562 186.504 523.534 191.962 522.117C197.421 520.679 211.18 535.562 211.18 535.562Z" fill="#F4E4D4"/>
<path d="M279.323 326.627C277.557 317.19 278.795 308.361 280.5 306.843C282.184 305.324 287.521 307.855 287.744 311.176C287.968 314.497 288.373 323.873 290.2 328.267C291.478 331.345 279.993 330.15 279.323 326.627Z" fill="#EDB984"/>
<path d="M194.114 375.064L240.442 281.855L300.346 283.151L301.97 285.419L253.145 373.282L195.737 377.332L194.114 375.064Z" fill="#FF647D"/>
<path d="M195.737 377.332L242.086 284.123L301.97 285.419L254.789 375.55L195.737 377.332Z" fill="#CF4B60"/>
<path d="M641.001 319.62C640.453 298.945 625.234 282.989 606.991 283.981C588.747 284.973 574.421 302.53 574.948 323.204C575.496 343.879 590.716 359.836 608.959 358.864C627.202 357.872 641.529 340.315 641.001 319.64V319.62Z" fill="#FCCAE0"/>
<path d="M606.991 283.961C604.901 284.082 602.871 284.426 600.903 284.953C605.692 291.635 608.817 302.125 608.817 313.93C608.817 334.119 599.787 350.501 588.646 350.501C587.936 350.501 587.246 350.44 586.556 350.298C592.583 356.009 600.436 359.31 608.979 358.844C627.223 357.852 641.57 340.295 641.022 319.62C640.474 298.945 625.254 282.989 607.011 283.981L606.991 283.961Z" fill="#E8AFCA"/>
<path d="M635.746 530.419C593.496 472.829 581.056 382.151 584.79 369.596C588.524 357.042 678.644 336.225 716.572 359.613C754.519 383.002 731.446 426.64 704.721 426.073C677.995 425.506 637.612 427.207 637.612 427.207L635.746 530.439V530.419Z" fill="#5A4966"/>
<path d="M716.572 359.613C686.275 340.943 622.738 350.46 596.459 361.456C611.049 364.615 616.183 365.87 620.871 386.687C628.014 418.317 632.641 498.019 635.259 529.771C635.421 529.994 635.563 530.216 635.746 530.439L637.613 427.206C637.613 427.206 678.015 425.506 704.721 426.073C731.446 426.64 754.499 383.002 716.572 359.613Z" fill="#4B3C59"/>
<path d="M707.846 530.419C665.596 472.829 653.157 382.151 656.891 369.596C660.624 357.042 745.59 335.071 783.518 358.459C821.445 381.847 801.68 430.041 774.954 429.474C748.229 428.907 709.692 427.186 709.692 427.186L707.826 530.419H707.846Z" fill="#5A4966"/>
<path d="M783.518 358.459C760.303 344.143 719.494 346.815 690.455 353.923C682.46 355.887 687.452 407.645 693.925 440.126C700.317 472.221 703.016 501.583 702.144 522.137C703.99 524.952 705.877 527.726 707.846 530.419L709.713 427.186C709.713 427.186 748.249 428.887 774.974 429.474C801.7 430.041 821.465 381.847 783.538 358.459H783.518Z" fill="#4B3C59"/>
<path d="M769.455 429.94C784.553 402.32 777.491 319.539 833.296 319.195C885.834 318.871 898.233 345.641 901.399 407.888C904.158 462.34 838.329 485.971 838.329 485.971C801.822 477.183 781.529 458.128 769.435 429.96L769.455 429.94Z" fill="#934759"/>
<path d="M847.379 407.868C845.025 361.577 835.63 320.876 812.252 324.419C779.134 343.049 782.3 406.43 769.455 429.92C777.592 448.874 788.997 465.62 806.996 475.968C825.666 463.919 849.023 440.43 847.359 407.848L847.379 407.868Z" fill="#A05564"/>
<path d="M604.129 535.562H639.764C639.764 535.562 641.245 524.911 632.905 523.534C624.544 522.157 604.129 535.562 604.129 535.562Z" fill="#F4E4D4"/>
<path d="M717.241 535.562H694.858C694.858 535.562 698.308 524.911 704.112 523.534C709.916 522.157 717.221 535.562 717.221 535.562H717.241Z" fill="#F4E4D4"/>
<path d="M679.03 350.278C716.633 354.875 736.093 330.433 734.227 283.434C732.36 236.435 727.55 215.314 709.104 207.376C690.658 199.439 665.393 215.659 663.729 254.74C662.065 293.822 664.013 348.456 679.03 350.278Z" fill="#FF647D"/>
<path d="M737.372 283.11C735.505 236.111 727.57 215.314 709.124 207.376C705.025 205.615 700.561 205.048 696.117 205.655C705.796 218.514 712.391 243.927 712.391 273.188C712.391 315.429 698.653 349.671 681.688 349.671C679.05 349.671 676.494 348.84 674.038 347.281C675.519 349.002 677.163 350.035 679.03 350.258C716.633 354.855 739.218 330.089 737.352 283.09L737.372 283.11Z" fill="#D8546A"/>
<path d="M616.041 244.109C622.008 261.322 648.307 257.393 679.639 246.56C686.6 221.025 726.942 230.623 730.067 215.598C701.21 199.337 668.032 195.571 638.749 206.587C625.295 211.649 618.314 227.383 615.697 242.975C615.798 243.36 615.899 243.745 616.041 244.109Z" fill="#BE4357"/>
<path d="M723.573 304.048C718.418 283.839 699.911 272.742 682.257 279.242C664.602 285.763 654.476 307.41 659.63 327.619C664.785 347.828 683.292 358.925 700.946 352.425C718.601 345.904 728.727 324.257 723.573 304.048Z" fill="#FCCAE0"/>
<path d="M723.573 304.048C718.418 283.839 699.911 272.742 682.257 279.242C679.619 280.214 677.183 281.551 674.911 283.151C683.15 287.727 689.258 304.554 689.258 324.662C689.258 335.82 687.37 345.924 684.286 353.559C689.623 354.774 695.325 354.51 700.926 352.425C718.581 345.904 728.707 324.257 723.552 304.048H723.573Z" fill="#E8AFCA"/>
<path d="M624.625 237.569C633.067 242.57 644.877 243.644 653.745 234.916C663.932 224.872 665.799 210.475 657.641 202.233C657.317 201.909 656.951 201.605 656.606 201.322C653.522 201.909 650.214 202.436 647.13 203.084C631.585 206.364 626.106 220.68 624.625 237.589V237.569Z" fill="#FCCAE0"/>
<path d="M649.261 202.982C658.473 205.574 659.508 231.413 641.691 235.949C629.881 238.966 603.358 204.542 603.358 204.542L649.261 202.962V202.982Z" fill="#D27558"/>
<path d="M594.693 349.752C572.594 341.875 568.982 291.311 589.58 238.824L615.899 234.207C615.899 234.207 641.712 305.688 636.253 325.533C631.362 343.292 603.825 352.971 594.693 349.731V349.752Z" fill="#EDB984"/>
<path d="M615.899 234.227L589.255 236.536C581.888 265.027 595.525 332.965 586.15 343.596C588.585 346.471 591.426 348.577 594.693 349.752C603.825 353.012 631.362 343.312 636.253 325.553C641.712 305.688 615.899 234.227 615.899 234.227Z" fill="#E79B69"/>
<path d="M616.731 218.149C618.963 222.381 620.201 243.279 619.775 254.902L592.684 257.474C584.506 238.824 588.666 227.687 590.736 223.92C593.252 219.344 614.499 213.897 616.731 218.129V218.149Z" fill="#E79B69"/>
<path d="M638.221 229.347C637.876 231.109 627.344 238.075 621.216 254.558L613.444 239.209C615.128 234.693 629.719 222.624 632.945 222.543C636.537 222.442 638.729 226.796 638.201 229.368L638.221 229.347Z" fill="#E79B69"/>
<path d="M624.848 205.574C624.808 207.235 621.946 220.438 617.441 233.64L609.568 224.832C609.568 224.832 616.244 203.57 618.781 202.091C621.317 200.613 624.909 203.165 624.848 205.574Z" fill="#E79B69"/>
<path d="M610.664 200.249C611.658 201.828 609.527 217.177 607.295 231.413L598.448 223.414C598.448 223.414 601.512 200.573 603.683 198.689C605.875 196.826 609.669 198.689 610.664 200.249Z" fill="#E79B69"/>
<path d="M588.849 241.963C583.005 223.029 590.969 202.543 592.694 201.51C594.418 200.477 599.158 195.571 599.117 198.608C599.076 201.646 595.992 216.124 597.108 219.547C598.244 222.989 607.275 243.198 606.889 243.542C606.504 243.887 588.849 241.943 588.849 241.943V241.963Z" fill="#E79B69"/>
<path d="M609.629 227.748C609.629 221.551 603.845 216.509 596.743 216.509C589.64 216.509 583.857 221.531 583.857 227.748C583.857 233.964 589.64 238.986 596.743 238.986C603.845 238.986 609.629 233.964 609.629 227.748Z" fill="#938986"/>
<path d="M591.812 233.235C608.208 239.573 628.278 248.969 633.229 247.936C636.862 246.742 644.573 231.231 643.396 227.14C642.321 222.786 632.763 214.464 623.448 209.705C614.134 204.947 602.364 202.841 596.56 206.546C590.757 210.272 584.202 230.299 591.792 233.235H591.812Z" fill="#EDB984"/>
<path d="M602.953 220.215L606.93 214.727C607.255 214.261 607.945 214.16 608.452 214.504L610.359 215.78C610.867 216.124 611.009 216.772 610.664 217.238L606.686 222.726C606.362 223.191 605.672 223.293 605.164 222.948L603.257 221.673C602.75 221.328 602.608 220.681 602.953 220.215Z" fill="#938986"/>
<path d="M596.966 235.139L598.792 228.902C598.955 228.375 599.543 228.112 600.112 228.315L602.303 229.084C602.892 229.287 603.237 229.874 603.074 230.4L601.248 236.637C601.086 237.164 600.497 237.427 599.929 237.224L597.737 236.455C597.149 236.252 596.804 235.665 596.966 235.139Z" fill="#938986"/>
<path d="M614.093 229.935C616.995 234.45 619.126 236.84 620.891 236.171C621.987 235.746 622.596 234.389 622.941 233.215L623.022 233.256C623.022 233.256 622.596 237.386 620.81 238.217C619.065 239.047 616.995 235.787 614.073 229.935H614.093Z" fill="#D27558"/>
<path d="M613.647 226.047C611.658 225.338 610.4 223.779 610.826 222.604C611.252 221.41 613.221 221.025 615.209 221.754C617.198 222.483 618.456 224.022 618.03 225.196C617.604 226.391 615.635 226.776 613.647 226.047Z" fill="#5A4949"/>
<path d="M609.345 237.913C607.356 237.204 606.098 235.645 606.524 234.471C606.95 233.276 608.919 232.891 610.907 233.62C612.896 234.329 614.154 235.888 613.728 237.062C613.302 238.257 611.333 238.642 609.345 237.913Z" fill="#5A4949"/>
<path d="M617.239 221.936C615.027 221.389 612.896 222.3 612.49 223.941C612.084 225.581 613.566 227.363 615.778 227.889C617.989 228.436 620.12 227.525 620.526 225.885C620.932 224.244 619.451 222.462 617.239 221.936Z" fill="#EDB984"/>
<path d="M612.571 233.863C610.359 233.316 608.229 234.228 607.823 235.868C607.417 237.508 608.898 239.29 611.11 239.816C613.322 240.363 615.453 239.452 615.859 237.812C616.265 236.172 614.783 234.39 612.571 233.863Z" fill="#EDB984"/>
<path d="M628.339 239.877C624.179 237.69 625.295 231.494 629.11 231.129C632.925 230.765 628.339 239.877 628.339 239.877Z" fill="#5A4949"/>
<path d="M625.741 208.612C624.909 206.202 624.016 203.711 622.312 201.828C621.52 200.978 620.587 200.269 619.653 199.58C617.32 197.9 614.824 196.259 611.983 195.713C610.359 195.389 608.675 195.429 607.011 195.49C604.069 195.571 601.106 195.652 598.204 196.239C595.282 196.826 592.38 197.981 590.107 199.945C588.2 201.585 586.799 203.732 585.501 205.878C584.831 206.992 584.161 208.126 583.776 209.361C582.984 211.973 583.613 214.93 585.419 216.914C585.643 217.157 585.886 217.4 585.947 217.724C586.028 218.19 585.724 218.635 585.44 219.04C582.944 222.483 581.483 226.998 582.781 230.947C583.289 232.506 584.303 233.964 585.785 234.653C586.495 234.977 587.286 235.118 588.098 235.139C591 235.24 594.064 233.721 595.424 231.109C596.783 228.517 596.073 224.953 593.638 223.556C594.206 223.07 594.795 222.564 595.16 221.895C595.525 221.247 595.627 220.377 595.201 219.789C595.079 219.607 594.896 219.465 594.815 219.263C594.693 218.979 594.734 218.656 594.774 218.352C594.977 216.995 595.201 215.659 595.403 214.302C595.424 214.12 595.444 213.937 595.444 213.755C596.682 214.444 598.062 214.849 599.462 214.666C601.451 214.403 603.338 212.662 603.277 210.677C603.277 210.596 603.277 210.515 603.236 210.454C603.967 210.211 604.413 209.341 604.941 208.693C606.26 207.093 608.736 206.971 610.583 207.802C612.429 208.632 613.119 210.13 614.519 211.568C617.441 214.606 624.808 215.132 626.594 213.33L625.721 208.612H625.741Z" fill="#938986"/>
<path d="M631.038 206.303C628.582 202.132 624.402 200.046 621.703 201.626C619.004 203.205 618.801 207.862 621.256 212.014C623.712 216.185 627.892 218.271 630.591 216.691C633.29 215.112 633.493 210.454 631.038 206.303Z" fill="#EDB984"/>
<path d="M629.211 207.619C627.689 205.028 625.072 203.711 623.347 204.663C621.642 205.615 621.48 208.49 623.002 211.082C624.524 213.674 627.141 214.99 628.866 214.039C630.591 213.087 630.733 210.211 629.211 207.619Z" fill="#D27558"/>
<path d="M629.191 210.758C628.136 208.976 626.31 208.045 625.133 208.713C623.956 209.381 623.854 211.345 624.909 213.148C625.965 214.93 627.791 215.861 628.968 215.193C630.145 214.545 630.246 212.56 629.191 210.758Z" fill="#EDB984"/>
<path d="M682.277 347.241C658.474 338.837 644.005 284.872 653.319 228.861L678.645 223.941C678.645 223.941 720.793 296.536 719.595 317.717C718.54 336.67 692.099 350.703 682.277 347.22V347.241Z" fill="#EDB984"/>
<path d="M678.644 223.941C683.819 234.248 688.121 247.025 690.8 261.16C697.963 298.844 690.901 331.831 674.992 334.848C672.354 335.354 669.655 334.969 666.936 333.876C671.38 340.558 676.554 345.236 682.277 347.261C692.099 350.724 718.54 336.711 719.595 317.757C720.793 296.576 678.644 223.981 678.644 223.981V223.941Z" fill="#E79B69"/>
<path d="M372.183 389.765H355.096V400.072H372.183V389.765Z" fill="#DB975A"/>
<path d="M490.104 389.765H480.891V400.072H490.104V389.765Z" fill="#DB975A"/>
<path d="M102.39 229.449C140.744 244.737 176.114 247.511 184.292 236.313C173.273 225.905 159.494 216.975 153.102 213.958C145.715 210.454 121.486 203.833 99.5695 208.733C92.7714 209.908 84.8167 212.905 76.6387 217.279C84.4108 221.592 93.0758 225.743 102.39 229.449Z" fill="#E0CEB6"/>
<path d="M155.78 225.561L154.299 223.536L152.047 225.115C152.047 225.115 134.696 298.237 149.063 351.21L161.868 361.739L165.298 350.886C140.053 310.731 155.78 225.581 155.78 225.581V225.561Z" fill="#E0CEB6"/>
<path d="M156.815 226.735L155.232 224.771L153.061 226.31C153.061 226.31 139.972 297.649 157.444 349.306L170.878 359.573L173.679 348.982C146.06 309.819 156.836 226.755 156.836 226.755L156.815 226.735Z" fill="#B5505F"/>
<path d="M173.435 124.333C153.873 121.559 139.201 127.897 137.537 137.475L181.836 162.017C194.113 162.908 191.699 152.196 191.699 152.196C191.699 152.196 198.152 147.903 197.178 141.18C195.554 130.043 187.944 126.398 173.415 124.333H173.435Z" fill="#7C3D42"/>
<path d="M127.168 207.599C136.015 192.615 148.658 165.784 148.658 165.784L176.743 185.163L166.901 221.997C166.901 221.997 160.204 227.727 147.197 223.515C132.586 218.797 127.168 207.579 127.168 207.579V207.599Z" fill="#D27558"/>
<path d="M148.962 142.557C139.14 155.153 139.059 198.75 144.964 202.598C150.87 206.425 157.891 210.07 164.77 209.462C171.649 208.875 176.195 207.113 176.925 205.635C177.636 204.157 183.886 161.916 186.849 154.95C191.536 143.894 158.5 130.327 148.962 142.557Z" fill="#EDB984"/>
<path d="M136.563 190.286L140.967 185.001L141.393 177.427L148.516 176.516C148.516 176.516 145.411 148.774 150.017 145.575C154.603 142.375 167.53 137.07 157.181 132.736C146.831 128.403 132.931 138.143 132.099 144.096C131.287 150.05 136.583 190.286 136.583 190.286H136.563Z" fill="#7C3D42"/>
<path d="M142.935 182.085C134.027 178.764 131.003 170.421 133.195 166.27C135.386 162.119 140.825 166.128 142.834 168.679C144.822 171.251 142.935 182.085 142.935 182.085Z" fill="#EDB984"/>
<path d="M168.565 216.509L168.382 216.448C168.382 216.448 159.961 220.215 155.375 218.797C148.11 216.529 131.388 200.107 131.388 200.107L122.886 207.214L141.758 231.555L154.806 225.682L163.268 234.835L170.756 225.075L168.585 216.509H168.565Z" fill="#EADFCE"/>
<path d="M141.271 178.804C135.731 176.739 133.864 171.555 135.224 168.983C136.584 166.411 139.972 168.902 141.21 170.482C142.448 172.081 141.271 178.804 141.271 178.804Z" fill="#D27558"/>
<path d="M142.083 179.412C138.248 178.48 136.604 175.18 137.314 173.357C138.024 171.535 140.46 172.932 141.393 173.884C142.347 174.835 142.083 179.412 142.083 179.412Z" fill="#EDB984"/>
<path d="M59.4302 333.086C53.8497 307.126 78.7692 295.665 88.9968 302.995C99.2244 310.326 97.3777 341.571 93.3598 344.628C89.3418 347.686 60.5869 338.493 59.4302 333.086Z" fill="#EDB984"/>
<path d="M70.7536 326.323C69.2113 337.359 62.5147 350.663 59.8766 351.736C57.2386 352.809 52.9568 348.111 53.9917 344.365C55.0266 340.619 57.4821 328.53 59.4099 325.108C61.3377 321.686 71.3218 322.212 70.7536 326.323Z" fill="#EDB984"/>
<path d="M82.6453 333.977C81.9148 346.653 76.2125 362.59 73.6353 364.149C71.0582 365.708 66.4517 360.909 67.2025 356.535C67.9534 352.161 69.5159 338.149 71.2002 334.038C72.8845 329.927 82.9091 329.259 82.6453 333.977Z" fill="#EDB984"/>
<path d="M96.9313 333.835C97.5401 346.532 93.5424 362.954 91.1479 364.777C88.7533 366.579 83.6598 362.306 83.9642 357.892C84.2686 353.478 84.3295 339.364 85.5674 335.111C86.8052 330.838 96.7081 329.117 96.9313 333.856V333.835Z" fill="#EDB984"/>
<path d="M273.093 359.532C264.266 361.962 256.311 360.97 255.073 359.127C253.835 357.285 256.879 352.161 259.964 351.756C263.028 351.351 272.829 349.306 275.772 349.772C278.714 350.217 276.381 358.641 273.093 359.552V359.532Z" fill="#EDB984"/>
<path d="M277.943 346.937C268.162 348.658 259.335 347.018 257.975 345.074C256.615 343.13 259.781 337.237 263.19 337.075C266.599 336.913 278.207 335.638 281.474 336.326C284.741 337.015 281.576 346.289 277.943 346.937Z" fill="#EDB984"/>
<path d="M283.544 335.253C274.656 334.544 266.762 330.879 265.625 328.732C264.489 326.586 267.614 321.807 270.678 322.475C273.763 323.144 284.275 324.703 287.197 326.141C290.119 327.578 286.852 335.536 283.544 335.273V335.253Z" fill="#EDB984"/>
<path d="M154.279 232.689L149.733 227.687L154.888 220.842L157.363 220.964L159.23 229.611L154.279 232.689Z" fill="#8E3848"/>
<path d="M155.435 242.408C156.044 232.81 156.815 226.735 156.815 226.735L155.212 224.771L153.041 226.31C153.041 226.31 151.945 232.304 150.809 242.024C152.371 242.186 153.913 242.307 155.415 242.408H155.435Z" fill="#8E3848"/>
<path d="M397.163 295.705C397.102 293.923 395.641 292.506 393.876 292.506C392.11 292.506 390.527 294.045 390.588 295.888L391.177 315.975C393.186 319.985 395.56 323.387 398.076 325.958L397.184 295.685L397.163 295.705Z" fill="#8A6BA5"/>
<path d="M682.521 205.493C684.103 210.009 682.297 230.866 680.207 242.307L653.035 240.95C647.637 221.308 653.38 210.9 655.978 207.478C659.123 203.306 680.938 200.978 682.541 205.493H682.521Z" fill="#EDB984"/>
<path d="M702.144 219.648C701.535 221.329 690.11 226.715 681.668 242.145L676.209 225.844C678.523 221.632 694.716 211.771 697.923 212.155C701.494 212.581 703.016 217.198 702.144 219.648Z" fill="#EDB984"/>
<path d="M692.363 194.214C692.099 195.834 687.33 208.51 680.978 220.923L674.444 211.062C674.444 211.062 684.144 190.974 686.863 189.881C689.583 188.787 692.769 191.825 692.363 194.214Z" fill="#EDB984"/>
<path d="M679.112 186.904C679.862 188.605 675.54 203.489 671.258 217.258L663.648 208.065C663.648 208.065 669.98 185.912 672.415 184.373C674.85 182.834 678.34 185.223 679.112 186.924V186.904Z" fill="#EDB984"/>
<path d="M651.493 225.034C648.449 205.453 659.448 182.449 661.315 181.68C663.161 180.91 668.417 180.627 667.93 183.624C667.443 186.641 662.289 200.492 662.918 204.056C663.547 207.62 669.553 228.922 669.127 229.206C668.701 229.489 651.493 225.034 651.493 225.034Z" fill="#EDB984"/>
<path d="M164.729 171.028C164.892 168.274 163.755 165.885 162.173 165.682C160.59 165.48 159.169 167.545 158.987 170.299C158.824 173.053 159.961 175.443 161.544 175.645C163.126 175.848 164.547 173.782 164.729 171.028Z" fill="#5A4949"/>
<path d="M165.724 153.897L155.375 154.667C154.502 154.727 153.853 155.497 153.893 156.388L154.116 159.749C154.177 160.64 154.928 161.309 155.801 161.248L166.15 160.478C167.023 160.418 167.672 159.628 167.631 158.737L167.408 155.375C167.347 154.484 166.596 153.816 165.724 153.877V153.897Z" fill="#7C3D42"/>
<path d="M178.569 171.535C178.549 168.781 177.23 166.472 175.627 166.391C174.024 166.31 172.765 168.477 172.786 171.231C172.806 173.985 174.125 176.293 175.728 176.374C177.331 176.455 178.589 174.289 178.569 171.535Z" fill="#5A4949"/>
<path d="M184.251 158.453L176.033 155.396C175.343 155.132 174.592 155.537 174.348 156.307L173.435 159.162C173.192 159.911 173.557 160.742 174.247 161.005L182.465 164.062C183.155 164.326 183.906 163.921 184.15 163.151L185.063 160.296C185.306 159.547 184.941 158.717 184.251 158.453Z" fill="#7C3D42"/>
<path d="M169.519 172.709C171.183 179.493 171.406 183.624 168.747 184.474C167.083 185.021 164.953 184.231 163.309 183.401L163.248 183.502C163.248 183.502 168.179 187.066 171.04 186.357C173.861 185.649 172.623 180.789 169.539 172.709H169.519Z" fill="#D27558"/>
<path d="M158.845 195.854C158.195 195.429 158.155 194.315 158.723 193.364C159.311 192.412 160.306 192.007 160.955 192.432C161.605 192.857 161.645 193.971 161.077 194.923C160.488 195.875 159.494 196.28 158.845 195.854Z" fill="#5A4949"/>
<path d="M167.631 164.305H157.729V169.813H167.631V164.305Z" fill="#EDB984"/>
<path d="M182.24 166.385L172.582 164.199L171.361 169.571L181.019 171.757L182.24 166.385Z" fill="#EDB984"/>
<g clip-path="url(#clip1_1153_7072)">
<path d="M495.907 103.335C494.685 102.239 492.95 98.6956 496.313 93.2135C499.676 87.7314 504.978 82.5845 504.978 73.4778C504.978 64.3711 499.577 60.9958 496.52 58.2094C493.464 55.4276 492.851 52.4735 493.464 50.027C484.492 50.027 482.454 64.199 489.081 67.2345C489.591 64.3666 495.596 60.8553 499.712 67.1711C503.418 72.8526 502.323 79.8253 499.167 84.8861C496.006 89.9469 492.395 94.4776 492.395 98.6956C492.395 102.914 495.145 105.265 495.145 105.265L495.912 103.335H495.907Z" fill="#E1B1A0"/>
<path d="M489.036 65.1142C489.036 65.1142 494.884 76.7944 483.423 81.4202C477.517 83.8033 469.366 79.6849 466.314 73.863C458.492 58.9344 466.21 45.6912 472.048 41.0382C479.677 34.967 486.814 35.0033 491.552 37.8893C497.94 41.7812 496.389 50.7248 491.164 53.4477C493.288 57.1448 492.711 62.201 489.036 65.1188V65.1142Z" fill="#FF647D"/>
<path d="M492.066 55.6224C491.904 57.3894 491.426 59.1246 489.992 60.0398C488.734 60.8372 487.12 60.7194 485.646 60.511C484.577 60.3615 483.329 60.2437 482.58 61.023C482.265 61.3537 482.093 61.8113 482.026 62.2644C481.683 64.5705 483.671 67.0443 482.562 69.0921C481.926 70.2656 480.484 70.7549 479.158 70.8002C476.44 70.8953 473.82 69.5724 471.819 67.7239C467.752 63.9679 465.994 58.2502 465.673 52.7092C465.61 51.6037 465.61 50.4755 465.692 49.3564C462.63 55.7039 461.381 64.4436 466.314 73.8629C469.366 79.6894 477.517 83.8033 483.423 81.4201C494.884 76.7943 489.036 65.1142 489.036 65.1142C492.03 62.7401 492.968 58.9434 492.066 55.6224Z" fill="url(#paint0_linear_1153_7072)"/>
<path d="M528.088 103.335C529.31 102.239 531.046 98.6956 527.683 93.2135C524.319 87.7314 519.017 82.5845 519.017 73.4778C519.017 64.3711 524.418 60.9958 527.475 58.2094C530.532 55.4276 531.145 52.4735 530.532 50.027C539.504 50.027 541.542 64.199 534.914 67.2345C534.405 64.3666 528.399 60.8553 524.283 67.1711C520.577 72.8526 521.673 79.8253 524.829 84.8861C527.989 89.9469 531.6 94.4776 531.6 98.6956C531.6 102.914 528.85 105.265 528.85 105.265L528.084 103.335H528.088Z" fill="#E1B1A0"/>
<path d="M534.964 65.1142C534.964 65.1142 529.116 76.7943 540.577 81.4201C546.483 83.8033 554.634 79.6849 557.686 73.8629C565.508 58.9343 557.79 45.6911 551.951 41.0381C544.323 34.9625 537.191 34.9987 532.448 37.8847C526.059 41.7766 527.61 50.7202 532.836 53.4431C530.712 57.1402 531.289 62.1964 534.964 65.1142Z" fill="#FF647D"/>
<path d="M531.934 55.6224C532.096 57.3894 532.574 59.1246 534.008 60.0398C535.266 60.8372 536.88 60.7194 538.354 60.511C539.423 60.3615 540.671 60.2437 541.42 61.023C541.735 61.3537 541.907 61.8113 541.974 62.2644C542.317 64.5705 540.329 67.0443 541.438 69.0921C542.074 70.2656 543.516 70.7549 544.842 70.8002C547.56 70.8953 550.18 69.5724 552.182 67.7239C556.248 63.9679 558.006 58.2502 558.327 52.7092C558.39 51.6037 558.39 50.4755 558.308 49.3564C561.37 55.6994 562.619 64.4391 557.686 73.8584C554.634 79.6849 546.483 83.7987 540.577 81.4156C529.116 76.7898 534.964 65.1097 534.964 65.1097C531.97 62.7356 531.032 58.9389 531.934 55.6179V55.6224Z" fill="url(#paint1_linear_1153_7072)"/>
<path d="M511.998 94.0154C498.261 94.0154 489.045 101.378 489.045 109.791C489.045 118.205 495.979 123.596 498.464 124.779C500.948 125.961 504.09 127.275 504.221 130.17C504.352 133.061 505.79 134.642 507.359 135.299C508.928 135.956 509.581 137.401 509.581 139.241V139.576C509.581 140.917 510.663 142 511.993 142C513.328 142 514.405 140.913 514.405 139.576V139.241C514.405 137.401 515.059 135.956 516.628 135.299C518.197 134.642 519.635 133.065 519.766 130.17C519.897 127.28 523.035 125.966 525.523 124.779C528.007 123.596 534.941 118.205 534.941 109.791C534.941 101.378 525.726 94.0154 511.989 94.0154H511.998Z" fill="#FF647D"/>
<path d="M511.998 137.152C511.497 135.136 510.24 133.609 508.382 132.83C507.219 132.345 506.921 131.049 506.876 130.048C506.678 125.708 502.67 123.814 500.014 122.559L499.6 122.364C498.031 121.616 491.701 117.036 491.701 109.791C491.701 103.349 499.293 96.6885 511.993 96.6885C524.694 96.6885 532.286 103.353 532.286 109.791C532.286 117.036 525.956 121.616 524.387 122.364L523.972 122.559C521.317 123.809 517.309 125.703 517.115 130.048C517.07 131.049 516.772 132.345 515.609 132.83C513.752 133.609 512.494 135.136 511.993 137.152H511.998Z" fill="url(#paint2_linear_1153_7072)"/>
<path d="M491.85 111.653C492.792 117.815 498.175 121.684 499.604 122.364L500.019 122.559C502.674 123.809 506.682 125.703 506.881 130.048C506.926 131.049 507.223 132.345 508.387 132.83C510.244 133.605 511.497 135.131 512.002 137.152C512.503 135.136 513.761 133.609 515.618 132.83C516.781 132.345 517.079 131.049 517.124 130.048C517.322 125.708 521.33 123.814 523.981 122.559L524.396 122.364C525.825 121.684 531.208 117.82 532.151 111.653H491.85Z" fill="#D7EAF8"/>
<path d="M511.998 116.859C523.125 116.859 532.146 114.528 532.146 111.653C532.146 108.778 523.125 106.448 511.998 106.448C500.87 106.448 491.85 108.778 491.85 111.653C491.85 114.528 500.87 116.859 511.998 116.859Z" fill="#F0F7FC"/>
</g>
</g>
<defs>
<linearGradient id="paint0_linear_1153_7072" x1="463" y1="65.7349" x2="492.395" y2="65.7349" gradientUnits="userSpaceOnUse">
<stop stop-color="#CF5F74"/>
<stop offset="0.97" stop-color="#A73244"/>
</linearGradient>
<linearGradient id="paint1_linear_1153_7072" x1="560.996" y1="36" x2="531.605" y2="36" gradientUnits="userSpaceOnUse">
<stop stop-color="#CF5F74"/>
<stop offset="0.97" stop-color="#A73244"/>
</linearGradient>
<linearGradient id="paint2_linear_1153_7072" x1="511.998" y1="91.1067" x2="511.998" y2="112.605" gradientUnits="userSpaceOnUse">
<stop stop-color="#CF5F74"/>
<stop offset="0.97" stop-color="#A73244"/>
</linearGradient>
<clipPath id="clip0_1153_7072">
<rect width="901" height="537" fill="white" transform="translate(0.5)"/>
</clipPath>
<clipPath id="clip1_1153_7072">
<rect width="98" height="106" fill="white" transform="translate(463 36)"/>
</clipPath>
</defs>
</svg>
