<svg width="840" height="440" viewBox="0 0 840 440" fill="none" xmlns="http://www.w3.org/2000/svg">
<mask id="mask0_1119_5584" style="mask-type:luminance" maskUnits="userSpaceOnUse" x="0" y="0" width="840" height="440">
<path d="M820.773 250.799C839.614 313.842 833.924 377.585 775.72 409.858C759.365 418.934 740.909 424.37 722.694 427.515C584.359 451.435 449.076 401.498 330.303 420.997C212.962 440.29 57.2688 469.842 9.88868 363.826C-19.9216 297.128 35.6852 248.799 20.4907 162.763C5.293 76.7244 18.4158 14.7505 85.7665 5.30169C184.019 -8.48224 272.355 46.644 377.338 11.6747C482.327 -23.2946 544.49 31.588 592.839 30.0375C641.187 28.4838 804.193 -26.7026 831.82 54.0707C859.448 134.847 797.285 172.218 820.773 250.799Z" fill="white"/>
</mask>
<g mask="url(#mask0_1119_5584)">
<path d="M820.773 250.799C839.614 313.842 833.924 377.585 775.72 409.858C759.365 418.934 740.909 424.37 722.694 427.515C584.359 451.435 449.076 401.498 330.303 420.997C212.962 440.29 57.2688 469.842 9.88868 363.826C-19.9216 297.128 35.6852 248.799 20.4907 162.763C5.293 76.7244 18.4158 14.7505 85.7665 5.30169C184.019 -8.48224 272.355 46.644 377.338 11.6747C482.327 -23.2946 544.49 31.588 592.839 30.0375C641.187 28.4838 804.193 -26.7026 831.82 54.0707C859.448 134.847 797.285 172.218 820.773 250.799Z" fill="#FF647D" fill-opacity="0.2"/>
<path d="M159.174 217.105C159.174 217.105 173.173 225.68 178.781 225.259C184.389 224.838 200.491 221.503 206.276 223.136C208.076 223.645 221.79 228.572 223.435 232.211C224.545 234.673 218.848 239.474 211.824 237.1C199.618 232.974 191.995 236.198 186.549 237.85C177.263 240.667 171.784 241.606 176.156 242.049C176.156 242.049 189.772 241.442 195.601 242.534C197.176 242.828 209.097 247.267 209.961 250.723C210.429 252.593 206.956 258.077 195.924 254.969C188.674 252.928 183.528 256.688 178.208 259.327C173.603 261.611 161.461 273.544 161.461 273.544L149.619 255.248L159.171 217.105H159.174Z" fill="#E96F5F"/>
<path d="M155.052 371.313C154.16 365.32 179.976 313.424 183.424 310.19C191.967 302.175 201.496 275.338 205.618 253.061C207.87 240.913 214.082 226.768 216.77 221.456C218.886 217.275 228.976 201.526 228.52 197.413C228.251 194.992 220.126 192.461 216.492 193.305C208.705 195.112 201.847 204.131 192.488 220.237C183.575 235.584 168.033 242.878 168.122 232.686C168.359 205.824 221.517 197.194 221.163 184.559C221.068 181.161 208.879 181.619 198.33 183.303C193.994 183.996 167.824 191.6 157.485 197.454C151.013 201.115 113.802 233.148 106.157 250.109C102.637 257.915 107.884 315.541 108.283 317.285V317.291C105.73 327.145 90.5515 345.767 90.5579 347.172C116.57 355.909 134.513 370.37 155.046 371.31L155.052 371.313Z" fill="#FFA089"/>
<path d="M90.4026 344.587L103.023 308.209L172.701 334.692L161.928 369.25L90.4026 344.587Z" fill="#7798F8"/>
<path d="M166.527 363.623C166.527 363.623 151.813 456.608 147.246 488.523C115.158 501.111 81.8848 475.091 34.9759 485.913C32.6797 486.441 27.7076 474.572 25.4019 475.015L91.2438 335.356L93.3282 336.144L95.5485 336.979L98.1041 337.938H98.1105L100.283 338.754V338.761L100.29 338.754L160.669 361.427L162.823 362.234H162.826L163.079 362.326L163.981 362.661L165.218 363.126H165.23L166.524 363.623H166.527Z" fill="#100259"/>
<path d="M157.525 344.552C156.624 345.736 156.854 347.426 158.037 348.327C159.22 349.229 160.909 348.998 161.811 347.815C162.712 346.631 162.481 344.942 161.298 344.04C160.115 343.138 158.426 343.369 157.525 344.552Z" fill="#100259"/>
<path d="M273.178 189.151C297.831 164.487 297.831 124.498 273.178 99.8332C248.525 75.1687 208.555 75.1687 183.902 99.8332C159.248 124.498 159.248 164.487 183.902 189.151C208.555 213.816 248.525 213.816 273.178 189.151Z" fill="#424BDF"/>
<path d="M257.904 133.472C257.904 129.735 254.877 126.706 251.141 126.706C247.406 126.706 244.379 129.735 244.379 133.472C244.379 137.209 247.406 140.237 251.141 140.237C254.877 140.237 257.904 137.209 257.904 133.472Z" fill="#EAF1FD"/>
<path d="M212.706 133.472C212.706 129.735 209.679 126.706 205.944 126.706C202.208 126.706 199.181 129.735 199.181 133.472C199.181 137.209 202.208 140.237 205.944 140.237C209.679 140.237 212.706 137.209 212.706 133.472Z" fill="#EAF1FD"/>
<path d="M203.815 158.659C204.407 158.659 204.995 158.906 205.416 159.384C205.469 159.441 211.988 166.453 228.543 166.453C243.253 166.453 251.793 159.251 251.875 159.178C252.764 158.413 254.108 158.511 254.874 159.397C255.642 160.283 255.547 161.621 254.665 162.393C254.276 162.732 244.923 170.709 228.543 170.709C209.888 170.709 202.522 162.536 202.215 162.188C201.44 161.305 201.528 159.96 202.414 159.185C202.816 158.83 203.315 158.656 203.815 158.656V158.659Z" fill="#EAF1FD"/>
<path d="M186.662 306.345C194.266 295.536 202.012 272.55 205.62 253.064C207.869 240.919 214.078 226.771 216.766 221.455C218.886 217.281 228.975 201.526 228.523 197.412C228.248 194.992 220.125 192.46 216.491 193.308C208.704 195.118 201.844 204.133 192.491 220.237C183.578 235.587 176.632 240.527 169.197 242.859C166.631 243.663 167.213 272.794 151.962 261.725C144.301 256.165 120.203 273.705 122.231 279.312C139.004 325.708 186.662 306.345 186.662 306.345Z" fill="#FFA089"/>
<path d="M655.568 205.991C655.568 205.991 655.375 209.064 655.53 210.073C656.011 213.187 648.312 229.597 659.936 246.077C661.226 247.909 662.188 249.897 663.333 251.662C672.379 265.633 669.633 265.525 672.037 279.328C672.085 279.594 672.015 280.315 671.844 281.439C671.284 285.163 669.643 293.334 667.619 304.143C665.629 314.791 663.266 327.996 661.21 342.033C660.818 344.713 660.41 347.46 659.993 350.26C686.077 367.285 710.431 382.002 732.132 393.729C732.274 378.531 732.41 363.797 732.543 350.241C732.692 335.318 732.844 322.591 732.98 312.181C733.211 294.47 733.397 283.461 733.448 279.746C733.517 274.708 736.139 261.731 739.021 247.245C742.93 227.607 747.314 205.194 746.454 196.02C746.103 192.315 743.639 187.48 740.333 182.448C737.604 178.3 725.822 175.072 718.25 164.332C713.48 157.567 694.415 165.041 692.59 171.294C692.583 171.313 692.577 171.332 692.574 171.354C691.824 173.901 691.125 176.268 690.493 178.344C689.319 182.22 688.399 185.078 687.931 186.16C687.829 186.394 687.747 186.546 687.69 186.606C687.349 186.97 687.007 187.334 686.669 187.688C685.369 189.074 684.132 190.391 682.978 191.622C682.936 191.666 682.898 191.71 682.857 191.751C682.282 192.369 681.731 192.96 681.206 193.524C681.111 193.625 681.017 193.729 680.922 193.827C678.695 196.213 676.952 198.102 675.921 199.219C675.839 199.308 675.76 199.393 675.69 199.466C675.159 200.045 674.871 200.355 674.871 200.355C674.871 200.355 672.084 196.922 668.125 195.966C666.882 195.663 665.531 195.609 664.117 195.97C663.747 196.064 663.364 196.191 662.979 196.346C662.609 196.498 661.141 197.308 659.158 198.469C659.12 198.492 659.085 198.514 659.044 198.536C653.098 202.036 655.024 204.317 655.568 205.985V205.991Z" fill="#FFA089"/>
<path d="M698.521 211.835C723.401 186.943 723.401 146.586 698.521 121.694C673.64 96.8021 633.301 96.8021 608.421 121.694C583.541 146.586 583.541 186.943 608.421 211.835C633.301 236.727 673.64 236.727 698.521 211.835Z" fill="#FF6760"/>
<path d="M664.371 133.66C672.256 125.648 679.98 137.546 679.98 137.546C679.98 137.546 690.288 127.8 696.063 137.445C701.842 147.09 677.133 161.374 677.133 161.374C677.133 161.374 656.483 141.672 664.371 133.66Z" fill="white"/>
<path d="M611.104 136.328C617.509 127.088 627.147 137.493 627.147 137.493C627.147 137.493 635.639 126.133 642.977 134.648C650.315 143.166 628.405 161.456 628.405 161.456C628.405 161.456 604.7 145.568 611.104 136.325V136.328Z" fill="white"/>
<path d="M679.546 177.967C679.546 177.967 650.485 184.502 631.001 177.664C631.001 177.664 637.878 199.827 655.128 199.937C672.397 200.055 679.546 177.971 679.546 177.971V177.967Z" fill="white"/>
<path d="M668.9 304.128C674.903 304.213 682.342 306.447 690.654 311.156C707.424 320.655 718.231 313.083 732.977 312.184C735.45 312.029 739.755 311.931 745.163 313.175C749.329 314.14 751.73 318.095 752.947 324.177C755.908 338.958 748.152 457.539 745.499 486.401C739.154 483.227 733.473 480.218 728.963 477.778C700.061 462.175 671.595 487.663 648.882 472.62C649.461 461.349 653.174 321.373 653.37 317.772C654.05 305.188 664.706 304.08 668.897 304.128H668.9Z" fill="#FF647D"/>
<path d="M739.02 247.248C731.382 241.847 703.213 250.995 700.863 236.157C698.785 223.032 705.07 211.748 708.378 202.368C711.971 192.186 712.696 184.332 712.363 181.113C711.538 173.101 708.033 156.935 704.69 150.581C697.482 136.882 693.323 130.617 696.239 123.082C697.884 118.829 701.66 119.064 704.013 120.526C706.177 121.87 708.324 124.99 710.975 129.367C711.513 130.262 724.579 144.511 725.161 145.502C731.733 156.637 746.488 186.218 746.488 186.218C751.122 199.35 739.024 247.248 739.024 247.248H739.02Z" fill="#FFA089"/>
<path d="M710.97 129.366C710.35 130.037 709.426 130.711 708.054 131.075C704.653 131.97 701.143 124.347 700.795 123.215C700.551 122.433 702.677 121.208 704.008 120.528C706.172 121.873 708.319 124.993 710.97 129.369V129.366Z" fill="#FFB0A1"/>
<path d="M705.402 245.771L705.795 245.255C705.76 245.229 702.281 242.514 700.864 236.157C699.551 230.262 699.788 219.946 708.379 204.267L707.813 203.957C703.008 212.728 697.792 225.468 700.247 236.357C701.727 242.923 705.254 245.66 705.406 245.771H705.402Z" fill="#E87765"/>
<path d="M428.572 361.481C428.572 361.481 437.311 321.398 436.745 317.342C436.179 313.285 435.442 291.201 436.4 281.281C437.359 271.36 453.448 272.148 453.762 282.303C454.075 292.457 468.969 292.584 473.934 284.723C478.9 276.863 492.491 250.849 485.957 243.492C479.422 236.135 456.836 240.815 456.02 231.005C455.204 221.196 495.496 218.044 507.467 238.698C507.467 238.698 513.237 186.211 521.485 189.059C529.734 191.903 523.399 252.188 523.399 252.188C523.399 252.188 536.272 199.261 541.627 201.134C546.985 203.004 540.776 248.384 534.317 264.307C534.317 264.307 550.676 230.464 555.876 233.186C561.075 235.904 542.955 288.736 532.647 301.751C522.339 314.766 484.676 338.074 481.785 348.953C478.894 359.829 473.201 379.847 473.201 379.847L428.566 361.478L428.572 361.481Z" fill="#FFA089"/>
<path d="M481.209 235.43C504.257 212.371 504.257 174.985 481.209 151.925C458.16 128.866 420.791 128.866 397.742 151.925C374.694 174.985 374.694 212.371 397.742 235.43C420.791 258.489 458.16 258.489 481.209 235.43Z" fill="#8089DD"/>
<path d="M445.673 226.546C451.276 222.419 452.473 214.529 448.347 208.924C444.221 203.319 436.335 202.122 430.732 206.249C425.13 210.377 423.933 218.267 428.059 223.872C432.185 229.477 440.071 230.674 445.673 226.546Z" fill="white"/>
<path d="M427.005 178.112C428.055 174.243 425.771 170.255 421.904 169.205C418.037 168.154 414.051 170.439 413.001 174.308C411.951 178.177 414.235 182.165 418.102 183.216C421.969 184.266 425.955 181.981 427.005 178.112Z" fill="white"/>
<path d="M469.542 188.928C472.768 186.55 473.458 182.006 471.081 178.778C468.705 175.55 464.163 174.86 460.937 177.238C457.71 179.615 457.021 184.159 459.397 187.387C461.773 190.615 466.315 191.305 469.542 188.928Z" fill="white"/>
<path d="M428.573 361.481C428.573 361.481 437.312 321.398 436.745 317.341C436.179 313.285 435.442 291.201 436.401 281.28C437.359 271.36 439.56 241.527 446.898 242.185C454.236 242.843 453.449 272.148 453.762 282.302C454.075 292.457 484.679 338.077 481.788 348.953C478.897 359.829 473.204 379.847 473.204 379.847L428.569 361.478L428.573 361.481Z" fill="#FFA089"/>
<path d="M414.83 354.08C417.313 348.127 416.13 343.58 416.13 343.58C416.13 343.58 398.307 321.082 409.33 304.912C417.218 293.334 426.267 294.818 434.456 305.497H434.459C434.968 306.162 435.528 306.75 436.148 307.269C439.203 309.848 443.638 310.741 449.707 310.386C461.129 309.715 465.686 311.487 468.432 314.329C468.432 314.329 468.438 314.332 468.438 314.335C471.848 317.864 472.461 323.044 479.983 327.221C481.415 328.015 482.893 328.414 484.401 328.591C489.424 329.176 494.81 327.312 500.19 329.569C502.278 330.445 504.372 331.942 506.434 334.448C516.732 346.941 481.634 367.297 481.634 367.297C481.634 367.297 488.118 385.619 488.64 392.023C491.67 429.084 471.876 539.812 471.876 539.812C447.497 536.96 450.261 552.586 423.054 553.225C421.963 553.254 368.215 531.382 367.118 531.432C388.097 419.813 395.344 400.795 414.824 354.086L414.83 354.08Z" fill="#FF6760"/>
<path d="M427.048 347.112C428.341 345.957 430.324 346.071 431.479 347.366C432.633 348.66 432.52 350.644 431.226 351.799C429.932 352.954 427.949 352.84 426.795 351.546C425.64 350.251 425.754 348.267 427.048 347.112Z" fill="white"/>
<path d="M466.171 371.49C467.464 370.335 469.447 370.449 470.602 371.743C471.756 373.038 471.642 375.022 470.349 376.177C469.055 377.332 467.072 377.218 465.918 375.923C464.763 374.629 464.877 372.645 466.171 371.49Z" fill="white"/>
<path d="M449.422 384.274C450.716 383.119 452.699 383.233 453.853 384.527C455.008 385.821 454.894 387.805 453.6 388.96C452.307 390.115 450.324 390.002 449.169 388.707C448.015 387.413 448.129 385.429 449.422 384.274Z" fill="white"/>
<path d="M433.115 371.221C434.408 370.066 436.391 370.18 437.546 371.474C438.7 372.769 438.586 374.753 437.293 375.908C435.999 377.063 434.016 376.949 432.862 375.655C431.707 374.36 431.821 372.376 433.115 371.221Z" fill="white"/>
<path d="M448.866 353.58C450.159 352.425 452.142 352.539 453.297 353.833C454.451 355.127 454.337 357.111 453.044 358.266C451.75 359.421 449.767 359.307 448.613 358.013C447.458 356.719 447.572 354.735 448.866 353.58Z" fill="white"/>
<path d="M458.319 322.765C459.613 321.61 461.596 321.724 462.75 323.018C463.905 324.313 463.791 326.297 462.497 327.452C461.204 328.607 459.221 328.493 458.066 327.199C456.912 325.904 457.026 323.92 458.319 322.765Z" fill="white"/>
<path d="M418.758 314.491C420.052 313.336 422.035 313.45 423.189 314.744C424.344 316.038 424.23 318.022 422.936 319.177C421.643 320.332 419.659 320.218 418.505 318.924C417.35 317.63 417.464 315.646 418.758 314.491Z" fill="white"/>
<path d="M437.574 329.594C438.868 328.439 440.851 328.553 442.006 329.847C443.16 331.141 443.046 333.125 441.753 334.28C440.459 335.435 438.476 335.321 437.321 334.027C436.167 332.733 436.281 330.749 437.574 329.594Z" fill="white"/>
<path d="M469.124 342.454C470.418 341.299 472.401 341.413 473.556 342.707C474.71 344.001 474.596 345.985 473.303 347.14C472.009 348.295 470.026 348.181 468.871 346.887C467.717 345.593 467.831 343.609 469.124 342.454Z" fill="white"/>
<path d="M491.33 339.245C492.624 338.09 494.607 338.204 495.762 339.498C496.916 340.792 496.802 342.776 495.509 343.931C494.215 345.086 492.232 344.972 491.077 343.678C489.923 342.384 490.037 340.4 491.33 339.245Z" fill="white"/>
<path d="M411.142 430.654C412.436 429.499 414.419 429.613 415.574 430.908C416.728 432.202 416.614 434.186 415.321 435.341C414.027 436.496 412.044 436.382 410.889 435.088C409.735 433.793 409.849 431.809 411.142 430.654Z" fill="white"/>
<path d="M432.963 437.126C434.256 435.971 436.239 436.085 437.394 437.379C438.548 438.673 438.434 440.657 437.141 441.812C435.847 442.967 433.864 442.853 432.709 441.559C431.555 440.265 431.669 438.281 432.963 437.126Z" fill="white"/>
<path d="M442.416 406.311C443.71 405.156 445.693 405.27 446.847 406.564C448.002 407.858 447.888 409.842 446.594 410.997C445.3 412.152 443.317 412.038 442.163 410.744C441.008 409.45 441.122 407.466 442.416 406.311Z" fill="white"/>
<path d="M402.855 398.036C404.149 396.881 406.132 396.995 407.286 398.289C408.441 399.583 408.327 401.567 407.033 402.722C405.74 403.877 403.757 403.763 402.602 402.469C401.448 401.175 401.561 399.191 402.855 398.036Z" fill="white"/>
<path d="M453.221 425.996C454.514 424.841 456.498 424.955 457.652 426.249C458.806 427.544 458.693 429.528 457.399 430.683C456.105 431.838 454.122 431.724 452.968 430.43C451.813 429.135 451.927 427.151 453.221 425.996Z" fill="white"/>
<path d="M475.427 422.79C476.721 421.635 478.704 421.749 479.859 423.044C481.013 424.338 480.899 426.322 479.606 427.477C478.312 428.632 476.329 428.518 475.174 427.224C474.02 425.929 474.134 423.945 475.427 422.79Z" fill="white"/>
<path d="M422.437 387.739C423.731 386.584 425.714 386.698 426.869 387.992C428.023 389.286 427.909 391.27 426.616 392.425C425.322 393.58 423.339 393.466 422.184 392.172C421.03 390.878 421.144 388.894 422.437 387.739Z" fill="white"/>
<path d="M471.873 398.422C473.167 397.267 475.15 397.381 476.304 398.675C477.459 399.969 477.345 401.953 476.051 403.108C474.757 404.263 472.774 404.15 471.62 402.855C470.465 401.561 470.579 399.577 471.873 398.422Z" fill="white"/>
</g>
</svg>
