<svg width="482" height="583" viewBox="0 0 482 583" fill="none" xmlns="http://www.w3.org/2000/svg">
<path d="M241 89.3341C219.619 45.6607 176.522 13.5296 125.205 9.15026C53.9243 3.07918 11.3307 53.3036 65.8265 129.12C120.322 204.925 81.5441 240.907 21.8051 372.671C-37.9338 504.435 47.6852 561.499 47.6852 561.499H434.315C434.315 561.499 519.934 504.423 460.195 372.671C460.195 372.671 427.308 317.192 450.584 271.371C473.861 225.55 484.683 144.85 391.769 133.331C298.855 121.813 253.394 257.645 253.394 257.645L241.012 89.3341H241Z" fill="#FADBE0"/>
<path d="M334.106 251.657C310.709 189.675 259.045 184 259.045 184H221.263C221.263 184 169.611 189.675 146.202 251.657C122.806 313.64 117.191 483.15 117.191 483.15H363.105C363.105 483.15 357.502 313.64 334.094 251.657H334.106Z" fill="#FF647D"/>
<path d="M362.458 467.421C360.73 430.418 355.199 336.544 341.821 278.317C312.713 256.937 273.899 282.805 250.478 384.381C247.623 396.751 230.034 396.727 227.178 384.345C204.585 286.392 167.679 258.856 138.967 276.206C123.19 342.88 118.102 459.286 117.299 479.947C117.479 481.015 117.671 482.082 117.863 483.138H359.794C360.694 478.015 361.594 472.772 362.458 467.409V467.421Z" fill="#D04B61"/>
<path d="M212.192 186.052C134.828 178.973 93.3384 273.146 73.6614 297.431C58.7476 315.836 110.616 327.882 129.549 329.598C157.865 203.245 212.192 186.052 212.192 186.052Z" fill="#D04B61"/>
<path d="M240.16 222.502C258.301 222.502 271.751 206.004 268.5 188.163C268.368 187.455 268.248 186.759 268.128 186.051C262.561 184.395 259.045 184 259.045 184H221.263C221.263 184 217.76 184.395 212.18 186.051C212.06 186.759 211.94 187.455 211.808 188.163C208.557 206.004 222.007 222.502 240.148 222.502H240.16Z" fill="white"/>
<path d="M206.289 208.212C208.797 224.445 222.631 237.391 240.16 237.391C257.618 237.391 271.427 224.529 273.995 208.368" stroke="white" stroke-width="2" stroke-miterlimit="10" stroke-linecap="round"/>
<path d="M257.138 153.224H223.195C223.195 153.224 223.771 170.729 220.567 188.283C218.323 200.617 227.622 212.027 240.16 212.027C252.698 212.027 262.009 200.617 259.753 188.283C256.562 170.741 257.126 153.224 257.126 153.224H257.138Z" fill="#FFB88C"/>
<path d="M223.051 164.61C227.802 167.19 233.453 168.714 240.16 168.714C246.867 168.714 252.506 167.19 257.27 164.61C257.114 160.843 257.09 157.783 257.102 155.78C257.102 154.172 257.138 153.212 257.138 153.212H223.195C223.195 153.212 223.231 154.16 223.231 155.744C223.231 157.747 223.219 160.819 223.063 164.598L223.051 164.61Z" fill="#F47160"/>
<path d="M281.59 99.8327C281.59 99.8327 283.702 94.7214 289.965 95.8852C295.568 96.9171 296.864 105.484 294.656 110.955C292.448 116.426 285.489 121.705 279.79 117.698L281.578 99.8327H281.59Z" fill="#FFB88C"/>
<path d="M284.746 103.312C284.746 103.312 285.67 100.289 289.089 101.332C293.24 102.592 293.12 114.219 283.63 112.875" stroke="#F47160" stroke-width="2" stroke-miterlimit="10" stroke-linecap="round"/>
<path d="M198.73 99.8327C198.73 99.8327 196.619 94.7214 190.356 95.8852C184.752 96.9171 183.457 105.484 185.664 110.955C187.872 116.426 194.831 121.705 200.53 117.698L198.742 99.8327H198.73Z" fill="#FFB88C"/>
<path d="M195.563 103.312C195.563 103.312 194.639 100.289 191.22 101.332C187.068 102.592 187.188 114.219 196.679 112.875" stroke="#F47160" stroke-width="2" stroke-miterlimit="10" stroke-linecap="round"/>
<path d="M197.675 98.4042C197.675 95.7526 197.807 93.245 198.046 90.8574C203.266 39.9011 277.055 39.9011 282.262 90.8574C282.502 93.245 282.634 95.7526 282.634 98.4042C282.634 98.4042 283.474 161.971 240.148 161.971C196.823 161.971 197.663 98.4042 197.663 98.4042H197.675Z" fill="#F47160"/>
<path d="M282.646 98.405C282.646 95.7534 282.514 93.2458 282.274 90.8582C281.266 81.0437 277.714 73.1368 272.603 67.1018C267.492 64.1622 262.333 61.8586 262.333 61.8586L243.856 59.6989L243.916 59.3149L242.068 59.4949L240.52 59.3149V59.6509L217.976 61.8586C217.976 61.8586 212.828 64.1742 207.705 67.1018C202.594 73.1368 199.042 81.0437 198.035 90.8582C197.795 93.2458 197.663 95.7534 197.663 98.405C197.663 98.405 197.615 101.741 198.071 106.864L200.71 107.524C200.71 107.524 214.88 87.1747 218.875 77.2282C218.875 77.2282 226.998 84.4511 240.148 84.4511C253.298 84.4511 261.421 77.2282 261.421 77.2282C265.416 87.1747 279.586 107.524 279.586 107.524L282.226 106.864C282.682 101.729 282.634 98.405 282.634 98.405H282.646Z" fill="#FFB88C"/>
<path d="M215.12 94.3734C215.12 94.3734 223.231 95.8012 226.926 89.0942" stroke="#722E21" stroke-width="2" stroke-miterlimit="10" stroke-linecap="round"/>
<path d="M226.926 101.668C226.926 105.171 224.923 108.003 222.451 108.003C219.979 108.003 217.976 105.159 217.976 101.668" stroke="#722E21" stroke-width="2" stroke-miterlimit="10" stroke-linecap="round"/>
<path d="M265.201 94.3734C265.201 94.3734 257.09 95.8012 253.394 89.0942" stroke="#722E21" stroke-width="2" stroke-miterlimit="10" stroke-linecap="round"/>
<path d="M253.382 101.668C253.382 105.171 255.386 108.003 257.857 108.003C260.329 108.003 262.333 105.159 262.333 101.668" stroke="#722E21" stroke-width="2" stroke-miterlimit="10" stroke-linecap="round"/>
<path d="M241.324 103.588C241.324 103.588 243.172 112.227 235.265 115.478C228.222 118.37 234.917 123.541 242.464 123.229" stroke="#F47160" stroke-width="2" stroke-miterlimit="10" stroke-linecap="round"/>
<path d="M268.128 186.052C345.492 178.973 386.982 273.146 406.659 297.431C421.573 315.836 369.705 327.882 350.771 329.598C322.456 203.245 268.128 186.052 268.128 186.052Z" fill="#D04B61"/>
<path d="M227.862 137.47C227.862 137.47 240.196 128.124 252.53 137.47" stroke="#F47160" stroke-width="2" stroke-miterlimit="10" stroke-linecap="round"/>
<path d="M264.816 565.734L240.16 483.15C217.7 284.724 150.882 260.056 117.203 321.343C83.5119 382.629 134.444 582.171 134.444 582.171H202.858V565.734H264.816Z" fill="#5F9DB5"/>
<path d="M189.252 561.498C174.05 436.957 168.639 363.324 182.497 356.113C190.776 351.806 200.962 363.204 211.328 387.62" stroke="#367793" stroke-width="2" stroke-miterlimit="10" stroke-linecap="round"/>
<path d="M140.791 570.221H191.843" stroke="#367793" stroke-width="2" stroke-miterlimit="10" stroke-linecap="round"/>
<path d="M202.858 582.171L191.844 398.323L220.219 582.171H202.858Z" fill="#367793"/>
<path d="M274.835 582.171V565.734H265.536C250.059 565.734 237.521 553.196 237.521 537.718V483.15C259.981 284.724 326.799 260.056 360.478 321.343C394.169 382.629 343.237 582.171 343.237 582.171H274.835Z" fill="#5F9DB5"/>
<path d="M238.84 472.1V516.553" stroke="#367793" stroke-width="2" stroke-miterlimit="10" stroke-linecap="round"/>
<path d="M206.205 491.381C206.205 491.381 212.744 528.815 237.521 528.815C262.297 528.815 269.628 503.367 269.628 503.367L274.139 565.986L254.942 575.788L227.982 574.156C227.982 574.156 213.272 570.893 212.048 570.893C210.825 570.893 206.205 567.221 206.205 567.221V491.393V491.381Z" fill="#367793"/>
<path d="M288.429 561.498C303.63 436.957 309.042 363.324 295.184 356.113C286.905 351.806 276.718 363.204 266.352 387.62" stroke="#367793" stroke-width="2" stroke-miterlimit="10" stroke-linecap="round"/>
<path d="M335.102 570.221H284.062" stroke="#367793" stroke-width="2" stroke-miterlimit="10" stroke-linecap="round"/>
<path d="M265.536 565.734C263.665 565.734 261.841 565.542 260.077 565.194L285.837 398.323L274.835 581.967V565.734H265.536Z" fill="#367793"/>
<path d="M199.918 130.308C199.918 130.308 16.406 288.073 52.2206 327.846C74.8731 352.995 93.6983 336.905 142.879 272.871C198.322 200.702 219.559 159.14 219.559 159.14L199.918 130.296V130.308Z" fill="#FFB88C"/>
<path d="M193.715 144.742L199.919 130.308C199.919 130.308 196.211 121.753 194.063 112.911C191.916 104.068 198.539 104.896 200.722 107.535C202.486 109.659 205.282 117.302 205.282 117.302C205.282 117.302 211.101 92.0458 218.06 86.0947C225.019 80.1436 223.075 92.3698 223.075 92.3698C223.075 92.3698 229.782 86.6346 233.837 88.5543C237.893 90.474 233.094 97.8529 233.094 97.8529C233.094 97.8529 239.933 90.822 241.684 94.9614C243.436 99.1007 239.153 105.508 239.153 105.508C239.153 105.508 245.56 97.253 246.22 104.212C246.867 111.171 236.465 128.208 236.465 128.208L215.372 166.83L193.739 144.742H193.715Z" fill="#FFB88C"/>
<path d="M223.063 92.3701L214.712 116.954" stroke="#F47160" stroke-width="2" stroke-miterlimit="10" stroke-linecap="round"/>
<path d="M233.082 97.853L221.587 121.825" stroke="#F47160" stroke-width="2" stroke-miterlimit="10" stroke-linecap="round"/>
<path d="M228.366 126.048L239.141 105.496" stroke="#F47160" stroke-width="2" stroke-miterlimit="10" stroke-linecap="round"/>
<path d="M277.762 130.308C277.762 130.308 461.275 288.085 425.46 327.846C402.807 352.995 383.982 336.905 334.802 272.871C279.358 200.702 258.121 159.14 258.121 159.14L277.762 130.296V130.308Z" fill="#FFB88C"/>
<path d="M283.966 144.742L277.763 130.308C277.763 130.308 281.47 121.753 283.618 112.911C285.765 104.068 279.142 104.896 276.959 107.535C275.195 109.659 272.399 117.302 272.399 117.302C272.399 117.302 266.58 92.0458 259.621 86.0947C252.662 80.1436 254.606 92.3698 254.606 92.3698C254.606 92.3698 247.899 86.6346 243.844 88.5543C239.788 90.474 244.588 97.8529 244.588 97.8529C244.588 97.8529 237.749 90.822 235.997 94.9614C234.245 99.1007 238.529 105.508 238.529 105.508C238.529 105.508 232.122 97.253 231.462 104.212C230.814 111.171 241.216 128.208 241.216 128.208L262.309 166.83L283.942 144.742H283.966Z" fill="#FFB88C"/>
<path d="M254.618 92.3701L262.969 116.954" stroke="#F47160" stroke-width="2" stroke-miterlimit="10" stroke-linecap="round"/>
<path d="M244.588 97.853L256.094 121.825" stroke="#F47160" stroke-width="2" stroke-miterlimit="10" stroke-linecap="round"/>
<path d="M249.315 126.048L238.541 105.496" stroke="#F47160" stroke-width="2" stroke-miterlimit="10" stroke-linecap="round"/>
<path d="M239.801 31.551C239.801 31.551 181.441 27.5916 190.356 95.8853C190.356 95.8853 194.951 95.0814 197.687 98.4169C197.687 98.4169 214.196 88.5424 217.1 69.6813C217.1 69.6813 225.427 74.2406 239.813 74.2406C254.198 74.2406 262.525 69.6813 262.525 69.6813C265.429 88.5424 282.67 98.4169 282.67 98.4169C285.394 95.0814 289.269 95.8853 289.269 95.8853C298.184 27.5916 239.825 31.551 239.825 31.551H239.801Z" fill="#938986"/>
<path d="M289.173 70.065C289.232 70.9889 289.592 80.0835 280.738 81.1753C271.415 82.3152 264.468 60.3345 264.468 60.3345C264.468 60.3345 253.274 67.1854 239.8 67.1854C226.326 67.1854 215.132 60.3345 215.132 60.3345C215.132 60.3345 208.185 82.3152 198.862 81.1753C190.008 80.0955 190.367 70.9889 190.427 70.065C189.828 73.6165 189.48 77.4919 189.444 81.7272C189.444 81.8952 189.444 82.0632 189.444 82.2312C189.444 83.059 189.444 83.8989 189.48 84.7628C189.48 85.0627 189.492 85.3507 189.504 85.6506C189.528 86.4065 189.564 87.1744 189.612 87.9543C189.636 88.3022 189.648 88.6502 189.672 88.9981C189.72 89.778 189.792 90.5819 189.864 91.3858C189.9 91.7217 189.924 92.0457 189.96 92.3936C190.08 93.5335 190.199 94.6853 190.355 95.8611C190.355 95.8611 194.951 95.0572 197.686 98.3927C197.686 98.3927 214.196 88.5182 217.099 69.6571C217.099 69.6571 225.414 74.2164 239.788 74.2164C239.788 74.2164 239.788 74.2164 239.8 74.2044C239.8 74.2044 239.8 74.2044 239.812 74.2164C254.186 74.2164 262.501 69.6571 262.501 69.6571C265.404 88.5182 282.645 98.3927 282.645 98.3927C285.369 95.0572 289.244 95.8611 289.244 95.8611C289.4 94.6853 289.532 93.5215 289.64 92.3936C289.676 92.0577 289.7 91.7217 289.736 91.3858C289.808 90.5819 289.88 89.778 289.928 88.9981C289.952 88.6502 289.976 88.3022 289.988 87.9543C290.036 87.1744 290.072 86.4065 290.096 85.6506C290.096 85.3507 290.12 85.0507 290.12 84.7628C290.144 83.9109 290.156 83.059 290.156 82.2312C290.156 82.0632 290.156 81.8952 290.156 81.7272C290.12 77.4919 289.784 73.6165 289.173 70.065Z" fill="#766F6D"/>
<path d="M78.8808 324.967C51.9689 332.094 48.0935 319.604 48.0935 319.604L48.3695 320.732C49.1013 323.395 50.3612 325.783 52.2209 327.846C74.8735 352.995 93.6986 336.905 142.879 272.871C146.443 268.239 149.85 263.74 153.138 259.361C152.49 260.165 105.613 317.888 78.8808 324.955V324.967Z" fill="#F47160"/>
<path d="M252.015 160.135L239.788 136.247L226.806 159.608C230.706 161.119 235.133 161.983 240.16 161.983C244.552 161.983 248.487 161.323 252.015 160.147V160.135Z" fill="#FFB88C"/>
<path d="M298.855 121.789C346.176 119.929 373.772 97.1689 366.669 72.6206C359.566 48.0603 307.53 92.4416 315.809 98.2488C324.088 104.056 374.552 61.8583 342.625 42.9371C310.686 24.016 288.789 80.5754 302.995 74.8643C317.201 69.1532 328.827 26.3676 306.354 17.6929C283.882 9.01825 276.803 46.4766 290.397 42.5292C303.991 38.5818 302.407 10.986 283.882 9.01825C265.357 7.05055 261.109 24.196 267.372 24.1C273.635 24.004 276.959 1.13545 257.546 1.92733C238.145 2.71921 238.937 17.6929 244.648 19.2767C250.359 20.8605 252.339 2.71921 238.145 2.71921C223.951 2.71921 225.919 20.8605 231.642 19.2767C237.365 17.6929 238.145 2.71921 218.744 1.92733C199.343 1.13545 202.666 24.004 208.917 24.1C215.168 24.196 210.945 7.05055 192.408 9.01825C173.882 10.986 172.299 38.5938 185.893 42.5292C199.487 46.4766 192.408 9.01825 169.935 17.6929C147.462 26.3676 159.101 69.1532 173.294 74.8643C187.5 80.5754 165.7 34.3824 133.664 42.9371C97.8019 52.5117 152.19 104.056 160.48 98.2488C168.771 92.4416 116.711 48.0603 109.62 72.6206C102.529 97.1809 130.125 119.929 177.434 121.789" stroke="#8C4433" stroke-width="2" stroke-miterlimit="10"/>
<path d="M86.7993 118.646L143.935 170.526L105.337 101.956L86.7993 118.646Z" fill="#E64A18"/>
<path d="M41.2903 149.948L134.18 170.393L50.8768 120.733L41.2903 149.948Z" fill="#FF647D"/>
<path d="M392.261 115.406L344.112 178.205L370.496 101.956L392.261 115.406Z" fill="#5F9DB5"/>
<path d="M443.901 138.658L353.915 176.285L428.879 110.931L443.901 138.658Z" fill="#FFB43A"/>
</svg>
