<svg width="910" height="498" viewBox="0 0 910 498" fill="none" xmlns="http://www.w3.org/2000/svg">
<path d="M577.916 97.4053H301.686V426.029H577.916V97.4053Z" fill="#10122D"/>
<path d="M577.916 88H301.686V416.624H577.916V88Z" fill="#2C4967"/>
<path d="M553.513 111.104H326.089V393.52H553.513V111.104Z" fill="#7D8B92"/>
<path d="M553.513 111.104H329.307V393.52H553.513V111.104Z" fill="#10122D"/>
<path d="M455.42 111.104H431.017V393.52H455.42V111.104Z" fill="#7D8B92"/>
<path d="M553.513 261.727V237.345H326.089V261.727H553.513Z" fill="#7D8B92"/>
<path d="M452.002 111.104H427.599V393.52H452.002V111.104Z" fill="#2C4967"/>
<path d="M553.513 264.503V240.121H326.089V264.503H553.513Z" fill="#2C4967"/>
<path d="M517.897 189.82C502.308 189.82 489.677 177.2 489.677 161.624C489.677 149.983 496.732 139.998 506.805 135.705C506.725 135.705 506.665 135.705 506.605 135.705C486.978 135.705 471.049 151.6 471.049 171.229C471.049 190.858 486.958 206.753 506.605 206.753C524.393 206.753 539.123 193.694 541.741 176.661C536.744 184.568 527.95 189.84 517.897 189.84V189.82Z" fill="#FFC609"/>
<path d="M475.726 217.217L475.386 216.738C473.668 214.222 470.29 217.556 472.828 219.294L473.308 219.633C474.747 220.611 476.705 218.655 475.726 217.217Z" fill="white"/>
<path d="M526.711 128.776C526.511 128.716 526.311 128.656 526.111 128.596C524.173 127.977 524.153 131.552 526.111 130.933C526.311 130.873 526.511 130.813 526.711 130.753C527.67 130.453 527.67 129.095 526.711 128.796V128.776Z" fill="white"/>
<path d="M404.495 192.017C404.335 191.937 404.155 191.857 403.995 191.777C402.816 191.238 401.357 191.877 401.357 193.295C401.357 194.712 402.836 195.351 403.995 194.812C404.155 194.732 404.335 194.653 404.495 194.573C405.474 194.113 405.474 192.456 404.495 192.017Z" fill="white"/>
<path d="M549.575 167.794C547.317 167.794 547.317 171.309 549.575 171.309C551.834 171.309 551.834 167.794 549.575 167.794Z" fill="white"/>
<path d="M413.389 131.931C412.03 131.931 411.41 133.329 411.93 134.447C412.01 134.607 412.09 134.787 412.17 134.946C412.609 135.865 414.168 135.865 414.588 134.946C414.668 134.787 414.748 134.607 414.828 134.447C415.348 133.329 414.748 131.931 413.369 131.931H413.389Z" fill="white"/>
<path d="M390.265 157.99C388.606 157.99 388.606 160.566 390.265 160.566C391.924 160.566 391.924 157.99 390.265 157.99Z" fill="white"/>
<path d="M350.432 136.145C347.914 136.145 347.914 140.038 350.432 140.038C352.95 140.038 352.95 136.145 350.432 136.145Z" fill="white"/>
<path d="M367.56 176.401C366.281 177.719 368.719 179.416 369.459 177.859C370.019 176.681 368.58 175.343 367.56 176.401Z" fill="white"/>
<path d="M349.793 204.237C346.535 204.237 346.515 209.309 349.793 209.309C353.07 209.309 353.07 204.237 349.793 204.237Z" fill="white"/>
<path d="M383.19 219.893C381.071 219.893 381.071 223.167 383.19 223.167C385.308 223.167 385.308 219.893 383.19 219.893Z" fill="white"/>
<path d="M375.475 294.715C373.017 294.715 373.017 298.529 375.475 298.529C377.933 298.529 377.933 294.715 375.475 294.715Z" fill="white"/>
<path d="M357.487 318.418C355.788 318.418 355.768 321.074 357.487 321.074C359.206 321.074 359.206 318.418 357.487 318.418Z" fill="white"/>
<path d="M408.252 373.891C406.893 373.891 406.893 375.987 408.252 375.987C409.612 375.987 409.612 373.891 408.252 373.891Z" fill="white"/>
<path d="M365.842 381.838C363.983 381.838 363.983 384.734 365.842 384.734C367.7 384.734 367.7 381.838 365.842 381.838Z" fill="white"/>
<path d="M412.749 317.379C410.531 317.379 410.531 320.814 412.749 320.814C414.968 320.814 414.968 317.379 412.749 317.379Z" fill="white"/>
<path d="M486.619 316.96C486.199 316.92 485.759 316.86 485.34 316.821C484.06 316.681 483.341 318.298 483.921 319.277C484.54 320.335 486.119 320.335 486.759 319.277C486.958 318.937 487.158 318.578 487.378 318.238C487.738 317.639 487.258 317.02 486.639 316.94L486.619 316.96Z" fill="white"/>
<path d="M525.172 288.425C522.854 288.425 522.854 292.019 525.172 292.019C527.491 292.019 527.491 288.425 525.172 288.425Z" fill="white"/>
<path d="M536.085 333.914C533.666 333.914 533.666 337.668 536.085 337.668C538.503 337.668 538.503 333.914 536.085 333.914Z" fill="white"/>
<path d="M510.942 375.069C510.942 374.969 510.922 374.869 510.902 374.749C510.662 372.972 507.544 372.972 507.305 374.749C507.305 374.849 507.285 374.949 507.265 375.069C507.105 376.267 507.744 377.485 509.103 377.485C510.462 377.485 511.102 376.267 510.942 375.069Z" fill="white"/>
<path d="M485.34 346.833C483.021 346.833 483.021 350.427 485.34 350.427C487.658 350.427 487.658 346.833 485.34 346.833Z" fill="white"/>
<path d="M226.978 246.508C233.495 205.902 205.831 167.706 165.189 161.194C124.547 154.683 86.3172 182.322 79.8002 222.928C73.2831 263.534 100.947 301.731 141.589 308.242C182.231 314.753 220.461 287.114 226.978 246.508Z" fill="#10122D"/>
<path d="M162.808 301.485C203.969 301.485 237.337 268.146 237.337 227.022C237.337 185.897 203.969 152.559 162.808 152.559C121.647 152.559 88.2791 185.897 88.2791 227.022C88.2791 268.146 121.647 301.485 162.808 301.485Z" fill="#2C4967"/>
<path d="M162.808 288.005C196.518 288.005 223.846 260.702 223.846 227.021C223.846 193.341 196.518 166.037 162.808 166.037C129.097 166.037 101.77 193.341 101.77 227.021C101.77 260.702 129.097 288.005 162.808 288.005Z" fill="#10122D"/>
<path d="M193.007 193.893C186.552 199.305 179.996 204.576 173.621 210.088C169.763 213.423 165.026 217.336 162.308 221.989C160.789 219.233 158.631 216.638 157.132 214.082C154.674 209.888 152.335 205.575 150.177 201.222C149.377 199.604 146.699 200.743 147.259 202.46C148.838 207.312 150.636 212.005 152.875 216.578C154.873 220.671 156.772 225.663 160.53 228.379C161.529 229.098 162.628 228.699 163.288 227.88C163.567 227.8 163.827 227.68 164.067 227.481C169.264 222.928 173.401 216.817 178.417 211.905C183.913 206.533 189.45 201.222 194.986 195.91C196.305 194.632 194.366 192.775 193.007 193.933V193.893Z" fill="#7D8B92"/>
<path d="M162.808 234.09C166.715 234.09 169.883 230.926 169.883 227.022C169.883 223.117 166.715 219.953 162.808 219.953C158.9 219.953 155.733 223.117 155.733 227.022C155.733 230.926 158.9 234.09 162.808 234.09Z" fill="#6886A2"/>
<path d="M682.884 274.806C651.785 274.806 682.884 187.943 682.884 187.943C682.884 187.943 721.258 274.806 682.884 274.806Z" fill="#10122D"/>
<path d="M681.225 284.211C654.404 296.213 647.668 209.309 647.668 209.309C647.668 209.309 714.322 269.415 681.225 284.211Z" fill="#10122D"/>
<path d="M683.384 285.03C655.923 274.567 712.684 208.351 712.684 208.351C712.684 208.351 717.261 297.95 683.384 285.03Z" fill="#10122D"/>
<path d="M852.448 336.43H626.183C623.379 336.43 621.106 338.7 621.106 341.502V353.483C621.106 356.284 623.379 358.555 626.183 358.555H852.448C855.251 358.555 857.524 356.284 857.524 353.483V341.502C857.524 338.7 855.251 336.43 852.448 336.43Z" fill="#10122D"/>
<path d="M858.444 328.302H632.179C629.375 328.302 627.102 330.573 627.102 333.374V345.355C627.102 348.157 629.375 350.427 632.179 350.427H858.444C861.247 350.427 863.52 348.157 863.52 345.355V333.374C863.52 330.573 861.247 328.302 858.444 328.302Z" fill="#2C4967"/>
<path d="M839.537 199.705H745.421C742.044 199.705 739.305 202.44 739.305 205.815V322.172C739.305 325.547 742.044 328.283 745.421 328.283H839.537C842.914 328.283 845.652 325.547 845.652 322.172V205.815C845.652 202.44 842.914 199.705 839.537 199.705Z" fill="#7D8B92"/>
<path d="M832.541 206.733H752.396C749.019 206.733 746.281 209.469 746.281 212.844V315.143C746.281 318.518 749.019 321.253 752.396 321.253H832.541C835.919 321.253 838.657 318.518 838.657 315.143V212.844C838.657 209.469 835.919 206.733 832.541 206.733Z" fill="#6A787E"/>
<path d="M829.004 209.309H755.934C752.556 209.309 749.818 212.045 749.818 215.419V312.587C749.818 315.961 752.556 318.697 755.934 318.697H829.004C832.381 318.697 835.12 315.961 835.12 312.587V215.419C835.12 212.045 832.381 209.309 829.004 209.309Z" fill="#10122D"/>
<path d="M713.463 267.518H652.305C647.528 267.518 643.771 271.591 644.151 276.364L647.808 320.814C648.148 325.047 651.706 328.302 655.963 328.302H709.786C714.043 328.302 717.58 325.047 717.94 320.814L721.598 276.364C721.997 271.611 718.24 267.518 713.443 267.518H713.463Z" fill="#7D8B92"/>
<path d="M713.463 267.518H698.054C702.83 267.518 706.588 271.591 706.208 276.364L702.551 320.814C702.211 325.047 698.653 328.302 694.396 328.302H709.806C714.063 328.302 717.6 325.047 717.96 320.814L721.618 276.364C722.017 271.611 718.26 267.518 713.463 267.518Z" fill="#6A787E"/>
<path d="M759.971 286.309H825.486L807.838 240.121L781.816 272.251L773.142 261.727L759.971 286.309Z" fill="#152C43"/>
<path d="M884.484 284.899C904.605 352.241 898.528 420.329 836.373 454.803C818.907 464.497 799.198 470.304 779.747 473.664C632.018 499.214 487.55 445.873 360.712 466.701C235.405 487.31 69.1402 518.876 18.543 405.633C-13.2913 334.387 46.0911 282.762 29.8649 190.861C13.6353 98.9556 27.6492 32.7562 99.5728 22.6632C204.496 7.93942 298.83 66.8243 410.941 29.4707C523.059 -7.88286 589.443 50.7417 641.074 49.0855C692.705 47.4258 866.778 -11.5232 896.282 74.7574C925.786 161.041 859.402 200.96 884.484 284.899Z" fill="#564E6B" fill-opacity="0.15"/>
</svg>
