<svg width="844" height="698" viewBox="0 0 844 698" fill="none" xmlns="http://www.w3.org/2000/svg">
<path d="M843.789 644.319H773.906V644.846H843.789V644.319Z" fill="#EBEBEB"/>
<path d="M593.374 650.054H575.038V650.581H593.374V650.054Z" fill="#EBEBEB"/>
<path d="M771.796 624.753H731.305V625.28H771.796V624.753Z" fill="#EBEBEB"/>
<path d="M96.3213 628.295H5.19043V628.822H96.3213V628.295Z" fill="#EBEBEB"/>
<path d="M128.478 628.295H115.121V628.822H128.478V628.295Z" fill="#EBEBEB"/>
<path d="M369.566 637.193H171.902V637.72H369.566V637.193Z" fill="#EBEBEB"/>
<path d="M786.502 381.398C777.514 408.829 747.953 423.778 720.502 414.775C693.05 405.793 713.855 393.058 722.844 365.627C731.832 338.196 725.629 306.464 753.08 315.446C780.531 324.428 795.491 353.967 786.481 381.398H786.502Z" fill="#F0F0F0"/>
<path d="M72.9637 157.251C87.1218 114.112 133.584 90.603 176.776 104.751C219.946 118.898 187.241 138.907 173.083 182.046C158.925 225.184 168.694 275.112 125.524 260.964C82.3532 246.817 58.8267 200.389 72.9848 157.229L72.9637 157.251Z" fill="#F5F5F5"/>
<path d="M514.228 65.154C514.228 47.0848 528.893 39.1992 546.975 39.1992C565.058 39.1992 579.722 47.0848 579.722 65.154C579.722 83.2233 565.058 97.8769 546.975 97.8769C528.893 97.8769 514.228 83.2233 514.228 65.154Z" fill="#EBEBEB"/>
<path d="M546.975 79.6386C538.05 79.6386 530.517 73.7772 527.964 65.7019C527.648 64.7109 526.192 64.9428 526.192 65.9971C526.192 66.0603 526.192 66.1025 526.192 66.1657C526.086 76.0965 533.197 84.9519 542.945 86.7862C556.196 89.2742 567.759 79.1748 567.759 66.3977C567.759 64.3103 567.442 62.4338 566.873 60.7471C566.324 71.2682 557.652 79.6386 546.975 79.6386Z" fill="#E0E0E0"/>
<path d="M530.433 49.9943C528.639 50.4793 527.669 47.9913 529.315 47.1058C533.345 44.9341 539.464 42.9521 548.305 42.9521C557.145 42.9521 563.053 45.7985 566.767 48.8979C568.181 50.0787 566.809 52.3136 565.121 51.5124C558.369 48.3076 546.933 45.5034 530.412 49.9943H530.433Z" fill="#F5F5F5"/>
<path d="M235.455 180.105C248.242 167.328 264.172 172.114 276.959 184.891C289.745 197.669 294.535 213.587 281.748 226.364C268.962 239.141 248.242 239.141 235.455 226.364C222.668 213.587 222.668 192.882 235.455 180.105Z" fill="#EBEBEB"/>
<path d="M248.368 213.482C242.059 207.178 240.878 197.711 244.802 190.205C245.288 189.277 244.085 188.434 243.325 189.151C243.283 189.193 243.241 189.235 243.199 189.277C236.109 196.214 234.864 207.494 240.456 215.696C248.073 226.807 263.391 227.861 272.443 218.816C273.92 217.34 275.039 215.78 275.798 214.199C267.97 221.262 255.901 221.051 248.368 213.503V213.482Z" fill="#E0E0E0"/>
<path d="M257.652 180.822C256.027 179.895 257.125 177.449 258.897 177.997C263.286 179.325 269.004 182.235 275.25 188.476C281.558 194.78 283.668 200.916 284.112 205.723C284.28 207.557 281.727 208.169 281.094 206.419C278.583 199.377 272.485 189.298 257.631 180.822H257.652Z" fill="#F5F5F5"/>
<path d="M533.64 512.311C520.853 499.534 525.643 483.615 538.43 470.838C551.216 458.061 567.147 453.275 579.933 466.052C592.72 478.829 592.72 499.534 579.933 512.311C567.147 525.088 546.427 525.088 533.64 512.311Z" fill="#EBEBEB"/>
<path d="M567.041 499.407C560.732 505.711 551.259 506.892 543.747 502.97C542.819 502.485 541.975 503.687 542.692 504.446C542.734 504.488 542.776 504.53 542.819 504.572C549.76 511.657 561.049 512.901 569.257 507.313C580.377 499.702 581.432 484.395 572.38 475.349C570.903 473.874 569.341 472.756 567.759 471.997C574.827 479.819 574.616 491.88 567.062 499.407H567.041Z" fill="#E0E0E0"/>
<path d="M534.357 490.13C533.429 491.754 530.981 490.657 531.53 488.886C532.859 484.501 535.771 478.787 542.017 472.546C548.326 466.242 554.466 464.133 559.276 463.691C561.112 463.522 561.724 466.073 559.973 466.706C552.925 469.215 542.839 475.308 534.357 490.151V490.13Z" fill="#F5F5F5"/>
<path d="M186.334 356.687C205.83 337.205 230.138 344.501 249.613 363.983C269.109 383.464 276.41 407.754 256.913 427.214C237.417 446.696 205.83 446.696 186.334 427.214C166.838 407.733 166.838 376.169 186.334 356.687Z" fill="#F0F0F0"/>
<path d="M205.999 407.564C196.378 397.949 194.584 383.507 200.555 372.079C201.294 370.666 199.458 369.359 198.319 370.476C198.256 370.54 198.192 370.603 198.129 370.666C187.305 381.25 185.406 398.455 193.951 410.937C205.556 427.889 228.914 429.47 242.692 415.681C244.95 413.425 246.638 411.064 247.819 408.618C235.877 419.371 217.499 419.055 205.999 407.564Z" fill="#E6E6E6"/>
<path d="M220.136 357.784C217.667 356.371 219.334 352.661 222.056 353.483C228.745 355.507 237.459 359.935 246.996 369.465C256.534 378.995 259.825 388.441 260.5 395.757C260.754 398.561 256.85 399.468 255.901 396.811C252.082 386.079 242.776 370.73 220.136 357.784Z" fill="#FAFAFA"/>
<path d="M597.636 230.392C584.85 217.615 589.639 201.675 602.426 188.898C615.213 176.121 631.164 171.335 643.951 184.112C656.737 196.889 656.737 217.615 643.951 230.392C631.164 243.169 610.423 243.169 597.636 230.392Z" fill="#F0F0F0"/>
<path d="M631.059 217.489C624.75 223.793 615.276 224.974 607.743 221.052C606.815 220.567 605.971 221.769 606.688 222.528C606.731 222.57 606.773 222.612 606.815 222.654C613.757 229.739 625.066 231.004 633.274 225.395C644.415 217.784 645.449 202.477 636.397 193.432C634.92 191.956 633.359 190.838 631.755 190.079C638.824 197.901 638.613 209.962 631.059 217.51V217.489Z" fill="#E6E6E6"/>
<path d="M598.354 208.212C597.425 209.835 594.978 208.739 595.526 206.968C596.856 202.582 599.768 196.869 606.013 190.607C612.322 184.302 618.462 182.194 623.273 181.751C625.109 181.582 625.721 184.134 623.969 184.766C616.922 187.275 606.836 193.369 598.354 208.212Z" fill="#FAFAFA"/>
<path d="M411.83 697.494C637.774 697.494 820.938 686.808 820.938 673.626C820.938 660.445 637.774 649.759 411.83 649.759C185.886 649.759 2.72192 660.445 2.72192 673.626C2.72192 686.808 185.886 697.494 411.83 697.494Z" fill="#F5F5F5"/>
<path d="M553.897 301.046C551.576 295.458 536.679 283.988 536.679 283.988C536.679 283.988 525.601 228.431 517.562 210.91C515.431 206.293 507.54 192.461 507.54 192.461L497.306 146.94C497.306 146.94 493.002 114.829 485.511 107.07C476.333 97.5817 436.58 91.404 436.58 91.404L433.141 70.2354L422 71.901L410.86 70.2354L407.42 91.404C407.42 91.404 367.668 97.5817 358.489 107.07C350.999 114.808 346.694 146.94 346.694 146.94L336.461 192.461C336.461 192.461 328.57 206.293 326.438 210.91C318.399 228.431 307.322 283.988 307.322 283.988C307.322 283.988 292.446 295.458 290.104 301.046C288.88 303.955 288.311 308.994 290.104 311.588C293.037 315.847 304.326 319.558 309.453 318.904C312.048 318.588 316.606 315.109 317.998 312.895C321.396 307.519 322.261 289.934 322.261 289.934C322.261 289.934 350.134 233.618 357.392 213.988C362.245 200.895 372.563 160.223 372.563 160.223C372.563 160.223 377.775 232.479 376.023 256.6C375.011 270.684 370.812 298.009 369.715 312.073C367.204 344.29 373.069 419.497 371.803 451.799C371.149 468.624 366.613 491.353 366.444 508.199C366.17 538.982 370.263 630.467 370.263 630.467C370.263 630.467 340.744 649.949 339.098 662.642C338.803 665.003 340.808 670.106 342.791 671.434C348.066 674.934 362.836 674.934 368.111 671.434C378.239 664.75 385.202 645.269 387.101 635.232C392.925 604.491 405.353 541.597 405.036 510.308C404.93 500.272 403.58 480.284 403.981 470.247C405.078 442.142 422 359.555 422 359.555C422 359.555 438.923 442.142 440.02 470.247C440.421 480.284 439.07 500.272 438.965 510.308C438.648 541.597 451.076 604.491 456.9 635.232C458.799 645.269 465.762 664.729 475.89 671.434C481.165 674.934 495.935 674.934 501.21 671.434C503.193 670.106 505.198 665.003 504.902 662.642C503.257 649.949 473.738 630.467 473.738 630.467C473.738 630.467 477.831 538.982 477.557 508.199C477.409 491.353 472.873 468.624 472.197 451.799C470.931 419.519 476.797 344.29 474.286 312.073C473.189 297.988 468.99 270.684 467.977 256.6C466.226 232.5 471.438 160.223 471.438 160.223C471.438 160.223 481.777 200.895 486.609 213.988C493.867 233.618 521.74 289.934 521.74 289.934C521.74 289.934 522.605 307.519 526.002 312.895C527.395 315.109 531.952 318.567 534.548 318.904C539.675 319.558 550.964 315.826 553.897 311.588C555.69 308.994 555.12 303.955 553.897 301.046Z" fill="#FF647D"/>
<path opacity="0.7" d="M553.897 301.046C551.576 295.458 536.679 283.988 536.679 283.988C536.679 283.988 525.601 228.431 517.562 210.91C515.431 206.293 507.54 192.461 507.54 192.461L497.306 146.94C497.306 146.94 493.002 114.829 485.511 107.07C476.333 97.5817 436.58 91.404 436.58 91.404L433.141 70.2354L422 71.901L410.86 70.2354L407.42 91.404C407.42 91.404 367.668 97.5817 358.489 107.07C350.999 114.808 346.694 146.94 346.694 146.94L336.461 192.461C336.461 192.461 328.57 206.293 326.438 210.91C318.399 228.431 307.322 283.988 307.322 283.988C307.322 283.988 292.446 295.458 290.104 301.046C288.88 303.955 288.311 308.994 290.104 311.588C293.037 315.847 304.326 319.558 309.453 318.904C312.048 318.588 316.606 315.109 317.998 312.895C321.396 307.519 322.261 289.934 322.261 289.934C322.261 289.934 350.134 233.618 357.392 213.988C362.245 200.895 372.563 160.223 372.563 160.223C372.563 160.223 377.775 232.479 376.023 256.6C375.011 270.684 370.812 298.009 369.715 312.073C367.204 344.29 373.069 419.497 371.803 451.799C371.149 468.624 366.613 491.353 366.444 508.199C366.17 538.982 370.263 630.467 370.263 630.467C370.263 630.467 340.744 649.949 339.098 662.642C338.803 665.003 340.808 670.106 342.791 671.434C348.066 674.934 362.836 674.934 368.111 671.434C378.239 664.75 385.202 645.269 387.101 635.232C392.925 604.491 405.353 541.597 405.036 510.308C404.93 500.272 403.58 480.284 403.981 470.247C405.078 442.142 422 359.555 422 359.555C422 359.555 438.923 442.142 440.02 470.247C440.421 480.284 439.07 500.272 438.965 510.308C438.648 541.597 451.076 604.491 456.9 635.232C458.799 645.269 465.762 664.729 475.89 671.434C481.165 674.934 495.935 674.934 501.21 671.434C503.193 670.106 505.198 665.003 504.902 662.642C503.257 649.949 473.738 630.467 473.738 630.467C473.738 630.467 477.831 538.982 477.557 508.199C477.409 491.353 472.873 468.624 472.197 451.799C470.931 419.519 476.797 344.29 474.286 312.073C473.189 297.988 468.99 270.684 467.977 256.6C466.226 232.5 471.438 160.223 471.438 160.223C471.438 160.223 481.777 200.895 486.609 213.988C493.867 233.618 521.74 289.934 521.74 289.934C521.74 289.934 522.605 307.519 526.002 312.895C527.395 315.109 531.952 318.567 534.548 318.904C539.675 319.558 550.964 315.826 553.897 311.588C555.69 308.994 555.12 303.955 553.897 301.046Z" fill="white"/>
<path opacity="0.2" d="M409.615 77.8257C420.777 85.648 429.618 81.6631 434.386 77.9733L433.141 70.2354L422 71.901L410.86 70.2354L409.636 77.8257H409.615Z" fill="black"/>
<path opacity="0.2" d="M411.26 361.663C412.569 375.515 411.936 382.22 408.095 435.542C413.434 401.301 422 359.554 422 359.554C422 359.554 409.214 340.115 411.26 361.663Z" fill="black"/>
<path opacity="0.2" d="M367.225 156.07C364.06 163.871 366.761 180.97 360.135 205.618C365.326 188.645 372.542 160.223 372.542 160.223C372.542 160.223 370.369 148.247 367.204 156.07H367.225Z" fill="black"/>
<path opacity="0.2" d="M476.671 156.07C472.978 151.431 471.438 160.224 471.438 160.224C471.438 160.224 476.755 181.181 481.566 197.838C481.397 197.227 481.228 196.594 481.017 195.898C475.405 177.808 480.384 160.687 476.692 156.049L476.671 156.07Z" fill="black"/>
<path d="M453.081 44.997C451.351 41.9398 449.135 41.8344 447.932 42.0452C448.27 37.1325 448.629 31.9669 448.776 29.8163C449.768 15.4578 437.825 3.81929 422.085 3.71387C422.064 3.71387 422.022 3.71387 422 3.71387C421.979 3.71387 421.937 3.71387 421.916 3.71387C406.154 3.81929 394.212 15.4578 395.225 29.8163C395.372 31.9669 395.731 37.1325 396.069 42.0452C394.887 41.8344 392.65 41.9187 390.92 44.997C388.072 50.0573 391.996 61.2319 398.537 60.1988C402.335 70.5091 411.598 77.9729 421.916 78.0573C421.937 78.0573 421.979 78.0573 422 78.0573C422.022 78.0573 422.064 78.0573 422.085 78.0573C432.424 77.9518 441.666 70.5091 445.464 60.1777C452.005 61.2109 455.929 50.0572 453.081 44.9759V44.997Z" fill="#FF647D"/>
<path opacity="0.7" d="M453.081 44.997C451.351 41.9398 449.135 41.8344 447.932 42.0452C448.27 37.1325 448.629 31.9669 448.776 29.8163C449.768 15.4578 437.825 3.81929 422.085 3.71387C422.064 3.71387 422.022 3.71387 422 3.71387C421.979 3.71387 421.937 3.71387 421.916 3.71387C406.154 3.81929 394.212 15.4578 395.225 29.8163C395.372 31.9669 395.731 37.1325 396.069 42.0452C394.887 41.8344 392.65 41.9187 390.92 44.997C388.072 50.0573 391.996 61.2319 398.537 60.1988C402.335 70.5091 411.598 77.9729 421.916 78.0573C421.937 78.0573 421.979 78.0573 422 78.0573C422.022 78.0573 422.064 78.0573 422.085 78.0573C432.424 77.9518 441.666 70.5091 445.464 60.1777C452.005 61.2109 455.929 50.0572 453.081 44.9759V44.997Z" fill="white"/>
<path d="M431.389 166.316C431.157 164.671 429.385 150.081 435.356 146.581C437.994 145.042 441.433 145.864 445.611 149.006L444.598 149.596C442.488 148.015 438.711 148.289 436.96 149.322C433.689 151.241 433.9 161.319 434.512 165.915L431.368 166.337L431.389 166.316Z" fill="#263238"/>
<path d="M441.475 328.834C438.711 299.337 428.752 286.075 425.84 282.87C426.157 274.9 425.629 266.951 424.215 259.213C419.911 235.767 413.433 200.325 420.544 175.846L420.628 175.424C420.755 173.906 423.245 139.138 411.007 123.999C413.096 120.436 417.358 110.864 416.535 93.0054C415.923 79.7011 413.961 73.7554 412.378 68.9903C411.218 65.4481 410.289 62.665 410.163 57.9C410.078 54.3789 411.007 50.2674 411.914 46.3036C412.821 42.3608 413.729 38.3548 413.686 34.8126C415.417 34.2011 418.919 32.1349 419.573 25.5355L421.683 17.7975L420.671 17.5234L418.117 22.9421L413.982 19.4L413.18 20.0114L417.463 25.5566C416.894 30.174 414.826 31.9451 413.518 32.5987C412.969 28.909 411.028 25.8939 406.365 24.2704L406.112 24.9662C414.151 27.7915 411.935 36.8367 409.867 45.8397C408.939 49.9511 407.968 54.1891 408.074 57.9632C408.074 58.174 408.074 58.3427 408.095 58.5325C406.829 57.0987 405.099 55.4331 403.01 54.2102C400.035 52.4813 398.79 46.4301 398.959 44.3005L397.904 44.2162C397.861 44.5746 397.207 53.2825 401.934 56.0445C405.479 58.1108 407.989 61.7795 408.454 62.4963C408.876 65.153 409.593 67.3036 410.353 69.665C411.893 74.3246 413.813 80.1228 414.404 93.1319C415.163 109.451 411.492 118.644 409.488 122.376C405.879 118.749 401.448 116.894 396.448 116.978C392.143 117.042 388.261 117.822 384.716 119.15C381.973 117.442 376.065 114.385 370.495 115.608C367.098 116.346 364.418 118.539 362.477 122.102C357.982 130.409 354.712 142.49 350.935 156.448C348.741 164.545 347.791 173.316 345.069 181.728L345.766 181.96C348.509 173.505 350.766 165.114 352.961 156.996C356.716 143.144 359.945 131.189 364.312 123.093C365.937 120.099 368.153 118.264 370.917 117.653C374.968 116.767 379.462 118.623 382.247 120.162C361.991 129.65 354.585 157.945 352.18 171.418C349.437 186.725 338.549 215.695 331.481 233.575C328.02 235.304 321.1 241.903 315.593 267.162L316.226 267.31C320.361 248.355 326.67 240.764 329.919 237.454C327.155 244.349 326.691 249.451 326.628 249.599L327.809 250.084C328.231 249.051 334.435 237.918 339.984 223.307C339.414 230.328 337.579 240.68 332.177 251.454C322.429 270.915 307.617 305.177 307.448 305.514L308.06 305.81C308.229 305.472 324.349 271.864 334.076 252.403C341.714 237.138 342.432 223.054 342.347 217.066C348.255 201.21 354.311 183.373 356.316 172.177C357.096 167.834 358.426 161.825 360.578 155.478C361.021 163.237 360.05 178.945 351.146 205.912L351.948 206.186C363.089 172.493 363.257 156.554 362.245 150.966C368.005 136.355 378.344 121.448 396.49 121.216C400.626 121.216 403.938 122.608 406.808 125.665C414.235 133.551 416.197 149.933 416.577 161.698C411.281 162.963 401.47 164.713 398.516 162.457C396.912 161.234 398.938 157.713 400.9 154.319C401.765 152.822 402.63 151.325 403.284 149.87C404.002 149.617 405.774 149.132 407.293 149.975L407.715 149.216C406.259 148.415 405.31 147.319 404.128 147.487C404.445 146.138 404.424 144.894 403.833 143.819L402.968 144.282C403.938 146.032 400.9 150.123 399.085 153.264C397.439 156.111 395.751 159.042 395.815 161.361C393.831 160.18 390.16 157.587 390.16 151.978H389.168C389.168 161.951 396.384 164.038 397.524 164.313C398.41 164.882 399.571 165.24 400.921 165.451C395.73 166.569 388.662 167.264 384.611 164.081C383.978 163.596 383.703 162.773 383.914 161.993C384.379 160.138 384.758 157.249 383.134 155.689L382.458 156.385C382.817 156.722 382.163 158.135 382.184 158.81H377.563V159.611L381.973 160.918C381.889 161.298 381.72 161.909 381.53 162.436C381.319 163.09 381.53 163.785 382.058 164.228C383.366 165.346 385.898 167.328 387.607 167.792C385.434 168.698 383.26 170.195 382.226 172.641L382.817 172.894C384.758 168.298 393.874 168.487 393.958 168.466C397.292 168.361 400.604 167.749 403.179 167.096C400.626 168.614 398.452 170.912 397.334 174.412C396.828 174.918 393.473 178.798 384.4 177.807L384.294 178.692C385.75 178.84 387.058 178.924 388.261 178.924C391.806 178.924 394.296 178.313 395.984 177.638C391.827 185.397 382.754 185.819 382.353 185.776L382.269 186.599C382.269 186.599 382.733 186.641 383.45 186.641C384.801 186.641 387.143 186.472 389.654 185.587C388.599 187.801 388.852 191.153 388.746 196.002H389.59C389.759 186.957 393.43 183.71 393.452 183.668C394.675 182.804 395.836 181.707 396.849 180.295C396.3 183.542 396.068 186.957 396.849 189.445C398.579 195.138 398.516 204.837 395.878 207.472L396.49 208.084C398.938 205.638 400.182 199.481 399.739 193.81C400.583 194.484 401.617 194.969 402.862 194.969V193.978C400.267 193.978 398.916 188.981 398.853 188.855C397.271 183.647 400.731 173.168 401.322 171.418C405.436 166.484 413.201 166.252 416.619 166.442C416.619 170.954 416.429 174.18 416.387 175.023C411.429 192.292 412.885 214.367 415.691 234.207C412.948 234.46 408.327 235.514 404.36 239.584C401.786 242.219 398.579 244.792 395.456 245.593C395.287 245.614 394.95 245.677 394.485 245.782C392.65 246.014 390.097 246.373 388.514 244.834L387.818 245.572C388.535 246.267 389.316 246.773 390.139 247.174C387.628 248.27 385.117 250.02 384.59 252.782L385.18 252.888C385.75 249.852 392.017 248.481 394.802 247.87C395.034 247.828 395.287 247.786 395.519 247.722C395.646 247.701 395.794 247.68 395.899 247.659C398.959 246.879 402.335 244.686 405.879 241.06C409.424 237.433 413.644 236.526 416.007 236.316C417.273 244.918 418.75 253.057 420.038 260.12C421.43 267.71 421.958 275.532 421.599 283.355C421.177 292.737 417.252 301.951 410.564 309.289C408.158 311.924 405.626 315.255 403.221 319.472C400.815 319.114 396.195 317.975 393.958 314.496C392.143 311.692 392.249 307.77 394.253 302.858C397.672 294.487 401.364 289.954 404.318 286.307C407.736 282.09 410.458 278.758 410.479 272.222C410.521 262.144 413.475 258.77 413.475 258.77L413.117 258.201C412.61 258.517 408.707 260.626 408.665 272.496C408.665 277.915 406.133 281.394 402.862 285.4C399.782 289.195 394.929 292.864 391.32 301.677C388.894 307.602 388.894 312.493 391.278 316.225C393.852 320.21 398.516 321.792 401.596 322.403C400.773 323.984 399.971 325.692 399.212 327.505C396.11 330.141 389.991 334.505 386.636 333.346C385.244 332.861 384.336 331.279 383.935 328.644C381.699 313.653 373.596 305.999 373.322 305.62L372.33 306.379C372.33 306.379 378.703 314.918 380.813 329.108C381.403 333.008 383.007 335.433 385.602 336.34C386.299 336.593 387.058 336.698 387.818 336.698C390.856 336.698 394.253 334.99 397.039 333.135C395.941 336.298 394.907 339.713 394.021 343.487C389.232 344.731 376.909 351.162 376.74 384.159C376.572 422.807 378.323 439.337 378.323 439.505L379.905 439.337C379.905 439.168 379.737 422.596 379.905 384.18C380.032 357.066 388.62 349.391 393.198 347.219C391.194 356.897 389.928 368.514 389.928 382.43C389.928 400.246 389.801 433.054 389.021 469.15C384.969 479.081 373.491 514.207 379.399 562.364L380.602 562.216C375.559 521.165 383.914 489.686 388.873 475.496C387.438 536.999 386.193 605.882 378.449 625.701L380.243 627.219C379.631 635.02 377.584 647.671 368.11 662.725L369.165 663.4C382.501 642.189 382.965 626.608 382.374 620.261C387.079 601.222 389.928 563.587 391.637 522.493C392.861 529.072 393.641 540.478 391.489 559.391L392.608 559.517C395.73 531.96 393.768 520.069 391.911 515.514C393.789 466.43 394.127 413.677 394.127 382.388C394.127 364.192 396.363 350.171 399.507 339.439C402.925 342.728 409.023 351.014 406.808 367.06C405.668 375.282 404.213 383.505 402.82 391.454C400.33 405.496 399.549 418.801 399.423 429.469H401.026C401.153 419.075 403.474 405.918 405.943 392.002C407.356 384.011 408.812 375.767 409.952 367.481C412.61 348.337 404.149 339.102 400.541 336.108C404.613 323.773 409.825 316.31 413.644 312.114C420.122 305.029 424.215 296.301 425.439 287.255C429.659 292.316 438.12 305.198 440.378 329.298L441.412 329.002L441.475 328.834Z" fill="#263238"/>
<path d="M509.079 236.295C511.506 237.159 515.219 239.584 517.498 246.226C519.292 251.454 519.861 254.765 520.368 257.674C520.937 261.006 522.625 263.346 524.714 267.921L525.432 267.584C523.448 263.262 523.005 260.647 522.436 257.316C521.929 254.322 521.338 250.927 519.482 245.53C516.338 236.358 510.577 234.271 507.982 233.807C506.357 230.18 504.986 227.334 504.015 225.732C498.529 216.707 488.781 177.259 488.422 158.915C488.085 141.521 479.539 123.283 463.735 117.485C465.613 116.22 468.483 114.744 471.69 114.912C474.496 115.039 477.049 116.451 479.286 119.087C484.941 125.75 487.937 133.214 489.942 142.217C490.933 146.686 491.967 151.283 493.55 156.069L494.288 155.732C492.727 151.051 491.714 146.497 490.743 142.09C488.76 133.192 486.903 124.78 480.911 117.717C478.273 114.617 475.214 112.951 471.796 112.783C467.111 112.551 463.081 115.208 461.203 116.683C459.431 116.198 457.616 115.819 455.675 115.671C449.619 115.165 444.492 116.641 440.441 120.015C440.335 116.009 439.196 109.473 433.626 104.834C431.769 103.295 429.595 101.06 427.633 98.0448C428.815 83.3912 430.629 68.5479 431.03 65.3009C432.845 64.4997 437.339 61.4214 439.681 49.9726C443.669 30.575 442.888 19.6322 437.339 16.5117L437.002 17.1021C440.145 18.8732 442.234 26.9696 437.592 49.5509C435.799 58.322 432.782 61.6111 431.094 62.8129C431.051 59.5027 430.693 52.2286 428.456 48.2015C430.06 46.7256 433.879 42.7617 433.942 38.1653H433.161C433.098 41.7286 429.279 45.0388 427.422 46.4515C425.418 42.34 425.164 33.4424 425.249 30.09H424.384C424.384 30.6171 422.801 43.7949 426.219 48.6021C429.173 52.7557 428.962 63.8882 428.962 64.4364C428.857 65.3431 427.021 79.7015 425.734 94.7557C422.696 88.4936 420.987 79.6593 423.73 67.5569L421.662 67.093C418.349 81.7256 421.282 91.8461 425.397 98.5509C425.164 101.397 424.975 104.244 424.806 106.964C423.877 122.735 430.039 130.304 432.571 132.708C432.001 134.626 431.684 136.313 431.516 137.515C431.452 137.515 431.389 137.494 431.326 137.494C429.574 137.43 427.95 138.274 426.473 139.961C425.987 137.557 425.038 134.162 423.118 130.515C419.784 124.232 412.779 116.03 398.41 112.677C370.748 106.226 359.417 140.825 359.29 141.162L360.113 141.458C360.24 141.12 372.077 108.692 397.924 114.723C420.733 120.057 424.215 137.62 424.742 142.406C424.658 142.554 424.574 142.659 424.51 142.807C417.822 155.015 422.485 167.201 425.755 173.274C424.384 175.192 412.821 192.229 429.806 199.144C427.296 210.171 422.21 235.62 423.709 254.68C422.295 262.924 417.801 283.608 406.681 294.994C392.101 309.9 392.628 324.68 392.671 325.292L393.24 325.186C393.24 325.039 392.713 310.723 406.66 296.448C416.366 286.518 421.789 270.283 424.384 260.268C424.637 261.765 424.932 263.198 425.291 264.569C427.57 273.003 431.811 280.235 436.284 287.909C444.218 301.445 452.405 315.445 449.767 337.31C449.007 343.635 448.501 350.677 448.206 358.141C445.463 359.976 439.576 365.057 439.28 375.388C439.154 380.364 439.534 382.81 438.542 385.509C437.086 389.494 435.925 392.635 439.512 398.918L439.829 398.476C436.727 393.057 437.592 390.717 439.006 386.837C439.998 384.117 441.222 380.765 441.369 375.43C441.58 367.439 445.463 362.948 448.1 360.798C447.594 377.497 448.1 396.03 449.134 413.108C446.729 415.132 442.171 420.72 443.838 433.223C445.399 444.861 446.243 451.861 445.547 460.569C445.315 463.563 445.062 466.747 444.872 470.373H445.589C445.779 466.768 446.011 463.605 446.264 460.632C446.94 452.135 447.509 444.798 445.927 432.948C444.64 423.313 447.235 418.295 449.303 415.912C450.252 430.461 451.561 443.786 452.89 453.717C453.903 461.18 454.641 471.512 455.253 483.488C452.869 488.506 446.349 503.918 446.623 521.313C446.792 532.003 447.826 537.927 448.902 544.189C449.936 550.198 452.004 556.397 452.299 567.319H453.417C453.122 556.207 452.025 549.903 450.991 543.831C449.936 537.632 448.923 531.792 448.754 521.271C448.522 507.524 452.679 495.021 455.485 488.211C456.055 500.566 456.519 514.418 457.004 528.671C457.616 547.415 458.27 566.792 459.22 583.259L459.515 588.256C461.731 626.945 462.575 641.409 474.707 658.045L475.551 657.433C464.052 641.683 465.465 626.988 463.208 588.045L462.912 583.048C461.963 566.644 461.33 547.289 460.697 528.566C460.507 522.747 460.317 516.991 460.106 511.361C462.976 516.316 467.027 525.804 467.027 539.93C467.027 549.735 466.563 557.936 466.12 565.885C465.55 575.879 466.246 585.304 466.858 595.867L467.744 595.741C467.153 585.304 467.681 575.942 468.251 566.012C468.694 558.042 469.158 549.798 469.158 539.93C469.158 521.503 462.638 510.792 459.979 507.208C459.178 485.09 458.228 465.461 456.582 453.232C453.017 426.792 449.704 376.485 452.89 342.813C455.359 345.195 459.241 350.551 459.684 361.114C459.958 367.65 459.557 376.442 459.178 384.939C458.587 398.033 459.178 411.738 460.908 418.442C463.609 428.921 461.034 438.894 461.013 439L461.857 439.358C461.963 438.936 464.622 428.774 461.773 417.747C460.127 411.337 460.718 397.97 461.309 385.045C461.689 376.506 462.089 367.65 461.815 361.03C461.562 355.084 460.296 350.677 458.735 347.43C460.591 345.238 466.837 336.994 464.6 327.105C461.9 315.129 459.431 301.762 461.752 293.539C464.263 284.599 460.528 268.406 460.38 267.711L459.431 267.942C459.473 268.111 463.208 284.283 460.845 292.717C458.397 301.403 459.768 315.319 462.533 327.569C464.347 335.623 459.705 342.729 457.637 345.385C456.034 342.729 454.325 341.105 453.164 340.22C453.249 339.376 453.354 338.554 453.438 337.732C456.245 314.623 447.72 300.075 439.491 286.012C435.124 278.569 431.009 271.527 428.878 263.578C426.937 256.388 426.831 246.774 427.57 237.012C430.65 234.144 435.25 230.665 437.445 231.066C437.74 231.108 438.099 231.256 438.352 231.825C439.344 233.976 438.099 237.37 436.896 240.638C435.44 244.644 433.457 247.47 435.398 250.527C437.445 253.732 440.272 254.617 442.467 254.617C443.395 254.617 444.218 254.448 444.787 254.238L444.534 253.584C444.365 253.647 440.378 255.018 437.635 250.717C436.854 249.473 436.938 247.765 437.402 245.867C438.711 246.879 440.905 248.25 443.268 248.25C443.901 248.25 444.534 248.144 445.167 247.912C448.48 246.711 449.999 247.976 450.062 248.039L450.569 247.491C450.569 247.491 448.902 244.876 444.64 246.436C442.045 247.385 439.09 245.235 437.888 244.201C438.183 243.274 438.542 242.304 438.879 241.355C439.618 239.31 440.378 237.244 440.673 235.283C442.002 234.988 443.711 234.123 444.83 232.247C445.146 233.68 445.273 235.726 444.218 237.665C443.543 238.909 443.775 239.837 444.091 240.406C445.42 242.789 450.738 242.198 451.328 242.241V241.629C449.725 241.545 446.18 240.933 445.484 239.647C445.357 239.436 445.252 239.078 445.61 238.424C447.573 234.819 446.222 231.024 445.758 229.927C446.222 228.599 447.742 228.346 448.986 228.536C452.067 229.042 456.139 232.289 455.591 238.066L456.182 238.129C456.815 231.361 453.038 227.608 449.24 226.997C446.708 226.596 444.598 227.735 444.133 229.801C443.543 232.331 441.918 233.28 440.8 233.638C440.8 232.689 440.652 231.783 440.251 230.939C439.745 229.843 438.901 229.168 437.782 228.979C434.913 228.473 430.65 231.551 427.802 233.976C429.047 220.65 431.705 207.494 433.309 200.262C433.541 200.325 433.752 200.388 434.005 200.451C458.27 206.418 452.426 192.714 451.94 182.888C451.286 169.879 432.613 152.105 426.979 168.403C424.447 162.394 422.358 153.244 427.253 144.283C428.182 142.575 429.596 140.572 431.178 140.614C435.124 140.783 439.977 151.831 443.205 159.147C444.83 162.816 446.222 166 447.446 167.918C452.489 175.825 459.009 178.629 459.241 178.798L460.233 177.364C460.233 177.364 454.81 173.59 450.126 166.232C449.029 164.503 447.615 161.298 446.117 157.882C445.547 156.596 444.977 155.289 444.387 153.982C445.062 154.361 445.779 154.741 446.539 155.099C447.298 156.322 450.548 161.214 454.557 162.837C458.481 164.418 463.524 168.867 463.567 168.93L464.389 168.256C464.263 168.087 461.836 165.177 458.84 162.921C460.697 162.584 462.427 161.572 463.588 159.695L462.68 159.147C461.435 161.192 457.004 161.066 455.253 160.834C453.27 159.991 451.455 158.114 450.147 156.512C451.413 156.891 452.721 157.123 453.966 157.123C454.536 157.123 455.105 157.081 455.654 156.954C457.659 156.554 459.22 155.394 460.275 153.539V152.695H463.567V151.641L460.254 150.777V147.235L459.178 147.066L458.334 152.674C457.595 153.897 456.582 154.614 455.232 154.888C454.135 155.099 452.932 155.015 451.687 154.741C452.51 152.759 453.607 148.626 451.096 144.409L450.084 145.021C452.278 148.689 450.59 152.59 449.725 154.171C446.898 153.138 444.218 151.473 442.762 150.482C440.293 145.337 437.592 140.762 434.575 138.653C434.934 135.87 436.432 127.542 442.171 122.566C445.61 119.593 450.041 118.307 455.359 118.771C474.475 120.352 484.835 140.171 485.215 158.894C485.321 164.819 486.46 173.211 488.127 182.171C486.671 184.765 484.962 192.566 491.819 214.747L492.389 214.578C487.093 197.458 487.663 189.277 488.781 185.566C492.178 202.644 497.348 220.861 501.272 227.313C507.096 236.906 530.728 295.057 530.939 295.647L532.226 295.162C531.487 293.201 517.582 255.945 509.016 236.232L509.079 236.295ZM438.289 122.123C435.989 124.717 434.427 127.711 433.415 130.494C430.904 127.711 426.219 120.626 427 107.132C427.106 105.256 427.232 103.316 427.38 101.376C429.026 103.527 430.756 105.214 432.275 106.479C438.268 111.476 438.457 119.235 438.289 122.123Z" fill="#FF647D"/>
<path opacity="0.2" d="M426.367 183.626C425.987 182.171 423.92 182.192 423.582 183.647C422.379 188.812 422.759 195.918 432.338 198.785C439.154 200.83 443.479 200.662 446.222 199.797C447.805 199.291 447.362 196.951 445.695 197.014C442.023 197.141 436.917 196.508 432.528 192.987C428.857 190.056 427.148 186.535 426.388 183.626H426.367Z" fill="#263238"/>
<path opacity="0.2" d="M431.115 168.594C430.102 168.446 429.595 167.286 430.186 166.443C431.431 164.672 433.921 162.648 438.289 164.883C442.677 167.118 446.834 171.988 448.86 176.606C449.514 178.103 447.509 179.325 446.518 178.018C443.585 174.202 438.605 169.669 431.115 168.594Z" fill="white"/>
<path d="M692.101 93.5966C701.216 111.582 694 133.551 676.002 142.639C658.003 151.747 661.991 135.196 652.876 117.211C643.761 99.2261 625.003 86.6177 643.001 77.5092C660.999 68.4008 682.986 75.6116 692.08 93.5966H692.101Z" fill="#FF647D"/>
<path opacity="0.8" d="M692.101 93.5966C701.216 111.582 694 133.551 676.002 142.639C658.003 151.747 661.991 135.196 652.876 117.211C643.761 99.2261 625.003 86.6177 643.001 77.5092C660.999 68.4008 682.986 75.6116 692.08 93.5966H692.101Z" fill="white"/>
<path d="M136.327 274.436C129.997 261.912 134.998 246.647 147.531 240.3C160.065 233.975 157.279 245.487 163.631 257.99C169.961 270.514 183.021 279.285 170.488 285.61C157.955 291.936 142.678 286.939 136.327 274.415V274.436Z" fill="#FF647D"/>
<path opacity="0.8" d="M136.327 274.436C129.997 261.912 134.998 246.647 147.531 240.3C160.065 233.975 157.279 245.487 163.631 257.99C169.961 270.514 183.021 279.285 170.488 285.61C157.955 291.936 142.678 286.939 136.327 274.415V274.436Z" fill="white"/>
<path d="M92.7555 437.377C90.8987 427.024 97.7984 417.114 108.18 415.259C118.561 413.404 114.067 421.078 115.923 431.452C117.78 441.804 125.271 450.934 114.889 452.789C104.529 454.645 94.6123 447.75 92.7555 437.377Z" fill="#FF647D"/>
<path opacity="0.8" d="M92.7555 437.377C90.8987 427.024 97.7984 417.114 108.18 415.259C118.561 413.404 114.067 421.078 115.923 431.452C117.78 441.804 125.271 450.934 114.889 452.789C104.529 454.645 94.6123 447.75 92.7555 437.377Z" fill="white"/>
<path d="M679.504 515.389C665.515 518.952 651.272 510.518 647.707 496.518C644.141 482.539 655.092 487.895 669.081 484.331C683.07 480.768 694.802 469.636 698.389 483.615C701.955 497.593 693.515 511.825 679.504 515.389Z" fill="#FF647D"/>
<path opacity="0.8" d="M679.504 515.389C665.515 518.952 651.272 510.518 647.707 496.518C644.141 482.539 655.092 487.895 669.081 484.331C683.07 480.768 694.802 469.636 698.389 483.615C701.955 497.593 693.515 511.825 679.504 515.389Z" fill="white"/>
<path d="M291.56 128.449C277.634 128.449 264.573 115.461 264.573 99.4578C264.573 83.4547 277.655 70.4668 291.56 70.4668C305.465 70.4668 314.96 83.4547 314.96 99.4578C314.96 115.461 305.465 128.449 291.56 128.449Z" fill="#FF647D"/>
<path opacity="0.4" d="M291.56 128.449C277.634 128.449 264.573 115.461 264.573 99.4578C264.573 83.4547 277.655 70.4668 291.56 70.4668C305.465 70.4668 314.96 83.4547 314.96 99.4578C314.96 115.461 305.465 128.449 291.56 128.449Z" fill="white"/>
<path d="M275.439 99.4576C275.439 89.063 283.478 80.5449 292.446 79.7015C291.96 79.6594 291.496 79.6172 290.99 79.6172C281.474 79.6172 272.527 88.4937 272.527 99.4576C272.527 110.421 281.474 119.298 290.99 119.298C291.475 119.298 291.96 119.256 292.446 119.214C283.499 118.37 275.439 109.852 275.439 99.4576Z" fill="#FF647D"/>
<path d="M292.446 82.1055C292.446 82.1055 305.929 84.6356 305.929 98.8464C305.929 113.057 292.446 116.473 292.446 116.473C292.446 116.473 302.954 111.687 302.954 99.5844C302.954 87.482 292.446 82.1055 292.446 82.1055Z" fill="#FF647D"/>
<g opacity="0.4">
<path d="M304.072 83.5185C302.911 81.8529 305.253 79.9553 306.646 81.4312C309.684 84.6149 312.491 89.3589 313.546 96.3167C314.432 102.157 313.039 107.154 310.76 111.223C309.769 113.016 307.047 111.708 307.764 109.79C310.465 102.705 311.014 93.4914 304.051 83.5185H304.072Z" fill="white"/>
<path d="M303.755 114.976C304.177 114.217 306.519 112.741 307.279 114.976C308.018 117.211 302.363 117.464 303.755 114.976Z" fill="white"/>
</g>
<path d="M693.24 349.581C693.24 370.792 673.428 390.716 648.973 390.716C624.518 390.716 604.705 370.792 604.705 349.581C604.705 328.37 624.518 313.906 648.973 313.906C673.428 313.906 693.24 328.37 693.24 349.581Z" fill="#FF647D"/>
<path opacity="0.4" d="M693.24 349.581C693.24 370.792 673.428 390.716 648.973 390.716C624.518 390.716 604.705 370.792 604.705 349.581C604.705 328.37 624.518 313.906 648.973 313.906C673.428 313.906 693.24 328.37 693.24 349.581Z" fill="white"/>
<path d="M648.973 374.145C633.106 374.145 620.108 361.874 618.821 348.232C618.758 348.949 618.694 349.687 618.694 350.446C618.694 364.952 632.262 378.594 648.973 378.594C665.684 378.594 679.251 364.952 679.251 350.446C679.251 349.687 679.188 348.97 679.125 348.232C677.816 361.874 664.84 374.145 648.973 374.145Z" fill="#FF647D"/>
<path d="M622.492 348.232C622.492 348.232 626.375 327.675 648.023 327.675C669.672 327.675 674.926 348.232 674.926 348.232C674.926 348.232 667.625 332.229 649.163 332.229C630.7 332.229 622.492 348.232 622.492 348.232Z" fill="#FF647D"/>
<g opacity="0.4">
<path d="M624.623 330.5C622.07 332.271 619.179 328.708 621.437 326.578C626.311 321.961 633.527 317.66 644.162 316.057C653.066 314.708 660.704 316.837 666.929 320.295C669.672 321.813 667.688 325.967 664.755 324.849C653.931 320.738 639.879 319.895 624.644 330.5H624.623Z" fill="white"/>
<path d="M672.668 330.985C671.507 330.331 669.25 326.768 672.668 325.629C676.086 324.491 676.487 333.135 672.668 330.985Z" fill="white"/>
</g>
<path d="M301.793 508.093C301.793 529.283 282.001 549.208 257.568 549.208C233.134 549.208 213.342 529.304 213.342 508.093C213.342 486.883 233.134 472.461 257.568 472.461C282.001 472.461 301.793 486.904 301.793 508.093Z" fill="#FF647D"/>
<path opacity="0.4" d="M301.793 508.093C301.793 529.283 282.001 549.208 257.568 549.208C233.134 549.208 213.342 529.304 213.342 508.093C213.342 486.883 233.134 472.461 257.568 472.461C282.001 472.461 301.793 486.904 301.793 508.093Z" fill="white"/>
<path d="M257.588 532.635C241.742 532.635 228.766 520.385 227.458 506.743C227.394 507.46 227.331 508.198 227.331 508.936C227.331 523.442 240.877 537.062 257.588 537.062C274.3 537.062 287.846 523.442 287.846 508.936C287.846 508.177 287.783 507.46 287.719 506.743C286.411 520.385 273.435 532.635 257.588 532.635Z" fill="#FF647D"/>
<path d="M231.129 506.744C231.129 506.744 235.012 486.208 256.639 486.208C278.267 486.208 283.521 506.744 283.521 506.744C283.521 506.744 276.22 490.762 257.779 490.762C239.337 490.762 231.129 506.744 231.129 506.744Z" fill="#FF647D"/>
<g opacity="0.4">
<path d="M233.239 489.033C230.707 490.804 227.796 487.241 230.053 485.112C234.906 480.494 242.144 476.214 252.757 474.591C261.661 473.241 269.278 475.371 275.503 478.828C278.246 480.346 276.262 484.5 273.329 483.383C262.505 479.271 248.495 478.449 233.239 489.033Z" fill="white"/>
<path d="M281.242 489.518C280.081 488.864 277.824 485.301 281.242 484.162C284.66 483.024 285.04 491.668 281.242 489.518Z" fill="white"/>
</g>
</svg>
