<svg width="770" height="472" viewBox="0 0 770 472" fill="none" xmlns="http://www.w3.org/2000/svg">
<g clip-path="url(#clip0_1144_6918)">
<mask id="mask0_1144_6918" style="mask-type:luminance" maskUnits="userSpaceOnUse" x="61" y="-141" width="614" height="613">
<path d="M674.896 -140.987H61.8391V472H674.896V-140.987Z" fill="white"/>
</mask>
<g mask="url(#mask0_1144_6918)">
<path d="M769.601 517.765L604.91 270.401C604.91 270.401 599.159 225.812 594.843 189.866C590.527 153.909 564.632 59.3247 556.012 57.3631C547.38 55.4015 540.195 64.4615 538.037 82.2259C535.88 99.9902 554.578 163.275 538.037 169.025C521.497 174.775 493.444 134.514 493.444 134.514L425.125 187.733L388.451 158.249C388.451 158.249 371.188 120.856 361.845 114.383C352.502 107.91 340.143 111.343 340.143 115.658C340.143 119.974 350.27 181.983 356.413 187.733C362.556 193.483 413.624 234.48 413.624 234.48C413.624 234.48 459.652 316.46 502.088 326.526L573.288 524.999L769.626 517.802L769.601 517.765Z" fill="#F95844"/>
<path d="M541.078 113.573C542.795 119.63 544.021 125.821 544.916 132.061C545.799 138.301 546.326 144.615 546.191 150.99C546.081 152.584 546.081 154.178 545.848 155.771C545.75 156.568 545.676 157.365 545.566 158.162L545.1 160.54C544.793 162.122 544.364 163.556 544.095 165.101C543.788 166.621 543.543 168.141 543.298 169.674C542.476 175.804 542.219 182.068 543.04 188.296C541.213 182.252 540.907 175.791 541.397 169.465C541.618 166.302 542.255 163.127 542.832 160.062L543.224 157.819C543.322 157.059 543.383 156.298 543.469 155.538C543.665 154.018 543.653 152.461 543.739 150.929C543.825 147.839 543.776 144.738 543.629 141.624C543.531 138.51 543.261 135.408 543.028 132.294C542.501 126.066 541.802 119.838 541.091 113.598L541.078 113.573Z" fill="#5B2F2F"/>
<path d="M450.652 120.476C450.652 120.476 450.505 119.997 450.285 119.152C448.801 113.475 443.86 91.1012 456.023 83.3899C470 74.5261 506.011 104.072 510.855 109.184C515.698 114.297 532.888 164.01 523.753 169.919C514.619 175.828 500.016 152.927 500.016 152.927L450.652 120.463V120.476Z" fill="#F95844"/>
<path d="M510.854 109.185C512.24 110.643 513.172 112.47 514.104 114.223C515.023 116.001 515.882 117.815 516.703 119.642C518.297 123.32 519.744 127.047 521.043 130.835C523.643 138.412 525.801 146.16 527.015 154.166C527.284 156.176 527.493 158.199 527.554 160.246C527.603 162.294 527.566 164.378 527.051 166.511C526.769 167.565 526.402 168.657 525.641 169.637C525.286 170.128 524.771 170.581 524.244 170.9C523.729 171.182 523.214 171.452 522.637 171.611C521.509 171.942 520.308 172.028 519.204 171.82C518.101 171.611 517.059 171.268 516.114 170.778C512.314 168.84 509.469 165.849 506.857 162.809C504.319 159.682 501.977 156.421 500.016 152.94C502.443 156.115 504.957 159.204 507.752 162C509.126 163.409 510.56 164.77 512.093 165.984C513.625 167.173 515.207 168.326 516.924 169.049C518.616 169.784 520.443 170.128 521.988 169.576C522.38 169.466 522.736 169.257 523.091 169.049C523.398 168.84 523.643 168.632 523.864 168.301C524.317 167.688 524.599 166.842 524.808 165.972C525.188 164.206 525.249 162.269 525.175 160.344C525.102 158.407 524.881 156.47 524.599 154.521C524.06 150.635 523.238 146.761 522.319 142.911C521.424 139.062 520.345 135.237 519.241 131.424C518.113 127.623 516.924 123.835 515.6 120.083C514.962 118.208 514.275 116.332 513.527 114.493C513.16 113.574 512.755 112.666 512.338 111.771C511.909 110.876 511.492 109.969 510.867 109.185H510.854Z" fill="#5B2F2F"/>
<path d="M433.18 144.664C433.18 144.664 433.72 129.878 438.551 121.284C443.394 112.69 480.741 120.745 484.775 123.699C488.809 126.654 518.91 191.962 516.495 198.141C514.079 204.319 507.36 207.274 499.023 201.095C490.685 194.916 433.18 144.664 433.18 144.664Z" fill="#F95844"/>
<path d="M446.68 117.68C452.197 116.859 457.825 117.227 463.367 117.741C468.909 118.379 474.427 119.311 479.858 120.782C481.219 121.174 482.568 121.542 483.941 122.118L484.456 122.327L485.008 122.633C485.351 122.78 485.83 123.209 486.062 123.504C486.565 124.117 486.958 124.705 487.35 125.318C488.87 127.721 490.194 130.173 491.519 132.637C494.118 137.578 496.533 142.592 498.912 147.618C503.596 157.72 508.034 167.921 511.921 178.366C513.822 183.601 515.734 188.848 516.875 194.377C516.997 195.076 517.108 195.787 517.144 196.51C517.157 196.878 517.169 197.246 517.108 197.65C517.095 197.847 517.034 198.055 516.961 198.276L516.728 198.778C516.115 200.078 515.269 201.279 514.202 202.248C513.147 203.229 511.848 203.927 510.487 204.307C509.101 204.651 507.679 204.663 506.306 204.406C509.077 204.712 511.909 203.768 513.748 201.794C514.68 200.826 515.391 199.661 515.882 198.423L516.053 197.957C516.078 197.834 516.115 197.724 516.115 197.565C516.139 197.27 516.115 196.952 516.078 196.621C515.992 195.971 515.857 195.309 515.698 194.647C515.048 191.999 514.116 189.387 513.16 186.801C512.191 184.214 511.186 181.639 510.131 179.077C508.01 173.965 505.852 168.852 503.584 163.801C501.34 158.738 499.059 153.687 496.693 148.673C494.363 143.646 491.96 138.644 489.459 133.716C488.208 131.252 486.933 128.787 485.535 126.47C485.192 125.894 484.812 125.33 484.444 124.864C484.236 124.619 484.211 124.57 483.917 124.411L483.561 124.202L483.12 124.006C481.955 123.467 480.619 123.038 479.331 122.621C474.083 121.039 468.664 119.85 463.208 118.943C457.751 118.023 452.234 117.423 446.68 117.692V117.68Z" fill="#5B2F2F"/>
<path d="M468.088 198.631C466.433 201.978 464.287 205.092 461.884 207.961C459.48 210.842 456.746 213.466 453.84 215.844C450.898 218.186 447.759 220.282 444.424 222.011C441.101 223.752 437.607 225.174 433.977 226.069C437.226 224.217 440.39 222.366 443.455 220.356C446.508 218.345 449.475 216.224 452.308 213.919C455.165 211.651 457.862 209.212 460.498 206.662C463.11 204.099 465.611 201.402 468.112 198.619L468.088 198.631Z" fill="#5B2F2F"/>
<path d="M425.112 187.696C425.112 187.696 412.214 167.235 414.372 158.101C416.53 148.968 426.731 141.44 432.383 140.362C438.023 139.283 468.971 145.18 473.654 149.887C478.338 154.607 505.484 202.163 504.675 208.354C503.866 214.545 492.316 218.567 481.832 210.769C471.349 202.972 446.655 170.913 446.655 170.913L425.112 187.684V187.696Z" fill="#F95844"/>
<path d="M473.654 149.899C475.763 152.131 477.443 154.717 479.16 157.231C480.864 159.768 482.519 162.343 484.15 164.93C487.374 170.128 490.489 175.387 493.481 180.733C496.485 186.066 499.341 191.484 501.99 197.026C503.289 199.821 504.552 202.604 505.472 205.693C505.582 206.086 505.693 206.466 505.766 206.919C505.803 207.14 505.84 207.349 505.877 207.581C505.877 207.851 505.877 208.121 505.877 208.378C505.828 208.869 505.68 209.298 505.582 209.764C505.435 210.205 505.214 210.61 505.018 211.026C504.111 212.62 502.713 213.748 501.242 214.57C498.238 216.212 494.817 216.482 491.605 216.127C488.38 215.697 485.302 214.459 482.629 212.718C479.932 210.965 477.7 208.758 475.542 206.576C473.36 204.394 471.312 202.101 469.302 199.797C461.246 190.565 453.803 180.855 446.667 170.937C450.628 175.584 454.539 180.279 458.561 184.864C462.546 189.486 466.58 194.059 470.712 198.522C471.754 199.637 472.784 200.753 473.85 201.819C474.893 202.923 475.959 204.002 477.051 205.044C479.221 207.152 481.416 209.224 483.88 210.757C486.332 212.289 489.067 213.393 491.911 213.748C494.719 214.055 497.686 213.748 500.065 212.424C502.419 211.161 504.27 208.82 503.167 206.343C502.37 203.573 501.107 200.765 499.881 198.007C497.392 192.477 494.584 187.059 491.801 181.64C488.968 176.246 486.087 170.864 483.12 165.543C481.649 162.87 480.153 160.21 478.608 157.586C477.835 156.262 477.051 154.963 476.241 153.675C475.432 152.388 474.635 151.076 473.654 149.912V149.899Z" fill="#5B2F2F"/>
<path d="M414.372 158.1C414.678 155.648 415.647 153.294 416.91 151.137C418.209 148.991 419.816 147.03 421.642 145.313C423.457 143.572 425.517 142.089 427.761 140.851C428.889 140.238 430.078 139.735 431.39 139.38C432.015 139.196 432.763 139.085 433.438 139.049C434.1 139.024 434.75 139.012 435.375 139.049C440.402 139.331 445.221 140.213 450.015 141.304C454.797 142.408 459.542 143.781 464.078 145.657C459.247 144.762 454.453 143.928 449.647 143.18C447.244 142.825 444.841 142.445 442.437 142.163C440.046 141.856 437.631 141.562 435.277 141.488C434.688 141.452 434.112 141.452 433.548 141.464C432.996 141.488 432.53 141.537 431.991 141.697C430.924 141.966 429.857 142.408 428.815 142.923C426.719 143.928 424.757 145.277 422.905 146.748C419.264 149.751 416.039 153.466 414.372 158.1Z" fill="#5B2F2F"/>
<path d="M450.272 177.018C448.372 177.68 446.361 177.925 444.35 177.876C442.339 177.839 440.328 177.533 438.391 176.944C436.454 176.368 434.602 175.522 432.91 174.443C431.218 173.377 429.661 172.065 428.447 170.459C430.286 171.256 432.028 172.04 433.793 172.739C435.546 173.438 437.324 174.051 439.102 174.591C440.892 175.13 442.707 175.596 444.558 175.976C446.41 176.356 448.298 176.662 450.272 177.006V177.018Z" fill="#5B2F2F"/>
<path d="M452.467 180.119C451.474 181.627 450.088 182.841 448.568 183.822C447.047 184.79 445.392 185.538 443.688 186.077C441.984 186.617 440.243 186.948 438.489 187.144C436.736 187.34 434.983 187.377 433.192 187.181C434.811 186.372 436.454 185.808 438.097 185.268L442.952 183.736C444.546 183.233 446.14 182.718 447.697 182.117C449.267 181.517 450.812 180.855 452.455 180.119H452.467Z" fill="#5B2F2F"/>
<path d="M492.132 214.974C488.944 212.559 486.087 209.654 483.917 206.147C482.85 204.382 481.943 202.408 481.833 200.067C481.796 198.914 482.078 197.651 482.715 196.597C483.353 195.53 484.297 194.734 485.253 194.145C486.247 193.557 487.411 193.164 488.601 193.091C489.79 193.017 490.967 193.226 492.009 193.642C494.094 194.488 495.761 195.849 497.171 197.345C499.991 200.361 502.063 203.867 503.547 207.582C501.181 204.37 498.704 201.268 495.847 198.718C494.4 197.492 492.868 196.352 491.212 195.812C489.582 195.236 487.926 195.334 486.516 196.229C485.008 197.075 484.15 198.362 484.15 200.03C484.101 201.697 484.787 203.499 485.584 205.203C487.289 208.624 489.667 211.824 492.132 214.95V214.974Z" fill="#5B2F2F"/>
<path d="M501.45 198.631C499.844 195.652 498.814 192.244 499.084 188.627C499.219 186.837 499.856 184.913 501.205 183.442C501.892 182.743 502.676 182.117 503.559 181.725C504.368 181.235 505.411 180.953 506.453 180.904C507.507 180.879 508.586 181.173 509.469 181.676C510.352 182.179 511.088 182.829 511.688 183.54C512.89 184.974 513.724 186.543 514.361 188.162C515.649 191.386 516.335 194.757 516.495 198.153C515.33 194.978 514.141 191.839 512.632 188.971C511.848 187.561 511.026 186.163 509.972 185.097C508.954 184.005 507.74 183.27 506.514 183.356C505.901 183.38 505.251 183.503 504.614 183.871C503.939 184.128 503.412 184.594 502.885 185.035C501.855 185.979 501.291 187.389 500.972 188.897C500.396 191.962 500.8 195.333 501.45 198.631Z" fill="#5B2F2F"/>
<path d="M472.906 120.696L459.407 107.37L474.512 118.845C475.052 119.25 475.162 120.022 474.745 120.562C474.341 121.101 473.568 121.211 473.029 120.795C472.992 120.758 472.943 120.721 472.906 120.696Z" fill="#5B2F2F"/>
<path d="M513.209 167.909C511.161 165.101 509.543 161.963 508.513 158.554C507.998 156.85 507.691 155.036 507.789 153.111C507.851 152.155 508.084 151.149 508.55 150.205C509.003 149.261 509.751 148.403 510.659 147.827C512.412 146.675 514.791 146.515 516.654 147.263C518.518 147.999 519.977 149.212 521.179 150.549C523.582 153.234 525.274 156.348 526.414 159.645C524.391 156.838 522.282 154.116 519.842 151.91C518.604 150.843 517.292 149.874 515.894 149.458C514.533 149.004 513.135 149.139 511.995 149.899C510.879 150.561 510.291 151.836 510.119 153.344C509.923 154.852 510.119 156.495 510.389 158.125C511.002 161.399 512.081 164.647 513.233 167.921L513.209 167.909Z" fill="#5B2F2F"/>
<path d="M478.976 230.666C486.909 229.649 495.062 229.968 502.983 231.512C510.916 233.02 518.616 235.742 525.825 239.408C533.011 243.11 539.717 247.781 545.578 253.347C551.464 258.876 556.478 265.312 560.279 272.35C555.657 265.815 550.262 259.943 544.291 254.769C538.307 249.62 531.723 245.17 524.71 241.59C517.709 237.973 510.254 235.239 502.578 233.376C494.891 231.549 486.97 230.605 478.963 230.666H478.976Z" fill="#5B2F2F"/>
<path d="M543.714 133.973C545.86 133.937 547.932 133.973 549.992 133.973C552.052 133.973 554.087 133.9 556.123 133.802C558.158 133.691 560.193 133.557 562.229 133.36L565.318 133.042L566.888 132.882C567.158 132.858 567.391 132.846 567.624 132.772C567.844 132.711 568.077 132.588 568.163 132.318C568.224 132.588 568.04 132.895 567.82 133.091C567.599 133.287 567.329 133.422 567.096 133.532C566.618 133.765 566.128 133.998 565.637 134.206C564.644 134.599 563.639 134.966 562.597 135.236C560.537 135.8 558.403 136.143 556.258 136.241C554.112 136.352 551.966 136.217 549.845 135.861C547.736 135.506 545.664 134.917 543.727 133.961L543.714 133.973Z" fill="#5B2F2F"/>
<path d="M539.558 102.283C541.017 101.915 542.427 101.743 543.825 101.572C545.223 101.425 546.608 101.326 547.994 101.253C549.379 101.179 550.765 101.155 552.175 101.167C553.585 101.192 555.007 101.228 556.491 101.474C555.191 102.246 553.805 102.724 552.395 103.092C550.985 103.447 549.551 103.644 548.104 103.717C546.657 103.778 545.21 103.717 543.764 103.509C542.329 103.276 540.907 102.932 539.533 102.295L539.558 102.283Z" fill="#5B2F2F"/>
<path d="M0.398438 432.571L142.493 249.877C142.493 249.877 139.587 186.776 142.493 171.954C145.399 157.132 200.304 51.4896 211.118 52.3233C221.933 53.1569 229.008 71.0439 224.017 87.6681C219.027 104.305 208.213 123.013 208.213 123.013L228.591 105.96C228.591 105.96 226.089 95.1465 239.405 85.1671C252.721 75.1877 272.265 59.8017 285.568 65.6251C298.884 71.4485 302.207 78.5223 295.966 93.0746C295.966 93.0746 308.864 103.054 310.103 108.877C311.353 114.701 308.018 134.66 308.018 134.66C308.018 134.66 320.083 139.233 320.5 150.046C320.917 160.859 311.77 183.735 320.5 187.475C329.23 191.214 363.341 155.035 365.008 151.296C366.418 148.121 376.816 116.491 393.662 112.58C398.567 111.44 403.189 115.351 402.871 120.365C401.939 134.893 399.364 168.288 394.533 180.818C388.292 197.037 249.251 305.879 249.251 305.879L153.283 545.962L0.398438 432.571Z" fill="#FAA7AF"/>
<path d="M219.75 57.3492C219.383 61.1129 218.438 64.8153 217.065 68.3829C215.68 71.9383 213.828 75.3833 211.155 78.3133C209.782 79.7355 208.213 81.035 206.373 81.93C204.534 82.8004 202.45 83.2785 200.427 83.1314C199.409 83.0946 198.428 82.8617 197.472 82.6165C196.552 82.261 195.608 81.9545 194.774 81.4641C193.046 80.5691 191.562 79.3554 190.189 78.0559C191.881 78.9141 193.499 79.8213 195.253 80.3607C196.957 80.986 198.735 81.3047 200.451 81.2189C203.909 81.1085 206.986 79.2328 209.365 76.6337C210.591 75.3587 211.646 73.8876 212.614 72.3673C213.62 70.8471 214.466 69.2289 215.324 67.5983C216.979 64.3004 218.402 60.8677 219.75 57.3369V57.3492Z" fill="#5B2F2F"/>
<path d="M261.071 76.1924C258.998 78.2888 256.865 80.3239 254.756 82.3713C252.647 84.4309 250.514 86.4538 248.368 88.4766C244.077 92.5101 239.748 96.5068 235.396 100.454C231.043 104.414 226.653 108.337 222.239 112.224C217.825 116.122 213.375 119.972 208.912 123.809C208.801 123.92 208.666 123.981 208.532 124.03C206.386 124.68 204.179 125.624 202.143 126.715C200.096 127.83 198.122 129.093 196.332 130.589C194.542 132.085 192.935 133.813 191.599 135.75L190.667 137.246C190.373 137.761 190.152 138.312 189.895 138.84L189.514 139.649L189.232 140.495L188.668 142.199C189.085 139.857 189.76 137.491 190.986 135.382C192.2 133.286 193.659 131.288 195.449 129.62C197.227 127.953 199.189 126.457 201.285 125.207C203.406 123.956 205.564 122.877 207.955 122.056L207.563 122.277C211.903 118.305 216.268 114.345 220.67 110.434C225.06 106.511 229.486 102.637 233.937 98.7871C238.387 94.9375 242.875 91.1248 247.387 87.3488C249.643 85.4608 251.911 83.585 254.217 81.746C256.509 79.8948 258.79 78.0313 261.12 76.2169L261.071 76.1924Z" fill="#5B2F2F"/>
<path d="M290.632 68.2115C292.864 69.0942 294.911 70.5531 296.493 72.4534C298.112 74.3291 299.203 76.683 299.718 79.1472L299.951 81.0229C300.049 81.6481 299.951 82.2734 299.963 82.9109C300.012 84.1859 299.706 85.3996 299.522 86.6379C299.252 87.8516 298.847 89.0285 298.492 90.2177C298.013 91.3579 297.535 92.4858 297.033 93.6137C296.996 93.6872 296.947 93.7608 296.898 93.8221L296.836 93.8834C294.617 96.3844 292.545 99.1673 290.583 101.938C288.646 104.758 286.831 107.651 285.176 110.642C283.472 113.609 282.062 116.723 280.762 119.899C279.45 123.074 278.518 126.372 277.648 129.743C277.893 126.286 278.457 122.804 279.475 119.457C280.48 116.11 281.743 112.812 283.312 109.674C284.882 106.535 286.623 103.483 288.609 100.589C290.571 97.6716 292.704 94.9255 295.108 92.2773L294.911 92.5471C295.377 91.4927 295.868 90.4506 296.37 89.3963C296.726 88.3174 297.155 87.2386 297.449 86.1352C297.977 83.9285 298.295 81.6604 298.038 79.4046C297.768 77.1611 296.959 74.9911 295.684 73.0541C294.396 71.1293 292.668 69.462 290.632 68.1992V68.2115Z" fill="#5B2F2F"/>
<path d="M310.017 119.506C309.894 123.748 309.551 127.965 309.146 132.158C308.754 136.363 308.239 140.544 307.736 144.724C307.185 148.905 306.621 153.073 305.983 157.229C305.382 161.397 304.671 165.541 304.144 169.746C303.641 165.517 303.837 161.25 304.083 157.033C304.328 152.803 304.806 148.61 305.309 144.418C305.873 140.237 306.486 136.057 307.271 131.9C308.031 127.744 308.901 123.613 310.029 119.506H310.017Z" fill="#5B2F2F"/>
<path d="M392.167 113.021C391.186 116.931 390.242 120.805 389.518 124.692C389.187 126.641 388.856 128.578 388.721 130.515C388.55 132.452 388.513 134.377 388.783 136.204C389.028 138.03 389.641 139.747 390.83 140.813C391.382 141.328 392.252 141.819 393.013 142.088C393.797 142.358 394.594 142.432 395.367 142.223C396.924 141.831 398.297 140.36 399.327 138.754C400.394 137.135 401.215 135.309 401.939 133.433C401.743 135.444 401.215 137.43 400.382 139.33C399.952 140.274 399.413 141.193 398.714 142.039C398.015 142.885 397.096 143.633 395.955 144.05C394.827 144.491 393.515 144.479 392.4 144.148C391.836 143.989 391.308 143.768 390.793 143.523C390.548 143.388 390.303 143.265 390.058 143.118L389.322 142.591C388.39 141.819 387.728 140.801 387.25 139.759C386.784 138.717 386.539 137.638 386.355 136.571C385.84 132.281 386.612 128.198 387.667 124.275C388.77 120.364 390.242 116.576 392.167 113.033V113.021Z" fill="#5B2F2F"/>
<path d="M408.033 171.169C407.861 166.376 403.913 163.715 399.72 162.391C398.886 162.122 398.555 163.409 399.364 163.691C402.809 164.917 406.341 167.087 406.377 171.169C406.377 172.248 408.082 172.236 408.045 171.169H408.033Z" fill="#C1443A"/>
<path d="M340.989 166.069C342.068 179.199 363.157 179.64 372.892 180.204C381.058 180.683 389.236 180.131 397.279 178.574C402.307 177.605 407.285 176.907 407.959 171.157C408.057 170.311 406.696 170.164 406.488 170.961C404.992 176.772 394.692 176.956 390.156 177.471C385.202 178.034 380.187 178.28 375.197 178.169C366.933 177.985 343.845 177.605 343.012 166.069C342.914 164.782 340.89 164.782 341.001 166.069H340.989Z" fill="#C1443A"/>
<path d="M347.352 159.891C343.846 159.425 341.209 162.895 340.976 166.07C340.878 167.369 342.877 167.345 342.987 166.07C343.183 163.765 345.023 161.852 347.352 161.73C348.566 161.656 348.505 160.038 347.352 159.891Z" fill="#C1443A"/>
<path d="M356.045 152.902C352.244 165.836 355.187 183.208 359.294 195.799C362.065 204.283 370.415 214.777 380.298 209.076C380.604 208.905 380.396 208.39 380.053 208.5C365.683 213.098 360.484 196.694 358.473 185.991C356.609 176.036 354.77 163.274 357.676 153.344C357.983 152.289 356.352 151.848 356.045 152.89V152.902Z" fill="#C1443A"/>
<path d="M365.327 151.026C364.861 149.053 362.666 148.415 360.839 148.66C358.399 148.991 356.94 150.72 356.045 152.89C355.628 153.895 357.271 154.337 357.676 153.344C358.853 150.499 362.114 148.955 364.407 151.554C364.787 151.983 365.437 151.517 365.315 151.026H365.327Z" fill="#C1443A"/>
<path d="M454.588 142.187C446.324 140.116 437.778 145.093 432.052 150.696C428.484 154.178 425.554 158.235 422.783 162.355C419.264 167.59 416.186 174.48 410.607 177.79C409.259 178.599 410.509 180.744 411.846 179.898C418.638 175.62 421.973 167.21 426.302 160.736C433.327 150.242 441.554 143.708 454.49 143.046C454.98 143.021 455.115 142.298 454.613 142.175L454.588 142.187Z" fill="#C1443A"/>
<path d="M491.212 130.97C497.723 130.504 503.841 130.651 509.739 133.876C514.668 136.573 517.757 141.035 522.208 144.223C522.429 144.382 522.686 144.076 522.564 143.867C516.642 133.631 502.738 126.373 491.114 130.271C490.746 130.394 490.783 131.007 491.212 130.982V130.97Z" fill="#C1443A"/>
<path d="M498.176 144.75C499.488 131.889 505.043 121.652 511.909 111.036C512.056 110.803 511.75 110.472 511.517 110.643C501.536 117.705 497.232 133.115 497.134 144.75C497.134 145.424 498.103 145.4 498.164 144.75H498.176Z" fill="#C1443A"/>
<path d="M512.08 111.293C517.586 106.708 520.921 98.8739 520.761 91.7142C520.676 88.1221 519.437 85.1552 517.806 82.029C514.753 76.1934 512.755 70.6152 512.73 63.9336C512.657 42.712 528.78 22.5692 549.428 17.8247C570.076 13.0802 593.372 26.6517 598.166 48.2166C600.851 60.3047 601.415 73.4839 596.155 84.91C591.839 94.2887 585.071 103.189 576.108 108.51C575.017 109.16 576.01 110.876 577.114 110.226C589.681 102.76 599.932 87.9137 601.857 73.3246C604.137 56.0629 599.981 35.7607 585.88 24.494C559.617 3.50534 521.166 19.5288 512.362 50.6318C509.837 59.5691 509.861 69.475 513.564 78.0936C515.808 83.3163 519.045 87.3375 518.824 93.3325C518.591 99.8547 515.317 105.604 511.247 110.484C510.769 111.06 511.492 111.771 512.056 111.293H512.08Z" fill="#C1443A"/>
<path d="M541.041 125.785C531.809 132.295 527.53 146.602 535.573 155.87C539.46 160.345 545.37 162.27 551.022 163.25C560.598 164.893 569.757 165.531 578.781 169.54C593.777 176.197 614.67 192.355 608.49 211.247C602.286 230.225 579.137 232.444 562.413 231.991C544.242 231.5 526.402 230.679 508.341 233.388C495.209 235.362 478.865 238.427 472.109 251.423C461.712 271.394 480.876 290.261 500.763 288.14C511.553 286.988 521.424 277.474 520.026 266.048C518.628 254.622 507.335 249.694 497.588 254.181C497.416 254.267 497.539 254.561 497.723 254.5C503.731 252.391 510.499 253.188 514.888 258.202C520.295 264.393 517.672 273.441 512.534 278.97C506.857 285.1 498.225 285.885 490.513 284.009C477.884 280.944 469.522 268.942 473.482 255.983C478.142 240.744 496.582 237.594 510.168 235.546C525.997 233.156 542.096 233.057 558.06 233.67C570.26 234.136 583.171 234.762 594.365 229.024C602.47 224.88 609.63 217.475 610.979 208.158C612.646 196.683 605.106 186.323 596.866 179.2C586.714 170.435 574.012 164.844 560.819 162.65C552.763 161.313 543.028 161.068 537.363 154.289C530.362 145.915 534.212 133.754 542.133 127.636C543.199 126.815 542.194 124.963 541.041 125.772V125.785Z" fill="#C1443A"/>
<path d="M341.712 174.15C333.828 172.691 328.396 170.888 327.918 161.547C327.587 155.245 328.617 148.747 327.538 142.483C326.251 134.955 320.586 129.426 312.825 129.181C312.347 129.169 312.224 129.965 312.714 130.027C331.155 132.528 323.995 153.026 326.042 165.531C327.244 172.887 334.748 175.964 341.528 175.559C342.288 175.51 342.558 174.309 341.724 174.15H341.712Z" fill="#C1443A"/>
<path d="M314.002 129.547C315.743 121.517 318.686 109.907 315.252 102.097C312.702 96.2986 307.099 91.738 300.956 90.4507C300.306 90.3159 299.828 91.2476 300.478 91.5786C307.503 95.1462 314.124 99.903 314.468 108.583C314.737 115.461 313.082 122.51 312.567 129.363C312.506 130.185 313.83 130.368 314.002 129.559V129.547Z" fill="#C1443A"/>
<path d="M300.87 90.8191C305.775 82.7277 305.787 72.3069 300.061 64.5588C293.391 55.5111 282.871 57.3623 272.915 57.7546C264.712 58.0734 256.497 57.1294 251.409 49.9574C246.835 43.5088 246.492 35.2825 250.452 28.417C255.124 20.3134 268.623 12.8717 275.085 23.2802C276.703 25.8915 277.991 29.7043 277.721 32.806C277.182 38.9482 271.235 41.2775 266.269 43.0061C265.325 43.3372 265.693 44.8083 266.686 44.5264C271.615 43.1287 278.543 41.0568 279.744 35.3438C280.823 30.1947 278.518 23.2067 274.827 19.541C264.54 9.35316 249.042 21.4658 245.879 32.4137C242.066 45.6665 251.347 57.5462 264.577 58.9438C274.043 59.9491 284.955 55.6459 293.697 60.746C303.862 66.6674 305.161 80.7416 299.779 90.2184C299.386 90.9172 300.429 91.5179 300.846 90.8437L300.87 90.8191Z" fill="#C1443A"/>
<path d="M356.977 177.188C360.643 171.255 363.267 164.757 367.914 159.448C370.17 156.874 372.831 154.508 375.847 152.853C378.863 151.198 385.068 148.451 388.329 150.156C390.855 151.48 392.78 155.856 392.007 158.578C391.382 160.772 389.96 163.041 388.415 164.696C385.84 167.454 382.554 169.305 379.133 170.764C371.801 173.89 363.843 175.349 355.911 175.827C354.574 175.913 354.562 178.01 355.911 177.924C366.296 177.299 378.263 175.325 386.809 168.925C391.664 165.296 397.574 157.168 393.442 150.977C389.028 144.369 378.14 148.537 373.088 151.933C364.714 157.573 359.135 167.368 355.911 176.722C355.69 177.372 356.646 177.728 356.989 177.176L356.977 177.188Z" fill="#C1443A"/>
<path d="M354.88 176.895C347.205 179.285 339.346 185.195 334.601 191.692C331.989 195.284 328.396 202.787 332.492 206.637C337.016 210.891 344.189 205.092 347.303 201.782C353.029 195.664 355.592 187.034 356.438 178.881C356.572 177.618 354.647 177.667 354.488 178.881C353.642 185.207 352.722 191.557 349.142 197.013C348.002 198.766 346.616 200.433 345.072 201.843C342.607 204.075 334.515 209.677 333.141 201.696C332.259 196.596 337.752 191.03 341.172 187.892C345.488 183.932 350.319 180.965 355.457 178.243C356.192 177.851 355.69 176.662 354.893 176.907L354.88 176.895Z" fill="#C1443A"/>
<path d="M355.898 177.728C354.647 192.329 355.052 207.531 357.651 221.961C359.871 234.294 364.003 248.369 372.267 258.115C372.831 258.777 373.714 257.931 373.395 257.245C367.718 244.936 361.734 233.865 359.368 220.294C357.002 206.722 357.615 191.962 356.707 177.728C356.671 177.213 355.947 177.213 355.898 177.728Z" fill="#C1443A"/>
<path d="M356.315 177.79C357.872 187.205 371.127 193.531 378.655 197.54C388.513 202.8 400.382 208.133 411.674 208.623C412.275 208.648 412.312 207.826 411.809 207.63C401.963 203.94 392.032 201.733 382.554 196.891C378.336 194.733 374.241 192.318 370.293 189.694C365.756 186.678 359.123 182.951 356.953 177.606C356.793 177.214 356.241 177.361 356.315 177.778V177.79Z" fill="#C1443A"/>
<path d="M501.769 326.39C494.155 339.692 495.859 356.426 513.454 358.976C523.447 360.423 533.685 357.554 543.199 354.82C554.149 351.67 564.889 347.845 575.373 343.382C592.832 335.953 610.108 326.267 618.569 308.405C621.818 301.54 625.092 292.271 623.044 284.633C621.548 279.031 616.165 274.985 610.415 277.278C608.895 277.878 609.581 280.367 611.089 279.742C617.723 277.008 621.229 284.425 621.229 289.856C621.229 293.62 620.15 297.592 618.998 301.147C616.644 308.454 612.622 315.221 607.362 320.8C597.148 331.637 582.987 337.963 569.401 343.443C555.828 348.911 541.372 354.207 526.868 356.5C518.321 357.861 505.938 358.216 500.947 349.487C496.999 342.573 499.746 333.685 503.228 327.224C503.743 326.267 502.308 325.422 501.769 326.366V326.39Z" fill="#C1443A"/>
<path d="M133.738 260.727C128.92 257.454 122.691 258.753 119.233 263.498C115.457 268.671 116.34 275.819 119.381 281.115C128.147 296.329 150.279 302.667 165.899 307.4C186.486 313.64 207.869 317.87 229.424 318.286C237.222 318.433 247.608 319.488 254.646 315.283C259.587 312.328 262.051 306.149 258.532 301.172C257.699 299.995 255.749 301.098 256.571 302.312C264.209 313.566 244.726 315.234 238.596 315.418C231.729 315.626 224.851 315.43 217.997 314.878C203.627 313.701 189.416 310.955 175.5 307.179C162.834 303.746 149.874 299.872 138.349 293.509C132.451 290.248 126.075 286.239 122.36 280.465C120.116 276.983 118.731 272.312 120.03 268.205C121.722 262.872 127.632 259.82 132.88 262.235C133.885 262.688 134.682 261.377 133.751 260.751L133.738 260.727Z" fill="#C1443A"/>
<path d="M142.358 247.376C138.569 244.409 133.971 247.131 133.113 251.593C131.752 258.79 137.073 269.002 139.955 275.426C147.912 293.154 160.186 308.344 175.402 320.383C189.723 331.711 206.386 344.841 225.305 346.055C231.423 346.447 240.288 345.981 243.856 339.974C246.308 335.855 245.217 330.485 240.987 328.18C239.908 327.592 238.939 329.296 240.03 329.823C246.394 332.9 242.421 340.526 237.725 342.659C234.537 344.105 230.871 344.142 227.426 343.995C220.192 343.676 213.227 341.948 206.729 338.772C194.97 333.035 183.592 324.379 173.624 316.006C163.656 307.633 155.931 298.72 149.408 288.201C146.306 283.199 143.596 277.976 141.291 272.57C140.016 269.591 138.863 266.563 137.858 263.473C137.343 261.904 136.865 260.335 136.424 258.753C136.227 258.103 136.056 257.441 135.909 256.779C134.83 253.543 136.583 250.931 141.156 248.97C142.1 249.558 143.29 248.112 142.37 247.388L142.358 247.376Z" fill="#C1443A"/>
<path d="M509.444 358.167C514.962 362.091 521.129 363.047 527.762 363.329C536.345 363.697 544.989 363.648 553.56 363.133C569.156 362.189 584.728 359.369 599 352.785C611.396 347.072 624.294 337.914 630.732 325.52C635.955 315.467 635.329 302.3 624.871 295.962C623.571 295.177 622.406 297.188 623.681 297.997C637.892 306.946 630.045 324.858 621.033 334.273C612.18 343.542 600.741 350.027 588.688 354.171C576.292 358.425 563.197 360.178 550.151 360.767C537.866 361.318 521.215 363.341 510.18 356.892C509.346 356.402 508.684 357.616 509.444 358.155V358.167Z" fill="#C1443A"/>
<path d="M372.953 105.481C374.633 103.421 422.684 44.3296 406.733 27.5827C390.818 10.8727 373.198 66.8997 372.512 69.1433C371.764 66.9242 352.845 11.3263 337.322 28.3919C321.763 45.5065 371.175 103.458 372.904 105.481V105.542C372.904 105.542 372.916 105.53 372.929 105.518C372.929 105.53 372.953 105.542 372.953 105.542V105.481Z" fill="#C1443A"/>
</g>
</g>
<defs>
<clipPath id="clip0_1144_6918">
<rect width="770" height="472" fill="white"/>
</clipPath>
</defs>
</svg>
