<svg width="22" height="22" viewBox="0 0 22 22" fill="none" xmlns="http://www.w3.org/2000/svg">
<path d="M12.0834 11.0229L14.5209 13.4604C14.7195 13.659 14.8188 13.9075 14.8188 14.2057C14.8188 14.504 14.7195 14.7611 14.5209 14.9771C14.3042 15.1937 14.0468 15.3021 13.7485 15.3021C13.4502 15.3021 13.1931 15.1937 12.9772 14.9771L10.6751 12.675C10.4223 12.4222 10.2327 12.1424 10.1063 11.8354C9.97994 11.5285 9.91675 11.1944 9.91675 10.8333V7.58333C9.91675 7.27639 10.0207 7.01892 10.2287 6.81092C10.4367 6.60292 10.6939 6.49928 11.0001 6.5C11.307 6.5 11.5645 6.604 11.7725 6.812C11.9805 7.02 12.0841 7.27711 12.0834 7.58333V11.0229ZM11.0001 2.16667C11.307 2.16667 11.5645 2.27067 11.7725 2.47867C11.9805 2.68667 12.0841 2.94378 12.0834 3.25C12.0834 3.55694 11.9794 3.81442 11.7714 4.02242C11.5634 4.23042 11.3063 4.33406 11.0001 4.33333C10.6931 4.33333 10.4357 4.22933 10.2277 4.02133C10.0197 3.81333 9.91603 3.55622 9.91675 3.25C9.91675 2.94306 10.0207 2.68558 10.2287 2.47758C10.4367 2.26958 10.6939 2.16594 11.0001 2.16667ZM19.6667 10.8333C19.6667 11.1403 19.5627 11.3977 19.3547 11.6057C19.1467 11.8137 18.8896 11.9174 18.5834 11.9167C18.2765 11.9167 18.019 11.8127 17.811 11.6047C17.603 11.3967 17.4994 11.1396 17.5001 10.8333C17.5001 10.5264 17.6041 10.2689 17.8121 10.0609C18.0201 9.85292 18.2772 9.74928 18.5834 9.75C18.8904 9.75 19.1478 9.854 19.3558 10.062C19.5638 10.27 19.6675 10.5271 19.6667 10.8333ZM11.0001 17.3333C11.307 17.3333 11.5645 17.4373 11.7725 17.6453C11.9805 17.8533 12.0841 18.1104 12.0834 18.4167C12.0834 18.7236 11.9794 18.9811 11.7714 19.1891C11.5634 19.3971 11.3063 19.5007 11.0001 19.5C10.6931 19.5 10.4357 19.396 10.2277 19.188C10.0197 18.98 9.91603 18.7229 9.91675 18.4167C9.91675 18.1097 10.0207 17.8522 10.2287 17.6442C10.4367 17.4362 10.6939 17.3326 11.0001 17.3333ZM4.50008 10.8333C4.50008 11.1403 4.39608 11.3977 4.18808 11.6057C3.98008 11.8137 3.72297 11.9174 3.41675 11.9167C3.1098 11.9167 2.85233 11.8127 2.64433 11.6047C2.43633 11.3967 2.33269 11.1396 2.33341 10.8333C2.33341 10.5264 2.43741 10.2689 2.64541 10.0609C2.85341 9.85292 3.11053 9.74928 3.41675 9.75C3.72369 9.75 3.98116 9.854 4.18916 10.062C4.39716 10.27 4.5008 10.5271 4.50008 10.8333ZM11.0001 21.6667C9.50147 21.6667 8.09314 21.3821 6.77508 20.813C5.45703 20.2439 4.3105 19.4722 3.3355 18.4979C2.3605 17.5229 1.5888 16.3764 1.02041 15.0583C0.452026 13.7403 0.16747 12.3319 0.166748 10.8333C0.166748 9.33472 0.451304 7.92639 1.02041 6.60833C1.58953 5.29028 2.36122 4.14375 3.3355 3.16875C4.3105 2.19375 5.45703 1.42206 6.77508 0.853667C8.09314 0.285278 9.50147 0.000722222 11.0001 0C12.4987 0 13.907 0.284556 15.2251 0.853667C16.5431 1.42278 17.6897 2.19447 18.6647 3.16875C19.6397 4.14375 20.4117 5.29028 20.9808 6.60833C21.5499 7.92639 21.8341 9.33472 21.8334 10.8333C21.8334 12.3319 21.5489 13.7403 20.9797 15.0583C20.4106 16.3764 19.6389 17.5229 18.6647 18.4979C17.6897 19.4729 16.5431 20.245 15.2251 20.8141C13.907 21.3832 12.4987 21.6674 11.0001 21.6667ZM11.0001 19.5C13.4195 19.5 15.4688 18.6604 17.148 16.9812C18.8272 15.3021 19.6667 13.2528 19.6667 10.8333C19.6667 8.41389 18.8272 6.36458 17.148 4.68542C15.4688 3.00625 13.4195 2.16667 11.0001 2.16667C8.58064 2.16667 6.53133 3.00625 4.85216 4.68542C3.173 6.36458 2.33341 8.41389 2.33341 10.8333C2.33341 13.2528 3.173 15.3021 4.85216 16.9812C6.53133 18.6604 8.58064 19.5 11.0001 19.5Z" fill="#FF647D"/>
</svg>
