<svg width="26" height="26" viewBox="0 0 26 26" fill="none" xmlns="http://www.w3.org/2000/svg">
<g clip-path="url(#clip0_1158_1847)">
<path d="M9.87105 10.1547C11.7183 12.7169 15.1889 12.2184 16.562 9.47175C18.2849 6.39806 16.471 1.61081 13 1.62503C9.19383 1.63722 7.51521 7.16506 9.87105 10.1547Z" fill="#FF647D"/>
<path d="M23.2253 16.6906C21.9984 11.8704 18.9048 10.2219 17.3444 9.68604C15.4245 13.6023 10.5734 13.599 8.65553 9.68604C7.09512 10.2223 4.00153 11.87 2.77465 16.6906C2.42145 18.1046 2.31263 19.5685 2.4529 21.0192C2.56781 21.743 2.94236 22.4002 3.50654 22.8679C4.07072 23.3356 4.78592 23.5819 5.51846 23.5607C5.11522 22.9536 4.87975 22.2507 4.83594 21.5232C4.79213 20.7957 4.94155 20.0696 5.26903 19.4186L5.97184 17.9252C6.21827 17.408 6.34583 16.8422 6.34518 16.2693C6.3434 15.9892 6.44676 15.7185 6.63484 15.5108C6.4819 14.8488 6.51622 14.1573 6.73396 13.5137C6.76817 13.4142 6.84053 13.3323 6.93511 13.2861C7.0297 13.2399 7.13877 13.2331 7.23832 13.2673C7.33788 13.3015 7.41977 13.3739 7.46597 13.4685C7.51218 13.5631 7.51892 13.6721 7.48471 13.7717C6.83674 15.7428 8.26431 17.185 10.3874 16.5712C11.2608 16.3132 11.6346 16.0191 11.6898 15.8484C11.7057 15.7989 11.7312 15.753 11.7648 15.7133C11.7985 15.6736 11.8396 15.641 11.8859 15.6172C11.9322 15.5934 11.9827 15.579 12.0345 15.5747C12.0864 15.5704 12.1385 15.5764 12.1881 15.5923C12.2376 15.6082 12.2835 15.6337 12.3232 15.6673C12.3629 15.701 12.3956 15.7421 12.4193 15.7884C12.4431 15.8347 12.4576 15.8852 12.4618 15.937C12.4661 15.9889 12.4601 16.041 12.4442 16.0906C12.3167 16.8299 10.4776 17.5449 9.4664 17.5084C9.02843 17.5195 8.59318 17.4363 8.19025 17.2643C7.78732 17.0922 7.42615 16.8355 7.13128 16.5114C7.12843 17.5636 6.41993 18.8238 5.98768 19.7598C5.18615 21.3722 5.74962 23.4794 7.48471 24.1278C7.97912 24.5666 16.4303 24.2684 17.2376 24.3504C19.6994 24.4427 21.0795 21.8878 20.0131 19.7598C19.5824 18.8173 18.8695 17.5713 18.8695 16.5114C18.5746 16.8356 18.2135 17.0925 17.8106 17.2646C17.4076 17.4368 16.9724 17.5202 16.5343 17.5092C15.5228 17.5458 13.6841 16.8312 13.5561 16.0914C13.5402 16.0418 13.5342 15.9897 13.5385 15.9378C13.5428 15.886 13.5572 15.8355 13.581 15.7892C13.6048 15.7429 13.6374 15.7018 13.6771 15.6682C13.7168 15.6345 13.7627 15.609 13.8123 15.5931C13.8618 15.5772 13.914 15.5712 13.9658 15.5755C14.0177 15.5798 14.0682 15.5942 14.1144 15.618C14.1607 15.6418 14.2018 15.6744 14.2355 15.7141C14.2691 15.7538 14.2946 15.7997 14.3105 15.8493C14.3658 16.0199 14.7391 16.314 15.613 16.5724C17.8027 17.1903 19.1599 15.6916 18.5156 13.7725C18.4814 13.6729 18.4882 13.5639 18.5344 13.4693C18.5806 13.3747 18.6625 13.3024 18.762 13.2681C18.8616 13.2339 18.9706 13.2407 19.0652 13.2869C19.1598 13.3331 19.2322 13.415 19.2664 13.5145C19.4841 14.1581 19.5185 14.8497 19.3655 15.5117C19.5536 15.7193 19.6569 15.99 19.6552 16.2701C19.6003 17.2931 20.3198 18.5187 20.7317 19.4194C21.059 20.0705 21.2082 20.7965 21.1642 21.5239C21.1203 22.2513 20.8847 22.9541 20.4815 23.5611C21.2139 23.582 21.929 23.3357 22.4931 22.868C23.0573 22.4003 23.4319 21.7433 23.547 21.0196C23.6873 19.5689 23.5785 18.1046 23.2253 16.6906ZM8.29031 18.589L7.52412 20.2132C7.36579 20.5172 7.3221 20.868 7.40103 21.2016C7.42751 21.2919 7.42037 21.3887 7.38093 21.4742C7.34149 21.5596 7.27243 21.6279 7.18653 21.6663C7.13535 21.6937 7.07798 21.7074 7.01996 21.7062C6.93329 21.7065 6.84891 21.6782 6.77989 21.6258C6.71086 21.5734 6.66103 21.4997 6.63809 21.4161C6.29684 20.4411 7.20562 19.1305 7.57165 18.2514C7.61637 18.1561 7.69713 18.0824 7.79617 18.0466C7.89521 18.0108 8.00442 18.0158 8.09978 18.0605C8.19513 18.1052 8.26882 18.1859 8.30462 18.285C8.34043 18.384 8.33502 18.4936 8.29031 18.589ZM17.6857 18.3148C17.7085 18.2376 17.7541 18.1691 17.8165 18.1182C17.8789 18.0673 17.9551 18.0365 18.0353 18.0296C18.1155 18.0228 18.1959 18.0403 18.266 18.0799C18.3361 18.1194 18.3927 18.1792 18.4283 18.2514C18.7951 19.1289 19.7007 20.4439 19.3655 21.4161C19.3352 21.5156 19.2671 21.5992 19.1759 21.6492C19.0847 21.6991 18.9775 21.7114 18.8774 21.6834C18.7772 21.6554 18.692 21.5893 18.64 21.4992C18.5879 21.4092 18.5732 21.3024 18.5989 21.2016C18.6778 20.868 18.6341 20.5172 18.4758 20.2132L17.7096 18.589C17.6685 18.5036 17.66 18.4061 17.6857 18.3148Z" fill="#FF647D"/>
</g>
<defs>
<clipPath id="clip0_1158_1847">
<rect width="26" height="26" fill="white"/>
</clipPath>
</defs>
</svg>
