<svg width="22" height="20" viewBox="0 0 22 20" fill="none" xmlns="http://www.w3.org/2000/svg">
<path d="M5.5 0.375C8.53875 0.375 11 2.78813 11 5.765C11 2.78813 13.4613 0.375 16.5 0.375C19.5387 0.375 22 2.78813 22 5.765C22 10.2516 17.5533 11.8343 11.539 18.976C11.4728 19.0544 11.3903 19.1175 11.2972 19.1607C11.2041 19.204 11.1026 19.2264 11 19.2264C10.8974 19.2264 10.7959 19.204 10.7028 19.1607C10.6097 19.1175 10.5272 19.0544 10.461 18.976C4.44675 11.8343 0 10.2516 0 5.765C0 2.78813 2.46125 0.375 5.5 0.375Z" fill="#FF647D"/>
</svg>
