<svg width="18" height="18" viewBox="0 0 18 18" fill="none" xmlns="http://www.w3.org/2000/svg">
<path d="M0.5625 11.1375C0.711684 11.1375 0.854758 11.1967 0.960248 11.3022C1.06574 11.4077 1.125 11.5508 1.125 11.7V14.5125C1.125 14.8108 1.24353 15.097 1.4545 15.3079C1.66548 15.5189 1.95163 15.6375 2.25 15.6375H15.75C16.0484 15.6375 16.3345 15.5189 16.5455 15.3079C16.7565 15.097 16.875 14.8108 16.875 14.5125V11.7C16.875 11.5508 16.9343 11.4077 17.0398 11.3022C17.1452 11.1967 17.2883 11.1375 17.4375 11.1375C17.5867 11.1375 17.7298 11.1967 17.8352 11.3022C17.9407 11.4077 18 11.5508 18 11.7V14.5125C18 15.1092 17.7629 15.6815 17.341 16.1034C16.919 16.5254 16.3467 16.7625 15.75 16.7625H2.25C1.65326 16.7625 1.08097 16.5254 0.65901 16.1034C0.237053 15.6815 0 15.1092 0 14.5125V11.7C0 11.5508 0.0592632 11.4077 0.164752 11.3022C0.270242 11.1967 0.413316 11.1375 0.5625 11.1375Z" fill="#3F4949"/>
<path d="M8.60173 1.28928C8.65398 1.2369 8.71605 1.19533 8.78439 1.16698C8.85273 1.13862 8.92599 1.12402 8.99998 1.12402C9.07397 1.12402 9.14723 1.13862 9.21557 1.16698C9.2839 1.19533 9.34598 1.2369 9.39823 1.28928L12.7732 4.66428C12.8789 4.7699 12.9382 4.91316 12.9382 5.06253C12.9382 5.2119 12.8789 5.35516 12.7732 5.46078C12.6676 5.5664 12.5244 5.62574 12.375 5.62574C12.2256 5.62574 12.0824 5.5664 11.9767 5.46078L9.56248 3.0454V12.9375C9.56248 13.0867 9.50322 13.2298 9.39773 13.3353C9.29224 13.4408 9.14916 13.5 8.99998 13.5C8.85079 13.5 8.70772 13.4408 8.60223 13.3353C8.49674 13.2298 8.43748 13.0867 8.43748 12.9375V3.0454L6.02323 5.46078C5.97093 5.51308 5.90884 5.55456 5.84051 5.58287C5.77218 5.61117 5.69894 5.62574 5.62498 5.62574C5.55102 5.62574 5.47778 5.61117 5.40945 5.58287C5.34111 5.55456 5.27903 5.51308 5.22673 5.46078C5.17443 5.40848 5.13294 5.34639 5.10464 5.27806C5.07634 5.20973 5.06177 5.13649 5.06177 5.06253C5.06177 4.98857 5.07634 4.91533 5.10464 4.847C5.13294 4.77867 5.17443 4.71658 5.22673 4.66428L8.60173 1.28928Z" fill="#3F4949"/>
</svg>
