<svg width="58" height="60" viewBox="0 0 58 60" fill="none" xmlns="http://www.w3.org/2000/svg">
<path d="M41.7753 38.3624C41.7753 49.4841 32.7593 58.5 21.6376 58.5C10.5159 58.5 1.5 49.4841 1.5 38.3624C1.5 35.7385 2.71591 32.1095 4.72892 27.9847C6.716 23.913 9.38008 19.5536 12.0661 15.5332C14.7485 11.518 17.4338 7.86922 19.45 5.22261C20.3245 4.07464 21.0721 3.11655 21.6376 2.40045C22.2032 3.11655 22.9508 4.07464 23.8253 5.22261C25.8414 7.86922 28.5267 11.518 31.2092 15.5332C33.8952 19.5536 36.5593 23.913 38.5463 27.9847C40.5594 32.1095 41.7753 35.7385 41.7753 38.3624Z" fill="#F2F5FA" stroke="#00309D" stroke-width="3"/>
<path d="M20.0693 19.3379L22.4902 20.9357C24.1751 22.0478 26.3753 21.9889 27.9984 20.7883L30.2887 19.0941C31.8797 17.9172 34.0292 17.8352 35.7052 18.8876L39.1756 21.0667C40.8324 22.107 42.9544 22.0398 44.5421 20.8967L46.8471 19.2371C48.5729 17.9945 50.9098 18.0331 52.5936 19.332L57.0728 22.7874" stroke="#00309D" stroke-width="3"/>
<path d="M20.0693 32.0906L22.4902 33.6884C24.1751 34.8005 26.3753 34.7416 27.9984 33.541L30.2887 31.8467C31.8797 30.6699 34.0292 30.5879 35.7052 31.6403L39.1756 33.8194C40.8324 34.8597 42.9544 34.7925 44.5421 33.6494L46.8471 31.9897C48.5729 30.7472 50.9098 30.7858 52.5936 32.0847L57.0728 35.5401" stroke="#00309D" stroke-width="3"/>
<path d="M20.0693 44.8433L22.4902 46.4411C24.1751 47.5531 26.3753 47.4943 27.9984 46.2936L30.2887 44.5994C31.8797 43.4225 34.0292 43.3406 35.7052 44.3929L39.1756 46.572C40.8324 47.6124 42.9544 47.5452 44.5421 46.402L46.8471 44.7424C48.5729 43.4999 50.9098 43.5385 52.5936 44.8374L57.0728 48.2928" stroke="#00309D" stroke-width="3"/>
<path d="M9.5121 31.7771C7.63057 37.2126 8.4668 45.366 14.5295 49.6517" stroke="#00309D" stroke-width="3"/>
</svg>
