<svg width="61" height="60" viewBox="0 0 61 60" fill="none" xmlns="http://www.w3.org/2000/svg">
<path d="M60.4086 38.3055C55.152 28.0557 43.7114 18.75 30.6669 18.75C17.5309 18.75 6.12365 28.1692 0.925215 38.3055C0.580918 38.9769 0.580918 39.7731 0.925215 40.4446C6.18189 50.6943 17.6224 60 30.6669 60C45.4372 60 56.3248 48.4076 60.4086 40.4445C60.7529 39.7731 60.7529 38.9769 60.4086 38.3055ZM30.6669 55.3125C20.0291 55.3125 11.0997 48.2453 5.71115 39.375C11.04 30.6029 19.941 23.4375 30.6669 23.4375C41.347 23.4375 50.2644 30.5549 55.6227 39.375C50.2094 48.2857 41.2442 55.3125 30.6669 55.3125ZM1.40557 13.028C2.27158 12.066 3.75365 11.9884 4.71564 12.8545L9.93564 17.5546C10.8975 18.4208 10.9752 19.9027 10.1091 20.8646C9.24295 21.8268 7.76088 21.9041 6.799 21.0381L1.579 16.3379C0.617129 15.4719 0.539434 13.99 1.40557 13.028ZM28.3232 11.7188V2.34375C28.3232 1.04941 29.3725 0 30.6669 0C31.9614 0 33.0107 1.04941 33.0107 2.34375V11.7188C33.0107 13.0131 31.9614 14.0625 30.6669 14.0625C29.3725 14.0625 28.3232 13.0131 28.3232 11.7188ZM13.4638 6.49863C12.9373 5.31609 13.4691 3.9307 14.6516 3.40418C15.8343 2.87766 17.2195 3.40945 17.7461 4.59199L21.3305 12.6428C21.857 13.8252 21.3252 15.2107 20.1427 15.7372C18.9635 16.2621 17.5765 15.7356 17.0482 14.5494L13.4638 6.49863ZM51.2248 20.8646C50.3587 19.9028 50.4362 18.4208 51.3982 17.5546L56.6182 12.8545C57.5801 11.9884 59.0622 12.066 59.9283 13.028C60.7944 13.9898 60.7169 15.4718 59.7549 16.3379L54.5349 21.0381C53.5726 21.9043 52.0908 21.8264 51.2248 20.8646ZM40.0033 12.6428L43.5877 4.59199C44.1142 3.40945 45.4996 2.87766 46.6821 3.40418C47.8647 3.9307 48.3965 5.31609 47.8699 6.49863L44.2855 14.5493C43.7567 15.7372 42.3683 16.2613 41.1911 15.7372C40.0087 15.2107 39.4769 13.8253 40.0033 12.6428ZM30.6669 27.8613C24.3183 27.8613 19.1533 33.0264 19.1533 39.375C19.1533 45.7236 24.3183 50.8887 30.6669 50.8887C37.0156 50.8887 42.1806 45.7236 42.1806 39.375C42.1806 33.0264 37.0156 27.8613 30.6669 27.8613ZM30.6669 46.2012C26.903 46.2012 23.8408 43.1389 23.8408 39.375C23.8408 35.6111 26.903 32.5488 30.6669 32.5488C34.4309 32.5488 37.4931 35.6111 37.4931 39.375C37.4931 43.1389 34.4309 46.2012 30.6669 46.2012Z" fill="#00309D" stroke="white"/>
</svg>
