<svg width="59" height="59" viewBox="0 0 59 59" fill="none" xmlns="http://www.w3.org/2000/svg">
<path d="M27.5775 34.0113C27.6176 34.0102 27.6586 34.0092 27.6998 34.0081C27.7084 34.0081 27.7182 34.0081 27.7268 34.0081C27.742 34.0071 27.7571 34.0071 27.7723 34.0071C27.9032 34.004 28.0341 34.0019 28.166 34.0008C28.1866 34.0008 28.2072 34.0008 28.2276 34.0008C28.2319 34.0008 28.2352 34.0008 28.2396 34.0008C35.8057 33.9475 42.0499 36.4305 46.5873 39.1257C51.0772 41.7927 53.8948 44.6678 54.666 45.5C53.1138 47.1727 43.2948 57.1037 28.2396 56.9992C28.2353 56.9992 28.232 56.9992 28.2276 56.9992C28.2071 56.9992 28.1865 56.9992 28.166 56.9992C28.0568 56.9981 27.9476 56.9971 27.8394 56.995C27.8242 56.9961 27.8102 56.995 27.795 56.994C14.0226 56.7179 4.56475 48.1921 2.33552 46.1336C2.05425 45.8743 1.82394 45.6537 1.66602 45.5C1.82394 45.3463 2.05436 45.1257 2.33552 44.8664C4.23275 43.1131 11.3682 36.6741 21.9455 34.6291" fill="#F2F5FA"/>
<path d="M27.5775 34.0113C27.6176 34.0102 27.6586 34.0092 27.6998 34.0081C27.7084 34.0081 27.7182 34.0081 27.7268 34.0081C27.742 34.0071 27.7571 34.0071 27.7723 34.0071C27.9032 34.004 28.0341 34.0019 28.166 34.0008C28.1866 34.0008 28.2072 34.0008 28.2276 34.0008C28.2319 34.0008 28.2352 34.0008 28.2396 34.0008C35.8057 33.9475 42.0499 36.4305 46.5873 39.1257C51.0772 41.7927 53.8948 44.6678 54.666 45.5C53.1138 47.1727 43.2948 57.1037 28.2396 56.9992C28.2353 56.9992 28.232 56.9992 28.2276 56.9992C28.2071 56.9992 28.1865 56.9992 28.166 56.9992C28.0568 56.9981 27.9476 56.9971 27.8394 56.995C27.8242 56.9961 27.8102 56.995 27.795 56.994C14.0226 56.7179 4.56475 48.1921 2.33552 46.1336C2.05425 45.8743 1.82394 45.6537 1.66602 45.5C1.82394 45.3463 2.05436 45.1257 2.33552 44.8664C4.23275 43.1131 11.3682 36.6741 21.9455 34.6291" stroke="#00309D" stroke-width="3" stroke-miterlimit="10" stroke-linecap="round" stroke-linejoin="round"/>
<path d="M27.5467 34.0127C27.59 34.0106 28.2388 33.999 28.2433 34.0001C35.1115 34.0378 40.666 39.1721 40.666 45.4995C40.666 51.8268 35.1115 56.9613 28.2433 56.999C28.2388 57 28.2354 57 28.2308 56.999C28.2091 57 28.1875 57 28.166 57C28.0513 57 27.9365 56.999 27.8229 56.9948C27.8069 56.9958 27.7922 56.9948 27.7762 56.9938C21.0535 56.8046 15.666 51.7307 15.666 45.4996C15.666 41.076 18.3797 37.237 22.3591 35.3133" fill="#F2F5FA"/>
<path d="M27.5467 34.0127C27.59 34.0106 28.2388 33.999 28.2433 34.0001C35.1115 34.0378 40.666 39.1721 40.666 45.4995C40.666 51.8268 35.1115 56.9613 28.2433 56.999C28.2388 57 28.2354 57 28.2308 56.999C28.2091 57 28.1875 57 28.166 57C28.0513 57 27.9365 56.999 27.8229 56.9948C27.8069 56.9958 27.7922 56.9948 27.7762 56.9938C21.0535 56.8046 15.666 51.7307 15.666 45.4996C15.666 41.076 18.3797 37.237 22.3591 35.3133" stroke="#00309D" stroke-width="3" stroke-miterlimit="10" stroke-linecap="round" stroke-linejoin="round"/>
<path d="M28.166 51C31.2036 51 33.666 48.5376 33.666 45.5C33.666 42.4624 31.2036 40 28.166 40C25.1284 40 22.666 42.4624 22.666 45.5C22.666 48.5376 25.1284 51 28.166 51Z" fill="#F2F5FA" stroke="#00309D" stroke-width="3" stroke-miterlimit="10" stroke-linecap="round" stroke-linejoin="round"/>
<path d="M20.666 31.6667C20.666 29.8258 24.166 25 24.166 25C24.166 25 27.666 29.8258 27.666 31.6667C27.666 33.5076 26.099 35 24.166 35C22.233 35 20.666 33.5078 20.666 31.6667Z" stroke="#00309D" stroke-width="3" stroke-miterlimit="10" stroke-linecap="round" stroke-linejoin="round"/>
<path d="M50.685 3.14856L56.3615 13.092C56.9884 14.1904 56.6163 15.5948 55.5304 16.2289L42.7488 23.692C41.6628 24.326 40.2741 23.9498 39.6471 22.8515L33.9706 12.908C33.3436 11.8097 33.7156 10.4052 34.8016 9.77117L47.5833 2.30808C48.6693 1.67389 50.0579 2.05022 50.685 3.14856Z" fill="#F2F5FA" stroke="#00309D" stroke-width="3" stroke-miterlimit="10" stroke-linecap="round" stroke-linejoin="round"/>
<path d="M33.7588 13L29.666 15.2514L35.5733 25L39.666 22.7486" stroke="#00309D" stroke-width="3" stroke-miterlimit="10" stroke-linecap="round" stroke-linejoin="round"/>
<path d="M24.8655 24.2921C25.2073 24.8546 25.9079 25.1239 26.5649 24.9453L34.666 22.7428L31.1776 17L25.1201 22.5668C24.6288 23.0183 24.5239 23.7296 24.8655 24.2921Z" stroke="#00309D" stroke-width="3" stroke-miterlimit="10" stroke-linecap="round" stroke-linejoin="round"/>
<path d="M48.6617 13.3779C49.1657 11.4969 48.0494 9.56359 46.1684 9.0596C44.2874 8.55562 42.354 9.67185 41.85 11.5528C41.346 13.4337 42.4623 15.3671 44.3433 15.871C46.2243 16.375 48.1577 15.2588 48.6617 13.3779Z" stroke="#00309D" stroke-width="3" stroke-miterlimit="10" stroke-linecap="round" stroke-linejoin="round"/>
</svg>
